<?xml version="1.0" encoding="utf-8"?>
<!-- Generator: Adobe Illustrator 18.1.1, SVG Export Plug-In . SVG Version: 6.00 Build 0)  -->
<svg version="1.1" id="Layer_1" xmlns="http://www.w3.org/2000/svg" xmlns:xlink="http://www.w3.org/1999/xlink" x="0px" y="0px"
	 viewBox="0 0 330 60" enable-background="new 0 0 330 60" xml:space="preserve">
<g>
	<path fill="#C7AF2E" d="M44.8,43.5c0,0,0,0.1-0.2,0.1l-0.2,0.1l0,0c-0.6,0-1.1,0-1.2,0c-1.9,0-3.4-0.3-4.3-1s-1.3-1.8-1.3-3.5
		c0-0.6,0.2-1.8,0.4-3.3c0.3-1.5,0.4-2.7,0.4-3.3c0-0.5-0.2-0.8-0.4-1c-0.3-0.3-0.6-0.5-0.9-0.5c-0.6,0-1.8,0.6-3.4,1.8
		c-1.7,1.2-3.8,2.9-6.2,4.8C27.3,38,27.3,38,27.2,38c-0.2,0-0.2,0.1-0.3,0.1c0,0,0,0-0.2,0c0,0,0,0-0.2,0s-0.2,0-0.3-0.1
		c0-0.1-0.2-0.1-0.2-0.3v-0.1c0,0,0,0,0-0.1c1-1.2,2.1-2.7,3.5-4.6c1.2-2,1.9-3.5,2.2-4.5c0-0.1-0.2-0.1-0.2-0.3
		c-0.2-0.1-0.2-0.1-0.3-0.3c-0.8,0-2.2,0.6-4.3,1.8c-2.2,1.2-3.9,2.2-5.1,3.3c-1.5,2-3,3.8-4.8,5.4s-3.3,2.7-4.7,3.3
		c-0.2,0-0.2-0.1-0.2-0.3s-0.2-0.1-0.2-0.3c0-0.6,0.9-1.8,2.7-3.6c1.8-1.8,3.8-3.3,5.7-4.8c0.9-1,1.7-2.4,2.7-4.2
		c0.9-1.8,1.3-3.1,1.3-4c-0.2-0.5-0.5-0.9-0.6-1.2c-0.3-0.3-0.6-0.6-0.9-0.8c-2.4,0-5,0.9-7.7,2.7c-2.7,1.8-3.9,3.6-3.9,5.2
		c0,0.1,0,0.1,0.2,0.3s0.3,0.3,0.5,0.5c0.9,0,2.2-0.5,3.9-1.2s3.2-1.8,4.7-3c0.2,0,0.2,0,0.3,0.1l0.2,0.1v0.1c0,0,0,0,0,0.1
		c-2,1.8-3.8,3.1-5.2,4.2c-1.7,1-3,1.5-3.9,1.5c-0.5,0-0.9-0.1-1.2-0.5c-0.3-0.3-0.5-0.8-0.5-1.4c0-0.9,0.5-2,1.2-3
		c0.9-1,2.1-2.1,3.6-3.1c2.2-1.5,4-2.5,5.4-3.1c1.3-0.5,2.7-0.8,4-0.8c0.8,0,1.2,0.3,1.8,0.8c0.5,0.5,0.8,1,0.8,1.5
		s-0.2,1.2-0.5,2.1s-0.9,2.1-1.7,3.5l-0.9,1.6c0.5-0.1,1.2-0.6,2.4-1.4c4.3-2.2,6.9-3.5,7.7-3.5c0.3,0,0.4,0.1,0.8,0.3
		c0.2,0.3,0.3,0.6,0.3,0.9c-0.3,0.8-0.8,1.6-1.5,2.9c-0.8,1-1.7,2.4-3,3.9l0,0c1.3-0.9,2.6-1.6,3.4-2.2c0.9-0.6,1.7-1,2.1-1.4
		c0.6-0.5,1.1-0.8,1.5-0.9s0.9-0.1,1.5-0.1c0.6,0.3,0.9,0.6,1.1,0.9s0.3,0.8,0.3,1.5c0,0.6-0.2,1.8-0.6,3.9c-0.3,2-0.6,3.5-0.6,4.2
		c0,1,0.4,1.8,1.3,2.4s1.9,0.9,3.4,0.9c0.2,0,0.3,0,0.4,0c0.2,0,0.2,0,0.3,0s0.2,0,0.3,0.1C44.8,43.4,44.8,43.4,44.8,43.5z
		 M19.8,34.5c-0.5,0.1-1.3,0.9-3,2.4c-1.5,1.5-2.5,2.4-2.8,3v0.3c0.8-0.6,1.8-1.4,2.8-2.4s2.1-2.1,2.8-3L19.8,34.5z"/>
	<path fill="#C7AF2E" d="M65.9,36.8L65.9,36.8c0,0.1,0,0.1-0.2,0.1c-1.5,0.9-2.8,1.5-4.1,2c-1.2,0.5-2.2,0.6-3.3,0.6
		c-0.4,0-0.9-0.1-1.7-0.3c-0.2,0-0.2,0-0.2,0c-0.4-0.3-0.8-0.6-1.2-1c-0.3-0.5-0.6-1-0.8-1.6c-0.4,0.3-1.1,0.6-1.7,1
		c-0.3,0.1-0.4,0.3-0.6,0.5c-1.3,0.9-2.4,1.5-3,1.8s-1.1,0.5-1.5,0.5c-0.9,0-1.5-0.3-1.9-0.8s-0.8-1.2-0.8-2.1c0-0.6,0.2-1,0.3-1.6
		s0.4-1,0.8-1.5l0,0h0.2c0.2,0,0.4,0,0.6,0.1s0.3,0.3,0.3,0.5c-0.2,0.3-0.3,0.6-0.4,1c-0.2,0.3-0.2,0.8-0.2,1c0,0.6,0.2,1.2,0.4,1.5
		c0.3,0.3,0.6,0.5,1.2,0.5c1.1,0,2.2-0.5,3.6-1.4s2.7-2.2,4.2-4c0.2,0,0.2,0,0.3,0.1c0.2,0,0.2,0.1,0.3,0.3c0,0,0,0,0,0.1l0,0
		c0,0,0,0.1,0,0.3s0,0.1-0.2,0.3s-0.2,0.5-0.2,0.6s0,0.5,0,0.6c0,0.8,0.2,1.5,0.6,2s1.1,0.8,1.8,0.8c0.9,0,1.9-0.1,3.2-0.6
		c1.2-0.3,2.2-0.9,3.3-1.5c0,0,0,0,0.2,0c0,0,0,0,0.2,0c0,0,0.2,0,0.2,0.1C65.9,36.6,65.9,36.6,65.9,36.8z"/>
	<path fill="#C7AF2E" d="M91.2,36.8L91.2,36.8c0,0.1,0,0.1-0.2,0.1c-1.7,1-3.2,1.6-4.1,2.1c-1.1,0.5-1.8,0.6-2.4,0.6
		c-0.4,0-0.9-0.3-1.3-0.8s-0.8-1.2-1.2-2.2c0-0.1-0.2-0.3-0.3-0.6c-0.2-0.5-0.3-0.8-0.3-0.8c-0.8,0.1-1.5,0.5-2.2,0.9
		c-0.8,0.5-1.7,0.9-2.6,1.5c-0.3,0.1-0.8,0.6-1.2,1c-0.6,0.5-0.9,0.8-1.1,0.8c-0.4,0-0.8-0.1-0.9-0.3s-0.3-0.5-0.3-0.9
		c0-0.1,0-0.5,0.2-0.9c0.2-0.5,0.3-1.2,0.8-2.2c0-0.1-0.2-0.3-0.3-0.5c-0.3-0.1-0.4-0.3-0.6-0.3c-0.6,0-1.7,0.6-3.4,1.6
		c-1.7,1-3.4,2.4-5.2,3.9c-0.3,0-0.4,0-0.6-0.1s-0.3-0.5-0.3-0.8c0.8-1,1.2-2,1.7-3c0.4-0.9,0.9-2.1,1.2-3.1c0.2,0,0.4,0,0.6,0.1
		s0.3,0.1,0.4,0.5v0.8c0,0.1-0.2,0.6-0.3,1c0,0.1-0.2,0.1-0.2,0.3c-0.2,0.3-0.2,0.6-0.3,0.9c0,0.3-0.2,0.6-0.2,0.9
		c0.4-0.3,1.7-1,3.9-2.4c2.1-1.4,3.3-2.1,3.6-2.1c0.4,0.1,0.8,0.3,0.9,0.5c0.2,0.1,0.3,0.5,0.3,0.8c0,0.1,0,0.3,0,0.6
		c0,0.1-0.2,0.6-0.2,0.9v0.1c-0.2,0.6-0.2,1-0.2,1.5c0,0.1,0,0.3,0,0.5c0,0.1,0,0.3,0,0.5c0.3-0.1,0.8-0.5,1.2-0.8s1.1-0.6,1.7-1
		c0.3-0.1,0.6-0.3,1.1-0.6c1.8-1.2,2.7-1.6,2.8-1.6c0.4,0,0.9,0.1,1.1,0.3c0.3,0.1,0.4,0.6,0.6,1c0.3,1.5,0.6,2.2,0.9,2.7
		c0.3,0.3,0.8,0.6,1.5,0.6c0.4,0,1.2-0.1,2.4-0.6c1.2-0.5,2.1-0.9,2.7-1.2c0,0,0,0,0.2,0c0,0,0,0,0.2,0c0,0,0.2,0,0.2,0.1
		C91.2,36.6,91.2,36.6,91.2,36.8z"/>
	<path fill="#C7AF2E" d="M106.1,36.8L106.1,36.8c0,0.1,0,0.1-0.2,0.1c-0.4,0.1-0.9,0.3-1.3,0.5s-0.9,0.1-1.2,0.1
		c-0.8,0-1.5-0.1-2.1-0.5c-0.8-0.3-1.3-0.8-1.9-1.4c-0.2,0.1-0.3,0.3-0.4,0.5c-0.4,0.3-0.8,0.8-1.1,0.9c-1.1,0.9-1.8,1.5-2.7,1.8
		s-1.5,0.6-2.2,0.6c-0.9,0-1.5-0.3-1.9-0.8s-0.6-1-0.6-1.8c0-0.9,0.2-1.8,0.4-2.7c0.3-1,0.8-2,1.3-3c1.3-2.1,3.2-4.2,5.2-5.9
		c2.2-1.8,4.1-2.7,5.6-2.7c0.4,0,0.8,0.1,1.1,0.5c0.3,0.3,0.4,0.6,0.4,1.2c-0.8,2-2.2,3.8-4.5,5.7c-2.1,1.8-4.7,3.3-7.5,4.5
		c-0.2,0.3-0.3,0.8-0.4,1.2c-0.2,0.5-0.2,0.9-0.2,1.5c0.2,0.3,0.3,0.6,0.4,0.9s0.4,0.3,0.8,0.3c1.2,0,2.4-0.3,3.3-0.9
		c1.1-0.6,1.8-1.4,2.1-2.4c-0.2,0-0.2-0.1-0.2-0.1c0-0.1-0.2-0.1-0.2-0.3s0-0.3,0-0.3c0-0.1,0.2-0.1,0.2-0.3c0,0,0.2-0.1,0.3-0.1
		s0.3,0,0.4,0c0.2,0,0.3,0,0.3,0c0.2,0,0.2,0,0.2,0.1c0.3,0.9,0.8,1.6,1.5,2.1c0.8,0.6,1.5,0.8,2.4,0.8c0.4,0,0.8,0,1.2,0
		c0.3,0,0.6-0.1,0.9-0.3l0,0c0,0,0,0,0.2,0c0,0,0.2,0,0.2,0.1C106.1,36.6,106.1,36.6,106.1,36.8z M102.9,24.6c0-0.1-0.2-0.1-0.2-0.3
		s-0.2-0.1-0.2-0.3c-0.3,0-0.8,0.1-1.2,0.3s-1.1,0.5-1.7,0.9c-1.2,0.9-2.6,2-3.9,3.6c-1.3,1.5-2.4,2.9-3,4c3-1,5.2-2.4,7.2-4
		S102.9,25.8,102.9,24.6z"/>
	<path fill="#C7AF2E" d="M121.1,36.8L121.1,36.8c0,0.1,0,0.1-0.2,0.1c-0.8,0.5-1.7,0.9-2.7,1.2c-1.1,0.3-1.8,0.5-2.6,0.5
		s-1.3-0.1-1.9-0.3s-1.2-0.5-1.7-0.9c-1.3,0.9-2.4,1.6-3.4,2.1c-1.1,0.5-1.9,0.8-2.7,0.8c-0.4,0-0.8-0.1-1.1-0.3s-0.4-0.6-0.4-0.9
		c0-1.4,1.1-2.7,3-4.2s3.9-2.4,5.7-2.7c0.2,0,0.4,0.1,0.8,0.5c0.3,0.3,0.4,0.5,0.6,0.6c0,0.1,0,0.5-0.2,0.6s-0.3,0.3-0.4,0.5
		c-0.2,0-0.2,0-0.4-0.1c-0.2-0.1-0.3-0.3-0.4-0.3c0,0,0,0-0.2,0h-0.2c-1.1,0-2.4,0.6-4.1,2c-1.7,1.2-2.4,2.1-2.4,2.7
		c0,0.1,0,0.3,0.2,0.6c0.2,0.1,0.3,0.3,0.6,0.3c1.3-0.1,2.6-0.8,3.6-1.5c1.2-0.8,2.1-1.6,2.8-2.9l0,0c0.2,0,0.4,0,0.8,0.1
		s0.4,0.3,0.6,0.3l-1.2,1.5c0.3,0.1,0.8,0.3,1.1,0.5c0.4,0.1,0.8,0.1,1.2,0.1c0.9,0,1.7-0.1,2.4-0.3s1.5-0.5,2.2-0.8l0,0
		c0,0,0,0,0.2,0c0,0,0.2,0,0.2,0.1C121.1,36.6,121.1,36.6,121.1,36.8z"/>
	<path fill="#C7AF2E" d="M129.8,36.8L129.8,36.8c0,0.1,0,0.1-0.2,0.1c-1.1,0.6-2.2,1.2-3.6,1.6c-1.3,0.5-2.6,0.8-3.4,0.8
		c-0.8,0-1.3-0.1-1.8-0.5c-0.4-0.3-0.6-0.8-0.6-1.4c0-0.3,0-0.5,0.2-0.8s0.2-0.6,0.4-0.9l1.5-2.7c0-0.1,0.2-0.3,0.2-0.3
		c0.2-0.1,0.3-0.1,0.4-0.1c0.2,0.1,0.3,0.1,0.4,0.3c0.2,0.1,0.2,0.3,0.3,0.5c-0.4,0.8-0.9,1.5-1.2,2.1c-0.3,0.6-0.4,1-0.6,1l0,0
		c0,0.1,0,0.5,0.2,0.8s0.2,0.5,0.3,0.6c0.3,0.1,0.4,0.1,0.6,0.1s0.3,0,0.4,0c0.8,0,1.8-0.1,3-0.5c1.2-0.3,2.1-0.8,2.8-1.2
		c0,0,0,0,0.2,0c0,0,0,0,0.2,0c0,0,0.2,0,0.2,0.1C129.8,36.6,129.8,36.6,129.8,36.8z M127.1,27.2c-0.2,0.5-0.4,0.8-0.8,1
		s-0.8,0.5-1.1,0.5c-0.2-0.1-0.3-0.1-0.3-0.3s-0.2-0.3-0.2-0.5c0-0.3,0.2-0.8,0.3-1s0.4-0.6,0.9-0.9h0.4c0.2,0,0.2,0.1,0.3,0.1
		c0,0.1,0.2,0.3,0.2,0.5v0.1C126.9,26.9,126.9,27,127.1,27.2z"/>
	<path fill="#C7AF2E" d="M140.6,31.5h0.8v3.6h3.6v0.8h-3.4v3.6h-0.8v-3.6h-3.6v-0.8h3.6v-3.6H140.6z"/>
	<path fill="#C7AF2E" d="M161.4,32.9c0,1.2-0.6,2.5-1.8,4c-1.2,1.5-2.8,3.1-5.1,4.8c-0.2,0.1-0.4,0.3-0.8,0.6c-1.3,1-2.2,1.6-2.7,2
		c-0.2,0-0.3,0-0.3-0.1c-0.2-0.1-0.2-0.1-0.2-0.3v-0.1c0,0,0,0,0-0.1c2.7-1.5,4.8-3.3,6.4-5.4c1.7-2.1,2.6-4,2.6-5.5
		c-0.2-0.5-0.3-0.9-0.6-1c-0.3-0.3-0.6-0.5-1.1-0.6c-0.9,0-1.8,0.3-2.8,1c-0.9,0.8-1.3,1.6-1.3,2.5c0,0.3,0.2,0.5,0.3,0.8
		c0.2,0.1,0.4,0.3,0.6,0.3l1.2-0.3c0.3-0.1,0.6-0.3,0.9-0.5c0.3-0.1,0.6-0.5,0.9-0.8l0,0c0,0,0,0,0.2,0s0.2,0,0.2,0.1
		c0,0,0,0.1,0,0.3c-1.1,1-1.9,1.6-2.6,2.1c-0.8,0.5-1.3,0.6-1.8,0.6c-0.4,0-0.9-0.1-1.1-0.5c-0.3-0.3-0.3-0.8-0.3-1.4
		c0-1,0.8-2.2,2.1-3.5c1.3-1.4,2.7-2,3.9-2c1.1,0,1.8,0.3,2.4,0.8C161.3,31.2,161.4,32,161.4,32.9z"/>
	<path fill="#C7AF2E" d="M170.9,30.2c-0.3,0.6-0.8,1.6-1.5,3.5c-0.8,1.8-1.5,3.8-2.4,6c-0.2,0-0.3,0.1-0.6,0.1c-0.2,0-0.4,0-0.6,0
		c-0.3,0-0.4,0-0.8-0.1s-0.3-0.1-0.3-0.3c0.6-1.2,1.3-2.4,1.9-3.8c0.8-1.4,1.3-2.5,1.8-3.6c-0.3,0.1-0.9,0.5-1.8,0.9
		c-0.9,0.5-1.5,0.8-1.8,0.9c-0.2,0-0.3,0-0.3-0.1c-0.2-0.1-0.2-0.1-0.2-0.3s0-0.1,0-0.3s0.2-0.1,0.2-0.1c0.9-0.3,1.9-0.6,3-1.2
		s1.9-1.2,2.6-1.8c0-0.1,0.2-0.1,0.2-0.1s0.2,0,0.3,0s0.2,0,0.3,0.1C170.9,30,170.9,30.2,170.9,30.2z"/>
	<path fill="#C7AF2E" d="M189.9,31.8c0,0.8-0.3,1.4-0.8,2s-1.3,1.2-2.2,1.8l-0.8,0.5c-1.5,0.9-2.7,1.6-3.3,2.1
		c0.6,0.1,1.3,0.3,2.2,0.5c0.9,0.1,1.7,0.1,2.2,0.1c0.4,0,0.9,0,1.2-0.1c0.3,0,0.6-0.1,0.9-0.3l0,0l0,0c0,0,0.2,0,0.2,0.1v0.1v0.1
		c0,0,0,0-0.2,0.1c-0.3,0.1-0.8,0.3-1.7,0.6c-0.8,0.1-1.5,0.3-1.9,0.3c-0.2,0-0.8,0-1.7,0s-1.5,0-1.8,0c-0.6,0-1.2,0-1.7,0
		c-0.6,0-1.1,0.1-1.3,0.1c-0.2,0-0.2,0-0.3-0.1c-0.2,0-0.2-0.1-0.2-0.3s0-0.1,0-0.3c0,0,0-0.1,0.2-0.1c2.6-1.2,4.7-2.4,6.3-3.8
		s2.6-2.5,2.6-3.6c0-0.3-0.2-0.6-0.3-0.8s-0.4-0.3-0.8-0.3c-1.1,0-1.9,0.3-2.8,0.8c-0.8,0.5-1.2,0.9-1.2,1.4c0,0.3,0,0.5,0.2,0.5
		c0.2,0.1,0.3,0.1,0.6,0.1c0.3,0,0.8-0.1,1.2-0.3s0.8-0.5,1.2-0.8h0.2c0,0,0,0,0.2,0c0,0,0.2,0,0.2,0.1c0,0,0,0.1,0,0.3l0,0
		c-0.6,0.5-1.2,0.9-1.8,1.2c-0.6,0.3-1.2,0.5-1.7,0.5c-0.3,0-0.8-0.1-0.9-0.3c-0.3-0.1-0.3-0.5-0.3-0.8c0-0.8,0.8-1.6,2.2-2.5
		s2.7-1.4,3.8-1.4c0.6,0,1.2,0.1,1.5,0.6C189.7,30.8,189.9,31.2,189.9,31.8z"/>
	<path fill="#C7AF2E" d="M202.4,31.8c0,0.8-0.3,1.4-0.8,2s-1.3,1.2-2.2,1.8l-0.8,0.5c-1.5,0.9-2.7,1.6-3.3,2.1
		c0.6,0.1,1.3,0.3,2.2,0.5c0.9,0.1,1.7,0.1,2.2,0.1c0.4,0,0.9,0,1.2-0.1c0.3,0,0.6-0.1,0.9-0.3l0,0l0,0c0,0,0.2,0,0.2,0.1l0.2,0.1
		v0.1c0,0,0,0-0.2,0.1c-0.3,0.1-0.8,0.3-1.7,0.6c-0.8,0.1-1.5,0.3-1.9,0.3c-0.2,0-0.8,0-1.7,0s-1.5,0-1.8,0c-0.6,0-1.2,0-1.7,0
		c-0.6,0-1.1,0.1-1.3,0.1c-0.2,0-0.2,0-0.3-0.1c-0.2,0-0.2-0.1-0.2-0.3s0-0.1,0-0.3c0,0,0-0.1,0.2-0.1c2.6-1.2,4.7-2.4,6.3-3.8
		s2.6-2.5,2.6-3.6c0-0.3-0.2-0.6-0.3-0.8s-0.4-0.3-0.8-0.3c-1.1,0-1.9,0.3-2.8,0.8c-0.8,0.5-1.2,0.9-1.2,1.4c0,0.3,0,0.5,0.2,0.5
		c0.2,0.1,0.3,0.1,0.6,0.1c0.3,0,0.8-0.1,1.2-0.3s0.8-0.5,1.2-0.8h0.2c0,0,0,0,0.2,0c0,0,0.2,0,0.2,0.1c0,0,0,0.1,0,0.3l0,0
		c-0.6,0.5-1.2,0.9-1.8,1.2c-0.6,0.3-1.2,0.5-1.7,0.5c-0.3,0-0.8-0.1-0.9-0.3c-0.3-0.1-0.3-0.5-0.3-0.8c0-0.8,0.8-1.6,2.2-2.5
		s2.7-1.4,3.8-1.4c0.6,0,1.2,0.1,1.5,0.6C202.2,30.8,202.4,31.2,202.4,31.8z"/>
	<path fill="#C7AF2E" d="M216.1,26.6c-2.6,1.2-4.8,2.9-6.4,4.8c-1.7,2.1-2.6,3.8-2.6,5.4c0,0.6,0.2,1.2,0.6,1.5s0.9,0.6,1.5,0.6
		l1.1-0.3c0.6-0.1,1.2-0.6,1.7-1c0.4-0.5,0.9-1,1.1-1.5c0-0.3-0.2-0.5-0.3-0.6s-0.3-0.3-0.3-0.3c-0.6,0-1.2,0.1-1.8,0.5
		c-0.6,0.3-1.3,0.8-1.9,1.4c-0.2,0-0.2,0-0.3,0l-0.2-0.1v-0.1v-0.1c0.6-0.8,1.3-1.4,2.2-2c0.8-0.5,1.5-0.8,2.1-0.8
		c0.4,0,0.9,0.1,1.1,0.3c0.3,0.3,0.4,0.6,0.4,0.9s-0.2,0.8-0.4,1.2c-0.3,0.5-0.6,0.9-1.2,1.5c-0.6,0.8-1.3,1.2-1.9,1.5
		s-1.3,0.5-1.9,0.5c-1.1,0-1.9-0.3-2.4-0.8c-0.6-0.5-0.8-1.2-0.8-2.1c0-1.8,1.1-3.8,3.2-5.9s4.5-3.9,7.3-5.1c0.2,0,0.2,0,0.3,0.1
		C216.1,26.3,216.1,26.4,216.1,26.6z"/>
	<path fill="#C7AF2E" d="M227.9,26.6c-2.6,1.2-4.8,2.9-6.4,4.8c-1.7,2.1-2.6,3.8-2.6,5.4c0,0.6,0.2,1.2,0.6,1.5s0.9,0.6,1.5,0.6
		l1.1-0.3c0.6-0.1,1.2-0.6,1.7-1c0.4-0.5,0.9-1,1.1-1.5c0-0.3-0.2-0.5-0.3-0.6s-0.3-0.3-0.3-0.3c-0.6,0-1.2,0.1-1.8,0.5
		c-0.6,0.3-1.3,0.8-1.9,1.4c-0.2,0-0.2,0-0.3,0l-0.2-0.1v-0.1v-0.1c0.6-0.8,1.3-1.4,2.2-2c0.8-0.5,1.5-0.8,2.1-0.8
		c0.4,0,0.9,0.1,1.1,0.3c0.3,0.3,0.4,0.6,0.4,0.9s-0.2,0.8-0.4,1.2c-0.3,0.5-0.6,0.9-1.2,1.5c-0.6,0.8-1.3,1.2-1.9,1.5
		s-1.3,0.5-1.9,0.5c-1.1,0-1.9-0.3-2.4-0.8c-0.6-0.5-0.8-1.2-0.8-2.1c0-1.8,1.1-3.8,3.2-5.9s4.5-3.9,7.3-5.1c0.2,0,0.2,0,0.3,0.1
		C227.9,26.3,227.9,26.4,227.9,26.6z"/>
	<path fill="#C7AF2E" d="M237.5,31.7c0,0.5-0.3,1-0.9,1.6s-1.2,1-2.1,1.5c0.8,0.1,1.3,0.6,1.7,0.9c0.3,0.5,0.6,1,0.6,1.8
		c0,1.6-1.1,3.1-3,4.5s-4.1,2.1-6.4,2.1c-0.8,0-1.2-0.1-1.7-0.3c-0.4-0.3-0.6-0.6-0.6-1c0-1,0.6-2,1.8-2.7c1.2-0.8,2.6-1.2,4.2-1.2
		h0.3c0.2,0,0.2,0,0.2,0.1l0.2,0.1c0,0.1,0,0.1,0,0.3l-0.2,0.1c-1.1,0.1-2.2,0.5-3.6,1.2s-1.9,1.4-1.9,1.8c0,0.1,0.2,0.3,0.3,0.5
		c0.2,0.1,0.3,0.1,0.6,0.1c1.7,0,3.6-0.8,5.7-2.1s3.2-2.7,3.2-3.9c0-0.6-0.2-1-0.4-1.4c-0.3-0.3-0.8-0.5-1.2-0.5
		c-0.2,0-0.4,0-0.8,0.1c-0.3,0-0.4,0.1-0.6,0.1s-0.2,0-0.3-0.1l-0.2-0.1v-0.1l0.2-0.1c1.1-0.5,1.9-0.9,2.6-1.5
		c0.6-0.6,0.9-1.2,0.9-1.8c0-0.3-0.2-0.6-0.3-0.8s-0.4-0.3-0.8-0.3c-0.6,0-1.1,0.1-1.3,0.6c-0.4,0.5-0.6,0.9-0.6,1.5
		c0,0.1,0,0.1-0.2,0.1s-0.2,0.1-0.3,0.1s-0.3,0-0.4-0.1c-0.2,0-0.2-0.1-0.2-0.3c0-0.8,0.4-1.4,1.2-2s1.7-0.9,2.4-0.9
		s1.2,0.1,1.7,0.5C237.3,30.8,237.5,31.2,237.5,31.7z"/>
	<path fill="#C7AF2E" d="M250.7,30.6C250.7,30.6,250.7,30.8,250.7,30.6c0,0.1,0,0.1,0,0.1c-2.6,2-4.7,3.9-6.3,5.9
		c-1.7,2.1-2.6,3.8-2.6,5.1c0,0.3,0.2,0.6,0.2,0.8c0.2,0.1,0.3,0.3,0.4,0.5c0.3,0,0.6-0.3,0.9-0.8c0.3-0.6,0.6-1.2,0.6-2v-0.9
		c0-0.1,0-0.1,0.2-0.3c0,0,0.2-0.1,0.3-0.1h0.2l0.2,0.1v1.5c0,0.8-0.3,1.6-1.1,2.4c-0.6,0.9-1.2,1.4-1.8,1.4c-0.4,0-0.8-0.1-1.1-0.5
		s-0.3-0.8-0.3-1.5c0-1,0.6-2.2,1.7-3.8s2.6-3.1,4.7-5.1c0.3-0.3,0.8-0.8,1.2-1.2l0.2-0.1c-0.6,0.1-1.3,0.3-2.4,0.5
		c-0.9,0.1-1.8,0.1-2.6,0.1l-1.5-0.3c-0.2,0-0.2-0.1-0.2-0.3s0-0.3,0-0.5c0-0.3,0-0.5,0.2-0.6s0.2-0.3,0.3-0.3
		c0.4,0,0.9,0.1,1.5,0.1s1.1,0,1.7,0c1.2,0,2.2,0,3.3-0.1s1.7-0.3,2.1-0.5c0,0,0,0,0.2,0l0,0c0.2,0,0.2,0,0.2,0.1
		C250.6,30.5,250.7,30.6,250.7,30.6z"/>
	<path fill="#C7AF2E" d="M259.7,30.3C259.7,30.3,259.6,30.5,259.7,30.3c0,0.1,0,0.1,0,0.1c-0.4,0.1-0.9,0.3-1.5,0.5
		c-0.6,0.1-1.2,0.1-1.8,0.3c-0.3,0.5-0.4,0.8-0.8,1.2c-0.2,0.5-0.4,0.8-0.4,1c0.3,0.1,0.6,0.3,1.1,0.5c0.4,0.1,0.6,0.3,0.8,0.3
		c0.4,0.3,0.8,0.6,1.1,1.2c0.3,0.5,0.3,1,0.3,1.6c0,2-0.9,3.6-2.8,5c-1.9,1.5-4.2,2.1-6.8,2.1c-0.6-0.1-1.1-0.3-1.2-0.5
		c-0.3-0.1-0.4-0.5-0.4-0.9c0-0.9,0.6-1.6,1.8-2.5c1.2-0.9,2.6-1.2,4.1-1.2h0.3c0.2,0,0.2,0,0.3,0.1c0,0,0.2,0.1,0.2,0.3
		s0,0.1,0,0.1h-0.2c-1.1,0.1-2.4,0.5-3.6,1.2c-1.3,0.8-1.9,1.4-1.9,1.8c0.2,0.1,0.2,0.3,0.3,0.3c0.2,0.1,0.3,0.1,0.4,0.1
		c1.8,0,3.8-0.8,5.7-2.2s3-3,3-4.4c0-0.8-0.1-1.2-0.6-1.6c-0.4-0.5-0.9-0.6-1.6-0.6c-0.2,0-0.3,0-0.6,0c-0.3,0-0.4,0-0.8,0
		c-0.2,0-0.3,0-0.3-0.1s-0.2-0.1-0.2-0.3l0.2-0.1c0.9-1.6,1.5-2.9,1.8-3.3l1.5,0.1c0.5,0,0.8-0.1,1.2-0.3c0.4-0.1,0.9-0.5,1.3-0.8
		l0,0l0,0c0.2,0,0.3,0.1,0.4,0.3C259.6,30,259.7,30.2,259.7,30.3z"/>
	<path fill="#C7AF2E" d="M272.2,30.6C272.2,30.6,272.2,30.8,272.2,30.6c0,0.1,0,0.1,0,0.1c-2.6,2-4.7,3.9-6.3,5.9
		c-1.6,2.1-2.5,3.8-2.5,5.1c0,0.3,0.1,0.6,0.1,0.8c0.1,0.1,0.3,0.3,0.4,0.5c0.3,0,0.6-0.3,0.9-0.8c0.3-0.6,0.6-1.2,0.6-2v-0.9
		c0-0.1,0-0.1,0.2-0.3c0,0,0.1-0.1,0.3-0.1h0.2l0.2,0.1v1.5c0,0.8-0.3,1.6-1.1,2.4c-0.6,0.9-1.2,1.4-1.8,1.4c-0.5,0-0.8-0.1-1.1-0.5
		c-0.3-0.3-0.3-0.8-0.3-1.5c0-1,0.6-2.2,1.6-3.8s2.6-3.1,4.6-5.1c0.3-0.3,0.8-0.8,1.2-1.2l0.1-0.1c-0.6,0.1-1.4,0.3-2.4,0.5
		c-0.9,0.1-1.8,0.1-2.6,0.1l-1.5-0.3c-0.1,0-0.1-0.1-0.1-0.3s0-0.3,0-0.5c0-0.3,0-0.5,0.1-0.6c0-0.1,0.2-0.3,0.3-0.3
		c0.4,0,0.9,0.1,1.5,0.1c0.6,0,1,0,1.6,0c1.2,0,2.2,0,3.3-0.1s1.7-0.3,2.1-0.5c0,0,0,0,0.2,0l0,0c0.2,0,0.2,0,0.2,0.1
		C272.2,30.5,272.2,30.6,272.2,30.6z"/>
	<path fill="#C7AF2E" d="M283.2,26.6c-2.6,1.2-4.8,2.9-6.4,4.8c-1.6,2.1-2.6,3.8-2.6,5.4c0,0.6,0.2,1.2,0.6,1.5
		c0.5,0.3,0.9,0.6,1.5,0.6l1.1-0.3c0.6-0.1,1.2-0.6,1.6-1c0.4-0.5,0.9-1,1.1-1.5c0-0.3-0.2-0.5-0.3-0.6s-0.3-0.3-0.3-0.3
		c-0.6,0-1.2,0.1-1.8,0.5c-0.6,0.3-1.4,0.8-1.9,1.4c-0.2,0-0.2,0-0.3,0l-0.1-0.1v-0.1v-0.1c0.6-0.8,1.3-1.4,2.2-2
		c0.8-0.5,1.5-0.8,2.1-0.8c0.4,0,0.9,0.1,1.1,0.3c0.3,0.3,0.4,0.6,0.4,0.9s-0.2,0.8-0.4,1.2c-0.3,0.5-0.6,0.9-1.2,1.5
		c-0.6,0.8-1.3,1.2-1.9,1.5s-1.4,0.5-1.9,0.5c-1.1,0-1.9-0.3-2.4-0.8c-0.6-0.5-0.8-1.2-0.8-2.1c0-1.8,1.1-3.8,3.2-5.9
		s4.5-3.9,7.3-5.1c0.2,0,0.2,0,0.3,0.1C283.2,26.3,283.2,26.4,283.2,26.6z"/>
	<path fill="#C7AF2E" d="M291.2,30.2c-0.3,0.6-0.8,1.6-1.5,3.5c-0.8,1.8-1.5,3.8-2.4,6c-0.2,0-0.3,0.1-0.6,0.1c-0.1,0-0.4,0-0.6,0
		c-0.3,0-0.4,0-0.8-0.1c-0.3-0.1-0.3-0.1-0.3-0.3c0.6-1.2,1.3-2.4,1.9-3.8c0.8-1.4,1.4-2.5,1.8-3.6c-0.3,0.1-0.9,0.5-1.8,0.9
		c-0.9,0.5-1.5,0.8-1.8,0.9c-0.2,0-0.3,0-0.3-0.1c-0.1-0.1-0.1-0.1-0.1-0.3s0-0.1,0-0.3s0.1-0.1,0.1-0.1c0.9-0.3,2-0.6,3-1.2
		c1.1-0.6,2-1.2,2.6-1.8c0-0.1,0.1-0.1,0.1-0.1s0.1,0,0.3,0s0.2,0,0.3,0.1C291.2,30,291.2,30.2,291.2,30.2z"/>
	<path fill="#C7AF2E" d="M306.8,23.3c-1.6,2.1-3.9,5.1-6.4,8.7c-2.6,3.8-4.7,6.8-6.2,9.3c0,0-0.1,0-0.3,0c-0.2,0-0.3,0-0.5,0
		c-0.1,0-0.4,0-0.6-0.1s-0.3-0.3-0.3-0.3c2.2-2.9,4.6-6.1,7.4-9.8c2.7-3.6,4.6-6.5,5.7-8.2c0,0,0,0,0.2-0.1h0.2c0.1,0,0.3,0,0.6,0.1
		C306.7,23,306.8,23.1,306.8,23.3z"/>
	<path fill="#C7AF2E" d="M312.8,30.6C312.8,30.6,312.8,30.8,312.8,30.6c0,0.1,0,0.1,0,0.1c-2.6,2-4.6,3.9-6.3,5.9
		c-1.7,2.1-2.6,3.8-2.6,5.1c0,0.3,0.1,0.6,0.1,0.8s0.3,0.3,0.5,0.5c0.3,0,0.6-0.3,0.9-0.8c0.3-0.6,0.6-1.2,0.6-2v-0.9
		c0-0.1,0-0.1,0.1-0.3c0,0,0.1-0.1,0.3-0.1h0.2l0.1,0.1v1.5c0,0.8-0.3,1.6-1.1,2.4c-0.6,0.9-1.2,1.4-1.8,1.4c-0.4,0-0.8-0.1-1.1-0.5
		c-0.3-0.3-0.3-0.8-0.3-1.5c0-1,0.6-2.2,1.6-3.8c1.1-1.5,2.6-3.1,4.7-5.1c0.3-0.3,0.8-0.8,1.2-1.2l0.1-0.1c-0.6,0.1-1.3,0.3-2.4,0.5
		c-0.9,0.1-1.8,0.1-2.6,0.1l-1.5-0.3c-0.2,0-0.2-0.1-0.2-0.3s0-0.3,0-0.5c0-0.3,0-0.5,0.2-0.6c0-0.1,0.2-0.3,0.3-0.3
		c0.4,0,0.9,0.1,1.5,0.1s1.1,0,1.6,0c1.2,0,2.2,0,3.3-0.1c1-0.1,1.6-0.3,2.1-0.5c0,0,0,0,0.2,0l0,0c0.1,0,0.1,0,0.1,0.1
		C312.8,30.5,312.8,30.6,312.8,30.6z"/>
	<path fill="#C7AF2E" d="M320,30.2c-0.3,0.6-0.8,1.6-1.5,3.5c-0.8,1.8-1.5,3.8-2.4,6c-0.1,0-0.3,0.1-0.6,0.1c-0.2,0-0.4,0-0.6,0
		c-0.3,0-0.5,0-0.8-0.1c-0.3-0.1-0.3-0.1-0.3-0.3c0.6-1.2,1.4-2.4,2-3.8c0.8-1.4,1.3-2.5,1.8-3.6c-0.3,0.1-0.9,0.5-1.8,0.9
		c-0.9,0.5-1.5,0.8-1.8,0.9c-0.1,0-0.3,0-0.3-0.1c-0.2-0.1-0.2-0.1-0.2-0.3s0-0.1,0-0.3s0.2-0.1,0.2-0.1c0.9-0.3,1.9-0.6,3-1.2
		c1-0.6,1.9-1.2,2.5-1.8c0-0.1,0.2-0.1,0.2-0.1s0.2,0,0.3,0s0.1,0,0.3,0.1C320,30,320,30.2,320,30.2z"/>
</g>
</svg>
