<?xml version="1.0" encoding="utf-8"?>
<!-- Generator: Adobe Illustrator 18.1.1, SVG Export Plug-In . SVG Version: 6.00 Build 0)  -->
<svg version="1.1" id="Layer_1" xmlns="http://www.w3.org/2000/svg" xmlns:xlink="http://www.w3.org/1999/xlink" x="0px" y="0px"
	 viewBox="0 0 330 60" enable-background="new 0 0 330 60" xml:space="preserve">
<g>
	<path fill="#C7AF2E" d="M41.7,15.8c0,0.8-0.3,1.5-1,2.2s-1.5,1.5-2.5,2.1c-0.8,0.4-1.5,0.9-2.2,1.2s-1.3,0.8-2.2,1.1
		c1,0.1,2.1,0.6,2.8,1.2c0.8,0.6,1.2,1.4,1.2,2.2c0.5,0.1,1,0.4,1.8,0.8c0.3,0.1,0.8,0.3,0.9,0.4c0,0,0,0,0,0.1v0.1
		c0,0,0,0.1-0.2,0.1H40c-0.2-0.1-0.6-0.1-0.9-0.3c-0.8-0.3-1.3-0.6-1.8-0.6c-0.8,1.4-2.1,2.7-4,3.8s-3.8,1.6-5.5,1.6
		c-0.9,0-1.5-0.1-2-0.3c-0.5-0.3-0.8-0.6-0.9-1.2c0-1.2,0.9-2.4,2.8-3.4c2-1.1,3.9-1.6,6-1.6h0.2c0.3,0,0.8,0,1.5,0.1v-0.1v-0.1
		c0-0.6-0.3-1.1-0.8-1.5s-1-0.6-1.7-0.6c-0.2,0-0.6,0-1.2,0c-0.6,0-1,0.1-1.5,0.1c-0.2,0-0.2,0-0.3-0.1c0,0-0.2-0.1-0.2-0.3v-0.1
		c0,0,0,0,0.2-0.1c2.8-0.9,5.1-1.8,6.8-3.1c1.8-1.2,2.7-2.4,2.7-3.6c-0.2-0.4-0.5-0.9-0.9-1.2s-1-0.4-1.8-0.6
		c-0.8,0-1.7,0.1-2.7,0.4s-2.1,0.6-3.3,1.2c-3,1.2-5.8,3.1-8.7,5.6c-2.8,2.6-4.3,4.5-4.3,6.1c0,0.3,0,0.6,0.2,0.8s0.3,0.3,0.5,0.4
		c1.5-0.4,3.2-1.4,5.1-3.1c2-1.6,3.6-3.6,5.1-5.7l0,0c0,0,0,0,0.2,0s0.2,0,0.2,0.1c0,0,0,0.1,0,0.3c-1.7,2.7-3.6,4.9-6,7.1
		s-4.2,3-5.7,3c-0.5-0.1-0.9-0.3-1.2-0.8s-0.6-0.8-0.6-1.2c0-2.2,1.5-4.5,4.5-7.1s6.5-4.6,10.5-6.1c1.2-0.4,2.5-0.9,4-1.4
		c1.5-0.4,2.4-0.6,3-0.6c0.9,0,1.7,0.1,2.2,0.3c0.5,0.1,0.9,0.6,1.3,1.1c0,0.3,0.2,0.4,0.2,0.8C41.7,15.2,41.7,15.5,41.7,15.8z
		 M35.1,26.6L35.1,26.6C35.1,26.4,35.1,26.4,35.1,26.6c0-0.3,0-0.3,0-0.4L34.9,26c-0.2,0-0.5,0-0.8,0s-0.5,0-0.5,0
		c-1.5,0-2.8,0.3-4.2,1.1c-1.3,0.8-2.2,1.5-2.8,2.6c0.2,0.3,0.5,0.4,1,0.8c0.2,0,0.2,0.1,0.2,0.1c1.2,0,2.5-0.4,4-1.2
		C33.3,28.5,34.3,27.6,35.1,26.6z"/>
	<path fill="#C7AF2E" d="M59.7,27.5C59.7,27.5,59.7,27.6,59.7,27.5c0,0.1,0,0.1-0.2,0.1c-1,0.8-2.2,1.4-3.5,1.9
		c-1.3,0.6-2.8,1.4-4.8,2.1c-1,2.7-2.4,5.1-4,7.4c-1.7,2.2-3.5,4-5.5,5.5c-0.8,0.6-1.8,1-2.8,1.6c-1.2,0.4-2,0.8-2.5,0.8
		c-0.8-0.1-1.3-0.4-1.8-0.8c-0.5-0.4-0.6-0.9-0.6-1.5c0-1.5,1.7-3.4,4.8-6.1c3.2-2.7,6.9-5.1,11.2-7.5c0.3-0.6,0.6-1.2,0.8-1.9
		s0.3-1.4,0.3-1.9v-0.6l-3,1.5c-0.2,0-0.3,0.1-0.8,0.3c-2.1,1.1-3.5,1.6-3.9,1.6c-0.6,0-1.2-0.1-1.5-0.6c-0.3-0.3-0.5-0.9-0.5-1.5
		c0-0.1,0.2-0.4,0.3-0.8c0.2-0.3,0.6-0.8,1.2-1.4c0.2-0.1,0.3-0.3,0.6-0.6s0.5-0.4,0.6-0.6c0,0,0.2,0,0.2-0.1c0.2,0,0.2,0,0.3,0
		c0.2,0,0.5,0,0.6,0.1c0.2,0,0.3,0.1,0.3,0.1c0,0.1-0.2,0.3-0.3,0.6c-0.2,0.3-0.5,0.6-0.9,1.2c0,0-0.2,0.1-0.3,0.3
		c-0.5,0.4-0.6,0.8-0.8,0.9c0,0.3,0,0.6,0.2,0.8s0.2,0.1,0.3,0.1c1.2,0,2.5-0.3,3.9-1.1c1.3-0.6,2.8-1.8,4.8-3.3l0.2-0.1h0.2
		c0.2,0,0.3,0,0.3,0.1c0.2,0,0.2,0.1,0.2,0.1c-0.3,0.9-0.6,1.9-0.9,3.1c-0.3,1.2-0.5,2.2-0.6,3c1.2-0.3,2.5-0.9,3.9-1.5
		c1.3-0.6,2.5-1.2,3.8-1.9c0,0,0,0,0.2,0c0,0,0,0,0.2,0c0,0,0.2,0,0.2,0.1C59.7,27.3,59.7,27.3,59.7,27.5z M49.2,32.7
		c-3.5,1.5-6.5,3.4-9,5.7S36.3,42.5,36,44c0,0.3,0.2,0.4,0.3,0.8c0.2,0.1,0.5,0.3,0.6,0.4c1.5-0.1,3.6-1.3,6-3.6s4.3-4.8,5.8-7.7
		c0.2-0.1,0.2-0.3,0.2-0.6C49,33.2,49.2,33,49.2,32.7z"/>
	<path fill="#C7AF2E" d="M93.9,27.5C93.9,27.5,93.7,27.6,93.9,27.5c0,0.1,0,0.1-0.2,0.1c-1,0.8-2.2,1.4-3.6,1.8s-2.5,0.8-3.3,0.8
		c-0.5,0-0.8,0-0.9,0s-0.5,0-0.5,0c-0.9-0.1-1.7-0.4-2.1-1.1c-0.5-0.6-0.8-1.4-0.8-2.4c0-0.3,0-0.6,0-1.1c0-0.1,0-0.1,0-0.1
		l-2.8,1.6c-2.7,1.6-5,2.7-6.5,3.3c-1.7,0.6-2.8,0.9-3.9,0.9c-1-0.3-1.8-0.6-2.2-1.1s-0.8-1.2-0.9-2.1c0-1.8,1-3.6,3.2-5.6
		c2.1-1.9,4.7-3.6,8-4.9c2.1-0.9,4.2-1.6,6.2-2.1c2-0.4,3.8-0.8,5.4-0.8c1.5,0,2.7,0.3,3.6,0.8c0.9,0.4,1.3,1.1,1.3,1.8
		s-0.5,1.4-1.5,1.8c-0.9,0.4-2.4,0.6-4.5,0.6l0,0h-0.2v-0.1v-0.1c0,0,0-0.1,0.2-0.1c1,0,2-0.1,2.8-0.6c0.9-0.4,1.3-0.9,1.5-1.5
		c0-0.6-0.2-0.9-0.6-1.2c-0.5-0.3-1-0.4-2-0.4s-2.5,0.3-4.8,1.1s-4.8,1.6-7.3,2.9c-2.8,1.4-5.2,2.9-7.3,4.5S67,27,67,28.1
		c0,0.4,0.2,0.9,0.6,1.1c0.5,0.3,1,0.3,1.8,0.3c1.3,0,3.3-0.6,5.8-1.6c2.5-1.1,5.1-2.4,7.5-3.9c0.3-1.1,0.9-1.9,1.5-2.7
		c0.8-0.8,1.5-1.4,2.5-1.6c0.3,0,0.5,0,0.6,0.1c0.2,0.1,0.3,0.1,0.3,0.3c0,0.4-0.3,1.1-0.9,1.8c-0.6,0.8-1.5,1.5-2.5,2.1
		c0,0.1-0.2,0.4-0.2,0.8s0,0.6,0,1.1c0,0.9,0.3,1.5,0.6,2.1c0.5,0.4,1,0.9,1.8,1.2c1,0,2.2-0.1,3.6-0.6c1.3-0.3,2.4-0.8,3.3-1.4
		c0,0,0,0,0.2,0c0,0,0,0,0.2,0c0,0,0.2,0,0.2,0.1C93.7,27.3,93.9,27.3,93.9,27.5z M86.7,21L86.7,21c-0.5,0-0.8,0.3-1.2,0.8
		s-0.8,1.1-1,1.6c0.3-0.3,0.8-0.6,1.2-1.1C86.1,21.8,86.4,21.3,86.7,21z"/>
	<path fill="#C7AF2E" d="M109.9,27.5C109.9,27.5,109.9,27.6,109.9,27.5c0,0.1,0,0.1-0.2,0.1c-0.9,0.4-2,0.8-3.2,1.1s-2.5,0.3-4,0.3
		c-0.2,0-0.3,0-0.5,0s-0.5,0-0.8,0c-0.6,0.1-1.2,0.3-2.1,0.4c-0.9,0.1-1.5,0.3-1.8,0.3h-0.2v-0.1c0-0.1,0-0.1,0-0.3l0.2-0.1
		c1.3-0.4,2.4-0.9,3.3-1.5c0.8-0.6,1.5-1.4,2-2.4c0-0.3-0.2-0.6-0.3-0.8c-0.2-0.1-0.5-0.3-0.8-0.3c-0.6,0-1.3,0.1-2.2,0.4
		s-1.7,0.8-2.1,1.1c-1,4.4-3.2,8.7-6.2,13.1c-3,4.3-5.5,6.4-7.8,6.4c-0.2,0-0.5-0.1-0.6-0.4c-0.2-0.3-0.3-0.6-0.3-0.9
		c0-2.2,1.5-5.4,4.3-9.6s6.2-7.4,9.8-9.5c0.2-0.3,0.2-0.4,0.3-0.6c0.2-0.1,0.3-0.3,0.5-0.4c0.2,0,0.3,0,0.5,0.1
		c0.2,0,0.3,0.1,0.3,0.3c0.6-0.3,1.5-0.6,2.4-0.8c0.9-0.3,1.7-0.4,1.8-0.4c0.6,0,1.2,0.1,1.7,0.4s0.6,0.8,0.6,1.2
		c0,0.6-0.2,1.2-0.6,1.8c-0.5,0.6-1,1.2-1.8,1.6c0.2,0,0.2,0,0.3,0c0.5,0,0.9,0.1,1,0.1c1.3,0,2.5-0.1,3.5-0.3
		c0.9-0.1,1.7-0.4,2.2-0.8c0,0,0,0,0.2,0c0,0,0,0,0.2,0c0,0,0.2,0,0.2,0.1C109.9,27.3,109.9,27.3,109.9,27.5z M95.5,27.2
		c-2.8,1.4-5.2,3.8-7.7,7.2c-2.2,3.5-3.5,6.1-3.5,8.2c0,0.1,0,0.3,0.2,0.3c0,0,0.2,0.2,0.3,0.2c1-0.2,2.7-1.7,5-4.7s3.9-6.1,5.2-9.3
		c0.2-0.4,0.3-0.8,0.3-1.1C95.5,27.6,95.5,27.5,95.5,27.2z"/>
	<path fill="#C7AF2E" d="M126,27.5C126,27.5,126,27.6,126,27.5c0,0.1,0,0.1-0.2,0.1c-0.9,0.4-1.8,0.8-3.2,1.1
		c-1.2,0.3-2.5,0.3-4,0.3c-0.2,0-0.3,0-0.5,0s-0.5,0-0.8,0c-0.6,0.1-1.2,0.3-2.1,0.4c-0.9,0.1-1.5,0.3-1.8,0.3h-0.2v-0.1
		c0-0.1,0-0.1,0-0.3l0.2-0.1c1.3-0.4,2.4-0.9,3.3-1.5c0.8-0.6,1.5-1.4,2-2.4c0-0.3-0.2-0.6-0.3-0.8c-0.2-0.1-0.5-0.3-0.8-0.3
		c-0.6,0-1.3,0.1-2.2,0.4s-1.7,0.8-2.1,1.1c-1.2,4.4-3.2,8.7-6.2,13.1c-3,4.3-5.5,6.4-7.8,6.4c-0.2,0-0.5-0.1-0.6-0.4
		c-0.2-0.3-0.3-0.6-0.3-0.9c0-2.2,1.5-5.4,4.3-9.6s6.2-7.4,9.8-9.5c0.2-0.3,0.2-0.4,0.3-0.6c0.2-0.1,0.3-0.3,0.5-0.4
		c0.2,0,0.3,0,0.5,0.1c0.2,0,0.3,0.1,0.3,0.3c0.6-0.3,1.5-0.6,2.4-0.8c0.9-0.3,1.7-0.4,1.8-0.4c0.6,0,1.2,0.1,1.7,0.4
		s0.6,0.8,0.6,1.2c0,0.6-0.2,1.2-0.6,1.8c-0.5,0.6-1,1.2-1.8,1.6c0.2,0,0.2,0,0.3,0c0.5,0,0.9,0.1,1,0.1c1.3,0,2.5-0.1,3.5-0.3
		c0.9-0.1,1.7-0.4,2.2-0.8c0,0,0,0,0.2,0c0,0,0,0,0.2,0c0,0,0.2,0,0.2,0.1C126,27.3,126,27.3,126,27.5z M111.6,27.2
		c-2.8,1.4-5.2,3.8-7.7,7.2c-2.2,3.5-3.5,6.1-3.5,8.2c0,0.1,0,0.3,0.2,0.3c0,0,0.2,0.2,0.3,0.2c1-0.2,2.7-1.7,5-4.7s3.9-6.1,5.2-9.3
		c0.2-0.4,0.3-0.8,0.3-1.1C111.6,27.6,111.6,27.5,111.6,27.2z"/>
	<path fill="#C7AF2E" d="M140.7,27.5C140.7,27.5,140.7,27.6,140.7,27.5c0,0.1,0,0.1-0.1,0.1c-0.5,0.3-1.1,0.4-1.8,0.6
		c-0.6,0.1-1.2,0.3-1.8,0.3c-0.6,0-1.3-0.1-2.1-0.3c-0.8-0.3-1.4-0.4-1.8-0.8c-0.3,0.4-0.6,0.9-1.1,1.4c-0.4,0.4-0.8,0.8-1,1.1
		s-0.9,0.4-1.3,0.8c-0.6,0.1-1.1,0.3-1.5,0.3c-0.9,0-1.7-0.1-2.2-0.6s-0.8-1.1-0.8-1.8c0-0.6,0.2-1.2,0.5-1.8s0.6-1.2,1-1.6
		s0.9-0.8,1.3-1.1c0.6-0.3,1-0.4,1.3-0.4c0,0,0.2,0,0.3,0s0.3,0,0.4,0h0.2c0.2-0.1,0.2-0.3,0.3-0.4c0.2-0.1,0.3-0.1,0.5-0.1
		s0.2,0,0.3,0c0.2,0,0.3,0,0.5,0.1c0.5,0.1,0.8,0.4,1,1.1c0.3,0.4,0.3,1.1,0.3,1.6c0.2,0.6,0.6,1.1,1.2,1.5c0.6,0.3,1.4,0.6,2.2,0.6
		c0.8,0,1.4,0,2-0.1c0.5-0.1,1-0.3,1.5-0.4l0,0c0,0,0,0,0.2,0c0,0,0.2,0,0.2,0.1C140.7,27.3,140.7,27.3,140.7,27.5z M132.4,26.7
		c-0.6-0.4-0.9-0.9-1.2-1.2s-0.4-0.8-0.4-1.1c-1.1,0-1.8,0.4-2.6,1.2s-1,1.5-1,2.1s0.2,1.1,0.5,1.4s0.8,0.6,1.3,0.6
		c0.9,0,1.8-0.3,2.4-0.9C132,28.4,132.3,27.6,132.4,26.7z"/>
	<path fill="#C7AF2E" d="M149.4,27.5C149.4,27.5,149.4,27.6,149.4,27.5c0,0.1,0,0.1-0.2,0.1c-1.1,0.6-2.2,1.2-3.6,1.6
		s-2.5,0.8-3.5,0.8c-0.8,0-1.3-0.1-1.8-0.4s-0.6-0.8-0.6-1.4c0-0.3,0-0.4,0.2-0.8s0.2-0.6,0.5-0.9l1.5-2.7c0-0.1,0.1-0.3,0.1-0.3
		c0.2-0.1,0.3-0.1,0.5-0.1c0.2,0.1,0.3,0.1,0.5,0.3c0.1,0.1,0.1,0.3,0.3,0.4c-0.5,0.8-0.9,1.5-1.2,2.1c-0.3,0.6-0.4,1.1-0.6,1.1l0,0
		c0,0.1,0,0.4,0.1,0.8c0.2,0.3,0.2,0.4,0.3,0.6c0.3,0.1,0.4,0.1,0.6,0.1c0.2,0,0.3,0,0.5,0c0.8,0,1.8-0.1,3-0.4
		c1.2-0.3,2.1-0.8,2.8-1.2c0,0,0,0,0.2,0c0,0,0,0,0.1,0c0,0,0.2,0,0.2,0.1C149.4,27.3,149.4,27.3,149.4,27.5z M146.7,17.9
		c-0.1,0.4-0.4,0.8-0.8,1.1c-0.3,0.3-0.8,0.4-1,0.4c-0.2-0.1-0.3-0.1-0.3-0.3c0-0.1-0.2-0.3-0.2-0.4c0-0.3,0.2-0.8,0.3-1.1
		c0.2-0.3,0.4-0.6,0.9-0.9h0.5c0.1,0,0.1,0.1,0.3,0.1c0,0.1,0.2,0.3,0.2,0.4v0.1C146.5,17.7,146.5,17.9,146.7,17.9z"/>
	<path fill="#C7AF2E" d="M166.5,27.5C166.5,27.5,166.5,27.6,166.5,27.5c0,0.1,0,0.1-0.1,0.1c-1.7,0.9-3.2,1.5-4.2,1.9
		s-2.1,0.6-3,0.6c-0.5,0-0.9-0.3-1.3-0.9c-0.3-0.6-0.8-1.6-0.9-3c-0.2-0.1-0.3-0.1-0.6-0.3h-0.2c-0.8,0.1-2,0.6-3.5,1.6
		c-1.5,0.9-3.1,2.2-4.9,3.9c-0.2,0-0.3,0-0.6-0.1c-0.2-0.1-0.3-0.3-0.3-0.4s0.1-0.4,0.3-0.8V30c0.2-0.1,0.3-0.4,0.6-0.9
		c1.1-1.6,1.7-2.9,1.8-3.6c0.1-0.1,0.3-0.1,0.6-0.3c0.2-0.1,0.5-0.1,0.6-0.1s0.1,0,0.3,0l0.2,0.1l0,0l0,0c-0.2,0.3-0.3,0.9-0.8,1.8
		c-0.3,0.9-0.6,1.4-0.6,1.5c2.2-1.8,3.9-2.9,5-3.4c1-0.6,1.6-0.9,2.1-0.9c0.3,0,0.5,0.1,0.8,0.4c0.3,0.3,0.5,1.1,0.9,1.9
		c0,0,0,0.1,0.1,0.3c0.5,1.5,0.9,2.2,1.4,2.2c1,0,1.9-0.1,3-0.4c0.9-0.3,1.9-0.8,3.1-1.4c0,0,0,0,0.2,0c0.1,0,0,0,0.1,0
		c0,0,0.2,0,0.2,0.1C166.5,27.3,166.5,27.3,166.5,27.5z"/>
	<path fill="#C7AF2E" d="M179.1,21c0,0.1-0.2,0.3-0.3,0.4c-0.2,0.1-0.4,0.3-0.6,0.3c-0.9,0-1.8,0-2.6,0s-1.6,0-2.7,0
		c-0.6,0.9-1.5,1.8-2.4,2.9c-0.9,0.9-2,1.8-3,2.6v0.1c0,0,0,0.1,0,0.3c0.1,0.4,0.3,0.8,0.8,1.2c0.4,0.4,0.9,0.6,1.5,0.8
		c1.5,0,3-0.1,4.3-0.6c1.4-0.4,2.7-0.9,4.1-1.6c0,0,0,0,0.2,0c0,0,0,0,0.1,0c0,0,0.2,0,0.2,0.1c0,0,0,0.1,0,0.3v0.1c0,0,0,0-0.2,0
		c-1.3,0.9-2.7,1.5-4.5,2.1c-1.6,0.6-3.3,0.8-4.6,0.8c-1.1,0-1.8-0.3-2.4-0.8c-0.6-0.4-0.9-1.2-0.9-2.1c0-0.8,0.1-1.6,0.6-2.7
		c0.3-1.1,0.9-1.9,1.5-3c-0.8,0-1.9,0.1-3.4,0.1c-0.3,0-0.6,0-0.8,0c0.2-0.3,0.3-0.4,0.4-0.8c0.2-0.1,0.3-0.4,0.6-0.6
		c1,0,2.1,0,3.3-0.1c0.3,0,0.5,0,0.6,0c0.9-1.2,1.8-2.2,2.7-3c1.1-0.9,1.8-1.2,2.6-1.2c0.2,0,0.3,0,0.4,0.1c0.2,0.1,0.2,0.3,0.2,0.6
		c0,0.6-0.2,1.2-0.3,1.8c-0.3,0.6-0.6,1.2-1.1,1.8c1.2,0,2.2,0,3.1,0C177.3,21,178.2,21,179.1,21z M172.2,21.8h-2.2
		c-0.4,0.8-0.9,1.5-1.3,2.2c-0.5,0.8-0.6,1.4-0.8,1.8c0.8-0.6,1.5-1.2,2.4-1.9C170.8,23.3,171.6,22.5,172.2,21.8z M173.7,18.6
		c0-0.1,0-0.3,0-0.3c0-0.1-0.1-0.1-0.1-0.1c-0.4,0.1-0.8,0.4-1.2,0.8s-0.8,0.8-1.2,1.4c-0.1,0.1-0.1,0.3-0.3,0.4
		c-0.2,0.1-0.2,0.3-0.3,0.3c0.6,0,1,0,1.3,0c0.3,0,0.6,0,0.9,0c0.3-0.4,0.4-0.8,0.6-1.2C173.5,19.2,173.7,18.9,173.7,18.6z"/>
	<path fill="#C7AF2E" d="M204.1,27.5C204.1,27.5,204.1,27.6,204.1,27.5c0,0.1,0,0.1-0.2,0.1c-1.6,1.1-3.1,1.6-4.1,2.1
		c-1.1,0.4-1.8,0.6-2.4,0.6c-0.4,0-0.9-0.3-1.4-0.8s-0.8-1.2-1.2-2.2c0-0.1-0.1-0.3-0.3-0.6c-0.1-0.4-0.3-0.8-0.3-0.8
		c-0.8,0.1-1.5,0.4-2.2,0.9s-1.6,0.9-2.6,1.5c-0.3,0.1-0.8,0.6-1.2,1.1c-0.6,0.4-0.9,0.8-1.1,0.8c-0.4,0-0.8-0.1-0.9-0.3
		c-0.2-0.1-0.3-0.4-0.3-0.9c0-0.1,0-0.4,0.1-0.9c0.2-0.4,0.3-1.2,0.8-2.2c0-0.1-0.1-0.3-0.3-0.4c-0.3-0.1-0.4-0.3-0.6-0.3
		c-0.6,0-1.7,0.6-3.4,1.6c-1.7,1.1-3.4,2.4-5.2,3.9c-0.3,0-0.4,0-0.6-0.1c-0.1-0.1-0.3-0.4-0.3-0.8c0.6-1.1,1.2-1.9,1.7-3
		c0.4-0.9,0.9-2.1,1.2-3.1c0.1,0,0.4,0,0.6,0.1c0.2,0.1,0.3,0.1,0.4,0.4v0.8c0,0.1-0.1,0.6-0.3,1.1c0,0.1-0.1,0.1-0.1,0.3
		c-0.2,0.3-0.2,0.6-0.3,0.9c0,0.3-0.2,0.6-0.2,0.9c0.4-0.3,1.7-1.1,3.9-2.4c2.1-1.4,3.3-2.1,3.6-2.1c0.4,0.1,0.8,0.3,0.9,0.4
		c0.1,0.1,0.3,0.4,0.3,0.8c0,0.1,0,0.3,0,0.6c0,0.1-0.2,0.6-0.2,0.9v0.1c-0.1,0.6-0.1,1.1-0.1,1.5c0,0.1,0,0.3,0,0.4s0,0.3,0,0.4
		c0.3-0.1,0.8-0.4,1.2-0.8s1.1-0.6,1.6-1.1c0.3-0.1,0.6-0.3,1.1-0.6c1.8-1.2,2.7-1.6,2.9-1.6c0.4,0,0.9,0.1,1.1,0.3
		c0.3,0.1,0.4,0.6,0.6,1.1c0.3,1.5,0.6,2.2,0.9,2.7c0.3,0.3,0.8,0.6,1.5,0.6c0.4,0,1.2-0.1,2.4-0.6c1.2-0.4,2.1-0.9,2.7-1.2l0,0
		c0,0,0,0,0.2,0c0,0,0.1,0,0.1,0.1C204,27.3,204.1,27.3,204.1,27.5z"/>
	<path fill="#C7AF2E" d="M216.3,27.5C216.3,27.5,216.3,27.6,216.3,27.5c0,0.1,0,0.1-0.2,0.1c-1.6,1.1-3.1,1.6-4.8,2.2
		c-1.5,0.4-3.1,0.8-4.6,0.8c-1.1,0-1.9-0.3-2.7-0.9c-0.6-0.6-1.1-1.5-1.1-2.6s0.6-2.2,1.8-3.4c1.2-1.2,2.6-1.8,3.9-1.9
		c0.4,0.1,0.9,0.1,1.1,0.4c0.3,0.1,0.3,0.4,0.4,0.9c0,0.8-0.4,1.5-1.3,2.2c-0.9,0.8-2.2,1.5-4.1,2.2l0.3,0.6
		c0.3,0.3,0.6,0.6,1.1,0.8c0.4,0.1,1.1,0.3,1.5,0.3c1.2,0,2.6-0.1,4.1-0.6c1.5-0.4,2.8-0.9,3.9-1.6c0,0,0,0,0.2,0c0,0,0,0,0.1,0
		c0,0,0.2,0,0.2,0.1C216.3,27.3,216.3,27.3,216.3,27.5z M209.1,23.6c0-0.1-0.2-0.3-0.3-0.3c-0.2-0.1-0.2-0.1-0.3-0.1
		c-0.6,0-1.4,0.4-2.2,1.2c-0.9,0.8-1.5,1.6-1.5,2.2c1.1-0.1,1.9-0.4,3-1.1C208.6,24.9,209.1,24.2,209.1,23.6z"/>
	<path fill="#C7AF2E" d="M233.4,27.5C233.4,27.5,233.4,27.6,233.4,27.5c0,0.1,0,0.1-0.2,0.1c-1.6,0.9-3.1,1.5-4.2,1.9
		c-1.1,0.4-2.1,0.6-3,0.6c-0.4,0-0.9-0.3-1.3-0.9c-0.3-0.6-0.8-1.6-0.9-3c-0.1-0.1-0.3-0.1-0.6-0.3H223c-0.8,0.1-1.9,0.6-3.4,1.6
		c-1.5,0.9-3.1,2.2-4.9,3.9c-0.1,0-0.4,0-0.6-0.1c-0.2-0.1-0.3-0.3-0.3-0.4s0.1-0.4,0.3-0.8V30c0.1-0.1,0.3-0.4,0.6-0.9
		c1.1-1.6,1.7-2.9,1.8-3.6c0.2-0.1,0.3-0.1,0.6-0.3c0.1-0.1,0.4-0.1,0.6-0.1c0.2,0,0.2,0,0.3,0l0.2,0.1l0,0l0,0
		c-0.2,0.3-0.3,0.9-0.8,1.8c-0.3,0.9-0.6,1.4-0.6,1.5c2.2-1.8,3.9-2.9,4.9-3.4c1.1-0.6,1.7-0.9,2.1-0.9c0.3,0,0.4,0.1,0.8,0.4
		s0.4,1.1,0.9,1.9c0,0,0,0.1,0.2,0.3c0.4,1.5,0.9,2.2,1.3,2.2c1.1,0,1.9-0.1,3-0.4c0.9-0.3,1.9-0.8,3.2-1.4c0,0,0,0,0.1,0
		c0,0,0,0,0.2,0c0,0,0.1,0,0.1,0.1C233.4,27.3,233.4,27.3,233.4,27.5z"/>
	<path fill="#C7AF2E" d="M246,21c0,0.1-0.1,0.3-0.3,0.4c-0.1,0.1-0.4,0.3-0.6,0.3c-0.9,0-1.8,0-2.6,0s-1.7,0-2.7,0
		c-0.6,0.9-1.5,1.8-2.4,2.9c-0.9,0.9-1.9,1.8-3,2.6v0.1c0,0,0,0.1,0,0.3c0.2,0.4,0.3,0.8,0.8,1.2s0.9,0.6,1.5,0.8
		c1.5,0,3-0.1,4.4-0.6c1.3-0.4,2.7-0.9,4.1-1.6c0,0,0,0,0.1,0c0,0,0,0,0.2,0c0,0,0.1,0,0.1,0.1c0,0,0,0.1,0,0.3v0.1c0,0,0,0-0.1,0
		c-1.4,0.9-2.7,1.5-4.5,2.1c-1.7,0.6-3.3,0.8-4.7,0.8c-1.1,0-1.8-0.3-2.4-0.8c-0.6-0.4-0.8-1.2-0.8-2.1c0-0.8,0.1-1.6,0.6-2.7
		c0.3-1.1,0.9-1.9,1.5-3c-0.8,0-1.9,0.1-3.4,0.1c-0.3,0-0.6,0-0.8,0c0.2-0.3,0.3-0.4,0.4-0.8c0.2-0.1,0.3-0.4,0.6-0.6
		c1.1,0,2.1,0,3.3-0.1c0.3,0,0.4,0,0.6,0c0.9-1.2,1.8-2.2,2.7-3c1.1-0.9,1.8-1.2,2.6-1.2c0.2,0,0.3,0,0.4,0.1
		c0.2,0.1,0.2,0.3,0.2,0.6c0,0.6-0.2,1.2-0.3,1.8c-0.3,0.6-0.6,1.2-1.1,1.8c1.2,0,2.2,0,3.1,0C244.2,21,245.1,21,246,21z
		 M239.1,21.8h-2.2c-0.4,0.8-0.9,1.5-1.4,2.2s-0.6,1.4-0.8,1.8c0.8-0.6,1.5-1.2,2.4-1.9C237.7,23.3,238.5,22.5,239.1,21.8z
		 M240.6,18.6c0-0.1,0-0.3,0-0.3c0-0.1-0.2-0.1-0.2-0.1c-0.4,0.1-0.8,0.4-1.2,0.8s-0.8,0.8-1.2,1.4c-0.1,0.1-0.1,0.3-0.3,0.4
		c-0.1,0.1-0.1,0.3-0.3,0.3c0.6,0,1.1,0,1.4,0c0.3,0,0.6,0,0.9,0c0.3-0.4,0.4-0.8,0.8-1.2C240.4,19.2,240.6,18.9,240.6,18.6z"/>
	<path fill="#C7AF2E" d="M267.3,27.5C267.3,27.5,267.3,27.6,267.3,27.5c0,0.1,0,0.1-0.2,0.1c-0.4,0.3-1.1,0.4-1.8,0.6
		c-0.6,0.1-1.2,0.3-1.8,0.3c-0.6,0-1.3-0.1-2.1-0.3c-0.8-0.3-1.4-0.4-1.8-0.8c-0.3,0.4-0.6,0.9-1.1,1.4c-0.4,0.4-0.8,0.8-1.1,1.1
		s-0.9,0.4-1.4,0.8c-0.6,0.1-1.1,0.3-1.5,0.3c-0.9,0-1.6-0.1-2.2-0.6c-0.6-0.4-0.8-1.1-0.8-1.8c0-0.6,0.2-1.2,0.4-1.8
		c0.3-0.6,0.6-1.2,1.1-1.6c0.4-0.4,0.9-0.8,1.4-1.1c0.6-0.3,1.1-0.4,1.3-0.4c0,0,0.2,0,0.3,0c0.2,0,0.3,0,0.4,0h0.2
		c0.1-0.1,0.1-0.3,0.3-0.4c0.1-0.1,0.3-0.1,0.4-0.1c0.1,0,0.1,0,0.3,0c0.1,0,0.3,0,0.4,0.1c0.4,0.1,0.8,0.4,1.1,1.1
		c0.3,0.4,0.3,1.1,0.3,1.6c0.1,0.6,0.6,1.1,1.2,1.5c0.6,0.3,1.3,0.6,2.2,0.6c0.8,0,1.3,0,1.9-0.1c0.6-0.1,1.1-0.3,1.5-0.4l0,0
		c0,0,0,0,0.1,0c0,0,0.2,0,0.2,0.1C267.3,27.3,267.3,27.3,267.3,27.5z M259,26.7c-0.6-0.4-0.9-0.9-1.2-1.2c-0.3-0.3-0.4-0.8-0.6-1.1
		c-1.1,0-1.8,0.4-2.6,1.2s-1.1,1.5-1.1,2.1s0.2,1.1,0.4,1.4c0.3,0.3,0.8,0.6,1.4,0.6c0.9,0,1.8-0.3,2.4-0.9
		C258.4,28.4,258.9,27.6,259,26.7z"/>
	<path fill="#C7AF2E" d="M284.2,27.5C284.2,27.5,284.2,27.6,284.2,27.5c0,0.1,0,0.1-0.1,0.1c-1.7,0.9-3.2,1.5-4.2,1.9
		c-1.1,0.4-2.1,0.6-3,0.6c-0.4,0-0.9-0.3-1.4-0.9c-0.3-0.6-0.8-1.6-0.9-3c-0.2-0.1-0.3-0.1-0.6-0.3h-0.1c-0.9,0.1-1.9,0.6-3.4,1.6
		c-1.5,0.9-3.2,2.2-4.9,3.9c-0.2,0-0.3,0-0.6-0.1c-0.1-0.1-0.3-0.3-0.3-0.4s0.2-0.4,0.3-0.8V30c0.2-0.1,0.3-0.4,0.6-0.9
		c1.1-1.6,1.6-2.9,1.8-3.6c0.1-0.1,0.3-0.1,0.6-0.3c0.2-0.1,0.4-0.1,0.6-0.1c0.1,0,0.1,0,0.3,0l0.1,0.1l0,0l0,0
		c-0.1,0.3-0.3,0.9-0.8,1.8c-0.3,0.9-0.6,1.4-0.6,1.5c2.2-1.8,3.9-2.9,4.9-3.4c1.1-0.6,1.6-0.9,2.1-0.9c0.3,0,0.4,0.1,0.8,0.4
		s0.4,1.1,0.9,1.9c0,0,0,0.1,0.1,0.3c0.4,1.5,0.9,2.2,1.4,2.2c1.1,0,1.9-0.1,3-0.4c0.9-0.3,1.9-0.8,3.1-1.4c0,0,0,0,0.2,0
		c0,0,0,0,0.1,0c0,0,0.2,0,0.2,0.1C284.2,27.3,284.2,27.3,284.2,27.5z"/>
	<path fill="#C7AF2E" d="M297.3,27.5C297.3,27.5,297.3,27.6,297.3,27.5c0,0.1,0,0.1-0.2,0.1c-1.6,0.9-3.3,1.6-4.6,2.1
		c-1.4,0.4-2.9,0.6-4.2,0.6c-1.5,0-2.6-0.3-3.3-0.9c-0.8-0.6-1.1-1.5-1.1-2.7c0-2.2,1.5-4.9,4.3-8.1c2.9-3.1,5.2-4.8,6.9-4.8
		c0.3,0,0.6,0.1,0.8,0.3c0.1,0.1,0.3,0.4,0.3,0.9c0,0.9-0.4,2.1-1.5,3.4c-1.1,1.4-2.2,2.7-3.9,4.1l-4.9,4.2c0.2,0.4,0.3,0.8,0.4,1.1
		c0.2,0.3,0.3,0.6,0.6,0.8c0.4,0.3,0.9,0.4,1.3,0.6c0.4,0.1,0.9,0.1,1.5,0.1c1.1,0,2.2-0.1,3.6-0.6c1.2-0.3,2.6-0.9,3.8-1.6l0,0
		c0,0,0,0,0.1,0c0,0,0.2,0,0.2,0.1C297.3,27.3,297.3,27.3,297.3,27.5z M294.7,16.1v-0.1c-0.1-0.1-0.1-0.3-0.3-0.4
		c-0.9,0-1.9,0.6-3.3,1.9c-1.3,1.4-2.7,3-3.8,4.8c-0.1,0.3-0.4,0.8-0.8,1.4s-0.4,1.1-0.6,1.5c2.1-1.1,4.1-2.6,6-4.5
		C293.7,18.8,294.7,17.3,294.7,16.1z"/>
	<path fill="#C7AF2E" d="M314.7,27.5C314.7,27.5,314.7,27.6,314.7,27.5c0,0.1,0,0.1-0.1,0.1c-1.1,0.8-2.2,1.4-3.4,1.9
		c-1.4,0.6-2.9,1.4-4.8,2.1c-1.1,2.7-2.4,5.1-4.1,7.4c-1.7,2.2-3.4,4-5.6,5.5c-0.8,0.6-1.8,1-2.9,1.6c-1.2,0.4-1.9,0.8-2.6,0.8
		c-0.8-0.1-1.3-0.4-1.8-0.8c-0.4-0.4-0.6-0.9-0.6-1.5c0-1.5,1.6-3.4,4.8-6.1c3.1-2.7,6.9-5.1,11.2-7.5c0.3-0.6,0.6-1.2,0.8-1.9
		c0.1-0.8,0.3-1.4,0.3-1.9v-0.6l-3,1.5c-0.2,0-0.3,0.1-0.8,0.3c-2.1,1.1-3.4,1.6-3.9,1.6c-0.6,0-1.2-0.1-1.5-0.6
		c-0.3-0.3-0.4-0.9-0.4-1.5c0-0.1,0.2-0.4,0.3-0.8c0.2-0.3,0.6-0.8,1.2-1.4c0.2-0.1,0.3-0.3,0.6-0.6c0.3-0.3,0.4-0.4,0.6-0.6
		c0,0,0.2,0,0.2-0.1c0.1,0,0.1,0,0.3,0c0.1,0,0.4,0,0.6,0.1c0.2,0,0.3,0.1,0.3,0.1c0,0.1-0.1,0.3-0.3,0.6c-0.1,0.3-0.4,0.6-0.9,1.2
		c0,0-0.2,0.1-0.3,0.3c-0.4,0.4-0.6,0.8-0.8,0.9c0,0.3,0,0.6,0.1,0.8c0.2,0.1,0.2,0.1,0.3,0.1c1.2,0,2.6-0.3,3.9-1.1
		c1.3-0.6,2.8-1.8,4.8-3.3l0.1-0.1h0.2c0.1,0,0.3,0,0.3,0.1c0.1,0,0.1,0.1,0.1,0.1c-0.3,0.9-0.6,1.9-0.9,3.1s-0.4,2.2-0.6,3
		c1.2-0.3,2.6-0.9,3.9-1.5c1.3-0.6,2.6-1.2,3.8-1.9c0,0,0,0,0.1,0c0,0,0,0,0.2,0c0,0,0.1,0,0.1,0.1
		C314.7,27.3,314.7,27.3,314.7,27.5z M304.2,32.7c-3.4,1.5-6.4,3.4-9,5.7s-3.9,4.1-4.2,5.6c0,0.3,0.2,0.4,0.3,0.8
		c0.2,0.1,0.4,0.3,0.6,0.4c1.6-0.1,3.6-1.3,6-3.6c2.4-2.2,4.3-4.8,5.8-7.7c0.2-0.1,0.2-0.3,0.2-0.6C304.2,33.2,304.2,33,304.2,32.7z
		"/>
</g>
</svg>
