<?xml version="1.0" encoding="utf-8"?>
<!-- Generator: Adobe Illustrator 18.1.1, SVG Export Plug-In . SVG Version: 6.00 Build 0)  -->
<svg version="1.1" id="Layer_1" xmlns="http://www.w3.org/2000/svg" xmlns:xlink="http://www.w3.org/1999/xlink" x="0px" y="0px"
	 viewBox="50 36.5 400 79.5" enable-background="new 50 36.5 400 79.5" xml:space="preserve">
<g>
	<path fill="#C7AE21" d="M168.9,38.4c0,0.5-0.2,1-0.7,1.5c-0.5,0.5-1,1-1.7,1.4c-0.5,0.3-1,0.6-1.5,0.8c-0.5,0.2-0.9,0.5-1.5,0.7
		c0.7,0.1,1.4,0.4,1.9,0.8c0.5,0.4,0.8,0.9,0.8,1.5c0.3,0.1,0.7,0.3,1.2,0.5c0.2,0.1,0.5,0.2,0.6,0.3c0,0,0,0,0,0.1c0,0,0,0.1,0,0.1
		c0,0,0,0.1-0.1,0.1c0,0-0.1,0-0.1,0c-0.1-0.1-0.4-0.1-0.6-0.2c-0.5-0.2-0.9-0.4-1.2-0.4c-0.5,0.9-1.4,1.8-2.7,2.5
		c-1.3,0.7-2.5,1.1-3.7,1.1c-0.6,0-1-0.1-1.3-0.2c-0.3-0.2-0.5-0.4-0.6-0.8c0-0.8,0.6-1.6,1.9-2.3c1.3-0.7,2.6-1.1,4-1.1
		c0,0,0.1,0,0.1,0c0.2,0,0.5,0,1,0.1c0,0,0-0.1,0-0.1c0,0,0-0.1,0-0.1c0-0.4-0.2-0.7-0.5-1s-0.7-0.4-1.1-0.4c-0.1,0-0.4,0-0.8,0
		c-0.4,0-0.7,0.1-1,0.1c-0.1,0-0.1,0-0.2-0.1c0,0-0.1-0.1-0.1-0.2c0,0,0-0.1,0-0.1c0,0,0,0,0.1-0.1c1.9-0.6,3.4-1.2,4.5-2.1
		c1.2-0.8,1.8-1.6,1.8-2.4c-0.1-0.3-0.3-0.6-0.6-0.8c-0.3-0.2-0.7-0.3-1.2-0.4c-0.5,0-1.1,0.1-1.8,0.3c-0.7,0.2-1.4,0.4-2.2,0.8
		c-2,0.8-3.9,2.1-5.8,3.7c-1.9,1.7-2.9,3-2.9,4.1c0,0.2,0,0.4,0.1,0.5c0.1,0.1,0.2,0.2,0.3,0.3c1-0.3,2.1-0.9,3.4-2.1
		c1.3-1.1,2.4-2.4,3.4-3.8c0,0,0,0,0,0c0,0,0,0,0.1,0c0.1,0,0.1,0,0.1,0.1c0,0,0,0.1,0,0.2c-1.1,1.8-2.4,3.3-4,4.7
		c-1.6,1.4-2.8,2-3.8,2c-0.3-0.1-0.6-0.2-0.8-0.5s-0.4-0.5-0.4-0.8c0-1.5,1-3,3-4.7c2-1.7,4.3-3.1,7-4.1c0.8-0.3,1.7-0.6,2.7-0.9
		c1-0.3,1.6-0.4,2-0.4c0.6,0,1.1,0.1,1.5,0.2c0.3,0.1,0.6,0.4,0.9,0.7c0,0.2,0.1,0.3,0.1,0.5C168.9,38,168.9,38.2,168.9,38.4z
		 M164.5,45.6C164.5,45.6,164.5,45.6,164.5,45.6C164.5,45.5,164.5,45.5,164.5,45.6c0-0.2,0-0.2,0-0.3c0,0-0.1-0.1-0.1-0.1
		c-0.1,0-0.3,0-0.5,0c-0.2,0-0.3,0-0.3,0c-1,0-1.9,0.2-2.8,0.7c-0.9,0.5-1.5,1-1.9,1.7c0.1,0.2,0.3,0.3,0.7,0.5
		c0.1,0,0.1,0.1,0.1,0.1c0.8,0,1.7-0.3,2.7-0.8C163.3,46.9,164,46.3,164.5,45.6z"/>
	<path fill="#C7AE21" d="M180.9,46.2C180.9,46.2,180.9,46.3,180.9,46.2c0,0.1,0,0.1-0.1,0.1c-0.7,0.5-1.5,0.9-2.3,1.3
		c-0.9,0.4-1.9,0.9-3.2,1.4c-0.7,1.8-1.6,3.4-2.7,4.9c-1.1,1.5-2.3,2.7-3.7,3.7c-0.5,0.4-1.2,0.7-1.9,1.1c-0.8,0.3-1.3,0.5-1.7,0.5
		c-0.5-0.1-0.9-0.3-1.2-0.5c-0.3-0.3-0.4-0.6-0.4-1c0-1,1.1-2.3,3.2-4.1c2.1-1.8,4.6-3.4,7.5-5c0.2-0.4,0.4-0.8,0.5-1.3
		c0.1-0.5,0.2-0.9,0.2-1.3v-0.4l-2,1c-0.1,0-0.2,0.1-0.5,0.2c-1.4,0.7-2.3,1.1-2.6,1.1c-0.4,0-0.8-0.1-1-0.4c-0.2-0.2-0.3-0.6-0.3-1
		c0-0.1,0.1-0.3,0.2-0.5c0.1-0.2,0.4-0.5,0.8-0.9c0.1-0.1,0.2-0.2,0.4-0.4c0.2-0.2,0.3-0.3,0.4-0.4c0,0,0.1,0,0.1-0.1
		c0.1,0,0.1,0,0.2,0c0.1,0,0.3,0,0.4,0.1c0.1,0,0.2,0.1,0.2,0.1c0,0.1-0.1,0.2-0.2,0.4c-0.1,0.2-0.3,0.4-0.6,0.8
		c0,0-0.1,0.1-0.2,0.2c-0.3,0.3-0.4,0.5-0.5,0.6c0,0.2,0,0.4,0.1,0.5c0.1,0.1,0.1,0.1,0.2,0.1c0.8,0,1.7-0.2,2.6-0.7
		c0.9-0.4,1.9-1.2,3.2-2.2c0,0,0.1-0.1,0.1-0.1c0,0,0.1,0,0.1,0c0.1,0,0.2,0,0.2,0.1c0.1,0,0.1,0.1,0.1,0.1
		c-0.2,0.6-0.4,1.3-0.6,2.1c-0.2,0.8-0.3,1.5-0.4,2c0.8-0.2,1.7-0.6,2.6-1c0.9-0.4,1.7-0.8,2.5-1.3c0,0,0,0,0.1,0c0,0,0,0,0.1,0
		c0,0,0.1,0,0.1,0.1C180.9,46.1,180.9,46.1,180.9,46.2z M173.9,49.7c-2.3,1-4.3,2.3-6,3.8c-1.7,1.5-2.6,2.7-2.8,3.7
		c0,0.2,0.1,0.3,0.2,0.5c0.1,0.1,0.3,0.2,0.4,0.3c1-0.1,2.4-0.9,4-2.4c1.6-1.5,2.9-3.2,3.9-5.1c0.1-0.1,0.1-0.2,0.1-0.4
		C173.8,50,173.9,49.9,173.9,49.7z"/>
	<path fill="#C7AE21" d="M203.7,46.2C203.7,46.2,203.6,46.3,203.7,46.2c0,0.1,0,0.1-0.1,0.1c-0.7,0.5-1.5,0.9-2.4,1.2
		c-0.9,0.3-1.7,0.5-2.2,0.5c-0.3,0-0.5,0-0.6,0c-0.1,0-0.3,0-0.3,0c-0.6-0.1-1.1-0.3-1.4-0.7c-0.3-0.4-0.5-0.9-0.5-1.6
		c0-0.2,0-0.4,0-0.7c0-0.1,0-0.1,0-0.1l-1.9,1.1c-1.8,1.1-3.3,1.8-4.3,2.2c-1.1,0.4-1.9,0.6-2.6,0.6c-0.7-0.2-1.2-0.4-1.5-0.7
		c-0.3-0.3-0.5-0.8-0.6-1.4c0-1.2,0.7-2.4,2.1-3.7c1.4-1.3,3.1-2.4,5.3-3.3c1.4-0.6,2.8-1.1,4.1-1.4c1.3-0.3,2.5-0.5,3.6-0.5
		c1,0,1.8,0.2,2.4,0.5c0.6,0.3,0.9,0.7,0.9,1.2c0,0.5-0.3,0.9-1,1.2c-0.6,0.3-1.6,0.4-3,0.4h0c0,0-0.1,0-0.1,0c0,0,0-0.1,0-0.1
		c0,0,0-0.1,0-0.1c0,0,0-0.1,0.1-0.1c0.7,0,1.3-0.1,1.9-0.4c0.6-0.3,0.9-0.6,1-1c0-0.4-0.1-0.6-0.4-0.8c-0.3-0.2-0.7-0.3-1.3-0.3
		c-0.6,0-1.7,0.2-3.2,0.7c-1.5,0.5-3.2,1.1-4.9,1.9c-1.9,0.9-3.5,1.9-4.9,3s-2.1,2-2.1,2.7c0,0.3,0.1,0.6,0.4,0.7
		c0.3,0.2,0.7,0.2,1.2,0.2c0.9,0,2.2-0.4,3.9-1.1c1.7-0.7,3.4-1.6,5-2.6c0.2-0.7,0.6-1.3,1-1.8c0.5-0.5,1-0.9,1.7-1.1
		c0.2,0,0.3,0,0.4,0.1c0.1,0.1,0.2,0.1,0.2,0.2c0,0.3-0.2,0.7-0.6,1.2c-0.4,0.5-1,1-1.7,1.4c0,0.1-0.1,0.3-0.1,0.5
		c0,0.2,0,0.4,0,0.7c0,0.6,0.2,1,0.4,1.4c0.3,0.3,0.7,0.6,1.2,0.8c0.7,0,1.5-0.1,2.4-0.4c0.9-0.2,1.6-0.5,2.2-0.9c0,0,0,0,0.1,0
		c0,0,0,0,0.1,0c0,0,0.1,0,0.1,0.1C203.6,46.1,203.7,46.1,203.7,46.2z M198.9,41.9L198.9,41.9c-0.3,0-0.5,0.2-0.8,0.5
		c-0.3,0.3-0.5,0.7-0.7,1.1c0.2-0.2,0.5-0.4,0.8-0.7C198.5,42.4,198.7,42.1,198.9,41.9z"/>
	<path fill="#C7AE21" d="M214.4,46.2C214.4,46.2,214.4,46.3,214.4,46.2c0,0.1,0,0.1-0.1,0.1c-0.6,0.3-1.3,0.5-2.1,0.7
		c-0.8,0.2-1.7,0.2-2.7,0.2c-0.1,0-0.2,0-0.3,0c-0.1,0-0.3,0-0.5,0c-0.4,0.1-0.8,0.2-1.4,0.3c-0.6,0.1-1,0.2-1.2,0.2
		c0,0-0.1,0-0.1,0c0,0,0-0.1,0-0.1c0-0.1,0-0.1,0-0.2c0,0,0.1-0.1,0.1-0.1c0.9-0.3,1.6-0.6,2.2-1c0.5-0.4,1-0.9,1.3-1.6
		c0-0.2-0.1-0.4-0.2-0.5c-0.1-0.1-0.3-0.2-0.5-0.2c-0.4,0-0.9,0.1-1.5,0.3c-0.6,0.2-1.1,0.5-1.4,0.7c-0.7,2.9-2.1,5.8-4.1,8.7
		c-2,2.9-3.7,4.3-5.2,4.3c-0.1,0-0.3-0.1-0.4-0.3c-0.1-0.2-0.2-0.4-0.2-0.6c0-1.5,1-3.6,2.9-6.4c1.9-2.8,4.1-4.9,6.5-6.3
		c0.1-0.2,0.1-0.3,0.2-0.4c0.1-0.1,0.2-0.2,0.3-0.3c0.1,0,0.2,0,0.3,0.1c0.1,0,0.2,0.1,0.2,0.2c0.4-0.2,1-0.4,1.6-0.5
		c0.6-0.2,1.1-0.3,1.2-0.3c0.4,0,0.8,0.1,1.1,0.3c0.3,0.2,0.4,0.5,0.4,0.8c0,0.4-0.1,0.8-0.4,1.2c-0.3,0.4-0.7,0.8-1.2,1.1
		c0.1,0,0.1,0,0.2,0c0.3,0,0.6,0.1,0.7,0.1c0.9,0,1.7-0.1,2.3-0.2c0.6-0.1,1.1-0.3,1.5-0.5c0,0,0,0,0.1,0c0,0,0,0,0.1,0
		c0,0,0.1,0,0.1,0.1C214.4,46.1,214.4,46.1,214.4,46.2z M204.8,46c-1.9,0.9-3.5,2.5-5.1,4.8c-1.5,2.3-2.3,4.1-2.3,5.5
		c0,0.1,0,0.2,0.1,0.2c0,0,0.1,0.1,0.2,0.1c0.7-0.1,1.8-1.1,3.3-3.1c1.5-2,2.6-4.1,3.5-6.2c0.1-0.3,0.2-0.5,0.2-0.7
		C204.8,46.3,204.8,46.2,204.8,46z"/>
	<path fill="#C7AE21" d="M225.1,46.2C225.1,46.2,225.1,46.3,225.1,46.2c0,0.1,0,0.1-0.1,0.1c-0.6,0.3-1.2,0.5-2.1,0.7
		c-0.8,0.2-1.7,0.2-2.7,0.2c-0.1,0-0.2,0-0.3,0c-0.1,0-0.3,0-0.5,0c-0.4,0.1-0.8,0.2-1.4,0.3c-0.6,0.1-1,0.2-1.2,0.2
		c0,0-0.1,0-0.1,0s0-0.1,0-0.1c0-0.1,0-0.1,0-0.2c0,0,0.1-0.1,0.1-0.1c0.9-0.3,1.6-0.6,2.2-1c0.5-0.4,1-0.9,1.3-1.6
		c0-0.2-0.1-0.4-0.2-0.5c-0.1-0.1-0.3-0.2-0.5-0.2c-0.4,0-0.9,0.1-1.5,0.3c-0.6,0.2-1.1,0.5-1.4,0.7c-0.8,2.9-2.1,5.8-4.1,8.7
		c-2,2.9-3.7,4.3-5.2,4.3c-0.1,0-0.3-0.1-0.4-0.3c-0.1-0.2-0.2-0.4-0.2-0.6c0-1.5,1-3.6,2.9-6.4c1.9-2.8,4.1-4.9,6.5-6.3
		c0.1-0.2,0.1-0.3,0.2-0.4c0.1-0.1,0.2-0.2,0.3-0.3c0.1,0,0.2,0,0.3,0.1c0.1,0,0.2,0.1,0.2,0.2c0.4-0.2,1-0.4,1.6-0.5
		c0.6-0.2,1.1-0.3,1.2-0.3c0.4,0,0.8,0.1,1.1,0.3s0.4,0.5,0.4,0.8c0,0.4-0.1,0.8-0.4,1.2c-0.3,0.4-0.7,0.8-1.2,1.1
		c0.1,0,0.1,0,0.2,0c0.3,0,0.6,0.1,0.7,0.1c0.9,0,1.7-0.1,2.3-0.2c0.6-0.1,1.1-0.3,1.5-0.5c0,0,0,0,0.1,0c0,0,0,0,0.1,0
		c0,0,0.1,0,0.1,0.1C225.1,46.1,225.1,46.1,225.1,46.2z M215.5,46c-1.9,0.9-3.5,2.5-5.1,4.8c-1.5,2.3-2.3,4.1-2.3,5.5
		c0,0.1,0,0.2,0.1,0.2c0,0,0.1,0.1,0.2,0.1c0.7-0.1,1.8-1.1,3.3-3.1c1.5-2,2.6-4.1,3.5-6.2c0.1-0.3,0.2-0.5,0.2-0.7
		C215.5,46.3,215.5,46.2,215.5,46z"/>
	<path fill="#C7AE21" d="M234.9,46.2C234.9,46.2,234.9,46.3,234.9,46.2c0,0.1,0,0.1-0.1,0.1c-0.3,0.2-0.7,0.3-1.2,0.4
		c-0.4,0.1-0.8,0.2-1.2,0.2c-0.4,0-0.9-0.1-1.4-0.2c-0.5-0.2-0.9-0.3-1.2-0.5c-0.2,0.3-0.4,0.6-0.7,0.9c-0.3,0.3-0.5,0.5-0.7,0.7
		c-0.2,0.2-0.6,0.3-0.9,0.5c-0.4,0.1-0.7,0.2-1,0.2c-0.6,0-1.1-0.1-1.5-0.4s-0.5-0.7-0.5-1.2c0-0.4,0.1-0.8,0.3-1.2
		c0.2-0.4,0.4-0.8,0.7-1.1c0.3-0.3,0.6-0.5,0.9-0.7c0.4-0.2,0.7-0.3,0.9-0.3c0,0,0.1,0,0.2,0c0.1,0,0.2,0,0.3,0h0.1
		c0.1-0.1,0.1-0.2,0.2-0.3c0.1-0.1,0.2-0.1,0.3-0.1c0.1,0,0.1,0,0.2,0c0.1,0,0.2,0,0.3,0.1c0.3,0.1,0.5,0.3,0.7,0.7
		c0.2,0.3,0.2,0.7,0.2,1.1c0.1,0.4,0.4,0.7,0.8,1c0.4,0.2,0.9,0.4,1.5,0.4c0.5,0,0.9,0,1.3-0.1c0.3-0.1,0.7-0.2,1-0.3c0,0,0,0,0,0
		c0,0,0,0,0.1,0c0,0,0.1,0,0.1,0.1C234.9,46.1,234.9,46.1,234.9,46.2z M229.4,45.7c-0.4-0.3-0.6-0.6-0.8-0.8
		c-0.2-0.2-0.3-0.5-0.3-0.7c-0.7,0-1.2,0.3-1.7,0.8c-0.5,0.5-0.7,1-0.7,1.4c0,0.4,0.1,0.7,0.3,0.9s0.5,0.4,0.9,0.4
		c0.6,0,1.2-0.2,1.6-0.6C229.1,46.8,229.3,46.3,229.4,45.7z"/>
	<path fill="#C7AE21" d="M240.7,46.2C240.7,46.2,240.7,46.3,240.7,46.2c0,0.1,0,0.1-0.1,0.1c-0.7,0.4-1.5,0.8-2.4,1.1
		c-0.9,0.3-1.7,0.5-2.3,0.5c-0.5,0-0.9-0.1-1.2-0.3c-0.3-0.2-0.4-0.5-0.4-0.9c0-0.2,0-0.3,0.1-0.5c0.1-0.2,0.1-0.4,0.3-0.6l1-1.8
		c0-0.1,0.1-0.2,0.1-0.2c0.1-0.1,0.2-0.1,0.3-0.1c0.1,0.1,0.2,0.1,0.3,0.2c0.1,0.1,0.1,0.2,0.2,0.3c-0.3,0.5-0.6,1-0.8,1.4
		c-0.2,0.4-0.3,0.7-0.4,0.7v0c0,0.1,0,0.3,0.1,0.5c0.1,0.2,0.1,0.3,0.2,0.4c0.2,0.1,0.3,0.1,0.4,0.1c0.1,0,0.2,0,0.3,0
		c0.5,0,1.2-0.1,2-0.3c0.8-0.2,1.4-0.5,1.9-0.8c0,0,0,0,0.1,0c0,0,0,0,0.1,0c0,0,0.1,0,0.1,0.1C240.7,46.1,240.7,46.1,240.7,46.2z
		 M238.9,39.8c-0.1,0.3-0.3,0.5-0.5,0.7c-0.2,0.2-0.5,0.3-0.7,0.3c-0.1-0.1-0.2-0.1-0.2-0.2c0-0.1-0.1-0.2-0.1-0.3
		c0-0.2,0.1-0.5,0.2-0.7c0.1-0.2,0.3-0.4,0.6-0.6h0.3c0.1,0,0.1,0.1,0.2,0.1c0,0.1,0.1,0.2,0.1,0.3c0,0,0,0.1,0,0.1
		C238.8,39.7,238.8,39.8,238.9,39.8z"/>
	<path fill="#C7AE21" d="M252.1,46.2C252.1,46.2,252.1,46.3,252.1,46.2c0,0.1,0,0.1-0.1,0.1c-1.1,0.6-2.1,1-2.8,1.3
		c-0.7,0.3-1.4,0.4-2,0.4c-0.3,0-0.6-0.2-0.9-0.6c-0.2-0.4-0.5-1.1-0.6-2c-0.1-0.1-0.2-0.1-0.4-0.2c0,0-0.1,0-0.1,0
		c-0.5,0.1-1.3,0.4-2.3,1.1c-1,0.6-2.1,1.5-3.3,2.6c-0.1,0-0.2,0-0.4-0.1c-0.1-0.1-0.2-0.2-0.2-0.3c0-0.1,0.1-0.3,0.2-0.5
		c0,0,0-0.1,0-0.1c0.1-0.1,0.2-0.3,0.4-0.6c0.7-1.1,1.1-1.9,1.2-2.4c0.1-0.1,0.2-0.1,0.4-0.2c0.1-0.1,0.3-0.1,0.4-0.1
		c0.1,0,0.1,0,0.2,0c0,0,0.1,0.1,0.1,0.1c0,0,0,0,0,0c0,0,0,0,0,0c-0.1,0.2-0.2,0.6-0.5,1.2c-0.2,0.6-0.4,0.9-0.4,1
		c1.5-1.2,2.6-1.9,3.3-2.3c0.7-0.4,1.1-0.6,1.4-0.6c0.2,0,0.3,0.1,0.5,0.3c0.2,0.2,0.3,0.7,0.6,1.3c0,0,0,0.1,0.1,0.2
		c0.3,1,0.6,1.5,0.9,1.5c0.7,0,1.3-0.1,2-0.3c0.6-0.2,1.3-0.5,2.1-0.9c0,0,0,0,0.1,0s0,0,0.1,0c0,0,0.1,0,0.1,0.1
		C252.1,46.1,252.1,46.1,252.1,46.2z"/>
	<path fill="#C7AE21" d="M260.5,41.9c0,0.1-0.1,0.2-0.2,0.3c-0.1,0.1-0.3,0.2-0.4,0.2c-0.6,0-1.2,0-1.7,0c-0.5,0-1.1,0-1.8,0
		c-0.4,0.6-1,1.2-1.6,1.9c-0.6,0.6-1.3,1.2-2,1.7c0,0,0,0.1,0,0.1c0,0,0,0.1,0,0.2c0.1,0.3,0.2,0.5,0.5,0.8s0.6,0.4,1,0.5
		c1,0,2-0.1,2.9-0.4c0.9-0.3,1.8-0.6,2.7-1.1c0,0,0,0,0.1,0c0,0,0,0,0.1,0c0,0,0.1,0,0.1,0.1c0,0,0,0.1,0,0.2c0,0,0,0.1,0,0.1
		c0,0,0,0-0.1,0c-0.9,0.6-1.8,1-3,1.4c-1.1,0.4-2.2,0.5-3.1,0.5c-0.7,0-1.2-0.2-1.6-0.5c-0.4-0.3-0.6-0.8-0.6-1.4
		c0-0.5,0.1-1.1,0.4-1.8c0.2-0.7,0.6-1.3,1-2c-0.5,0-1.3,0.1-2.3,0.1c-0.2,0-0.4,0-0.5,0c0.1-0.2,0.2-0.3,0.3-0.5
		c0.1-0.1,0.2-0.3,0.4-0.4c0.7,0,1.4,0,2.2-0.1c0.2,0,0.3,0,0.4,0c0.6-0.8,1.2-1.5,1.8-2c0.7-0.6,1.2-0.8,1.7-0.8
		c0.1,0,0.2,0,0.3,0.1c0.1,0.1,0.1,0.2,0.1,0.4c0,0.4-0.1,0.8-0.2,1.2c-0.2,0.4-0.4,0.8-0.7,1.2c0.8,0,1.5,0,2.1,0
		C259.3,41.9,259.9,41.9,260.5,41.9z M255.9,42.4l-1.5,0c-0.3,0.5-0.6,1-0.9,1.5c-0.3,0.5-0.4,0.9-0.5,1.2c0.5-0.4,1-0.8,1.6-1.3
		C255,43.4,255.5,42.9,255.9,42.4z M256.9,40.3c0-0.1,0-0.2,0-0.2c0-0.1-0.1-0.1-0.1-0.1c-0.3,0.1-0.5,0.3-0.8,0.5
		c-0.3,0.2-0.5,0.5-0.8,0.9c-0.1,0.1-0.1,0.2-0.2,0.3c-0.1,0.1-0.1,0.2-0.2,0.2c0.4,0,0.7,0,0.9,0c0.2,0,0.4,0,0.6,0
		c0.2-0.3,0.3-0.5,0.4-0.8C256.8,40.7,256.9,40.5,256.9,40.3z"/>
	<path fill="#C7AE21" d="M277.2,46.2C277.2,46.2,277.2,46.3,277.2,46.2c0,0.1,0,0.1-0.1,0.1c-1.1,0.7-2.1,1.1-2.7,1.4
		c-0.7,0.3-1.2,0.4-1.6,0.4c-0.3,0-0.6-0.2-0.9-0.5c-0.3-0.3-0.5-0.8-0.8-1.5c0-0.1-0.1-0.2-0.2-0.4c-0.1-0.3-0.2-0.5-0.2-0.5
		c-0.5,0.1-1,0.3-1.5,0.6c-0.5,0.3-1.1,0.6-1.7,1c-0.2,0.1-0.5,0.4-0.8,0.7c-0.4,0.3-0.6,0.5-0.7,0.5c-0.3,0-0.5-0.1-0.6-0.2
		c-0.1-0.1-0.2-0.3-0.2-0.6c0-0.1,0-0.3,0.1-0.6c0.1-0.3,0.2-0.8,0.5-1.5c0-0.1-0.1-0.2-0.2-0.3c-0.2-0.1-0.3-0.2-0.4-0.2
		c-0.4,0-1.1,0.4-2.3,1.1c-1.1,0.7-2.3,1.6-3.5,2.6c-0.2,0-0.3,0-0.4-0.1c-0.1-0.1-0.2-0.3-0.2-0.5c0.4-0.7,0.8-1.3,1.1-2
		c0.3-0.6,0.6-1.4,0.8-2.1c0.1,0,0.3,0,0.4,0.1c0.1,0.1,0.2,0.1,0.3,0.3v0.5c0,0.1-0.1,0.4-0.2,0.7c0,0.1-0.1,0.1-0.1,0.2
		c-0.1,0.2-0.1,0.4-0.2,0.6c0,0.2-0.1,0.4-0.1,0.6c0.3-0.2,1.1-0.7,2.6-1.6c1.4-0.9,2.2-1.4,2.4-1.4c0.3,0.1,0.5,0.2,0.6,0.3
		c0.1,0.1,0.2,0.3,0.2,0.5c0,0.1,0,0.2,0,0.4c0,0.1-0.1,0.4-0.1,0.6c0,0,0,0.1,0,0.1c-0.1,0.4-0.1,0.7-0.1,1c0,0.1,0,0.2,0,0.3
		c0,0.1,0,0.2,0,0.3c0.2-0.1,0.5-0.3,0.8-0.5c0.3-0.2,0.7-0.4,1.1-0.7c0.2-0.1,0.4-0.2,0.7-0.4c1.2-0.8,1.8-1.1,1.9-1.1
		c0.3,0,0.6,0.1,0.7,0.2c0.2,0.1,0.3,0.4,0.4,0.7c0.2,1,0.4,1.5,0.6,1.8c0.2,0.2,0.5,0.4,1,0.4c0.3,0,0.8-0.1,1.6-0.4
		c0.8-0.3,1.4-0.6,1.8-0.8c0,0,0,0,0,0c0,0,0,0,0.1,0c0,0,0.1,0,0.1,0.1C277.1,46.1,277.2,46.1,277.2,46.2z"/>
	<path fill="#C7AE21" d="M285.3,46.2C285.3,46.2,285.3,46.3,285.3,46.2c0,0.1,0,0.1-0.1,0.1c-1.1,0.7-2.1,1.1-3.2,1.5
		c-1,0.3-2.1,0.5-3.1,0.5c-0.7,0-1.3-0.2-1.8-0.6c-0.4-0.4-0.7-1-0.7-1.7c0-0.7,0.4-1.5,1.2-2.3c0.8-0.8,1.7-1.2,2.6-1.3
		c0.3,0.1,0.6,0.1,0.7,0.3c0.2,0.1,0.2,0.3,0.3,0.6c0,0.5-0.3,1-0.9,1.5c-0.6,0.5-1.5,1-2.7,1.5l0.2,0.4c0.2,0.2,0.4,0.4,0.7,0.5
		c0.3,0.1,0.7,0.2,1,0.2c0.8,0,1.7-0.1,2.7-0.4c1-0.3,1.9-0.6,2.6-1.1c0,0,0,0,0.1,0c0,0,0,0,0.1,0c0,0,0.1,0,0.1,0.1
		C285.3,46.1,285.3,46.1,285.3,46.2z M280.5,43.6c0-0.1-0.1-0.2-0.2-0.2c-0.1-0.1-0.1-0.1-0.2-0.1c-0.4,0-0.9,0.3-1.5,0.8
		c-0.6,0.5-1,1.1-1,1.5c0.7-0.1,1.3-0.3,2-0.7C280.2,44.5,280.5,44,280.5,43.6z"/>
	<path fill="#C7AE21" d="M296.7,46.2C296.7,46.2,296.7,46.3,296.7,46.2c0,0.1,0,0.1-0.1,0.1c-1.1,0.6-2.1,1-2.8,1.3
		c-0.7,0.3-1.4,0.4-2,0.4c-0.3,0-0.6-0.2-0.9-0.6c-0.2-0.4-0.5-1.1-0.6-2c-0.1-0.1-0.2-0.1-0.4-0.2c0,0-0.1,0-0.1,0
		c-0.5,0.1-1.3,0.4-2.3,1.1c-1,0.6-2.1,1.5-3.3,2.6c-0.1,0-0.3,0-0.4-0.1c-0.1-0.1-0.2-0.2-0.2-0.3c0-0.1,0.1-0.3,0.2-0.5
		c0,0,0-0.1,0-0.1c0.1-0.1,0.2-0.3,0.4-0.6c0.7-1.1,1.1-1.9,1.2-2.4c0.1-0.1,0.2-0.1,0.4-0.2c0.1-0.1,0.3-0.1,0.4-0.1
		c0.1,0,0.1,0,0.2,0c0,0,0.1,0.1,0.1,0.1c0,0,0,0,0,0c0,0,0,0,0,0c-0.1,0.2-0.2,0.6-0.5,1.2c-0.2,0.6-0.4,0.9-0.4,1
		c1.5-1.2,2.6-1.9,3.3-2.3c0.7-0.4,1.1-0.6,1.4-0.6c0.2,0,0.3,0.1,0.5,0.3c0.2,0.2,0.3,0.7,0.6,1.3c0,0,0,0.1,0.1,0.2
		c0.3,1,0.6,1.5,0.9,1.5c0.7,0,1.3-0.1,2-0.3c0.6-0.2,1.3-0.5,2.1-0.9c0,0,0,0,0.1,0c0,0,0,0,0.1,0c0,0,0.1,0,0.1,0.1
		C296.7,46.1,296.7,46.1,296.7,46.2z"/>
	<path fill="#C7AE21" d="M305.1,41.9c0,0.1-0.1,0.2-0.2,0.3c-0.1,0.1-0.3,0.2-0.4,0.2c-0.6,0-1.2,0-1.7,0c-0.5,0-1.1,0-1.8,0
		c-0.4,0.6-1,1.2-1.6,1.9c-0.6,0.6-1.3,1.2-2,1.7c0,0,0,0.1,0,0.1c0,0,0,0.1,0,0.2c0.1,0.3,0.2,0.5,0.5,0.8c0.3,0.3,0.6,0.4,1,0.5
		c1,0,2-0.1,2.9-0.4c0.9-0.3,1.8-0.6,2.7-1.1c0,0,0,0,0.1,0c0,0,0,0,0.1,0c0,0,0.1,0,0.1,0.1c0,0,0,0.1,0,0.2c0,0,0,0.1,0,0.1
		c0,0,0,0-0.1,0c-0.9,0.6-1.8,1-3,1.4c-1.1,0.4-2.2,0.5-3.1,0.5c-0.7,0-1.2-0.2-1.6-0.5c-0.4-0.3-0.5-0.8-0.5-1.4
		c0-0.5,0.1-1.1,0.4-1.8c0.2-0.7,0.6-1.3,1-2c-0.5,0-1.3,0.1-2.3,0.1c-0.2,0-0.4,0-0.5,0c0.1-0.2,0.2-0.3,0.3-0.5
		c0.1-0.1,0.2-0.3,0.4-0.4c0.7,0,1.4,0,2.2-0.1c0.2,0,0.3,0,0.4,0c0.6-0.8,1.2-1.5,1.8-2c0.7-0.6,1.2-0.8,1.7-0.8
		c0.1,0,0.2,0,0.3,0.1c0.1,0.1,0.1,0.2,0.1,0.4c0,0.4-0.1,0.8-0.2,1.2c-0.2,0.4-0.4,0.8-0.7,1.2c0.8,0,1.5,0,2.1,0
		C303.9,41.9,304.5,41.9,305.1,41.9z M300.5,42.4l-1.5,0c-0.3,0.5-0.6,1-0.9,1.5c-0.3,0.5-0.4,0.9-0.5,1.2c0.5-0.4,1-0.8,1.6-1.3
		C299.6,43.4,300.1,42.9,300.5,42.4z M301.5,40.3c0-0.1,0-0.2,0-0.2c0-0.1-0.1-0.1-0.1-0.1c-0.3,0.1-0.5,0.3-0.8,0.5
		c-0.3,0.2-0.5,0.5-0.8,0.9c-0.1,0.1-0.1,0.2-0.2,0.3c-0.1,0.1-0.1,0.2-0.2,0.2c0.4,0,0.7,0,0.9,0c0.2,0,0.4,0,0.6,0
		c0.2-0.3,0.3-0.5,0.5-0.8C301.4,40.7,301.5,40.5,301.5,40.3z"/>
	<path fill="#C7AE21" d="M319.3,46.2C319.3,46.2,319.3,46.3,319.3,46.2c0,0.1,0,0.1-0.1,0.1c-0.3,0.2-0.7,0.3-1.2,0.4
		c-0.4,0.1-0.8,0.2-1.2,0.2c-0.4,0-0.9-0.1-1.4-0.2c-0.5-0.2-0.9-0.3-1.2-0.5c-0.2,0.3-0.4,0.6-0.7,0.9c-0.3,0.3-0.5,0.5-0.7,0.7
		c-0.2,0.2-0.6,0.3-0.9,0.5c-0.4,0.1-0.7,0.2-1,0.2c-0.6,0-1.1-0.1-1.5-0.4c-0.4-0.3-0.5-0.7-0.5-1.2c0-0.4,0.1-0.8,0.3-1.2
		c0.2-0.4,0.4-0.8,0.7-1.1c0.3-0.3,0.6-0.5,0.9-0.7c0.4-0.2,0.7-0.3,0.9-0.3c0,0,0.1,0,0.2,0c0.1,0,0.2,0,0.3,0h0.1
		c0.1-0.1,0.1-0.2,0.2-0.3c0.1-0.1,0.2-0.1,0.3-0.1c0.1,0,0.1,0,0.2,0c0.1,0,0.2,0,0.3,0.1c0.3,0.1,0.5,0.3,0.7,0.7
		c0.2,0.3,0.2,0.7,0.2,1.1c0.1,0.4,0.4,0.7,0.8,1c0.4,0.2,0.9,0.4,1.5,0.4c0.5,0,0.9,0,1.3-0.1c0.4-0.1,0.7-0.2,1-0.3c0,0,0,0,0,0
		c0,0,0,0,0.1,0c0,0,0.1,0,0.1,0.1C319.3,46.1,319.3,46.1,319.3,46.2z M313.8,45.7c-0.4-0.3-0.6-0.6-0.8-0.8
		c-0.2-0.2-0.3-0.5-0.4-0.7c-0.7,0-1.2,0.3-1.7,0.8c-0.5,0.5-0.7,1-0.7,1.4c0,0.4,0.1,0.7,0.3,0.9c0.2,0.2,0.5,0.4,0.9,0.4
		c0.6,0,1.2-0.2,1.6-0.6C313.4,46.8,313.7,46.3,313.8,45.7z"/>
	<path fill="#C7AE21" d="M330.6,46.2C330.6,46.2,330.6,46.3,330.6,46.2c0,0.1,0,0.1-0.1,0.1c-1.1,0.6-2.1,1-2.8,1.3
		c-0.7,0.3-1.4,0.4-2,0.4c-0.3,0-0.6-0.2-0.9-0.6c-0.2-0.4-0.5-1.1-0.6-2c-0.1-0.1-0.2-0.1-0.4-0.2c0,0-0.1,0-0.1,0
		c-0.6,0.1-1.3,0.4-2.3,1.1c-1,0.6-2.1,1.5-3.3,2.6c-0.1,0-0.2,0-0.4-0.1c-0.1-0.1-0.2-0.2-0.2-0.3c0-0.1,0.1-0.3,0.2-0.5
		c0,0,0-0.1,0-0.1c0.1-0.1,0.2-0.3,0.4-0.6c0.7-1.1,1.1-1.9,1.2-2.4c0.1-0.1,0.2-0.1,0.4-0.2c0.1-0.1,0.3-0.1,0.4-0.1
		c0.1,0,0.1,0,0.2,0c0,0,0.1,0.1,0.1,0.1c0,0,0,0,0,0c0,0,0,0,0,0c-0.1,0.2-0.2,0.6-0.5,1.2c-0.2,0.6-0.4,0.9-0.4,1
		c1.5-1.2,2.6-1.9,3.3-2.3c0.7-0.4,1.1-0.6,1.4-0.6c0.2,0,0.3,0.1,0.5,0.3c0.2,0.2,0.3,0.7,0.6,1.3c0,0,0,0.1,0.1,0.2
		c0.3,1,0.6,1.5,0.9,1.5c0.7,0,1.3-0.1,2-0.3c0.6-0.2,1.3-0.5,2.1-0.9c0,0,0,0,0.1,0c0,0,0,0,0.1,0c0,0,0.1,0,0.1,0.1
		C330.6,46.1,330.6,46.1,330.6,46.2z"/>
	<path fill="#C7AE21" d="M339.3,46.2C339.3,46.2,339.3,46.3,339.3,46.2c0,0.1,0,0.1-0.1,0.1c-1.1,0.6-2.2,1.1-3.1,1.4
		c-0.9,0.3-1.9,0.4-2.8,0.4c-1,0-1.7-0.2-2.2-0.6c-0.5-0.4-0.7-1-0.7-1.8c0-1.5,1-3.3,2.9-5.4c1.9-2.1,3.5-3.2,4.6-3.2
		c0.2,0,0.4,0.1,0.5,0.2c0.1,0.1,0.2,0.3,0.2,0.6c0,0.6-0.3,1.4-1,2.3c-0.7,0.9-1.5,1.8-2.6,2.7l-3.3,2.8c0.1,0.3,0.2,0.5,0.3,0.7
		c0.1,0.2,0.2,0.4,0.4,0.5c0.3,0.2,0.6,0.3,0.9,0.4c0.3,0.1,0.6,0.1,1,0.1c0.7,0,1.5-0.1,2.4-0.4c0.8-0.2,1.7-0.6,2.5-1.1
		c0,0,0,0,0,0c0,0,0,0,0.1,0c0,0,0.1,0,0.1,0.1C339.3,46.1,339.3,46.1,339.3,46.2z M337.6,38.6c0,0,0-0.1,0-0.1
		c-0.1-0.1-0.1-0.2-0.2-0.3c-0.6,0-1.3,0.4-2.2,1.3c-0.9,0.9-1.8,2-2.5,3.2c-0.1,0.2-0.3,0.5-0.5,0.9c-0.2,0.4-0.3,0.7-0.4,1
		c1.4-0.7,2.7-1.7,4-3C336.9,40.4,337.6,39.4,337.6,38.6z"/>
	<path fill="#C7AE21" d="M350.9,46.2C350.9,46.2,350.9,46.3,350.9,46.2c0,0.1,0,0.1-0.1,0.1c-0.7,0.5-1.5,0.9-2.3,1.3
		c-0.9,0.4-1.9,0.9-3.2,1.4c-0.7,1.8-1.6,3.4-2.7,4.9c-1.1,1.5-2.3,2.7-3.7,3.7c-0.5,0.4-1.2,0.7-1.9,1.1c-0.8,0.3-1.3,0.5-1.7,0.5
		c-0.5-0.1-0.9-0.3-1.2-0.5c-0.3-0.3-0.4-0.6-0.4-1c0-1,1.1-2.3,3.2-4.1c2.1-1.8,4.6-3.4,7.5-5c0.2-0.4,0.4-0.8,0.5-1.3
		c0.1-0.5,0.2-0.9,0.2-1.3v-0.4l-2,1c-0.1,0-0.2,0.1-0.5,0.2c-1.4,0.7-2.3,1.1-2.6,1.1c-0.4,0-0.8-0.1-1-0.4c-0.2-0.2-0.3-0.6-0.3-1
		c0-0.1,0.1-0.3,0.2-0.5c0.1-0.2,0.4-0.5,0.8-0.9c0.1-0.1,0.2-0.2,0.4-0.4c0.2-0.2,0.3-0.3,0.4-0.4c0,0,0.1,0,0.1-0.1
		c0.1,0,0.1,0,0.2,0c0.1,0,0.3,0,0.4,0.1c0.1,0,0.2,0.1,0.2,0.1c0,0.1-0.1,0.2-0.2,0.4c-0.1,0.2-0.3,0.4-0.6,0.8
		c0,0-0.1,0.1-0.2,0.2c-0.3,0.3-0.4,0.5-0.5,0.6c0,0.2,0,0.4,0.1,0.5c0.1,0.1,0.1,0.1,0.2,0.1c0.8,0,1.7-0.2,2.6-0.7
		c0.9-0.4,1.9-1.2,3.2-2.2c0,0,0.1-0.1,0.1-0.1s0.1,0,0.1,0c0.1,0,0.2,0,0.2,0.1c0.1,0,0.1,0.1,0.1,0.1c-0.2,0.6-0.4,1.3-0.6,2.1
		c-0.2,0.8-0.3,1.5-0.4,2c0.8-0.2,1.7-0.6,2.6-1c0.9-0.4,1.7-0.8,2.5-1.3c0,0,0,0,0.1,0c0,0,0,0,0.1,0c0,0,0.1,0,0.1,0.1
		C350.9,46.1,350.9,46.1,350.9,46.2z M343.9,49.7c-2.3,1-4.3,2.3-6,3.8c-1.7,1.5-2.6,2.7-2.8,3.7c0,0.2,0.1,0.3,0.2,0.5
		c0.1,0.1,0.3,0.2,0.4,0.3c1.1-0.1,2.4-0.9,4-2.4c1.6-1.5,2.9-3.2,3.9-5.1c0.1-0.1,0.1-0.2,0.1-0.4C343.9,50,343.9,49.9,343.9,49.7z
		"/>
	<path fill="#C7AE21" d="M65.9,78.6C65.9,78.6,65.9,78.6,65.9,78.6c0,0.1,0,0.1,0,0.1c-0.4,0.2-0.8,0.3-1.2,0.4
		c-0.4,0.1-0.9,0.1-1.5,0.1c-1.3,0-3-0.3-5.1-1c-2.2-0.7-3.3-1-3.4-1.1c-0.4,0.3-1,0.5-1.5,0.6C52.5,77.9,52,78,51.4,78
		c-0.4,0-0.7-0.1-1-0.2c-0.2-0.1-0.4-0.3-0.4-0.6c0-0.3,0.3-0.6,0.7-0.9c0.5-0.3,1-0.5,1.7-0.5c0.4,0,0.8,0,1.2,0.1
		c0.4,0,0.8,0.1,1.1,0.2c0.7-1,1.6-2.4,2.8-4.1l0.5-0.8c1.1-1.7,2.2-3,3.3-3.9c1.1-0.8,2.1-1.3,3.2-1.3c0.3,0,0.6,0.2,0.9,0.5
		c0.3,0.3,0.4,0.8,0.4,1.2c0,1-0.5,2-1.6,2.9c-1.1,1-2.2,1.6-3.3,1.9c-0.1,0-0.1,0-0.1,0c0,0-0.1-0.1-0.1-0.1v0c0-0.1,0-0.1,0.1-0.1
		c0,0,0.1-0.1,0.1-0.1c0.9-0.3,1.8-1.1,2.7-2.2c0.9-1.1,1.4-2,1.4-2.6c0-0.3-0.1-0.5-0.2-0.7c-0.1-0.2-0.3-0.2-0.6-0.2
		c-0.5,0-1.1,0.3-1.7,0.8c-0.6,0.5-1.3,1.4-2.2,2.7l0,0c-2,2.8-3.6,4.9-4.9,6.2c0.3,0.1,0.8,0.3,1.5,0.5c3.7,1.3,6.1,2,7.2,2
		c0.3,0,0.6,0,0.9-0.1c0.2,0,0.5-0.1,0.7-0.2c0.1,0,0.1,0,0.2,0C65.9,78.5,65.9,78.5,65.9,78.6z M53.7,76.9
		c-0.4-0.1-0.7-0.2-0.9-0.2c-0.2,0-0.5-0.1-0.7-0.1c-0.3,0-0.6,0.1-0.8,0.2c-0.3,0.1-0.4,0.2-0.4,0.3v0c0.1,0.1,0.2,0.2,0.4,0.2
		c0.2,0,0.4,0.1,0.8,0.1c0.2,0,0.5,0,0.8-0.1c0.3-0.1,0.6-0.2,0.8-0.3c0,0,0.1,0,0.1,0C53.7,77,53.7,77,53.7,76.9L53.7,76.9
		L53.7,76.9z"/>
	<path fill="#C7AE21" d="M73.5,75.1C73.5,75.1,73.5,75.1,73.5,75.1c0,0.1,0,0.1-0.1,0.1c-0.3,0.2-0.7,0.3-1.2,0.4
		c-0.4,0.1-0.8,0.2-1.2,0.2c-0.4,0-0.9-0.1-1.4-0.2c-0.5-0.2-0.9-0.3-1.2-0.5c-0.2,0.3-0.4,0.6-0.7,0.9c-0.3,0.3-0.5,0.5-0.7,0.7
		c-0.2,0.2-0.6,0.3-0.9,0.5c-0.4,0.1-0.7,0.2-1,0.2c-0.6,0-1.1-0.1-1.5-0.4s-0.5-0.7-0.5-1.2c0-0.4,0.1-0.8,0.3-1.2s0.4-0.8,0.7-1.1
		c0.3-0.3,0.6-0.5,0.9-0.7c0.4-0.2,0.7-0.3,0.9-0.3c0,0,0.1,0,0.2,0c0.1,0,0.2,0,0.3,0h0.1c0.1-0.1,0.1-0.2,0.2-0.3
		c0.1-0.1,0.2-0.1,0.3-0.1c0.1,0,0.1,0,0.2,0c0.1,0,0.2,0,0.3,0.1c0.3,0.1,0.5,0.3,0.7,0.7c0.2,0.3,0.2,0.7,0.2,1.1
		c0.1,0.4,0.4,0.7,0.8,1c0.4,0.2,0.9,0.4,1.5,0.4c0.5,0,0.9,0,1.3-0.1c0.3-0.1,0.7-0.2,1-0.3c0,0,0,0,0,0c0,0,0,0,0.1,0
		c0,0,0.1,0,0.1,0.1C73.5,75,73.5,75,73.5,75.1z M68.1,74.6c-0.4-0.3-0.6-0.6-0.8-0.8c-0.2-0.2-0.3-0.5-0.3-0.7
		c-0.7,0-1.2,0.3-1.7,0.8c-0.5,0.5-0.7,1-0.7,1.4c0,0.4,0.1,0.7,0.3,0.9c0.2,0.2,0.5,0.4,0.9,0.4c0.6,0,1.2-0.2,1.6-0.6
		C67.7,75.7,68,75.2,68.1,74.6z"/>
	<path fill="#C7AE21" d="M84.9,75.1C84.9,75.1,84.9,75.1,84.9,75.1c0,0.1,0,0.1-0.1,0.1c-1.1,0.6-2.1,1-2.8,1.3
		c-0.7,0.3-1.4,0.4-2,0.4c-0.3,0-0.6-0.2-0.9-0.6c-0.2-0.4-0.5-1.1-0.6-2c-0.1-0.1-0.2-0.1-0.4-0.2c0,0-0.1,0-0.1,0
		c-0.5,0.1-1.3,0.4-2.3,1.1c-1,0.6-2.1,1.5-3.3,2.6c-0.1,0-0.3,0-0.4-0.1c-0.1-0.1-0.2-0.2-0.2-0.3c0-0.1,0.1-0.3,0.2-0.5
		c0,0,0-0.1,0-0.1c0.1-0.1,0.2-0.3,0.4-0.6c0.7-1.1,1.1-1.9,1.2-2.4c0.1-0.1,0.2-0.1,0.4-0.2c0.1-0.1,0.3-0.1,0.4-0.1
		c0.1,0,0.1,0,0.2,0c0,0,0.1,0.1,0.1,0.1c0,0,0,0,0,0c0,0,0,0,0,0c-0.1,0.2-0.2,0.6-0.5,1.2c-0.2,0.6-0.4,0.9-0.4,1
		c1.5-1.2,2.6-1.9,3.3-2.3c0.7-0.4,1.1-0.6,1.4-0.6c0.2,0,0.3,0.1,0.5,0.3c0.2,0.2,0.3,0.7,0.6,1.3c0,0,0,0.1,0.1,0.2
		c0.3,1,0.6,1.5,0.9,1.5c0.7,0,1.3-0.1,2-0.3c0.6-0.2,1.3-0.5,2.1-0.9c0,0,0,0,0.1,0c0,0,0,0,0.1,0c0,0,0.1,0,0.1,0.1
		C84.9,75,84.9,75,84.9,75.1z"/>
	<path fill="#C7AE21" d="M96.3,75.1C96.3,75.1,96.3,75.1,96.3,75.1c0,0.1,0,0.1-0.1,0.1c-0.6,0.4-1.3,0.7-2.1,0.9
		c-0.8,0.2-1.5,0.4-2.1,0.4c-0.6,0-1.1-0.1-1.6-0.2c-0.5-0.1-0.9-0.3-1.2-0.6c-0.6,0.3-1.3,0.6-2.3,1c-1,0.4-1.6,0.5-1.9,0.5
		c-0.4,0-0.7-0.1-0.9-0.4c-0.2-0.3-0.3-0.5-0.3-0.8c0-0.8,0.4-1.5,1.3-2.2c0.9-0.7,1.8-1.2,2.8-1.4c0.2-1.1,0.7-2.5,1.7-4
		c1-1.6,2-2.3,2.9-2.3c0.5,0,0.9,0.2,1.2,0.7c0.3,0.5,0.5,1,0.5,1.4c0,1.1-0.4,2.2-1.1,3.4c-0.8,1.2-1.8,2.4-3.1,3.4
		c0.3,0.2,0.6,0.4,1,0.5c0.4,0.1,0.8,0.2,1.3,0.2c0.6,0,1.2-0.1,2-0.3c0.7-0.2,1.3-0.4,1.7-0.6c0,0,0,0,0,0c0,0,0,0,0.1,0
		c0,0,0.1,0,0.1,0.1C96.3,75,96.3,75,96.3,75.1z M88.6,74.9c-0.1-0.2-0.3-0.5-0.4-0.8c-0.2-0.3-0.3-0.6-0.4-0.8l-0.5,0.1
		c-0.4,0-0.8,0.3-1.4,0.8c-0.6,0.5-0.9,1-0.9,1.4c0,0.2,0,0.4,0.1,0.6c0.1,0.2,0.2,0.4,0.3,0.5l0.8-0.1c0.4-0.1,0.7-0.3,1.1-0.6
		C87.8,75.7,88.2,75.3,88.6,74.9z M93.4,68.2c0-0.3-0.1-0.5-0.3-0.8c-0.2-0.3-0.4-0.4-0.7-0.4c-0.9,0.2-1.8,0.9-2.5,2.1
		c-0.8,1.2-1.1,2.4-1.1,3.7c0,0.2,0.1,0.5,0.2,0.8c0.2,0.3,0.3,0.6,0.5,0.7c0.6-0.3,1.3-0.9,2.1-1.9c0.8-0.9,1.3-1.8,1.6-2.6
		c0.1-0.2,0.1-0.4,0.2-0.8C93.3,68.7,93.4,68.4,93.4,68.2z"/>
	<path fill="#C7AE21" d="M106.2,75.1C106.2,75.1,106.2,75.1,106.2,75.1c0,0.1,0,0.1-0.1,0.1c-0.3,0.2-0.7,0.3-1.2,0.4
		c-0.4,0.1-0.8,0.2-1.2,0.2c-0.4,0-0.9-0.1-1.4-0.2c-0.5-0.2-0.9-0.3-1.2-0.5c-0.2,0.3-0.4,0.6-0.7,0.9c-0.3,0.3-0.5,0.5-0.7,0.7
		c-0.2,0.2-0.6,0.3-0.9,0.5c-0.4,0.1-0.7,0.2-1,0.2c-0.6,0-1.1-0.1-1.5-0.4S96,76.1,96,75.6c0-0.4,0.1-0.8,0.3-1.2s0.4-0.8,0.7-1.1
		c0.3-0.3,0.6-0.5,0.9-0.7c0.4-0.2,0.7-0.3,0.9-0.3c0,0,0.1,0,0.2,0c0.1,0,0.2,0,0.3,0h0.1c0.1-0.1,0.1-0.2,0.2-0.3
		c0.1-0.1,0.2-0.1,0.3-0.1c0.1,0,0.1,0,0.2,0c0.1,0,0.2,0,0.3,0.1c0.3,0.1,0.5,0.3,0.7,0.7c0.2,0.3,0.2,0.7,0.2,1.1
		c0.1,0.4,0.4,0.7,0.8,1c0.4,0.2,0.9,0.4,1.5,0.4c0.5,0,0.9,0,1.3-0.1c0.3-0.1,0.7-0.2,1-0.3c0,0,0,0,0,0c0,0,0,0,0.1,0
		c0,0,0.1,0,0.1,0.1C106.2,75,106.2,75,106.2,75.1z M100.7,74.6c-0.4-0.3-0.6-0.6-0.8-0.8c-0.2-0.2-0.3-0.5-0.3-0.7
		c-0.7,0-1.2,0.3-1.7,0.8c-0.5,0.5-0.7,1-0.7,1.4c0,0.4,0.1,0.7,0.3,0.9c0.2,0.2,0.5,0.4,0.9,0.4c0.6,0,1.2-0.2,1.6-0.6
		C100.3,75.7,100.6,75.2,100.7,74.6z"/>
	<path fill="#C7AE21" d="M117.5,75.1C117.5,75.1,117.5,75.1,117.5,75.1c0,0.1,0,0.1-0.1,0.1c-1.1,0.6-2.1,1-2.8,1.3
		c-0.7,0.3-1.4,0.4-2,0.4c-0.3,0-0.6-0.2-0.9-0.6c-0.2-0.4-0.5-1.1-0.6-2c-0.1-0.1-0.2-0.1-0.4-0.2c0,0-0.1,0-0.1,0
		c-0.5,0.1-1.3,0.4-2.3,1.1c-1,0.6-2.1,1.5-3.3,2.6c-0.1,0-0.2,0-0.4-0.1c-0.1-0.1-0.2-0.2-0.2-0.3c0-0.1,0.1-0.3,0.2-0.5
		c0,0,0-0.1,0-0.1c0.1-0.1,0.2-0.3,0.4-0.6c0.7-1.1,1.1-1.9,1.2-2.4c0.1-0.1,0.2-0.1,0.4-0.2c0.1-0.1,0.3-0.1,0.4-0.1
		c0.1,0,0.1,0,0.2,0c0,0,0.1,0.1,0.1,0.1c0,0,0,0,0,0c0,0,0,0,0,0c-0.1,0.2-0.2,0.6-0.5,1.2c-0.2,0.6-0.4,0.9-0.4,1
		c1.5-1.2,2.6-1.9,3.3-2.3c0.7-0.4,1.1-0.6,1.4-0.6c0.2,0,0.3,0.1,0.5,0.3c0.2,0.2,0.3,0.7,0.6,1.3c0,0,0,0.1,0.1,0.2
		c0.3,1,0.6,1.5,0.9,1.5c0.7,0,1.3-0.1,2-0.3c0.6-0.2,1.3-0.5,2.1-0.9c0,0,0,0,0.1,0c0,0,0,0,0.1,0c0,0,0.1,0,0.1,0.1
		C117.5,75,117.5,75,117.5,75.1z"/>
	<path fill="#C7AE21" d="M124.8,71.6h0.5V74h2.4v0.5h-2.4v2.4h-0.5v-2.4h-2.4V74h2.4V71.6z"/>
	<path fill="#C7AE21" d="M140.1,76.6C140.1,76.6,140.1,76.6,140.1,76.6c-0.1,0.1-0.1,0.1-0.1,0.1c-0.2,0.1-0.4,0.2-0.8,0.2
		c-0.4,0.1-0.7,0.1-1,0.1c-0.3,0-0.5,0-0.7,0c-0.2,0-0.4-0.1-0.7-0.1c-0.2,0.3-0.3,0.8-0.5,1.3c-0.2,0.5-0.3,1.1-0.5,1.7
		c0,0.1-0.1,0.2-0.4,0.3c-0.3,0.1-0.5,0.1-0.8,0.1c-0.1,0-0.1,0-0.2,0c0,0,0,0,0-0.1c0.2-0.5,0.4-1.2,0.8-1.9
		c0.3-0.7,0.6-1.2,0.8-1.6c-0.1,0-0.2-0.1-0.4-0.1c-0.6-0.1-1-0.2-1.2-0.3c-0.4,0.2-0.8,0.4-1.3,0.6c-0.5,0.1-1,0.2-1.4,0.2
		c-0.2,0-0.4-0.1-0.6-0.2c-0.2-0.1-0.3-0.3-0.3-0.5c0-0.2,0.1-0.4,0.4-0.6c0.3-0.2,0.6-0.3,0.9-0.3c0.2,0,0.5,0,0.7,0.1
		s0.6,0.1,0.9,0.2c0.9-0.4,1.8-1.1,2.7-2.3c0.9-1.1,1.4-2.1,1.5-2.8c0-0.1,0-0.1,0.1-0.1c0,0,0.1,0,0.2,0c0.1,0,0.1,0,0.1,0
		c0,0,0.1,0.1,0.1,0.1c-0.2,1-0.6,2-1.2,3c-0.6,1-1.4,1.8-2.3,2.4c0.1,0,0.4,0.1,0.7,0.2c0.3,0.1,0.5,0.1,0.7,0.2
		c0.3-0.4,0.6-0.8,0.9-1.2c0.4-0.4,0.7-0.8,1.2-1.2c0,0,0,0,0,0c0,0,0,0,0.1,0c0,0,0.1,0,0.1,0.1c0,0,0,0.1,0,0.2
		c-0.4,0.4-0.7,0.8-0.9,1.2c-0.3,0.4-0.5,0.7-0.7,1.1c0.2,0,0.4,0.1,0.6,0.1c0.2,0,0.4,0,0.7,0c0.2,0,0.5,0,0.8-0.1
		c0.3,0,0.5-0.1,0.7-0.1c0.1,0,0.1,0,0.1,0.1C140.1,76.5,140.1,76.5,140.1,76.6z M133.2,76c-0.1,0-0.3-0.1-0.4-0.1
		c-0.1,0-0.4,0-0.6,0c-0.1,0-0.2,0-0.4,0.1c-0.1,0-0.2,0.1-0.2,0.2l0.2,0.2c0.2,0,0.4,0,0.6-0.1C132.7,76.2,132.9,76.1,133.2,76z"/>
	<path fill="#C7AE21" d="M149.3,76.6C149.3,76.6,149.2,76.6,149.3,76.6c-0.1,0.1-0.1,0.1-0.1,0.1c-0.2,0.1-0.4,0.2-0.8,0.2
		c-0.4,0.1-0.7,0.1-1,0.1c-0.3,0-0.5,0-0.7,0c-0.2,0-0.4-0.1-0.7-0.1c-0.2,0.3-0.3,0.8-0.5,1.3c-0.2,0.5-0.3,1.1-0.5,1.7
		c0,0.1-0.1,0.2-0.4,0.3c-0.3,0.1-0.5,0.1-0.8,0.1c-0.1,0-0.1,0-0.2,0c0,0-0.1,0-0.1-0.1c0.2-0.5,0.4-1.2,0.8-1.9
		c0.3-0.7,0.6-1.2,0.8-1.6c-0.1,0-0.2-0.1-0.4-0.1c-0.6-0.1-1-0.2-1.2-0.3c-0.4,0.2-0.8,0.4-1.3,0.6c-0.5,0.1-1,0.2-1.4,0.2
		c-0.2,0-0.4-0.1-0.6-0.2c-0.2-0.1-0.3-0.3-0.3-0.5c0-0.2,0.1-0.4,0.4-0.6c0.3-0.2,0.6-0.3,0.9-0.3c0.2,0,0.5,0,0.7,0.1
		c0.3,0,0.6,0.1,0.9,0.2c0.9-0.4,1.8-1.1,2.7-2.3c0.9-1.1,1.4-2.1,1.5-2.8c0-0.1,0-0.1,0.1-0.1c0,0,0.1,0,0.2,0c0.1,0,0.1,0,0.1,0
		c0,0,0.1,0.1,0.1,0.1c-0.2,1-0.6,2-1.2,3c-0.6,1-1.4,1.8-2.3,2.4c0.1,0,0.4,0.1,0.7,0.2c0.3,0.1,0.5,0.1,0.7,0.2
		c0.3-0.4,0.6-0.8,0.9-1.2c0.4-0.4,0.7-0.8,1.2-1.2c0,0,0,0,0,0c0,0,0,0,0.1,0c0,0,0.1,0,0.1,0.1c0,0,0,0.1,0,0.2
		c-0.4,0.4-0.7,0.8-0.9,1.2c-0.3,0.4-0.5,0.7-0.7,1.1c0.2,0,0.4,0.1,0.6,0.1c0.2,0,0.4,0,0.7,0c0.2,0,0.5,0,0.8-0.1
		c0.3,0,0.5-0.1,0.7-0.1c0.1,0,0.1,0,0.1,0.1C149.2,76.5,149.3,76.5,149.3,76.6z M142.4,76c-0.1,0-0.3-0.1-0.4-0.1
		c-0.2,0-0.4,0-0.6,0c-0.1,0-0.2,0-0.4,0.1c-0.1,0-0.2,0.1-0.2,0.2l0.2,0.2c0.2,0,0.4,0,0.6-0.1C141.8,76.2,142.1,76.1,142.4,76z"/>
	<path fill="#C7AE21" d="M161.6,71.8c0,0.5-0.2,0.9-0.5,1.3c-0.3,0.4-0.9,0.8-1.5,1.2l-0.5,0.3c-1,0.6-1.8,1.1-2.2,1.4
		c0.4,0.1,0.9,0.2,1.5,0.3c0.6,0.1,1.1,0.1,1.5,0.1c0.3,0,0.6,0,0.8-0.1c0.2,0,0.4-0.1,0.6-0.2c0,0,0,0,0,0c0,0,0,0,0,0
		c0,0,0.1,0,0.1,0.1c0,0,0.1,0.1,0.1,0.1c0,0,0,0.1,0,0.1c0,0,0,0-0.1,0.1c-0.2,0.1-0.5,0.2-1.1,0.4c-0.5,0.1-1,0.2-1.3,0.2
		c-0.1,0-0.5,0-1.1,0c-0.6,0-1,0-1.2,0c-0.4,0-0.8,0-1.1,0c-0.4,0-0.7,0.1-0.9,0.1c-0.1,0-0.1,0-0.2-0.1c-0.1,0-0.1-0.1-0.1-0.2
		c0-0.1,0-0.1,0-0.2c0,0,0-0.1,0.1-0.1c1.7-0.8,3.1-1.6,4.2-2.5s1.7-1.7,1.7-2.4c0-0.2-0.1-0.4-0.2-0.5c-0.1-0.1-0.3-0.2-0.5-0.2
		c-0.7,0-1.3,0.2-1.9,0.5c-0.5,0.3-0.8,0.6-0.8,0.9c0,0.2,0,0.3,0.1,0.3c0.1,0.1,0.2,0.1,0.4,0.1c0.2,0,0.5-0.1,0.8-0.2
		c0.3-0.1,0.5-0.3,0.8-0.5c0,0,0.1,0,0.1,0c0,0,0,0,0.1,0c0,0,0.1,0,0.1,0.1s0,0.1,0,0.2v0c-0.4,0.3-0.8,0.6-1.2,0.8
		c-0.4,0.2-0.8,0.3-1.1,0.3c-0.2,0-0.5-0.1-0.6-0.2c-0.2-0.1-0.2-0.3-0.2-0.5c0-0.5,0.5-1.1,1.5-1.7c1-0.6,1.8-0.9,2.5-0.9
		c0.4,0,0.8,0.1,1,0.4C161.5,71.1,161.6,71.4,161.6,71.8z"/>
	<path fill="#C7AE21" d="M170.6,72.3c0,1.2-0.6,2.4-1.8,3.5c-1.2,1.1-2.4,1.6-3.5,1.6c-0.7,0-1.2-0.1-1.6-0.4
		c-0.4-0.3-0.5-0.7-0.5-1.3c0-0.7,0.2-1.4,0.7-2c0.5-0.6,1-1,1.7-1.2c0.5-0.6,1-1.1,1.6-1.4c0.5-0.3,1.1-0.5,1.7-0.5
		c0.6,0,1,0.2,1.3,0.5C170.5,71.3,170.6,71.7,170.6,72.3z M169.4,72.2c0-0.3-0.1-0.5-0.2-0.7c-0.1-0.2-0.4-0.2-0.6-0.2
		c-0.4,0-0.8,0.1-1.1,0.3c-0.4,0.2-0.7,0.4-1.1,0.8h0.1c0.2,0,0.4,0.1,0.6,0.2c0.2,0.2,0.3,0.3,0.3,0.6c0,0.3-0.1,0.5-0.2,0.8
		c-0.1,0.3-0.3,0.5-0.6,0.8c-0.1,0-0.2,0-0.2,0c0,0-0.1-0.1-0.1-0.2c0.2-0.2,0.3-0.4,0.4-0.6c0.1-0.2,0.1-0.4,0.1-0.7
		c0-0.1-0.1-0.2-0.2-0.3c-0.1-0.1-0.2-0.1-0.3-0.1c-0.1,0-0.2,0-0.3,0c-0.1,0-0.2,0.1-0.3,0.1c-0.3,0.3-0.5,0.7-0.6,1
		c-0.2,0.3-0.3,0.7-0.4,1c0,0,0,0.1,0,0.1c0,0-0.1,0-0.1,0c-0.1,0-0.1,0-0.1,0c0,0-0.1-0.1-0.1-0.1c0-0.2,0.1-0.3,0.1-0.5
		c0.1-0.2,0.1-0.3,0.2-0.5h0c-0.2,0.3-0.3,0.5-0.4,0.8c-0.1,0.3-0.1,0.6-0.1,0.8c0,0.4,0.1,0.7,0.3,0.9c0.2,0.2,0.4,0.3,0.8,0.3
		c1,0,1.9-0.6,2.8-1.7C169,74.2,169.4,73.1,169.4,72.2z"/>
	<path fill="#C7AE21" d="M178.8,71C178.8,71,178.8,71.1,178.8,71c0,0.1,0,0.1,0,0.1c-1.7,1.3-3.1,2.6-4.2,3.9
		c-1.1,1.4-1.7,2.5-1.7,3.4c0,0.2,0.1,0.4,0.1,0.5c0.1,0.1,0.2,0.2,0.3,0.3c0.2,0,0.4-0.2,0.6-0.5c0.2-0.4,0.4-0.8,0.4-1.3l0-0.6
		c0-0.1,0-0.1,0.1-0.2c0,0,0.1-0.1,0.2-0.1c0.1,0,0.1,0,0.1,0c0,0,0.1,0.1,0.1,0.1v1c0,0.5-0.2,1.1-0.7,1.6
		c-0.4,0.6-0.8,0.9-1.2,0.9c-0.3,0-0.5-0.1-0.7-0.3c-0.2-0.2-0.2-0.5-0.2-1c0-0.7,0.4-1.5,1.1-2.5c0.7-1,1.7-2.1,3.1-3.4
		c0.2-0.2,0.5-0.5,0.8-0.8l0.1-0.1c-0.4,0.1-0.9,0.2-1.6,0.3c-0.6,0.1-1.2,0.1-1.7,0.1l-1-0.2c-0.1,0-0.1-0.1-0.1-0.2
		c0-0.1,0-0.2,0-0.3c0-0.2,0-0.3,0.1-0.4c0-0.1,0.1-0.2,0.2-0.2c0.3,0,0.6,0.1,1,0.1c0.4,0,0.7,0,1.1,0c0.8,0,1.5,0,2.2-0.1
		c0.7-0.1,1.1-0.2,1.4-0.3c0,0,0,0,0.1,0c0,0,0,0,0,0c0.1,0,0.1,0,0.1,0.1C178.8,70.9,178.8,71,178.8,71z"/>
	<path fill="#C7AE21" d="M186.2,68.3c-1.7,0.8-3.2,1.9-4.3,3.2c-1.1,1.4-1.7,2.5-1.7,3.6c0,0.4,0.1,0.8,0.4,1c0.3,0.2,0.6,0.4,1,0.4
		l0.7-0.2c0.4-0.1,0.8-0.4,1.1-0.7c0.3-0.3,0.6-0.7,0.7-1c0-0.2-0.1-0.3-0.2-0.4c-0.1-0.1-0.2-0.2-0.2-0.2c-0.4,0-0.8,0.1-1.2,0.3
		c-0.4,0.2-0.9,0.5-1.3,0.9c-0.1,0-0.1,0-0.2,0c0,0-0.1-0.1-0.1-0.1c0,0,0-0.1,0-0.1c0,0,0-0.1,0-0.1c0.4-0.5,0.9-0.9,1.5-1.3
		c0.5-0.3,1-0.5,1.4-0.5c0.3,0,0.6,0.1,0.7,0.2c0.2,0.2,0.3,0.4,0.3,0.6c0,0.2-0.1,0.5-0.3,0.8c-0.2,0.3-0.4,0.6-0.8,1
		c-0.4,0.5-0.9,0.8-1.3,1c-0.4,0.2-0.9,0.3-1.3,0.3c-0.7,0-1.3-0.2-1.6-0.5c-0.4-0.3-0.5-0.8-0.5-1.4c0-1.2,0.7-2.5,2.1-3.9
		c1.4-1.4,3-2.6,4.9-3.4c0.1,0,0.1,0,0.2,0.1C186.2,68.1,186.2,68.2,186.2,68.3z"/>
	<path fill="#C7AE21" d="M194.2,68.3c-1.7,0.8-3.2,1.9-4.3,3.2c-1.1,1.4-1.7,2.5-1.7,3.6c0,0.4,0.1,0.8,0.4,1c0.3,0.2,0.6,0.4,1,0.4
		l0.7-0.2c0.4-0.1,0.8-0.4,1.1-0.7c0.3-0.3,0.6-0.7,0.7-1c0-0.2-0.1-0.3-0.2-0.4c-0.1-0.1-0.2-0.2-0.2-0.2c-0.4,0-0.8,0.1-1.2,0.3
		c-0.4,0.2-0.9,0.5-1.3,0.9c-0.1,0-0.1,0-0.2,0c0,0-0.1-0.1-0.1-0.1c0,0,0-0.1,0-0.1c0,0,0-0.1,0-0.1c0.4-0.5,0.9-0.9,1.5-1.3
		c0.5-0.3,1-0.5,1.4-0.5c0.3,0,0.6,0.1,0.7,0.2c0.2,0.2,0.3,0.4,0.3,0.6c0,0.2-0.1,0.5-0.3,0.8c-0.2,0.3-0.4,0.6-0.8,1
		c-0.4,0.5-0.9,0.8-1.3,1c-0.4,0.2-0.9,0.3-1.3,0.3c-0.7,0-1.3-0.2-1.6-0.5c-0.4-0.3-0.5-0.8-0.5-1.4c0-1.2,0.7-2.5,2.1-3.9
		c1.4-1.4,3-2.6,4.9-3.4c0.1,0,0.1,0,0.2,0.1C194.2,68.1,194.2,68.2,194.2,68.3z"/>
	<path fill="#C7AE21" d="M202.7,76.6C202.7,76.6,202.7,76.6,202.7,76.6c-0.1,0.1-0.1,0.1-0.1,0.1c-0.2,0.1-0.4,0.2-0.8,0.2
		c-0.4,0.1-0.7,0.1-1,0.1c-0.3,0-0.5,0-0.7,0c-0.2,0-0.4-0.1-0.7-0.1c-0.2,0.3-0.3,0.8-0.5,1.3c-0.2,0.5-0.3,1.1-0.5,1.7
		c0,0.1-0.1,0.2-0.4,0.3c-0.3,0.1-0.5,0.1-0.8,0.1c-0.1,0-0.1,0-0.2,0c0,0,0,0,0-0.1c0.2-0.5,0.4-1.2,0.8-1.9
		c0.3-0.7,0.6-1.2,0.8-1.6c-0.1,0-0.2-0.1-0.4-0.1c-0.6-0.1-1-0.2-1.2-0.3c-0.4,0.2-0.8,0.4-1.3,0.6c-0.5,0.1-1,0.2-1.4,0.2
		c-0.2,0-0.4-0.1-0.6-0.2c-0.2-0.1-0.3-0.3-0.3-0.5c0-0.2,0.1-0.4,0.4-0.6c0.3-0.2,0.6-0.3,0.9-0.3c0.2,0,0.5,0,0.7,0.1
		s0.6,0.1,0.9,0.2c0.9-0.4,1.8-1.1,2.7-2.3c0.9-1.1,1.4-2.1,1.5-2.8c0-0.1,0-0.1,0.1-0.1c0,0,0.1,0,0.2,0c0.1,0,0.1,0,0.1,0
		c0,0,0.1,0.1,0.1,0.1c-0.2,1-0.6,2-1.2,3s-1.4,1.8-2.3,2.4c0.1,0,0.4,0.1,0.7,0.2c0.3,0.1,0.5,0.1,0.7,0.2c0.3-0.4,0.6-0.8,0.9-1.2
		c0.4-0.4,0.7-0.8,1.2-1.2c0,0,0,0,0,0c0,0,0,0,0.1,0c0,0,0.1,0,0.1,0.1c0,0,0,0.1,0,0.2c-0.4,0.4-0.7,0.8-0.9,1.2
		c-0.3,0.4-0.5,0.7-0.7,1.1c0.2,0,0.4,0.1,0.6,0.1c0.2,0,0.4,0,0.7,0c0.2,0,0.5,0,0.8-0.1c0.3,0,0.5-0.1,0.7-0.1
		c0.1,0,0.1,0,0.1,0.1C202.7,76.5,202.7,76.5,202.7,76.6z M195.8,76c-0.1,0-0.3-0.1-0.4-0.1c-0.1,0-0.4,0-0.6,0
		c-0.1,0-0.2,0-0.4,0.1c-0.1,0-0.2,0.1-0.2,0.2l0.2,0.2c0.2,0,0.4,0,0.6-0.1C195.3,76.2,195.5,76.1,195.8,76z"/>
	<path fill="#C7AE21" d="M213.5,67.3c0,0.9-1.5,2.5-4.6,4.7l-0.3,0.3c-0.5,0.3-0.9,0.7-1.2,1c-0.4,0.3-0.7,0.5-0.9,0.8
		c0,0.1,0,0.3,0,0.6c0,0.3,0,0.6,0,0.8c0,0.6-0.2,1-0.6,1.3c-0.4,0.3-0.8,0.5-1.2,0.5c-0.2,0-0.4-0.1-0.5-0.3
		c-0.1-0.2-0.2-0.4-0.2-0.7c0-0.3,0.1-0.7,0.4-1.1c0.3-0.4,0.8-0.9,1.5-1.5c0-0.2-0.1-0.6-0.3-1.3c-0.2-0.6-0.3-1.2-0.3-1.6
		c0-0.3,0.1-0.6,0.2-0.8c0.1-0.3,0.3-0.5,0.6-0.7c0.4-0.3,0.8-0.7,1.3-1c0.5-0.3,1-0.7,1.6-1.1c0.5-0.4,1.1-0.6,1.6-0.8
		c0.5-0.2,0.9-0.3,1.3-0.3c0.5,0,0.9,0.1,1.2,0.3C213.3,66.7,213.5,67,213.5,67.3z M206,74.6v-0.3c-0.4,0.2-0.7,0.5-1,0.8
		c-0.3,0.3-0.4,0.6-0.4,0.8c0,0.1,0,0.1,0.1,0.2c0.1,0.1,0.1,0.1,0.2,0.1c0.4-0.1,0.6-0.3,0.8-0.6C205.8,75.5,205.9,75.1,206,74.6z
		 M212.2,67.5c0-0.2-0.1-0.4-0.2-0.5c-0.1-0.1-0.3-0.2-0.5-0.2c-0.6,0-1.3,0.2-2,0.5c-0.7,0.4-1.4,0.9-2.2,1.6
		c0.4,0,0.8,0.2,1.2,0.4c0.4,0.2,0.7,0.4,0.8,0.6c0,0,0,0.1,0,0.1c0,0,0,0.1,0,0.1c0,0.1,0,0.1-0.1,0.1c-0.1,0-0.1,0-0.2,0
		c-0.2-0.2-0.3-0.4-0.6-0.5c-0.2-0.1-0.4-0.2-0.6-0.2c-0.5,0-0.9,0.2-1.2,0.5c-0.3,0.3-0.5,0.7-0.5,1.1c0,0.6,0,1.1,0,1.4
		c0,0.3,0,0.6,0,0.8l3-2.4c0.9-0.7,1.6-1.4,2.1-2C212,68.5,212.2,68,212.2,67.5z"/>
	<path fill="#C7AE21" d="M218.5,68.3c-1.7,0.8-3.2,1.9-4.3,3.2c-1.1,1.4-1.7,2.5-1.7,3.6c0,0.4,0.1,0.8,0.4,1c0.3,0.2,0.6,0.4,1,0.4
		l0.7-0.2c0.4-0.1,0.8-0.4,1.1-0.7c0.3-0.3,0.6-0.7,0.7-1c0-0.2-0.1-0.3-0.2-0.4c-0.1-0.1-0.2-0.2-0.2-0.2c-0.4,0-0.8,0.1-1.2,0.3
		c-0.4,0.2-0.9,0.5-1.3,0.9c-0.1,0-0.1,0-0.2,0c0,0-0.1-0.1-0.1-0.1c0,0,0-0.1,0-0.1c0,0,0-0.1,0-0.1c0.4-0.5,0.9-0.9,1.5-1.3
		c0.5-0.3,1-0.5,1.4-0.5c0.3,0,0.6,0.1,0.7,0.2c0.2,0.2,0.3,0.4,0.3,0.6c0,0.2-0.1,0.5-0.3,0.8c-0.2,0.3-0.4,0.6-0.8,1
		c-0.4,0.5-0.9,0.8-1.3,1c-0.4,0.2-0.9,0.3-1.3,0.3c-0.7,0-1.3-0.2-1.6-0.5c-0.4-0.3-0.5-0.8-0.5-1.4c0-1.2,0.7-2.5,2.1-3.9
		c1.4-1.4,3-2.6,4.9-3.4c0.1,0,0.1,0,0.2,0.1C218.5,68.1,218.5,68.2,218.5,68.3z"/>
	<path fill="#C7AE21" d="M225.7,71.8c0,0.5-0.2,0.9-0.5,1.3c-0.3,0.4-0.9,0.8-1.5,1.2l-0.5,0.3c-1,0.6-1.8,1.1-2.2,1.4
		c0.4,0.1,0.9,0.2,1.5,0.3c0.6,0.1,1.1,0.1,1.5,0.1c0.3,0,0.6,0,0.8-0.1c0.2,0,0.4-0.1,0.6-0.2c0,0,0,0,0,0c0,0,0,0,0,0
		c0,0,0.1,0,0.1,0.1c0,0,0.1,0.1,0.1,0.1c0,0,0,0.1,0,0.1c0,0,0,0-0.1,0.1c-0.2,0.1-0.5,0.2-1.1,0.4c-0.5,0.1-1,0.2-1.3,0.2
		c-0.1,0-0.5,0-1.1,0c-0.6,0-1,0-1.2,0c-0.4,0-0.8,0-1.1,0c-0.4,0-0.7,0.1-0.9,0.1c-0.1,0-0.1,0-0.2-0.1c-0.1,0-0.1-0.1-0.1-0.2
		c0-0.1,0-0.1,0-0.2c0,0,0-0.1,0.1-0.1c1.7-0.8,3.1-1.6,4.2-2.5c1.1-0.9,1.7-1.7,1.7-2.4c0-0.2-0.1-0.4-0.2-0.5
		c-0.1-0.1-0.3-0.2-0.5-0.2c-0.7,0-1.3,0.2-1.9,0.5c-0.5,0.3-0.8,0.6-0.8,0.9c0,0.2,0,0.3,0.1,0.3c0.1,0.1,0.2,0.1,0.4,0.1
		c0.2,0,0.5-0.1,0.8-0.2c0.3-0.1,0.5-0.3,0.8-0.5c0,0,0.1,0,0.1,0c0,0,0,0,0.1,0c0,0,0.1,0,0.1,0.1c0,0,0,0.1,0,0.2v0
		c-0.4,0.3-0.8,0.6-1.2,0.8c-0.4,0.2-0.8,0.3-1.1,0.3c-0.2,0-0.5-0.1-0.6-0.2s-0.2-0.3-0.2-0.5c0-0.5,0.5-1.1,1.5-1.7
		c1-0.6,1.8-0.9,2.5-0.9c0.4,0,0.8,0.1,1,0.4C225.5,71.1,225.7,71.4,225.7,71.8z"/>
	<path fill="#C7AE21" d="M233.2,71.7c0,0.3-0.2,0.7-0.6,1.1c-0.4,0.4-0.8,0.7-1.4,1c0.5,0.1,0.9,0.4,1.1,0.6
		c0.2,0.3,0.4,0.7,0.4,1.2c0,1.1-0.7,2.1-2,3c-1.3,0.9-2.7,1.4-4.3,1.4c-0.5,0-0.8-0.1-1.1-0.2c-0.3-0.2-0.4-0.4-0.4-0.7
		c0-0.7,0.4-1.3,1.2-1.8c0.8-0.5,1.7-0.8,2.8-0.8h0.2c0.1,0,0.1,0,0.1,0.1c0,0,0,0.1,0,0.1c0,0.1,0,0.1,0,0.2c0,0-0.1,0.1-0.1,0.1
		c-0.7,0.1-1.5,0.3-2.4,0.8c-0.9,0.5-1.3,0.9-1.3,1.2c0,0.1,0.1,0.2,0.2,0.3c0.1,0.1,0.2,0.1,0.4,0.1c1.1,0,2.4-0.5,3.8-1.4
		c1.4-0.9,2.1-1.8,2.1-2.6c0-0.4-0.1-0.7-0.3-0.9c-0.2-0.2-0.5-0.3-0.8-0.3c-0.1,0-0.3,0-0.5,0.1c-0.2,0-0.3,0.1-0.4,0.1
		c-0.1,0-0.1,0-0.2-0.1c0,0-0.1-0.1-0.1-0.1c0,0,0-0.1,0-0.1c0,0,0.1-0.1,0.1-0.1c0.7-0.3,1.3-0.6,1.7-1c0.4-0.4,0.6-0.8,0.6-1.2
		c0-0.2-0.1-0.4-0.2-0.5c-0.1-0.1-0.3-0.2-0.5-0.2c-0.4,0-0.7,0.1-0.9,0.4c-0.3,0.3-0.4,0.6-0.4,1c0,0.1,0,0.1-0.1,0.1
		c-0.1,0-0.1,0.1-0.2,0.1c-0.1,0-0.2,0-0.3-0.1c-0.1,0-0.1-0.1-0.1-0.2c0-0.5,0.3-0.9,0.8-1.3c0.5-0.4,1.1-0.6,1.6-0.6
		c0.5,0,0.8,0.1,1.1,0.3C233.1,71.1,233.2,71.4,233.2,71.7z"/>
	<path fill="#C7AE21" d="M266.5,79.6c0,0,0,0.1-0.1,0.1c0,0-0.1,0.1-0.1,0.1l0,0c-0.4,0-0.7,0-0.8,0c-1.3,0-2.3-0.2-2.9-0.7
		c-0.6-0.5-0.9-1.2-0.9-2.3c0-0.4,0.1-1.2,0.3-2.2c0.2-1,0.3-1.8,0.3-2.2c0-0.3-0.1-0.5-0.3-0.7c-0.2-0.2-0.4-0.3-0.6-0.3
		c-0.4,0-1.2,0.4-2.3,1.2c-1.1,0.8-2.5,1.9-4.1,3.2c-0.1,0.1-0.1,0.1-0.2,0.1c-0.1,0-0.1,0.1-0.2,0.1c0,0,0,0-0.1,0c0,0,0,0-0.1,0
		c-0.1,0-0.1,0-0.2-0.1c0-0.1-0.1-0.1-0.1-0.2c0,0,0-0.1,0-0.1c0,0,0,0,0-0.1c0.7-0.8,1.4-1.8,2.3-3.1c0.8-1.3,1.3-2.3,1.5-3
		c0-0.1-0.1-0.1-0.1-0.2c-0.1-0.1-0.1-0.1-0.2-0.2c-0.5,0-1.5,0.4-2.9,1.2c-1.5,0.8-2.6,1.5-3.4,2.2c-1,1.3-2,2.5-3.2,3.6
		c-1.2,1.1-2.2,1.8-3.1,2.2c-0.1,0-0.1-0.1-0.1-0.2c0-0.1-0.1-0.1-0.1-0.2c0-0.4,0.6-1.2,1.8-2.4c1.2-1.2,2.5-2.2,3.8-3.2
		c0.6-0.7,1.1-1.6,1.8-2.8c0.6-1.2,0.9-2.1,0.9-2.7c-0.1-0.3-0.3-0.6-0.4-0.8c-0.2-0.2-0.4-0.4-0.6-0.5c-1.6,0-3.3,0.6-5.1,1.8
		c-1.8,1.2-2.6,2.4-2.6,3.5c0,0.1,0,0.1,0.1,0.2c0.1,0.1,0.2,0.2,0.3,0.3c0.6,0,1.5-0.3,2.6-0.8c1.1-0.5,2.1-1.2,3.1-2
		c0.1,0,0.1,0,0.2,0.1c0,0,0.1,0.1,0.1,0.1c0,0,0,0.1,0,0.1c0,0,0,0,0,0.1c-1.3,1.2-2.5,2.1-3.5,2.8c-1.1,0.7-2,1-2.6,1
		c-0.3,0-0.6-0.1-0.8-0.3c-0.2-0.2-0.3-0.5-0.3-0.9c0-0.6,0.3-1.3,0.8-2c0.6-0.7,1.4-1.4,2.4-2.1c1.5-1,2.7-1.7,3.6-2.1
		c0.9-0.3,1.8-0.5,2.7-0.5c0.5,0,0.8,0.2,1.2,0.5c0.3,0.3,0.5,0.7,0.5,1c0,0.3-0.1,0.8-0.3,1.4c-0.2,0.6-0.6,1.4-1.1,2.3l-0.6,1.1
		c0.3-0.1,0.8-0.4,1.6-0.9c2.9-1.5,4.6-2.3,5.1-2.3c0.2,0,0.3,0.1,0.5,0.2c0.1,0.2,0.2,0.4,0.2,0.6c-0.2,0.5-0.5,1.1-1,1.9
		c-0.5,0.7-1.1,1.6-2,2.6l0,0c0.9-0.6,1.7-1.1,2.3-1.5c0.6-0.4,1.1-0.7,1.4-0.9c0.4-0.3,0.7-0.5,1-0.6c0.3-0.1,0.6-0.1,1-0.1
		c0.4,0.2,0.6,0.4,0.7,0.6c0.1,0.2,0.2,0.5,0.2,1c0,0.4-0.1,1.2-0.4,2.6c-0.2,1.3-0.4,2.3-0.4,2.8c0,0.7,0.3,1.2,0.9,1.6
		c0.6,0.4,1.3,0.6,2.3,0.6c0.1,0,0.2,0,0.3,0c0.1,0,0.1,0,0.2,0c0.1,0,0.1,0,0.2,0.1C266.5,79.5,266.5,79.5,266.5,79.6z M249.9,73.6
		c-0.3,0.1-0.9,0.6-2,1.6c-1,1-1.7,1.6-1.9,2l0,0.2c0.5-0.4,1.2-0.9,1.9-1.6c0.7-0.7,1.4-1.4,1.9-2L249.9,73.6z"/>
	<path fill="#C7AE21" d="M280.6,75.1C280.6,75.1,280.6,75.1,280.6,75.1c0,0.1,0,0.1-0.1,0.1c-1,0.6-1.9,1-2.7,1.3
		c-0.8,0.3-1.5,0.4-2.2,0.4c-0.3,0-0.6-0.1-1.1-0.2c-0.1,0-0.1,0-0.1,0c-0.3-0.2-0.5-0.4-0.8-0.7c-0.2-0.3-0.4-0.7-0.5-1.1
		c-0.3,0.2-0.7,0.4-1.1,0.7c-0.2,0.1-0.3,0.2-0.4,0.3c-0.9,0.6-1.6,1-2,1.2c-0.4,0.2-0.7,0.3-1,0.3c-0.6,0-1-0.2-1.3-0.5
		c-0.3-0.3-0.5-0.8-0.5-1.4c0-0.4,0.1-0.7,0.2-1.1c0.1-0.4,0.3-0.7,0.5-1c0,0,0,0,0,0c0,0,0.1,0,0.1,0c0.1,0,0.3,0,0.4,0.1
		c0.1,0.1,0.2,0.2,0.2,0.3c-0.1,0.2-0.2,0.4-0.3,0.7c-0.1,0.2-0.1,0.5-0.1,0.7c0,0.4,0.1,0.8,0.3,1c0.2,0.2,0.4,0.3,0.8,0.3
		c0.7,0,1.5-0.3,2.4-0.9c0.9-0.6,1.8-1.5,2.8-2.7c0.1,0,0.1,0,0.2,0.1c0.1,0,0.1,0.1,0.2,0.2c0,0,0,0,0,0.1c0,0,0,0,0,0
		c0,0,0,0.1,0,0.2c0,0.1,0,0.1-0.1,0.2c-0.1,0.1-0.1,0.3-0.1,0.4c0,0.1,0,0.3,0,0.4c0,0.5,0.1,1,0.4,1.3c0.3,0.3,0.7,0.5,1.2,0.5
		c0.6,0,1.3-0.1,2.1-0.4c0.8-0.2,1.5-0.6,2.2-1c0,0,0,0,0.1,0c0,0,0,0,0.1,0c0,0,0.1,0,0.1,0.1C280.6,75,280.6,75,280.6,75.1z"/>
	<path fill="#C7AE21" d="M297.5,75.1C297.5,75.1,297.5,75.1,297.5,75.1c0,0.1,0,0.1-0.1,0.1c-1.1,0.7-2.1,1.1-2.7,1.4
		c-0.7,0.3-1.2,0.4-1.6,0.4c-0.3,0-0.6-0.2-0.9-0.5c-0.3-0.3-0.5-0.8-0.8-1.5c0-0.1-0.1-0.2-0.2-0.4c-0.1-0.3-0.2-0.5-0.2-0.5
		c-0.5,0.1-1,0.3-1.5,0.6c-0.5,0.3-1.1,0.6-1.7,1c-0.2,0.1-0.5,0.4-0.8,0.7c-0.4,0.3-0.6,0.5-0.7,0.5c-0.3,0-0.5-0.1-0.6-0.2
		c-0.1-0.1-0.2-0.3-0.2-0.6c0-0.1,0-0.3,0.1-0.6c0.1-0.3,0.2-0.8,0.5-1.5c0-0.1-0.1-0.2-0.2-0.3c-0.2-0.1-0.3-0.2-0.4-0.2
		c-0.4,0-1.1,0.4-2.3,1.1c-1.1,0.7-2.3,1.6-3.5,2.6c-0.2,0-0.3,0-0.4-0.1c-0.1-0.1-0.2-0.3-0.2-0.5c0.5-0.7,0.8-1.3,1.1-2
		c0.3-0.6,0.6-1.4,0.8-2.1c0.1,0,0.3,0,0.4,0.1c0.1,0.1,0.2,0.1,0.3,0.3v0.5c0,0.1-0.1,0.4-0.2,0.7c0,0.1-0.1,0.1-0.1,0.2
		c-0.1,0.2-0.1,0.4-0.2,0.6c0,0.2-0.1,0.4-0.1,0.6c0.3-0.2,1.1-0.7,2.6-1.6c1.4-0.9,2.2-1.4,2.4-1.4c0.3,0.1,0.5,0.2,0.6,0.3
		c0.1,0.1,0.2,0.3,0.2,0.5c0,0.1,0,0.2,0,0.4c0,0.1-0.1,0.4-0.1,0.6c0,0,0,0.1,0,0.1c-0.1,0.4-0.1,0.7-0.1,1c0,0.1,0,0.2,0,0.3
		c0,0.1,0,0.2,0,0.3c0.2-0.1,0.5-0.3,0.8-0.5c0.3-0.2,0.7-0.4,1.1-0.7c0.2-0.1,0.4-0.2,0.7-0.4c1.2-0.8,1.8-1.1,1.9-1.1
		c0.3,0,0.6,0.1,0.7,0.2c0.2,0.1,0.3,0.4,0.4,0.7c0.2,1,0.4,1.5,0.6,1.8c0.2,0.2,0.5,0.4,1,0.4c0.3,0,0.8-0.1,1.6-0.4
		c0.8-0.3,1.4-0.6,1.8-0.8c0,0,0,0,0.1,0c0,0,0,0,0.1,0c0,0,0.1,0,0.1,0.1C297.5,75,297.5,75,297.5,75.1z"/>
	<path fill="#C7AE21" d="M307.4,75.1C307.4,75.1,307.4,75.1,307.4,75.1c0,0.1,0,0.1-0.1,0.1c-0.3,0.1-0.6,0.2-0.9,0.3
		s-0.6,0.1-0.8,0.1c-0.5,0-1-0.1-1.4-0.3c-0.5-0.2-0.9-0.5-1.3-0.9c-0.1,0.1-0.2,0.2-0.3,0.3c-0.3,0.2-0.5,0.5-0.7,0.6
		c-0.7,0.6-1.2,1-1.8,1.2s-1,0.4-1.5,0.4c-0.6,0-1-0.2-1.3-0.5c-0.3-0.3-0.4-0.7-0.4-1.2c0-0.6,0.1-1.2,0.3-1.8
		c0.2-0.7,0.5-1.3,0.9-2c0.9-1.4,2.1-2.8,3.5-3.9c1.5-1.2,2.7-1.8,3.7-1.8c0.3,0,0.5,0.1,0.7,0.3c0.2,0.2,0.3,0.4,0.3,0.8
		c-0.5,1.3-1.5,2.5-3,3.8c-1.4,1.2-3.1,2.2-5,3c-0.1,0.2-0.2,0.5-0.3,0.8c-0.1,0.3-0.1,0.6-0.1,1c0.1,0.2,0.2,0.4,0.3,0.6
		s0.3,0.2,0.5,0.2c0.8,0,1.6-0.2,2.2-0.6c0.7-0.4,1.2-0.9,1.4-1.6c-0.1,0-0.1-0.1-0.1-0.1c0-0.1-0.1-0.1-0.1-0.2c0-0.1,0-0.2,0-0.2
		c0-0.1,0.1-0.1,0.1-0.2c0,0,0.1-0.1,0.2-0.1c0.1,0,0.2,0,0.3,0c0.1,0,0.2,0,0.2,0c0.1,0,0.1,0,0.1,0.1c0.2,0.6,0.5,1.1,1,1.4
		c0.5,0.4,1,0.5,1.6,0.5c0.3,0,0.5,0,0.8,0c0.2,0,0.4-0.1,0.6-0.2c0,0,0,0,0,0c0,0,0,0,0.1,0c0,0,0.1,0,0.1,0.1
		C307.4,75,307.4,75,307.4,75.1z M305.3,67c0-0.1-0.1-0.1-0.1-0.2c0-0.1-0.1-0.1-0.1-0.2c-0.2,0-0.5,0.1-0.8,0.2
		c-0.3,0.1-0.7,0.3-1.1,0.6c-0.8,0.6-1.7,1.3-2.6,2.4c-0.9,1-1.6,1.9-2,2.7c2-0.7,3.5-1.6,4.8-2.7S305.3,67.8,305.3,67z"/>
	<path fill="#C7AE21" d="M317.4,75.1C317.4,75.1,317.4,75.1,317.4,75.1c0,0.1,0,0.1-0.1,0.1c-0.5,0.3-1.1,0.6-1.8,0.8
		c-0.7,0.2-1.2,0.3-1.7,0.3c-0.5,0-0.9-0.1-1.3-0.2c-0.4-0.1-0.8-0.3-1.1-0.6c-0.9,0.6-1.6,1.1-2.3,1.4c-0.7,0.3-1.3,0.5-1.8,0.5
		c-0.3,0-0.5-0.1-0.7-0.2c-0.2-0.1-0.3-0.4-0.3-0.6c0-0.9,0.7-1.8,2-2.8c1.3-1,2.6-1.6,3.8-1.8c0.1,0,0.3,0.1,0.5,0.3
		c0.2,0.2,0.3,0.3,0.4,0.4c0,0.1,0,0.3-0.1,0.4c-0.1,0.1-0.2,0.2-0.3,0.3c-0.1,0-0.1,0-0.3-0.1c-0.1-0.1-0.2-0.2-0.3-0.2
		c0,0,0,0-0.1,0c0,0-0.1,0-0.1,0c-0.7,0-1.6,0.4-2.7,1.3c-1.1,0.8-1.6,1.4-1.6,1.8c0,0.1,0,0.2,0.1,0.4c0.1,0.1,0.2,0.2,0.4,0.2
		c0.9-0.1,1.7-0.5,2.4-1c0.8-0.5,1.4-1.1,1.9-1.9h0c0.1,0,0.3,0,0.5,0.1c0.2,0.1,0.3,0.2,0.4,0.2l-0.8,1c0.2,0.1,0.5,0.2,0.7,0.3
		c0.3,0.1,0.5,0.1,0.8,0.1c0.6,0,1.1-0.1,1.6-0.2c0.5-0.1,1-0.3,1.5-0.5c0,0,0,0,0,0c0,0,0,0,0.1,0c0,0,0.1,0,0.1,0.1
		C317.4,75,317.4,75,317.4,75.1z"/>
	<path fill="#C7AE21" d="M323.2,75.1C323.2,75.1,323.2,75.1,323.2,75.1c0,0.1,0,0.1-0.1,0.1c-0.7,0.4-1.5,0.8-2.4,1.1
		c-0.9,0.3-1.7,0.5-2.3,0.5c-0.5,0-0.9-0.1-1.2-0.3c-0.3-0.2-0.4-0.5-0.4-0.9c0-0.2,0-0.3,0.1-0.5c0.1-0.2,0.1-0.4,0.3-0.6l1-1.8
		c0-0.1,0.1-0.2,0.1-0.2c0.1-0.1,0.2-0.1,0.3-0.1c0.1,0.1,0.2,0.1,0.3,0.2c0.1,0.1,0.1,0.2,0.2,0.3c-0.3,0.5-0.6,1-0.8,1.4
		c-0.2,0.4-0.3,0.7-0.4,0.7v0c0,0.1,0,0.3,0.1,0.5c0.1,0.2,0.1,0.3,0.2,0.4c0.2,0.1,0.3,0.1,0.4,0.1c0.1,0,0.2,0,0.3,0
		c0.5,0,1.2-0.1,2-0.3c0.8-0.2,1.4-0.5,1.9-0.8c0,0,0,0,0.1,0c0,0,0,0,0.1,0c0,0,0.1,0,0.1,0.1C323.2,75,323.2,75,323.2,75.1z
		 M321.4,68.7c-0.1,0.3-0.3,0.5-0.5,0.7c-0.2,0.2-0.5,0.3-0.7,0.3c-0.1-0.1-0.2-0.1-0.2-0.2c0-0.1-0.1-0.2-0.1-0.3
		c0-0.2,0.1-0.5,0.2-0.7c0.1-0.2,0.3-0.4,0.6-0.6h0.3c0.1,0,0.1,0.1,0.2,0.1c0,0.1,0.1,0.2,0.1,0.3c0,0,0,0.1,0,0.1
		C321.3,68.5,321.3,68.6,321.4,68.7z"/>
	<path fill="#C7AE21" d="M330.4,71.6h0.5V74h2.4v0.5H331v2.4h-0.5v-2.4h-2.4V74h2.4V71.6z"/>
	<path fill="#C7AE21" d="M344.3,72.5c0,0.8-0.4,1.7-1.2,2.7c-0.8,1-1.9,2.1-3.4,3.2c-0.1,0.1-0.3,0.2-0.5,0.4
		c-0.9,0.7-1.5,1.1-1.8,1.3c-0.1,0-0.2,0-0.2-0.1c-0.1-0.1-0.1-0.1-0.1-0.2c0,0,0-0.1,0-0.1c0,0,0,0,0-0.1c1.8-1,3.2-2.2,4.3-3.6
		c1.1-1.4,1.7-2.7,1.7-3.7c-0.1-0.3-0.2-0.6-0.4-0.7c-0.2-0.2-0.4-0.3-0.7-0.4c-0.6,0-1.2,0.2-1.9,0.7c-0.6,0.5-0.9,1.1-0.9,1.7
		c0,0.2,0.1,0.3,0.2,0.5c0.1,0.1,0.3,0.2,0.4,0.2l0.8-0.2c0.2-0.1,0.4-0.2,0.6-0.3c0.2-0.1,0.4-0.3,0.6-0.5c0,0,0,0,0,0
		c0,0,0,0,0.1,0c0.1,0,0.1,0,0.1,0.1c0,0,0,0.1,0,0.2c-0.7,0.7-1.3,1.1-1.7,1.4c-0.5,0.3-0.9,0.4-1.2,0.4c-0.3,0-0.6-0.1-0.7-0.3
		c-0.2-0.2-0.2-0.5-0.2-0.9c0-0.7,0.5-1.5,1.4-2.3c0.9-0.9,1.8-1.3,2.6-1.3c0.7,0,1.2,0.2,1.6,0.5C344.2,71.4,344.3,71.9,344.3,72.5
		z"/>
	<path fill="#C7AE21" d="M350.6,70.7c-0.2,0.4-0.5,1.1-1,2.3c-0.5,1.2-1,2.5-1.6,4c-0.1,0-0.2,0.1-0.4,0.1c-0.1,0-0.3,0-0.4,0
		c-0.2,0-0.3,0-0.5-0.1c-0.2-0.1-0.2-0.1-0.2-0.2c0.4-0.8,0.9-1.6,1.3-2.5c0.5-0.9,0.9-1.7,1.2-2.4c-0.2,0.1-0.6,0.3-1.2,0.6
		c-0.6,0.3-1,0.5-1.2,0.6c-0.1,0-0.2,0-0.2-0.1c-0.1-0.1-0.1-0.1-0.1-0.2c0-0.1,0-0.1,0-0.2c0-0.1,0.1-0.1,0.1-0.1
		c0.6-0.2,1.3-0.4,2-0.8c0.7-0.4,1.3-0.8,1.7-1.2c0-0.1,0.1-0.1,0.1-0.1c0,0,0.1,0,0.2,0c0.1,0,0.1,0,0.2,0.1
		C350.6,70.6,350.6,70.7,350.6,70.7z"/>
	<path fill="#C7AE21" d="M363.3,71.8c0,0.5-0.2,0.9-0.5,1.3c-0.3,0.4-0.9,0.8-1.5,1.2l-0.5,0.3c-1,0.6-1.8,1.1-2.2,1.4
		c0.4,0.1,0.9,0.2,1.5,0.3c0.6,0.1,1.1,0.1,1.5,0.1c0.3,0,0.6,0,0.8-0.1c0.2,0,0.4-0.1,0.6-0.2c0,0,0,0,0,0c0,0,0,0,0,0
		c0,0,0.1,0,0.1,0.1c0,0,0,0.1,0,0.1c0,0,0,0.1,0,0.1c0,0,0,0-0.1,0.1c-0.2,0.1-0.5,0.2-1.1,0.4c-0.5,0.1-1,0.2-1.3,0.2
		c-0.1,0-0.5,0-1.1,0c-0.6,0-1,0-1.2,0c-0.4,0-0.8,0-1.1,0c-0.4,0-0.7,0.1-0.9,0.1c-0.1,0-0.1,0-0.2-0.1c-0.1,0-0.1-0.1-0.1-0.2
		c0-0.1,0-0.1,0-0.2c0,0,0-0.1,0.1-0.1c1.7-0.8,3.1-1.6,4.2-2.5c1.1-0.9,1.7-1.7,1.7-2.4c0-0.2-0.1-0.4-0.2-0.5
		c-0.1-0.1-0.3-0.2-0.5-0.2c-0.7,0-1.3,0.2-1.9,0.5c-0.5,0.3-0.8,0.6-0.8,0.9c0,0.2,0,0.3,0.1,0.3c0.1,0.1,0.2,0.1,0.4,0.1
		c0.2,0,0.5-0.1,0.8-0.2c0.3-0.1,0.5-0.3,0.8-0.5c0,0,0.1,0,0.1,0c0,0,0,0,0.1,0c0,0,0.1,0,0.1,0.1c0,0,0,0.1,0,0.2v0
		c-0.4,0.3-0.8,0.6-1.2,0.8c-0.4,0.2-0.8,0.3-1.1,0.3c-0.2,0-0.5-0.1-0.6-0.2c-0.2-0.1-0.2-0.3-0.2-0.5c0-0.5,0.5-1.1,1.5-1.7
		c1-0.6,1.8-0.9,2.5-0.9c0.4,0,0.8,0.1,1,0.4C363.1,71.1,363.3,71.4,363.3,71.8z"/>
	<path fill="#C7AE21" d="M371.6,71.8c0,0.5-0.2,0.9-0.5,1.3c-0.3,0.4-0.9,0.8-1.5,1.2l-0.5,0.3c-1,0.6-1.8,1.1-2.2,1.4
		c0.4,0.1,0.9,0.2,1.5,0.3c0.6,0.1,1.1,0.1,1.5,0.1c0.3,0,0.6,0,0.8-0.1c0.2,0,0.4-0.1,0.6-0.2c0,0,0,0,0,0c0,0,0,0,0,0
		c0,0,0.1,0,0.1,0.1c0,0,0.1,0.1,0.1,0.1c0,0,0,0.1,0,0.1c0,0,0,0-0.1,0.1c-0.2,0.1-0.5,0.2-1.1,0.4c-0.5,0.1-1,0.2-1.3,0.2
		c-0.1,0-0.5,0-1.1,0c-0.6,0-1,0-1.2,0c-0.4,0-0.8,0-1.1,0c-0.4,0-0.7,0.1-0.9,0.1c-0.1,0-0.1,0-0.2-0.1c-0.1,0-0.1-0.1-0.1-0.2
		c0-0.1,0-0.1,0-0.2c0,0,0-0.1,0.1-0.1c1.7-0.8,3.1-1.6,4.2-2.5c1.1-0.9,1.7-1.7,1.7-2.4c0-0.2-0.1-0.4-0.2-0.5
		c-0.1-0.1-0.3-0.2-0.5-0.2c-0.7,0-1.3,0.2-1.9,0.5c-0.5,0.3-0.8,0.6-0.8,0.9c0,0.2,0,0.3,0.1,0.3c0.1,0.1,0.2,0.1,0.4,0.1
		c0.2,0,0.5-0.1,0.8-0.2c0.3-0.1,0.5-0.3,0.8-0.5c0,0,0.1,0,0.1,0c0,0,0,0,0.1,0c0,0,0.1,0,0.1,0.1c0,0,0,0.1,0,0.2v0
		c-0.4,0.3-0.8,0.6-1.2,0.8c-0.4,0.2-0.8,0.3-1.1,0.3c-0.2,0-0.5-0.1-0.6-0.2c-0.2-0.1-0.2-0.3-0.2-0.5c0-0.5,0.5-1.1,1.5-1.7
		c1-0.6,1.8-0.9,2.5-0.9c0.4,0,0.8,0.1,1,0.4C371.5,71.1,371.6,71.4,371.6,71.8z"/>
	<path fill="#C7AE21" d="M380.7,68.3c-1.7,0.8-3.2,1.9-4.3,3.2c-1.1,1.4-1.7,2.5-1.7,3.6c0,0.4,0.1,0.8,0.4,1c0.3,0.2,0.6,0.4,1,0.4
		l0.7-0.2c0.4-0.1,0.8-0.4,1.1-0.7c0.3-0.3,0.6-0.7,0.7-1c0-0.2-0.1-0.3-0.2-0.4c-0.1-0.1-0.2-0.2-0.2-0.2c-0.4,0-0.8,0.1-1.2,0.3
		c-0.4,0.2-0.9,0.5-1.3,0.9c-0.1,0-0.1,0-0.2,0c0,0-0.1-0.1-0.1-0.1c0,0,0-0.1,0-0.1c0,0,0-0.1,0-0.1c0.4-0.5,0.9-0.9,1.5-1.3
		c0.5-0.3,1-0.5,1.4-0.5c0.3,0,0.6,0.1,0.7,0.2c0.2,0.2,0.3,0.4,0.3,0.6c0,0.2-0.1,0.5-0.3,0.8c-0.2,0.3-0.4,0.6-0.8,1
		c-0.4,0.5-0.9,0.8-1.3,1c-0.4,0.2-0.9,0.3-1.3,0.3c-0.7,0-1.3-0.2-1.6-0.5c-0.4-0.3-0.5-0.8-0.5-1.4c0-1.2,0.7-2.5,2.1-3.9
		c1.4-1.4,3-2.6,4.9-3.4c0.1,0,0.1,0,0.2,0.1C380.7,68.1,380.7,68.2,380.7,68.3z"/>
	<path fill="#C7AE21" d="M388.6,68.3c-1.7,0.8-3.2,1.9-4.3,3.2c-1.1,1.4-1.7,2.5-1.7,3.6c0,0.4,0.1,0.8,0.4,1c0.3,0.2,0.6,0.4,1,0.4
		l0.7-0.2c0.4-0.1,0.8-0.4,1.1-0.7c0.3-0.3,0.6-0.7,0.7-1c0-0.2-0.1-0.3-0.2-0.4c-0.1-0.1-0.2-0.2-0.2-0.2c-0.4,0-0.8,0.1-1.2,0.3
		c-0.4,0.2-0.9,0.5-1.3,0.9c-0.1,0-0.1,0-0.2,0c0,0-0.1-0.1-0.1-0.1c0,0,0-0.1,0-0.1c0,0,0-0.1,0-0.1c0.4-0.5,0.9-0.9,1.5-1.3
		c0.5-0.3,1-0.5,1.4-0.5c0.3,0,0.6,0.1,0.7,0.2c0.2,0.2,0.3,0.4,0.3,0.6c0,0.2-0.1,0.5-0.3,0.8c-0.2,0.3-0.4,0.6-0.8,1
		c-0.4,0.5-0.9,0.8-1.3,1c-0.4,0.2-0.9,0.3-1.3,0.3c-0.7,0-1.3-0.2-1.6-0.5c-0.4-0.3-0.5-0.8-0.5-1.4c0-1.2,0.7-2.5,2.1-3.9
		c1.4-1.4,3-2.6,4.9-3.4c0.1,0,0.1,0,0.2,0.1C388.6,68.1,388.6,68.2,388.6,68.3z"/>
	<path fill="#C7AE21" d="M395,71.7c0,0.3-0.2,0.7-0.6,1.1c-0.4,0.4-0.8,0.7-1.4,1c0.5,0.1,0.9,0.4,1.1,0.6c0.2,0.3,0.4,0.7,0.4,1.2
		c0,1.1-0.7,2.1-2,3c-1.3,0.9-2.7,1.4-4.3,1.4c-0.5,0-0.8-0.1-1.1-0.2c-0.3-0.2-0.4-0.4-0.4-0.7c0-0.7,0.4-1.3,1.2-1.8
		c0.8-0.5,1.7-0.8,2.8-0.8h0.2c0.1,0,0.1,0,0.1,0.1c0,0,0.1,0.1,0.1,0.1c0,0.1,0,0.1,0,0.2c0,0-0.1,0.1-0.1,0.1
		c-0.7,0.1-1.5,0.3-2.4,0.8c-0.9,0.5-1.3,0.9-1.3,1.2c0,0.1,0.1,0.2,0.2,0.3c0.1,0.1,0.2,0.1,0.4,0.1c1.1,0,2.4-0.5,3.8-1.4
		c1.4-0.9,2.1-1.8,2.1-2.6c0-0.4-0.1-0.7-0.3-0.9c-0.2-0.2-0.5-0.3-0.8-0.3c-0.1,0-0.3,0-0.5,0.1c-0.2,0-0.3,0.1-0.4,0.1
		c-0.1,0-0.1,0-0.2-0.1c0,0-0.1-0.1-0.1-0.1c0,0,0-0.1,0-0.1c0,0,0.1-0.1,0.1-0.1c0.7-0.3,1.3-0.6,1.7-1c0.4-0.4,0.6-0.8,0.6-1.2
		c0-0.2-0.1-0.4-0.2-0.5c-0.1-0.1-0.3-0.2-0.5-0.2c-0.4,0-0.7,0.1-0.9,0.4c-0.3,0.3-0.4,0.6-0.4,1c0,0.1,0,0.1-0.1,0.1
		c-0.1,0-0.1,0.1-0.2,0.1c-0.1,0-0.2,0-0.3-0.1c-0.1,0-0.1-0.1-0.1-0.2c0-0.5,0.3-0.9,0.8-1.3c0.5-0.4,1.1-0.6,1.6-0.6
		c0.5,0,0.8,0.1,1.1,0.3C394.9,71.1,395,71.4,395,71.7z"/>
	<path fill="#C7AE21" d="M403.8,71C403.8,71,403.8,71.1,403.8,71c0,0.1,0,0.1,0,0.1c-1.7,1.3-3.1,2.6-4.2,3.9
		c-1.1,1.4-1.7,2.5-1.7,3.4c0,0.2,0.1,0.4,0.1,0.5c0.1,0.1,0.2,0.2,0.3,0.3c0.2,0,0.4-0.2,0.6-0.5c0.2-0.4,0.4-0.8,0.4-1.3l0-0.6
		c0-0.1,0-0.1,0.1-0.2c0,0,0.1-0.1,0.2-0.1c0,0,0.1,0,0.1,0c0,0,0.1,0.1,0.1,0.1v1c0,0.5-0.2,1.1-0.7,1.6c-0.4,0.6-0.8,0.9-1.2,0.9
		c-0.3,0-0.5-0.1-0.7-0.3s-0.2-0.5-0.2-1c0-0.7,0.4-1.5,1.1-2.5c0.7-1,1.7-2.1,3.1-3.4c0.2-0.2,0.5-0.5,0.8-0.8l0.1-0.1
		c-0.4,0.1-0.9,0.2-1.6,0.3c-0.6,0.1-1.2,0.1-1.7,0.1l-1-0.2c-0.1,0-0.1-0.1-0.1-0.2c0-0.1,0-0.2,0-0.3c0-0.2,0-0.3,0.1-0.4
		c0.1-0.1,0.1-0.2,0.2-0.2c0.3,0,0.6,0.1,1,0.1c0.4,0,0.7,0,1.1,0c0.8,0,1.5,0,2.2-0.1c0.7-0.1,1.1-0.2,1.4-0.3c0,0,0,0,0.1,0
		c0,0,0,0,0,0c0.1,0,0.1,0,0.1,0.1C403.7,70.9,403.8,71,403.8,71z"/>
	<path fill="#C7AE21" d="M409.8,70.8C409.8,70.8,409.7,70.9,409.8,70.8c0,0.1,0,0.1,0,0.1c-0.3,0.1-0.6,0.2-1,0.3
		c-0.4,0.1-0.8,0.1-1.2,0.2c-0.2,0.3-0.3,0.5-0.5,0.8c-0.1,0.3-0.3,0.5-0.3,0.7c0.2,0.1,0.4,0.2,0.7,0.3c0.3,0.1,0.4,0.2,0.5,0.2
		c0.3,0.2,0.5,0.4,0.7,0.8c0.2,0.3,0.2,0.7,0.2,1.1c0,1.3-0.6,2.4-1.9,3.3c-1.3,1-2.8,1.4-4.5,1.4c-0.4-0.1-0.7-0.2-0.8-0.3
		c-0.2-0.1-0.3-0.3-0.3-0.6c0-0.6,0.4-1.1,1.2-1.7c0.8-0.6,1.7-0.8,2.7-0.8h0.2c0.1,0,0.1,0,0.2,0.1c0,0,0.1,0.1,0.1,0.2
		c0,0.1,0,0.1,0,0.1c0,0-0.1,0-0.1,0c-0.7,0.1-1.6,0.3-2.4,0.8c-0.9,0.5-1.3,0.9-1.3,1.2c0.1,0.1,0.1,0.2,0.2,0.2
		c0.1,0.1,0.2,0.1,0.3,0.1c1.2,0,2.5-0.5,3.8-1.5c1.3-1,2-2,2-2.9c0-0.5-0.1-0.8-0.4-1.1c-0.3-0.3-0.6-0.4-1.1-0.4
		c-0.1,0-0.2,0-0.4,0c-0.2,0-0.3,0-0.5,0c-0.1,0-0.2,0-0.2-0.1c0-0.1-0.1-0.1-0.1-0.2l0.1-0.1c0.6-1.1,1-1.9,1.2-2.2l1,0.1
		c0.3,0,0.5-0.1,0.8-0.2c0.3-0.1,0.6-0.3,0.9-0.5c0,0,0,0,0,0c0,0,0,0,0,0c0.1,0,0.2,0.1,0.3,0.2C409.7,70.6,409.8,70.7,409.8,70.8z
		"/>
	<path fill="#C7AE21" d="M418.1,71C418.1,71,418.1,71.1,418.1,71c0,0.1,0,0.1,0,0.1c-1.7,1.3-3.1,2.6-4.2,3.9
		c-1.1,1.4-1.7,2.5-1.7,3.4c0,0.2,0.1,0.4,0.1,0.5c0.1,0.1,0.2,0.2,0.3,0.3c0.2,0,0.4-0.2,0.6-0.5c0.2-0.4,0.4-0.8,0.4-1.3l0-0.6
		c0-0.1,0-0.1,0.1-0.2c0,0,0.1-0.1,0.2-0.1c0,0,0.1,0,0.1,0c0,0,0.1,0.1,0.1,0.1v1c0,0.5-0.2,1.1-0.7,1.6c-0.4,0.6-0.8,0.9-1.2,0.9
		c-0.3,0-0.5-0.1-0.7-0.3s-0.2-0.5-0.2-1c0-0.7,0.4-1.5,1.1-2.5c0.7-1,1.7-2.1,3.1-3.4c0.2-0.2,0.5-0.5,0.8-0.8l0.1-0.1
		c-0.4,0.1-0.9,0.2-1.6,0.3c-0.6,0.1-1.2,0.1-1.7,0.1l-1-0.2c-0.1,0-0.1-0.1-0.1-0.2c0-0.1,0-0.2,0-0.3c0-0.2,0-0.3,0.1-0.4
		c0-0.1,0.1-0.2,0.2-0.2c0.3,0,0.6,0.1,1,0.1c0.4,0,0.7,0,1.1,0c0.8,0,1.5,0,2.2-0.1c0.7-0.1,1.1-0.2,1.4-0.3c0,0,0,0,0.1,0
		c0,0,0,0,0,0c0.1,0,0.1,0,0.1,0.1C418.1,70.9,418.1,71,418.1,71z"/>
	<path fill="#C7AE21" d="M425.5,68.3c-1.7,0.8-3.2,1.9-4.3,3.2c-1.1,1.4-1.7,2.5-1.7,3.6c0,0.4,0.1,0.8,0.4,1c0.3,0.2,0.6,0.4,1,0.4
		l0.7-0.2c0.4-0.1,0.8-0.4,1.1-0.7c0.3-0.3,0.6-0.7,0.7-1c0-0.2-0.1-0.3-0.2-0.4c-0.1-0.1-0.2-0.2-0.2-0.2c-0.4,0-0.8,0.1-1.2,0.3
		c-0.4,0.2-0.9,0.5-1.3,0.9c-0.1,0-0.1,0-0.2,0c0,0-0.1-0.1-0.1-0.1c0,0,0-0.1,0-0.1c0,0,0-0.1,0-0.1c0.4-0.5,0.9-0.9,1.5-1.3
		c0.5-0.3,1-0.5,1.4-0.5c0.3,0,0.6,0.1,0.7,0.2c0.2,0.2,0.3,0.4,0.3,0.6c0,0.2-0.1,0.5-0.3,0.8c-0.2,0.3-0.4,0.6-0.8,1
		c-0.4,0.5-0.9,0.8-1.3,1c-0.4,0.2-0.9,0.3-1.3,0.3c-0.7,0-1.3-0.2-1.6-0.5c-0.4-0.3-0.5-0.8-0.5-1.4c0-1.2,0.7-2.5,2.1-3.9
		c1.4-1.4,3-2.6,4.9-3.4c0.1,0,0.1,0,0.2,0.1C425.5,68.1,425.5,68.2,425.5,68.3z"/>
	<path fill="#C7AE21" d="M430.8,70.7c-0.2,0.4-0.5,1.1-1,2.3c-0.5,1.2-1,2.5-1.6,4c-0.1,0-0.2,0.1-0.4,0.1c-0.1,0-0.3,0-0.4,0
		c-0.2,0-0.3,0-0.5-0.1c-0.2-0.1-0.2-0.1-0.2-0.2c0.4-0.8,0.9-1.6,1.3-2.5c0.5-0.9,0.9-1.7,1.2-2.4c-0.2,0.1-0.6,0.3-1.2,0.6
		c-0.6,0.3-1,0.5-1.2,0.6c-0.1,0-0.2,0-0.2-0.1c-0.1-0.1-0.1-0.1-0.1-0.2c0-0.1,0-0.1,0-0.2c0-0.1,0.1-0.1,0.1-0.1
		c0.6-0.2,1.3-0.4,2-0.8c0.7-0.4,1.3-0.8,1.7-1.2c0-0.1,0.1-0.1,0.1-0.1s0.1,0,0.2,0c0.1,0,0.1,0,0.2,0.1
		C430.8,70.6,430.8,70.7,430.8,70.7z"/>
	<path fill="#C7AE21" d="M441.2,66.1c-1.1,1.4-2.6,3.4-4.3,5.8c-1.7,2.5-3.1,4.5-4.1,6.2c0,0-0.1,0-0.2,0c-0.1,0-0.2,0-0.3,0
		c-0.1,0-0.3,0-0.4-0.1c-0.1-0.1-0.2-0.2-0.2-0.2c1.5-1.9,3.1-4.1,4.9-6.5c1.8-2.4,3.1-4.3,3.8-5.5c0,0,0,0,0.1-0.1c0,0,0.1,0,0.1,0
		c0.1,0,0.2,0,0.4,0.1C441.1,65.9,441.2,66,441.2,66.1z"/>
	<path fill="#C7AE21" d="M445.2,71C445.2,71,445.2,71.1,445.2,71c0,0.1,0,0.1,0,0.1c-1.7,1.3-3.1,2.6-4.2,3.9
		c-1.1,1.4-1.7,2.5-1.7,3.4c0,0.2,0.1,0.4,0.1,0.5s0.2,0.2,0.3,0.3c0.2,0,0.4-0.2,0.6-0.5c0.2-0.4,0.4-0.8,0.4-1.3l0-0.6
		c0-0.1,0-0.1,0.1-0.2c0,0,0.1-0.1,0.2-0.1c0,0,0.1,0,0.1,0c0,0,0.1,0.1,0.1,0.1v1c0,0.5-0.2,1.1-0.7,1.6c-0.4,0.6-0.8,0.9-1.2,0.9
		c-0.3,0-0.5-0.1-0.7-0.3c-0.2-0.2-0.2-0.5-0.2-1c0-0.7,0.4-1.5,1.1-2.5c0.7-1,1.7-2.1,3.1-3.4c0.2-0.2,0.5-0.5,0.8-0.8l0.1-0.1
		c-0.4,0.1-0.9,0.2-1.6,0.3c-0.6,0.1-1.2,0.1-1.7,0.1l-1-0.2c-0.1,0-0.1-0.1-0.1-0.2c0-0.1,0-0.2,0-0.3c0-0.2,0-0.3,0.1-0.4
		c0-0.1,0.1-0.2,0.2-0.2c0.3,0,0.6,0.1,1,0.1c0.4,0,0.7,0,1.1,0c0.8,0,1.5,0,2.2-0.1c0.7-0.1,1.1-0.2,1.4-0.3c0,0,0,0,0.1,0
		c0,0,0,0,0,0c0.1,0,0.1,0,0.1,0.1C445.2,70.9,445.2,71,445.2,71z"/>
	<path fill="#C7AE21" d="M450,70.7c-0.2,0.4-0.5,1.1-1,2.3c-0.5,1.2-1,2.5-1.6,4c-0.1,0-0.2,0.1-0.4,0.1c-0.1,0-0.3,0-0.4,0
		c-0.2,0-0.3,0-0.5-0.1c-0.2-0.1-0.2-0.1-0.2-0.2c0.4-0.8,0.9-1.6,1.3-2.5c0.5-0.9,0.9-1.7,1.2-2.4c-0.2,0.1-0.6,0.3-1.2,0.6
		c-0.6,0.3-1,0.5-1.2,0.6c-0.1,0-0.2,0-0.2-0.1c-0.1-0.1-0.1-0.1-0.1-0.2c0-0.1,0-0.1,0-0.2c0-0.1,0.1-0.1,0.1-0.1
		c0.6-0.2,1.3-0.4,2-0.8c0.7-0.4,1.3-0.8,1.7-1.2c0-0.1,0.1-0.1,0.1-0.1c0,0,0.1,0,0.2,0c0.1,0,0.1,0,0.2,0.1
		C450,70.6,450,70.7,450,70.7z"/>
	<path fill="#C7AE21" d="M164.1,104C164.1,104,164.1,104,164.1,104c0,0.1,0,0.1-0.1,0.1c-0.5,0.3-1.1,0.6-1.8,0.8
		c-0.7,0.2-1.2,0.3-1.7,0.3c-0.5,0-0.9-0.1-1.3-0.2c-0.4-0.1-0.8-0.3-1.1-0.6c-0.9,0.6-1.6,1.1-2.3,1.4c-0.7,0.3-1.3,0.5-1.8,0.5
		c-0.3,0-0.5-0.1-0.7-0.2c-0.2-0.1-0.3-0.4-0.3-0.6c0-0.9,0.7-1.8,2-2.8c1.3-1,2.6-1.6,3.8-1.8c0.1,0,0.3,0.1,0.5,0.3
		c0.2,0.2,0.3,0.3,0.4,0.4c0,0.1,0,0.3-0.1,0.4c-0.1,0.1-0.2,0.2-0.3,0.3c-0.1,0-0.1,0-0.3-0.1c-0.1-0.1-0.2-0.2-0.3-0.2
		c0,0,0,0-0.1,0c0,0-0.1,0-0.1,0c-0.7,0-1.6,0.4-2.7,1.3s-1.6,1.4-1.6,1.8c0,0.1,0,0.2,0.1,0.4c0.1,0.1,0.2,0.2,0.4,0.2
		c0.9-0.1,1.7-0.5,2.4-1c0.8-0.5,1.4-1.1,1.9-1.9h0c0.1,0,0.3,0,0.5,0.1c0.2,0.1,0.3,0.2,0.4,0.2l-0.8,1c0.2,0.1,0.5,0.3,0.7,0.3
		c0.3,0.1,0.5,0.1,0.8,0.1c0.6,0,1.1-0.1,1.6-0.2c0.5-0.1,1-0.3,1.5-0.5c0,0,0,0,0,0c0,0,0,0,0.1,0c0,0,0.1,0,0.1,0.1
		C164.1,103.8,164.1,103.9,164.1,104z"/>
	<path fill="#C7AE21" d="M174.8,104C174.8,104,174.8,104,174.8,104c0,0.1,0,0.1-0.1,0.1c-0.6,0.3-1.3,0.5-2.1,0.7
		c-0.8,0.2-1.7,0.2-2.7,0.2c-0.1,0-0.2,0-0.3,0c-0.1,0-0.3,0-0.5,0c-0.4,0.1-0.8,0.2-1.4,0.3c-0.6,0.1-1,0.2-1.2,0.2
		c0,0-0.1,0-0.1,0c0,0,0-0.1,0-0.1c0-0.1,0-0.1,0.1-0.2c0,0,0.1-0.1,0.1-0.1c0.9-0.3,1.6-0.6,2.2-1c0.5-0.4,1-0.9,1.3-1.6
		c0-0.2-0.1-0.4-0.2-0.5c-0.1-0.1-0.3-0.2-0.5-0.2c-0.4,0-0.9,0.1-1.5,0.3c-0.6,0.2-1.1,0.5-1.4,0.7c-0.8,2.9-2.1,5.8-4.1,8.7
		c-2,2.9-3.7,4.3-5.2,4.3c-0.1,0-0.3-0.1-0.4-0.3c-0.1-0.2-0.2-0.4-0.2-0.6c0-1.5,1-3.6,2.9-6.4c1.9-2.8,4.1-4.9,6.5-6.3
		c0.1-0.2,0.1-0.3,0.2-0.4c0.1-0.1,0.2-0.2,0.3-0.3c0.1,0,0.2,0,0.3,0.1c0.1,0,0.2,0.1,0.2,0.2c0.4-0.2,1-0.4,1.6-0.5
		c0.6-0.2,1.1-0.3,1.2-0.3c0.4,0,0.8,0.1,1,0.3c0.3,0.2,0.4,0.5,0.4,0.8c0,0.4-0.1,0.8-0.4,1.2c-0.3,0.4-0.7,0.8-1.2,1.1
		c0.1,0,0.1,0,0.2,0c0.3,0,0.6,0.1,0.7,0.1c0.9,0,1.7-0.1,2.3-0.2c0.6-0.1,1.1-0.3,1.5-0.5c0,0,0,0,0.1,0c0,0,0,0,0.1,0
		c0,0,0.1,0,0.1,0.1C174.8,103.8,174.8,103.9,174.8,104z M165.3,103.8c-1.9,0.9-3.5,2.5-5.1,4.8c-1.5,2.3-2.3,4.1-2.3,5.5
		c0,0.1,0,0.2,0.1,0.2c0,0,0.1,0.1,0.2,0.1c0.7-0.1,1.8-1.1,3.3-3.1c1.5-2,2.6-4.1,3.5-6.2c0.1-0.3,0.2-0.5,0.2-0.7
		C165.2,104.1,165.2,103.9,165.3,103.8z"/>
	<path fill="#C7AE21" d="M185.5,104C185.5,104,185.5,104,185.5,104c0,0.1,0,0.1-0.1,0.1c-0.6,0.3-1.2,0.5-2.1,0.7
		c-0.8,0.2-1.7,0.2-2.7,0.2c-0.1,0-0.2,0-0.3,0c-0.1,0-0.3,0-0.5,0c-0.4,0.1-0.8,0.2-1.4,0.3c-0.6,0.1-1,0.2-1.2,0.2
		c0,0-0.1,0-0.1,0s0-0.1,0-0.1c0-0.1,0-0.1,0-0.2c0,0,0.1-0.1,0.1-0.1c0.9-0.3,1.6-0.6,2.2-1c0.5-0.4,1-0.9,1.3-1.6
		c0-0.2-0.1-0.4-0.2-0.5c-0.1-0.1-0.3-0.2-0.5-0.2c-0.4,0-0.9,0.1-1.5,0.3c-0.6,0.2-1.1,0.5-1.4,0.7c-0.7,2.9-2.1,5.8-4.1,8.7
		c-2,2.9-3.7,4.3-5.2,4.3c-0.1,0-0.3-0.1-0.4-0.3c-0.1-0.2-0.2-0.4-0.2-0.6c0-1.5,1-3.6,2.9-6.4c1.9-2.8,4.1-4.9,6.5-6.3
		c0.1-0.2,0.1-0.3,0.2-0.4c0.1-0.1,0.2-0.2,0.3-0.3c0.1,0,0.2,0,0.3,0.1c0.1,0,0.2,0.1,0.2,0.2c0.4-0.2,1-0.4,1.6-0.5
		c0.6-0.2,1.1-0.3,1.2-0.3c0.4,0,0.8,0.1,1.1,0.3c0.3,0.2,0.4,0.5,0.4,0.8c0,0.4-0.1,0.8-0.4,1.2c-0.3,0.4-0.7,0.8-1.2,1.1
		c0.1,0,0.1,0,0.2,0c0.3,0,0.6,0.1,0.7,0.1c0.9,0,1.7-0.1,2.3-0.2c0.6-0.1,1.1-0.3,1.5-0.5c0,0,0,0,0.1,0c0,0,0,0,0.1,0
		c0,0,0.1,0,0.1,0.1C185.5,103.8,185.5,103.9,185.5,104z M176,103.8c-1.9,0.9-3.5,2.5-5.1,4.8c-1.5,2.3-2.3,4.1-2.3,5.5
		c0,0.1,0,0.2,0.1,0.2c0,0,0.1,0.1,0.2,0.1c0.7-0.1,1.8-1.1,3.3-3.1c1.5-2,2.6-4.1,3.5-6.2c0.1-0.3,0.2-0.5,0.2-0.7
		C175.9,104.1,176,103.9,176,103.8z"/>
	<path fill="#C7AE21" d="M195.6,101.9c0,0.3-0.1,0.7-0.3,1.2c-0.2,0.4-0.5,0.9-0.9,1.3c-0.3,0.4-0.7,0.7-1.2,0.9
		c-0.5,0.2-0.9,0.4-1.3,0.4c-0.2,0-0.4-0.1-0.6-0.2c-0.2-0.1-0.4-0.3-0.6-0.4c-0.6,0.4-1.1,0.7-1.5,0.9c-0.4,0.2-0.8,0.3-1.3,0.3
		c-0.2,0-0.4-0.1-0.6-0.2c-0.1-0.1-0.2-0.3-0.2-0.5c0-0.7,0.5-1.4,1.5-2.2c1-0.8,1.9-1.2,2.9-1.3c0.1,0,0.2,0.1,0.3,0.3
		c0.1,0.2,0.2,0.3,0.3,0.4c0,0.1,0,0.2-0.1,0.3c-0.1,0.1-0.1,0.2-0.2,0.2c0,0-0.1,0-0.2-0.1c-0.1-0.1-0.2-0.1-0.2-0.2c0,0,0,0-0.1,0
		c0,0-0.1,0-0.1,0c-0.5,0-1.2,0.3-1.9,0.9c-0.7,0.6-1.1,1-1.1,1.3v0c0,0.1,0,0.2,0.1,0.2c0.1,0.1,0.2,0.1,0.3,0.1
		c0.6-0.1,1.1-0.4,1.7-0.7c0.6-0.4,1-0.8,1.4-1.3c0.1,0,0.2,0,0.3,0.1c0.2,0.1,0.3,0.1,0.3,0.2l-0.7,0.9c0,0.1,0.1,0.2,0.2,0.2
		c0.1,0.1,0.2,0.1,0.3,0.1c0.7,0,1.4-0.3,2-0.9c0.6-0.6,0.9-1.3,0.9-2c0-0.7-0.3-1.3-0.8-1.7c-0.5-0.4-1.1-0.7-1.8-0.7
		c-1.8,0-3.5,0.7-5,2c-1.6,1.3-2.3,2.7-2.3,4c0,0.8,0.3,1.5,1,2.1c0.7,0.6,1.5,0.8,2.5,0.8c1.2,0,2.3-0.2,3.3-0.7
		c1-0.5,2-1.2,2.9-2.2c0,0,0.1,0,0.1-0.1c0,0,0.1,0,0.1,0c0.1,0,0.1,0,0.2,0.1c0,0,0.1,0.1,0.1,0.2c-0.9,1.2-2,2-3.1,2.7
		c-1.1,0.6-2.3,0.9-3.4,0.9c-1.3,0-2.3-0.4-3-1.1c-0.7-0.7-1.1-1.6-1.1-2.8c0-1.7,0.8-3.3,2.4-4.6c1.6-1.3,3.4-2,5.5-2
		c0.9,0,1.7,0.3,2.3,0.9C195.3,100.4,195.6,101.1,195.6,101.9z"/>
	<path fill="#C7AE21" d="M215.1,104C215.1,104,215.1,104,215.1,104c0,0.1,0,0.1-0.1,0.1c-1.1,0.7-2.1,1.1-2.7,1.4
		c-0.7,0.3-1.2,0.4-1.6,0.4c-0.3,0-0.6-0.2-0.9-0.5c-0.3-0.3-0.5-0.8-0.8-1.5c0-0.1-0.1-0.2-0.2-0.4c-0.1-0.3-0.2-0.5-0.2-0.5
		c-0.5,0.1-1,0.3-1.5,0.6s-1.1,0.6-1.7,1c-0.2,0.1-0.5,0.4-0.8,0.7c-0.4,0.3-0.6,0.5-0.7,0.5c-0.3,0-0.5-0.1-0.6-0.2
		c-0.1-0.1-0.2-0.3-0.2-0.6c0-0.1,0-0.3,0.1-0.6c0.1-0.3,0.2-0.8,0.5-1.5c0-0.1-0.1-0.2-0.2-0.3c-0.2-0.1-0.3-0.2-0.4-0.2
		c-0.4,0-1.1,0.4-2.3,1.1c-1.1,0.7-2.3,1.6-3.5,2.6c-0.2,0-0.3,0-0.4-0.1c-0.1-0.1-0.2-0.3-0.2-0.5c0.4-0.7,0.8-1.3,1.1-2
		c0.3-0.7,0.6-1.4,0.8-2.1c0.1,0,0.3,0,0.4,0.1s0.2,0.1,0.3,0.3v0.5c0,0.1-0.1,0.4-0.2,0.7c0,0.1-0.1,0.1-0.1,0.2
		c-0.1,0.2-0.1,0.4-0.2,0.6c-0.1,0.2-0.1,0.4-0.1,0.6c0.3-0.2,1.1-0.7,2.5-1.6c1.4-0.9,2.2-1.4,2.4-1.4c0.3,0.1,0.5,0.2,0.6,0.3
		c0.1,0.1,0.2,0.3,0.2,0.5c0,0.1,0,0.2,0,0.4c0,0.1-0.1,0.4-0.1,0.6c0,0,0,0.1,0,0.1c-0.1,0.4-0.1,0.7-0.1,1c0,0.1,0,0.2,0,0.3
		c0,0.1,0,0.2,0,0.3c0.2-0.1,0.5-0.3,0.8-0.5c0.3-0.2,0.7-0.4,1.1-0.7c0.2-0.1,0.4-0.2,0.7-0.4c1.2-0.8,1.8-1.1,1.9-1.1
		c0.3,0,0.6,0.1,0.7,0.2c0.2,0.1,0.3,0.4,0.4,0.7c0.2,1,0.4,1.5,0.6,1.8c0.2,0.2,0.5,0.4,1,0.4c0.3,0,0.8-0.1,1.6-0.4
		c0.8-0.3,1.4-0.6,1.8-0.8c0,0,0,0,0.1,0c0,0,0,0,0.1,0c0,0,0.1,0,0.1,0.1C215,103.8,215.1,103.9,215.1,104z"/>
	<path fill="#C7AE21" d="M223.2,104C223.2,104,223.2,104,223.2,104c0,0.1,0,0.1-0.1,0.1c-1.1,0.7-2.1,1.1-3.2,1.5
		c-1,0.3-2.1,0.5-3.1,0.5c-0.7,0-1.3-0.2-1.8-0.6c-0.4-0.4-0.7-1-0.7-1.7c0-0.7,0.4-1.5,1.2-2.3c0.8-0.8,1.7-1.2,2.6-1.3
		c0.3,0.1,0.6,0.1,0.7,0.3c0.2,0.1,0.2,0.3,0.3,0.6c0,0.5-0.3,1-0.9,1.5c-0.6,0.5-1.5,1-2.7,1.5l0.2,0.4c0.2,0.2,0.4,0.4,0.7,0.5
		c0.3,0.1,0.7,0.2,1,0.2c0.8,0,1.7-0.1,2.7-0.4c1-0.3,1.9-0.6,2.6-1.1c0,0,0,0,0.1,0c0,0,0,0,0.1,0c0,0,0.1,0,0.1,0.1
		C223.2,103.8,223.2,103.9,223.2,104z M218.4,101.3c0-0.1-0.1-0.2-0.2-0.2c-0.1-0.1-0.1-0.1-0.2-0.1c-0.4,0-0.9,0.3-1.5,0.8
		c-0.6,0.5-1,1.1-1,1.5c0.7-0.1,1.3-0.3,2-0.7C218.1,102.2,218.4,101.8,218.4,101.3z"/>
	<path fill="#C7AE21" d="M233.5,104C233.5,104,233.5,104,233.5,104c0,0.1,0,0.1-0.1,0.1c-1.2,0.7-2.1,1.2-2.8,1.4
		c-0.6,0.3-1.2,0.4-1.8,0.4c-0.1,0-0.4,0-0.7-0.1c-0.1,0-0.1,0-0.2,0c-0.5-0.1-0.9-0.4-1.1-0.7c-0.2-0.3-0.4-0.8-0.4-1.3
		c0-0.1-0.1-0.3-0.2-0.5c0,0,0,0,0-0.1c-0.1-0.1-0.2-0.2-0.3-0.3c-0.2-0.1-0.3-0.3-0.4-0.4c-0.3,0.3-0.7,0.6-1,0.9s-0.7,0.5-1.2,0.7
		c0,0,0,0-0.1,0c0,0,0,0-0.1,0c0,0-0.1,0-0.1-0.1c0,0,0-0.1,0-0.2c0,0,0-0.1,0-0.1c0,0,0,0,0,0c0.7-0.3,1.2-0.7,1.6-1.3
		c0.4-0.5,0.7-1.1,0.7-1.7l0.4,0.1c0.3,0.4,0.6,0.8,1.1,1.2c0.5,0.4,0.7,0.8,0.7,1.3c0,0.1,0,0.2,0,0.3c0,0,0,0.1,0,0.1
		c0.1,0.3,0.4,0.6,0.6,0.9c0.3,0.3,0.5,0.4,0.8,0.4c0.7,0,1.4-0.1,2-0.3c0.6-0.2,1.4-0.5,2.2-1c0,0,0,0,0,0c0,0,0,0,0.1,0
		c0,0,0.1,0,0.1,0.1C233.5,103.8,233.5,103.9,233.5,104z"/>
	<path fill="#C7AE21" d="M243.4,104C243.4,104,243.4,104,243.4,104c0,0.1,0,0.1-0.1,0.1c-0.5,0.3-1.1,0.6-1.8,0.8
		c-0.7,0.2-1.2,0.3-1.7,0.3s-0.9-0.1-1.3-0.2c-0.4-0.1-0.8-0.3-1.1-0.6c-0.9,0.6-1.6,1.1-2.3,1.4c-0.7,0.3-1.3,0.5-1.8,0.5
		c-0.3,0-0.5-0.1-0.7-0.2c-0.2-0.1-0.3-0.4-0.3-0.6c0-0.9,0.7-1.8,2-2.8c1.3-1,2.6-1.6,3.8-1.8c0.1,0,0.3,0.1,0.5,0.3
		s0.3,0.3,0.4,0.4c0,0.1,0,0.3-0.1,0.4c-0.1,0.1-0.2,0.2-0.3,0.3c-0.1,0-0.1,0-0.3-0.1c-0.1-0.1-0.2-0.2-0.3-0.2c0,0,0,0-0.1,0
		c0,0-0.1,0-0.1,0c-0.7,0-1.6,0.4-2.7,1.3c-1.1,0.8-1.6,1.4-1.6,1.8c0,0.1,0,0.2,0.1,0.4c0.1,0.1,0.2,0.2,0.4,0.2
		c0.9-0.1,1.7-0.5,2.4-1c0.8-0.5,1.4-1.1,1.9-1.9h0c0.1,0,0.3,0,0.5,0.1c0.2,0.1,0.3,0.2,0.4,0.2l-0.8,1c0.2,0.1,0.5,0.3,0.7,0.3
		c0.3,0.1,0.5,0.1,0.8,0.1c0.6,0,1.1-0.1,1.6-0.2c0.5-0.1,1-0.3,1.5-0.5c0,0,0,0,0,0c0,0,0,0,0.1,0c0,0,0.1,0,0.1,0.1
		C243.4,103.8,243.4,103.9,243.4,104z"/>
	<path fill="#C7AE21" d="M253.9,104C253.9,104,253.9,104,253.9,104c0,0.1,0,0.1-0.1,0.1c-0.9,0.5-1.7,0.9-2.5,1.1
		c-0.8,0.2-1.7,0.4-2.6,0.4c-0.6,0-1.3-0.2-2.1-0.5c-0.9-0.3-1.6-0.7-2.3-1.1c-0.3,0.3-0.6,0.6-0.8,0.9s-0.3,0.6-0.3,0.7
		c0,0.1,0,0.2,0,0.3c0,0.1,0,0.1,0,0.2c-0.1,0.1-0.1,0.2-0.2,0.2c-0.1,0-0.2,0.1-0.3,0.1c-0.1,0-0.2,0-0.2,0c0,0-0.1,0-0.3,0
		c-0.1,0-0.2,0-0.3-0.1c-0.1-0.1-0.1-0.2-0.1-0.4c0-0.2,0.1-0.3,0.2-0.6c0.1-0.2,0.3-0.5,0.5-0.7c0.5-0.7,1.2-1.6,2.2-2.7
		c0.9-1.1,2.3-2.7,4.2-4.8c0.1-0.2,0.3-0.3,0.4-0.5c0.1-0.2,0.2-0.3,0.3-0.4c0.1,0.1,0.3,0.1,0.5,0.2c0.3,0.1,0.5,0.1,0.6,0.1
		c-0.2,0.2-0.5,0.6-1,1c-2.2,2.4-3.7,4-4.4,4.9l2.8-0.9c0.9-0.3,1.7-0.5,2.3-0.7c0.6-0.2,1.1-0.3,1.2-0.3c0.1,0,0.1,0,0.2,0.1
		c0,0.1,0.1,0.1,0.1,0.2s0,0.2-0.1,0.3c0,0.1-0.1,0.1-0.1,0.1c-1.2,0.1-2.3,0.3-3.2,0.6c-0.9,0.3-1.9,0.8-3,1.4l2,1.1
		c0.3,0.1,0.6,0.2,1,0.3c0.4,0.1,0.6,0.1,0.9,0.1c1,0,1.8-0.1,2.5-0.3c0.7-0.2,1.3-0.4,1.9-0.8c0,0,0,0,0,0c0,0,0,0,0.1,0
		c0,0,0.1,0,0.1,0.1C253.9,103.8,253.9,103.9,253.9,104z"/>
	<path fill="#C7AE21" d="M259.7,104C259.7,104,259.7,104,259.7,104c0,0.1,0,0.1-0.1,0.1c-0.7,0.4-1.5,0.8-2.4,1.1
		c-0.9,0.3-1.7,0.5-2.3,0.5c-0.5,0-0.9-0.1-1.2-0.3c-0.3-0.2-0.4-0.5-0.4-0.9c0-0.2,0-0.3,0.1-0.5c0.1-0.2,0.1-0.4,0.3-0.6l1-1.8
		c0-0.1,0.1-0.2,0.1-0.2c0.1-0.1,0.2-0.1,0.3-0.1c0.1,0.1,0.2,0.1,0.3,0.2c0.1,0.1,0.1,0.2,0.2,0.3c-0.3,0.5-0.6,1-0.8,1.4
		c-0.2,0.4-0.3,0.7-0.4,0.7v0c0,0.1,0,0.3,0.1,0.5c0.1,0.2,0.1,0.3,0.2,0.4c0.2,0.1,0.3,0.1,0.4,0.1s0.2,0,0.3,0
		c0.5,0,1.2-0.1,2-0.3c0.8-0.2,1.4-0.5,1.9-0.8c0,0,0,0,0.1,0c0,0,0,0,0.1,0c0,0,0.1,0,0.1,0.1C259.7,103.8,259.7,103.9,259.7,104z
		 M257.8,97.6c-0.1,0.3-0.3,0.5-0.5,0.7c-0.2,0.2-0.5,0.3-0.7,0.3c-0.1-0.1-0.2-0.1-0.2-0.2c0-0.1-0.1-0.2-0.1-0.3
		c0-0.2,0.1-0.5,0.2-0.7c0.1-0.2,0.3-0.4,0.6-0.6h0.3c0.1,0,0.1,0.1,0.2,0.1c0,0.1,0.1,0.2,0.1,0.3c0,0,0,0.1,0,0.1
		C257.8,97.4,257.8,97.5,257.8,97.6z"/>
	<path fill="#C7AE21" d="M266.3,104C266.3,104,266.3,104,266.3,104c0,0.1,0,0.1-0.1,0.1c-0.7,0.4-2,1.1-3.9,2
		c-1,0.5-1.7,0.8-2.2,1.1c-1.3,2.5-2.7,4.6-4.3,6.3c-1.6,1.7-2.8,2.5-3.8,2.5c-0.5,0-0.8-0.1-1.1-0.3s-0.4-0.5-0.4-0.9
		c0-1.2,0.8-2.5,2.3-3.9c1.5-1.4,3.6-2.8,6.3-4.2c0.3-0.7,0.6-1.3,0.9-1.7c0.2-0.5,0.4-0.9,0.6-1.3c-0.1,0.1-0.3,0.2-0.4,0.3
		c-0.2,0.1-0.3,0.2-0.4,0.2c0,0,0,0-0.1,0c0,0,0,0-0.1,0c0,0-0.1,0-0.1-0.1c0,0,0-0.1,0-0.2c0,0,0-0.1,0-0.1c0,0,0,0,0,0
		c0.4-0.2,0.7-0.5,0.9-0.7c0.2-0.2,0.5-0.5,0.8-0.9c0-0.1,0.1-0.2,0.1-0.2s0.2-0.1,0.3-0.1c0,0,0.1,0,0.1,0c0,0,0.1,0,0.1,0
		c0.1,0,0.2,0.1,0.3,0.2c0.1,0.1,0.2,0.2,0.2,0.3c-0.5,0.7-1.1,1.7-1.6,3.2c-0.1,0.3-0.2,0.5-0.3,0.6c1.1-0.4,2.1-0.8,3-1.2
		c0.9-0.4,1.7-0.8,2.4-1.2c0,0,0,0,0.1,0c0,0,0,0,0.1,0c0,0,0.1,0,0.1,0.1C266.2,103.8,266.3,103.9,266.3,104z M258.7,107.6
		l-1.8,0.8c-1.2,0.5-2.2,1.3-3.1,2.3c-0.9,1-1.5,2.1-1.9,3.2c0,0.2,0.1,0.4,0.2,0.5c0.1,0.1,0.3,0.2,0.6,0.2
		c1.6-0.2,3.4-2.2,5.5-6.2C258.4,108.1,258.6,107.8,258.7,107.6z M264.7,97.3c0,0.2-0.1,0.5-0.2,0.7c-0.2,0.2-0.3,0.4-0.5,0.4h-0.3
		c-0.1,0-0.2,0-0.3-0.1c-0.1-0.1-0.1-0.2-0.1-0.3c0.1-0.4,0.2-0.7,0.4-0.9c0.2-0.2,0.4-0.3,0.7-0.3c0.1,0.1,0.2,0.2,0.2,0.3
		C264.7,97,264.7,97.2,264.7,97.3z"/>
	<path fill="#C7AE21" d="M274.4,104C274.4,104,274.4,104,274.4,104c0,0.1,0,0.1-0.1,0.1c-1.1,0.7-2.1,1.1-3.2,1.5
		c-1,0.3-2.1,0.5-3.1,0.5c-0.7,0-1.3-0.2-1.8-0.6c-0.4-0.4-0.7-1-0.7-1.7c0-0.7,0.4-1.5,1.2-2.3c0.8-0.8,1.7-1.2,2.6-1.3
		c0.3,0.1,0.6,0.1,0.7,0.3c0.2,0.1,0.2,0.3,0.3,0.6c0,0.5-0.3,1-0.9,1.5s-1.5,1-2.7,1.5l0.2,0.4c0.2,0.2,0.4,0.4,0.7,0.5
		c0.3,0.1,0.6,0.2,1,0.2c0.8,0,1.7-0.1,2.7-0.4c1-0.3,1.9-0.6,2.6-1.1c0,0,0,0,0.1,0c0,0,0,0,0.1,0c0,0,0.1,0,0.1,0.1
		C274.4,103.8,274.4,103.9,274.4,104z M269.6,101.3c0-0.1-0.1-0.2-0.2-0.2c-0.1-0.1-0.1-0.1-0.2-0.1c-0.4,0-0.9,0.3-1.5,0.8
		s-1,1.1-1,1.5c0.7-0.1,1.3-0.3,2-0.7C269.3,102.2,269.6,101.8,269.6,101.3z"/>
	<path fill="#C7AE21" d="M291,104C291,104,291,104,291,104c0,0.1,0,0.1-0.1,0.1c-0.2,0.1-0.4,0.2-0.7,0.2c-0.3,0.1-0.6,0.1-0.8,0.1
		c-0.6,0-1.2-0.1-1.8-0.4c-0.6-0.2-1.1-0.7-1.8-1.2c-0.5,0.9-1.2,1.7-1.8,2.3c-0.7,0.6-1.3,0.9-1.9,0.9c-0.6,0-1.1-0.2-1.4-0.7
		c-0.3-0.4-0.5-1.1-0.5-1.8c0-0.1,0-0.2,0-0.3c0-0.1,0-0.3,0-0.4c-0.3,0.2-0.7,0.4-1.2,0.7c-0.5,0.3-0.9,0.6-1.3,1
		c-0.8,0.6-1.4,1.1-1.8,1.3c-0.4,0.2-0.7,0.3-0.9,0.3c-0.3,0-0.7-0.1-0.9-0.3c-0.3-0.2-0.4-0.4-0.4-0.7c0-0.2,0-0.5,0.1-0.7
		c0.1-0.3,0.2-0.6,0.5-0.9c0.1-0.2,0.2-0.3,0.3-0.5c0.1-0.2,0.2-0.4,0.2-0.7c0-0.1,0.1-0.1,0.2-0.2c0.1-0.1,0.2-0.1,0.4-0.1
		c0.1,0,0.2,0,0.3,0.1c0.1,0,0.1,0.1,0.2,0.2c-0.1,0.3-0.2,0.8-0.4,1.2c-0.2,0.5-0.4,0.9-0.6,1.2c0,0,0.1,0.1,0.2,0.2
		c0.1,0.1,0.2,0.2,0.3,0.3c1-0.4,1.8-0.8,2.6-1.4c0.8-0.6,1.9-1.6,3.3-2.9c0.1,0,0.2,0,0.3,0.1c0.1,0.1,0.2,0.1,0.2,0.2
		c-0.1,0.6-0.2,1-0.3,1.4c-0.1,0.4-0.1,0.7-0.1,1c0,0.5,0.1,0.8,0.3,1.1c0.2,0.3,0.6,0.4,1,0.4c0.8-0.2,1.5-0.7,1.9-1.3
		c0.4-0.6,0.7-1.4,0.7-2.3c0-0.1,0-0.2,0-0.3c0-0.1,0-0.2,0-0.4c0,0,0-0.1,0.1-0.1c0.1,0,0.1,0,0.2,0c0.1,0,0.2,0,0.3,0
		c0.1,0,0.1,0.1,0.1,0.1c0.2,0.9,0.6,1.7,1.3,2.3c0.6,0.6,1.4,0.8,2.3,0.8c0.2,0,0.4,0,0.6-0.1c0.3-0.1,0.5-0.1,0.6-0.2
		c0,0,0,0,0.1,0c0,0,0,0,0.1,0c0,0,0.1,0,0.1,0.1C291,103.8,291,103.9,291,104z"/>
	<path fill="#C7AE21" d="M299.2,104C299.2,104,299.2,104,299.2,104c0,0.1,0,0.1-0.1,0.1c-1.1,0.7-2.1,1.1-3.2,1.5
		c-1,0.3-2.1,0.5-3.1,0.5c-0.7,0-1.3-0.2-1.8-0.6c-0.4-0.4-0.7-1-0.7-1.7c0-0.7,0.4-1.5,1.2-2.3c0.8-0.8,1.7-1.2,2.6-1.3
		c0.3,0.1,0.6,0.1,0.7,0.3c0.2,0.1,0.2,0.3,0.3,0.6c0,0.5-0.3,1-0.9,1.5c-0.6,0.5-1.5,1-2.7,1.5l0.2,0.4c0.2,0.2,0.4,0.4,0.7,0.5
		c0.3,0.1,0.7,0.2,1,0.2c0.8,0,1.7-0.1,2.7-0.4s1.9-0.6,2.6-1.1c0,0,0,0,0.1,0c0,0,0,0,0.1,0c0,0,0.1,0,0.1,0.1
		C299.2,103.8,299.2,103.9,299.2,104z M294.3,101.3c0-0.1-0.1-0.2-0.2-0.2c-0.1-0.1-0.1-0.1-0.2-0.1c-0.4,0-0.9,0.3-1.5,0.8
		c-0.6,0.5-1,1.1-1,1.5c0.7-0.1,1.3-0.3,2-0.7C294,102.2,294.3,101.8,294.3,101.3z"/>
	<path fill="#C7AE21" d="M307.8,104C307.8,104,307.8,104,307.8,104c0,0.1,0,0.1-0.1,0.1c-1.1,0.6-2.2,1.1-3.1,1.4
		c-0.9,0.3-1.9,0.4-2.8,0.4c-1,0-1.7-0.2-2.2-0.6c-0.5-0.4-0.7-1-0.7-1.8c0-1.5,1-3.3,2.9-5.4c1.9-2.1,3.5-3.2,4.6-3.2
		c0.2,0,0.4,0.1,0.5,0.2c0.1,0.1,0.2,0.3,0.2,0.6c0,0.6-0.3,1.4-1,2.3c-0.7,0.9-1.5,1.8-2.6,2.7l-3.3,2.8c0.1,0.3,0.2,0.5,0.3,0.7
		c0.1,0.2,0.2,0.4,0.4,0.5c0.3,0.2,0.6,0.3,0.9,0.4c0.3,0.1,0.6,0.1,1,0.1c0.7,0,1.5-0.1,2.4-0.4c0.8-0.2,1.7-0.6,2.5-1.1
		c0,0,0,0,0.1,0c0,0,0,0,0.1,0c0,0,0.1,0,0.1,0.1C307.8,103.8,307.8,103.9,307.8,104z M306.1,96.4c0,0,0-0.1,0-0.1
		c-0.1-0.1-0.1-0.2-0.2-0.3c-0.6,0-1.3,0.4-2.2,1.3s-1.8,2-2.5,3.2c-0.1,0.2-0.3,0.5-0.5,0.9c-0.2,0.4-0.3,0.7-0.4,1
		c1.4-0.7,2.7-1.7,4-3C305.5,98.2,306.1,97.2,306.1,96.4z"/>
	<path fill="#C7AE21" d="M309.9,104.9c0,0.3-0.1,0.6-0.2,0.8c-0.2,0.2-0.4,0.3-0.7,0.3c-0.1,0-0.3-0.1-0.4-0.2
		c-0.1-0.1-0.2-0.2-0.2-0.4c0-0.2,0.1-0.4,0.2-0.5c0.1-0.2,0.3-0.3,0.5-0.5h0.3c0.1,0,0.2,0.1,0.3,0.2
		C309.8,104.7,309.9,104.8,309.9,104.9z"/>
	<path fill="#C7AE21" d="M321.6,104C321.6,104,321.6,104,321.6,104c0,0.1,0,0.1-0.1,0.1c-0.9,0.6-2.2,1.1-3.7,1.5s-2.7,0.7-3.6,0.7
		c-0.5,0-0.9-0.1-1.2-0.3c-0.3-0.2-0.5-0.5-0.5-1c0-0.6,0.4-1.3,1.2-2.1c0.8-0.7,1.8-1.3,3-1.8c0.2-0.1,0.4-0.2,0.6-0.2
		c0.2,0,0.3-0.1,0.5-0.1c0.2,0,0.3,0,0.5,0.1c0.1,0.1,0.3,0.2,0.4,0.4c0,0.1,0,0.2,0,0.3c0,0.1,0,0.2-0.1,0.2c0,0,0,0-0.1,0.1
		c0,0-0.1,0-0.2,0s-0.2,0-0.2,0c-0.1,0-0.2,0-0.2,0c-0.2,0-0.4,0-0.6,0c-0.2,0-0.4,0-0.6,0.1c-0.8,0.2-1.5,0.5-2,1.1
		c-0.6,0.5-0.9,1-0.9,1.5c0,0.3,0.1,0.5,0.3,0.7c0.2,0.2,0.4,0.3,0.7,0.3c1.1,0,2.2-0.2,3.5-0.5c1.3-0.3,2.3-0.8,3.2-1.3
		c0,0,0,0,0,0c0,0,0,0,0.1,0c0,0,0.1,0,0.1,0.1C321.6,103.8,321.6,103.9,321.6,104z"/>
	<path fill="#C7AE21" d="M331.4,104C331.4,104,331.4,104,331.4,104c0,0.1,0,0.1-0.1,0.1c-0.3,0.2-0.7,0.3-1.2,0.4
		c-0.4,0.1-0.8,0.2-1.2,0.2c-0.4,0-0.9-0.1-1.4-0.2c-0.5-0.2-0.9-0.3-1.2-0.5c-0.2,0.3-0.4,0.6-0.7,0.9c-0.3,0.3-0.5,0.5-0.7,0.7
		c-0.2,0.2-0.6,0.3-0.9,0.5c-0.4,0.1-0.7,0.2-1,0.2c-0.6,0-1.1-0.1-1.5-0.4c-0.4-0.3-0.5-0.7-0.5-1.2c0-0.4,0.1-0.8,0.3-1.2
		c0.2-0.4,0.4-0.8,0.7-1.1c0.3-0.3,0.6-0.5,0.9-0.7c0.4-0.2,0.7-0.3,0.9-0.3c0,0,0.1,0,0.2,0c0.1,0,0.2,0,0.3,0h0.1
		c0.1-0.1,0.1-0.2,0.2-0.3c0.1-0.1,0.2-0.1,0.3-0.1c0.1,0,0.1,0,0.2,0c0.1,0,0.2,0,0.3,0.1c0.3,0.1,0.5,0.3,0.7,0.7
		c0.2,0.3,0.2,0.7,0.2,1.1c0.1,0.4,0.4,0.7,0.8,1c0.4,0.3,0.9,0.4,1.5,0.4c0.5,0,0.9,0,1.3-0.1c0.3-0.1,0.7-0.2,1-0.3c0,0,0,0,0,0
		c0,0,0,0,0.1,0c0,0,0.1,0,0.1,0.1C331.4,103.8,331.4,103.9,331.4,104z M325.9,103.5c-0.4-0.3-0.6-0.6-0.8-0.8
		c-0.2-0.2-0.3-0.5-0.3-0.7c-0.7,0-1.2,0.3-1.7,0.8c-0.5,0.5-0.7,1-0.7,1.4c0,0.4,0.1,0.7,0.3,0.9c0.2,0.2,0.5,0.4,0.9,0.4
		c0.6,0,1.2-0.2,1.6-0.6C325.6,104.5,325.9,104.1,325.9,103.5z"/>
	<path fill="#C7AE21" d="M348.4,104C348.4,104,348.4,104,348.4,104c0,0.1,0,0.1-0.1,0.1c-1.1,0.7-2.1,1.1-2.7,1.4
		c-0.7,0.3-1.2,0.4-1.6,0.4c-0.3,0-0.6-0.2-0.9-0.5c-0.3-0.3-0.5-0.8-0.8-1.5c0-0.1-0.1-0.2-0.2-0.4c-0.1-0.3-0.2-0.5-0.2-0.5
		c-0.5,0.1-1,0.3-1.5,0.6s-1.1,0.6-1.7,1c-0.2,0.1-0.5,0.4-0.8,0.7c-0.4,0.3-0.6,0.5-0.7,0.5c-0.3,0-0.5-0.1-0.6-0.2
		c-0.1-0.1-0.2-0.3-0.2-0.6c0-0.1,0-0.3,0.1-0.6c0.1-0.3,0.2-0.8,0.5-1.5c0-0.1-0.1-0.2-0.2-0.3c-0.2-0.1-0.3-0.2-0.4-0.2
		c-0.4,0-1.1,0.4-2.3,1.1c-1.1,0.7-2.3,1.6-3.5,2.6c-0.2,0-0.3,0-0.4-0.1c-0.1-0.1-0.2-0.3-0.2-0.5c0.4-0.7,0.8-1.3,1.1-2
		s0.6-1.4,0.8-2.1c0.1,0,0.3,0,0.4,0.1c0.1,0.1,0.2,0.1,0.3,0.3v0.5c0,0.1-0.1,0.4-0.2,0.7c0,0.1-0.1,0.1-0.1,0.2
		c-0.1,0.2-0.1,0.4-0.2,0.6c-0.1,0.2-0.1,0.4-0.1,0.6c0.3-0.2,1.1-0.7,2.5-1.6c1.4-0.9,2.2-1.4,2.4-1.4c0.3,0.1,0.5,0.2,0.6,0.3
		c0.1,0.1,0.2,0.3,0.2,0.5c0,0.1,0,0.2,0,0.4c0,0.1-0.1,0.4-0.1,0.6c0,0,0,0.1,0,0.1c-0.1,0.4-0.1,0.7-0.1,1c0,0.1,0,0.2,0,0.3
		c0,0.1,0,0.2,0,0.3c0.2-0.1,0.5-0.3,0.8-0.5c0.3-0.2,0.7-0.4,1.1-0.7c0.2-0.1,0.4-0.2,0.7-0.4c1.2-0.8,1.8-1.1,1.9-1.1
		c0.3,0,0.6,0.1,0.7,0.2c0.2,0.1,0.3,0.4,0.4,0.7c0.2,1,0.4,1.5,0.6,1.8c0.2,0.2,0.5,0.4,1,0.4c0.3,0,0.8-0.1,1.6-0.4
		c0.8-0.3,1.4-0.6,1.8-0.8c0,0,0,0,0,0c0,0,0,0,0.1,0c0,0,0.1,0,0.1,0.1C348.4,103.8,348.4,103.9,348.4,104z"/>
</g>
</svg>
