<?xml version="1.0" encoding="utf-8"?>
<!-- Generator: Adobe Illustrator 18.1.1, SVG Export Plug-In . SVG Version: 6.00 Build 0)  -->
<svg version="1.1" id="Layer_1" xmlns="http://www.w3.org/2000/svg" xmlns:xlink="http://www.w3.org/1999/xlink" x="0px" y="0px"
	 viewBox="0 0 330 60" enable-background="new 0 0 330 60" xml:space="preserve">
<g>
	<path fill="#C7AF2E" d="M51.5,38.2L51.5,38.2c0,0.1,0,0.1,0,0.1c-0.6,0.3-1.2,0.5-1.8,0.6c-0.6,0.1-1.4,0.1-2.2,0.1
		c-1.9,0-4.5-0.5-7.6-1.5c-3.3-1-5-1.5-5.1-1.6c-0.6,0.5-1.5,0.8-2.2,0.9c-1.1,0.3-1.8,0.5-2.7,0.5c-0.6,0-1.1-0.1-1.5-0.3
		c-0.3-0.1-0.6-0.5-0.6-0.9c0-0.5,0.4-0.9,1.1-1.4c0.8-0.5,1.5-0.8,2.6-0.8c0.6,0,1.2,0,1.8,0.1c0.6,0,1.2,0.1,1.6,0.3
		c1.1-1.5,2.4-3.6,4.2-6.1l0.8-1.2c1.6-2.5,3.3-4.5,5-5.9c1.6-1.2,3.1-2,4.8-2c0.5,0,0.9,0.3,1.4,0.8s0.6,1.2,0.6,1.8
		c0,1.5-0.8,3-2.4,4.4c-1.6,1.5-3.3,2.4-4.9,2.9c-0.2,0-0.2,0-0.2,0l-0.1-0.1l0,0c0-0.1,0-0.1,0.1-0.1l0.2-0.1
		c1.3-0.5,2.7-1.6,4-3.3s2.1-3,2.1-3.9c0-0.5-0.1-0.8-0.3-1S49.4,20,48.9,20c-0.8,0-1.6,0.5-2.5,1.2s-2,2.1-3.3,4l0,0
		c-3,4.2-5.4,7.4-7.4,9.3c0.5,0.1,1.2,0.5,2.2,0.8c5.5,2,9.1,3,10.8,3c0.5,0,0.9,0,1.4-0.1c0.3,0,0.8-0.1,1-0.3c0.1,0,0.1,0,0.3,0
		C51.5,38,51.5,38,51.5,38.2z M33.2,35.6c-0.6-0.1-1-0.3-1.4-0.3s-0.8-0.1-1.1-0.1c-0.4,0-0.9,0.1-1.2,0.3c-0.4,0.1-0.6,0.3-0.6,0.5
		l0,0c0.1,0.1,0.3,0.3,0.6,0.3s0.6,0.1,1.2,0.1c0.3,0,0.8,0,1.2-0.1s0.9-0.3,1.2-0.5h0.1C33.2,35.8,33.2,35.8,33.2,35.6L33.2,35.6
		L33.2,35.6z"/>
	<path fill="#C7AF2E" d="M62.9,32.9L62.9,32.9c0,0.1,0,0.1-0.1,0.1c-0.5,0.3-1,0.5-1.8,0.6c-0.6,0.1-1.2,0.3-1.8,0.3
		c-0.6,0-1.4-0.1-2.1-0.3c-0.8-0.3-1.4-0.5-1.8-0.8c-0.3,0.5-0.6,0.9-1,1.4c-0.5,0.5-0.8,0.8-1,1s-0.9,0.5-1.4,0.8
		c-0.6,0.1-1,0.3-1.5,0.3c-0.9,0-1.6-0.1-2.2-0.6s-0.8-1-0.8-1.8c0-0.6,0.1-1.2,0.4-1.8c0.3-0.6,0.6-1.2,1.1-1.6
		c0.5-0.5,0.9-0.8,1.4-1c0.6-0.3,1-0.5,1.4-0.5c0,0,0.1,0,0.3,0s0.3,0,0.5,0h0.1c0.1-0.1,0.1-0.3,0.3-0.5c0.1-0.1,0.3-0.1,0.5-0.1
		c0.1,0,0.1,0,0.3,0s0.3,0,0.5,0.1c0.5,0.1,0.8,0.5,1,1c0.3,0.5,0.3,1,0.3,1.6c0.1,0.6,0.6,1,1.2,1.5c0.6,0.3,1.4,0.6,2.2,0.6
		c0.8,0,1.4,0,2-0.1c0.5-0.1,1-0.3,1.5-0.5l0,0c0,0,0,0,0.1,0c0,0,0.1,0,0.1,0.1C62.9,32.8,62.9,32.8,62.9,32.9z M54.8,32.2
		c-0.6-0.5-0.9-0.9-1.2-1.2c-0.3-0.3-0.5-0.8-0.5-1c-1,0-1.8,0.5-2.5,1.2s-1,1.5-1,2.1s0.1,1,0.5,1.4c0.3,0.3,0.8,0.6,1.4,0.6
		c0.9,0,1.8-0.3,2.4-0.9C54.1,33.8,54.6,33.1,54.8,32.2z"/>
	<path fill="#C7AF2E" d="M80,32.9L80,32.9c0,0.1,0,0.1-0.2,0.1c-1.6,0.9-3.1,1.5-4.2,2s-2.1,0.6-3,0.6c-0.5,0-0.9-0.3-1.4-0.9
		c-0.3-0.6-0.8-1.6-0.9-3c-0.2-0.1-0.3-0.1-0.6-0.3h-0.1c-0.8,0.1-2,0.6-3.5,1.6c-1.5,0.9-3.1,2.2-5,3.9c-0.1,0-0.5,0-0.6-0.1
		s-0.3-0.3-0.3-0.5c0-0.1,0.1-0.5,0.3-0.8v-0.1c0.1-0.1,0.3-0.5,0.6-0.9c1-1.6,1.6-2.9,1.8-3.6c0.1-0.1,0.3-0.1,0.6-0.3
		c0.1-0.1,0.5-0.1,0.6-0.1c0.1,0,0.1,0,0.3,0l0.2,0.1l0,0l0,0c-0.2,0.3-0.3,0.9-0.8,1.8c-0.3,0.9-0.6,1.4-0.6,1.5
		c2.3-1.8,3.9-2.9,5-3.5s1.7-0.9,2.1-0.9c0.3,0,0.5,0.1,0.8,0.5c0.3,0.3,0.5,1,0.9,2c0,0,0,0.1,0.2,0.3c0.5,1.5,0.9,2.2,1.3,2.2
		c1.1,0,2-0.1,3-0.5c0.9-0.3,2-0.8,3.2-1.4c0,0,0,0,0.2,0c0,0,0,0,0.1,0c0,0,0.1,0,0.1,0.1C80,32.8,80,32.8,80,32.9z"/>
	<path fill="#C7AF2E" d="M97.1,32.9L97.1,32.9c0,0.1,0,0.1-0.1,0.1c-0.9,0.6-2,1-3.1,1.4c-1.2,0.3-2.2,0.6-3.2,0.6s-1.7-0.1-2.4-0.3
		s-1.3-0.5-1.8-0.9c-0.9,0.5-2,0.9-3.5,1.5s-2.4,0.8-2.8,0.8c-0.6,0-1-0.1-1.3-0.6s-0.5-0.8-0.5-1.2c0-1.2,0.6-2.2,2-3.3
		c1.3-1,2.7-1.8,4.2-2.1c0.3-1.6,1.1-3.8,2.6-6c1.5-2.4,3-3.5,4.3-3.5c0.8,0,1.3,0.3,1.8,1c0.5,0.8,0.8,1.5,0.8,2.1
		c0,1.6-0.6,3.3-1.6,5.1c-1.2,1.8-2.7,3.6-4.7,5.1c0.5,0.3,0.9,0.6,1.5,0.8s1.2,0.3,2,0.3c0.9,0,1.8-0.1,3-0.5c1-0.3,2-0.6,2.5-0.9
		l0,0c0,0,0,0,0.2,0c0,0,0.1,0,0.1,0.1C97.1,32.8,97.1,32.8,97.1,32.9z M85.5,32.6c-0.1-0.3-0.5-0.8-0.6-1.2
		c-0.3-0.5-0.4-0.9-0.6-1.2l-0.8,0.1c-0.6,0-1.2,0.5-2.1,1.2c-0.9,0.8-1.4,1.5-1.4,2.1c0,0.3,0,0.6,0.1,0.9c0.2,0.3,0.3,0.6,0.5,0.8
		l1.2-0.1c0.6-0.1,1.1-0.5,1.7-0.9C84.3,33.8,84.9,33.2,85.5,32.6z M92.7,22.6c0-0.5-0.2-0.8-0.5-1.2c-0.3-0.5-0.6-0.6-1-0.6
		c-1.3,0.3-2.7,1.4-3.8,3.1c-1.2,1.8-1.7,3.6-1.7,5.5c0,0.3,0.2,0.8,0.3,1.2c0.3,0.5,0.4,0.9,0.8,1c0.9-0.5,1.9-1.4,3.1-2.9
		c1.2-1.4,2-2.7,2.4-3.9c0.2-0.3,0.2-0.6,0.3-1.2C92.6,23.3,92.7,22.9,92.7,22.6z"/>
	<path fill="#C7AF2E" d="M111.9,32.9L111.9,32.9c0,0.1,0,0.1-0.1,0.1c-0.5,0.3-1,0.5-1.8,0.6c-0.6,0.1-1.2,0.3-1.8,0.3
		c-0.6,0-1.4-0.1-2.1-0.3c-0.8-0.3-1.3-0.5-1.8-0.8c-0.3,0.5-0.6,0.9-1.1,1.4s-0.8,0.8-1,1c-0.3,0.3-0.9,0.5-1.4,0.8
		c-0.6,0.1-1,0.3-1.5,0.3c-0.9,0-1.6-0.1-2.2-0.6s-0.5-1.3-0.5-2.1c0-0.6,0.1-1.2,0.4-1.8c0.3-0.6,0.6-1.2,1.1-1.6
		c0.4-0.5,0.9-0.8,1.3-1c0.6-0.3,1-0.5,1.3-0.5c0,0,0.2,0,0.3,0c0.1,0,0.3,0,0.4,0h0.2c0.2-0.1,0.2-0.3,0.3-0.5
		c0.1-0.1,0.3-0.1,0.5-0.1c0.2,0,0.2,0,0.3,0s0.3,0,0.5,0.1c0.5,0.1,0.8,0.5,1,1c0.3,0.5,0.3,1,0.3,1.6c0.2,0.6,0.6,1,1.2,1.5
		c0.6,0.3,1.4,0.6,2.2,0.6c0.8,0,1.4,0,2-0.1c0.5-0.1,1-0.3,1.5-0.5l0,0c0,0,0,0,0.2,0c0,0,0.1,0,0.1,0.1
		C111.9,32.8,111.9,32.8,111.9,32.9z M103.6,32.2c-0.6-0.5-0.9-0.9-1.2-1.2c-0.3-0.3-0.5-0.8-0.5-1c-1,0-1.8,0.5-2.5,1.2
		s-1.1,1.5-1.1,2.1s0.2,1,0.5,1.4c0.3,0.3,0.8,0.6,1.3,0.6c0.9,0,1.8-0.3,2.4-0.9C103.1,33.8,103.5,33.1,103.6,32.2z"/>
	<path fill="#C7AF2E" d="M128.9,32.9L128.9,32.9c0,0.1,0,0.1-0.1,0.1c-1.7,0.9-3.2,1.5-4.2,2c-1,0.5-2.1,0.6-3,0.6
		c-0.5,0-0.9-0.3-1.4-0.9c-0.3-0.6-0.8-1.6-0.9-3c-0.1-0.1-0.3-0.1-0.6-0.3h-0.1c-0.8,0.1-2,0.6-3.5,1.6c-1.5,0.9-3.2,2.2-5,3.9
		c-0.1,0-0.3,0-0.6-0.1c-0.1-0.1-0.3-0.3-0.3-0.5c0-0.1,0.1-0.5,0.3-0.8v-0.1c0.2-0.1,0.3-0.5,0.6-0.9c1-1.6,1.6-2.9,1.8-3.6
		c0.2-0.1,0.3-0.1,0.6-0.3c0.2-0.1,0.5-0.1,0.6-0.1s0.1,0,0.3,0l0.2,0.1l0,0l0,0c-0.2,0.3-0.3,0.9-0.8,1.8c-0.3,0.9-0.6,1.4-0.6,1.5
		c2.2-1.8,3.9-2.9,5-3.5c1-0.6,1.7-0.9,2.1-0.9c0.3,0,0.5,0.1,0.8,0.5c0.3,0.3,0.5,1,0.9,2c0,0,0,0.1,0.2,0.3
		c0.4,1.5,0.9,2.2,1.3,2.2c1,0,2-0.1,3-0.5c0.9-0.3,2-0.8,3.2-1.4c0,0,0,0,0.1,0c0,0,0,0,0.1,0c0,0,0.1,0,0.1,0.1
		C128.9,32.8,128.9,32.8,128.9,32.9z"/>
	<path fill="#C7AF2E" d="M139.8,27.7h0.8v3.6h3.6V32h-3.6v3.6h-0.8V32h-3.6v-0.8h3.6V27.7z"/>
	<path fill="#C7AF2E" d="M162.8,35.2L162.8,35.2c-0.2,0.1-0.2,0.1-0.2,0.1c-0.3,0.1-0.6,0.3-1.2,0.3c-0.6,0.1-1,0.1-1.5,0.1
		c-0.4,0-0.8,0-1,0c-0.3,0-0.6-0.1-1.1-0.1c-0.3,0.5-0.4,1.2-0.8,2c-0.3,0.8-0.4,1.6-0.8,2.5c0,0.1-0.2,0.3-0.6,0.5
		c-0.4,0.1-0.8,0.1-1.2,0.1c-0.2,0-0.2,0-0.3,0c0,0,0,0,0-0.1c0.3-0.8,0.6-1.8,1.2-2.9c0.4-1,0.9-1.8,1.2-2.4
		c-0.2,0-0.3-0.1-0.6-0.1c-0.9-0.1-1.5-0.3-1.8-0.5c-0.6,0.3-1.2,0.6-2,0.9c-0.8,0.1-1.5,0.3-2.1,0.3c-0.3,0-0.6-0.1-0.9-0.3
		c-0.3-0.1-0.4-0.5-0.4-0.8s0.2-0.6,0.6-0.9c0.4-0.3,0.9-0.5,1.3-0.5c0.3,0,0.8,0,1,0.1c0.3,0.1,0.9,0.1,1.3,0.3
		c1.3-0.6,2.7-1.6,4.1-3.5c1.3-1.6,2.1-3.1,2.2-4.2c0-0.1,0-0.1,0.2-0.1c0,0,0.2,0,0.3,0c0.2,0,0.2,0,0.2,0l0.2,0.1
		c-0.3,1.5-0.9,3-1.8,4.5c-0.9,1.5-2.1,2.7-3.5,3.6c0.2,0,0.6,0.1,1.1,0.3c0.4,0.1,0.8,0.1,1,0.3c0.5-0.6,0.9-1.2,1.3-1.8
		c0.6-0.6,1.1-1.2,1.8-1.8l0,0c0,0,0,0,0.2,0c0,0,0.2,0,0.2,0.1c0,0,0,0.1,0,0.3c-0.6,0.6-1.1,1.2-1.3,1.8c-0.5,0.6-0.8,1-1.1,1.6
		c0.3,0,0.6,0.1,0.9,0.1c0.3,0,0.6,0,1.1,0c0.3,0,0.8,0,1.2-0.1c0.5,0,0.8-0.1,1.1-0.1c0.2,0,0.2,0,0.2,0.1
		C162.8,35,162.8,35,162.8,35.2z M152.4,34.3c-0.2,0-0.4-0.1-0.6-0.1c-0.2,0-0.6,0-0.9,0c-0.2,0-0.3,0-0.6,0.1
		c-0.2,0-0.3,0.1-0.3,0.3l0.3,0.3c0.3,0,0.6,0,0.9-0.1C151.6,34.6,151.9,34.4,152.4,34.3z"/>
	<path fill="#C7AF2E" d="M176.6,35.2C176.6,35.2,176.4,35.2,176.6,35.2c-0.2,0.1-0.2,0.1-0.2,0.1c-0.3,0.1-0.6,0.3-1.2,0.3
		c-0.6,0.1-1.1,0.1-1.5,0.1c-0.5,0-0.8,0-1.1,0c-0.3,0-0.6-0.1-1-0.1c-0.3,0.5-0.5,1.2-0.8,2c-0.3,0.8-0.5,1.6-0.8,2.5
		c0,0.1-0.2,0.3-0.6,0.5c-0.5,0.1-0.8,0.1-1.2,0.1c-0.2,0-0.2,0-0.3,0c0,0-0.2,0-0.2-0.1c0.3-0.8,0.6-1.8,1.2-2.9
		c0.5-1,0.9-1.8,1.2-2.4c-0.2,0-0.3-0.1-0.6-0.1c-0.9-0.1-1.5-0.3-1.8-0.5c-0.6,0.3-1.2,0.6-1.9,0.9c-0.8,0.1-1.5,0.3-2.1,0.3
		c-0.3,0-0.6-0.1-0.9-0.3c-0.3-0.1-0.5-0.5-0.5-0.8s0.2-0.6,0.6-0.9c0.5-0.3,0.9-0.5,1.3-0.5c0.3,0,0.8,0,1.1,0.1
		c0.4,0,0.9,0.1,1.3,0.3c1.3-0.6,2.7-1.6,4-3.5c1.3-1.6,2.1-3.1,2.2-4.2c0-0.1,0-0.1,0.2-0.1c0,0,0.2,0,0.3,0c0.2,0,0.2,0,0.2,0
		l0.2,0.1c-0.3,1.5-0.9,3-1.8,4.5c-0.9,1.5-2.1,2.7-3.4,3.6c0.2,0,0.6,0.1,1,0.3c0.5,0.1,0.8,0.1,1.1,0.3c0.4-0.6,0.9-1.2,1.3-1.8
		c0.6-0.6,1-1.2,1.8-1.8l0,0c0,0,0,0,0.2,0c0,0,0.2,0,0.2,0.1c0,0,0,0.1,0,0.3c-0.6,0.6-1,1.2-1.3,1.8c-0.4,0.6-0.8,1-1,1.6
		c0.3,0,0.6,0.1,0.9,0.1c0.3,0,0.6,0,1,0c0.3,0,0.8,0,1.2-0.1c0.4,0,0.8-0.1,1-0.1c0.2,0,0.2,0,0.2,0.1
		C176.4,35,176.6,35,176.6,35.2z M166.2,34.3c-0.2,0-0.5-0.1-0.6-0.1c-0.3,0-0.6,0-0.9,0c-0.2,0-0.3,0-0.6,0.1
		c-0.2,0-0.3,0.1-0.3,0.3l0.3,0.3c0.3,0,0.6,0,0.9-0.1C165.3,34.6,165.8,34.4,166.2,34.3z"/>
	<path fill="#C7AF2E" d="M195,28c0,0.8-0.3,1.4-0.8,2c-0.5,0.6-1.3,1.2-2.2,1.8l-0.8,0.5c-1.5,0.9-2.7,1.6-3.3,2.1
		c0.6,0.1,1.3,0.3,2.2,0.5c0.9,0.1,1.7,0.1,2.2,0.1c0.5,0,0.9,0,1.2-0.1c0.3,0,0.6-0.1,0.9-0.3l0,0l0,0c0,0,0.2,0,0.2,0.1l0.2,0.1
		v0.1c0,0,0,0-0.2,0.1c-0.3,0.1-0.8,0.3-1.7,0.6c-0.8,0.1-1.5,0.3-2,0.3c-0.2,0-0.8,0-1.7,0s-1.5,0-1.8,0c-0.6,0-1.2,0-1.7,0
		c-0.6,0-1.1,0.1-1.3,0.1c-0.2,0-0.2,0-0.3-0.1c-0.2,0-0.2-0.1-0.2-0.3s0-0.1,0-0.3c0,0,0-0.1,0.2-0.1c2.6-1.2,4.7-2.4,6.3-3.8
		c1.6-1.4,2.5-2.5,2.5-3.6c0-0.3-0.2-0.6-0.3-0.8c-0.2-0.1-0.5-0.3-0.8-0.3c-1.1,0-2,0.3-2.8,0.8c-0.8,0.5-1.2,0.9-1.2,1.4
		c0,0.3,0,0.5,0.2,0.5c0.2,0.1,0.3,0.1,0.6,0.1c0.3,0,0.8-0.1,1.2-0.3c0.4-0.1,0.8-0.5,1.2-0.8h0.2c0,0,0,0,0.2,0c0,0,0.2,0,0.2,0.1
		s0,0.1,0,0.3l0,0c-0.6,0.5-1.2,0.9-1.8,1.2c-0.6,0.3-1.2,0.5-1.7,0.5c-0.3,0-0.8-0.1-0.9-0.3c-0.3-0.1-0.3-0.5-0.3-0.8
		c0-0.8,0.8-1.6,2.2-2.5s2.7-1.4,3.8-1.4c0.6,0,1.2,0.1,1.5,0.6C194.9,26.9,195,27.4,195,28z"/>
	<path fill="#C7AF2E" d="M208.5,28.7c0,1.8-0.9,3.6-2.7,5.2c-1.8,1.6-3.6,2.4-5.2,2.4c-1,0-1.8-0.1-2.4-0.6c-0.6-0.5-0.8-1-0.8-2
		c0-1,0.3-2.1,1.1-3s1.5-1.5,2.5-1.8c0.8-0.9,1.5-1.6,2.4-2.1c0.8-0.5,1.7-0.8,2.6-0.8c0.9,0,1.5,0.3,1.9,0.8
		C208.4,27.2,208.5,27.8,208.5,28.7z M206.7,28.6c0-0.5-0.2-0.8-0.3-1c-0.2-0.3-0.6-0.3-0.9-0.3c-0.6,0-1.2,0.1-1.7,0.5
		c-0.6,0.3-1,0.6-1.7,1.2h0.2c0.3,0,0.6,0.1,0.9,0.3c0.3,0.3,0.5,0.5,0.5,0.9c0,0.5-0.2,0.8-0.3,1.2c-0.2,0.5-0.4,0.8-0.9,1.2
		c-0.2,0-0.3,0-0.3,0s-0.2-0.1-0.2-0.3c0.3-0.3,0.4-0.6,0.6-0.9c0.2-0.3,0.2-0.6,0.2-1c0-0.1-0.2-0.3-0.3-0.5
		c-0.2-0.1-0.3-0.1-0.4-0.1s-0.3,0-0.5,0s-0.3,0.1-0.4,0.1c-0.5,0.5-0.8,1-0.9,1.5c-0.3,0.5-0.5,1-0.6,1.5v0.1h-0.2
		c-0.2,0-0.2,0-0.2,0l-0.2-0.1c0-0.3,0.2-0.5,0.2-0.8c0.2-0.3,0.2-0.5,0.3-0.8l0,0c-0.3,0.5-0.4,0.8-0.6,1.2
		c-0.2,0.5-0.2,0.9-0.2,1.2c0,0.6,0.2,1,0.5,1.4c0.3,0.3,0.6,0.5,1.2,0.5c1.5,0,2.8-0.9,4.2-2.5C206.1,31.6,206.7,29.9,206.7,28.6z"
		/>
	<path fill="#C7AF2E" d="M220.8,26.8C220.8,26.8,220.8,26.9,220.8,26.8c0,0.1,0,0.1,0,0.1c-2.5,2-4.7,3.9-6.3,5.9
		c-1.7,2.1-2.6,3.8-2.6,5.1c0,0.3,0.2,0.6,0.2,0.8c0.2,0.1,0.3,0.3,0.5,0.5c0.3,0,0.6-0.3,0.9-0.8c0.3-0.6,0.6-1.2,0.6-2v-0.9
		c0-0.1,0-0.1,0.2-0.3c0,0,0.2-0.1,0.3-0.1c0.2,0,0.2,0,0.2,0l0.2,0.1v1.5c0,0.8-0.3,1.6-1,2.4c-0.6,0.9-1.2,1.4-1.8,1.4
		c-0.4,0-0.8-0.1-1-0.5c-0.3-0.3-0.3-0.8-0.3-1.5c0-1,0.6-2.2,1.7-3.8c1.1-1.5,2.6-3.1,4.7-5.1c0.3-0.3,0.8-0.8,1.2-1.2l0.2-0.1
		c-0.6,0.1-1.3,0.3-2.4,0.5c-0.9,0.1-1.8,0.1-2.6,0.1l-1.5-0.3c-0.2,0-0.2-0.1-0.2-0.3s0-0.3,0-0.5c0-0.3,0-0.5,0.2-0.6
		c0-0.1,0.2-0.3,0.3-0.3c0.4,0,0.9,0.1,1.5,0.1s1,0,1.7,0c1.2,0,2.2,0,3.3-0.1c1.1-0.1,1.7-0.3,2.1-0.5c0,0,0,0,0.2,0l0,0
		c0.2,0,0.2,0,0.2,0.1C220.8,26.6,220.8,26.8,220.8,26.8z"/>
	<path fill="#C7AF2E" d="M231.9,22.7c-2.5,1.2-4.8,2.9-6.4,4.8c-1.7,2.1-2.6,3.8-2.6,5.4c0,0.6,0.2,1.2,0.6,1.5
		c0.5,0.3,0.9,0.6,1.5,0.6l1.1-0.3c0.6-0.1,1.2-0.6,1.7-1c0.4-0.5,0.9-1,1-1.5c0-0.3-0.2-0.5-0.3-0.6c-0.2-0.1-0.3-0.3-0.3-0.3
		c-0.6,0-1.2,0.1-1.8,0.5c-0.6,0.3-1.3,0.8-2,1.4c-0.2,0-0.2,0-0.3,0l-0.2-0.1v-0.1v-0.1c0.6-0.8,1.3-1.4,2.2-2
		c0.8-0.5,1.5-0.8,2.1-0.8c0.4,0,0.9,0.1,1,0.3c0.3,0.3,0.5,0.6,0.5,0.9s-0.2,0.8-0.5,1.2c-0.3,0.5-0.6,0.9-1.2,1.5
		c-0.6,0.8-1.3,1.2-2,1.5c-0.6,0.3-1.3,0.5-1.9,0.5c-1.1,0-2-0.3-2.4-0.8c-0.6-0.5-0.8-1.2-0.8-2.1c0-1.8,1-3.8,3.2-5.9
		c2.1-2.1,4.5-3.9,7.3-5.1c0.2,0,0.2,0,0.3,0.1C231.9,22.4,231.9,22.6,231.9,22.7z"/>
	<path fill="#C7AF2E" d="M243.9,22.7c-2.5,1.2-4.8,2.9-6.4,4.8c-1.7,2.1-2.6,3.8-2.6,5.4c0,0.6,0.2,1.2,0.6,1.5
		c0.5,0.3,0.9,0.6,1.5,0.6l1.1-0.3c0.6-0.1,1.2-0.6,1.7-1c0.4-0.5,0.9-1,1-1.5c0-0.3-0.2-0.5-0.3-0.6c-0.2-0.1-0.3-0.3-0.3-0.3
		c-0.6,0-1.2,0.1-1.8,0.5c-0.6,0.3-1.3,0.8-2,1.4c-0.2,0-0.2,0-0.3,0l-0.2-0.1v-0.1v-0.1c0.6-0.8,1.3-1.4,2.2-2
		c0.8-0.5,1.5-0.8,2.1-0.8c0.4,0,0.9,0.1,1,0.3c0.3,0.3,0.5,0.6,0.5,0.9s-0.2,0.8-0.5,1.2c-0.3,0.5-0.6,0.9-1.2,1.5
		c-0.6,0.8-1.3,1.2-2,1.5c-0.6,0.3-1.3,0.5-1.9,0.5c-1.1,0-2-0.3-2.4-0.8c-0.6-0.5-0.8-1.2-0.8-2.1c0-1.8,1-3.8,3.2-5.9
		c2.1-2.1,4.5-3.9,7.3-5.1c0.2,0,0.2,0,0.3,0.1C243.9,22.4,243.9,22.6,243.9,22.7z"/>
	<path fill="#C7AF2E" d="M256.6,35.2L256.6,35.2c-0.1,0.1-0.1,0.1-0.1,0.1c-0.3,0.1-0.6,0.3-1.2,0.3c-0.6,0.1-1.1,0.1-1.5,0.1
		c-0.5,0-0.8,0-1.1,0c-0.3,0-0.6-0.1-1-0.1c-0.3,0.5-0.5,1.2-0.8,2c-0.3,0.8-0.5,1.6-0.8,2.5c0,0.1-0.2,0.3-0.6,0.5
		c-0.5,0.1-0.8,0.1-1.2,0.1c-0.2,0-0.2,0-0.3,0c0,0,0,0,0-0.1c0.3-0.8,0.6-1.8,1.2-2.9c0.5-1,0.9-1.8,1.2-2.4
		c-0.2,0-0.3-0.1-0.6-0.1c-0.9-0.1-1.5-0.3-1.8-0.5c-0.6,0.3-1.2,0.6-1.9,0.9c-0.8,0.1-1.5,0.3-2.1,0.3c-0.3,0-0.6-0.1-0.9-0.3
		c-0.3-0.1-0.5-0.5-0.5-0.8s0.2-0.6,0.6-0.9c0.5-0.3,0.9-0.5,1.3-0.5c0.3,0,0.8,0,1.1,0.1c0.3,0.1,0.9,0.1,1.3,0.3
		c1.3-0.6,2.7-1.6,4-3.5c1.3-1.6,2.1-3.1,2.2-4.2c0-0.1,0-0.1,0.2-0.1c0,0,0.2,0,0.3,0c0.2,0,0.2,0,0.2,0l0.2,0.1
		c-0.3,1.5-0.9,3-1.8,4.5c-0.9,1.5-2.1,2.7-3.4,3.6c0.2,0,0.6,0.1,1,0.3c0.5,0.1,0.8,0.1,1.1,0.3c0.4-0.6,0.9-1.2,1.3-1.8
		c0.6-0.6,1-1.2,1.8-1.8l0,0c0,0,0,0,0.2,0c0,0,0.2,0,0.2,0.1c0,0,0,0.1,0,0.3c-0.6,0.6-1,1.2-1.3,1.8c-0.4,0.6-0.8,1-1,1.6
		c0.3,0,0.6,0.1,0.9,0.1c0.3,0,0.6,0,1,0c0.3,0,0.8,0,1.2-0.1c0.4,0,0.8-0.1,1-0.1c0.2,0,0.2,0,0.2,0.1
		C256.6,35,256.6,35,256.6,35.2z M246.3,34.3c-0.2,0-0.4-0.1-0.6-0.1c-0.2,0-0.6,0-0.9,0c-0.2,0-0.3,0-0.6,0.1
		c-0.2,0-0.3,0.1-0.3,0.3l0.3,0.3c0.3,0,0.6,0,0.9-0.1C245.6,34.6,245.9,34.4,246.3,34.3z"/>
	<path fill="#C7AF2E" d="M272.9,21.2c0,1.4-2.2,3.8-6.9,7l-0.4,0.5c-0.8,0.5-1.4,1-1.8,1.5c-0.6,0.5-1,0.8-1.3,1.2
		c0,0.1,0,0.5,0,0.9c0,0.5,0,0.9,0,1.2c0,0.9-0.3,1.5-0.9,2c-0.6,0.5-1.2,0.8-1.8,0.8c-0.3,0-0.6-0.1-0.8-0.5
		c-0.1-0.3-0.3-0.6-0.3-1c0-0.5,0.1-1,0.6-1.6c0.5-0.6,1.2-1.4,2.2-2.2c0-0.3-0.1-0.9-0.4-2c-0.3-0.9-0.5-1.8-0.5-2.4
		c0-0.5,0.1-0.9,0.3-1.2c0.2-0.5,0.5-0.8,0.9-1c0.6-0.5,1.2-1,1.9-1.5s1.5-1,2.4-1.6c0.8-0.6,1.6-0.9,2.4-1.2c0.8-0.3,1.4-0.5,2-0.5
		c0.8,0,1.4,0.1,1.8,0.5C272.6,20.3,272.9,20.8,272.9,21.2z M261.6,32.2v-0.5c-0.6,0.3-1,0.8-1.5,1.2s-0.6,0.9-0.6,1.2
		c0,0.1,0,0.1,0.2,0.3c0.1,0.1,0.1,0.1,0.3,0.1c0.6-0.1,0.9-0.5,1.2-0.9C261.3,33.5,261.4,32.9,261.6,32.2z M270.9,21.5
		c0-0.3-0.1-0.6-0.3-0.8c-0.2-0.1-0.5-0.3-0.8-0.3c-0.9,0-2,0.3-3,0.8c-1,0.6-2.1,1.4-3.3,2.4c0.6,0,1.2,0.3,1.8,0.6
		c0.6,0.3,1,0.6,1.2,0.9v0.1v0.1c0,0.1,0,0.1-0.2,0.1c-0.1,0-0.1,0-0.3,0c-0.3-0.3-0.5-0.6-0.9-0.8c-0.3-0.1-0.6-0.3-0.9-0.3
		c-0.8,0-1.4,0.3-1.8,0.8c-0.5,0.5-0.8,1-0.8,1.6c0,0.9,0,1.6,0,2.1s0,0.9,0,1.2l4.5-3.6c1.3-1,2.4-2.1,3.1-3
		C270.6,23,270.9,22.3,270.9,21.5z"/>
	<path fill="#C7AF2E" d="M280.4,22.7c-2.5,1.2-4.8,2.9-6.5,4.8c-1.6,2.1-2.5,3.8-2.5,5.4c0,0.6,0.1,1.2,0.6,1.5
		c0.5,0.3,0.9,0.6,1.5,0.6l1.1-0.3c0.6-0.1,1.2-0.6,1.6-1c0.5-0.5,0.9-1,1-1.5c0-0.3-0.1-0.5-0.3-0.6s-0.3-0.3-0.3-0.3
		c-0.6,0-1.2,0.1-1.8,0.5c-0.6,0.3-1.4,0.8-2,1.4c-0.2,0-0.2,0-0.3,0l-0.2-0.1v-0.1v-0.1c0.6-0.8,1.4-1.4,2.2-2
		c0.8-0.5,1.5-0.8,2.1-0.8c0.4,0,0.9,0.1,1,0.3c0.3,0.3,0.5,0.6,0.5,0.9s-0.2,0.8-0.5,1.2s-0.6,0.9-1.2,1.5c-0.6,0.8-1.3,1.2-2,1.5
		c-0.6,0.3-1.3,0.5-1.9,0.5c-1.1,0-2-0.3-2.4-0.8c-0.6-0.5-0.8-1.2-0.8-2.1c0-1.8,1-3.8,3.2-5.9c2.1-2.1,4.5-3.9,7.3-5.1
		c0.2,0,0.2,0,0.3,0.1C280.4,22.4,280.4,22.6,280.4,22.7z"/>
	<path fill="#C7AF2E" d="M291.1,28c0,0.8-0.3,1.4-0.8,2s-1.3,1.2-2.2,1.8l-0.8,0.5c-1.5,0.9-2.7,1.6-3.3,2.1
		c0.6,0.1,1.3,0.3,2.2,0.5c0.9,0.1,1.6,0.1,2.2,0.1c0.5,0,0.9,0,1.2-0.1c0.3,0,0.6-0.1,0.9-0.3l0,0l0,0c0,0,0.2,0,0.2,0.1l0.1,0.1
		v0.1c0,0,0,0-0.1,0.1c-0.3,0.1-0.8,0.3-1.7,0.6c-0.8,0.1-1.5,0.3-2,0.3c-0.1,0-0.8,0-1.6,0c-0.9,0-1.5,0-1.8,0c-0.6,0-1.2,0-1.7,0
		c-0.6,0-1,0.1-1.3,0.1c-0.2,0-0.2,0-0.3-0.1c-0.1,0-0.1-0.1-0.1-0.3s0-0.1,0-0.3c0,0,0-0.1,0.1-0.1c2.6-1.2,4.7-2.4,6.3-3.8
		s2.5-2.5,2.5-3.6c0-0.3-0.2-0.6-0.3-0.8c-0.2-0.1-0.5-0.3-0.8-0.3c-1.1,0-2,0.3-2.9,0.8c-0.8,0.5-1.2,0.9-1.2,1.4
		c0,0.3,0,0.5,0.2,0.5c0.1,0.1,0.3,0.1,0.6,0.1c0.3,0,0.8-0.1,1.2-0.3s0.8-0.5,1.2-0.8h0.1c0,0,0,0,0.2,0c0,0,0.1,0,0.1,0.1
		c0,0,0,0.1,0,0.3l0,0c-0.6,0.5-1.2,0.9-1.8,1.2c-0.6,0.3-1.2,0.5-1.6,0.5c-0.3,0-0.8-0.1-0.9-0.3c-0.1-0.1-0.3-0.5-0.3-0.8
		c0-0.8,0.8-1.6,2.2-2.5s2.7-1.4,3.8-1.4c0.6,0,1.2,0.1,1.5,0.6C290.9,26.9,291.1,27.4,291.1,28z"/>
	<path fill="#C7AF2E" d="M302.4,27.8c0,0.5-0.3,1-0.9,1.6s-1.2,1-2.1,1.5c0.8,0.1,1.4,0.6,1.7,0.9c0.3,0.5,0.6,1,0.6,1.8
		c0,1.6-1,3.1-3,4.5s-4,2.1-6.5,2.1c-0.8,0-1.2-0.1-1.6-0.3c-0.5-0.3-0.6-0.6-0.6-1c0-1,0.6-2,1.8-2.7c1.2-0.8,2.5-1.2,4.2-1.2h0.3
		c0.1,0,0.1,0,0.1,0.1v0.1c0,0.1,0,0.1,0,0.3l-0.1,0.1c-1.1,0.1-2.2,0.5-3.6,1.2c-1.3,0.8-2,1.4-2,1.8c0,0.1,0.2,0.3,0.3,0.5
		c0.1,0.1,0.3,0.1,0.6,0.1c1.7,0,3.6-0.8,5.7-2.1c2.1-1.4,3.1-2.7,3.1-3.9c0-0.6-0.1-1-0.4-1.4c-0.3-0.3-0.8-0.5-1.2-0.5
		c-0.2,0-0.5,0-0.8,0.1c-0.3,0-0.5,0.1-0.6,0.1s-0.1,0-0.3-0.1l-0.1-0.1v-0.1l0.1-0.1c1-0.5,2-0.9,2.5-1.5c0.6-0.6,0.9-1.2,0.9-1.8
		c0-0.3-0.2-0.6-0.3-0.8c-0.2-0.1-0.5-0.3-0.8-0.3c-0.6,0-1.1,0.1-1.4,0.6c-0.5,0.5-0.6,0.9-0.6,1.5c0,0.1,0,0.1-0.2,0.1
		c-0.1,0-0.1,0.1-0.3,0.1c-0.2,0-0.3,0-0.5-0.1c-0.1,0-0.1-0.1-0.1-0.3c0-0.8,0.4-1.4,1.2-2s1.7-0.9,2.4-0.9s1.2,0.1,1.6,0.5
		C302.2,26.9,302.4,27.4,302.4,27.8z"/>
</g>
</svg>
