<?xml version="1.0" encoding="utf-8"?>
<!-- Generator: Adobe Illustrator 18.1.1, SVG Export Plug-In . SVG Version: 6.00 Build 0)  -->
<svg version="1.1" id="Layer_1" xmlns="http://www.w3.org/2000/svg" xmlns:xlink="http://www.w3.org/1999/xlink" x="0px" y="0px"
	 viewBox="0 0 330 60" enable-background="new 0 0 330 60" xml:space="preserve">
<g>
	<path fill="#C7AF2E" d="M35.1,27.8L35.1,27.8c0,0.1,0,0.1-0.2,0.1c-0.8,0.5-1.7,0.9-2.7,1.2c-1,0.3-1.8,0.5-2.5,0.5s-1.3-0.1-2-0.3
		c-0.6-0.1-1.2-0.5-1.7-0.9c-1.3,0.9-2.4,1.6-3.5,2.1s-2,0.8-2.7,0.8c-0.5,0-0.8-0.1-1-0.3s-0.5-0.6-0.5-0.9c0-1.4,1-2.7,3-4.2
		s3.9-2.4,5.7-2.7c0.2,0,0.5,0.1,0.8,0.5c0.3,0.3,0.5,0.5,0.6,0.6c0,0.1,0,0.5-0.2,0.6s-0.3,0.3-0.5,0.5c-0.2,0-0.2,0-0.5-0.1
		c-0.2-0.1-0.3-0.3-0.5-0.3c0,0,0,0-0.2,0h-0.2c-1,0-2.4,0.6-4,2s-2.4,2.1-2.4,2.7c0,0.1,0,0.3,0.2,0.6c0.2,0.1,0.3,0.3,0.6,0.3
		c1.3-0.1,2.5-0.8,3.6-1.5c1.2-0.8,2.1-1.6,2.8-2.9l0,0c0.2,0,0.5,0,0.8,0.1s0.5,0.3,0.6,0.3L27.6,28c0.3,0.1,0.8,0.5,1,0.5
		c0.5,0.1,0.8,0.1,1.2,0.1c0.9,0,1.7-0.1,2.4-0.3s1.5-0.5,2.2-0.8l0,0c0,0,0,0,0.2,0c0,0,0.2,0,0.2,0.1
		C35.1,27.5,35.1,27.7,35.1,27.8z"/>
	<path fill="#C7AF2E" d="M51.2,27.8L51.2,27.8c0,0.1,0,0.1-0.2,0.1c-0.9,0.5-2,0.8-3.2,1s-2.5,0.3-4,0.3c-0.2,0-0.3,0-0.5,0
		s-0.5,0-0.8,0c-0.6,0.1-1.2,0.3-2.1,0.5c-0.9,0.1-1.5,0.3-1.8,0.3h-0.2v-0.1c0-0.1,0-0.1,0.2-0.3l0.2-0.1c1.3-0.5,2.4-0.9,3.3-1.5
		c0.8-0.6,1.5-1.4,2-2.4c0-0.3-0.2-0.6-0.3-0.8c-0.2-0.1-0.5-0.3-0.8-0.3c-0.6,0-1.3,0.1-2.2,0.5c-0.9,0.3-1.7,0.8-2.1,1
		c-1.2,4.4-3.2,8.7-6.2,13c-3,4.4-5.5,6.5-7.8,6.5c-0.2,0-0.5-0.1-0.6-0.5c-0.2-0.3-0.3-0.6-0.3-0.9c0-2.2,1.5-5.4,4.3-9.6
		s6.2-7.4,9.8-9.5c0.2-0.3,0.2-0.5,0.3-0.6c0.2-0.1,0.3-0.3,0.5-0.5c0.2,0,0.3,0,0.5,0.1c0.2,0,0.3,0.1,0.3,0.3
		c0.6-0.3,1.5-0.6,2.4-0.8c0.9-0.3,1.7-0.5,1.8-0.5c0.6,0,1.2,0.1,1.5,0.5c0.5,0.3,0.6,0.8,0.6,1.2c0,0.6-0.2,1.2-0.6,1.8
		c-0.5,0.6-1,1.2-1.8,1.6c0.2,0,0.2,0,0.3,0c0.5,0,0.9,0.1,1,0.1c1.3,0,2.5-0.1,3.5-0.3s1.7-0.5,2.2-0.8c0,0,0,0,0.2,0
		c0,0,0,0,0.2,0c0,0,0.2,0,0.2,0.1C51.2,27.5,51.2,27.7,51.2,27.8z M36.9,27.5c-2.8,1.4-5.2,3.8-7.7,7.2c-2.2,3.5-3.5,6.2-3.5,8.2
		c0,0.2,0,0.3,0.2,0.3c0,0,0.2,0.2,0.3,0.2c1-0.2,2.7-1.7,5-4.7s3.9-6.1,5.2-9.3c0.2-0.5,0.3-0.8,0.3-1C36.8,28,36.8,27.7,36.9,27.5
		z"/>
	<path fill="#C7AF2E" d="M67.2,27.8L67.2,27.8c0,0.1,0,0.1-0.2,0.1c-0.9,0.5-1.8,0.8-3.2,1c-1.2,0.3-2.5,0.3-4,0.3
		c-0.2,0-0.3,0-0.5,0s-0.5,0-0.8,0c-0.6,0.1-1.2,0.3-2.1,0.5c-0.9,0.1-1.5,0.3-1.8,0.3h-0.2v-0.1c0-0.1,0-0.1,0-0.3l0.2-0.1
		c1.3-0.5,2.4-0.9,3.3-1.5c0.8-0.6,1.5-1.4,2-2.4c0-0.3-0.2-0.6-0.3-0.8c-0.2-0.1-0.5-0.3-0.8-0.3c-0.6,0-1.3,0.1-2.2,0.5
		c-0.9,0.3-1.7,0.8-2.1,1c-1,4.4-3.2,8.7-6.2,13c-3,4.4-5.5,6.5-7.8,6.5c-0.2,0-0.5-0.1-0.6-0.5c-0.2-0.3-0.3-0.6-0.3-0.9
		c0-2.2,1.5-5.4,4.3-9.6s6.2-7.4,9.8-9.5c0.2-0.3,0.2-0.5,0.3-0.6c0.2-0.1,0.3-0.3,0.5-0.5c0.2,0,0.3,0,0.5,0.1
		c0.2,0,0.3,0.1,0.3,0.3c0.6-0.3,1.5-0.6,2.4-0.8c0.9-0.3,1.7-0.5,1.8-0.5c0.6,0,1.2,0.1,1.7,0.5c0.5,0.3,0.6,0.8,0.6,1.2
		c0,0.6-0.2,1.2-0.6,1.8c-0.5,0.6-1,1.2-1.8,1.6c0.2,0,0.2,0,0.3,0c0.5,0,0.9,0.1,1,0.1c1.3,0,2.5-0.1,3.5-0.3
		c0.9-0.1,1.7-0.5,2.2-0.8c0,0,0,0,0.2,0c0,0,0,0,0.2,0c0,0,0.2,0,0.2,0.1C67.2,27.5,67.2,27.7,67.2,27.8z M53,27.5
		c-2.8,1.4-5.2,3.8-7.7,7.2c-2.2,3.5-3.5,6.2-3.5,8.2c0,0.2,0,0.3,0.2,0.3c0,0,0.2,0.2,0.3,0.2c1-0.2,2.7-1.7,5-4.7s3.9-6.1,5.2-9.3
		c0.2-0.5,0.3-0.8,0.3-1C52.8,28,53,27.7,53,27.5z"/>
	<path fill="#C7AF2E" d="M82.4,24.7c0,0.5-0.2,1-0.4,1.8c-0.3,0.6-0.8,1.4-1.3,2c-0.5,0.6-1.1,1-1.8,1.4c-0.8,0.3-1.3,0.6-1.9,0.6
		c-0.3,0-0.6-0.1-0.9-0.3c-0.3-0.1-0.6-0.5-0.9-0.6c-0.9,0.6-1.7,1-2.2,1.4c-0.6,0.3-1.2,0.5-2,0.5c-0.3,0-0.6-0.1-0.9-0.3
		c-0.2-0.1-0.3-0.5-0.3-0.8c0-1,0.8-2.1,2.2-3.3c1.5-1.2,2.8-1.8,4.3-2c0.2,0,0.3,0.1,0.4,0.5c0.2,0.3,0.3,0.5,0.5,0.6
		c0,0.1,0,0.3-0.2,0.5c-0.2,0.1-0.2,0.3-0.3,0.3c0,0-0.2,0-0.3-0.1c-0.2-0.1-0.3-0.1-0.3-0.3c0,0,0,0-0.2,0h-0.2
		c-0.8,0-1.8,0.5-2.8,1.4c-1,0.9-1.7,1.5-1.7,2l0,0c0,0.1,0,0.3,0.2,0.3c0.2,0.1,0.3,0.1,0.5,0.1c0.9-0.1,1.7-0.6,2.5-1
		c0.9-0.6,1.5-1.2,2.1-2c0.2,0,0.3,0,0.5,0.1c0.3,0.1,0.4,0.1,0.4,0.3l-1,1.4c0,0.1,0.2,0.3,0.3,0.3c0.2,0.1,0.3,0.1,0.5,0.1
		c1,0,2.1-0.5,3-1.4s1.3-2,1.3-3s-0.5-2-1.2-2.5c-0.8-0.6-1.7-1-2.7-1c-2.7,0-5.2,1-7.5,3c-2.4,2-3.5,4-3.5,6c0,1.2,0.5,2.3,1.5,3.1
		c1.1,0.9,2.2,1.2,3.8,1.2c1.8,0,3.5-0.3,5-1s3-1.8,4.3-3.3c0,0,0.2,0,0.2-0.1h0.2c0.2,0,0.2,0,0.3,0.1c0,0,0.2,0.1,0.2,0.3
		c-1.3,1.8-3,3-4.7,4c-1.7,0.9-3.4,1.4-5.1,1.4c-1.9,0-3.4-0.6-4.5-1.7c-1-1-1.7-2.4-1.7-4.2c0-2.5,1.2-5,3.6-6.9c2.4-2,5.1-3,8.2-3
		c1.3,0,2.6,0.5,3.5,1.4C81.9,22.4,82.4,23.5,82.4,24.7z"/>
	<path fill="#C7AF2E" d="M111.6,27.8L111.6,27.8c0,0.1,0,0.1-0.2,0.1c-1.7,1-3.2,1.6-4,2.1c-1.1,0.5-1.8,0.6-2.4,0.6
		c-0.5,0-0.9-0.3-1.3-0.8c-0.5-0.5-0.8-1.2-1.2-2.2c0-0.1-0.2-0.3-0.3-0.6c-0.2-0.5-0.3-0.8-0.3-0.8c-0.8,0.1-1.5,0.5-2.2,0.9
		s-1.7,0.9-2.5,1.5c-0.3,0.1-0.8,0.6-1.2,1c-0.6,0.5-0.9,0.8-1,0.8c-0.5,0-0.8-0.1-0.9-0.3s-0.3-0.5-0.3-0.9c0-0.1,0-0.5,0.2-0.9
		c0.2-0.5,0.3-1.2,0.8-2.2c0-0.1-0.2-0.3-0.3-0.5c-0.3-0.1-0.5-0.3-0.6-0.3c-0.6,0-1.7,0.6-3.5,1.6c-1.7,1-3.4,2.4-5.2,3.9
		c-0.3,0-0.4,0-0.6-0.1c-0.2-0.1-0.3-0.5-0.3-0.8c0.6-1,1.2-2,1.7-3c0.4-1,0.9-2.1,1.2-3.1c0.2,0,0.5,0,0.6,0.1
		c0.1,0.1,0.3,0.1,0.5,0.5v0.8c0,0.1-0.2,0.6-0.3,1c0,0.1-0.2,0.1-0.2,0.3c-0.2,0.3-0.2,0.6-0.3,0.9C87,27.8,87,28.1,87,28.4
		c0.4-0.3,1.7-1,3.8-2.4s3.3-2.1,3.6-2.1c0.4,0.1,0.8,0.3,0.9,0.5c0.2,0.1,0.3,0.5,0.3,0.8c0,0.1,0,0.3,0,0.6c0,0.1-0.2,0.6-0.2,0.9
		v0.1c-0.2,0.6-0.2,1-0.2,1.5c0,0.1,0,0.3,0,0.5c0,0.1,0,0.3,0,0.5c0.3-0.1,0.8-0.5,1.2-0.8c0.4-0.3,1-0.6,1.7-1
		c0.3-0.1,0.6-0.3,1-0.6c1.8-1.2,2.7-1.6,2.8-1.6c0.5,0,0.9,0.1,1.1,0.3c0.3,0.1,0.4,0.6,0.6,1c0.3,1.5,0.6,2.2,0.9,2.7
		c0.3,0.3,0.8,0.6,1.5,0.6c0.4,0,1.2-0.1,2.4-0.6c1.2-0.5,2.1-0.9,2.7-1.2c0,0,0,0,0.2,0c0,0,0,0,0.2,0c0,0,0.2,0,0.2,0.1
		C111.5,27.5,111.6,27.7,111.6,27.8z"/>
	<path fill="#C7AF2E" d="M123.8,27.8L123.8,27.8c0,0.1,0,0.1-0.2,0.1c-1.7,1-3.2,1.6-4.8,2.2c-1.5,0.5-3.2,0.8-4.7,0.8
		c-1,0-1.9-0.3-2.7-0.9c-0.6-0.6-1.1-1.5-1.1-2.5s0.6-2.2,1.8-3.5c1.2-1.2,2.5-1.8,3.9-2c0.4,0.1,0.9,0.1,1,0.5
		c0.3,0.1,0.3,0.5,0.5,0.9c0,0.8-0.5,1.5-1.3,2.2c-0.9,0.8-2.2,1.5-4.1,2.2l0.3,0.6c0.3,0.3,0.6,0.6,1,0.8c0.5,0.1,1.1,0.3,1.5,0.3
		c1.2,0,2.6-0.1,4.1-0.6s2.8-0.9,3.9-1.6c0,0,0,0,0.2,0c0,0,0,0,0.2,0c0,0,0.2,0,0.2,0.1C123.8,27.5,123.8,27.7,123.8,27.8z
		 M116.6,23.8c0-0.1-0.2-0.3-0.3-0.3c-0.2-0.1-0.2-0.1-0.3-0.1c-0.6,0-1.3,0.5-2.2,1.2s-1.5,1.6-1.5,2.2c1.1-0.1,2-0.5,3-1
		C116.1,25.1,116.6,24.5,116.6,23.8z"/>
	<path fill="#C7AF2E" d="M139.2,27.8L139.2,27.8c0,0.1,0,0.1-0.2,0.1c-1.8,1-3.2,1.8-4.2,2.1c-0.9,0.5-1.8,0.6-2.7,0.6
		c-0.2,0-0.6,0-1-0.1c-0.2,0-0.2,0-0.3,0c-0.8-0.1-1.3-0.6-1.7-1c-0.3-0.5-0.6-1.2-0.6-2c0-0.1-0.2-0.5-0.3-0.8c0,0,0,0,0-0.1
		c-0.2-0.1-0.3-0.3-0.5-0.5c-0.3-0.1-0.4-0.5-0.6-0.6c-0.4,0.5-1,0.9-1.5,1.4c-0.4,0.5-1,0.8-1.8,1c0,0,0,0-0.2,0c0,0,0,0-0.2,0
		c0,0-0.2,0-0.2-0.1c0,0,0-0.1,0-0.3v-0.1l0,0c1-0.5,1.8-1,2.4-2c0.6-0.8,1-1.6,1-2.5l0.6,0.1c0.5,0.6,0.9,1.2,1.7,1.8
		c0.8,0.6,1.1,1.2,1.1,2c0,0.1,0,0.3,0,0.5v0.1c0.2,0.5,0.6,0.9,0.9,1.4c0.4,0.5,0.8,0.6,1.2,0.6c1.1,0,2.1-0.1,3-0.5
		c0.9-0.3,2.1-0.8,3.3-1.5l0,0c0,0,0,0,0.2,0c0,0,0.2,0,0.2,0.1C139.2,27.5,139.2,27.7,139.2,27.8z"/>
	<path fill="#C7AF2E" d="M154.1,27.8L154.1,27.8c0,0.1,0,0.1-0.2,0.1c-0.8,0.5-1.7,0.9-2.7,1.2c-1.1,0.3-1.8,0.5-2.6,0.5
		s-1.3-0.1-1.9-0.3c-0.6-0.1-1.2-0.5-1.7-0.9c-1.3,0.9-2.4,1.6-3.5,2.1c-1,0.5-1.9,0.8-2.7,0.8c-0.5,0-0.8-0.1-1.1-0.3
		c-0.3-0.1-0.4-0.6-0.4-0.9c0-1.4,1-2.7,3-4.2c1.9-1.5,3.9-2.4,5.7-2.7c0.2,0,0.5,0.1,0.8,0.5c0.3,0.3,0.5,0.5,0.6,0.6
		c0,0.1,0,0.5-0.2,0.6s-0.3,0.3-0.4,0.5c-0.2,0-0.2,0-0.5-0.1c-0.2-0.1-0.3-0.3-0.4-0.3c0,0,0,0-0.2,0h-0.2c-1.1,0-2.4,0.6-4.1,2
		c-1.7,1.2-2.4,2.1-2.4,2.7c0,0.1,0,0.3,0.2,0.6c0.2,0.1,0.3,0.3,0.6,0.3c1.3-0.1,2.6-0.8,3.6-1.5c1.2-0.8,2.1-1.6,2.8-2.9l0,0
		c0.2,0,0.5,0,0.8,0.1c0.3,0.1,0.5,0.3,0.6,0.3l-1.2,1.5c0.3,0.1,0.8,0.5,1,0.5c0.5,0.1,0.8,0.1,1.2,0.1c0.9,0,1.7-0.1,2.4-0.3
		s1.5-0.5,2.2-0.8l0,0c0,0,0,0,0.2,0c0,0,0.2,0,0.2,0.1C154.1,27.5,154.1,27.7,154.1,27.8z"/>
	<path fill="#C7AF2E" d="M169.8,27.8L169.8,27.8c0,0.1,0,0.1-0.2,0.1c-1.3,0.8-2.5,1.4-3.8,1.6c-1.2,0.3-2.5,0.6-3.9,0.6
		c-0.9,0-1.9-0.3-3.2-0.8c-1.3-0.5-2.4-1-3.4-1.6c-0.5,0.5-0.9,0.9-1.2,1.4c-0.3,0.5-0.4,0.9-0.4,1s0,0.3,0,0.5c0,0.1,0,0.1,0,0.3
		c-0.2,0.1-0.2,0.3-0.3,0.3c-0.2,0-0.3,0.1-0.4,0.1s-0.3,0-0.3,0s-0.2,0-0.4,0c-0.2,0-0.3,0-0.5-0.1s-0.2-0.3-0.2-0.6
		c0-0.3,0.2-0.5,0.3-0.9c0.2-0.3,0.4-0.8,0.8-1c0.8-1,1.8-2.4,3.3-4c1.3-1.6,3.5-4,6.3-7.2c0.2-0.3,0.4-0.5,0.6-0.8
		c0.2-0.3,0.3-0.5,0.4-0.6c0.2,0.1,0.5,0.1,0.8,0.3c0.5,0.1,0.8,0.1,0.9,0.1c-0.3,0.3-0.8,0.9-1.5,1.5c-3.3,3.6-5.5,6-6.6,7.4
		l4.2-1.4c1.3-0.5,2.5-0.8,3.4-1s1.7-0.5,1.8-0.5c0.2,0,0.2,0,0.3,0.1c0,0.1,0.2,0.1,0.2,0.3s0,0.3-0.2,0.5c0,0.1-0.2,0.1-0.2,0.1
		c-1.8,0.1-3.4,0.5-4.8,0.9c-1.3,0.5-2.8,1.2-4.5,2.1l3,1.6c0.4,0.1,0.9,0.3,1.5,0.5c0.6,0.1,0.9,0.1,1.3,0.1c1.5,0,2.7-0.1,3.8-0.5
		c1-0.3,1.9-0.6,2.8-1.2l0,0c0,0,0,0,0.2,0c0,0,0.2,0,0.2,0.1C169.8,27.5,169.8,27.7,169.8,27.8z"/>
	<path fill="#C7AF2E" d="M178.5,27.8L178.5,27.8c0,0.1,0,0.1-0.2,0.1c-1.1,0.6-2.2,1.2-3.6,1.6c-1.3,0.5-2.5,0.8-3.4,0.8
		c-0.8,0-1.3-0.1-1.8-0.5c-0.4-0.3-0.6-0.8-0.6-1.4c0-0.3,0-0.5,0.2-0.8s0.2-0.6,0.5-0.9l1.5-2.7c0-0.1,0.2-0.3,0.2-0.3
		c0.2-0.1,0.3-0.1,0.4-0.1c0.2,0.1,0.3,0.1,0.5,0.3s0.2,0.3,0.3,0.5c-0.4,0.8-0.9,1.5-1.2,2.1c-0.3,0.6-0.5,1-0.6,1l0,0
		c0,0.1,0,0.5,0.2,0.8s0.2,0.5,0.3,0.6c0.3,0.1,0.5,0.1,0.6,0.1c0.1,0,0.3,0,0.5,0c0.8,0,1.8-0.1,3-0.5c1.2-0.3,2.1-0.8,2.8-1.2
		c0,0,0,0,0.2,0c0,0,0,0,0.2,0c0,0,0.2,0,0.2,0.1C178.5,27.5,178.5,27.7,178.5,27.8z M175.6,18.2c-0.2,0.5-0.4,0.8-0.8,1
		s-0.8,0.5-1.1,0.5c-0.2-0.1-0.3-0.1-0.3-0.3s-0.2-0.3-0.2-0.5c0-0.3,0.2-0.8,0.3-1s0.4-0.6,0.9-0.9h0.4c0.2,0,0.2,0.1,0.3,0.1
		c0,0.1,0.2,0.3,0.2,0.5v0.1C175.6,17.9,175.6,18.1,175.6,18.2z"/>
	<path fill="#C7AF2E" d="M188.4,27.8L188.4,27.8c0,0.1,0,0.1-0.2,0.1c-1.1,0.6-3,1.6-5.8,3c-1.5,0.8-2.6,1.2-3.3,1.6
		c-1.9,3.8-4.1,6.9-6.4,9.5c-2.4,2.5-4.2,3.8-5.7,3.8c-0.8,0-1.2-0.1-1.7-0.5c-0.4-0.3-0.6-0.8-0.6-1.3c0-1.8,1.2-3.8,3.5-5.9
		c2.2-2.1,5.4-4.2,9.4-6.3c0.4-1,0.9-2,1.3-2.5c0.3-0.8,0.6-1.4,0.9-2c-0.2,0.1-0.4,0.3-0.6,0.5c-0.3,0.1-0.4,0.3-0.6,0.3
		c0,0,0,0-0.2,0c0,0,0,0-0.2,0c0,0-0.2,0-0.2-0.1c0,0,0-0.1,0-0.3v-0.1l0,0c0.6-0.3,1.1-0.8,1.3-1c0.3-0.3,0.8-0.8,1.2-1.4
		c0-0.1,0.2-0.3,0.2-0.3s0.3-0.1,0.4-0.1h0.2h0.2c0.2,0,0.3,0.1,0.4,0.3c0.2,0.1,0.3,0.3,0.3,0.5c-0.8,1-1.7,2.5-2.4,4.8
		c-0.2,0.5-0.3,0.8-0.4,0.9c1.7-0.6,3.2-1.2,4.5-1.8c1.3-0.6,2.6-1.2,3.6-1.8c0,0,0,0,0.2,0c0,0,0,0,0.2,0c0,0,0.2,0,0.2,0.1
		C188.3,27.5,188.4,27.7,188.4,27.8z M177,33.2l-2.7,1.2c-1.8,0.8-3.3,2-4.7,3.5c-1.3,1.5-2.2,3.1-2.8,4.8c0,0.3,0.2,0.6,0.3,0.8
		c0.2,0.1,0.4,0.3,0.9,0.3c2.4-0.3,5.1-3.3,8.2-9.3C176.6,34,176.9,33.5,177,33.2z M186,17.8c0,0.3-0.2,0.8-0.3,1
		c-0.3,0.3-0.4,0.6-0.8,0.6h-0.4c-0.2,0-0.3,0-0.4-0.1c-0.2-0.1-0.2-0.3-0.2-0.5c0.2-0.6,0.3-1,0.6-1.4c0.3-0.3,0.6-0.5,1.1-0.5
		c0.2,0.1,0.3,0.3,0.3,0.5C186,17.3,186,17.6,186,17.8z"/>
	<path fill="#C7AF2E" d="M200.6,27.8L200.6,27.8c0,0.1,0,0.1-0.2,0.1c-1.7,1-3.2,1.6-4.8,2.2c-1.5,0.5-3.2,0.8-4.7,0.8
		c-1.1,0-1.9-0.3-2.7-0.9c-0.6-0.6-1.1-1.5-1.1-2.5s0.6-2.2,1.8-3.5c1.2-1.2,2.6-1.8,3.9-2c0.4,0.1,0.9,0.1,1.1,0.5
		c0.3,0.1,0.3,0.5,0.4,0.9c0,0.8-0.4,1.5-1.3,2.2s-2.2,1.5-4.1,2.2l0.3,0.6c0.3,0.3,0.6,0.6,1.1,0.8c0.4,0.1,0.9,0.3,1.5,0.3
		c1.2,0,2.6-0.1,4.1-0.6s2.8-0.9,3.9-1.6c0,0,0,0,0.2,0c0,0,0,0,0.2,0c0,0,0.2,0,0.2,0.1C200.6,27.5,200.6,27.7,200.6,27.8z
		 M193.4,23.8c0-0.1-0.2-0.3-0.3-0.3c-0.2-0.1-0.2-0.1-0.3-0.1c-0.6,0-1.3,0.5-2.2,1.2s-1.5,1.6-1.5,2.2c1.1-0.1,1.9-0.5,3-1
		C192.9,25.1,193.4,24.5,193.4,23.8z"/>
	<path fill="#C7AF2E" d="M225.5,27.8L225.5,27.8c0,0.1,0,0.1-0.2,0.1c-0.3,0.1-0.6,0.3-1.1,0.3c-0.4,0.1-0.9,0.1-1.2,0.1
		c-0.9,0-1.8-0.1-2.7-0.6c-0.9-0.3-1.7-1-2.7-1.8c-0.8,1.4-1.8,2.5-2.7,3.5c-1.1,0.9-1.9,1.4-2.8,1.4s-1.7-0.3-2.1-1
		c-0.4-0.6-0.8-1.6-0.8-2.7c0-0.1,0-0.3,0-0.5c0-0.1,0-0.5,0-0.6c-0.4,0.3-1.1,0.6-1.8,1c-0.8,0.5-1.3,0.9-1.9,1.5
		c-1.2,0.9-2.1,1.6-2.7,2c-0.6,0.3-1.1,0.5-1.3,0.5c-0.4,0-1.1-0.1-1.3-0.5c-0.4-0.3-0.6-0.6-0.6-1c0-0.3,0-0.8,0.2-1
		c0.2-0.5,0.3-0.9,0.8-1.4c0.2-0.3,0.3-0.5,0.4-0.8c0.2-0.3,0.3-0.6,0.3-1c0-0.1,0.2-0.1,0.3-0.3s0.3-0.1,0.6-0.1
		c0.2,0,0.3,0,0.4,0.1c0.2,0,0.2,0.1,0.3,0.3c-0.2,0.5-0.3,1.2-0.6,1.8c-0.3,0.8-0.6,1.4-0.9,1.8c0,0,0.2,0.1,0.3,0.3
		s0.3,0.3,0.4,0.5c1.5-0.6,2.7-1.2,3.9-2.1c1.2-0.9,2.8-2.4,4.9-4.4c0.2,0,0.3,0,0.4,0.1c0.2,0.1,0.3,0.1,0.3,0.3
		c-0.2,0.9-0.3,1.5-0.4,2.1c-0.2,0.6-0.2,1-0.2,1.5c0,0.8,0.2,1.2,0.4,1.6c0.3,0.5,0.9,0.6,1.5,0.6c1.2-0.3,2.2-1,2.8-2
		c0.6-0.9,1.1-2.1,1.1-3.5c0-0.1,0-0.3,0-0.5c0-0.1,0-0.3,0-0.6c0,0,0-0.1,0.2-0.1s0.2,0,0.3,0s0.3,0,0.4,0c0.2,0,0.2,0.1,0.2,0.1
		c0.3,1.4,0.9,2.5,1.9,3.5c0.9,0.9,2.1,1.2,3.4,1.2c0.3,0,0.6,0,0.9-0.1c0.4-0.1,0.8-0.1,0.9-0.3c0,0,0,0,0.2,0c0,0,0,0,0.2,0
		c0,0,0.2,0,0.2,0.1C225.5,27.5,225.5,27.7,225.5,27.8z"/>
	<path fill="#C7AF2E" d="M237.8,27.8L237.8,27.8c0,0.1,0,0.1-0.2,0.1c-1.7,1-3.2,1.6-4.8,2.2c-1.5,0.5-3.2,0.8-4.7,0.8
		c-1.1,0-1.9-0.3-2.7-0.9c-0.6-0.6-1.1-1.5-1.1-2.5s0.6-2.2,1.8-3.5c1.2-1.2,2.6-1.8,3.9-2c0.4,0.1,0.9,0.1,1.1,0.5
		c0.3,0.1,0.3,0.5,0.4,0.9c0,0.8-0.4,1.5-1.3,2.2s-2.2,1.5-4.1,2.2l0.3,0.6c0.3,0.3,0.6,0.6,1.1,0.8c0.4,0.1,1.1,0.3,1.5,0.3
		c1.2,0,2.6-0.1,4.1-0.6s2.8-0.9,3.9-1.6c0,0,0,0,0.2,0c0,0,0,0,0.2,0c0,0,0.2,0,0.2,0.1C237.8,27.5,237.8,27.7,237.8,27.8z
		 M230.4,23.8c0-0.1-0.2-0.3-0.3-0.3c-0.2-0.1-0.2-0.1-0.3-0.1c-0.6,0-1.3,0.5-2.2,1.2s-1.5,1.6-1.5,2.2c1.1-0.1,1.9-0.5,3-1
		C230,25.1,230.4,24.5,230.4,23.8z"/>
	<path fill="#C7AF2E" d="M250.6,27.8L250.6,27.8c0,0.1,0,0.1-0.2,0.1c-1.7,0.9-3.3,1.6-4.7,2.1s-2.8,0.6-4.2,0.6
		c-1.5,0-2.6-0.3-3.3-0.9s-1.1-1.5-1.1-2.7c0-2.2,1.5-5,4.3-8.1s5.2-4.8,6.9-4.8c0.3,0,0.6,0.1,0.8,0.3s0.3,0.5,0.3,0.9
		c0,0.9-0.4,2.1-1.5,3.5s-2.2,2.7-3.9,4l-4.9,4.2c0.2,0.5,0.3,0.8,0.4,1c0.2,0.3,0.3,0.6,0.6,0.8c0.4,0.3,0.9,0.5,1.3,0.6
		s0.9,0.1,1.5,0.1c1.1,0,2.2-0.1,3.6-0.6c1.2-0.3,2.6-0.9,3.8-1.6c0,0,0,0,0.2,0c0,0,0,0,0.2,0c0,0,0.2,0,0.2,0.1
		C250.6,27.5,250.6,27.7,250.6,27.8z M248.1,16.4v-0.1c-0.2-0.1-0.2-0.3-0.3-0.5c-0.9,0-1.9,0.6-3.3,2s-2.7,3-3.8,4.8
		c-0.2,0.3-0.4,0.8-0.8,1.4s-0.4,1-0.6,1.5c2.1-1,4.1-2.5,6-4.5C247.2,19.1,248.1,17.6,248.1,16.4z"/>
	<path fill="#C7AF2E" d="M253.8,29.2c0,0.5-0.2,0.9-0.3,1.2c-0.3,0.3-0.6,0.5-1.1,0.5c-0.2,0-0.4-0.1-0.6-0.3s-0.3-0.3-0.3-0.6
		c0-0.3,0.2-0.6,0.3-0.8c0.2-0.3,0.4-0.5,0.8-0.8h0.4c0.2,0,0.3,0.1,0.4,0.3C253.6,28.9,253.8,29,253.8,29.2z"/>
	<path fill="#C7AF2E" d="M271.4,27.8L271.4,27.8c0,0.1,0,0.1-0.2,0.1c-1.3,0.9-3.3,1.6-5.6,2.2s-4.1,1-5.4,1c-0.8,0-1.4-0.1-1.8-0.5
		c-0.4-0.3-0.8-0.8-0.8-1.5c0-0.9,0.6-2,1.8-3.1c1.2-1,2.7-2,4.5-2.7c0.3-0.1,0.6-0.3,0.9-0.3s0.4-0.1,0.8-0.1s0.4,0,0.8,0.1
		c0.2,0.1,0.4,0.3,0.6,0.6c0,0.1,0,0.3,0,0.5c0,0.1,0,0.3-0.2,0.3c0,0,0,0-0.1,0.1c0,0-0.2,0-0.3,0c-0.2,0-0.3,0-0.3,0
		c-0.2,0-0.3,0-0.3,0c-0.3,0-0.6,0-0.9,0s-0.6,0-0.9,0.1c-1.2,0.3-2.2,0.8-3,1.6c-0.9,0.8-1.4,1.5-1.4,2.2c0,0.5,0.2,0.8,0.4,1
		c0.3,0.3,0.6,0.5,1.1,0.5c1.7,0,3.3-0.3,5.2-0.8s3.4-1.2,4.8-2l0,0c0,0,0,0,0.2,0c0,0,0.1,0,0.1,0.1
		C271.4,27.5,271.4,27.7,271.4,27.8z"/>
	<path fill="#C7AF2E" d="M286.1,27.8L286.1,27.8c0,0.1,0,0.1-0.2,0.1c-0.4,0.3-1.1,0.5-1.8,0.6c-0.6,0.1-1.2,0.3-1.8,0.3
		c-0.6,0-1.3-0.1-2.1-0.3c-0.8-0.3-1.4-0.5-1.8-0.8c-0.3,0.5-0.6,0.9-1.1,1.4c-0.4,0.5-0.8,0.8-1.1,1s-0.9,0.5-1.4,0.8
		c-0.6,0.1-1.1,0.3-1.5,0.3c-0.9,0-1.6-0.1-2.2-0.6c-0.6-0.5-0.8-1-0.8-1.8c0-0.6,0.2-1.2,0.4-1.8c0.3-0.6,0.6-1.2,1.1-1.6
		c0.4-0.5,0.9-0.8,1.4-1c0.6-0.3,1.1-0.5,1.3-0.5c0,0,0.2,0,0.3,0c0.2,0,0.3,0,0.4,0h0.2c0.1-0.1,0.1-0.3,0.3-0.5
		c0.1-0.1,0.3-0.1,0.4-0.1c0.1,0,0.1,0,0.3,0c0.1,0,0.3,0,0.4,0.1c0.4,0.1,0.8,0.5,1.1,1c0.3,0.5,0.3,1,0.3,1.6
		c0.1,0.6,0.6,1,1.2,1.5c0.6,0.5,1.3,0.6,2.2,0.6c0.8,0,1.3,0,1.9-0.1c0.4-0.1,1.1-0.3,1.5-0.5l0,0c0,0,0,0,0.1,0c0,0,0.2,0,0.2,0.1
		C286.1,27.5,286.1,27.7,286.1,27.8z M277.8,27.1c-0.6-0.5-0.9-0.9-1.2-1.2c-0.3-0.3-0.4-0.8-0.4-1c-1.1,0-1.8,0.5-2.6,1.2
		s-1.1,1.5-1.1,2.1s0.1,1,0.4,1.4c0.3,0.3,0.8,0.6,1.3,0.6c0.9,0,1.8-0.3,2.4-0.9C277.4,28.6,277.8,28,277.8,27.1z"/>
	<path fill="#C7AF2E" d="M311.6,27.8L311.6,27.8c0,0.1,0,0.1-0.2,0.1c-1.6,1-3.1,1.6-4.1,2.1c-1.1,0.5-1.8,0.6-2.4,0.6
		c-0.4,0-0.9-0.3-1.4-0.8s-0.8-1.2-1.2-2.2c0-0.1-0.1-0.3-0.3-0.6c-0.1-0.5-0.3-0.8-0.3-0.8c-0.8,0.1-1.5,0.5-2.2,0.9
		s-1.6,0.9-2.6,1.5c-0.3,0.1-0.8,0.6-1.2,1c-0.6,0.5-0.9,0.8-1.1,0.8c-0.4,0-0.8-0.1-0.9-0.3c-0.2-0.1-0.3-0.5-0.3-0.9
		c0-0.1,0-0.5,0.1-0.9c0.2-0.5,0.3-1.2,0.8-2.2c0-0.1-0.1-0.3-0.3-0.5c-0.3-0.1-0.4-0.3-0.6-0.3c-0.6,0-1.7,0.6-3.4,1.6
		c-1.7,1-3.4,2.4-5.2,3.9c-0.3,0-0.4,0-0.6-0.1c-0.1-0.1-0.3-0.5-0.3-0.8c0.6-1,1.2-2,1.7-3c0.5-1,0.9-2.1,1.2-3.1
		c0.1,0,0.4,0,0.6,0.1c0.2,0.1,0.3,0.1,0.4,0.5v0.8c0,0.1-0.1,0.6-0.3,1c0,0.1-0.1,0.1-0.1,0.3c-0.2,0.3-0.2,0.6-0.3,0.9
		c-0.2,0.3-0.2,0.6-0.2,0.9c0.4-0.3,1.7-1,3.8-2.4c2.1-1.4,3.3-2.1,3.6-2.1c0.4,0.1,0.8,0.3,0.9,0.5c0.2,0.1,0.3,0.5,0.3,0.8
		c0,0.1,0,0.3,0,0.6c0,0.1-0.1,0.6-0.1,0.9v0.1c-0.2,0.6-0.2,1-0.2,1.5c0,0.1,0,0.3,0,0.5c0,0.1,0,0.3,0,0.5
		c0.3-0.1,0.8-0.5,1.2-0.8s1.1-0.6,1.7-1c0.3-0.1,0.6-0.3,1.1-0.6c1.8-1.2,2.7-1.6,2.8-1.6c0.4,0,0.9,0.1,1.1,0.3
		c0.3,0.1,0.4,0.6,0.6,1c0.3,1.5,0.6,2.2,0.9,2.7c0.3,0.3,0.8,0.6,1.5,0.6c0.4,0,1.2-0.1,2.4-0.6c1.2-0.5,2.1-0.9,2.7-1.2l0,0
		c0,0,0,0,0.1,0c0,0,0.2,0,0.2,0.1C311.6,27.5,311.6,27.7,311.6,27.8z"/>
</g>
</svg>
