<?xml version="1.0" encoding="utf-8"?>
<!-- Generator: Adobe Illustrator 18.1.1, SVG Export Plug-In . SVG Version: 6.00 Build 0)  -->
<svg version="1.1" id="Layer_1" xmlns="http://www.w3.org/2000/svg" xmlns:xlink="http://www.w3.org/1999/xlink" x="0px" y="0px"
	 viewBox="0 34.1 300 21.8" enable-background="new 0 34.1 300 21.8" xml:space="preserve">
<g>
	<path fill="#C7AE21" d="M0,54.9V35.3h3.2c2,0,3.6,0.4,4.8,1.2s1.8,2.2,1.8,4s-0.6,3-1.8,3.8c1.2,0.2,2,0.8,2.8,1.8c0.6,1,1,2,1,3.2
		c0,1.8-0.6,3.2-2,4.2c-1.4,0.8-3,1.4-5.2,1.4H0z M2.2,37.3v6.6H3c0.8,0,1.2,0,1.8,0c0.4,0,1-0.2,1.4-0.4s0.8-0.6,1-1
		c0.2-0.6,0.4-1.2,0.4-1.8c0-1.4-0.4-2.2-1.2-2.6c-0.8-0.4-1.8-0.6-3.4-0.6L2.2,37.3L2.2,37.3z M2.2,45.7v7h2.2c3.4,0,5-1.2,5-3.6
		c0-2.4-1.8-3.6-5.4-3.6L2.2,45.7L2.2,45.7z"/>
	<path fill="#C7AE21" d="M26,46.5l-6.4-11.2h2.6l5,8.8l5-8.8h2.6l-6.4,11.2v8.4H26V46.5L26,46.5z"/>
	<path fill="#C7AE21" d="M69.4,49.3H61l-2.4,5.6h-2.4l9.2-20.8l8.8,20.8h-2.4L69.4,49.3z M68.6,47.3l-3.2-7.8L62,47.3H68.6
		L68.6,47.3z"/>
	<path fill="#C7AE21" d="M85,46.3v8.6h-2.2V35.3H86c1,0,2,0,2.8,0.2c0.8,0,1.4,0.4,2.2,0.8c0.6,0.6,1.2,1.2,1.6,2s0.6,1.6,0.6,2.6
		c0,1.8-0.6,3.2-1.8,4.2c-1,0.8-2.6,1.2-4.6,1.2H85L85,46.3z M85,37.3v7h1.4c3,0,4.4-1.2,4.4-3.6c0-0.6,0-1.2-0.4-1.6
		c-0.2-0.4-0.4-0.8-0.8-1s-0.6-0.4-1.2-0.6c-0.6-0.2-1-0.2-1.4-0.2s-1,0-1.6,0L85,37.3L85,37.3z"/>
	<path fill="#C7AE21" d="M104.8,46.3v8.6h-2.2V35.3h3.2c1.2,0,2,0,2.8,0.2s1.4,0.4,2.2,0.8c0.6,0.6,1.2,1.2,1.6,2s0.6,1.6,0.6,2.6
		c0,1.8-0.6,3.2-1.8,4.2c-1,0.8-2.6,1.2-4.6,1.2H104.8L104.8,46.3z M104.8,37.3v7h1.4c3,0,4.4-1.2,4.4-3.6c0-0.6,0-1.2-0.4-1.6
		c-0.2-0.4-0.4-0.8-0.8-1s-0.6-0.4-1.2-0.6c-0.6-0.2-1-0.2-1.4-0.2s-1,0-1.6,0L104.8,37.3L104.8,37.3z"/>
	<path fill="#C7AE21" d="M124.2,37.9c2-2,4.4-3,7.2-3s5.2,1,7.2,3s3,4.4,3,7.2s-1,5.2-3,7.2s-4.4,3-7.2,3s-5.2-1-7.2-3s-3-4.4-3-7.2
		S122.2,39.9,124.2,37.9z M137.2,39.3c-1.6-1.6-3.4-2.4-5.6-2.4c-2.2,0-4.2,0.8-5.6,2.4c-1.6,1.6-2.4,3.6-2.4,5.8s0.8,4.2,2.4,5.8
		s3.4,2.4,5.6,2.4s4.2-0.8,5.6-2.4c1.6-1.6,2.4-3.6,2.4-5.8C139.6,42.7,138.8,40.9,137.2,39.3z"/>
	<path fill="#C7AE21" d="M153.4,35.1v19.8h-2.2V35.3L153.4,35.1L153.4,35.1z"/>
	<path fill="#C7AE21" d="M164.2,54.9V34.3l15.4,16.2V35.3h2.2v20.6l-15.4-16.2v15.2H164.2L164.2,54.9z"/>
	<path fill="#C7AE21" d="M197.6,37.3v17.6h-2.2V37.3h-4.8v-2h11.8v2H197.6z"/>
	<path fill="#C7AE21" d="M209.8,54.9l4-20.8l7.2,16.6l7.2-16.6l4,20.8H230l-2.6-13.2l0,0L221,55.9l-6.4-14.2l0,0L212,54.9H209.8z"/>
	<path fill="#C7AE21" d="M241.2,54.9V35.3h10.2v2h-8v5.8h7.8v2h-7.8v7.8h8v2H241.2L241.2,54.9z"/>
	<path fill="#C7AE21" d="M261.8,54.9V34.3l15.4,16.2V35.3h2.2v20.6l-15.2-16.2v15.2H261.8L261.8,54.9z"/>
	<path fill="#C7AE21" d="M295.2,37.3v17.6H293V37.3h-4.8v-2H300v2H295.2z"/>
</g>
</svg>
