<?xml version="1.0" encoding="utf-8"?>
<!-- Generator: Adobe Illustrator 18.1.1, SVG Export Plug-In . SVG Version: 6.00 Build 0)  -->
<svg version="1.1" id="Layer_1" xmlns="http://www.w3.org/2000/svg" xmlns:xlink="http://www.w3.org/1999/xlink" x="0px" y="0px"
	 viewBox="0 0 347.5 25.1" enable-background="new 0 0 347.5 25.1" xml:space="preserve">
<g>
	<path fill="#010101" d="M0,24.1V1.3h3.8c2.3,0,4.1,0.5,5.5,1.4s2.1,2.5,2.1,4.7c0,2-0.7,3.5-2.2,4.5c1.3,0.3,2.4,1,3.2,2.1
		c0.8,1.1,1.2,2.3,1.2,3.7c0,2.2-0.8,3.8-2.3,4.8c-1.5,1-3.5,1.6-5.9,1.6H0z M2.5,3.7v7.7h1c0.9,0,1.5,0,2.1-0.1
		c0.5-0.1,1.1-0.2,1.6-0.5c0.5-0.2,0.9-0.6,1.2-1.2C8.7,9,8.8,8.3,8.8,7.5c0-1.6-0.4-2.6-1.3-3.1c-0.9-0.5-2.2-0.7-4-0.7L2.5,3.7
		L2.5,3.7z M2.5,13.5v8.2h2.6c3.9,0,5.8-1.4,5.8-4.2c0-2.7-2.1-4.1-6.2-4.1H2.5z"/>
	<path fill="#010101" d="M30.2,14.3l-7.5-13h2.9l5.8,10.2l5.8-10.2h2.9l-7.5,13v9.8h-2.5V14.3z"/>
	<path fill="#010101" d="M80.4,17.7h-9.8l-2.8,6.5h-2.8L75.6,0.2l10.3,23.9h-2.8L80.4,17.7z M79.4,15.3l-3.8-9.1l-3.9,9.1L79.4,15.3
		L79.4,15.3z"/>
	<path fill="#010101" d="M98.5,14.1v10h-2.5V1.3h3.8c1.2,0,2.3,0.1,3.2,0.2c0.9,0.1,1.7,0.5,2.5,1c0.8,0.6,1.5,1.3,1.9,2.3
		c0.4,0.9,0.7,1.9,0.7,3c0,2.1-0.7,3.7-2.2,4.9c-1.2,1-3,1.5-5.4,1.5H98.5z M98.5,3.7v8.1h1.7c3.5,0,5.2-1.4,5.2-4.1
		c0-0.7-0.1-1.3-0.4-1.9c-0.2-0.5-0.5-0.9-0.9-1.2c-0.4-0.3-0.8-0.5-1.4-0.6c-0.6-0.2-1.1-0.2-1.6-0.3c-0.5,0-1.1-0.1-1.8-0.1
		L98.5,3.7L98.5,3.7z"/>
	<path fill="#010101" d="M121.3,14.1v10h-2.5V1.3h3.8c1.3,0,2.3,0.1,3.2,0.2c0.9,0.1,1.7,0.5,2.5,1c0.8,0.6,1.5,1.3,1.9,2.3
		c0.5,0.9,0.7,1.9,0.7,3c0,2.1-0.7,3.7-2.2,4.9c-1.2,1-3,1.5-5.4,1.5H121.3z M121.3,3.7v8.1h1.7c3.5,0,5.2-1.4,5.2-4.1
		c0-0.7-0.1-1.3-0.4-1.9c-0.2-0.5-0.5-0.9-0.9-1.2c-0.4-0.3-0.8-0.5-1.4-0.6c-0.6-0.2-1.1-0.2-1.6-0.3c-0.5,0-1.1-0.1-1.8-0.1
		L121.3,3.7L121.3,3.7z"/>
	<path fill="#010101" d="M143.9,4.4c2.3-2.3,5.1-3.5,8.4-3.5c3.3,0,6.1,1.2,8.4,3.5c2.3,2.3,3.5,5.1,3.5,8.4s-1.2,6.1-3.5,8.3
		c-2.3,2.3-5.1,3.4-8.4,3.4c-3.3,0-6.1-1.2-8.4-3.4c-2.3-2.3-3.5-5.1-3.5-8.3C140.4,9.5,141.6,6.7,143.9,4.4z M158.9,6
		c-1.8-1.9-4-2.8-6.6-2.8c-2.6,0-4.8,0.9-6.6,2.8c-1.8,1.8-2.7,4.1-2.7,6.7c0,2.6,0.9,4.8,2.7,6.7c1.8,1.9,4,2.8,6.6,2.8
		c2.6,0,4.8-0.9,6.6-2.8c1.8-1.9,2.7-4.1,2.7-6.7C161.6,10.1,160.7,7.9,158.9,6z"/>
	<path fill="#010101" d="M177.8,1.3v22.8h-2.5V1.3H177.8z"/>
	<path fill="#010101" d="M190.2,24.1V0.3L208,19V1.3h2.5v23.9L192.7,6.5v17.6L190.2,24.1L190.2,24.1z"/>
	<path fill="#010101" d="M228.9,3.7v20.5h-2.5V3.7h-5.5V1.3h13.6v2.4H228.9z"/>
	<path fill="#010101" d="M243,24.1L247.6,0l8.3,19.2L264.2,0l4.6,24.1h-2.6l-2.9-15.4h-0.1l-7.4,16.4l-7.3-16.4h-0.1l-2.9,15.4H243z
		"/>
	<path fill="#010101" d="M279.3,24.1V1.3h11.8v2.4h-9.3v6.8h9v2.4h-9v9h9.3v2.4H279.3z"/>
	<path fill="#010101" d="M303.2,24.1V0.3L321,19V1.3h2.5v23.9L305.8,6.5v17.6L303.2,24.1L303.2,24.1z"/>
	<path fill="#010101" d="M342,3.7v20.5h-2.5V3.7h-5.5V1.3h13.6v2.4H342z"/>
</g>
</svg>
