<?xml version="1.0" encoding="utf-8"?>
<!-- Generator: Adobe Illustrator 18.1.1, SVG Export Plug-In . SVG Version: 6.00 Build 0)  -->
<svg version="1.1" id="Layer_1" xmlns="http://www.w3.org/2000/svg" xmlns:xlink="http://www.w3.org/1999/xlink" x="0px" y="0px"
	 viewBox="-81.4 23.3 132 15" enable-background="new -81.4 23.3 132 15" xml:space="preserve">
<g>
	<path d="M-70.3,25.2v1.9c-1.2-1.2-2.6-1.8-4.2-1.8c-1.5,0-2.8,0.6-3.9,1.7c-1.1,1.1-1.6,2.4-1.6,4c0,1.5,0.5,2.8,1.6,3.9
		c1.1,1.1,2.4,1.7,3.9,1.7c1.5,0,2.9-0.6,4.1-1.8v1.9c-1.2,0.9-2.6,1.3-4.1,1.3c-1.9,0-3.6-0.7-5-2c-1.4-1.4-2.1-3-2.1-4.9
		c0-1.9,0.7-3.6,2.1-5c1.4-1.4,3.1-2.1,5-2.1C-72.8,23.9-71.5,24.3-70.3,25.2z"/>
	<path d="M-54.5,33.9h-5.8l-1.6,3.9h-1.7l6.3-14.3l6.1,14.3h-1.7L-54.5,33.9z M-55.1,32.5l-2.3-5.5l-2.3,5.5H-55.1z"/>
	<path d="M-45.3,37.7l2.8-14.4l4.9,11.4l5-11.4l2.8,14.4h-1.6l-1.8-9.2h0l-4.4,9.8l-4.4-9.8h0l-1.8,9.2H-45.3z"/>
	<path d="M-21.2,31.8v6h-1.5V24.1h2.2c0.7,0,1.4,0,1.9,0.1c0.5,0.1,1,0.3,1.5,0.6c0.5,0.3,0.9,0.8,1.1,1.3c0.3,0.5,0.4,1.1,0.4,1.8
		c0,1.2-0.4,2.2-1.3,2.9c-0.7,0.6-1.8,0.9-3.2,0.9H-21.2z M-21.2,25.5v4.8h1c2.1,0,3.1-0.8,3.1-2.5c0-0.4-0.1-0.8-0.2-1.1
		c-0.1-0.3-0.3-0.5-0.5-0.7c-0.2-0.2-0.5-0.3-0.8-0.4c-0.3-0.1-0.6-0.1-0.9-0.2c-0.3,0-0.6,0-1.1,0C-20.6,25.5-21.2,25.5-21.2,25.5z
		"/>
	<path d="M-1.8,33.9h-5.8l-1.6,3.9h-1.7l6.3-14.3l6.1,14.3h-1.7L-1.8,33.9z M-2.4,32.5L-4.6,27L-7,32.5H-2.4z"/>
	<path d="M10,24.1v13.6H8.4V24.1H10z"/>
	<path d="M25.1,30.9h5.7c0,1-0.1,1.9-0.3,2.7c-0.2,0.7-0.6,1.5-1.2,2.1c-0.6,0.7-1.4,1.3-2.3,1.7c-0.9,0.4-1.8,0.6-2.8,0.6
		c-1.9,0-3.6-0.7-4.9-2.1c-1.4-1.4-2.1-3-2.1-4.9c0-1.9,0.7-3.6,2.1-5c1.4-1.4,3.1-2.1,5-2.1c2.3,0,4.3,1,5.8,2.9l-1.1,1
		c-1.2-1.7-2.8-2.6-4.7-2.6c-1.5,0-2.9,0.6-3.9,1.7c-1.1,1.1-1.6,2.5-1.6,4c0,1.5,0.5,2.8,1.6,3.8c0.5,0.5,1.1,0.9,1.8,1.3
		c0.7,0.3,1.4,0.5,2.1,0.5c1.2,0,2.4-0.4,3.4-1.2c1-0.8,1.5-1.8,1.5-3h-4C25.1,32.3,25.1,30.9,25.1,30.9z"/>
	<path d="M38.4,37.7V23.5l10.6,11.1V24.1h1.5v14.2L40,27.2v10.5H38.4z"/>
</g>
</svg>
