<?xml version="1.0" encoding="utf-8"?>
<!-- Generator: Adobe Illustrator 18.1.1, SVG Export Plug-In . SVG Version: 6.00 Build 0)  -->
<svg version="1.1" id="Layer_1" xmlns="http://www.w3.org/2000/svg" xmlns:xlink="http://www.w3.org/1999/xlink" x="0px" y="0px"
	 viewBox="-112 41.7 73.1 8.3" enable-background="new -112 41.7 73.1 8.3" xml:space="preserve">
<g>
	<path fill="#C7AE21" d="M-105.8,42.7v1c-0.6-0.7-1.4-1-2.3-1c-0.8,0-1.5,0.3-2.1,0.9c-0.6,0.6-0.9,1.3-0.9,2.2
		c0,0.8,0.3,1.6,0.9,2.2c0.6,0.6,1.3,0.9,2.2,0.9c0.9,0,1.6-0.3,2.3-1v1c-0.7,0.5-1.4,0.7-2.2,0.7c-1.1,0-2-0.4-2.8-1.1
		c-0.8-0.8-1.2-1.7-1.2-2.7c0-1.1,0.4-2,1.2-2.8c0.8-0.8,1.7-1.2,2.8-1.2C-107.2,42-106.5,42.2-105.8,42.7z"/>
	<path fill="#C7AE21" d="M-97.1,47.5h-3.2l-0.9,2.1h-0.9l3.5-7.9l3.4,7.9h-0.9L-97.1,47.5z M-97.4,46.7l-1.3-3l-1.3,3H-97.4z"/>
	<path fill="#C7AE21" d="M-92,49.7l1.5-8l2.7,6.3l2.8-6.3l1.5,8h-0.9l-1-5.1h0l-2.4,5.4l-2.4-5.4h0l-1,5.1H-92z"/>
	<path fill="#C7AE21" d="M-78.6,46.4v3.3h-0.8v-7.5h1.2c0.4,0,0.8,0,1.1,0.1c0.3,0,0.6,0.2,0.8,0.3c0.3,0.2,0.5,0.4,0.6,0.7
		c0.1,0.3,0.2,0.6,0.2,1c0,0.7-0.2,1.2-0.7,1.6c-0.4,0.3-1,0.5-1.8,0.5H-78.6z M-78.6,42.9v2.7h0.6c1.1,0,1.7-0.5,1.7-1.4
		c0-0.2,0-0.4-0.1-0.6s-0.2-0.3-0.3-0.4c-0.1-0.1-0.3-0.2-0.5-0.2c-0.2-0.1-0.4-0.1-0.5-0.1c-0.2,0-0.4,0-0.6,0
		C-78.3,42.9-78.6,42.9-78.6,42.9z"/>
	<path fill="#C7AE21" d="M-67.9,47.5h-3.2l-0.9,2.1h-0.9l3.5-7.9l3.4,7.9H-67L-67.9,47.5z M-68.2,46.7l-1.3-3l-1.3,3H-68.2z"/>
	<path fill="#C7AE21" d="M-61.4,42.1v7.5h-0.8v-7.5H-61.4z"/>
	<path fill="#C7AE21" d="M-53,45.9h3.1c0,0.6,0,1.1-0.1,1.5c-0.1,0.4-0.3,0.8-0.6,1.2c-0.3,0.4-0.8,0.7-1.3,0.9
		c-0.5,0.2-1,0.3-1.5,0.3c-1.1,0-2-0.4-2.7-1.1c-0.8-0.8-1.1-1.7-1.1-2.7c0-1.1,0.4-2,1.2-2.8c0.8-0.8,1.7-1.2,2.8-1.2
		c1.3,0,2.4,0.5,3.2,1.6l-0.6,0.6c-0.7-0.9-1.5-1.4-2.6-1.4c-0.9,0-1.6,0.3-2.2,0.9c-0.6,0.6-0.9,1.4-0.9,2.2c0,0.8,0.3,1.5,0.9,2.1
		c0.3,0.3,0.6,0.5,1,0.7c0.4,0.2,0.8,0.3,1.1,0.3c0.7,0,1.3-0.2,1.9-0.7c0.6-0.5,0.8-1,0.8-1.7H-53C-53,46.7-53,45.9-53,45.9z"/>
	<path fill="#C7AE21" d="M-45.6,49.7v-7.9l5.9,6.2v-5.8h0.8V50l-5.9-6.1v5.8H-45.6z"/>
</g>
</svg>
