<?xml version="1.0" encoding="utf-8"?>
<!-- Generator: Adobe Illustrator 18.1.1, SVG Export Plug-In . SVG Version: 6.00 Build 0)  -->
<svg version="1.1" id="Layer_1" xmlns="http://www.w3.org/2000/svg" xmlns:xlink="http://www.w3.org/1999/xlink" x="0px" y="0px"
	 viewBox="43 43 64 64" enable-background="new 43 43 64 64" xml:space="preserve">
<g>
	<path d="M88.8,84.9c0.2-0.3,0.3-0.6,0.3-1V64.6H65.4v17.7c0,1.4-0.2,2.4-0.7,3.1h23.1C88.3,85.4,88.6,85.2,88.8,84.9z M69.9,68
		h14.3v1.5H69.9V68z M74.5,82.5h-5.4v-0.8h5.4V82.5z M74.5,80.1h-5.4v-0.8h5.4V80.1z M74.5,77.7h-5.4v-0.8h5.4V77.7z M74.5,75.3
		h-5.4v-0.8h5.4V75.3z M74.5,72.7h-5.4V72h5.4V72.7z M85.8,80.7h-9.1V72h9.1V80.7z"/>
	<path d="M60.9,82.3c0,1,0.1,1.7,0.3,2.2c0.2,0.5,0.5,0.7,0.8,0.7c0.3,0,0.6-0.2,0.8-0.7c0.2-0.5,0.3-1.2,0.3-2.2V68.8h-2.2V82.3z"
		/>
	<path d="M75,43c-17.7,0-32,14.3-32,32s14.3,32,32,32s32-14.3,32-32S92.7,43,75,43z M91.5,83.9c0,1-0.4,1.9-1.1,2.6
		c-0.7,0.7-1.5,1.1-2.5,1.2H63.2c-1.5,0-2.7-0.4-3.5-1.3c-0.8-0.9-1.2-2.3-1.2-4.2V66.5h4.6v-4.2h28.4V83.9z"/>
</g>
</svg>
