<?xml version="1.0" encoding="utf-8"?>
<!-- Generator: Adobe Illustrator 18.1.1, SVG Export Plug-In . SVG Version: 6.00 Build 0)  -->
<svg version="1.1" id="Layer_1" xmlns="http://www.w3.org/2000/svg" xmlns:xlink="http://www.w3.org/1999/xlink" x="0px" y="0px"
	 viewBox="8.5 21 163 18" enable-background="new 8.5 21 163 18" xml:space="preserve">
<g>
	<path fill="#010101" d="M21.6,23.3v2.2c-1.4-1.4-3-2.1-4.9-2.1c-1.8,0-3.3,0.7-4.6,2c-1.3,1.3-1.9,2.9-1.9,4.7s0.6,3.3,1.9,4.7
		c1.3,1.3,2.8,2,4.6,2c1.8,0,3.4-0.7,4.8-2.1v2.2c-1.4,1-3,1.6-4.8,1.6c-2.3,0-4.2-0.8-5.9-2.4c-1.6-1.6-2.5-3.5-2.5-5.8
		c0-2.3,0.8-4.3,2.5-5.9s3.6-2.5,5.9-2.5C18.6,21.7,20.2,22.2,21.6,23.3z"/>
	<path fill="#010101" d="M30.5,24.1c1.6-1.6,3.6-2.4,5.9-2.4c2.3,0,4.3,0.8,5.9,2.4c1.6,1.6,2.5,3.6,2.5,5.9s-0.8,4.2-2.5,5.9
		c-1.6,1.6-3.6,2.4-5.9,2.4c-2.3,0-4.3-0.8-5.9-2.4c-1.6-1.6-2.5-3.6-2.5-5.9C28.1,27.7,28.9,25.7,30.5,24.1z M41.1,25.3
		c-1.3-1.3-2.8-2-4.7-2c-1.8,0-3.4,0.7-4.7,2s-1.9,2.9-1.9,4.7c0,1.8,0.6,3.4,1.9,4.7c1.3,1.3,2.8,2,4.6,2c1.8,0,3.4-0.7,4.6-2
		c1.3-1.3,1.9-2.9,1.9-4.7C43,28.1,42.4,26.6,41.1,25.3z"/>
	<path fill="#010101" d="M53.2,22v14.4h4.4V38h-6.2V22H53.2z"/>
	<path fill="#010101" d="M65.5,22v14.4h4.4V38h-6.2V22H65.5z"/>
	<path fill="#010101" d="M75.9,38V22h8.3v1.7h-6.5v4.8H84V30h-6.3v6.3h6.5V38L75.9,38L75.9,38z"/>
	<path fill="#010101" d="M103.7,23.3v2.2c-1.4-1.4-3-2.1-4.9-2.1c-1.8,0-3.3,0.7-4.6,2c-1.3,1.3-1.9,2.9-1.9,4.7s0.6,3.3,1.9,4.7
		s2.8,2,4.6,2c1.8,0,3.4-0.7,4.8-2.1v2.2c-1.4,1-3,1.6-4.8,1.6c-2.3,0-4.2-0.8-5.9-2.4c-1.6-1.6-2.5-3.5-2.5-5.8
		c0-2.3,0.8-4.3,2.5-5.9c1.6-1.6,3.6-2.5,5.9-2.5C100.7,21.7,102.3,22.2,103.7,23.3z"/>
	<path fill="#010101" d="M115.2,23.6V38h-1.8V23.6h-3.9V22h9.6v1.7L115.2,23.6L115.2,23.6z"/>
	<path fill="#010101" d="M127.1,22v16h-1.8V22H127.1z"/>
	<path fill="#010101" d="M136.2,24.1c1.6-1.6,3.6-2.4,5.9-2.4c2.3,0,4.3,0.8,5.9,2.4c1.6,1.6,2.5,3.6,2.5,5.9s-0.8,4.2-2.5,5.9
		c-1.6,1.6-3.6,2.4-5.9,2.4c-2.3,0-4.3-0.8-5.9-2.4c-1.6-1.6-2.5-3.6-2.5-5.9S134.6,25.7,136.2,24.1z M146.8,25.3
		c-1.3-1.3-2.8-2-4.7-2c-1.8,0-3.4,0.7-4.7,2s-1.9,2.9-1.9,4.7c0,1.8,0.6,3.4,1.9,4.7c1.3,1.3,2.8,2,4.6,2c1.8,0,3.4-0.7,4.6-2
		c1.3-1.3,1.9-2.9,1.9-4.7C148.7,28.1,148.1,26.6,146.8,25.3z"/>
	<path fill="#010101" d="M157.3,38V21.3l12.5,13.1V22h1.8v16.8L159,25.6V38H157.3z"/>
</g>
</svg>
