<?xml version="1.0" encoding="utf-8"?>
<!-- Generator: Adobe Illustrator 18.1.1, SVG Export Plug-In . SVG Version: 6.00 Build 0)  -->
<svg version="1.1" id="Layer_1" xmlns="http://www.w3.org/2000/svg" xmlns:xlink="http://www.w3.org/1999/xlink" x="0px" y="0px"
	 viewBox="8 22 164 16" enable-background="new 8 22 164 16" xml:space="preserve">
<g>
	<path fill="#C7AF2E" d="M21.1,26.1c-0.7-0.8-1.5-1.3-2.3-1.7s-1.7-0.6-2.7-0.6c-0.8,0-1.6,0.2-2.3,0.5c-0.7,0.3-1.5,0.7-2,1.3
		c-0.6,0.6-1,1.3-1.3,2s-0.4,1.5-0.4,2.4c0,0.7,0.1,1.3,0.3,1.9c0.2,0.6,0.4,1.2,0.8,1.7c0.6,0.8,1.3,1.5,2.2,2
		c0.9,0.4,1.8,0.7,2.9,0.7c1,0,1.8-0.2,2.7-0.6c0.8-0.4,1.6-1,2.2-1.8v2.3c-0.8,0.5-1.5,1-2.4,1.2c-0.8,0.3-1.7,0.4-2.7,0.4
		c-0.8,0-1.6-0.1-2.3-0.4c-0.7-0.3-1.5-0.6-2.1-1c-1.1-0.8-1.9-1.7-2.5-2.8c-0.6-1.1-0.9-2.3-0.9-3.6c0-1.1,0.2-2.2,0.6-3.1
		c0.4-0.9,1-1.8,1.8-2.5c0.8-0.8,1.6-1.3,2.5-1.6c1-0.4,2-0.6,3-0.6c0.9,0,1.7,0.1,2.5,0.4s1.6,0.7,2.4,1.2L21.1,26.1L21.1,26.1z"/>
	<path fill="#C7AF2E" d="M43.5,30.1c0,1.1-0.2,2.1-0.6,3c-0.4,1-1,1.8-1.7,2.5c-0.8,0.8-1.6,1.3-2.6,1.7c-1,0.4-2,0.6-3,0.6
		s-2.1-0.2-3-0.6c-1-0.4-1.8-1-2.6-1.7c-0.8-0.8-1.3-1.6-1.7-2.5c-0.4-1-0.6-2-0.6-3c0-1.1,0.2-2.1,0.6-3c0.4-1,1-1.8,1.7-2.5
		c0.8-0.7,1.6-1.3,2.6-1.7c1-0.4,2-0.6,3-0.6s2.1,0.2,3,0.6c1,0.4,1.8,1,2.6,1.7c0.8,0.8,1.3,1.6,1.7,2.5C43.4,28,43.5,29,43.5,30.1
		z M35.6,36.2c0.8,0,1.6-0.1,2.3-0.4s1.4-0.8,2-1.3c0.6-0.6,1-1.3,1.3-2c0.3-0.8,0.4-1.5,0.4-2.3s-0.1-1.6-0.4-2.4
		c-0.3-0.8-0.8-1.4-1.3-2c-0.6-0.6-1.3-1-2-1.3c-0.8-0.3-1.5-0.4-2.3-0.4c-0.8,0-1.6,0.1-2.3,0.4c-0.8,0.3-1.4,0.8-2,1.3
		c-0.6,0.6-1,1.3-1.3,2c-0.3,0.8-0.4,1.5-0.4,2.3c0,0.8,0.1,1.6,0.4,2.3c0.3,0.8,0.8,1.4,1.3,2c0.6,0.6,1.3,1.1,2,1.3
		C34,36,34.7,36.2,35.6,36.2z"/>
	<path fill="#C7AF2E" d="M50.6,37.5v-15h1.8v13.2h5.6v1.7C58.1,37.5,50.6,37.5,50.6,37.5z"/>
	<path fill="#C7AF2E" d="M64.3,37.5v-15h1.8v13.2h5.6v1.7C71.7,37.5,64.3,37.5,64.3,37.5z"/>
	<path fill="#C7AF2E" d="M78,37.5v-15h7.9v1.6h-6.1v4.3h6.1v1.6h-6.1v5.7h6.1v1.6C85.9,37.5,78,37.5,78,37.5z"/>
	<path fill="#C7AF2E" d="M105.2,26.1c-0.7-0.8-1.5-1.3-2.3-1.7s-1.7-0.6-2.7-0.6c-0.8,0-1.6,0.2-2.3,0.5c-0.7,0.3-1.4,0.8-2,1.3
		c-0.6,0.6-1,1.3-1.3,2c-0.3,0.7-0.4,1.5-0.4,2.4c0,0.7,0.1,1.3,0.3,1.9c0.2,0.6,0.4,1.1,0.8,1.6c0.6,0.8,1.3,1.5,2.2,2
		c0.9,0.4,1.8,0.7,2.9,0.7c1,0,1.8-0.2,2.7-0.6c0.8-0.4,1.6-1,2.2-1.8v2.3c-0.8,0.5-1.5,1-2.4,1.2c-0.8,0.3-1.7,0.4-2.7,0.4
		c-0.8,0-1.6-0.1-2.3-0.4c-0.8-0.3-1.5-0.6-2.1-1c-1.1-0.8-1.9-1.7-2.5-2.8s-0.9-2.3-0.9-3.6c0-1.1,0.2-2.2,0.6-3.1
		c0.4-0.9,1-1.8,1.8-2.5c0.8-0.8,1.6-1.3,2.5-1.6s2-0.6,3-0.6c0.9,0,1.7,0.1,2.5,0.4c0.8,0.3,1.6,0.7,2.4,1.2v2.3H105.2z"/>
	<path fill="#C7AF2E" d="M115,37.5V24.2h-4.2v-1.7H121v1.7h-4.2v13.2H115z"/>
	<path fill="#C7AF2E" d="M127.2,37.5v-15h1.8v15C129,37.5,127.2,37.5,127.2,37.5z"/>
	<path fill="#C7AF2E" d="M152,30.1c0,1.1-0.2,2.1-0.6,3c-0.4,1-1,1.8-1.7,2.5c-0.8,0.8-1.6,1.3-2.6,1.7c-1,0.4-2,0.6-3,0.6
		c-1.1,0-2.1-0.2-3-0.6c-1-0.4-1.8-1-2.6-1.7c-0.8-0.8-1.3-1.6-1.7-2.5c-0.4-1-0.6-2-0.6-3c0-1.1,0.2-2.1,0.6-3c0.4-1,1-1.8,1.7-2.5
		c0.8-0.7,1.6-1.3,2.6-1.7c1-0.4,2-0.6,3-0.6c1.1,0,2.1,0.2,3,0.6c1,0.4,1.8,1,2.6,1.7c0.8,0.8,1.3,1.6,1.7,2.5
		C151.8,28,152,29,152,30.1z M144.1,36.2c0.8,0,1.6-0.1,2.3-0.4s1.4-0.8,2-1.3c0.6-0.6,1-1.3,1.3-2c0.3-0.7,0.4-1.5,0.4-2.3
		s-0.1-1.6-0.4-2.4c-0.3-0.8-0.8-1.4-1.3-2c-0.6-0.6-1.3-1-2-1.3c-0.7-0.3-1.5-0.4-2.3-0.4s-1.6,0.1-2.3,0.4c-0.8,0.3-1.4,0.8-2,1.3
		c-0.6,0.6-1,1.3-1.3,2c-0.3,0.8-0.4,1.5-0.4,2.3c0,0.8,0.1,1.6,0.4,2.3c0.3,0.8,0.8,1.4,1.3,2c0.6,0.6,1.3,1.1,2,1.3
		C142.4,36,143.2,36.2,144.1,36.2z"/>
	<path fill="#C7AF2E" d="M159.1,37.5V22L170,33.9V22.5h1.7V38l-10.9-11.8v11.2C160.8,37.5,159.1,37.5,159.1,37.5z"/>
</g>
</svg>
