<?xml version="1.0" encoding="utf-8"?>
<!-- Generator: Adobe Illustrator 18.1.1, SVG Export Plug-In . SVG Version: 6.00 Build 0)  -->
<svg version="1.1" id="Layer_1" xmlns="http://www.w3.org/2000/svg" xmlns:xlink="http://www.w3.org/1999/xlink" x="0px" y="0px"
	 viewBox="0 0 210 60" enable-background="new 0 0 210 60" xml:space="preserve">
<g>
	<g>
		<path fill="#C8B02E" d="M23.7,8.6c0,0.5-0.2,1-0.7,1.6c-0.5,0.6-1.1,1-1.8,1.4c-0.6,0.3-1.1,0.6-1.6,0.9c-0.5,0.2-1,0.5-1.5,0.7
			c0.8,0.1,1.4,0.4,2,0.8c0.5,0.4,0.8,0.9,0.9,1.5c0.3,0.1,0.7,0.3,1.2,0.5c0.3,0.1,0.5,0.2,0.7,0.3c0,0,0,0,0,0.1c0,0,0,0.1,0,0.1
			c0,0,0,0.1-0.1,0.1c0,0-0.1,0-0.1,0c-0.2-0.1-0.4-0.1-0.6-0.3c-0.6-0.2-1-0.4-1.2-0.4c-0.5,1-1.4,1.8-2.8,2.6
			c-1.4,0.8-2.6,1.1-3.8,1.1c-0.6,0-1-0.1-1.4-0.2c-0.3-0.2-0.5-0.4-0.6-0.8c0-0.8,0.7-1.6,2-2.4c1.3-0.7,2.7-1.1,4.1-1.1
			c0,0,0.1,0,0.1,0c0.2,0,0.5,0.1,1,0.1c0,0,0-0.1,0-0.1c0,0,0-0.1,0-0.1c0-0.4-0.2-0.8-0.5-1.1c-0.3-0.3-0.7-0.5-1.2-0.5
			c-0.1,0-0.4,0-0.8,0c-0.4,0-0.8,0.1-1.1,0.1c-0.1,0-0.1,0-0.2-0.1c0,0-0.1-0.1-0.1-0.2c0,0,0-0.1,0-0.1c0,0,0,0,0.1-0.1
			c1.9-0.6,3.5-1.3,4.7-2.1c1.2-0.9,1.8-1.7,1.8-2.5C22.2,8.3,22,8,21.7,7.8c-0.3-0.2-0.7-0.4-1.2-0.4c-0.6,0-1.2,0.1-1.9,0.3
			c-0.7,0.2-1.4,0.4-2.2,0.8c-2,0.9-4,2.2-6.1,3.9c-2,1.7-3,3.1-3,4.2c0,0.2,0,0.4,0.1,0.5c0.1,0.1,0.2,0.2,0.3,0.3
			c1-0.3,2.2-1,3.5-2.2c1.4-1.2,2.5-2.5,3.5-3.9c0,0,0,0,0,0c0,0,0,0,0.1,0c0.1,0,0.1,0,0.1,0.1c0,0,0,0.1,0,0.2
			c-1.1,1.8-2.5,3.5-4.1,4.9C9.3,17.8,8,18.5,7,18.5c-0.3-0.1-0.6-0.3-0.9-0.5c-0.2-0.3-0.4-0.5-0.4-0.8c0-1.5,1-3.2,3.1-4.9
			c2.1-1.8,4.5-3.2,7.3-4.3C17,7.7,18,7.4,19,7.1c1-0.3,1.7-0.4,2.1-0.4c0.7,0,1.2,0.1,1.5,0.2C23,7,23.3,7.2,23.5,7.6
			c0,0.2,0.1,0.3,0.1,0.5C23.6,8.3,23.7,8.4,23.7,8.6z M19.1,16.1C19.1,16.1,19.1,16.1,19.1,16.1c0-0.1,0-0.1,0-0.1
			c0-0.1,0-0.1,0-0.2c0,0-0.1-0.1-0.1-0.1c-0.1,0-0.3,0-0.5,0c-0.2,0-0.3,0-0.3,0c-1,0-2,0.2-2.9,0.7c-0.9,0.5-1.6,1.1-2,1.8
			c0.1,0.2,0.3,0.3,0.7,0.5c0.1,0,0.1,0.1,0.1,0.1c0.9,0,1.8-0.3,2.8-0.8C17.8,17.5,18.6,16.9,19.1,16.1z"/>
		<path fill="#C8B02E" d="M36.1,16.8C36.1,16.8,36.1,16.8,36.1,16.8c0,0.1,0,0.1-0.1,0.1c-0.7,0.5-1.5,0.9-2.4,1.4
			c-0.9,0.4-2,0.9-3.3,1.5c-0.7,1.8-1.6,3.5-2.8,5c-1.1,1.5-2.4,2.8-3.8,3.9c-0.5,0.4-1.2,0.8-2,1.1c-0.8,0.3-1.4,0.5-1.8,0.5
			c-0.5-0.1-0.9-0.3-1.2-0.5c-0.3-0.3-0.4-0.6-0.4-1c0-1,1.1-2.4,3.3-4.3c2.2-1.8,4.8-3.6,7.8-5.2c0.2-0.4,0.4-0.8,0.5-1.4
			c0.1-0.5,0.2-0.9,0.2-1.3v-0.4l-2.1,1c-0.1,0-0.2,0.1-0.5,0.2c-1.5,0.7-2.4,1.1-2.7,1.1c-0.5,0-0.8-0.1-1-0.4
			c-0.2-0.2-0.4-0.6-0.4-1.1c0-0.1,0.1-0.3,0.2-0.6c0.1-0.2,0.4-0.6,0.8-1c0.1-0.1,0.2-0.3,0.4-0.5c0.2-0.2,0.3-0.3,0.4-0.4
			c0,0,0.1-0.1,0.1-0.1c0.1,0,0.1,0,0.2,0c0.1,0,0.3,0,0.4,0.1c0.1,0,0.2,0.1,0.2,0.1c0,0.1-0.1,0.2-0.2,0.5
			c-0.1,0.2-0.3,0.5-0.6,0.8c0,0-0.1,0.1-0.2,0.2c-0.3,0.3-0.4,0.6-0.5,0.7c0,0.2,0,0.4,0.1,0.5c0.1,0.1,0.1,0.2,0.3,0.2
			c0.9,0,1.8-0.2,2.7-0.7c0.9-0.5,2-1.2,3.3-2.3c0,0,0.1-0.1,0.1-0.1c0,0,0.1,0,0.1,0c0.1,0,0.2,0,0.3,0.1c0.1,0,0.1,0.1,0.1,0.1
			c-0.2,0.6-0.4,1.4-0.6,2.2c-0.2,0.9-0.3,1.5-0.4,2c0.9-0.2,1.8-0.6,2.7-1c0.9-0.4,1.8-0.9,2.6-1.4c0,0,0,0,0.1,0c0,0,0,0,0.1,0
			c0,0,0.1,0,0.1,0.1C36.1,16.7,36.1,16.7,36.1,16.8z M28.8,20.4c-2.4,1.1-4.4,2.4-6.2,3.9c-1.8,1.5-2.7,2.8-2.9,3.9
			c0,0.2,0.1,0.3,0.3,0.5c0.1,0.2,0.3,0.3,0.5,0.3c1.1-0.1,2.5-1,4.2-2.5c1.7-1.6,3-3.3,4.1-5.3c0.1-0.1,0.1-0.2,0.1-0.4
			C28.8,20.7,28.8,20.6,28.8,20.4z"/>
		<path fill="#C8B02E" d="M51.1,16.8C51.1,16.8,51.1,16.8,51.1,16.8c0,0.1,0,0.1-0.1,0.1c-0.5,0.3-1.2,0.6-1.9,0.8
			c-0.7,0.2-1.3,0.3-1.8,0.3s-0.9-0.1-1.4-0.2s-0.8-0.3-1.1-0.6c-0.9,0.6-1.7,1.1-2.4,1.4c-0.7,0.3-1.3,0.5-1.9,0.5
			c-0.3,0-0.6-0.1-0.8-0.2c-0.2-0.2-0.3-0.4-0.3-0.6c0-0.9,0.7-1.9,2.1-2.9c1.4-1,2.7-1.6,4-1.8c0.1,0,0.3,0.1,0.5,0.3
			c0.2,0.2,0.3,0.3,0.4,0.5c0,0.1,0,0.3-0.1,0.4s-0.2,0.2-0.3,0.3c-0.1,0-0.2,0-0.3-0.1c-0.1-0.1-0.2-0.2-0.3-0.2c0,0,0,0-0.1,0
			c0,0-0.1,0-0.1,0c-0.8,0-1.7,0.4-2.8,1.3c-1.1,0.9-1.6,1.5-1.6,1.9c0,0.1,0,0.3,0.2,0.4c0.1,0.1,0.2,0.2,0.4,0.2
			c0.9-0.1,1.7-0.5,2.5-1s1.4-1.2,1.9-2h0c0.1,0,0.3,0.1,0.5,0.2c0.2,0.1,0.3,0.2,0.4,0.3l-0.9,1c0.2,0.1,0.5,0.3,0.8,0.3
			c0.3,0.1,0.6,0.1,0.9,0.1c0.6,0,1.1-0.1,1.7-0.2c0.5-0.1,1.1-0.3,1.6-0.6c0,0,0,0,0,0c0,0,0,0,0.1,0c0,0,0.1,0,0.1,0.1
			C51.1,16.7,51.1,16.7,51.1,16.8z"/>
		<path fill="#C8B02E" d="M62.3,16.8C62.3,16.8,62.3,16.8,62.3,16.8c0,0.1,0,0.1-0.1,0.1c-0.6,0.3-1.3,0.6-2.1,0.7
			c-0.8,0.2-1.8,0.2-2.8,0.2c-0.1,0-0.2,0-0.3,0c-0.1,0-0.3,0-0.6,0C56,18,55.6,18.1,55,18.2c-0.6,0.1-1,0.2-1.3,0.2
			c0,0-0.1,0-0.1,0c0,0,0-0.1,0-0.1c0-0.1,0-0.1,0.1-0.2c0-0.1,0.1-0.1,0.1-0.1c0.9-0.3,1.7-0.6,2.3-1c0.6-0.4,1-1,1.4-1.6
			c0-0.2-0.1-0.4-0.2-0.6c-0.1-0.1-0.3-0.2-0.5-0.2c-0.4,0-0.9,0.1-1.5,0.4c-0.6,0.2-1.1,0.5-1.5,0.8c-0.8,3-2.2,6-4.3,9
			c-2.1,3-3.9,4.5-5.4,4.5c-0.1,0-0.3-0.1-0.4-0.3c-0.1-0.2-0.2-0.4-0.2-0.6c0-1.6,1-3.8,3-6.7c2-2.9,4.3-5.1,6.7-6.5
			c0.1-0.2,0.1-0.3,0.2-0.4c0.1-0.1,0.2-0.2,0.3-0.3c0.1,0,0.2,0,0.3,0.1c0.1,0,0.2,0.1,0.3,0.2c0.5-0.2,1-0.4,1.7-0.6
			c0.7-0.2,1.1-0.3,1.3-0.3c0.5,0,0.8,0.1,1.1,0.3c0.3,0.2,0.4,0.5,0.4,0.9c0,0.4-0.1,0.8-0.4,1.2c-0.3,0.4-0.7,0.8-1.2,1.1
			c0.1,0,0.1,0,0.3,0c0.3,0,0.6,0.1,0.8,0.1c1,0,1.8-0.1,2.4-0.2c0.6-0.1,1.1-0.3,1.6-0.6c0,0,0,0,0.1,0s0,0,0.1,0
			c0,0,0.1,0,0.1,0.1C62.3,16.7,62.3,16.7,62.3,16.8z M52.4,16.6c-1.9,1-3.7,2.6-5.3,5c-1.6,2.4-2.4,4.3-2.4,5.7
			c0,0.1,0,0.2,0.1,0.2c0,0.1,0.1,0.1,0.2,0.1c0.8-0.1,1.9-1.2,3.5-3.3c1.6-2.1,2.8-4.3,3.6-6.4c0.1-0.3,0.2-0.6,0.2-0.8
			C52.3,16.9,52.4,16.7,52.4,16.6z"/>
		<path fill="#C8B02E" d="M73.4,16.8C73.4,16.8,73.4,16.8,73.4,16.8c0,0.1,0,0.1-0.1,0.1c-0.6,0.3-1.3,0.6-2.1,0.7
			c-0.8,0.2-1.8,0.2-2.8,0.2c-0.1,0-0.2,0-0.3,0c-0.1,0-0.3,0-0.6,0c-0.4,0.1-0.9,0.2-1.5,0.3c-0.6,0.1-1,0.2-1.3,0.2
			c0,0-0.1,0-0.1,0c0,0,0-0.1,0-0.1c0-0.1,0-0.1,0.1-0.2c0-0.1,0.1-0.1,0.1-0.1c0.9-0.3,1.7-0.6,2.3-1c0.6-0.4,1-1,1.4-1.6
			c0-0.2-0.1-0.4-0.2-0.6c-0.1-0.1-0.3-0.2-0.5-0.2c-0.4,0-0.9,0.1-1.5,0.4c-0.6,0.2-1.1,0.5-1.5,0.8c-0.8,3-2.2,6-4.3,9
			c-2.1,3-3.9,4.5-5.4,4.5c-0.1,0-0.3-0.1-0.4-0.3c-0.1-0.2-0.2-0.4-0.2-0.6c0-1.6,1-3.8,3-6.7c2-2.9,4.3-5.1,6.7-6.5
			c0.1-0.2,0.1-0.3,0.2-0.4c0.1-0.1,0.2-0.2,0.3-0.3c0.1,0,0.2,0,0.3,0.1c0.1,0,0.2,0.1,0.3,0.2c0.5-0.2,1-0.4,1.7-0.6
			c0.7-0.2,1.1-0.3,1.3-0.3c0.5,0,0.8,0.1,1.1,0.3c0.3,0.2,0.4,0.5,0.4,0.9c0,0.4-0.2,0.8-0.4,1.2c-0.3,0.4-0.7,0.8-1.2,1.1
			c0.1,0,0.1,0,0.3,0c0.3,0,0.6,0.1,0.8,0.1c1,0,1.8-0.1,2.4-0.2c0.6-0.1,1.1-0.3,1.6-0.6c0,0,0,0,0.1,0c0,0,0,0,0.1,0
			c0,0,0.1,0,0.1,0.1C73.4,16.7,73.4,16.7,73.4,16.8z M63.5,16.6c-1.9,1-3.7,2.6-5.3,5c-1.6,2.4-2.4,4.3-2.4,5.7
			c0,0.1,0,0.2,0.1,0.2c0,0.1,0.1,0.1,0.2,0.1c0.8-0.1,1.9-1.2,3.5-3.3c1.6-2.1,2.8-4.3,3.6-6.4c0.1-0.3,0.2-0.6,0.2-0.8
			C63.5,16.9,63.5,16.7,63.5,16.6z"/>
		<path fill="#C8B02E" d="M83.6,16.8C83.6,16.8,83.6,16.8,83.6,16.8c0,0.1,0,0.1-0.1,0.1c-0.4,0.2-0.8,0.3-1.2,0.5
			c-0.4,0.1-0.8,0.2-1.2,0.2c-0.4,0-0.9-0.1-1.4-0.2c-0.5-0.2-0.9-0.3-1.2-0.6c-0.2,0.3-0.4,0.6-0.7,0.9c-0.3,0.3-0.5,0.5-0.7,0.7
			c-0.3,0.2-0.6,0.3-1,0.5c-0.4,0.2-0.7,0.2-1,0.2c-0.7,0-1.2-0.2-1.5-0.5c-0.4-0.3-0.5-0.7-0.5-1.3c0-0.4,0.1-0.8,0.3-1.2
			c0.2-0.4,0.4-0.8,0.8-1.1c0.3-0.3,0.6-0.5,1-0.7c0.4-0.2,0.7-0.3,1-0.3c0,0,0.1,0,0.2,0c0.1,0,0.2,0,0.3,0h0.1
			c0.1-0.1,0.1-0.2,0.2-0.3c0.1-0.1,0.2-0.1,0.3-0.1c0.1,0,0.1,0,0.2,0c0.1,0,0.2,0,0.3,0.1c0.3,0.1,0.5,0.4,0.7,0.7
			c0.2,0.3,0.2,0.7,0.2,1.2c0.1,0.4,0.4,0.8,0.9,1c0.4,0.3,1,0.4,1.6,0.4c0.5,0,1,0,1.3-0.1c0.4-0.1,0.7-0.2,1-0.4c0,0,0,0,0,0
			c0,0,0,0,0.1,0c0,0,0.1,0,0.1,0.1C83.6,16.7,83.6,16.7,83.6,16.8z M77.9,16.3c-0.4-0.3-0.7-0.6-0.8-0.8c-0.2-0.2-0.3-0.5-0.4-0.7
			c-0.7,0-1.3,0.3-1.8,0.9c-0.5,0.6-0.8,1-0.8,1.5c0,0.4,0.1,0.7,0.3,0.9c0.2,0.2,0.5,0.4,0.9,0.4c0.7,0,1.2-0.2,1.7-0.6
			C77.6,17.4,77.8,16.9,77.9,16.3z"/>
		<path fill="#C8B02E" d="M89.7,16.8C89.7,16.8,89.7,16.8,89.7,16.8c0,0.1,0,0.1-0.1,0.1c-0.7,0.5-1.5,0.8-2.5,1.2
			c-1,0.3-1.8,0.5-2.4,0.5c-0.5,0-0.9-0.1-1.2-0.3C83.2,18,83,17.7,83,17.3c0-0.2,0-0.4,0.1-0.6c0.1-0.2,0.1-0.4,0.3-0.6l1.1-1.9
			c0-0.1,0.1-0.2,0.2-0.2c0.1-0.1,0.2-0.1,0.3-0.1c0.1,0.1,0.2,0.1,0.3,0.2c0.1,0.1,0.1,0.2,0.2,0.3c-0.3,0.5-0.6,1-0.9,1.5
			c-0.2,0.4-0.4,0.7-0.4,0.8v0c0,0.1,0,0.3,0.1,0.5c0.1,0.2,0.2,0.3,0.3,0.4c0.2,0.1,0.3,0.1,0.5,0.1c0.1,0,0.2,0,0.4,0
			c0.5,0,1.2-0.1,2.1-0.4c0.8-0.2,1.5-0.5,2-0.8c0,0,0,0,0.1,0c0,0,0,0,0.1,0c0,0,0.1,0,0.1,0.1C89.7,16.7,89.7,16.7,89.7,16.8z
			 M87.7,10.1c-0.1,0.3-0.3,0.5-0.6,0.7c-0.3,0.2-0.5,0.3-0.8,0.3c-0.1-0.1-0.2-0.1-0.2-0.2c0-0.1-0.1-0.2-0.1-0.3
			c0-0.3,0.1-0.5,0.2-0.8c0.1-0.3,0.3-0.5,0.6-0.6h0.3c0.1,0,0.1,0.1,0.2,0.1c0,0.1,0.1,0.2,0.1,0.3c0,0,0,0.1,0,0.1
			C87.7,10,87.7,10.1,87.7,10.1z"/>
		<path fill="#C8B02E" d="M101.5,16.8C101.5,16.8,101.5,16.8,101.5,16.8c0,0.1,0,0.1-0.1,0.1c-1.2,0.6-2.1,1.1-2.9,1.3
			c-0.8,0.3-1.5,0.4-2.1,0.4c-0.4,0-0.7-0.2-0.9-0.7c-0.3-0.4-0.5-1.1-0.7-2.1c-0.1,0-0.2-0.1-0.4-0.2c0,0-0.1,0-0.1,0
			c-0.6,0.1-1.4,0.4-2.4,1.1c-1,0.7-2.2,1.6-3.4,2.7c-0.1,0-0.3-0.1-0.4-0.2C88,19.2,88,19.1,88,18.9c0-0.1,0.1-0.3,0.2-0.5
			c0,0,0-0.1,0-0.1c0.1-0.1,0.2-0.3,0.4-0.6c0.7-1.2,1.1-2,1.3-2.5c0.1-0.1,0.2-0.2,0.4-0.2c0.1-0.1,0.3-0.1,0.4-0.1
			c0.1,0,0.1,0,0.2,0c0.1,0,0.1,0.1,0.1,0.1c0,0,0,0,0,0c0,0,0,0,0,0c-0.1,0.2-0.2,0.7-0.5,1.3c-0.3,0.6-0.4,0.9-0.4,1
			c1.6-1.2,2.7-2,3.4-2.4c0.7-0.4,1.2-0.6,1.5-0.6c0.2,0,0.3,0.1,0.5,0.3c0.2,0.2,0.4,0.7,0.6,1.4c0,0,0,0.1,0.1,0.2
			c0.3,1,0.7,1.5,0.9,1.5c0.7,0,1.4-0.1,2-0.3c0.7-0.2,1.4-0.5,2.2-1c0,0,0,0,0.1,0c0,0,0,0,0.1,0c0,0,0.1,0,0.1,0.1
			C101.5,16.7,101.5,16.7,101.5,16.8z"/>
		<path fill="#C8B02E" d="M110.3,12.3c0,0.1-0.1,0.2-0.2,0.3c-0.1,0.1-0.3,0.2-0.4,0.2c-0.6,0-1.2,0-1.8,0c-0.5,0-1.2,0-1.9,0
			c-0.5,0.6-1,1.3-1.7,1.9c-0.7,0.7-1.3,1.3-2,1.8c0,0,0,0.1,0,0.1c0,0,0,0.1,0,0.2c0.1,0.3,0.2,0.5,0.6,0.8c0.3,0.3,0.6,0.4,1,0.5
			c1,0,2.1-0.1,3-0.4c1-0.3,1.9-0.6,2.8-1.2c0,0,0,0,0.1,0c0,0,0,0,0.1,0c0,0,0.1,0,0.1,0.1c0,0,0,0.1,0,0.2c0,0,0,0.1,0,0.1
			c0,0,0,0-0.1,0c-0.9,0.6-1.9,1.1-3.1,1.4c-1.2,0.4-2.3,0.5-3.3,0.5c-0.7,0-1.3-0.2-1.7-0.5c-0.4-0.3-0.6-0.8-0.6-1.5
			c0-0.5,0.1-1.1,0.4-1.8c0.2-0.7,0.6-1.4,1-2.1c-0.5,0-1.4,0.1-2.4,0.2c-0.2,0-0.4,0-0.5,0c0.1-0.2,0.2-0.4,0.3-0.5
			c0.1-0.2,0.3-0.3,0.4-0.4c0.7,0,1.5,0,2.3-0.1c0.2,0,0.3,0,0.4,0c0.6-0.8,1.2-1.5,1.9-2.1c0.7-0.6,1.3-0.9,1.7-0.9
			c0.1,0,0.3,0,0.3,0.1c0.1,0.1,0.1,0.2,0.1,0.4c0,0.4-0.1,0.8-0.2,1.2c-0.2,0.4-0.4,0.9-0.7,1.3c0.9,0,1.6,0,2.1,0
			C109,12.3,109.6,12.3,110.3,12.3z M105.4,12.8l-1.6,0c-0.3,0.5-0.6,1-0.9,1.6c-0.3,0.5-0.5,0.9-0.6,1.3c0.5-0.4,1.1-0.8,1.6-1.4
			C104.5,13.8,105,13.3,105.4,12.8z M106.5,10.6c0-0.1,0-0.2,0-0.2c0-0.1-0.1-0.1-0.1-0.1c-0.3,0.1-0.6,0.3-0.8,0.5
			c-0.3,0.2-0.5,0.5-0.8,0.9c-0.1,0.1-0.1,0.2-0.2,0.3c-0.1,0.1-0.1,0.2-0.2,0.2c0.4,0,0.8,0,1,0c0.2,0,0.4,0,0.6,0
			c0.2-0.3,0.4-0.6,0.5-0.9C106.4,11.1,106.5,10.8,106.5,10.6z"/>
		<path fill="#C8B02E" d="M127.5,16.8C127.5,16.8,127.5,16.8,127.5,16.8c0,0.1,0,0.1-0.1,0.1c-1.2,0.7-2.1,1.2-2.8,1.4
			c-0.7,0.3-1.3,0.4-1.7,0.4c-0.3,0-0.7-0.2-1-0.5c-0.3-0.3-0.6-0.8-0.8-1.6c0-0.1-0.1-0.2-0.2-0.4c-0.1-0.3-0.2-0.5-0.2-0.5
			c-0.5,0.1-1,0.3-1.5,0.6c-0.6,0.3-1.2,0.7-1.8,1.1c-0.2,0.2-0.5,0.4-0.9,0.7c-0.4,0.3-0.6,0.5-0.7,0.5c-0.3,0-0.5-0.1-0.7-0.2
			c-0.1-0.1-0.2-0.3-0.2-0.6c0-0.1,0-0.3,0.1-0.7c0.1-0.3,0.2-0.8,0.5-1.6c0-0.1-0.1-0.2-0.2-0.3c-0.2-0.1-0.3-0.2-0.4-0.2
			c-0.4,0-1.2,0.4-2.4,1.1c-1.2,0.7-2.4,1.7-3.7,2.7c-0.2,0-0.3,0-0.4-0.1c-0.1-0.1-0.2-0.3-0.2-0.5c0.5-0.7,0.9-1.4,1.2-2.1
			c0.3-0.7,0.6-1.4,0.9-2.2c0.2,0,0.3,0,0.4,0.1c0.1,0.1,0.2,0.2,0.3,0.3V15c0,0.1-0.1,0.4-0.2,0.7c0,0.1-0.1,0.1-0.1,0.2
			c-0.1,0.2-0.1,0.4-0.2,0.6c-0.1,0.2-0.1,0.4-0.1,0.6c0.3-0.2,1.1-0.7,2.6-1.6s2.3-1.4,2.5-1.5c0.3,0.1,0.5,0.2,0.7,0.3
			c0.1,0.1,0.2,0.3,0.2,0.6c0,0.1,0,0.2,0,0.4c0,0.2-0.1,0.4-0.1,0.6c0,0,0,0.1,0,0.1c-0.1,0.4-0.1,0.8-0.1,1c0,0.1,0,0.2,0,0.3
			c0,0.1,0,0.2,0,0.3c0.2-0.1,0.5-0.3,0.8-0.5c0.3-0.2,0.7-0.4,1.1-0.7c0.2-0.1,0.4-0.2,0.7-0.4c1.2-0.8,1.9-1.2,2-1.2
			c0.3,0,0.6,0.1,0.8,0.2c0.2,0.1,0.3,0.4,0.4,0.7c0.2,1,0.4,1.6,0.6,1.8c0.2,0.2,0.6,0.4,1,0.4c0.3,0,0.8-0.2,1.6-0.5
			c0.8-0.3,1.4-0.6,1.9-0.8c0,0,0,0,0,0c0,0,0.1,0,0.1,0c0.1,0,0.1,0,0.1,0.1C127.5,16.7,127.5,16.7,127.5,16.8z"/>
		<path fill="#C8B02E" d="M136,16.8C136,16.8,136,16.8,136,16.8c0,0.1,0,0.1-0.1,0.1c-1.1,0.7-2.2,1.2-3.3,1.5
			c-1.1,0.3-2.2,0.5-3.3,0.5c-0.8,0-1.4-0.2-1.8-0.6c-0.5-0.4-0.7-1-0.7-1.7c0-0.8,0.4-1.5,1.2-2.4c0.8-0.8,1.7-1.3,2.7-1.3
			c0.4,0.1,0.6,0.1,0.8,0.3c0.2,0.1,0.3,0.4,0.3,0.7c0,0.5-0.3,1-0.9,1.5c-0.6,0.5-1.5,1-2.8,1.6l0.2,0.4c0.2,0.2,0.4,0.4,0.8,0.6
			c0.3,0.1,0.7,0.2,1,0.3c0.8,0,1.7-0.1,2.8-0.4c1-0.3,1.9-0.7,2.7-1.1c0,0,0,0,0.1,0c0,0,0,0,0.1,0c0.1,0,0.1,0,0.1,0.1
			C136,16.7,136,16.7,136,16.8z M131,14.1c-0.1-0.1-0.1-0.2-0.2-0.2c-0.1,0-0.1-0.1-0.2-0.1c-0.4,0-0.9,0.3-1.6,0.9
			c-0.6,0.6-1,1.1-1.1,1.6c0.7-0.1,1.4-0.3,2-0.8C130.7,15,131,14.5,131,14.1z"/>
		<path fill="#C8B02E" d="M147.8,16.8C147.8,16.8,147.8,16.8,147.8,16.8c0,0.1-0.1,0.1-0.1,0.1c-1.2,0.6-2.1,1.1-2.9,1.3
			c-0.8,0.3-1.5,0.4-2.1,0.4c-0.4,0-0.7-0.2-0.9-0.7c-0.3-0.4-0.5-1.1-0.7-2.1c-0.1,0-0.2-0.1-0.4-0.2c0,0-0.1,0-0.1,0
			c-0.6,0.1-1.4,0.4-2.4,1.1c-1,0.7-2.2,1.6-3.4,2.7c-0.1,0-0.3-0.1-0.4-0.2c-0.1-0.1-0.2-0.2-0.2-0.3c0-0.1,0.1-0.3,0.2-0.5
			c0,0,0-0.1,0-0.1c0.1-0.1,0.2-0.3,0.4-0.6c0.7-1.2,1.1-2,1.3-2.5c0.1-0.1,0.2-0.2,0.4-0.2c0.1-0.1,0.3-0.1,0.4-0.1
			c0.1,0,0.1,0,0.2,0c0,0,0.1,0.1,0.1,0.1c0,0,0,0,0,0c0,0,0,0,0,0c-0.1,0.2-0.2,0.7-0.5,1.3c-0.3,0.6-0.4,0.9-0.4,1
			c1.6-1.2,2.7-2,3.4-2.4c0.7-0.4,1.2-0.6,1.5-0.6c0.2,0,0.3,0.1,0.5,0.3c0.2,0.2,0.4,0.7,0.6,1.4c0,0,0,0.1,0.1,0.2
			c0.3,1,0.6,1.5,0.9,1.5c0.7,0,1.4-0.1,2-0.3c0.7-0.2,1.4-0.5,2.2-1c0,0,0,0,0.1,0c0,0,0,0,0.1,0c0,0,0.1,0,0.1,0.1
			C147.8,16.7,147.8,16.7,147.8,16.8z"/>
		<path fill="#C8B02E" d="M156.6,12.3c0,0.1-0.1,0.2-0.2,0.3c-0.1,0.1-0.3,0.2-0.4,0.2c-0.6,0-1.2,0-1.8,0c-0.5,0-1.2,0-1.9,0
			c-0.5,0.6-1,1.3-1.7,1.9c-0.7,0.7-1.3,1.3-2,1.8c0,0,0,0.1,0,0.1c0,0,0,0.1,0,0.2c0.1,0.3,0.2,0.5,0.5,0.8c0.3,0.3,0.6,0.4,1,0.5
			c1,0,2-0.1,3-0.4c1-0.3,1.9-0.6,2.8-1.2c0,0,0,0,0.1,0c0,0,0.1,0,0.1,0c0.1,0,0.1,0,0.1,0.1c0,0,0.1,0.1,0.1,0.2c0,0,0,0.1,0,0.1
			c0,0,0,0-0.1,0c-0.9,0.6-1.9,1.1-3.1,1.4c-1.2,0.4-2.3,0.5-3.3,0.5c-0.7,0-1.3-0.2-1.7-0.5c-0.4-0.3-0.6-0.8-0.6-1.5
			c0-0.5,0.1-1.1,0.4-1.8c0.2-0.7,0.6-1.4,1-2.1c-0.5,0-1.4,0.1-2.4,0.2c-0.2,0-0.4,0-0.5,0c0.1-0.2,0.2-0.4,0.3-0.5
			c0.1-0.2,0.2-0.3,0.4-0.4c0.7,0,1.5,0,2.3-0.1c0.2,0,0.3,0,0.4,0c0.6-0.8,1.2-1.5,1.9-2.1c0.7-0.6,1.3-0.9,1.7-0.9
			c0.1,0,0.2,0,0.3,0.1c0.1,0.1,0.1,0.2,0.1,0.4c0,0.4-0.1,0.8-0.2,1.2c-0.2,0.4-0.4,0.9-0.7,1.3c0.9,0,1.6,0,2.1,0
			C155.4,12.3,156,12.3,156.6,12.3z M151.8,12.8l-1.6,0c-0.3,0.5-0.6,1-0.9,1.6c-0.3,0.5-0.5,0.9-0.6,1.3c0.5-0.4,1.1-0.8,1.6-1.4
			C150.9,13.8,151.4,13.3,151.8,12.8z M152.8,10.6c0-0.1,0-0.2,0-0.2c0-0.1-0.1-0.1-0.1-0.1c-0.3,0.1-0.6,0.3-0.8,0.5
			c-0.3,0.2-0.6,0.5-0.8,0.9c0,0.1-0.1,0.2-0.2,0.3c-0.1,0.1-0.1,0.2-0.2,0.2c0.4,0,0.7,0,1,0c0.2,0,0.4,0,0.6,0
			c0.2-0.3,0.4-0.6,0.5-0.9C152.8,11.1,152.8,10.8,152.8,10.6z"/>
		<path fill="#C8B02E" d="M171.3,16.8C171.3,16.8,171.3,16.8,171.3,16.8c0,0.1,0,0.1-0.1,0.1c-0.4,0.2-0.8,0.3-1.2,0.5
			c-0.4,0.1-0.8,0.2-1.2,0.2c-0.4,0-0.9-0.1-1.4-0.2c-0.5-0.2-0.9-0.3-1.2-0.6c-0.2,0.3-0.4,0.6-0.7,0.9c-0.3,0.3-0.5,0.5-0.7,0.7
			c-0.3,0.2-0.6,0.3-1,0.5c-0.4,0.2-0.7,0.2-1,0.2c-0.7,0-1.2-0.2-1.5-0.5c-0.4-0.3-0.5-0.7-0.5-1.3c0-0.4,0.1-0.8,0.3-1.2
			c0.2-0.4,0.4-0.8,0.8-1.1c0.3-0.3,0.6-0.5,1-0.7c0.4-0.2,0.7-0.3,1-0.3c0,0,0.1,0,0.2,0c0.1,0,0.2,0,0.3,0h0.1
			c0.1-0.1,0.1-0.2,0.2-0.3c0.1-0.1,0.2-0.1,0.3-0.1c0.1,0,0.1,0,0.2,0c0.1,0,0.2,0,0.3,0.1c0.3,0.1,0.5,0.4,0.7,0.7
			c0.2,0.3,0.3,0.7,0.3,1.2c0.1,0.4,0.4,0.8,0.9,1c0.5,0.3,1,0.4,1.6,0.4c0.5,0,1,0,1.3-0.1c0.4-0.1,0.7-0.2,1-0.4c0,0,0,0,0.1,0
			c0,0,0,0,0.1,0c0,0,0.1,0,0.1,0.1C171.3,16.7,171.3,16.7,171.3,16.8z M165.6,16.3c-0.4-0.3-0.7-0.6-0.9-0.8
			c-0.2-0.2-0.3-0.5-0.4-0.7c-0.7,0-1.3,0.3-1.8,0.9c-0.5,0.6-0.7,1-0.7,1.5c0,0.4,0.1,0.7,0.3,0.9c0.2,0.2,0.5,0.4,0.9,0.4
			c0.7,0,1.2-0.2,1.7-0.6C165.2,17.4,165.5,16.9,165.6,16.3z"/>
		<path fill="#C8B02E" d="M183.1,16.8C183.1,16.8,183.1,16.8,183.1,16.8c0,0.1-0.1,0.1-0.1,0.1c-1.2,0.6-2.1,1.1-2.9,1.3
			c-0.8,0.3-1.5,0.4-2.1,0.4c-0.4,0-0.7-0.2-0.9-0.7c-0.2-0.4-0.5-1.1-0.7-2.1c-0.1,0-0.2-0.1-0.4-0.2c0,0-0.1,0-0.1,0
			c-0.6,0.1-1.4,0.4-2.4,1.1c-1,0.7-2.2,1.6-3.4,2.7c-0.1,0-0.3-0.1-0.4-0.2c-0.1-0.1-0.2-0.2-0.2-0.3c0-0.1,0.1-0.3,0.2-0.5
			c0,0,0-0.1,0-0.1c0.1-0.1,0.2-0.3,0.4-0.6c0.7-1.2,1.1-2,1.3-2.5c0.1-0.1,0.2-0.2,0.4-0.2c0.2-0.1,0.3-0.1,0.4-0.1
			c0.1,0,0.1,0,0.2,0c0,0,0.1,0.1,0.1,0.1c0,0,0,0,0,0c0,0,0,0,0,0c-0.1,0.2-0.2,0.7-0.5,1.3c-0.3,0.6-0.4,0.9-0.4,1
			c1.6-1.2,2.7-2,3.4-2.4c0.7-0.4,1.2-0.6,1.5-0.6c0.2,0,0.4,0.1,0.5,0.3c0.2,0.2,0.4,0.7,0.6,1.4c0,0,0,0.1,0.1,0.2
			c0.4,1,0.6,1.5,0.9,1.5c0.7,0,1.4-0.1,2-0.3c0.7-0.2,1.4-0.5,2.2-1c0,0,0,0,0.1,0c0,0,0.1,0,0.1,0c0,0,0.1,0,0.1,0.1
			C183.1,16.7,183.1,16.7,183.1,16.8z"/>
		<path fill="#C8B02E" d="M192.1,16.8C192.1,16.8,192.1,16.8,192.1,16.8c0,0.1,0,0.1-0.1,0.1c-1.2,0.7-2.2,1.2-3.2,1.5
			c-1,0.3-2,0.5-2.9,0.5c-1,0-1.8-0.2-2.3-0.6c-0.5-0.4-0.8-1-0.8-1.9c0-1.5,1-3.4,3-5.6c2-2.2,3.6-3.3,4.8-3.3
			c0.2,0,0.4,0.1,0.5,0.2c0.1,0.1,0.2,0.3,0.2,0.6c0,0.6-0.4,1.4-1.1,2.4c-0.7,1-1.6,1.9-2.7,2.8l-3.5,2.9c0.1,0.3,0.2,0.5,0.3,0.7
			c0.1,0.2,0.3,0.4,0.4,0.5c0.3,0.2,0.6,0.3,0.9,0.4c0.3,0.1,0.7,0.1,1,0.1c0.8,0,1.6-0.1,2.5-0.4c0.9-0.3,1.8-0.6,2.6-1.1
			c0,0,0,0,0.1,0c0,0,0,0,0.1,0c0,0,0.1,0,0.1,0.1C192.1,16.7,192.1,16.7,192.1,16.8z M190.3,8.9c0,0,0-0.1-0.1-0.1
			c0-0.1-0.1-0.2-0.2-0.3c-0.6,0-1.3,0.5-2.3,1.4c-0.9,0.9-1.8,2-2.6,3.3c-0.1,0.2-0.3,0.5-0.5,1c-0.2,0.4-0.4,0.8-0.5,1
			c1.4-0.7,2.8-1.8,4.1-3.1C189.6,10.8,190.3,9.7,190.3,8.9z"/>
		<path fill="#C8B02E" d="M204.2,16.8C204.2,16.8,204.2,16.8,204.2,16.8c0,0.1,0,0.1-0.1,0.1c-0.7,0.5-1.6,0.9-2.4,1.4
			c-0.9,0.4-2,0.9-3.4,1.5c-0.7,1.8-1.6,3.5-2.8,5c-1.1,1.5-2.4,2.8-3.8,3.9c-0.5,0.4-1.2,0.8-2,1.1c-0.8,0.3-1.4,0.5-1.8,0.5
			c-0.5-0.1-0.9-0.3-1.2-0.5c-0.3-0.3-0.4-0.6-0.4-1c0-1,1.1-2.4,3.3-4.3c2.2-1.8,4.8-3.6,7.8-5.2c0.2-0.4,0.4-0.8,0.5-1.4
			c0.1-0.5,0.2-0.9,0.2-1.3v-0.4l-2.1,1c-0.1,0-0.2,0.1-0.5,0.2c-1.5,0.7-2.4,1.1-2.7,1.1c-0.5,0-0.8-0.1-1-0.4
			c-0.2-0.2-0.4-0.6-0.4-1.1c0-0.1,0.1-0.3,0.2-0.6c0.2-0.2,0.4-0.6,0.8-1c0.1-0.1,0.2-0.3,0.4-0.5c0.2-0.2,0.3-0.3,0.4-0.4
			c0,0,0.1-0.1,0.1-0.1c0.1,0,0.1,0,0.2,0c0.1,0,0.3,0,0.4,0.1c0.1,0,0.2,0.1,0.2,0.1c0,0.1-0.1,0.2-0.2,0.5
			c-0.1,0.2-0.3,0.5-0.6,0.8c0,0-0.1,0.1-0.2,0.2c-0.3,0.3-0.4,0.6-0.5,0.7c0,0.2,0,0.4,0.1,0.5c0.1,0.1,0.1,0.2,0.3,0.2
			c0.9,0,1.8-0.2,2.7-0.7c0.9-0.5,2-1.2,3.3-2.3c0,0,0.1-0.1,0.1-0.1c0,0,0.1,0,0.1,0c0.1,0,0.2,0,0.3,0.1c0.1,0,0.1,0.1,0.1,0.1
			c-0.2,0.6-0.4,1.4-0.6,2.2c-0.2,0.9-0.4,1.5-0.4,2c0.9-0.2,1.8-0.6,2.7-1c0.9-0.4,1.8-0.9,2.6-1.4c0,0,0,0,0.1,0c0,0,0,0,0.1,0
			c0,0,0.1,0,0.1,0.1C204.2,16.7,204.2,16.7,204.2,16.8z M196.9,20.4c-2.4,1.1-4.4,2.4-6.2,3.9c-1.8,1.5-2.7,2.8-2.9,3.9
			c0,0.2,0.1,0.3,0.3,0.5c0.1,0.2,0.3,0.3,0.5,0.3c1.1-0.1,2.5-1,4.2-2.5c1.7-1.6,3-3.3,4.1-5.3c0-0.1,0.1-0.2,0.1-0.4
			C196.9,20.7,196.9,20.6,196.9,20.4z"/>
	</g>
	<g>
		<path fill="#020202" d="M51.4,51.7h-2.7l-0.7,1.5h-0.8l2.8-6.1l2.8,6.1h-0.8L51.4,51.7z M51.1,51l-1-2.4l-1,2.4H51.1z"/>
		<path fill="#020202" d="M55.6,50.7v2.4h-0.7v-5.8h0.8c0.9,0,1.5,0.1,1.8,0.4c0.4,0.3,0.5,0.7,0.5,1.3c0,0.6-0.2,1-0.6,1.3
			c-0.4,0.3-0.9,0.4-1.5,0.4L55.6,50.7L55.6,50.7z M55.6,48V50h0.2c0.2,0,0.4,0,0.6,0c0.2,0,0.3-0.1,0.5-0.1
			c0.2-0.1,0.3-0.2,0.4-0.3c0.1-0.1,0.1-0.3,0.1-0.6c0-0.2,0-0.4-0.1-0.5c-0.1-0.1-0.2-0.2-0.4-0.3c-0.2-0.1-0.3-0.1-0.5-0.1
			c-0.2,0-0.3,0-0.6,0L55.6,48L55.6,48z"/>
		<path fill="#020202" d="M61,50.7v2.4h-0.7v-5.8h0.8c0.9,0,1.5,0.1,1.8,0.4c0.4,0.3,0.5,0.7,0.5,1.3c0,0.6-0.2,1-0.6,1.3
			c-0.4,0.3-0.9,0.4-1.5,0.4L61,50.7L61,50.7z M61,48V50h0.2c0.2,0,0.4,0,0.6,0c0.2,0,0.3-0.1,0.5-0.1c0.2-0.1,0.3-0.2,0.4-0.3
			c0.1-0.1,0.1-0.3,0.1-0.6c0-0.2,0-0.4-0.1-0.5c-0.1-0.1-0.2-0.2-0.4-0.3C62,48.1,61.9,48,61.7,48c-0.2,0-0.3,0-0.6,0L61,48L61,48z
			"/>
		<path fill="#020202" d="M69.1,49.2l0.1-0.5h0.5l-0.4,2c0,0.1-0.1,0.3-0.1,0.4c0,0.2,0.1,0.2,0.2,0.2c0.2,0,0.4-0.2,0.6-0.5
			c0.2-0.3,0.3-0.6,0.3-1c0-0.6-0.2-1.1-0.6-1.5c-0.4-0.4-0.9-0.6-1.5-0.6c-0.6,0-1.2,0.2-1.6,0.7c-0.4,0.5-0.7,1-0.7,1.7
			c0,0.7,0.2,1.3,0.7,1.7s1,0.7,1.7,0.7c0.7,0,1.1-0.1,1.4-0.4l0.6,0.5c-0.3,0.2-0.6,0.3-0.9,0.4c-0.3,0.1-0.7,0.1-1.1,0.1
			c-0.8,0-1.5-0.3-2.1-0.9c-0.6-0.6-0.9-1.3-0.9-2.2c0-0.9,0.3-1.6,0.9-2.1c0.6-0.6,1.3-0.9,2.1-0.9c0.7,0,1.3,0.2,1.8,0.7
			c0.6,0.5,0.9,1.1,0.9,1.8c0,0.7-0.2,1.2-0.5,1.6c-0.2,0.2-0.4,0.4-0.6,0.5c-0.2,0.1-0.4,0.2-0.6,0.2c-0.2,0-0.4-0.2-0.4-0.5
			c-0.3,0.3-0.7,0.5-1,0.5c-0.3,0-0.6-0.1-0.9-0.4c-0.3-0.3-0.4-0.6-0.4-1c0-0.5,0.1-0.9,0.4-1.3c0.3-0.4,0.7-0.5,1.1-0.5
			C68.5,48.7,68.8,48.8,69.1,49.2z M68.9,50.2c0-0.3,0-0.5-0.2-0.7c-0.1-0.2-0.4-0.3-0.6-0.3c-0.3,0-0.5,0.1-0.7,0.4
			c-0.2,0.2-0.3,0.5-0.3,0.8c0,0.2,0.1,0.4,0.2,0.6c0.1,0.2,0.3,0.3,0.6,0.3c0.3,0,0.6-0.1,0.7-0.3C68.8,50.8,68.9,50.6,68.9,50.2z"
			/>
		<path fill="#020202" d="M76,53.2l-1.7-4h0l-0.7,3.8h-0.7l1.2-6.1l2,4.6l2-4.6l1.2,6.1h-0.7l-0.7-3.8h0L76,53.2z"/>
		<path fill="#020202" d="M81.4,53.1v-5.8h3.1V48h-2.4v1.6h2.3v0.7h-2.3v2.2h2.4v0.7L81.4,53.1L81.4,53.1z"/>
		<path fill="#020202" d="M88.7,50.6l1.8,2.5h-0.9L88,50.7h-0.3v2.5h-0.7v-5.8h0.9c0.2,0,0.4,0,0.5,0c0.1,0,0.3,0,0.5,0.1
			c0.2,0,0.4,0.1,0.5,0.2c0.2,0.1,0.4,0.3,0.6,0.6c0.1,0.3,0.2,0.5,0.2,0.8c0,0.4-0.1,0.8-0.4,1.1C89.5,50.4,89.1,50.5,88.7,50.6z
			 M87.7,48v2.1h0.2c0.2,0,0.4,0,0.6,0c0.2,0,0.3-0.1,0.5-0.1c0.2-0.1,0.3-0.2,0.4-0.3c0.1-0.2,0.1-0.3,0.1-0.6c0-0.7-0.5-1-1.6-1
			L87.7,48L87.7,48z"/>
		<path fill="#020202" d="M96.1,51.7h-2.7l-0.7,1.5H92l2.8-6.1l2.8,6.1h-0.8L96.1,51.7z M95.8,51l-1-2.4l-1,2.4H95.8z"/>
		<path fill="#020202" d="M100.3,49.8l2.5-2.5h0.9l-2.6,2.6l2.7,3.2h-1l-2.2-2.7l-0.3,0.3v2.4h-0.7v-5.8h0.7L100.3,49.8L100.3,49.8z
			"/>
		<path fill="#020202" d="M106.5,47.3v5.8h-0.7v-5.8H106.5z"/>
		<path fill="#020202" d="M110.1,47.3h0.7V51c0,0.3,0,0.6-0.1,0.8s-0.1,0.5-0.2,0.7c-0.1,0.2-0.3,0.4-0.5,0.5
			c-0.2,0.1-0.5,0.2-0.8,0.2c-0.3,0-0.6-0.1-0.9-0.3l0.4-0.6c0.2,0.1,0.4,0.2,0.6,0.2c0.1,0,0.2,0,0.3-0.1c0.1,0,0.2-0.1,0.2-0.1
			c0.1,0,0.1-0.1,0.1-0.2c0-0.1,0.1-0.2,0.1-0.3c0-0.1,0-0.2,0-0.3c0-0.1,0-0.2,0-0.3c0-0.1,0-0.1,0-0.3V47.3z"/>
		<path fill="#020202" d="M113.4,53.1v-5.8h3.1V48h-2.4v1.6h2.3v0.7h-2.3v2.2h2.4v0.7L113.4,53.1L113.4,53.1z"/>
		<path fill="#020202" d="M119.1,47.3l1.6,4.2l1.6-4.3l1.7,4.3l1.6-4.2h0.8l-2.4,6l-1.7-4.3l-1.6,4.3l-2.4-6H119.1z"/>
		<path fill="#020202" d="M128.4,53.1v-5.8h3.1V48h-2.4v1.6h2.3v0.7h-2.3v2.2h2.4v0.7L128.4,53.1L128.4,53.1z"/>
		<path fill="#020202" d="M134.7,47.3v5.1h1.8v0.7H134v-5.8H134.7z"/>
		<path fill="#020202" d="M138.7,52.5c0.1-0.1,0.2-0.1,0.3-0.1c0.1,0,0.2,0,0.3,0.1c0.1,0.1,0.1,0.2,0.1,0.3c0,0.1,0,0.2-0.1,0.3
			c-0.1,0.1-0.2,0.1-0.3,0.1c-0.1,0-0.2,0-0.3-0.1c-0.1-0.1-0.1-0.2-0.1-0.3C138.6,52.7,138.6,52.6,138.7,52.5z"/>
		<path fill="#020202" d="M146.5,47.6v0.8c-0.4-0.4-0.9-0.6-1.5-0.6c-0.6,0-1.2,0.2-1.6,0.7c-0.4,0.5-0.7,1-0.7,1.7
			c0,0.6,0.2,1.2,0.7,1.7c0.4,0.5,1,0.7,1.6,0.7c0.6,0,1.1-0.2,1.5-0.6v0.9c-0.5,0.3-1,0.4-1.5,0.4c-0.8,0-1.5-0.3-2.1-0.9
			c-0.6-0.6-0.9-1.3-0.9-2.1c0-0.9,0.3-1.6,0.9-2.2c0.6-0.6,1.3-0.9,2.2-0.9C145.6,47.2,146,47.3,146.5,47.6z"/>
		<path fill="#020202" d="M149.4,48.1c0.6-0.6,1.3-0.9,2.1-0.9c0.8,0,1.5,0.3,2.1,0.9c0.6,0.6,0.9,1.3,0.9,2.1
			c0,0.9-0.3,1.6-0.9,2.2c-0.6,0.6-1.3,0.9-2.2,0.9c-0.9,0-1.6-0.3-2.2-0.9c-0.6-0.6-0.9-1.3-0.9-2.2
			C148.5,49.4,148.8,48.7,149.4,48.1z M149.9,51.9c0.5,0.5,1,0.7,1.6,0.7c0.6,0,1.2-0.2,1.6-0.7c0.5-0.5,0.7-1,0.7-1.7
			c0-0.6-0.2-1.2-0.7-1.7c-0.4-0.5-1-0.7-1.7-0.7c-0.7,0-1.2,0.2-1.7,0.7c-0.4,0.5-0.6,1-0.6,1.7C149.2,50.9,149.4,51.4,149.9,51.9z
			"/>
		<path fill="#020202" d="M159.5,53.2l-1.7-4h0l-0.7,3.8h-0.7l1.2-6.1l2,4.6l2-4.6l1.2,6.1h-0.7l-0.7-3.8h0L159.5,53.2z"/>
	</g>
</g>
<g>
</g>
<g>
</g>
<g>
</g>
<g>
</g>
<g>
</g>
<g>
</g>
</svg>
