<?xml version="1.0" encoding="utf-8"?>
<!-- Generator: Adobe Illustrator 18.1.1, SVG Export Plug-In . SVG Version: 6.00 Build 0)  -->
<svg version="1.1" id="Layer_1" xmlns="http://www.w3.org/2000/svg" xmlns:xlink="http://www.w3.org/1999/xlink" x="0px" y="0px"
	 viewBox="240 90 480 95" enable-background="new 240 90 480 95" xml:space="preserve">
<g>
	<path fill="#C8B02E" d="M440.8,112C440.8,112.1,440.8,112.1,440.8,112c0,0.1,0,0.1-0.1,0.2c-0.6,0.3-1.2,0.5-1.9,0.6
		s-1.4,0.2-2.3,0.2c-1.9,0-4.6-0.5-7.9-1.6s-5-1.6-5.2-1.6c-0.7,0.4-1.5,0.7-2.3,1s-1.7,0.3-2.6,0.3c-0.6,0-1.1-0.1-1.5-0.3
		s-0.6-0.5-0.7-0.9c0-0.5,0.4-1,1.1-1.4s1.6-0.7,2.6-0.8c0.6,0,1.3,0,1.9,0.1s1.2,0.2,1.7,0.3c1.1-1.5,2.5-3.6,4.2-6.2l0.8-1.2
		c1.7-2.6,3.4-4.6,5.1-5.9s3.3-2,4.9-2c0.5,0,1,0.3,1.4,0.8s0.7,1.2,0.7,1.9c0,1.5-0.8,3-2.5,4.5s-3.4,2.4-5.1,2.9
		c-0.1,0-0.2,0-0.2-0.1s-0.1-0.1-0.1-0.2v0c0-0.1,0-0.2,0.1-0.2s0.1-0.1,0.2-0.1c1.4-0.5,2.7-1.6,4.1-3.3s2.1-3.1,2.1-4.1
		c0-0.5-0.1-0.8-0.3-1s-0.5-0.4-0.9-0.4c-0.8,0-1.7,0.4-2.6,1.2s-2,2.2-3.4,4.1l0,0c-3,4.3-5.5,7.5-7.5,9.6c0.5,0.2,1.2,0.4,2.3,0.8
		c5.7,2,9.3,3,11,3c0.5,0,1,0,1.3-0.1s0.8-0.2,1.1-0.3c0.1,0,0.2,0,0.2,0.1S440.8,112,440.8,112z M422.1,109.5
		c-0.6-0.2-1.1-0.3-1.4-0.3s-0.7-0.1-1-0.1c-0.4,0-0.9,0.1-1.3,0.3s-0.6,0.3-0.6,0.5v0c0.2,0.2,0.4,0.3,0.6,0.4s0.6,0.1,1.2,0.1
		c0.3,0,0.8-0.1,1.3-0.2s0.9-0.3,1.2-0.4c0.1,0,0.1,0,0.1-0.1S422.1,109.6,422.1,109.5L422.1,109.5z"/>
	<path fill="#C8B02E" d="M455.8,107.9c0,0.1,0,0.1,0,0.1s0,0.1-0.1,0.1c-0.5,0.3-1.1,0.5-1.8,0.7s-1.3,0.3-1.8,0.3
		c-0.6,0-1.3-0.1-2.1-0.4s-1.4-0.5-1.8-0.8c-0.3,0.4-0.6,0.9-1,1.4s-0.7,0.8-1,1c-0.4,0.3-0.9,0.5-1.4,0.7s-1.1,0.3-1.5,0.3
		c-1,0-1.7-0.2-2.3-0.7s-0.8-1.1-0.8-1.9c0-0.6,0.1-1.1,0.4-1.8s0.7-1.2,1.1-1.7c0.4-0.4,0.9-0.7,1.4-1s1-0.4,1.4-0.4
		c0,0,0.1,0,0.3,0s0.3,0,0.4,0h0.2c0.1-0.2,0.2-0.3,0.3-0.4s0.2-0.1,0.4-0.1c0.1,0,0.2,0,0.3,0s0.3,0.1,0.5,0.1c0.4,0.2,0.8,0.5,1,1
		s0.4,1.1,0.4,1.8c0.2,0.6,0.6,1.1,1.3,1.5s1.4,0.6,2.3,0.6c0.8,0,1.4-0.1,2-0.2s1-0.3,1.5-0.5c0,0,0,0,0.1,0s0.1,0,0.1,0
		c0.1,0,0.1,0,0.2,0.1S455.8,107.8,455.8,107.9z M447.4,107.1c-0.6-0.5-1-0.9-1.2-1.3s-0.4-0.7-0.5-1.1c-1,0-1.9,0.5-2.6,1.3
		s-1.1,1.5-1.1,2.2c0,0.6,0.1,1,0.4,1.3s0.7,0.5,1.3,0.6c1,0,1.8-0.3,2.5-0.9S447.3,108,447.4,107.1z"/>
	<path fill="#C8B02E" d="M477.8,107.9c0,0.1,0,0.1,0,0.1s0,0.1-0.1,0.1c-1.7,0.9-3.2,1.6-4.3,2s-2.2,0.6-3.1,0.6c-0.5,0-1-0.3-1.4-1
		s-0.7-1.7-1-3.1c-0.1-0.1-0.3-0.2-0.6-0.4c-0.1,0-0.1-0.1-0.1-0.1c-0.8,0.1-2,0.6-3.6,1.6s-3.2,2.3-5,3.9c-0.2,0-0.4-0.1-0.5-0.2
		s-0.2-0.3-0.2-0.5c0-0.1,0.1-0.4,0.3-0.8c0,0,0-0.1,0.1-0.1c0.1-0.2,0.3-0.5,0.5-0.9c1-1.7,1.6-3,1.9-3.7c0.1-0.1,0.3-0.2,0.5-0.3
		s0.4-0.1,0.6-0.1c0.1,0,0.2,0,0.3,0.1s0.1,0.1,0.1,0.2c0,0,0,0,0,0.1s0,0,0,0c-0.1,0.4-0.4,1-0.7,1.9s-0.6,1.4-0.6,1.5
		c2.3-1.8,4-3,5-3.6s1.7-0.9,2.2-0.9c0.3,0,0.5,0.2,0.8,0.5s0.5,1,0.9,2c0,0.1,0.1,0.2,0.1,0.3c0.5,1.5,1,2.3,1.3,2.3
		c1,0,2-0.2,3-0.5s2.1-0.8,3.3-1.4c0,0,0.1,0,0.1,0s0.1,0,0.1,0c0.1,0,0.1,0,0.2,0.1S477.8,107.8,477.8,107.9z"/>
	<path fill="#C8B02E" d="M499.9,107.9c0,0.1,0,0.1,0,0.1s0,0.1-0.1,0.1c-0.9,0.6-2,1.1-3.2,1.4s-2.3,0.6-3.2,0.6s-1.8-0.1-2.5-0.3
		s-1.4-0.5-1.9-0.9c-0.9,0.5-2,1-3.6,1.5s-2.5,0.8-2.9,0.8c-0.6,0-1-0.2-1.4-0.6s-0.5-0.8-0.5-1.2c0-1.2,0.7-2.3,2-3.4
		s2.8-1.8,4.3-2.1c0.2-1.7,1.1-3.8,2.6-6.2s3-3.6,4.5-3.6c0.7,0,1.3,0.4,1.9,1.1s0.8,1.5,0.8,2.2c0,1.6-0.6,3.4-1.7,5.3
		s-2.7,3.6-4.7,5.2c0.4,0.4,0.9,0.6,1.5,0.8s1.3,0.3,2,0.3c0.9,0,1.9-0.1,3-0.4s2-0.6,2.6-0.9c0,0,0,0,0.1,0s0.1,0,0.1,0
		c0.1,0,0.1,0,0.2,0.1S499.9,107.8,499.9,107.9z M488.1,107.7c-0.2-0.4-0.4-0.8-0.7-1.3s-0.4-0.9-0.6-1.3l-0.7,0.1
		c-0.6,0-1.3,0.5-2.2,1.3s-1.3,1.5-1.3,2.1c0,0.3,0.1,0.6,0.2,1s0.3,0.6,0.5,0.7l1.2-0.2c0.5-0.2,1.1-0.5,1.8-0.9
		S487.5,108.3,488.1,107.7z M495.3,97.4c0-0.4-0.1-0.8-0.4-1.2s-0.6-0.6-1-0.7c-1.4,0.3-2.7,1.4-3.9,3.2s-1.8,3.7-1.8,5.6
		c0,0.3,0.1,0.8,0.4,1.3s0.5,0.9,0.7,1.1c0.9-0.5,2-1.4,3.2-2.8s2-2.7,2.5-4c0.1-0.2,0.2-0.6,0.2-1.2S495.3,97.6,495.3,97.4z"/>
	<path fill="#C8B02E" d="M519.5,107.9c0,0.1,0,0.1,0,0.1s0,0.1-0.1,0.1c-0.5,0.3-1.1,0.5-1.8,0.7s-1.3,0.3-1.8,0.3
		c-0.6,0-1.3-0.1-2.1-0.4s-1.4-0.5-1.8-0.8c-0.3,0.4-0.6,0.9-1,1.4s-0.7,0.8-1,1c-0.4,0.3-0.9,0.5-1.4,0.7s-1.1,0.3-1.5,0.3
		c-1,0-1.7-0.2-2.3-0.7s-0.8-1.1-0.8-1.9c0-0.6,0.1-1.1,0.4-1.8s0.7-1.2,1.1-1.7c0.4-0.4,0.9-0.7,1.4-1s1-0.4,1.4-0.4
		c0,0,0.1,0,0.3,0s0.3,0,0.4,0h0.2c0.1-0.2,0.2-0.3,0.3-0.4s0.2-0.1,0.4-0.1c0.1,0,0.2,0,0.3,0s0.3,0.1,0.5,0.1c0.4,0.2,0.8,0.5,1,1
		s0.4,1.1,0.4,1.8c0.2,0.6,0.6,1.1,1.3,1.5s1.4,0.6,2.3,0.6c0.8,0,1.4-0.1,2-0.2s1-0.3,1.5-0.5c0,0,0,0,0.1,0s0.1,0,0.1,0
		c0.1,0,0.1,0,0.2,0.1S519.5,107.8,519.5,107.9z M511.1,107.1c-0.6-0.5-1-0.9-1.2-1.3s-0.4-0.7-0.5-1.1c-1,0-1.9,0.5-2.6,1.3
		s-1.1,1.5-1.1,2.2c0,0.6,0.1,1,0.4,1.3s0.7,0.5,1.3,0.6c1,0,1.8-0.3,2.5-0.9S511,108,511.1,107.1z"/>
	<path fill="#C8B02E" d="M541.5,107.9c0,0.1,0,0.1,0,0.1s0,0.1-0.1,0.1c-1.7,0.9-3.2,1.6-4.3,2s-2.2,0.6-3.1,0.6c-0.5,0-1-0.3-1.4-1
		s-0.7-1.7-1-3.1c-0.1-0.1-0.3-0.2-0.6-0.4c-0.1,0-0.1-0.1-0.1-0.1c-0.8,0.1-2,0.6-3.6,1.6s-3.2,2.3-5,3.9c-0.2,0-0.4-0.1-0.5-0.2
		s-0.2-0.3-0.2-0.5c0-0.1,0.1-0.4,0.3-0.8c0,0,0-0.1,0.1-0.1c0.1-0.2,0.3-0.5,0.5-0.9c1-1.7,1.6-3,1.9-3.7c0.1-0.1,0.3-0.2,0.5-0.3
		s0.4-0.1,0.6-0.1c0.1,0,0.2,0,0.3,0.1s0.1,0.1,0.1,0.2c0,0,0,0,0,0.1s0,0,0,0c-0.1,0.4-0.4,1-0.7,1.9s-0.6,1.4-0.6,1.5
		c2.3-1.8,4-3,5-3.6s1.7-0.9,2.2-0.9c0.3,0,0.5,0.2,0.8,0.5s0.5,1,0.9,2c0,0.1,0.1,0.2,0.1,0.3c0.5,1.5,1,2.3,1.3,2.3
		c1,0,2-0.2,3-0.5s2.1-0.8,3.3-1.4c0,0,0.1,0,0.1,0s0.1,0,0.1,0c0.1,0,0.1,0,0.2,0.1S541.5,107.8,541.5,107.9z"/>
</g>
<g>
	<path d="M259.4,157.8v-8.2h-1.9l0.6-1h2.4v9.2H259.4z"/>
	<path d="M270,158.1c-1,0-1.8-0.4-2.4-1.3c-0.6-0.9-0.9-2-0.9-3.5c0-1.5,0.3-2.7,0.9-3.5c0.6-0.9,1.4-1.3,2.4-1.3
		c1,0,1.8,0.4,2.4,1.3c0.6,0.8,0.9,2,0.9,3.5c0,1.5-0.3,2.7-0.9,3.5C271.8,157.7,271,158.1,270,158.1z M270,157.2
		c0.7,0,1.2-0.3,1.6-1c0.4-0.7,0.5-1.6,0.5-2.9c0-1.3-0.2-2.3-0.5-2.9c-0.4-0.7-0.9-1-1.6-1c-0.7,0-1.2,0.3-1.5,1
		c-0.4,0.7-0.5,1.6-0.5,2.9c0,1.2,0.2,2.2,0.5,2.9C268.8,156.8,269.3,157.2,270,157.2z"/>
	<path d="M280.3,158.1c-1,0-1.8-0.4-2.4-1.3c-0.6-0.9-0.9-2-0.9-3.5c0-1.5,0.3-2.7,0.9-3.5c0.6-0.9,1.4-1.3,2.4-1.3
		c1,0,1.8,0.4,2.4,1.3c0.6,0.8,0.9,2,0.9,3.5c0,1.5-0.3,2.7-0.9,3.5C282,157.7,281.3,158.1,280.3,158.1z M280.2,157.2
		c0.7,0,1.2-0.3,1.6-1c0.4-0.7,0.5-1.6,0.5-2.9c0-1.3-0.2-2.3-0.5-2.9c-0.4-0.7-0.9-1-1.6-1c-0.7,0-1.2,0.3-1.5,1
		c-0.4,0.7-0.5,1.6-0.5,2.9c0,1.2,0.2,2.2,0.5,2.9C279.1,156.8,279.6,157.2,280.2,157.2z"/>
	<path d="M295.3,153.7v4.2h-1.1v-9.3h1.9c0.7,0,1.2,0,1.5,0.1c0.3,0.1,0.6,0.2,0.8,0.4c0.3,0.2,0.5,0.5,0.7,0.9
		c0.2,0.4,0.3,0.8,0.3,1.2c0,0.4-0.1,0.9-0.3,1.2c-0.2,0.4-0.4,0.7-0.7,0.9c-0.2,0.2-0.5,0.3-0.8,0.4c-0.3,0.1-0.8,0.1-1.5,0.1h-0.3
		H295.3z M295.3,152.7h0.6c0.9,0,1.6-0.1,1.9-0.3c0.3-0.2,0.5-0.6,0.5-1.2c0-0.6-0.2-1-0.5-1.2c-0.3-0.2-1-0.4-1.9-0.4h-0.6V152.7z"
		/>
	<path d="M305.7,148.2l4.2,9.7h-1.2l-1.2-2.8h-3.6l-1.2,2.8h-1.2L305.7,148.2z M305.7,150.6l-1.5,3.4h3L305.7,150.6z"/>
	<path d="M313.4,157.8v-9.3h1.1v8.2h3.5v1.1H313.4z"/>
	<path d="M322,157.8v-9.3h1.1v8.2h3.5v1.1H322z"/>
	<path d="M341.3,158.2l-2.9-6.7l-1.2,6.3h-1.1l1.9-9.7l3.2,7.7l3.2-7.7l1.9,9.7h-1.1l-1.2-6.3L341.3,158.2z"/>
	<path d="M353.4,148.2l4.2,9.7h-1.2l-1.2-2.8h-3.6l-1.2,2.8h-1.2L353.4,148.2z M353.4,150.6l-1.5,3.4h3L353.4,150.6z"/>
	<path d="M361.1,157.8v-9.3h1.1v8.2h3.5v1.1H361.1z"/>
	<path d="M369.7,157.8v-9.3h1.1v8.2h3.5v1.1H369.7z"/>
	<path d="M378.1,159.7l1.2-3.5l1.1,0.4l-1.6,3.4L378.1,159.7z"/>
	<path d="M394.7,152.7c0.6,0.3,1.1,0.6,1.4,1c0.3,0.4,0.5,0.9,0.5,1.5c0,0.9-0.3,1.5-0.8,2.1c-0.5,0.5-1.3,0.8-2.2,0.8
		c-0.7,0-1.3-0.2-1.8-0.6c-0.5-0.4-0.8-0.9-1-1.6l1-0.5c0.1,0.6,0.4,1,0.7,1.3c0.3,0.3,0.7,0.4,1.2,0.4c0.6,0,1-0.2,1.3-0.5
		s0.5-0.7,0.5-1.2c0-0.4-0.1-0.8-0.4-1.1c-0.2-0.3-0.6-0.6-1.1-0.8l-1.1-0.5c-0.6-0.3-1.1-0.6-1.4-1c-0.3-0.4-0.5-0.9-0.5-1.5
		c0-0.7,0.2-1.2,0.7-1.6s1.1-0.6,1.9-0.6c0.6,0,1,0.1,1.5,0.4c0.4,0.2,0.7,0.6,1,1l-0.9,0.6c-0.2-0.4-0.4-0.6-0.7-0.8
		s-0.6-0.3-0.9-0.3c-0.4,0-0.8,0.1-1,0.4c-0.3,0.3-0.4,0.6-0.4,1c0,0.3,0.1,0.6,0.3,0.9s0.5,0.5,0.9,0.6L394.7,152.7z"/>
	<path d="M402.2,157.8v-8.2h-2.6v-1.1h6.4v1.1h-2.6v8.2H402.2z"/>
	<path d="M408.2,157.2c0-0.2,0.1-0.4,0.2-0.5s0.3-0.2,0.5-0.2c0.2,0,0.4,0.1,0.5,0.2c0.2,0.1,0.2,0.3,0.2,0.5c0,0.2-0.1,0.4-0.2,0.5
		s-0.3,0.2-0.5,0.2c-0.2,0-0.4-0.1-0.5-0.2C408.2,157.6,408.2,157.4,408.2,157.2z"/>
	<path d="M422.8,148.5h1.1v7.2c0,0.8-0.2,1.4-0.5,1.7c-0.3,0.4-0.9,0.6-1.6,0.6c-0.4,0-0.7-0.1-1-0.2c-0.3-0.2-0.6-0.4-0.9-0.7
		l0.7-0.7c0.2,0.2,0.4,0.4,0.6,0.5s0.4,0.2,0.6,0.2c0.3,0,0.6-0.1,0.7-0.4c0.1-0.2,0.2-0.7,0.2-1.5V148.5z"/>
	<path d="M431.6,148.2l4.2,9.7h-1.2l-1.2-2.8h-3.6l-1.2,2.8h-1.2L431.6,148.2z M431.6,150.6l-1.5,3.4h3L431.6,150.6z"/>
	<path d="M443.7,158.2l-2.9-6.7l-1.2,6.3h-1.1l1.9-9.7l3.2,7.7l3.2-7.7l1.9,9.7h-1.1l-1.2-6.3L443.7,158.2z"/>
	<path d="M452.8,157.8v-9.3h4.9v1h-3.8v2.7h3.8v1h-3.8v3.6h3.8v1H452.8z"/>
	<path d="M465.6,152.7c0.6,0.3,1.1,0.6,1.4,1c0.3,0.4,0.5,0.9,0.5,1.5c0,0.9-0.3,1.5-0.8,2.1c-0.5,0.5-1.3,0.8-2.2,0.8
		c-0.7,0-1.3-0.2-1.8-0.6c-0.5-0.4-0.8-0.9-1-1.6l1-0.5c0.1,0.6,0.4,1,0.7,1.3c0.3,0.3,0.7,0.4,1.2,0.4c0.6,0,1-0.2,1.3-0.5
		s0.5-0.7,0.5-1.2c0-0.4-0.1-0.8-0.4-1.1c-0.2-0.3-0.6-0.6-1.1-0.8l-1.1-0.5c-0.6-0.3-1.1-0.6-1.4-1c-0.3-0.4-0.5-0.9-0.5-1.5
		c0-0.7,0.2-1.2,0.7-1.6s1.1-0.6,1.9-0.6c0.6,0,1,0.1,1.5,0.4c0.4,0.2,0.7,0.6,1,1l-0.9,0.6c-0.2-0.4-0.4-0.6-0.7-0.8
		s-0.6-0.3-0.9-0.3c-0.4,0-0.8,0.1-1,0.4c-0.3,0.3-0.4,0.6-0.4,1c0,0.3,0.1,0.6,0.3,0.9s0.5,0.5,0.9,0.6L465.6,152.7z"/>
	<path d="M471.1,151.8l1.2-3.4l1.1,0.4l-1.6,3.4L471.1,151.8z"/>
	<path d="M481.3,152.7c0.6,0.3,1.1,0.6,1.4,1c0.3,0.4,0.5,0.9,0.5,1.5c0,0.9-0.3,1.5-0.8,2.1s-1.3,0.8-2.2,0.8
		c-0.7,0-1.3-0.2-1.8-0.6c-0.5-0.4-0.8-0.9-1-1.6l1-0.5c0.1,0.6,0.4,1,0.7,1.3c0.3,0.3,0.7,0.4,1.2,0.4c0.6,0,1-0.2,1.3-0.5
		s0.5-0.7,0.5-1.2c0-0.4-0.1-0.8-0.4-1.1s-0.6-0.6-1.1-0.8l-1.1-0.5c-0.6-0.3-1.1-0.6-1.4-1c-0.3-0.4-0.5-0.9-0.5-1.5
		c0-0.7,0.2-1.2,0.7-1.6s1.1-0.6,1.9-0.6c0.6,0,1,0.1,1.5,0.4c0.4,0.2,0.7,0.6,1,1l-0.9,0.6c-0.2-0.4-0.4-0.6-0.7-0.8
		s-0.6-0.3-0.9-0.3c-0.4,0-0.8,0.1-1,0.4c-0.3,0.3-0.4,0.6-0.4,1c0,0.3,0.1,0.6,0.3,0.9s0.5,0.5,0.9,0.6L481.3,152.7z"/>
	<path d="M486.6,159.7l1.2-3.5l1.1,0.4l-1.6,3.4L486.6,159.7z"/>
	<path d="M499.8,157.8v-9.3h1.1v8.2h3.5v1.1H499.8z"/>
	<path d="M517.4,153.2c0,0.7-0.1,1.3-0.4,1.9c-0.2,0.6-0.6,1.1-1.1,1.6c-0.5,0.5-1,0.8-1.6,1.1c-0.6,0.2-1.2,0.4-1.9,0.4
		s-1.3-0.1-1.9-0.4c-0.6-0.2-1.1-0.6-1.6-1.1c-0.5-0.5-0.8-1-1.1-1.6s-0.4-1.2-0.4-1.9c0-0.7,0.1-1.3,0.4-1.9
		c0.2-0.6,0.6-1.1,1.1-1.6c0.5-0.5,1-0.8,1.6-1c0.6-0.2,1.2-0.4,1.9-0.4c0.7,0,1.3,0.1,1.9,0.4c0.6,0.2,1.2,0.6,1.6,1
		c0.5,0.5,0.8,1,1.1,1.6C517.3,151.9,517.4,152.5,517.4,153.2z M512.5,157c0.5,0,1-0.1,1.5-0.3c0.5-0.2,0.9-0.5,1.2-0.8
		c0.4-0.4,0.6-0.8,0.8-1.2s0.3-1,0.3-1.5c0-0.5-0.1-1-0.3-1.5c-0.2-0.5-0.5-0.9-0.8-1.2c-0.4-0.4-0.8-0.6-1.2-0.8
		c-0.5-0.2-0.9-0.3-1.5-0.3c-0.5,0-1,0.1-1.5,0.3s-0.9,0.5-1.2,0.8c-0.4,0.4-0.6,0.8-0.8,1.3s-0.3,1-0.3,1.5c0,0.5,0.1,1,0.3,1.5
		s0.5,0.9,0.8,1.2c0.4,0.4,0.8,0.7,1.2,0.8S511.9,157,512.5,157z"/>
	<path d="M521.8,157.8v-9.7l6.8,7.4v-7.1h1.1v9.7l-6.8-7.3v7H521.8z"/>
	<path d="M534.5,157.8v-9.3h1.8c1.3,0,2.3,0.1,2.8,0.2c0.5,0.1,1,0.4,1.4,0.7c0.5,0.4,0.9,0.9,1.2,1.6c0.3,0.6,0.4,1.4,0.4,2.2
		c0,0.8-0.1,1.6-0.4,2.2c-0.3,0.6-0.7,1.2-1.2,1.6c-0.4,0.3-0.9,0.5-1.4,0.7c-0.5,0.1-1.3,0.2-2.4,0.2h-0.4H534.5z M535.6,156.8h0.7
		c1.1,0,1.9,0,2.4-0.1c0.4-0.1,0.8-0.3,1.1-0.5c0.4-0.3,0.7-0.7,0.9-1.2c0.2-0.5,0.3-1.1,0.3-1.7c0-0.7-0.1-1.2-0.3-1.7
		c-0.2-0.5-0.5-0.9-0.9-1.2c-0.3-0.2-0.7-0.4-1.1-0.5c-0.5-0.1-1.2-0.2-2.4-0.2h-0.7V156.8z"/>
	<path d="M556,153.2c0,0.7-0.1,1.3-0.4,1.9c-0.2,0.6-0.6,1.1-1.1,1.6c-0.5,0.5-1,0.8-1.6,1.1c-0.6,0.2-1.2,0.4-1.9,0.4
		s-1.3-0.1-1.9-0.4c-0.6-0.2-1.1-0.6-1.6-1.1c-0.5-0.5-0.8-1-1.1-1.6s-0.4-1.2-0.4-1.9c0-0.7,0.1-1.3,0.4-1.9
		c0.2-0.6,0.6-1.1,1.1-1.6c0.5-0.5,1-0.8,1.6-1c0.6-0.2,1.2-0.4,1.9-0.4c0.7,0,1.3,0.1,1.9,0.4c0.6,0.2,1.2,0.6,1.6,1
		c0.5,0.5,0.8,1,1.1,1.6C555.9,151.9,556,152.5,556,153.2z M551.1,157c0.5,0,1-0.1,1.5-0.3c0.5-0.2,0.9-0.5,1.2-0.8
		c0.4-0.4,0.6-0.8,0.8-1.2s0.3-1,0.3-1.5c0-0.5-0.1-1-0.3-1.5c-0.2-0.5-0.5-0.9-0.8-1.2c-0.4-0.4-0.8-0.6-1.2-0.8
		c-0.5-0.2-0.9-0.3-1.5-0.3c-0.5,0-1,0.1-1.5,0.3s-0.9,0.5-1.2,0.8c-0.4,0.4-0.6,0.8-0.8,1.3s-0.3,1-0.3,1.5c0,0.5,0.1,1,0.3,1.5
		s0.5,0.9,0.8,1.2c0.4,0.4,0.8,0.7,1.2,0.8S550.6,157,551.1,157z"/>
	<path d="M560.4,157.8v-9.7l6.8,7.4v-7.1h1.1v9.7l-6.8-7.3v7H560.4z"/>
	<path d="M572.2,159.7l1.2-3.5l1.1,0.4l-1.6,3.4L572.2,159.7z"/>
	<path d="M588.8,152.7c0.6,0.3,1.1,0.6,1.4,1c0.3,0.4,0.5,0.9,0.5,1.5c0,0.9-0.3,1.5-0.8,2.1s-1.3,0.8-2.2,0.8
		c-0.7,0-1.3-0.2-1.8-0.6c-0.5-0.4-0.8-0.9-1-1.6l1-0.5c0.1,0.6,0.4,1,0.7,1.3c0.3,0.3,0.7,0.4,1.2,0.4c0.6,0,1-0.2,1.3-0.5
		s0.5-0.7,0.5-1.2c0-0.4-0.1-0.8-0.4-1.1s-0.6-0.6-1.1-0.8l-1.1-0.5c-0.6-0.3-1.1-0.6-1.4-1s-0.5-0.9-0.5-1.5c0-0.7,0.2-1.2,0.7-1.6
		c0.5-0.4,1.1-0.6,1.9-0.6c0.6,0,1,0.1,1.5,0.4c0.4,0.2,0.7,0.6,1,1l-0.9,0.6c-0.2-0.4-0.4-0.6-0.7-0.8s-0.5-0.3-0.9-0.3
		c-0.4,0-0.8,0.1-1,0.4s-0.4,0.6-0.4,1c0,0.3,0.1,0.6,0.3,0.9s0.5,0.5,0.9,0.6L588.8,152.7z"/>
	<path d="M593.5,148.5h1.2l2.4,6.8l2.5-7.2l2.5,7.2l2.4-6.8h1.2l-3.6,9.7l-2.4-7.2l-2.4,7.2L593.5,148.5z"/>
	<path d="M611.6,157.8v-8.2h-1.9l0.6-1h2.4v9.2H611.6z"/>
	<path d="M621.5,157.8v-4.3l-3.1-5h1.3l2.4,4l2.4-4h1.3l-3.1,5v4.3H621.5z"/>
	<path d="M636.1,153.2l-0.2,0l1.1-4.5h4.1v1h-3.3l-0.6,2.4c0.2-0.1,0.4-0.2,0.7-0.3c0.2-0.1,0.5-0.1,0.8-0.1c0.9,0,1.6,0.3,2.2,0.8
		s0.8,1.3,0.8,2.2c0,1.1-0.3,1.9-0.9,2.5s-1.4,0.9-2.5,0.9c-0.6,0-1.2-0.1-1.6-0.3c-0.5-0.2-0.8-0.6-1.2-1l0.8-0.9
		c0.2,0.4,0.5,0.7,0.8,1c0.3,0.2,0.8,0.3,1.2,0.3c0.7,0,1.2-0.2,1.6-0.6s0.6-1,0.6-1.7c0-0.7-0.2-1.2-0.6-1.6s-1-0.6-1.7-0.6
		c-0.4,0-0.7,0.1-1.1,0.2S636.4,153,636.1,153.2z"/>
	<path d="M646.1,157.8v-9.7l6.8,7.4v-7.1h1.1v9.7l-6.8-7.3v7H646.1z"/>
	<path d="M668.4,158.7h-1.4l-1.2-1.3c-0.4,0.2-0.8,0.4-1.2,0.5s-0.9,0.2-1.4,0.2c-0.5,0-1-0.1-1.5-0.2s-0.9-0.4-1.3-0.7
		c-0.7-0.5-1.1-1.1-1.5-1.7s-0.5-1.4-0.5-2.2c0-0.6,0.1-1.3,0.4-1.9c0.2-0.6,0.6-1.1,1.1-1.6c0.5-0.5,1-0.8,1.6-1.1s1.2-0.4,1.9-0.4
		c0.7,0,1.3,0.1,1.9,0.3c0.6,0.2,1.1,0.5,1.6,1c0.5,0.5,0.9,1,1.1,1.6c0.3,0.6,0.4,1.3,0.4,2c0,0.7-0.1,1.4-0.4,2
		c-0.3,0.6-0.7,1.1-1.2,1.6L668.4,158.7z M664.5,154.5l1.4,1.5c0.4-0.3,0.7-0.7,0.9-1.2s0.3-1,0.3-1.6c0-0.4,0-0.7-0.1-1.1
		s-0.2-0.7-0.4-0.9c-0.4-0.6-0.8-1-1.4-1.3s-1.2-0.5-1.9-0.5c-0.5,0-1,0.1-1.5,0.3s-0.9,0.5-1.2,0.8c-0.4,0.4-0.6,0.8-0.8,1.2
		c-0.2,0.5-0.3,1-0.3,1.5c0,0.7,0.1,1.2,0.4,1.8c0.3,0.5,0.7,1,1.2,1.4c0.3,0.2,0.6,0.4,1,0.5s0.7,0.2,1.1,0.2c0.3,0,0.7,0,1-0.1
		c0.3-0.1,0.6-0.2,0.8-0.3l-1.9-2H664.5z"/>
	<path d="M672.4,159.7l1.2-3.5l1.1,0.4l-1.6,3.4L672.4,159.7z"/>
	<path d="M685.6,148.5h1.1v5.8c0,0.9,0.2,1.6,0.6,2.1c0.4,0.4,1,0.7,1.9,0.7c0.9,0,1.5-0.2,1.9-0.7c0.4-0.4,0.6-1.1,0.6-2.1v-5.8
		h1.1v5.8c0,1.3-0.3,2.2-0.9,2.8s-1.5,0.9-2.7,0.9c-1.2,0-2.1-0.3-2.7-0.9s-0.9-1.6-0.9-2.8V148.5z"/>
	<path d="M697.6,157.8v-9.3h1.1v4.1l3.9-4.1h1.3l-4,4.2l4.4,5.1h-1.4l-4.2-5v5H697.6z"/>
	<path d="M415.6,174.1v3.5h3.4v0.7h-3.4v3.5h-0.7v-3.5h-3.4v-0.7h3.4v-3.5H415.6z"/>
	<path d="M427.8,181.8v-2h-4.4l5-7.4h0.5v6.5h1.1v0.9h-1.1v2H427.8z M427.8,178.9v-4.1l-2.7,4.1H427.8z"/>
	<path d="M438.1,181.8v-2h-4.4l5-7.4h0.5v6.5h1.1v0.9h-1.1v2H438.1z M438.1,178.9v-4.1l-2.7,4.1H438.1z"/>
	<path d="M456.5,180.8v1.1h-5.6l2-2.3c0.1-0.2,0.3-0.4,0.6-0.7c1.5-1.8,2.3-3,2.3-3.8c0-0.5-0.2-0.9-0.5-1.2
		c-0.3-0.3-0.8-0.5-1.3-0.5c-0.6,0-1,0.2-1.4,0.5s-0.5,0.8-0.5,1.4v0.1h-1c0,0,0-0.1,0-0.1c0-0.1,0-0.1,0-0.1c0-0.9,0.3-1.6,0.8-2.1
		c0.5-0.5,1.2-0.7,2.1-0.7c0.9,0,1.6,0.2,2.1,0.7c0.5,0.5,0.8,1.1,0.8,1.9c0,0.6-0.2,1.2-0.5,1.8c-0.3,0.6-1,1.4-1.8,2.4l-1.5,1.6
		H456.5z"/>
	<path d="M464.3,182.1c-1,0-1.8-0.4-2.4-1.3c-0.6-0.9-0.9-2-0.9-3.5c0-1.5,0.3-2.7,0.9-3.5c0.6-0.9,1.4-1.3,2.4-1.3
		c1,0,1.8,0.4,2.4,1.3c0.6,0.8,0.9,2,0.9,3.5c0,1.5-0.3,2.7-0.9,3.5C466.1,181.7,465.3,182.1,464.3,182.1z M464.3,181.2
		c0.7,0,1.2-0.3,1.6-1c0.4-0.7,0.5-1.6,0.5-2.9c0-1.3-0.2-2.3-0.5-2.9c-0.4-0.7-0.9-1-1.6-1c-0.7,0-1.2,0.3-1.5,1
		c-0.4,0.7-0.5,1.6-0.5,2.9c0,1.2,0.2,2.2,0.5,2.9C463.1,180.8,463.6,181.2,464.3,181.2z"/>
	<path d="M472.2,181.7l4-8.1h-4.3v-1h5.9l-4.6,9.6L472.2,181.7z"/>
	<path d="M483.6,176.6c0.2-0.2,0.5-0.3,0.7-0.3c0.2-0.1,0.5-0.1,0.7-0.1c0.8,0,1.5,0.3,2,0.8s0.8,1.2,0.8,2.1c0,0.9-0.3,1.7-0.9,2.2
		s-1.4,0.8-2.4,0.8c-0.9,0-1.5-0.3-2.1-0.8s-0.8-1.3-0.8-2.2c0-0.9,0.6-2.1,1.7-3.8l0.1-0.1l2.1-3l1,0.5L483.6,176.6z M482.9,179.1
		c0,0.6,0.2,1.1,0.5,1.5c0.3,0.4,0.8,0.5,1.4,0.5c0.6,0,1-0.2,1.4-0.6c0.3-0.4,0.5-0.9,0.5-1.5c0-0.6-0.2-1.1-0.5-1.5
		c-0.4-0.4-0.8-0.6-1.4-0.6c-0.6,0-1,0.2-1.3,0.6S482.9,178.5,482.9,179.1z"/>
	<path d="M493.9,176.6c0.2-0.2,0.5-0.3,0.7-0.3c0.2-0.1,0.5-0.1,0.7-0.1c0.8,0,1.5,0.3,2,0.8s0.8,1.2,0.8,2.1c0,0.9-0.3,1.7-0.9,2.2
		s-1.4,0.8-2.4,0.8c-0.9,0-1.5-0.3-2.1-0.8S492,180,492,179c0-0.9,0.6-2.1,1.7-3.8l0.1-0.1l2.1-3l1,0.5L493.9,176.6z M493.1,179.1
		c0,0.6,0.2,1.1,0.5,1.5c0.3,0.4,0.8,0.5,1.4,0.5c0.6,0,1-0.2,1.4-0.6c0.3-0.4,0.5-0.9,0.5-1.5c0-0.6-0.2-1.1-0.5-1.5
		c-0.4-0.4-0.8-0.6-1.4-0.6c-0.6,0-1,0.2-1.3,0.6S493.1,178.5,493.1,179.1z"/>
	<path d="M506.1,181.8v-2h-4.4l5-7.4h0.5v6.5h1.1v0.9h-1.1v2H506.1z M506.1,178.9v-4.1l-2.7,4.1H506.1z"/>
	<path d="M514.4,176.9c-0.5-0.2-0.9-0.4-1.2-0.8s-0.4-0.8-0.4-1.4c0-0.7,0.3-1.2,0.8-1.7s1.2-0.7,2-0.7c0.9,0,1.5,0.2,2,0.7
		c0.5,0.4,0.8,1,0.8,1.8c0,0.5-0.1,0.9-0.4,1.3c-0.3,0.4-0.7,0.6-1.2,0.8c0.6,0.2,1.1,0.5,1.4,0.9c0.3,0.4,0.5,0.9,0.5,1.5
		c0,0.8-0.3,1.5-0.8,2c-0.6,0.5-1.3,0.7-2.3,0.7c-1,0-1.7-0.2-2.3-0.7s-0.8-1.1-0.8-2c0-0.6,0.2-1.1,0.5-1.6
		S513.8,177.1,514.4,176.9z M515.6,181.2c0.6,0,1.1-0.2,1.4-0.5s0.5-0.8,0.5-1.4c0-0.6-0.2-1.1-0.5-1.4s-0.8-0.5-1.4-0.5
		c-0.6,0-1.1,0.2-1.4,0.5c-0.3,0.3-0.5,0.8-0.5,1.4c0,0.6,0.2,1,0.5,1.4S515,181.2,515.6,181.2z M515.6,173.3
		c-0.5,0-0.9,0.1-1.2,0.4s-0.4,0.7-0.4,1.1c0,0.5,0.1,0.8,0.4,1.1c0.3,0.3,0.7,0.4,1.2,0.4c0.5,0,0.9-0.1,1.2-0.4
		c0.3-0.3,0.4-0.6,0.4-1.1s-0.1-0.9-0.4-1.1C516.5,173.4,516.1,173.3,515.6,173.3z"/>
	<path d="M524.7,176.6c0.2-0.2,0.5-0.3,0.7-0.3c0.2-0.1,0.5-0.1,0.7-0.1c0.8,0,1.5,0.3,2,0.8s0.8,1.2,0.8,2.1c0,0.9-0.3,1.7-0.9,2.2
		s-1.4,0.8-2.4,0.8c-0.9,0-1.5-0.3-2.1-0.8s-0.8-1.3-0.8-2.2c0-0.9,0.6-2.1,1.7-3.8l0.1-0.1l2.1-3l1,0.5L524.7,176.6z M523.9,179.1
		c0,0.6,0.2,1.1,0.5,1.5c0.3,0.4,0.8,0.5,1.4,0.5c0.6,0,1-0.2,1.4-0.6c0.3-0.4,0.5-0.9,0.5-1.5c0-0.6-0.2-1.1-0.5-1.5
		c-0.4-0.4-0.8-0.6-1.4-0.6c-0.6,0-1,0.2-1.3,0.6S523.9,178.5,523.9,179.1z"/>
	<path d="M538.6,180.8v1.1H533l2-2.3c0.1-0.2,0.3-0.4,0.6-0.7c1.5-1.8,2.3-3,2.3-3.8c0-0.5-0.2-0.9-0.5-1.2
		c-0.3-0.3-0.8-0.5-1.3-0.5c-0.6,0-1,0.2-1.4,0.5c-0.3,0.3-0.5,0.8-0.5,1.4v0.1h-1c0,0,0-0.1,0-0.1c0-0.1,0-0.1,0-0.1
		c0-0.9,0.3-1.6,0.8-2.1c0.5-0.5,1.2-0.7,2.1-0.7c0.9,0,1.6,0.2,2.1,0.7s0.8,1.1,0.8,1.9c0,0.6-0.2,1.2-0.5,1.8s-1,1.4-1.8,2.4
		l-1.5,1.6H538.6z"/>
	<path d="M543.3,179.5h1.1v0.1c0,0.5,0.2,0.8,0.5,1.1s0.7,0.4,1.3,0.4c0.6,0,1.1-0.2,1.4-0.5c0.3-0.3,0.5-0.8,0.5-1.3
		c0-0.6-0.2-1.1-0.5-1.4s-0.8-0.5-1.5-0.5c-0.1,0-0.1,0-0.2,0c0,0-0.1,0-0.1,0v-0.9c0,0,0.1,0,0.1,0s0.1,0,0.1,0
		c0.6,0,1.1-0.1,1.4-0.4c0.3-0.3,0.5-0.7,0.5-1.2c0-0.5-0.1-0.9-0.4-1.2c-0.3-0.3-0.7-0.4-1.2-0.4c-0.5,0-1,0.1-1.3,0.4
		s-0.5,0.6-0.5,1.2l-1.1,0c0-0.8,0.3-1.4,0.8-1.8s1.2-0.6,2.1-0.6c0.9,0,1.5,0.2,2,0.7s0.7,1,0.7,1.8c0,0.5-0.1,1-0.4,1.4
		s-0.7,0.6-1.2,0.8c0.6,0.1,1,0.3,1.3,0.7c0.3,0.4,0.5,0.9,0.5,1.5c0,0.8-0.3,1.5-0.8,2c-0.6,0.5-1.3,0.7-2.3,0.7
		c-0.9,0-1.5-0.2-2.1-0.7c-0.5-0.4-0.8-1-0.8-1.8V179.5z"/>
</g>
</svg>
