<?xml version="1.0" encoding="utf-8"?>
<!-- Generator: Adobe Illustrator 18.1.1, SVG Export Plug-In . SVG Version: 6.00 Build 0)  -->
<svg version="1.1" id="Layer_1" xmlns="http://www.w3.org/2000/svg" xmlns:xlink="http://www.w3.org/1999/xlink" x="0px" y="0px"
	 viewBox="0 0 210 120" enable-background="new 0 0 210 120" xml:space="preserve">
<g>
	<g>
		<path fill="#C8B02E" d="M85.9,28.5C85.9,28.5,85.9,28.6,85.9,28.5c0,0.1,0,0.1,0,0.1c-0.4,0.2-0.9,0.4-1.3,0.5
			c-0.4,0.1-1,0.1-1.6,0.1c-1.4,0-3.2-0.4-5.5-1.1c-2.3-0.7-3.5-1.1-3.6-1.1c-0.5,0.3-1,0.5-1.6,0.7c-0.6,0.2-1.2,0.2-1.8,0.2
			c-0.4,0-0.8-0.1-1-0.2c-0.3-0.1-0.4-0.4-0.5-0.6c0-0.3,0.3-0.7,0.8-1c0.5-0.3,1.1-0.5,1.8-0.6c0.4,0,0.9,0,1.3,0.1
			c0.4,0,0.8,0.1,1.2,0.2c0.8-1.1,1.8-2.5,3-4.4l0.5-0.8c1.2-1.9,2.4-3.2,3.6-4.1c1.2-0.9,2.3-1.4,3.4-1.4c0.4,0,0.7,0.2,1,0.6
			c0.3,0.4,0.5,0.8,0.5,1.3c0,1-0.6,2.1-1.8,3.1c-1.2,1-2.4,1.7-3.6,2c-0.1,0-0.1,0-0.2,0c0,0-0.1-0.1-0.1-0.1v0
			c0-0.1,0-0.1,0.1-0.1c0-0.1,0.1-0.1,0.2-0.1c0.9-0.4,1.9-1.1,2.9-2.3c1-1.2,1.5-2.1,1.5-2.8c0-0.3-0.1-0.6-0.2-0.7
			c-0.2-0.2-0.4-0.2-0.7-0.2c-0.6,0-1.2,0.3-1.8,0.8c-0.6,0.6-1.4,1.5-2.4,2.9l0,0c-2.1,3-3.9,5.2-5.2,6.7c0.3,0.1,0.8,0.3,1.6,0.6
			c4,1.4,6.5,2.1,7.7,2.1c0.4,0,0.7,0,0.9-0.1c0.3-0.1,0.5-0.1,0.8-0.2c0.1,0,0.1,0,0.2,0C85.9,28.4,85.9,28.5,85.9,28.5z
			 M72.9,26.7c-0.4-0.1-0.7-0.2-1-0.2c-0.2,0-0.5-0.1-0.7-0.1c-0.3,0-0.6,0.1-0.9,0.2c-0.3,0.1-0.4,0.2-0.4,0.4v0
			c0.1,0.1,0.2,0.2,0.4,0.3c0.2,0,0.4,0.1,0.8,0.1c0.2,0,0.5,0,0.9-0.1c0.3-0.1,0.6-0.2,0.8-0.3c0,0,0.1,0,0.1-0.1
			C72.8,26.9,72.8,26.8,72.9,26.7L72.9,26.7L72.9,26.7L72.9,26.7z"/>
		<path fill="#C8B02E" d="M94,24.8C94,24.9,94,24.9,94,24.8c0,0.1,0,0.1-0.1,0.1c-0.4,0.2-0.8,0.4-1.2,0.5c-0.5,0.1-0.9,0.2-1.3,0.2
			c-0.4,0-0.9-0.1-1.5-0.2c-0.5-0.2-1-0.4-1.3-0.6c-0.2,0.3-0.4,0.6-0.7,1c-0.3,0.3-0.5,0.6-0.7,0.7c-0.3,0.2-0.6,0.4-1,0.5
			c-0.4,0.2-0.8,0.2-1,0.2c-0.7,0-1.2-0.2-1.6-0.5C83.2,26.4,83,26,83,25.4c0-0.4,0.1-0.8,0.3-1.2c0.2-0.4,0.5-0.8,0.8-1.2
			c0.3-0.3,0.6-0.5,1-0.7c0.4-0.2,0.7-0.3,1-0.3c0,0,0.1,0,0.2,0c0.1,0,0.2,0,0.3,0h0.1c0.1-0.1,0.1-0.2,0.2-0.3
			c0.1-0.1,0.2-0.1,0.3-0.1c0.1,0,0.1,0,0.2,0c0.1,0,0.2,0,0.3,0.1c0.3,0.1,0.5,0.4,0.7,0.7c0.2,0.3,0.3,0.7,0.3,1.2
			c0.1,0.4,0.4,0.8,0.9,1.1c0.5,0.3,1,0.4,1.6,0.4c0.5,0,1,0,1.4-0.1c0.4-0.1,0.7-0.2,1-0.4c0,0,0,0,0,0c0,0,0,0,0.1,0
			c0.1,0,0.1,0,0.1,0.1C94,24.7,94,24.8,94,24.8z M88.1,24.3c-0.4-0.3-0.7-0.6-0.9-0.9c-0.2-0.3-0.3-0.5-0.4-0.8
			c-0.7,0-1.3,0.3-1.8,0.9c-0.5,0.6-0.8,1.1-0.8,1.5c0,0.4,0.1,0.7,0.3,0.9s0.5,0.4,0.9,0.4c0.7,0,1.3-0.2,1.8-0.6
			C87.7,25.5,88,24.9,88.1,24.3z"/>
		<path fill="#C8B02E" d="M106.2,24.8C106.2,24.9,106.2,24.9,106.2,24.8c0,0.1,0,0.1-0.1,0.1c-1.2,0.7-2.2,1.1-3,1.4
			c-0.8,0.3-1.5,0.4-2.2,0.4c-0.4,0-0.7-0.2-1-0.7c-0.3-0.5-0.5-1.2-0.7-2.2c-0.1-0.1-0.2-0.1-0.4-0.2c0,0-0.1,0-0.1,0
			c-0.6,0.1-1.4,0.4-2.5,1.1c-1.1,0.7-2.2,1.6-3.5,2.8c-0.1,0-0.3-0.1-0.4-0.2c-0.1-0.1-0.2-0.2-0.2-0.3c0-0.1,0.1-0.3,0.2-0.5
			c0,0,0-0.1,0-0.1c0.1-0.1,0.2-0.3,0.4-0.7c0.7-1.2,1.2-2.1,1.3-2.6c0.1-0.1,0.2-0.2,0.4-0.2c0.2-0.1,0.3-0.1,0.4-0.1
			c0.1,0,0.1,0,0.2,0c0.1,0,0.1,0.1,0.1,0.1c0,0,0,0,0,0c0,0,0,0,0,0c-0.1,0.2-0.2,0.7-0.5,1.3c-0.3,0.6-0.4,1-0.4,1.1
			c1.6-1.2,2.8-2.1,3.5-2.5c0.7-0.4,1.2-0.7,1.5-0.7c0.2,0,0.4,0.1,0.5,0.4c0.2,0.2,0.4,0.7,0.6,1.4c0,0,0,0.1,0.1,0.2
			c0.4,1.1,0.7,1.6,0.9,1.6c0.7,0,1.4-0.1,2.1-0.3c0.7-0.2,1.4-0.5,2.3-1c0,0,0,0,0.1,0c0,0,0,0,0.1,0c0,0,0.1,0,0.1,0.1
			C106.1,24.7,106.2,24.8,106.2,24.8z"/>
		<path fill="#C8B02E" d="M118.4,24.8C118.4,24.9,118.4,24.9,118.4,24.8c0,0.1,0,0.1-0.1,0.1c-0.6,0.4-1.4,0.8-2.2,1
			c-0.8,0.3-1.6,0.4-2.2,0.4s-1.2-0.1-1.7-0.2c-0.5-0.1-1-0.4-1.3-0.6c-0.6,0.3-1.4,0.7-2.5,1.1c-1.1,0.4-1.7,0.6-2.1,0.6
			c-0.4,0-0.7-0.1-1-0.4c-0.2-0.3-0.4-0.6-0.4-0.9c0-0.8,0.5-1.6,1.4-2.4c0.9-0.8,1.9-1.3,3-1.5c0.2-1.2,0.8-2.7,1.8-4.3
			c1.1-1.7,2.1-2.5,3.2-2.5c0.5,0,0.9,0.3,1.3,0.8c0.4,0.5,0.6,1,0.6,1.5c0,1.1-0.4,2.4-1.2,3.7c-0.8,1.3-1.9,2.5-3.3,3.6
			c0.3,0.3,0.7,0.4,1.1,0.6c0.4,0.1,0.9,0.2,1.4,0.2c0.6,0,1.3-0.1,2.1-0.3c0.8-0.2,1.4-0.4,1.8-0.7c0,0,0,0,0.1,0c0,0,0,0,0.1,0
			c0,0,0.1,0,0.1,0.1C118.4,24.7,118.4,24.8,118.4,24.8z M110.2,24.7c-0.2-0.3-0.3-0.5-0.5-0.9c-0.2-0.3-0.3-0.6-0.4-0.9l-0.5,0.1
			c-0.4,0-0.9,0.3-1.5,0.9c-0.6,0.6-0.9,1.1-0.9,1.5c0,0.2,0,0.4,0.1,0.7c0.1,0.2,0.2,0.4,0.3,0.5l0.9-0.1c0.4-0.1,0.8-0.3,1.2-0.6
			C109.3,25.5,109.7,25.1,110.2,24.7z M115.2,17.5c0-0.3-0.1-0.6-0.3-0.8c-0.2-0.3-0.4-0.4-0.7-0.5c-1,0.2-1.9,0.9-2.7,2.2
			c-0.8,1.3-1.2,2.6-1.2,3.9c0,0.2,0.1,0.5,0.3,0.9c0.2,0.4,0.3,0.6,0.5,0.8c0.6-0.3,1.4-1,2.2-2c0.8-1,1.4-1.9,1.7-2.8
			c0.1-0.2,0.1-0.5,0.2-0.8C115.2,18,115.2,17.7,115.2,17.5z"/>
		<path fill="#C8B02E" d="M129,24.8C129,24.9,129,24.9,129,24.8c0,0.1,0,0.1-0.1,0.1c-0.4,0.2-0.8,0.4-1.2,0.5
			c-0.5,0.1-0.9,0.2-1.3,0.2c-0.4,0-0.9-0.1-1.5-0.2c-0.5-0.2-1-0.4-1.3-0.6c-0.2,0.3-0.4,0.6-0.7,1c-0.3,0.3-0.5,0.6-0.7,0.7
			c-0.3,0.2-0.6,0.4-1,0.5c-0.4,0.2-0.8,0.2-1,0.2c-0.7,0-1.2-0.2-1.6-0.5S118,26,118,25.4c0-0.4,0.1-0.8,0.3-1.2
			c0.2-0.4,0.5-0.8,0.8-1.2c0.3-0.3,0.6-0.5,1-0.7c0.4-0.2,0.7-0.3,1-0.3c0,0,0.1,0,0.2,0c0.1,0,0.2,0,0.3,0h0.1
			c0.1-0.1,0.1-0.2,0.2-0.3c0.1-0.1,0.2-0.1,0.3-0.1c0,0,0.1,0,0.2,0c0.1,0,0.2,0,0.3,0.1c0.3,0.1,0.5,0.4,0.7,0.7
			c0.2,0.3,0.3,0.7,0.3,1.2c0.1,0.4,0.4,0.8,0.9,1.1c0.5,0.3,1,0.4,1.6,0.4c0.5,0,1,0,1.4-0.1c0.4-0.1,0.7-0.2,1-0.4c0,0,0,0,0,0
			c0,0,0,0,0.1,0c0.1,0,0.1,0,0.1,0.1C129,24.7,129,24.8,129,24.8z M123.1,24.3c-0.4-0.3-0.7-0.6-0.9-0.9c-0.2-0.3-0.3-0.5-0.4-0.8
			c-0.7,0-1.3,0.3-1.8,0.9c-0.5,0.6-0.8,1.1-0.8,1.5c0,0.4,0.1,0.7,0.3,0.9c0.2,0.2,0.5,0.4,0.9,0.4c0.7,0,1.3-0.2,1.8-0.6
			C122.7,25.5,123,24.9,123.1,24.3z"/>
		<path fill="#C8B02E" d="M141.2,24.8C141.2,24.9,141.2,24.9,141.2,24.8c0,0.1,0,0.1-0.1,0.1c-1.2,0.7-2.2,1.1-3,1.4
			c-0.8,0.3-1.5,0.4-2.2,0.4c-0.4,0-0.7-0.2-1-0.7c-0.3-0.5-0.5-1.2-0.7-2.2c-0.1-0.1-0.2-0.1-0.4-0.2c0,0-0.1,0-0.1,0
			c-0.6,0.1-1.4,0.4-2.5,1.1c-1.1,0.7-2.2,1.6-3.5,2.8c-0.1,0-0.3-0.1-0.4-0.2c-0.1-0.1-0.2-0.2-0.2-0.3c0-0.1,0.1-0.3,0.2-0.5
			c0,0,0-0.1,0-0.1c0.1-0.1,0.2-0.3,0.4-0.7c0.7-1.2,1.2-2.1,1.3-2.6c0.1-0.1,0.2-0.2,0.4-0.2c0.2-0.1,0.3-0.1,0.4-0.1
			c0.1,0,0.2,0,0.2,0c0.1,0,0.1,0.1,0.1,0.1c0,0,0,0,0,0c0,0,0,0,0,0c-0.1,0.2-0.2,0.7-0.5,1.3c-0.3,0.6-0.4,1-0.4,1.1
			c1.6-1.2,2.8-2.1,3.5-2.5c0.7-0.4,1.2-0.7,1.5-0.7c0.2,0,0.4,0.1,0.5,0.4c0.2,0.2,0.4,0.7,0.6,1.4c0,0,0,0.1,0.1,0.2
			c0.4,1.1,0.7,1.6,0.9,1.6c0.7,0,1.4-0.1,2.1-0.3c0.7-0.2,1.4-0.5,2.3-1c0,0,0,0,0.1,0c0,0,0,0,0.1,0c0,0,0.1,0,0.1,0.1
			C141.1,24.7,141.2,24.8,141.2,24.8z"/>
	</g>
	<g>
		<path fill="#020202" d="M69.1,51H68l0.4-0.7h1.4v6.1h-0.7L69.1,51L69.1,51z"/>
		<path fill="#020202" d="M76.5,56.3c-0.2,0.1-0.5,0.2-0.8,0.2s-0.6-0.1-0.8-0.2s-0.4-0.3-0.6-0.5c-0.2-0.2-0.3-0.5-0.4-0.8
			c-0.1-0.3-0.2-0.6-0.2-0.8c0-0.3-0.1-0.5-0.1-0.8c0-0.3,0-0.7,0.1-1s0.2-0.7,0.4-1s0.4-0.6,0.7-0.8s0.6-0.3,1-0.3
			c0.4,0,0.7,0.1,1,0.3c0.3,0.2,0.5,0.5,0.7,0.8s0.3,0.7,0.4,1s0.1,0.7,0.1,1c0,0.3,0,0.5-0.1,0.8s-0.1,0.6-0.2,0.8
			c-0.1,0.3-0.2,0.5-0.4,0.8C76.9,56,76.7,56.1,76.5,56.3z M76.3,51.1c-0.2-0.2-0.4-0.3-0.7-0.3c-0.3,0-0.5,0.1-0.7,0.3
			c-0.2,0.2-0.3,0.4-0.4,0.7c-0.1,0.3-0.2,0.5-0.2,0.8s-0.1,0.5-0.1,0.8s0,0.5,0.1,0.8s0.1,0.5,0.2,0.8c0.1,0.3,0.2,0.5,0.4,0.7
			s0.4,0.3,0.7,0.3c0.3,0,0.5-0.1,0.7-0.3s0.3-0.4,0.4-0.7c0.1-0.3,0.2-0.5,0.2-0.8s0.1-0.5,0.1-0.8s0-0.5-0.1-0.8s-0.1-0.5-0.2-0.8
			C76.7,51.5,76.5,51.2,76.3,51.1z"/>
		<path fill="#020202" d="M82.8,56.3c-0.2,0.1-0.5,0.2-0.8,0.2s-0.6-0.1-0.8-0.2c-0.2-0.1-0.4-0.3-0.6-0.5s-0.3-0.5-0.4-0.8
			c-0.1-0.3-0.2-0.6-0.2-0.8c0-0.3-0.1-0.5-0.1-0.8c0-0.3,0-0.7,0.1-1s0.2-0.7,0.4-1s0.4-0.6,0.7-0.8s0.6-0.3,1-0.3
			c0.4,0,0.7,0.1,1,0.3s0.5,0.5,0.7,0.8s0.3,0.7,0.4,1s0.1,0.7,0.1,1c0,0.3,0,0.5-0.1,0.8s-0.1,0.6-0.2,0.8
			c-0.1,0.3-0.2,0.5-0.4,0.8C83.2,56,83,56.1,82.8,56.3z M82.6,51.1c-0.2-0.2-0.4-0.3-0.7-0.3s-0.5,0.1-0.7,0.3
			c-0.2,0.2-0.3,0.4-0.4,0.7c-0.1,0.3-0.2,0.5-0.2,0.8c0,0.3-0.1,0.5-0.1,0.8s0,0.5,0.1,0.8c0,0.3,0.1,0.5,0.2,0.8
			c0.1,0.3,0.2,0.5,0.4,0.7c0.2,0.2,0.4,0.3,0.7,0.3s0.5-0.1,0.7-0.3c0.2-0.2,0.3-0.4,0.4-0.7c0.1-0.3,0.2-0.5,0.2-0.8
			c0-0.3,0.1-0.5,0.1-0.8s0-0.5-0.1-0.8c0-0.3-0.1-0.5-0.2-0.8C83,51.5,82.8,51.2,82.6,51.1z"/>
		<path fill="#020202" d="M91.2,53.8v2.6h-0.8v-6.1h0.9c0.9,0,1.5,0.1,1.9,0.4c0.4,0.3,0.6,0.7,0.6,1.3c0,0.6-0.2,1-0.6,1.3
			c-0.4,0.3-0.9,0.4-1.5,0.4C91.6,53.8,91.2,53.8,91.2,53.8z M91.2,51v2.2h0.2c0.2,0,0.4,0,0.6,0s0.3-0.1,0.5-0.1s0.3-0.2,0.4-0.3
			C93,52.4,93,52.3,93,52c0-0.2,0-0.4-0.1-0.6c-0.1-0.2-0.2-0.3-0.4-0.3S92.1,51,92,51s-0.4,0-0.6,0C91.4,51,91.2,51,91.2,51z"/>
		<path fill="#020202" d="M99.1,54.8h-2.8l-0.7,1.5h-0.8l2.9-6.3l2.9,6.3h-0.8L99.1,54.8z M98.7,54.1l-1.1-2.5l-1.1,2.5H98.7z"/>
		<path fill="#020202" d="M103.4,50.3v5.4h1.8v0.7h-2.6v-6.1H103.4z"/>
		<path fill="#020202" d="M108.2,50.3v5.4h1.8v0.7h-2.6v-6.1H108.2z"/>
		<path fill="#020202" d="M118.9,56.5l-1.8-4.2h0l-0.7,4h-0.8l1.2-6.3l2.1,4.8L121,50l1.2,6.3h-0.8l-0.7-4h0L118.9,56.5z"/>
		<path fill="#020202" d="M128.2,54.8h-2.8l-0.7,1.5h-0.8l2.9-6.3l2.9,6.3h-0.8L128.2,54.8z M127.9,54.1l-1.1-2.5l-1.1,2.5H127.9z"
			/>
		<path fill="#020202" d="M132.6,50.3v5.4h1.9v0.7h-2.6v-6.1H132.6z"/>
		<path fill="#020202" d="M137.4,50.3v5.4h1.9v0.7h-2.6v-6.1H137.4z"/>
		<path fill="#020202" d="M142.1,55.4l0.6,0.2l-1.1,2.2l-0.4-0.2L142.1,55.4z"/>
		<path fill="#020202" d="M53.6,67.2L53,67.6c-0.2-0.4-0.6-0.6-1-0.6c-0.3,0-0.5,0.1-0.7,0.2c-0.2,0.2-0.3,0.4-0.3,0.6
			c0,0.4,0.3,0.7,0.8,0.9l0.4,0.2c0.5,0.2,0.9,0.4,1.1,0.7c0.3,0.3,0.4,0.7,0.4,1.1c0,0.5-0.2,1-0.6,1.4c-0.4,0.4-0.8,0.5-1.4,0.5
			c-0.5,0-0.9-0.2-1.3-0.5c-0.4-0.3-0.6-0.7-0.6-1.2l0.8-0.2c0,0.3,0.1,0.6,0.3,0.8c0.2,0.2,0.5,0.3,0.8,0.3c0.3,0,0.6-0.1,0.8-0.4
			c0.2-0.2,0.3-0.5,0.3-0.8c0-0.3-0.1-0.5-0.3-0.7c-0.2-0.2-0.4-0.3-0.8-0.5l-0.4-0.2c-0.4-0.2-0.7-0.4-1-0.6
			c-0.2-0.2-0.4-0.5-0.4-0.9c0-0.5,0.2-0.9,0.5-1.1c0.4-0.3,0.8-0.4,1.3-0.4C52.7,66.3,53.2,66.6,53.6,67.2z"/>
		<path fill="#020202" d="M57.9,67.1v5.4h-0.8v-5.4h-1.4v-0.7h3.7v0.7H57.9z"/>
		<path fill="#020202" d="M61,71.9c0.1-0.1,0.2-0.1,0.3-0.1c0.1,0,0.2,0,0.3,0.1c0.1,0.1,0.1,0.2,0.1,0.3c0,0.1,0,0.2-0.1,0.3
			c-0.1,0.1-0.2,0.1-0.3,0.1c-0.1,0-0.2,0-0.3-0.1c-0.1-0.1-0.1-0.2-0.1-0.3C60.8,72.1,60.9,71.9,61,71.9z"/>
		<path fill="#020202" d="M69.7,66.4h0.8v3.9c0,0.3,0,0.6-0.1,0.9c0,0.2-0.1,0.5-0.2,0.7c-0.1,0.2-0.3,0.4-0.5,0.6
			c-0.2,0.1-0.5,0.2-0.9,0.2c-0.3,0-0.7-0.1-1-0.3l0.4-0.6c0.2,0.1,0.4,0.2,0.6,0.2c0.1,0,0.2,0,0.3-0.1s0.2-0.1,0.2-0.1
			s0.1-0.1,0.2-0.2c0-0.1,0.1-0.2,0.1-0.3c0-0.1,0-0.2,0-0.3c0-0.1,0-0.2,0-0.3c0-0.1,0-0.2,0-0.3L69.7,66.4L69.7,66.4z"/>
		<path fill="#020202" d="M76.8,71H74l-0.7,1.5h-0.8l2.9-6.3l2.9,6.3h-0.8L76.8,71z M76.5,70.3l-1.1-2.5l-1.1,2.5H76.5z"/>
		<path fill="#020202" d="M83.3,72.6l-1.8-4.2h0l-0.7,4H80l1.2-6.3l2.1,4.8l2.1-4.8l1.2,6.3h-0.8l-0.7-4h0L83.3,72.6z"/>
		<path fill="#020202" d="M88.9,72.5v-6.1h3.3v0.7h-2.5v1.7h2.4v0.7h-2.4v2.3h2.5v0.7C92.2,72.5,88.9,72.5,88.9,72.5z"/>
		<path fill="#020202" d="M98.1,67.2l-0.6,0.4c-0.2-0.4-0.6-0.6-1-0.6c-0.3,0-0.5,0.1-0.7,0.2c-0.2,0.2-0.3,0.4-0.3,0.6
			c0,0.4,0.3,0.7,0.8,0.9l0.4,0.2c0.5,0.2,0.9,0.4,1.1,0.7c0.3,0.3,0.4,0.7,0.4,1.1c0,0.5-0.2,1-0.6,1.4c-0.4,0.4-0.8,0.5-1.4,0.5
			c-0.5,0-0.9-0.2-1.3-0.5c-0.4-0.3-0.6-0.7-0.6-1.2l0.8-0.2c0,0.3,0.1,0.6,0.3,0.8c0.2,0.2,0.5,0.3,0.8,0.3c0.3,0,0.6-0.1,0.8-0.4
			c0.2-0.2,0.3-0.5,0.3-0.8c0-0.3-0.1-0.5-0.3-0.7c-0.2-0.2-0.4-0.3-0.8-0.5L96,69.4c-0.4-0.2-0.7-0.4-1-0.6
			c-0.2-0.2-0.4-0.5-0.4-0.9c0-0.5,0.2-0.9,0.5-1.1s0.8-0.4,1.3-0.4C97.2,66.3,97.7,66.6,98.1,67.2z"/>
		<path fill="#020202" d="M101.2,66.3l0.6,0.2l-1.1,2.2l-0.5-0.2L101.2,66.3z"/>
		<path fill="#020202" d="M107.9,67.2l-0.6,0.4c-0.2-0.4-0.6-0.6-1-0.6c-0.3,0-0.5,0.1-0.7,0.2c-0.2,0.2-0.3,0.4-0.3,0.6
			c0,0.4,0.3,0.7,0.8,0.9l0.4,0.2c0.5,0.2,0.9,0.4,1.1,0.7c0.3,0.3,0.4,0.7,0.4,1.1c0,0.5-0.2,1-0.6,1.4c-0.4,0.4-0.8,0.5-1.4,0.5
			c-0.5,0-0.9-0.2-1.3-0.5c-0.4-0.3-0.6-0.7-0.6-1.2l0.8-0.2c0,0.3,0.1,0.6,0.3,0.8c0.2,0.2,0.5,0.3,0.8,0.3c0.3,0,0.6-0.1,0.8-0.4
			c0.2-0.2,0.3-0.5,0.3-0.8c0-0.3-0.1-0.5-0.3-0.7c-0.2-0.2-0.4-0.3-0.8-0.5l-0.4-0.2c-0.4-0.2-0.7-0.4-1-0.6
			c-0.2-0.2-0.4-0.5-0.4-0.9c0-0.5,0.2-0.9,0.5-1.1s0.8-0.4,1.3-0.4C107,66.3,107.5,66.6,107.9,67.2z"/>
		<path fill="#020202" d="M111.3,71.6l0.6,0.2l-1.1,2.2l-0.4-0.2L111.3,71.6z"/>
		<path fill="#020202" d="M115.2,66.4v5.4h1.8v0.7h-2.6v-6.1H115.2z"/>
		<path fill="#020202" d="M119.7,67.2c0.6-0.6,1.4-0.9,2.2-0.9s1.6,0.3,2.2,0.9s0.9,1.4,0.9,2.2c0,0.9-0.3,1.7-0.9,2.3
			c-0.6,0.6-1.4,0.9-2.3,0.9s-1.6-0.3-2.3-0.9c-0.6-0.6-0.9-1.4-0.9-2.3C118.8,68.6,119.1,67.9,119.7,67.2z M120.2,71.2
			c0.5,0.5,1.1,0.7,1.7,0.7s1.2-0.2,1.7-0.7c0.5-0.5,0.7-1.1,0.7-1.7c0-0.7-0.2-1.3-0.7-1.7c-0.5-0.5-1-0.7-1.7-0.7
			c-0.7,0-1.3,0.2-1.7,0.7c-0.5,0.5-0.7,1.1-0.7,1.7C119.5,70.2,119.8,70.7,120.2,71.2z"/>
		<path fill="#020202" d="M127.4,72.5v-6.4l4.6,4.8v-4.5h0.8v6.3l-4.6-4.8v4.5L127.4,72.5L127.4,72.5z"/>
		<path fill="#020202" d="M135.4,72.5v-6.1h1.3c1,0,1.8,0.3,2.4,0.8c0.6,0.5,1,1.3,1,2.2c0,1-0.3,1.8-1,2.3s-1.5,0.8-2.5,0.8H135.4z
			 M136.1,67.1v4.7h0.3c0.4,0,0.8,0,1.1-0.1c0.3-0.1,0.6-0.2,0.9-0.4c0.3-0.2,0.5-0.4,0.6-0.7c0.2-0.3,0.2-0.7,0.2-1.1
			c0-0.4-0.1-0.8-0.2-1.1c-0.2-0.3-0.4-0.6-0.6-0.7s-0.6-0.3-0.9-0.4c-0.3-0.1-0.7-0.1-1.1-0.1C136.4,67.1,136.1,67.1,136.1,67.1z"
			/>
		<path fill="#020202" d="M142.9,67.2c0.6-0.6,1.4-0.9,2.2-0.9s1.6,0.3,2.2,0.9c0.6,0.6,0.9,1.4,0.9,2.2c0,0.9-0.3,1.7-0.9,2.3
			c-0.6,0.6-1.4,0.9-2.3,0.9c-0.9,0-1.6-0.3-2.3-0.9c-0.6-0.6-0.9-1.4-0.9-2.3C142,68.6,142.3,67.9,142.9,67.2z M143.5,71.2
			c0.5,0.5,1.1,0.7,1.7,0.7s1.2-0.2,1.7-0.7c0.5-0.5,0.7-1.1,0.7-1.7c0-0.7-0.2-1.3-0.7-1.7c-0.5-0.5-1-0.7-1.7-0.7
			s-1.3,0.2-1.7,0.7s-0.7,1.1-0.7,1.7C142.8,70.2,143,70.7,143.5,71.2z"/>
		<path fill="#020202" d="M150.7,72.5v-6.4l4.6,4.8v-4.5h0.8v6.3l-4.6-4.8v4.5L150.7,72.5L150.7,72.5z"/>
		<path fill="#020202" d="M159.4,71.6l0.6,0.2L159,74l-0.4-0.2L159.4,71.6z"/>
		<path fill="#020202" d="M71.6,83.4L71,83.7c-0.2-0.4-0.6-0.6-1-0.6c-0.3,0-0.5,0.1-0.7,0.2S69,83.8,69,84c0,0.4,0.3,0.7,0.8,0.9
			l0.4,0.2c0.5,0.2,0.9,0.4,1.1,0.7c0.3,0.3,0.4,0.7,0.4,1.1c0,0.5-0.2,1-0.6,1.4c-0.4,0.4-0.8,0.5-1.4,0.5c-0.5,0-0.9-0.2-1.3-0.5
			c-0.4-0.3-0.6-0.7-0.6-1.2l0.8-0.2c0,0.3,0.1,0.6,0.3,0.8c0.2,0.2,0.5,0.3,0.8,0.3c0.3,0,0.6-0.1,0.8-0.4c0.2-0.2,0.3-0.5,0.3-0.8
			c0-0.3-0.1-0.5-0.3-0.7c-0.2-0.2-0.4-0.3-0.8-0.5l-0.4-0.2c-0.4-0.2-0.7-0.4-1-0.6s-0.4-0.5-0.4-0.9c0-0.5,0.2-0.9,0.5-1.1
			c0.4-0.3,0.8-0.4,1.3-0.4C70.8,82.5,71.3,82.8,71.6,83.4z"/>
		<path fill="#020202" d="M74.4,82.6l1.7,4.4l1.7-4.5l1.7,4.5l1.7-4.4h0.8l-2.5,6.3l-1.7-4.5l-1.7,4.5l-2.5-6.3H74.4z"/>
		<path fill="#020202" d="M85.7,83.3h-1.1l0.4-0.7h1.4v6.1h-0.7L85.7,83.3L85.7,83.3z"/>
		<path fill="#020202" d="M91.8,86l-2-3.4h0.9l1.5,2.6l1.5-2.6h0.9l-2,3.4v2.6h-0.8C91.8,88.7,91.8,86,91.8,86z"/>
		<path fill="#020202" d="M104.3,83.3h-1.9l-0.4,1.3l0.4,0c0.6,0,1,0.2,1.4,0.6s0.5,0.9,0.5,1.5c0,0.6-0.2,1.2-0.7,1.6
			c-0.4,0.4-1,0.6-1.6,0.6c-0.4,0-0.7-0.1-1.1-0.3c-0.3-0.2-0.6-0.5-0.8-0.8l0.6-0.5c0.1,0.3,0.3,0.5,0.5,0.6
			c0.3,0.2,0.5,0.3,0.8,0.3c0.4,0,0.8-0.1,1-0.4c0.3-0.3,0.4-0.6,0.4-1.1c0-0.4-0.1-0.7-0.4-1s-0.6-0.4-1-0.4c-0.2,0-0.4,0-0.6,0.1
			c-0.2,0.1-0.4,0.2-0.5,0.4H101l0.9-3.1h2.4V83.3z"/>
		<path fill="#020202" d="M106.9,88.7v-6.4l4.6,4.8v-4.5h0.8v6.3l-4.6-4.8v4.5L106.9,88.7L106.9,88.7z"/>
		<path fill="#020202" d="M120.8,88.8h-0.9l-0.5-0.5c-0.5,0.4-1.1,0.5-1.7,0.5c-0.9,0-1.6-0.3-2.3-0.9c-0.6-0.6-0.9-1.4-0.9-2.3
			c0-0.9,0.3-1.6,0.9-2.2c0.6-0.6,1.4-0.9,2.2-0.9s1.6,0.3,2.2,0.9c0.6,0.6,0.9,1.4,0.9,2.2c0,0.4-0.1,0.8-0.3,1.2
			c-0.2,0.4-0.4,0.7-0.7,1L120.8,88.8z M118.4,86.4l1,1c0.2-0.2,0.4-0.5,0.5-0.8s0.2-0.6,0.2-0.9c0-0.7-0.2-1.3-0.7-1.7
			c-0.5-0.5-1-0.7-1.7-0.7c-0.7,0-1.3,0.2-1.7,0.7c-0.5,0.5-0.7,1.1-0.7,1.7c0,0.7,0.2,1.3,0.7,1.7c0.5,0.5,1.1,0.7,1.7,0.7
			c0.4,0,0.8-0.1,1.2-0.3l-1.4-1.4L118.4,86.4L118.4,86.4z"/>
		<path fill="#020202" d="M123.9,87.7l0.6,0.2l-1.1,2.2l-0.4-0.2L123.9,87.7z"/>
		<path fill="#020202" d="M131,82.6h0.8v3.6c0,1.3,0.5,1.9,1.5,1.9c1,0,1.5-0.6,1.5-1.9v-3.6h0.8v3.9c0,0.7-0.2,1.3-0.6,1.7
			c-0.4,0.4-0.9,0.7-1.6,0.7s-1.2-0.2-1.6-0.7c-0.4-0.4-0.6-1-0.6-1.7V82.6z"/>
		<path fill="#020202" d="M138.9,85.2l2.6-2.6h1l-2.7,2.7l2.8,3.4h-1l-2.3-2.8l-0.3,0.3v2.5h-0.8v-6.1h0.8L138.9,85.2L138.9,85.2z"
			/>
		<path fill="#020202" d="M67,100.7h0.7v1.7h1.7v0.7h-1.7v1.7H67v-1.7h-1.7v-0.7H67V100.7z"/>
		<path fill="#020202" d="M75.1,103.3h0.7v0.7h-0.7v0.9h-0.7v-0.9h-3l3.7-5.5L75.1,103.3L75.1,103.3z M74.4,103.3v-2.5h0l-1.7,2.5
			H74.4z"/>
		<path fill="#020202" d="M81.4,103.3h0.7v0.7h-0.7v0.9h-0.7v-0.9h-3l3.7-5.5L81.4,103.3L81.4,103.3z M80.7,103.3v-2.5h0l-1.7,2.5
			H80.7z"/>
		<path fill="#020202" d="M89.7,104.1h2.5v0.7h-3.9l2.7-3.3c0.4-0.4,0.5-0.8,0.5-1.1c0-0.3-0.1-0.6-0.4-0.8
			c-0.2-0.2-0.5-0.3-0.8-0.3c-0.3,0-0.6,0.1-0.8,0.3c-0.2,0.2-0.4,0.5-0.4,0.8h-0.8c0.1-0.5,0.3-1,0.6-1.3s0.8-0.5,1.3-0.5
			c0.5,0,1,0.2,1.4,0.5c0.4,0.3,0.6,0.8,0.6,1.3c0,0.5-0.2,0.9-0.5,1.3L89.7,104.1z"/>
		<path fill="#020202" d="M97.3,104.7c-0.2,0.1-0.5,0.2-0.8,0.2s-0.6-0.1-0.8-0.2c-0.2-0.1-0.4-0.3-0.6-0.5
			c-0.2-0.2-0.3-0.5-0.4-0.8c-0.1-0.3-0.2-0.6-0.2-0.8c0-0.3-0.1-0.5-0.1-0.8c0-0.3,0-0.7,0.1-1c0.1-0.3,0.2-0.7,0.4-1
			c0.2-0.3,0.4-0.6,0.7-0.8c0.3-0.2,0.6-0.3,1-0.3c0.4,0,0.7,0.1,1,0.3c0.3,0.2,0.5,0.5,0.7,0.8c0.2,0.3,0.3,0.7,0.4,1
			c0.1,0.3,0.1,0.7,0.1,1c0,0.3,0,0.5-0.1,0.8s-0.1,0.6-0.2,0.8c-0.1,0.3-0.2,0.5-0.4,0.8C97.7,104.4,97.5,104.6,97.3,104.7z
			 M97.1,99.5c-0.2-0.2-0.4-0.3-0.7-0.3c-0.3,0-0.5,0.1-0.7,0.3s-0.3,0.4-0.4,0.7c-0.1,0.3-0.2,0.5-0.2,0.8s-0.1,0.5-0.1,0.8
			c0,0.2,0,0.5,0.1,0.8c0,0.3,0.1,0.5,0.2,0.8c0.1,0.3,0.2,0.5,0.4,0.7c0.2,0.2,0.4,0.3,0.7,0.3c0.3,0,0.5-0.1,0.7-0.3
			c0.2-0.2,0.3-0.4,0.4-0.7c0.1-0.3,0.2-0.5,0.2-0.8c0-0.3,0.1-0.5,0.1-0.8c0-0.2,0-0.5-0.1-0.8c0-0.3-0.1-0.5-0.2-0.8
			C97.5,99.9,97.3,99.7,97.1,99.5z"/>
		<path fill="#020202" d="M103.9,99.4h-3.2v-0.7h4.4l-3.8,6.2l-0.6-0.4L103.9,99.4z"/>
		<path fill="#020202" d="M109.7,98.6l0.5,0.4l-1.6,2.2l0,0c0.2-0.1,0.4-0.1,0.6-0.1c0.5,0,0.9,0.2,1.2,0.6c0.3,0.4,0.5,0.8,0.5,1.3
			c0,0.6-0.2,1-0.6,1.4c-0.4,0.4-0.9,0.6-1.4,0.6c-0.5,0-1-0.2-1.4-0.6c-0.4-0.4-0.6-0.8-0.6-1.4c0-0.5,0.2-1,0.7-1.6L109.7,98.6z
			 M109,104.3c0.3,0,0.6-0.1,0.9-0.4c0.3-0.2,0.4-0.5,0.4-0.9c0-0.4-0.1-0.7-0.4-0.9c-0.3-0.3-0.6-0.4-0.9-0.4s-0.6,0.1-0.9,0.4
			c-0.3,0.3-0.4,0.6-0.4,0.9c0,0.3,0.1,0.7,0.4,0.9C108.4,104.2,108.7,104.3,109,104.3z"/>
		<path fill="#020202" d="M116,98.6l0.5,0.4l-1.6,2.2l0,0c0.2-0.1,0.4-0.1,0.6-0.1c0.5,0,0.9,0.2,1.2,0.6c0.3,0.4,0.5,0.8,0.5,1.3
			c0,0.6-0.2,1-0.6,1.4c-0.4,0.4-0.9,0.6-1.4,0.6c-0.5,0-1-0.2-1.4-0.6c-0.4-0.4-0.6-0.8-0.6-1.4c0-0.5,0.2-1,0.7-1.6L116,98.6z
			 M115.3,104.3c0.3,0,0.6-0.1,0.9-0.4c0.3-0.2,0.4-0.5,0.4-0.9c0-0.4-0.1-0.7-0.4-0.9c-0.3-0.3-0.6-0.4-0.9-0.4s-0.6,0.1-0.9,0.4
			c-0.3,0.3-0.4,0.6-0.4,0.9c0,0.3,0.1,0.7,0.4,0.9C114.6,104.2,115,104.3,115.3,104.3z"/>
		<path fill="#020202" d="M123,103.3h0.7v0.7H123v0.9h-0.7v-0.9h-3l3.7-5.5L123,103.3L123,103.3z M122.3,103.3v-2.5h0l-1.7,2.5
			H122.3z"/>
		<path fill="#020202" d="M126,103.1c0-0.3,0.1-0.6,0.2-0.9s0.4-0.4,0.7-0.6c-0.5-0.3-0.8-0.8-0.8-1.4c0-0.5,0.2-0.9,0.5-1.2
			c0.3-0.3,0.8-0.5,1.2-0.5c0.5,0,0.9,0.2,1.2,0.5c0.3,0.3,0.5,0.7,0.5,1.2c0,0.6-0.3,1.1-0.8,1.4c0.3,0.1,0.5,0.3,0.7,0.6
			c0.2,0.3,0.2,0.6,0.2,0.9c0,0.6-0.2,1-0.6,1.3c-0.4,0.3-0.8,0.5-1.4,0.5c-0.5,0-1-0.2-1.4-0.5C126.1,104.1,126,103.7,126,103.1z
			 M128.7,102.3c-0.2-0.2-0.5-0.3-0.8-0.3s-0.6,0.1-0.8,0.3c-0.2,0.2-0.4,0.5-0.4,0.8c0,0.3,0.1,0.6,0.4,0.8
			c0.2,0.2,0.5,0.3,0.8,0.3c0.3,0,0.6-0.1,0.8-0.3c0.2-0.2,0.4-0.5,0.4-0.8C129,102.8,128.9,102.5,128.7,102.3z M128.6,99.6
			c-0.2-0.2-0.4-0.3-0.7-0.3c-0.3,0-0.5,0.1-0.7,0.3c-0.2,0.2-0.3,0.5-0.3,0.7c0,0.2,0.1,0.5,0.3,0.7c0.2,0.2,0.5,0.3,0.7,0.3
			c0.3,0,0.5-0.1,0.7-0.3c0.2-0.2,0.3-0.5,0.3-0.7C128.9,100,128.8,99.8,128.6,99.6z"/>
		<path fill="#020202" d="M134.9,98.6l0.6,0.4l-1.6,2.2l0,0c0.2-0.1,0.4-0.1,0.6-0.1c0.5,0,0.9,0.2,1.2,0.6c0.3,0.4,0.5,0.8,0.5,1.3
			c0,0.6-0.2,1-0.6,1.4c-0.4,0.4-0.9,0.6-1.4,0.6c-0.5,0-1-0.2-1.4-0.6c-0.4-0.4-0.6-0.8-0.6-1.4c0-0.5,0.2-1,0.7-1.6L134.9,98.6z
			 M134.2,104.3c0.3,0,0.6-0.1,0.9-0.4c0.3-0.2,0.4-0.5,0.4-0.9c0-0.4-0.1-0.7-0.4-0.9c-0.3-0.3-0.6-0.4-0.9-0.4s-0.6,0.1-0.9,0.4
			c-0.3,0.3-0.4,0.6-0.4,0.9c0,0.3,0.1,0.7,0.4,0.9C133.5,104.2,133.8,104.3,134.2,104.3z"/>
		<path fill="#020202" d="M139.9,104.1h2.5v0.7h-3.9l2.7-3.3c0.4-0.4,0.5-0.8,0.5-1.1c0-0.3-0.1-0.6-0.4-0.8
			c-0.2-0.2-0.5-0.3-0.8-0.3c-0.3,0-0.6,0.1-0.8,0.3c-0.2,0.2-0.4,0.5-0.4,0.8h-0.8c0.1-0.5,0.3-1,0.6-1.3s0.8-0.5,1.3-0.5
			c0.5,0,1,0.2,1.4,0.5c0.4,0.3,0.6,0.8,0.6,1.3c0,0.5-0.2,0.9-0.5,1.3L139.9,104.1z"/>
		<path fill="#020202" d="M146.6,101.9v-0.6c0.8,0,1.2-0.3,1.2-1c0-0.3-0.1-0.6-0.3-0.8c-0.2-0.2-0.5-0.3-0.8-0.3
			c-0.3,0-0.5,0.1-0.7,0.2c-0.2,0.2-0.3,0.4-0.3,0.6H145c0.1-0.5,0.3-0.9,0.6-1.1c0.3-0.3,0.7-0.4,1.2-0.4s0.9,0.1,1.3,0.4
			s0.5,0.7,0.5,1.2c0,0.6-0.3,1.1-0.8,1.4c0.6,0.3,0.9,0.8,0.9,1.5c0,0.6-0.2,1-0.6,1.3c-0.4,0.3-0.8,0.5-1.4,0.5
			c-0.5,0-0.9-0.2-1.3-0.5c-0.4-0.3-0.6-0.7-0.6-1.2h0.7c0,0.3,0.2,0.5,0.4,0.7s0.5,0.3,0.8,0.3c0.3,0,0.6-0.1,0.8-0.3
			c0.2-0.2,0.3-0.5,0.3-0.8c0-0.4-0.1-0.7-0.4-0.9C147.3,102,147,101.9,146.6,101.9z"/>
	</g>
</g>
<g>
</g>
<g>
</g>
<g>
</g>
<g>
</g>
<g>
</g>
<g>
</g>
</svg>
