<?xml version="1.0" encoding="utf-8"?>
<!-- Generator: Adobe Illustrator 18.1.1, SVG Export Plug-In . SVG Version: 6.00 Build 0)  -->
<svg version="1.1" id="Layer_1" xmlns="http://www.w3.org/2000/svg" xmlns:xlink="http://www.w3.org/1999/xlink" x="0px" y="0px"
	 viewBox="-15 7.5 330 75" enable-background="new -15 7.5 330 75" xml:space="preserve">
<g>
	<g>
		<path fill="#C7AE21" d="M134.5,32.5c0,0,0,0.1,0,0.1c0,0-0.1,0.1-0.1,0.1l0,0c-0.4,0-0.6,0-0.8,0c-1.2,0-2.1-0.2-2.7-0.7
			s-0.8-1.2-0.8-2.1c0-0.4,0.1-1.1,0.2-2.1c0.2-1,0.2-1.7,0.2-2c0-0.3-0.1-0.5-0.3-0.7s-0.4-0.3-0.5-0.3c-0.4,0-1.1,0.4-2.2,1.1
			c-1.1,0.7-2.4,1.8-3.8,3.1c-0.1,0.1-0.1,0.1-0.2,0.1c-0.1,0-0.1,0.1-0.2,0.1c0,0,0,0-0.1,0c0,0,0,0-0.1,0c-0.1,0-0.1,0-0.2-0.1
			c0-0.1-0.1-0.1-0.1-0.2c0,0,0,0,0-0.1c0,0,0,0,0-0.1c0.6-0.7,1.4-1.7,2.1-2.9c0.8-1.2,1.3-2.1,1.4-2.8c0-0.1-0.1-0.1-0.1-0.2
			c-0.1-0.1-0.1-0.1-0.2-0.1c-0.5,0-1.4,0.4-2.8,1.2c-1.4,0.8-2.5,1.5-3.2,2c-0.9,1.2-1.9,2.3-3,3.4s-2.1,1.7-3,2.1
			c-0.1,0-0.1-0.1-0.1-0.2c0-0.1-0.1-0.1-0.1-0.2c0-0.4,0.6-1.1,1.7-2.3c1.1-1.1,2.3-2.1,3.6-3c0.5-0.6,1.1-1.5,1.7-2.6
			s0.9-2,0.9-2.6c-0.1-0.3-0.3-0.6-0.4-0.8c-0.2-0.2-0.3-0.4-0.5-0.5c-1.5,0-3.1,0.6-4.8,1.7s-2.5,2.2-2.5,3.3c0,0.1,0,0.1,0.1,0.2
			s0.2,0.2,0.3,0.3c0.6,0,1.4-0.3,2.4-0.8c1-0.5,2-1.2,2.9-1.9c0.1,0,0.1,0,0.1,0.1c0,0,0.1,0.1,0.1,0.1c0,0,0,0.1,0,0.1
			c0,0,0,0,0,0.1c-1.2,1.1-2.3,2-3.3,2.6c-1,0.6-1.8,0.9-2.5,0.9c-0.3,0-0.6-0.1-0.8-0.3s-0.3-0.5-0.3-0.9c0-0.6,0.3-1.2,0.8-1.9
			c0.5-0.7,1.3-1.4,2.2-2c1.4-1,2.6-1.6,3.4-1.9s1.7-0.5,2.6-0.5c0.4,0,0.8,0.2,1.1,0.5s0.4,0.6,0.4,1c0,0.3-0.1,0.7-0.3,1.3
			c-0.2,0.6-0.6,1.3-1,2.2l-0.5,1.1c0.3-0.1,0.8-0.4,1.5-0.8c2.7-1.4,4.3-2.1,4.8-2.1c0.2,0,0.3,0.1,0.4,0.2s0.2,0.3,0.2,0.6
			c-0.2,0.5-0.5,1.1-0.9,1.8c-0.4,0.7-1.1,1.5-1.8,2.5l0,0c0.9-0.6,1.6-1,2.2-1.4s1-0.7,1.3-0.9c0.4-0.3,0.7-0.4,1-0.5
			s0.6-0.1,0.9-0.1c0.3,0.2,0.6,0.4,0.7,0.6s0.1,0.5,0.1,1c0,0.3-0.1,1.1-0.4,2.4s-0.4,2.2-0.4,2.6c0,0.6,0.3,1.1,0.8,1.5
			s1.3,0.5,2.2,0.5c0.1,0,0.2,0,0.3,0c0.1,0,0.1,0,0.2,0c0.1,0,0.1,0,0.1,0.1C134.5,32.4,134.5,32.4,134.5,32.5z M118.7,26.8
			c-0.3,0.1-0.9,0.6-1.9,1.5s-1.6,1.5-1.8,1.9l0,0.2c0.5-0.4,1.1-0.9,1.8-1.6c0.7-0.7,1.3-1.3,1.8-1.9L118.7,26.8z"/>
		<path fill="#C7AE21" d="M147,28.9C147,28.9,147,29,147,28.9c0,0.1,0,0.1-0.1,0.1c-0.9,0.5-1.8,0.9-2.5,1.2
			c-0.8,0.3-1.4,0.4-2.1,0.4c-0.2,0-0.6-0.1-1-0.2c-0.1,0-0.1,0-0.1,0c-0.3-0.1-0.5-0.4-0.7-0.7s-0.4-0.6-0.4-1
			c-0.3,0.2-0.6,0.4-1,0.7c-0.2,0.1-0.3,0.2-0.4,0.2c-0.9,0.6-1.5,0.9-1.9,1.1s-0.7,0.3-1,0.3c-0.5,0-0.9-0.2-1.2-0.5
			s-0.4-0.8-0.4-1.3c0-0.3,0.1-0.7,0.2-1s0.3-0.6,0.5-0.9c0,0,0,0,0,0c0,0,0.1,0,0.1,0c0.1,0,0.3,0,0.4,0.1c0.1,0.1,0.2,0.1,0.2,0.2
			c-0.1,0.2-0.2,0.4-0.2,0.6c-0.1,0.2-0.1,0.5-0.1,0.7c0,0.4,0.1,0.7,0.3,0.9c0.2,0.2,0.4,0.3,0.7,0.3c0.7,0,1.4-0.3,2.2-0.8
			c0.8-0.6,1.7-1.4,2.6-2.5c0.1,0,0.1,0,0.2,0.1c0.1,0,0.1,0.1,0.2,0.1c0,0,0,0,0,0.1s0,0,0,0c0,0,0,0.1,0,0.2c0,0.1,0,0.1-0.1,0.2
			c-0.1,0.1-0.1,0.3-0.1,0.4c0,0.1,0,0.3,0,0.4c0,0.5,0.1,0.9,0.4,1.2c0.3,0.3,0.6,0.5,1.1,0.5c0.6,0,1.3-0.1,2-0.3s1.4-0.5,2.1-0.9
			c0,0,0,0,0.1,0c0,0,0,0,0.1,0c0,0,0.1,0,0.1,0.1C147,28.8,147,28.9,147,28.9z"/>
		<path fill="#C7AE21" d="M163.1,28.9C163.1,28.9,163.1,29,163.1,28.9c0,0.1,0,0.1-0.1,0.1c-1.1,0.6-1.9,1.1-2.6,1.3
			s-1.1,0.4-1.5,0.4c-0.3,0-0.6-0.1-0.9-0.4c-0.3-0.3-0.5-0.8-0.8-1.4c0-0.1-0.1-0.2-0.1-0.4c-0.1-0.3-0.2-0.5-0.2-0.5
			c-0.4,0.1-0.9,0.3-1.4,0.6c-0.5,0.3-1,0.6-1.6,1c-0.2,0.1-0.5,0.3-0.8,0.6s-0.6,0.4-0.6,0.4c-0.3,0-0.5-0.1-0.6-0.2
			s-0.2-0.3-0.2-0.5c0-0.1,0-0.3,0.1-0.6c0.1-0.3,0.2-0.8,0.4-1.4c0-0.1-0.1-0.2-0.2-0.3c-0.1-0.1-0.3-0.2-0.4-0.2
			c-0.4,0-1.1,0.3-2.1,1c-1.1,0.7-2.2,1.5-3.3,2.5c-0.2,0-0.3,0-0.4-0.1c-0.1-0.1-0.2-0.2-0.2-0.5c0.4-0.6,0.8-1.3,1.1-1.9
			c0.3-0.6,0.6-1.3,0.8-2c0.1,0,0.3,0,0.4,0.1c0.1,0.1,0.2,0.1,0.3,0.3v0.5c0,0.1-0.1,0.3-0.2,0.7c0,0.1-0.1,0.1-0.1,0.2
			c-0.1,0.2-0.1,0.4-0.2,0.6c0,0.2-0.1,0.4-0.1,0.6c0.2-0.1,1-0.6,2.4-1.5c1.4-0.8,2.1-1.3,2.3-1.3c0.3,0.1,0.5,0.2,0.6,0.3
			c0.1,0.1,0.2,0.3,0.2,0.5c0,0.1,0,0.2,0,0.4c0,0.1-0.1,0.3-0.1,0.6c0,0,0,0.1,0,0.1c-0.1,0.4-0.1,0.7-0.1,0.9c0,0.1,0,0.2,0,0.2
			c0,0.1,0,0.2,0,0.2c0.2-0.1,0.5-0.3,0.7-0.5c0.3-0.2,0.6-0.4,1-0.7c0.1-0.1,0.4-0.2,0.6-0.4c1.1-0.7,1.7-1.1,1.8-1.1
			c0.3,0,0.5,0.1,0.7,0.2c0.2,0.1,0.3,0.3,0.4,0.6c0.2,0.9,0.4,1.5,0.6,1.7c0.2,0.2,0.5,0.3,0.9,0.3c0.3,0,0.7-0.1,1.5-0.4
			c0.7-0.3,1.3-0.5,1.7-0.8c0,0,0,0,0,0c0,0,0,0,0.1,0c0,0,0.1,0,0.1,0.1C163.1,28.8,163.1,28.9,163.1,28.9z"/>
		<path fill="#C7AE21" d="M172.4,28.9C172.4,28.9,172.4,29,172.4,28.9c0,0.1,0,0.1-0.1,0.1c-0.3,0.1-0.6,0.2-0.9,0.3
			c-0.3,0.1-0.5,0.1-0.8,0.1c-0.5,0-0.9-0.1-1.3-0.3s-0.9-0.5-1.2-0.8c-0.1,0.1-0.2,0.2-0.3,0.3c-0.3,0.2-0.5,0.4-0.7,0.6
			c-0.6,0.5-1.2,0.9-1.7,1.2s-1,0.4-1.4,0.4c-0.5,0-1-0.2-1.2-0.5c-0.3-0.3-0.4-0.6-0.4-1.2c0-0.5,0.1-1.1,0.3-1.7
			c0.2-0.6,0.5-1.2,0.9-1.9c0.8-1.4,1.9-2.6,3.3-3.7c1.4-1.1,2.6-1.7,3.5-1.7c0.3,0,0.5,0.1,0.7,0.3s0.2,0.4,0.2,0.7
			c-0.5,1.2-1.4,2.4-2.8,3.5s-2.9,2.1-4.7,2.8c-0.1,0.2-0.2,0.5-0.3,0.7c-0.1,0.3-0.1,0.6-0.1,0.9c0.1,0.2,0.2,0.4,0.3,0.5
			s0.3,0.2,0.5,0.2c0.8,0,1.5-0.2,2.1-0.6c0.6-0.4,1.1-0.9,1.4-1.5c-0.1,0-0.1-0.1-0.1-0.1c0-0.1-0.1-0.1-0.1-0.2c0-0.1,0-0.1,0-0.2
			c0-0.1,0.1-0.1,0.1-0.2c0,0,0.1-0.1,0.2-0.1c0.1,0,0.2,0,0.3,0c0.1,0,0.2,0,0.2,0c0.1,0,0.1,0,0.1,0.1c0.2,0.6,0.5,1,0.9,1.3
			c0.4,0.3,0.9,0.5,1.5,0.5c0.3,0,0.5,0,0.7,0s0.4-0.1,0.6-0.1c0,0,0,0,0,0c0,0,0,0,0.1,0c0,0,0.1,0,0.1,0.1
			C172.4,28.8,172.4,28.9,172.4,28.9z M170.4,21.2c0-0.1-0.1-0.1-0.1-0.2s-0.1-0.1-0.1-0.2c-0.2,0-0.5,0.1-0.7,0.2
			c-0.3,0.1-0.6,0.3-1,0.6c-0.8,0.5-1.6,1.3-2.4,2.2c-0.9,1-1.5,1.8-1.9,2.5c1.8-0.7,3.4-1.5,4.5-2.5
			C169.9,22.9,170.4,22,170.4,21.2z"/>
		<path fill="#C7AE21" d="M181.8,28.9C181.8,28.9,181.8,29,181.8,28.9c0,0.1,0,0.1-0.1,0.1c-0.5,0.3-1.1,0.6-1.7,0.8
			c-0.6,0.2-1.2,0.3-1.6,0.3c-0.4,0-0.9-0.1-1.2-0.2c-0.4-0.1-0.7-0.3-1-0.5c-0.8,0.6-1.5,1-2.2,1.3c-0.6,0.3-1.2,0.4-1.7,0.4
			c-0.3,0-0.5-0.1-0.7-0.2c-0.2-0.1-0.3-0.3-0.3-0.6c0-0.8,0.6-1.7,1.9-2.6s2.5-1.5,3.6-1.7c0.1,0,0.2,0.1,0.4,0.3
			c0.2,0.2,0.3,0.3,0.4,0.4c0,0.1,0,0.2-0.1,0.4c-0.1,0.1-0.2,0.2-0.3,0.3c-0.1,0-0.1,0-0.2-0.1c-0.1-0.1-0.2-0.2-0.3-0.2
			c0,0,0,0-0.1,0c0,0-0.1,0-0.1,0c-0.7,0-1.5,0.4-2.5,1.2s-1.5,1.4-1.5,1.7c0,0.1,0,0.2,0.1,0.3c0.1,0.1,0.2,0.2,0.3,0.2
			c0.8-0.1,1.6-0.4,2.3-0.9c0.7-0.5,1.3-1.1,1.8-1.8h0c0.1,0,0.3,0,0.5,0.1s0.3,0.2,0.3,0.2l-0.8,0.9c0.2,0.1,0.4,0.2,0.7,0.3
			s0.5,0.1,0.8,0.1c0.5,0,1-0.1,1.5-0.2s1-0.3,1.4-0.5c0,0,0,0,0,0c0,0,0,0,0.1,0c0,0,0.1,0,0.1,0.1
			C181.8,28.8,181.8,28.9,181.8,28.9z"/>
		<path fill="#C7AE21" d="M187.3,28.9C187.3,28.9,187.3,29,187.3,28.9c0,0.1,0,0.1-0.1,0.1c-0.6,0.4-1.4,0.8-2.3,1.1
			c-0.9,0.3-1.6,0.4-2.2,0.4c-0.5,0-0.8-0.1-1.1-0.3s-0.4-0.5-0.4-0.9c0-0.2,0-0.3,0.1-0.5s0.1-0.4,0.2-0.6l1-1.7
			c0-0.1,0.1-0.2,0.1-0.2c0.1-0.1,0.2-0.1,0.3-0.1c0.1,0.1,0.2,0.1,0.3,0.2s0.1,0.2,0.1,0.3c-0.3,0.5-0.6,0.9-0.8,1.3
			c-0.2,0.4-0.3,0.6-0.3,0.7v0c0,0.1,0,0.3,0.1,0.5c0.1,0.2,0.1,0.3,0.2,0.4c0.2,0.1,0.3,0.1,0.4,0.1s0.2,0,0.3,0
			c0.5,0,1.1-0.1,1.9-0.3c0.8-0.2,1.4-0.5,1.8-0.8c0,0,0,0,0.1,0c0,0,0,0,0.1,0c0,0,0.1,0,0.1,0.1C187.3,28.8,187.3,28.9,187.3,28.9
			z M185.6,22.9c-0.1,0.2-0.3,0.5-0.5,0.7c-0.2,0.2-0.5,0.3-0.7,0.3c-0.1,0-0.1-0.1-0.2-0.2c0-0.1-0.1-0.2-0.1-0.3
			c0-0.2,0.1-0.5,0.2-0.7c0.1-0.2,0.3-0.4,0.6-0.6h0.3c0.1,0,0.1,0.1,0.2,0.1c0,0.1,0.1,0.1,0.1,0.2c0,0,0,0,0,0.1
			C185.5,22.7,185.5,22.8,185.6,22.9z"/>
	</g>
	<g>
		<g>
			<path d="M-2.8,54.1v-5.4l4,4.2v-4h0.6v5.4l-4-4.2v4L-2.8,54.1L-2.8,54.1z"/>
			<path d="M4.8,49.6c0.5-0.5,1.2-0.8,1.9-0.8s1.4,0.3,1.9,0.8s0.8,1.1,0.8,1.9s-0.3,1.4-0.8,1.9c-0.5,0.5-1.2,0.8-1.9,0.8
				s-1.4-0.3-1.9-0.8C4.2,52.9,4,52.3,4,51.5S4.2,50.2,4.8,49.6z M8.1,50c-0.4-0.4-0.9-0.6-1.5-0.6S5.6,49.6,5.2,50
				s-0.6,0.9-0.6,1.5c0,0.6,0.2,1.1,0.6,1.5c0.4,0.4,0.9,0.6,1.5,0.6s1.1-0.2,1.5-0.6c0.4-0.4,0.6-0.9,0.6-1.5
				C8.8,50.9,8.6,50.4,8.1,50z"/>
			<path d="M11.7,53.5c0.1-0.1,0.2-0.1,0.3-0.1s0.2,0,0.3,0.1c0.1,0.1,0.1,0.2,0.1,0.3s0,0.2-0.1,0.3s-0.2,0.1-0.3,0.1
				s-0.2,0-0.3-0.1c-0.1-0.1-0.1-0.2-0.1-0.3S11.7,53.6,11.7,53.5z"/>
			<path d="M16.3,49.5h-0.9l0.3-0.5h1.1v5.1h-0.6V49.5z"/>
			<path d="M21,53.3l0.5,0.2l-0.8,1.7l-0.4-0.1L21,53.3z"/>
			<path d="M28.4,53.6h2.2v0.5h-3.3l2.4-2.8c0.2-0.3,0.3-0.6,0.3-0.9c0-0.3-0.1-0.5-0.3-0.7c-0.2-0.2-0.4-0.3-0.7-0.3
				c-0.3,0-0.6,0.1-0.7,0.3s-0.3,0.5-0.3,0.8h-0.6c0-0.5,0.2-0.8,0.5-1.1c0.3-0.3,0.7-0.5,1.1-0.5c0.4,0,0.8,0.1,1.1,0.4
				c0.3,0.3,0.5,0.7,0.5,1.1c0,0.4-0.1,0.8-0.4,1.1L28.4,53.6z"/>
			<path d="M33,54.1v-5.4l4,4.2v-4h0.6v5.4l-4-4.2v4L33,54.1L33,54.1z"/>
			<path d="M40,54.1v-5.1h1c0.4,0,0.8,0,1.1,0.1c0.3,0.1,0.6,0.2,0.9,0.5c0.6,0.5,0.9,1.1,0.9,2c0,0.8-0.3,1.4-0.8,1.9
				c-0.3,0.3-0.6,0.4-0.9,0.5s-0.7,0.1-1.1,0.1H40z M40.6,53.6H41c0.4,0,0.7,0,0.9-0.1c0.3-0.1,0.5-0.2,0.7-0.4
				c0.4-0.4,0.6-0.9,0.6-1.5c0-0.6-0.2-1.2-0.7-1.5c-0.2-0.2-0.5-0.3-0.7-0.4c-0.3-0.1-0.5-0.1-0.9-0.1h-0.4V53.6z"/>
			<path d="M51.8,49.5h-1.8V51h1.7v0.5h-1.7v2.6h-0.6v-5.1h2.3C51.8,48.9,51.8,49.5,51.8,49.5z"/>
			<path d="M54.7,48.9v4.6h1.4v0.5h-2v-5.1L54.7,48.9L54.7,48.9z"/>
			<path d="M58.6,49.6c0.5-0.5,1.2-0.8,1.9-0.8s1.4,0.3,1.9,0.8s0.8,1.1,0.8,1.9s-0.3,1.4-0.8,1.9c-0.5,0.5-1.2,0.8-1.9,0.8
				s-1.4-0.3-1.9-0.8c-0.5-0.5-0.8-1.1-0.8-1.9S58,50.2,58.6,49.6z M62,50c-0.4-0.4-0.9-0.6-1.5-0.6S59.4,49.6,59,50
				s-0.6,0.9-0.6,1.5c0,0.6,0.2,1.1,0.6,1.5c0.4,0.4,0.9,0.6,1.5,0.6s1.1-0.2,1.5-0.6c0.4-0.4,0.6-0.9,0.6-1.5
				C62.6,50.9,62.4,50.4,62,50z"/>
			<path d="M65.8,49.6c0.5-0.5,1.2-0.8,1.9-0.8s1.4,0.3,1.9,0.8s0.8,1.1,0.8,1.9s-0.3,1.4-0.8,1.9c-0.5,0.5-1.2,0.8-1.9,0.8
				s-1.4-0.3-1.9-0.8c-0.5-0.5-0.8-1.1-0.8-1.9S65.3,50.2,65.8,49.6z M69.2,50c-0.4-0.4-0.9-0.6-1.5-0.6s-1.1,0.2-1.5,0.6
				s-0.6,0.9-0.6,1.5c0,0.6,0.2,1.1,0.6,1.5c0.4,0.4,0.9,0.6,1.5,0.6s1.1-0.2,1.5-0.6c0.4-0.4,0.6-0.9,0.6-1.5
				C69.8,50.9,69.6,50.4,69.2,50z"/>
			<path d="M73.1,51.8v2.3h-0.6v-5.1h0.7c0.3,0,0.5,0,0.7,0.1s0.4,0.1,0.6,0.2c0.2,0.1,0.3,0.2,0.4,0.4c0.1,0.2,0.1,0.4,0.1,0.7
				c0,0.4-0.1,0.7-0.3,1c-0.2,0.3-0.5,0.4-0.9,0.4l1.6,2.3h-0.7l-1.6-2.3H73.1z M73.1,49.5v1.8h0.2c0.2,0,0.3,0,0.5,0
				c0.1,0,0.3-0.1,0.4-0.1s0.2-0.2,0.3-0.3c0.1-0.1,0.1-0.3,0.1-0.5c0-0.2,0-0.3-0.1-0.4s-0.1-0.2-0.2-0.3c-0.1-0.1-0.2-0.1-0.3-0.2
				c-0.1,0-0.2-0.1-0.4-0.1c-0.1,0-0.2,0-0.4,0L73.1,49.5L73.1,49.5z"/>
			<path d="M78.1,53.3l0.5,0.2l-0.8,1.7l-0.4-0.1L78.1,53.3z"/>
			<path d="M84.6,54.1v-5.4l4,4.2v-4h0.6v5.4l-4-4.2v4L84.6,54.1L84.6,54.1z"/>
			<path d="M92.2,48.9v5.1h-0.6v-5.1H92.2z"/>
			<path d="M95.1,51.8v2.3h-0.6v-5.1h0.7c0.3,0,0.5,0,0.7,0.1s0.4,0.1,0.6,0.2c0.2,0.1,0.3,0.2,0.4,0.4c0.1,0.2,0.1,0.4,0.1,0.7
				c0,0.4-0.1,0.7-0.3,1c-0.2,0.3-0.5,0.4-0.9,0.4l1.6,2.3h-0.7l-1.6-2.3H95.1z M95.1,49.5v1.8h0.2c0.2,0,0.3,0,0.5,0
				c0.1,0,0.3-0.1,0.4-0.1s0.2-0.2,0.3-0.3c0.1-0.1,0.1-0.3,0.1-0.5c0-0.2,0-0.3-0.1-0.4s-0.1-0.2-0.2-0.3c-0.1-0.1-0.2-0.1-0.3-0.2
				c-0.1,0-0.2-0.1-0.4-0.1c-0.1,0-0.2,0-0.4,0L95.1,49.5L95.1,49.5z"/>
			<path d="M99.3,54.1l1-5.4l1.9,4.3l1.9-4.3l1,5.4h-0.6l-0.7-3.5h0l-1.7,3.7l-1.7-3.7h0l-0.7,3.5C99.8,54.1,99.3,54.1,99.3,54.1z"
				/>
			<path d="M110.1,52.6h-2.2l-0.6,1.5h-0.6l2.4-5.4l2.3,5.4h-0.6L110.1,52.6z M109.8,52.1L109,50l-0.9,2.1H109.8z"/>
			<path d="M113.8,48.9v4.6h1.4v0.5h-2v-5.1L113.8,48.9L113.8,48.9z"/>
			<path d="M120.6,54.1v-5.1h0.8c0.5,0,0.9,0.1,1.2,0.3c0.3,0.2,0.5,0.6,0.5,1.1c0,0.4-0.2,0.8-0.5,1c0.3,0.1,0.5,0.2,0.7,0.5
				c0.2,0.2,0.3,0.5,0.3,0.8c0,0.5-0.2,0.8-0.5,1.1c-0.3,0.2-0.8,0.4-1.3,0.4H120.6z M121.2,49.5v1.7h0.2c0.2,0,0.3,0,0.5,0
				c0.1,0,0.2-0.1,0.4-0.1c0.1-0.1,0.2-0.1,0.3-0.3c0.1-0.1,0.1-0.3,0.1-0.5c0-0.4-0.1-0.6-0.3-0.7c-0.2-0.1-0.5-0.2-0.9-0.2H121.2z
				 M121.2,51.7v1.9h0.6c0.9,0,1.3-0.3,1.3-0.9c0-0.6-0.5-0.9-1.4-0.9C121.7,51.7,121.2,51.7,121.2,51.7z"/>
			<path d="M126.4,48.9v4.6h1.4v0.5h-2v-5.1L126.4,48.9L126.4,48.9z"/>
			<path d="M129.8,54.1v-5.1h1c0.4,0,0.8,0,1.1,0.1c0.3,0.1,0.6,0.2,0.9,0.5c0.6,0.5,0.9,1.1,0.9,2c0,0.8-0.3,1.4-0.8,1.9
				c-0.3,0.3-0.6,0.4-0.9,0.5s-0.7,0.1-1.1,0.1H129.8z M130.4,53.6h0.4c0.4,0,0.7,0,0.9-0.1s0.5-0.2,0.7-0.4
				c0.4-0.4,0.6-0.9,0.6-1.5c0-0.6-0.2-1.2-0.7-1.5c-0.2-0.2-0.5-0.3-0.7-0.4c-0.3-0.1-0.5-0.1-0.9-0.1h-0.4L130.4,53.6L130.4,53.6z
				"/>
			<path d="M138.4,51.5h2.1c0,0.4,0,0.7-0.1,1c-0.1,0.3-0.2,0.6-0.4,0.8c-0.2,0.3-0.5,0.5-0.9,0.6c-0.3,0.2-0.7,0.2-1,0.2
				c-0.7,0-1.3-0.3-1.9-0.8s-0.8-1.1-0.8-1.9c0-0.7,0.3-1.4,0.8-1.9c0.5-0.5,1.2-0.8,1.9-0.8c0.9,0,1.6,0.4,2.2,1.1l-0.4,0.4
				c-0.5-0.6-1-1-1.8-1c-0.6,0-1.1,0.2-1.5,0.6c-0.4,0.4-0.6,0.9-0.6,1.5c0,0.6,0.2,1,0.6,1.5c0.2,0.2,0.4,0.4,0.7,0.5
				c0.3,0.1,0.5,0.2,0.8,0.2c0.5,0,0.9-0.2,1.3-0.5c0.4-0.3,0.6-0.7,0.6-1.1h-1.5L138.4,51.5L138.4,51.5z"/>
			<path d="M143.2,53.3l0.5,0.2l-0.8,1.7l-0.4-0.1L143.2,53.3z"/>
			<path d="M149.7,54.1v-5.4l4,4.2v-4h0.6v5.4l-4-4.2v4L149.7,54.1L149.7,54.1z"/>
			<path d="M159.7,52.6h-2.2l-0.6,1.5h-0.6l2.4-5.4l2.3,5.4h-0.6L159.7,52.6z M159.4,52.1l-0.9-2.1l-0.9,2.1H159.4z"/>
			<path d="M163.4,51.8v2.3h-0.6v-5.1h0.7c0.3,0,0.5,0,0.7,0.1s0.4,0.1,0.6,0.2c0.2,0.1,0.3,0.2,0.4,0.4s0.1,0.4,0.1,0.7
				c0,0.4-0.1,0.7-0.3,1c-0.2,0.3-0.5,0.4-0.9,0.4l1.6,2.3h-0.7l-1.6-2.3H163.4z M163.4,49.5v1.8h0.2c0.2,0,0.3,0,0.5,0
				c0.1,0,0.3-0.1,0.4-0.1c0.1-0.1,0.2-0.2,0.3-0.3c0.1-0.1,0.1-0.3,0.1-0.5c0-0.2,0-0.3-0.1-0.4s-0.1-0.2-0.2-0.3
				c-0.1-0.1-0.2-0.1-0.3-0.2c-0.1,0-0.2-0.1-0.4-0.1c-0.1,0-0.2,0-0.4,0L163.4,49.5L163.4,49.5z"/>
			<path d="M168.5,48.9v5.1h-0.6v-5.1H168.5z"/>
			<path d="M170.5,54.1l1-5.4l1.9,4.3l1.9-4.3l1,5.4h-0.6l-0.7-3.5h0l-1.7,3.7l-1.6-3.7h0l-0.7,3.5
				C171.1,54.1,170.5,54.1,170.5,54.1z"/>
			<path d="M181.3,52.6h-2.2l-0.6,1.5h-0.6l2.4-5.4l2.3,5.4h-0.6L181.3,52.6z M181.1,52.1l-0.9-2.1l-0.9,2.1H181.1z"/>
			<path d="M184.5,54.1v-5.4l4,4.2v-4h0.6v5.4l-4-4.2v4L184.5,54.1L184.5,54.1z"/>
			<path d="M195.6,51.8v2.3H195v-5.1h0.8c0.3,0,0.5,0,0.7,0s0.4,0.1,0.6,0.2c0.2,0.1,0.3,0.3,0.4,0.5c0.1,0.2,0.1,0.4,0.1,0.7
				c0,0.5-0.2,0.8-0.5,1.1c-0.3,0.2-0.7,0.3-1.2,0.3H195.6z M195.6,49.5v1.8h0.4c0.8,0,1.2-0.3,1.2-0.9c0-0.2,0-0.3-0.1-0.4
				c-0.1-0.1-0.1-0.2-0.2-0.3c-0.1-0.1-0.2-0.1-0.3-0.1s-0.2-0.1-0.4-0.1c-0.1,0-0.2,0-0.4,0L195.6,49.5L195.6,49.5z"/>
			<path d="M200.3,49.6c0.5-0.5,1.2-0.8,1.9-0.8s1.4,0.3,1.9,0.8s0.8,1.1,0.8,1.9s-0.3,1.4-0.8,1.9c-0.5,0.5-1.2,0.8-1.9,0.8
				s-1.4-0.3-1.9-0.8c-0.5-0.5-0.8-1.1-0.8-1.9S199.8,50.2,200.3,49.6z M203.7,50c-0.4-0.4-0.9-0.6-1.5-0.6s-1.1,0.2-1.5,0.6
				s-0.6,0.9-0.6,1.5c0,0.6,0.2,1.1,0.6,1.5c0.4,0.4,0.9,0.6,1.5,0.6s1.1-0.2,1.5-0.6c0.4-0.4,0.6-0.9,0.6-1.5
				C204.3,50.9,204.1,50.4,203.7,50z"/>
			<path d="M207.6,48.9v5.1h-0.6v-5.1H207.6z"/>
			<path d="M210.1,54.1v-5.4l4,4.2v-4h0.6v5.4l-4-4.2v4L210.1,54.1L210.1,54.1z"/>
			<path d="M218.5,49.5v4.6h-0.6v-4.6h-1.2v-0.5h3.1v0.5H218.5z"/>
			<path d="M221.5,53.3l0.5,0.2l-0.8,1.7l-0.4-0.1L221.5,53.3z"/>
			<path d="M227.5,54.1l1-5.4l1.9,4.3l1.9-4.3l1,5.4h-0.6l-0.7-3.5h0l-1.7,3.7l-1.6-3.7h0l-0.7,3.5
				C228.1,54.1,227.5,54.1,227.5,54.1z"/>
			<path d="M236,48.9V52c0,0.2,0,0.3,0,0.4s0,0.2,0.1,0.4c0,0.2,0.1,0.3,0.2,0.4c0.1,0.2,0.3,0.3,0.5,0.4s0.4,0.1,0.6,0.1
				c0.2,0,0.4,0,0.6-0.1c0.2-0.1,0.3-0.2,0.5-0.3c0.1-0.1,0.1-0.2,0.2-0.4c0-0.1,0.1-0.3,0.1-0.3c0-0.1,0-0.2,0-0.4c0,0,0-0.1,0-0.1
				v-3.1h0.6v3.2c0,0.3,0,0.6-0.1,0.8s-0.2,0.4-0.4,0.6c-0.4,0.4-0.8,0.6-1.4,0.6c-0.5,0-1-0.2-1.3-0.5c-0.2-0.2-0.3-0.4-0.4-0.6
				c-0.1-0.2-0.1-0.5-0.1-0.9v-3.2L236,48.9L236,48.9z"/>
			<path d="M241.1,54.1l1-5.4L244,53l1.9-4.3l1,5.4h-0.6l-0.7-3.5h0l-1.7,3.7l-1.6-3.7h0l-0.7,3.5C241.6,54.1,241.1,54.1,241.1,54.1
				z"/>
			<path d="M248.9,54.1v-5.1h0.8c0.5,0,0.9,0.1,1.2,0.3c0.3,0.2,0.5,0.6,0.5,1.1c0,0.4-0.2,0.8-0.5,1c0.3,0.1,0.5,0.2,0.7,0.5
				c0.2,0.2,0.3,0.5,0.3,0.8c0,0.5-0.2,0.8-0.5,1.1c-0.3,0.2-0.8,0.4-1.3,0.4H248.9z M249.5,49.5v1.7h0.2c0.2,0,0.3,0,0.5,0
				c0.1,0,0.2-0.1,0.4-0.1s0.2-0.1,0.3-0.3c0.1-0.1,0.1-0.3,0.1-0.5c0-0.4-0.1-0.6-0.3-0.7c-0.2-0.1-0.5-0.2-0.9-0.2H249.5z
				 M249.5,51.7v1.9h0.6c0.9,0,1.3-0.3,1.3-0.9c0-0.6-0.5-0.9-1.4-0.9C250,51.7,249.5,51.7,249.5,51.7z"/>
			<path d="M257.1,52.6h-2.2l-0.6,1.5h-0.6l2.4-5.4l2.3,5.4h-0.6L257.1,52.6z M256.9,52.1L256,50l-0.9,2.1H256.9z"/>
			<path d="M260.9,48.9v5.1h-0.6v-5.1H260.9z"/>
			<path d="M262.8,52.2h1.4v0.5h-1.4V52.2z"/>
			<path d="M272.2,52.7h0.6v0.5h-0.6v0.8h-0.6v-0.8H269l3.2-4.6h0L272.2,52.7L272.2,52.7z M271.7,52.7v-2.3h0l-1.6,2.3H271.7z"/>
			<path d="M275.8,49.1c0.2-0.2,0.5-0.3,0.8-0.3s0.6,0.1,0.8,0.3c0.2,0.2,0.4,0.4,0.6,0.7c0.1,0.3,0.2,0.6,0.3,0.9
				c0.1,0.3,0.1,0.6,0.1,0.9c0,0.3,0,0.6-0.1,1c-0.1,0.3-0.2,0.6-0.4,0.8s-0.3,0.5-0.6,0.6c-0.2,0.2-0.5,0.2-0.8,0.2
				s-0.5-0.1-0.8-0.2c-0.2-0.2-0.4-0.4-0.6-0.6c-0.1-0.3-0.3-0.5-0.4-0.8c-0.1-0.3-0.1-0.6-0.1-1c0-0.3,0-0.6,0.1-0.9
				c0.1-0.3,0.2-0.6,0.3-0.9C275.4,49.5,275.6,49.3,275.8,49.1z M277.3,49.6c-0.2-0.2-0.4-0.2-0.6-0.2s-0.4,0.1-0.6,0.2
				c-0.2,0.2-0.3,0.3-0.4,0.6c-0.1,0.2-0.2,0.5-0.2,0.7c0,0.2-0.1,0.4-0.1,0.6c0,0.2,0,0.4,0.1,0.6c0,0.2,0.1,0.4,0.2,0.7
				s0.2,0.4,0.4,0.6s0.4,0.2,0.6,0.2s0.4-0.1,0.6-0.2s0.3-0.3,0.4-0.6s0.2-0.5,0.2-0.7c0-0.2,0.1-0.4,0.1-0.6c0-0.2,0-0.4-0.1-0.6
				c0-0.2-0.1-0.5-0.2-0.7C277.6,50,277.4,49.8,277.3,49.6z"/>
			<path d="M281.4,49.1c0.2-0.2,0.5-0.3,0.8-0.3s0.6,0.1,0.8,0.3c0.2,0.2,0.4,0.4,0.6,0.7c0.1,0.3,0.2,0.6,0.3,0.9
				c0.1,0.3,0.1,0.6,0.1,0.9c0,0.3,0,0.6-0.1,1c-0.1,0.3-0.2,0.6-0.4,0.8s-0.3,0.5-0.6,0.6c-0.2,0.2-0.5,0.2-0.8,0.2
				s-0.5-0.1-0.8-0.2c-0.2-0.2-0.4-0.4-0.6-0.6c-0.1-0.3-0.3-0.5-0.4-0.8c-0.1-0.3-0.1-0.6-0.1-1c0-0.3,0-0.6,0.1-0.9
				c0.1-0.3,0.2-0.6,0.3-0.9C281,49.5,281.2,49.3,281.4,49.1z M282.8,49.6c-0.2-0.2-0.4-0.2-0.6-0.2s-0.4,0.1-0.6,0.2
				c-0.2,0.2-0.3,0.3-0.4,0.6c-0.1,0.2-0.2,0.5-0.2,0.7c0,0.2-0.1,0.4-0.1,0.6c0,0.2,0,0.4,0.1,0.6c0,0.2,0.1,0.4,0.2,0.7
				s0.2,0.4,0.4,0.6s0.4,0.2,0.6,0.2s0.4-0.1,0.6-0.2s0.3-0.3,0.4-0.6s0.2-0.5,0.2-0.7c0-0.2,0.1-0.4,0.1-0.6c0-0.2,0-0.4-0.1-0.6
				c0-0.2-0.1-0.5-0.2-0.7C283.1,50,283,49.8,282.8,49.6z"/>
			<path d="M290.4,49.1c0.2-0.2,0.5-0.3,0.8-0.3s0.6,0.1,0.8,0.3c0.2,0.2,0.4,0.4,0.6,0.7c0.1,0.3,0.2,0.6,0.3,0.9
				c0.1,0.3,0.1,0.6,0.1,0.9c0,0.3,0,0.6-0.1,1c-0.1,0.3-0.2,0.6-0.4,0.8s-0.3,0.5-0.6,0.6c-0.2,0.2-0.5,0.2-0.8,0.2
				s-0.5-0.1-0.8-0.2c-0.2-0.2-0.4-0.4-0.6-0.6c-0.1-0.3-0.3-0.5-0.4-0.8c-0.1-0.3-0.1-0.6-0.1-1c0-0.3,0-0.6,0.1-0.9
				c0.1-0.3,0.2-0.6,0.3-0.9C290,49.5,290.2,49.3,290.4,49.1z M291.9,49.6c-0.2-0.2-0.4-0.2-0.6-0.2s-0.4,0.1-0.6,0.2
				c-0.2,0.2-0.3,0.3-0.4,0.6c-0.1,0.2-0.2,0.5-0.2,0.7c0,0.2-0.1,0.4-0.1,0.6c0,0.2,0,0.4,0.1,0.6c0,0.2,0.1,0.4,0.2,0.7
				s0.2,0.4,0.4,0.6s0.4,0.2,0.6,0.2s0.4-0.1,0.6-0.2s0.3-0.3,0.4-0.6s0.2-0.5,0.2-0.7c0-0.2,0.1-0.4,0.1-0.6c0-0.2,0-0.4-0.1-0.6
				c0-0.2-0.1-0.5-0.2-0.7C292.2,50,292,49.8,291.9,49.6z"/>
			<path d="M296.2,53.6h2.2v0.5H295l2.4-2.8c0.2-0.3,0.3-0.6,0.3-0.9c0-0.3-0.1-0.5-0.3-0.7c-0.2-0.2-0.4-0.3-0.7-0.3
				c-0.3,0-0.6,0.1-0.7,0.3c-0.2,0.2-0.3,0.5-0.3,0.8h-0.6c0-0.5,0.2-0.8,0.5-1.1c0.3-0.3,0.7-0.5,1.1-0.5c0.4,0,0.8,0.1,1.1,0.4
				c0.3,0.3,0.5,0.7,0.5,1.1c0,0.4-0.1,0.8-0.4,1.1L296.2,53.6z"/>
			<path d="M302.2,49.5h-0.9l0.3-0.5h1.1v5.1h-0.6V49.5z"/>
			<path d="M98.6,65.8v4.6H98v-4.6h-1.2v-0.5h3.1v0.5H98.6z"/>
			<path d="M101.8,70.5v-5.1h2.7v0.5h-2.1v1.5h2v0.5h-2v2h2.1v0.5L101.8,70.5L101.8,70.5z"/>
			<path d="M107.3,65.3v4.6h1.4v0.5h-2v-5.1L107.3,65.3L107.3,65.3z"/>
			<path d="M115.5,67.1h0.5v1.4h1.4V69H116v1.4h-0.5V69h-1.4v-0.5h1.4V67.1z"/>
			<path d="M120.9,70.5l-0.4-0.3l1.2-1.6l0,0c-0.2,0-0.3,0.1-0.4,0.1c-0.5,0-0.9-0.2-1.2-0.5c-0.3-0.3-0.5-0.7-0.5-1.2
				c0-0.5,0.2-0.9,0.5-1.2s0.8-0.5,1.3-0.5s0.9,0.2,1.3,0.5c0.3,0.3,0.5,0.8,0.5,1.2c0,0.4-0.2,0.8-0.5,1.2L120.9,70.5z M122.1,66.1
				c-0.2-0.2-0.5-0.4-0.8-0.4s-0.6,0.1-0.8,0.4c-0.2,0.2-0.4,0.5-0.4,0.8s0.1,0.6,0.3,0.8c0.2,0.2,0.5,0.3,0.9,0.3
				c0.3,0,0.6-0.1,0.8-0.3c0.2-0.2,0.4-0.5,0.4-0.8S122.4,66.3,122.1,66.1z"/>
			<path d="M126.7,65.8h-0.9l0.3-0.5h1.1v5.1h-0.6V65.8z"/>
			<path d="M135.2,69.9h2.2v0.5h-3.3l2.4-2.8c0.2-0.3,0.3-0.6,0.3-0.9c0-0.3-0.1-0.5-0.3-0.7c-0.2-0.2-0.4-0.3-0.7-0.3
				c-0.3,0-0.6,0.1-0.7,0.3s-0.3,0.5-0.3,0.8h-0.6c0-0.5,0.2-0.8,0.5-1.1c0.3-0.3,0.7-0.5,1.1-0.5c0.4,0,0.8,0.1,1.1,0.4
				c0.3,0.3,0.5,0.7,0.5,1.1c0,0.4-0.1,0.8-0.4,1.1L135.2,69.9z"/>
			<path d="M140.8,69.9h2.2v0.5h-3.3l2.4-2.8c0.2-0.3,0.3-0.6,0.3-0.9c0-0.3-0.1-0.5-0.3-0.7c-0.2-0.2-0.4-0.3-0.7-0.3
				c-0.3,0-0.6,0.1-0.7,0.3s-0.3,0.5-0.3,0.8h-0.6c0-0.5,0.2-0.8,0.5-1.1c0.3-0.3,0.7-0.5,1.1-0.5c0.4,0,0.8,0.1,1.1,0.4
				c0.3,0.3,0.5,0.7,0.5,1.1c0,0.4-0.1,0.8-0.4,1.1L140.8,69.9z"/>
			<path d="M147.4,65.2l0.4,0.3l-1.2,1.6l0,0c0.1-0.1,0.3-0.1,0.4-0.1c0.5,0,0.9,0.2,1.2,0.5c0.3,0.3,0.5,0.7,0.5,1.2
				c0,0.5-0.2,0.9-0.5,1.3c-0.3,0.3-0.8,0.5-1.3,0.5s-0.9-0.2-1.3-0.5c-0.3-0.3-0.5-0.8-0.5-1.2c0-0.4,0.2-0.8,0.5-1.2L147.4,65.2z
				 M146.2,69.7c0.2,0.2,0.5,0.4,0.9,0.4s0.6-0.1,0.8-0.4c0.2-0.2,0.4-0.5,0.4-0.9c0-0.3-0.1-0.6-0.4-0.8c-0.2-0.2-0.5-0.3-0.8-0.3
				c-0.3,0-0.6,0.1-0.9,0.3s-0.3,0.5-0.3,0.8C145.8,69.1,145.9,69.4,146.2,69.7z"/>
			<path d="M153,65.2l0.4,0.3l-1.2,1.6l0,0c0.1-0.1,0.3-0.1,0.4-0.1c0.5,0,0.9,0.2,1.2,0.5s0.5,0.7,0.5,1.2c0,0.5-0.2,0.9-0.5,1.3
				c-0.3,0.3-0.8,0.5-1.3,0.5c-0.5,0-0.9-0.2-1.3-0.5s-0.5-0.8-0.5-1.2c0-0.4,0.2-0.8,0.5-1.2L153,65.2z M151.7,69.7
				c0.2,0.2,0.5,0.4,0.8,0.4s0.6-0.1,0.8-0.4c0.2-0.2,0.4-0.5,0.4-0.9c0-0.3-0.1-0.6-0.4-0.8c-0.2-0.2-0.5-0.3-0.8-0.3
				c-0.3,0-0.6,0.1-0.9,0.3c-0.2,0.2-0.3,0.5-0.3,0.8C151.4,69.1,151.5,69.4,151.7,69.7z"/>
			<path d="M157.9,68v-0.5c0.3,0,0.6-0.1,0.7-0.2s0.3-0.3,0.3-0.6c0-0.3-0.1-0.5-0.2-0.7c-0.2-0.2-0.4-0.2-0.7-0.2
				c-0.2,0-0.4,0.1-0.6,0.2c-0.1,0.1-0.2,0.4-0.3,0.6h-0.6c0-0.4,0.2-0.7,0.4-1s0.6-0.4,1-0.4c0.4,0,0.8,0.1,1,0.4
				c0.3,0.3,0.4,0.6,0.4,1c0,0.2-0.1,0.5-0.2,0.7s-0.3,0.4-0.5,0.5c0.2,0.1,0.4,0.3,0.5,0.5s0.2,0.5,0.2,0.8c0,0.4-0.2,0.8-0.5,1.1
				c-0.3,0.3-0.7,0.4-1.1,0.4c-0.4,0-0.8-0.1-1.1-0.4s-0.4-0.6-0.4-1h0.6c0,0.3,0.1,0.5,0.3,0.6c0.2,0.2,0.4,0.3,0.7,0.3
				c0.3,0,0.5-0.1,0.7-0.3s0.3-0.4,0.3-0.7c0-0.3-0.1-0.6-0.3-0.7S158.2,68,157.9,68z"/>
			<path d="M164.8,65.8H162v-0.5h3.8l-3.5,5.2l-0.4-0.3L164.8,65.8z"/>
			<path d="M170.8,65.8h-1.6l-0.3,1.1l0.3,0c0.5,0,0.9,0.2,1.2,0.5s0.5,0.8,0.5,1.3c0,0.5-0.2,1-0.5,1.3c-0.4,0.3-0.8,0.5-1.3,0.5
				c-0.3,0-0.6-0.1-0.9-0.2s-0.5-0.4-0.7-0.7l0.5-0.3c0.1,0.2,0.3,0.4,0.5,0.5c0.2,0.1,0.4,0.2,0.7,0.2c0.4,0,0.7-0.1,0.9-0.4
				s0.4-0.6,0.4-0.9c0-0.4-0.1-0.7-0.4-0.9c-0.2-0.2-0.6-0.4-0.9-0.4c-0.3,0-0.6,0.1-1,0.3l0.7-2.5h2L170.8,65.8L170.8,65.8z"/>
			<path d="M175.9,65.8h-2.8v-0.5h3.8l-3.5,5.2l-0.4-0.3L175.9,65.8z"/>
			<path d="M180.8,65.2l0.4,0.3l-1.2,1.6l0,0c0.1-0.1,0.3-0.1,0.4-0.1c0.5,0,0.9,0.2,1.2,0.5s0.5,0.7,0.5,1.2c0,0.5-0.2,0.9-0.5,1.3
				c-0.3,0.3-0.8,0.5-1.3,0.5s-0.9-0.2-1.3-0.5c-0.3-0.3-0.5-0.8-0.5-1.2c0-0.4,0.2-0.8,0.5-1.2L180.8,65.2z M179.5,69.7
				c0.2,0.2,0.5,0.4,0.8,0.4s0.6-0.1,0.9-0.4c0.2-0.2,0.4-0.5,0.4-0.9c0-0.3-0.1-0.6-0.4-0.8c-0.2-0.2-0.5-0.3-0.9-0.3
				c-0.3,0-0.6,0.1-0.9,0.3c-0.2,0.2-0.3,0.5-0.3,0.8C179.2,69.1,179.3,69.4,179.5,69.7z"/>
			<path d="M185.8,65.8H185l0.3-0.5h1.1v5.1h-0.6V65.8z"/>
			<path d="M192.8,64.8l0.4,0.2l-3.2,6.5l-0.4-0.2L192.8,64.8z"/>
			<path d="M197.9,65.8h-2.8v-0.5h3.8l-3.5,5.2l-0.4-0.3L197.9,65.8z"/>
			<path d="M202.2,65.8h-0.9l0.3-0.5h1.1v5.1h-0.6V65.8z"/>
		</g>
	</g>
</g>
</svg>
