<?xml version="1.0" encoding="utf-8"?>
<!-- Generator: Adobe Illustrator 18.1.1, SVG Export Plug-In . SVG Version: 6.00 Build 0)  -->
<svg version="1.1" id="Layer_1" xmlns="http://www.w3.org/2000/svg" xmlns:xlink="http://www.w3.org/1999/xlink" x="0px" y="0px"
	 viewBox="0 0 300 60" enable-background="new 0 0 300 60" xml:space="preserve">
<g>
	<g>
		<path fill="#C8B02E" d="M69.4,10.2c0,0.5-0.2,1-0.7,1.6c-0.5,0.6-1.1,1-1.7,1.4c-0.6,0.3-1.1,0.6-1.6,0.9c-0.5,0.2-1,0.5-1.5,0.7
			c0.8,0.1,1.4,0.4,1.9,0.8c0.5,0.4,0.8,0.9,0.8,1.5c0.3,0.1,0.7,0.3,1.2,0.5c0.3,0.1,0.5,0.2,0.7,0.3c0,0,0,0,0,0.1
			c0,0,0,0.1,0,0.1c0,0,0,0.1-0.1,0.1c0,0-0.1,0-0.1,0c-0.2-0.1-0.4-0.1-0.6-0.3c-0.6-0.2-1-0.4-1.2-0.4c-0.5,0.9-1.4,1.8-2.8,2.6
			c-1.4,0.8-2.6,1.1-3.8,1.1c-0.6,0-1-0.1-1.3-0.2c-0.3-0.2-0.5-0.4-0.6-0.8c0-0.8,0.6-1.6,1.9-2.3c1.3-0.7,2.6-1.1,4.1-1.1
			c0,0,0.1,0,0.1,0c0.2,0,0.5,0.1,1,0.1c0,0,0-0.1,0-0.1c0,0,0-0.1,0-0.1c0-0.4-0.2-0.7-0.5-1.1c-0.3-0.3-0.7-0.5-1.2-0.5
			c-0.1,0-0.4,0-0.8,0c-0.4,0-0.8,0.1-1,0.1c-0.1,0-0.1,0-0.2-0.1c0,0-0.1-0.1-0.1-0.2c0,0,0-0.1,0-0.1c0,0,0,0,0.1-0.1
			c1.9-0.6,3.5-1.3,4.7-2.1c1.2-0.8,1.8-1.7,1.8-2.4c-0.1-0.3-0.3-0.6-0.6-0.8C67.2,9.2,66.8,9,66.3,9c-0.5,0-1.2,0.1-1.8,0.3
			C63.8,9.4,63,9.6,62.2,10c-2,0.9-4,2.1-6,3.8c-2,1.7-3,3.1-3,4.2c0,0.2,0,0.4,0.1,0.5c0.1,0.1,0.2,0.2,0.3,0.3
			c1-0.3,2.2-1,3.5-2.1c1.3-1.2,2.5-2.5,3.5-3.9c0,0,0,0,0,0c0,0,0,0,0.1,0c0.1,0,0.1,0,0.1,0.1c0,0,0,0.1,0,0.2
			c-1.1,1.8-2.5,3.4-4.1,4.8c-1.6,1.4-2.9,2.1-3.9,2.1c-0.3-0.1-0.6-0.2-0.8-0.5c-0.2-0.3-0.4-0.5-0.4-0.8c0-1.5,1-3.1,3.1-4.9
			c2.1-1.7,4.5-3.2,7.2-4.3c0.8-0.3,1.8-0.6,2.8-0.9c1-0.3,1.7-0.4,2.1-0.4c0.7,0,1.2,0.1,1.5,0.2c0.3,0.1,0.6,0.4,0.9,0.7
			c0,0.2,0.1,0.3,0.1,0.5C69.4,9.8,69.4,10,69.4,10.2z M64.9,17.6C64.9,17.6,64.9,17.6,64.9,17.6c0-0.1,0-0.1,0-0.1
			c0-0.1,0-0.1,0-0.2c0,0-0.1-0.1-0.1-0.1c-0.1,0-0.3,0-0.5,0c-0.2,0-0.3,0-0.3,0c-1,0-1.9,0.2-2.9,0.7c-0.9,0.5-1.6,1-1.9,1.7
			c0.1,0.2,0.3,0.3,0.7,0.5c0.1,0,0.1,0.1,0.1,0.1c0.9,0,1.8-0.3,2.7-0.8C63.7,19,64.4,18.4,64.9,17.6z"/>
		<path fill="#C8B02E" d="M81.7,18.3C81.7,18.3,81.7,18.3,81.7,18.3c0,0.1,0,0.1-0.1,0.1c-0.7,0.5-1.5,0.9-2.4,1.4
			c-0.9,0.4-2,0.9-3.3,1.5c-0.7,1.8-1.6,3.5-2.7,5c-1.1,1.5-2.4,2.8-3.8,3.8c-0.5,0.4-1.2,0.8-2,1.1c-0.8,0.3-1.4,0.5-1.8,0.5
			c-0.5-0.1-0.9-0.3-1.2-0.5c-0.3-0.3-0.4-0.6-0.4-1c0-1,1.1-2.4,3.3-4.2c2.2-1.8,4.8-3.5,7.7-5.2c0.2-0.4,0.4-0.8,0.5-1.3
			c0.1-0.5,0.2-0.9,0.2-1.3v-0.4l-2.1,1c-0.1,0-0.2,0.1-0.5,0.2c-1.5,0.7-2.4,1.1-2.7,1.1c-0.5,0-0.8-0.1-1-0.4
			c-0.2-0.2-0.4-0.6-0.4-1.1c0-0.1,0.1-0.3,0.2-0.6c0.1-0.2,0.4-0.6,0.8-1c0.1-0.1,0.2-0.3,0.4-0.5c0.2-0.2,0.3-0.3,0.4-0.4
			c0,0,0.1,0,0.1-0.1c0.1,0,0.1,0,0.2,0c0.1,0,0.3,0,0.4,0.1c0.1,0,0.2,0.1,0.2,0.1c0,0.1-0.1,0.2-0.2,0.4c-0.1,0.2-0.3,0.5-0.6,0.8
			c0,0.1-0.1,0.1-0.2,0.2c-0.3,0.3-0.4,0.6-0.5,0.7c0,0.2,0,0.4,0.1,0.5c0.1,0.1,0.1,0.2,0.3,0.2c0.9,0,1.8-0.2,2.7-0.7
			c0.9-0.5,2-1.2,3.2-2.3c0,0,0.1-0.1,0.1-0.1c0,0,0.1,0,0.1,0c0.1,0,0.2,0,0.2,0.1c0.1,0,0.1,0.1,0.1,0.1c-0.2,0.6-0.4,1.3-0.6,2.2
			c-0.2,0.8-0.3,1.5-0.4,2c0.9-0.2,1.8-0.6,2.7-1c0.9-0.4,1.8-0.9,2.6-1.4c0,0,0,0,0.1,0c0,0,0,0,0.1,0c0,0,0.1,0,0.1,0.1
			C81.7,18.1,81.7,18.2,81.7,18.3z M74.5,21.9c-2.3,1.1-4.4,2.3-6.1,3.9c-1.8,1.5-2.7,2.8-2.9,3.8c0,0.2,0.1,0.3,0.3,0.5
			c0.1,0.2,0.3,0.3,0.5,0.3c1.1-0.1,2.5-1,4.1-2.5c1.7-1.5,3-3.3,4-5.3c0.1-0.1,0.1-0.2,0.1-0.4C74.5,22.1,74.5,22,74.5,21.9z"/>
		<path fill="#C8B02E" d="M96.7,18.3C96.7,18.3,96.6,18.3,96.7,18.3c0,0.1,0,0.1-0.1,0.1c-0.5,0.3-1.2,0.6-1.9,0.8
			c-0.7,0.2-1.3,0.3-1.8,0.3s-0.9-0.1-1.3-0.2c-0.4-0.1-0.8-0.3-1.1-0.6c-0.9,0.6-1.7,1.1-2.4,1.4c-0.7,0.3-1.3,0.5-1.8,0.5
			c-0.3,0-0.6-0.1-0.8-0.2c-0.2-0.2-0.3-0.4-0.3-0.6c0-0.9,0.7-1.9,2-2.9c1.4-1,2.7-1.6,4-1.8c0.1,0,0.3,0.1,0.5,0.3
			s0.3,0.3,0.4,0.5c0,0.1,0,0.3-0.1,0.4c-0.1,0.1-0.2,0.2-0.3,0.3c-0.1,0-0.1,0-0.3-0.1c-0.1-0.1-0.2-0.2-0.3-0.3c0,0,0,0-0.1,0
			c0,0-0.1,0-0.1,0c-0.7,0-1.7,0.4-2.7,1.3c-1.1,0.9-1.6,1.5-1.6,1.9c0,0.1,0.1,0.3,0.2,0.4c0.1,0.1,0.2,0.2,0.4,0.2
			c0.9-0.1,1.7-0.5,2.5-1c0.8-0.5,1.4-1.2,1.9-1.9h0c0.1,0,0.3,0.1,0.5,0.2c0.2,0.1,0.3,0.2,0.4,0.3l-0.8,1c0.2,0.1,0.5,0.3,0.7,0.3
			c0.3,0.1,0.6,0.1,0.9,0.1c0.6,0,1.1-0.1,1.7-0.2c0.5-0.1,1.1-0.3,1.6-0.6c0,0,0,0,0,0c0,0,0,0,0.1,0c0,0,0.1,0,0.1,0.1
			C96.6,18.1,96.7,18.2,96.7,18.3z"/>
		<path fill="#C8B02E" d="M107.7,18.3C107.7,18.3,107.7,18.3,107.7,18.3c0,0.1,0,0.1-0.1,0.1c-0.6,0.3-1.3,0.6-2.1,0.7
			c-0.8,0.2-1.7,0.2-2.7,0.2c-0.1,0-0.2,0-0.3,0c-0.1,0-0.3,0-0.6,0c-0.4,0.1-0.9,0.2-1.4,0.3c-0.6,0.1-1,0.2-1.3,0.2
			c0,0-0.1,0-0.1,0c0,0,0-0.1,0-0.1c0-0.1,0-0.1,0.1-0.2c0-0.1,0.1-0.1,0.1-0.1c0.9-0.3,1.7-0.6,2.2-1c0.6-0.4,1-1,1.4-1.6
			c0-0.2-0.1-0.4-0.2-0.5c-0.1-0.1-0.3-0.2-0.5-0.2c-0.4,0-0.9,0.1-1.5,0.3c-0.6,0.2-1.1,0.5-1.4,0.8c-0.8,3-2.2,6-4.3,8.9
			c-2.1,3-3.8,4.5-5.3,4.5c-0.1,0-0.3-0.1-0.4-0.3C89.1,30,89,29.8,89,29.6c0-1.5,1-3.8,3-6.6c2-2.9,4.2-5,6.6-6.5
			c0.1-0.2,0.1-0.3,0.2-0.4c0.1-0.1,0.2-0.2,0.3-0.3c0.1,0,0.2,0,0.3,0.1c0.1,0,0.2,0.1,0.3,0.2c0.5-0.2,1-0.4,1.7-0.6
			c0.7-0.2,1.1-0.3,1.3-0.3c0.5,0,0.8,0.1,1.1,0.3c0.3,0.2,0.4,0.5,0.4,0.9c0,0.4-0.1,0.8-0.4,1.2c-0.3,0.4-0.7,0.8-1.2,1.1
			c0.1,0,0.1,0,0.3,0c0.3,0,0.6,0.1,0.8,0.1c1,0,1.7-0.1,2.3-0.2c0.6-0.1,1.1-0.3,1.6-0.6c0,0,0,0,0.1,0c0,0,0,0,0.1,0
			c0,0,0.1,0,0.1,0.1C107.7,18.1,107.7,18.2,107.7,18.3z M97.9,18.1c-1.9,1-3.6,2.6-5.2,5c-1.6,2.3-2.4,4.2-2.4,5.6
			c0,0.1,0,0.2,0.1,0.2c0,0,0.1,0.1,0.2,0.1c0.7-0.1,1.9-1.1,3.4-3.2c1.5-2.1,2.7-4.2,3.6-6.4c0.1-0.3,0.2-0.6,0.2-0.8
			C97.8,18.4,97.9,18.2,97.9,18.1z"/>
		<path fill="#C8B02E" d="M118.7,18.3C118.7,18.3,118.7,18.3,118.7,18.3c0,0.1,0,0.1-0.1,0.1c-0.6,0.3-1.3,0.6-2.1,0.7
			c-0.8,0.2-1.7,0.2-2.7,0.2c-0.1,0-0.2,0-0.3,0c-0.1,0-0.3,0-0.5,0c-0.4,0.1-0.9,0.2-1.4,0.3c-0.6,0.1-1,0.2-1.2,0.2
			c0,0-0.1,0-0.1,0c0,0,0-0.1,0-0.1c0-0.1,0-0.1,0.1-0.2c0-0.1,0.1-0.1,0.1-0.1c0.9-0.3,1.7-0.6,2.2-1c0.6-0.4,1-1,1.4-1.6
			c0-0.2-0.1-0.4-0.2-0.5c-0.1-0.1-0.3-0.2-0.5-0.2c-0.4,0-0.9,0.1-1.5,0.3c-0.6,0.2-1.1,0.5-1.4,0.8c-0.8,3-2.2,6-4.3,8.9
			c-2.1,3-3.8,4.5-5.3,4.5c-0.1,0-0.3-0.1-0.4-0.3c-0.1-0.2-0.2-0.4-0.2-0.6c0-1.5,1-3.8,3-6.6c2-2.9,4.2-5,6.6-6.5
			c0.1-0.2,0.1-0.3,0.2-0.4c0.1-0.1,0.2-0.2,0.3-0.3c0.1,0,0.2,0,0.3,0.1c0.1,0,0.2,0.1,0.3,0.2c0.5-0.2,1-0.4,1.7-0.6
			c0.7-0.2,1.1-0.3,1.3-0.3c0.5,0,0.8,0.1,1.1,0.3c0.3,0.2,0.4,0.5,0.4,0.9c0,0.4-0.2,0.8-0.4,1.2c-0.3,0.4-0.7,0.8-1.2,1.1
			c0.1,0,0.1,0,0.3,0c0.3,0,0.6,0.1,0.8,0.1c1,0,1.7-0.1,2.3-0.2c0.6-0.1,1.1-0.3,1.6-0.6c0,0,0,0,0.1,0c0,0,0,0,0.1,0
			c0,0,0.1,0,0.1,0.1C118.7,18.1,118.7,18.2,118.7,18.3z M108.9,18.1c-1.9,1-3.6,2.6-5.2,5c-1.6,2.3-2.4,4.2-2.4,5.6
			c0,0.1,0,0.2,0.1,0.2c0,0,0.1,0.1,0.2,0.1c0.7-0.1,1.9-1.1,3.4-3.2c1.5-2.1,2.7-4.2,3.6-6.4c0.1-0.3,0.2-0.6,0.2-0.8
			C108.9,18.4,108.9,18.2,108.9,18.1z"/>
		<path fill="#C8B02E" d="M128.8,18.3C128.8,18.3,128.8,18.3,128.8,18.3c0,0.1,0,0.1-0.1,0.1c-0.4,0.2-0.8,0.3-1.2,0.5
			c-0.4,0.1-0.8,0.2-1.2,0.2c-0.4,0-0.9-0.1-1.4-0.2c-0.5-0.2-0.9-0.3-1.2-0.6c-0.2,0.3-0.4,0.6-0.7,0.9c-0.3,0.3-0.5,0.5-0.7,0.7
			c-0.2,0.2-0.6,0.3-1,0.5c-0.4,0.2-0.7,0.2-1,0.2c-0.7,0-1.2-0.2-1.5-0.5c-0.4-0.3-0.5-0.7-0.5-1.3c0-0.4,0.1-0.8,0.3-1.2
			c0.2-0.4,0.4-0.8,0.8-1.1c0.3-0.3,0.6-0.5,1-0.7c0.4-0.2,0.7-0.3,1-0.3c0,0,0.1,0,0.2,0c0.1,0,0.2,0,0.3,0h0.1
			c0.1-0.1,0.1-0.2,0.2-0.3c0.1-0.1,0.2-0.1,0.3-0.1c0.1,0,0.1,0,0.2,0c0.1,0,0.2,0,0.3,0.1c0.3,0.1,0.5,0.4,0.7,0.7
			c0.2,0.3,0.2,0.7,0.2,1.2c0.1,0.4,0.4,0.8,0.9,1c0.4,0.3,1,0.4,1.6,0.4c0.5,0,1,0,1.3-0.1c0.4-0.1,0.7-0.2,1-0.4c0,0,0,0,0,0
			c0,0,0,0,0.1,0c0,0,0.1,0,0.1,0.1C128.8,18.1,128.8,18.2,128.8,18.3z M123.2,17.7c-0.4-0.3-0.7-0.6-0.8-0.8
			c-0.2-0.2-0.3-0.5-0.4-0.7c-0.7,0-1.3,0.3-1.8,0.9c-0.5,0.6-0.7,1-0.7,1.5c0,0.4,0.1,0.7,0.3,0.9c0.2,0.2,0.5,0.4,0.9,0.4
			c0.7,0,1.2-0.2,1.7-0.6C122.8,18.8,123.1,18.3,123.2,17.7z"/>
		<path fill="#C8B02E" d="M134.8,18.3C134.8,18.3,134.8,18.3,134.8,18.3c0,0.1,0,0.1-0.1,0.1c-0.7,0.5-1.5,0.8-2.5,1.2
			c-0.9,0.3-1.7,0.5-2.4,0.5c-0.5,0-0.9-0.1-1.2-0.3c-0.3-0.2-0.4-0.5-0.4-0.9c0-0.2,0-0.4,0.1-0.6c0.1-0.2,0.1-0.4,0.3-0.6l1-1.9
			c0-0.1,0.1-0.2,0.2-0.2c0.1-0.1,0.2-0.1,0.3-0.1c0.1,0.1,0.2,0.1,0.3,0.2c0.1,0.1,0.1,0.2,0.2,0.3c-0.3,0.5-0.6,1-0.8,1.4
			c-0.2,0.4-0.4,0.7-0.4,0.8v0c0,0.1,0,0.3,0.1,0.5c0.1,0.2,0.2,0.3,0.2,0.4c0.2,0.1,0.3,0.1,0.5,0.1c0.1,0,0.2,0,0.4,0
			c0.5,0,1.2-0.1,2-0.3c0.8-0.2,1.5-0.5,1.9-0.8c0,0,0,0,0.1,0c0,0,0,0,0.1,0c0,0,0.1,0,0.1,0.1C134.8,18.1,134.8,18.2,134.8,18.3z
			 M132.9,11.7c-0.1,0.3-0.3,0.5-0.6,0.7c-0.3,0.2-0.5,0.3-0.8,0.3c-0.1-0.1-0.2-0.1-0.2-0.2c0-0.1-0.1-0.2-0.1-0.3
			c0-0.3,0.1-0.5,0.2-0.8c0.1-0.2,0.3-0.5,0.6-0.6h0.3c0.1,0,0.1,0.1,0.2,0.1c0,0.1,0.1,0.2,0.1,0.3c0,0,0,0.1,0,0.1
			C132.8,11.5,132.9,11.6,132.9,11.7z"/>
		<path fill="#C8B02E" d="M146.5,18.3C146.5,18.3,146.5,18.3,146.5,18.3c0,0.1,0,0.1-0.1,0.1c-1.2,0.6-2.1,1.1-2.9,1.3
			c-0.8,0.3-1.5,0.4-2.1,0.4c-0.4,0-0.7-0.2-0.9-0.7c-0.3-0.4-0.5-1.1-0.7-2.1c-0.1,0-0.2-0.1-0.4-0.2c0,0-0.1,0-0.1,0
			c-0.6,0.1-1.4,0.4-2.4,1.1c-1,0.7-2.1,1.5-3.4,2.6c-0.1,0-0.3-0.1-0.4-0.1c-0.1-0.1-0.2-0.2-0.2-0.3c0-0.1,0.1-0.3,0.2-0.5
			c0,0,0-0.1,0-0.1c0.1-0.1,0.2-0.3,0.4-0.6c0.7-1.2,1.1-2,1.3-2.5c0.1-0.1,0.2-0.1,0.4-0.2c0.1-0.1,0.3-0.1,0.4-0.1
			c0.1,0,0.1,0,0.2,0c0.1,0,0.1,0.1,0.1,0.1c0,0,0,0,0,0c0,0,0,0,0,0c-0.1,0.2-0.2,0.7-0.5,1.3c-0.2,0.6-0.4,0.9-0.4,1
			c1.6-1.2,2.7-2,3.4-2.4c0.7-0.4,1.2-0.6,1.5-0.6c0.2,0,0.3,0.1,0.5,0.3c0.2,0.2,0.4,0.7,0.6,1.4c0,0,0,0.1,0.1,0.2
			c0.3,1,0.6,1.5,0.9,1.5c0.7,0,1.4-0.1,2-0.3c0.7-0.2,1.4-0.5,2.2-0.9c0,0,0,0,0.1,0c0,0,0,0,0.1,0c0,0,0.1,0,0.1,0.1
			C146.5,18.1,146.5,18.2,146.5,18.3z"/>
		<path fill="#C8B02E" d="M155.2,13.8c0,0.1-0.1,0.2-0.2,0.3c-0.1,0.1-0.3,0.2-0.4,0.2c-0.6,0-1.2,0-1.7,0c-0.5,0-1.2,0-1.9,0
			c-0.5,0.6-1,1.3-1.7,1.9c-0.7,0.7-1.3,1.3-2,1.8c0,0,0,0.1,0,0.1c0,0,0,0.1,0,0.2c0.1,0.3,0.2,0.5,0.5,0.8c0.3,0.3,0.6,0.4,1,0.5
			c1,0,2-0.1,3-0.4c1-0.3,1.9-0.6,2.8-1.2c0,0,0,0,0.1,0c0,0,0,0,0.1,0c0,0,0.1,0,0.1,0.1c0,0,0,0.1,0,0.2c0,0,0,0.1,0,0.1
			c0,0,0,0-0.1,0c-0.9,0.6-1.9,1.1-3.1,1.4c-1.2,0.4-2.3,0.5-3.2,0.5c-0.7,0-1.3-0.2-1.7-0.5c-0.4-0.3-0.6-0.8-0.6-1.5
			c0-0.5,0.1-1.1,0.4-1.8c0.2-0.7,0.6-1.4,1-2.1c-0.5,0-1.3,0.1-2.4,0.2c-0.2,0-0.4,0-0.5,0c0.1-0.2,0.2-0.4,0.3-0.5
			c0.1-0.2,0.3-0.3,0.4-0.4c0.7,0,1.5,0,2.3-0.1c0.2,0,0.3,0,0.4,0c0.6-0.8,1.2-1.5,1.9-2.1c0.7-0.6,1.3-0.9,1.7-0.9
			c0.1,0,0.2,0,0.3,0.1c0.1,0.1,0.1,0.2,0.1,0.4c0,0.4-0.1,0.8-0.2,1.2c-0.2,0.4-0.4,0.8-0.7,1.3c0.9,0,1.6,0,2.1,0
			C154,13.8,154.6,13.8,155.2,13.8z M150.4,14.3l-1.6,0.1c-0.3,0.5-0.6,1-0.9,1.6c-0.3,0.5-0.4,0.9-0.6,1.2c0.5-0.4,1-0.8,1.6-1.3
			C149.5,15.3,150,14.8,150.4,14.3z M151.4,12.1c0-0.1,0-0.2,0-0.2c0-0.1-0.1-0.1-0.1-0.1c-0.3,0.1-0.6,0.3-0.8,0.5
			c-0.3,0.2-0.5,0.5-0.8,0.9c-0.1,0.1-0.1,0.2-0.2,0.3c-0.1,0.1-0.1,0.2-0.2,0.2c0.4,0,0.7,0,1,0c0.2,0,0.4,0,0.6,0
			c0.2-0.3,0.4-0.6,0.5-0.8C151.4,12.6,151.4,12.3,151.4,12.1z"/>
		<path fill="#C8B02E" d="M172.3,18.3C172.3,18.3,172.3,18.3,172.3,18.3c0,0.1,0,0.1-0.1,0.1c-1.2,0.7-2.1,1.1-2.8,1.4
			c-0.7,0.3-1.2,0.4-1.7,0.4c-0.3,0-0.7-0.2-0.9-0.5c-0.3-0.3-0.6-0.8-0.8-1.5c0-0.1-0.1-0.2-0.2-0.4c-0.1-0.3-0.2-0.5-0.2-0.5
			c-0.5,0.1-1,0.3-1.5,0.6c-0.6,0.3-1.1,0.6-1.8,1.1c-0.2,0.2-0.5,0.4-0.9,0.7c-0.4,0.3-0.6,0.5-0.7,0.5c-0.3,0-0.5-0.1-0.6-0.2
			c-0.1-0.1-0.2-0.3-0.2-0.6c0-0.1,0-0.3,0.1-0.7c0.1-0.3,0.2-0.8,0.5-1.5c0-0.1-0.1-0.2-0.2-0.3c-0.2-0.1-0.3-0.2-0.4-0.2
			c-0.4,0-1.2,0.4-2.3,1.1c-1.2,0.7-2.4,1.6-3.6,2.7c-0.2,0-0.3,0-0.4-0.1c-0.1-0.1-0.2-0.3-0.2-0.5c0.5-0.7,0.9-1.4,1.2-2.1
			s0.6-1.4,0.8-2.2c0.1,0,0.3,0,0.4,0.1c0.1,0.1,0.2,0.2,0.3,0.3v0.5c0,0.1-0.1,0.4-0.2,0.7c0,0.1-0.1,0.1-0.1,0.2
			c-0.1,0.2-0.1,0.4-0.2,0.6c-0.1,0.2-0.1,0.4-0.1,0.6c0.3-0.2,1.1-0.7,2.6-1.6c1.5-0.9,2.3-1.4,2.5-1.5c0.3,0.1,0.5,0.2,0.7,0.3
			c0.1,0.1,0.2,0.3,0.2,0.6c0,0.1,0,0.2,0,0.4c0,0.1-0.1,0.4-0.1,0.6c0,0,0,0.1,0,0.1c-0.1,0.4-0.1,0.8-0.1,1c0,0.1,0,0.2,0,0.3
			c0,0.1,0,0.2,0,0.3c0.2-0.1,0.5-0.3,0.8-0.5c0.3-0.2,0.7-0.4,1.1-0.7c0.2-0.1,0.4-0.2,0.7-0.4c1.2-0.8,1.9-1.2,2-1.2
			c0.3,0,0.6,0.1,0.8,0.2c0.2,0.1,0.3,0.4,0.4,0.7c0.2,1,0.4,1.6,0.6,1.8c0.2,0.2,0.6,0.4,1,0.4c0.3,0,0.8-0.2,1.6-0.5
			c0.8-0.3,1.4-0.6,1.8-0.8c0,0,0,0,0,0c0,0,0.1,0,0.1,0c0.1,0,0.1,0,0.1,0.1C172.3,18.1,172.3,18.2,172.3,18.3z"/>
		<path fill="#C8B02E" d="M180.7,18.3C180.7,18.3,180.7,18.3,180.7,18.3c0,0.1,0,0.1-0.1,0.1c-1.1,0.7-2.2,1.2-3.3,1.5
			c-1.1,0.3-2.2,0.5-3.2,0.5c-0.8,0-1.4-0.2-1.8-0.6c-0.5-0.4-0.7-1-0.7-1.7c0-0.8,0.4-1.5,1.2-2.3c0.8-0.8,1.7-1.2,2.7-1.3
			c0.4,0.1,0.6,0.1,0.8,0.3c0.2,0.1,0.3,0.3,0.3,0.7c0,0.5-0.3,1-0.9,1.5c-0.6,0.5-1.5,1-2.7,1.6l0.2,0.4c0.2,0.2,0.4,0.4,0.8,0.6
			s0.7,0.2,1,0.3c0.8,0,1.7-0.1,2.7-0.4c1-0.3,1.9-0.7,2.7-1.1c0,0,0,0,0.1,0c0,0,0,0,0.1,0c0.1,0,0.1,0,0.1,0.1
			C180.7,18.1,180.7,18.2,180.7,18.3z M175.7,15.6c-0.1-0.1-0.1-0.2-0.2-0.2c-0.1-0.1-0.1-0.1-0.2-0.1c-0.4,0-0.9,0.3-1.6,0.8
			c-0.6,0.6-1,1.1-1.1,1.6c0.7-0.1,1.4-0.3,2-0.8C175.4,16.5,175.7,16,175.7,15.6z"/>
		<path fill="#C8B02E" d="M192.4,18.3C192.4,18.3,192.4,18.3,192.4,18.3c0,0.1-0.1,0.1-0.1,0.1c-1.2,0.6-2.1,1.1-2.9,1.3
			c-0.8,0.3-1.5,0.4-2.1,0.4c-0.4,0-0.7-0.2-0.9-0.7c-0.3-0.4-0.5-1.1-0.6-2.1c-0.1,0-0.2-0.1-0.4-0.2c0,0-0.1,0-0.1,0
			c-0.6,0.1-1.4,0.4-2.4,1.1c-1,0.7-2.1,1.5-3.4,2.6c-0.1,0-0.3-0.1-0.4-0.1c-0.1-0.1-0.2-0.2-0.2-0.3c0-0.1,0.1-0.3,0.2-0.5
			c0,0,0-0.1,0-0.1c0.1-0.1,0.2-0.3,0.4-0.6c0.7-1.2,1.1-2,1.3-2.5c0.1-0.1,0.2-0.1,0.4-0.2c0.1-0.1,0.3-0.1,0.4-0.1
			c0.1,0,0.1,0,0.2,0c0,0,0.1,0.1,0.1,0.1c0,0,0,0,0,0c0,0,0,0,0,0c-0.1,0.2-0.2,0.7-0.5,1.3c-0.3,0.6-0.4,0.9-0.4,1
			c1.6-1.2,2.7-2,3.4-2.4c0.7-0.4,1.2-0.6,1.5-0.6c0.2,0,0.3,0.1,0.5,0.3c0.2,0.2,0.4,0.7,0.6,1.4c0,0,0,0.1,0.1,0.2
			c0.3,1,0.6,1.5,0.9,1.5c0.7,0,1.4-0.1,2-0.3c0.7-0.2,1.4-0.5,2.2-0.9c0,0,0,0,0.1,0c0,0,0,0,0.1,0c0,0,0.1,0,0.1,0.1
			C192.4,18.1,192.4,18.2,192.4,18.3z"/>
		<path fill="#C8B02E" d="M201.1,13.8c0,0.1-0.1,0.2-0.2,0.3c-0.1,0.1-0.3,0.2-0.4,0.2c-0.6,0-1.2,0-1.7,0c-0.5,0-1.2,0-1.9,0
			c-0.5,0.6-1,1.3-1.7,1.9c-0.7,0.7-1.3,1.3-2,1.8c0,0,0,0.1,0,0.1c0,0,0,0.1,0,0.2c0.1,0.3,0.2,0.5,0.5,0.8c0.3,0.3,0.6,0.4,1,0.5
			c1,0,2-0.1,3-0.4c1-0.3,1.9-0.6,2.8-1.2c0,0,0,0,0.1,0c0,0,0.1,0,0.1,0c0.1,0,0.1,0,0.1,0.1c0,0,0.1,0.1,0.1,0.2c0,0,0,0.1,0,0.1
			c0,0,0,0-0.1,0c-0.9,0.6-1.9,1.1-3.1,1.4c-1.2,0.4-2.2,0.5-3.2,0.5c-0.7,0-1.3-0.2-1.7-0.5c-0.4-0.3-0.6-0.8-0.6-1.5
			c0-0.5,0.1-1.1,0.4-1.8c0.2-0.7,0.6-1.4,1-2.1c-0.5,0-1.3,0.1-2.4,0.2c-0.2,0-0.4,0-0.5,0c0.1-0.2,0.2-0.4,0.3-0.5
			c0.1-0.2,0.2-0.3,0.4-0.4c0.7,0,1.5,0,2.3-0.1c0.2,0,0.3,0,0.4,0c0.6-0.8,1.2-1.5,1.9-2.1c0.7-0.6,1.3-0.9,1.7-0.9
			c0.1,0,0.2,0,0.3,0.1c0.1,0.1,0.1,0.2,0.1,0.4c0,0.4-0.1,0.8-0.2,1.2c-0.2,0.4-0.4,0.8-0.7,1.3c0.9,0,1.6,0,2.1,0
			C199.9,13.8,200.5,13.8,201.1,13.8z M196.3,14.3l-1.6,0.1c-0.3,0.5-0.6,1-0.9,1.6c-0.3,0.5-0.5,0.9-0.6,1.2c0.5-0.4,1-0.8,1.6-1.3
			C195.4,15.3,195.9,14.8,196.3,14.3z M197.3,12.1c0-0.1,0-0.2,0-0.2c0-0.1-0.1-0.1-0.1-0.1c-0.3,0.1-0.6,0.3-0.8,0.5
			c-0.3,0.2-0.6,0.5-0.8,0.9c0,0.1-0.1,0.2-0.2,0.3c-0.1,0.1-0.1,0.2-0.2,0.2c0.4,0,0.7,0,1,0c0.2,0,0.4,0,0.6,0
			c0.2-0.3,0.4-0.6,0.5-0.8C197.3,12.6,197.3,12.3,197.3,12.1z"/>
		<path fill="#C8B02E" d="M215.7,18.3C215.7,18.3,215.7,18.3,215.7,18.3c0,0.1,0,0.1-0.1,0.1c-0.4,0.2-0.8,0.3-1.2,0.5
			c-0.4,0.1-0.8,0.2-1.2,0.2c-0.4,0-0.9-0.1-1.4-0.2c-0.5-0.2-0.9-0.3-1.2-0.6c-0.2,0.3-0.4,0.6-0.7,0.9c-0.3,0.3-0.5,0.5-0.7,0.7
			c-0.3,0.2-0.6,0.3-1,0.5c-0.4,0.2-0.7,0.2-1,0.2c-0.7,0-1.2-0.2-1.5-0.5c-0.4-0.3-0.5-0.7-0.5-1.3c0-0.4,0.1-0.8,0.3-1.2
			c0.2-0.4,0.4-0.8,0.8-1.1c0.3-0.3,0.6-0.5,1-0.7c0.4-0.2,0.7-0.3,1-0.3c0,0,0.1,0,0.2,0c0.1,0,0.2,0,0.3,0h0.1
			c0.1-0.1,0.1-0.2,0.2-0.3c0.1-0.1,0.2-0.1,0.3-0.1c0.1,0,0.1,0,0.2,0c0.1,0,0.2,0,0.3,0.1c0.3,0.1,0.5,0.4,0.7,0.7
			c0.2,0.3,0.3,0.7,0.3,1.2c0.1,0.4,0.4,0.8,0.9,1c0.4,0.3,1,0.4,1.6,0.4c0.5,0,1,0,1.3-0.1c0.4-0.1,0.7-0.2,1-0.4c0,0,0,0,0.1,0
			c0,0,0,0,0.1,0c0,0,0.1,0,0.1,0.1C215.6,18.1,215.7,18.2,215.7,18.3z M210,17.7c-0.4-0.3-0.7-0.6-0.8-0.8
			c-0.2-0.2-0.3-0.5-0.4-0.7c-0.7,0-1.3,0.3-1.8,0.9c-0.5,0.6-0.7,1-0.7,1.5c0,0.4,0.1,0.7,0.3,0.9c0.2,0.2,0.5,0.4,0.9,0.4
			c0.6,0,1.2-0.2,1.7-0.6C209.7,18.8,209.9,18.3,210,17.7z"/>
		<path fill="#C8B02E" d="M227.4,18.3C227.4,18.3,227.4,18.3,227.4,18.3c0,0.1-0.1,0.1-0.1,0.1c-1.2,0.6-2.1,1.1-2.9,1.3
			c-0.8,0.3-1.5,0.4-2.1,0.4c-0.4,0-0.7-0.2-0.9-0.7c-0.2-0.4-0.5-1.1-0.6-2.1c-0.1,0-0.2-0.1-0.4-0.2c0,0-0.1,0-0.1,0
			c-0.6,0.1-1.4,0.4-2.4,1.1c-1,0.7-2.1,1.5-3.4,2.6c-0.1,0-0.3-0.1-0.4-0.1c-0.1-0.1-0.2-0.2-0.2-0.3c0-0.1,0.1-0.3,0.2-0.5
			c0,0,0-0.1,0-0.1c0.1-0.1,0.2-0.3,0.4-0.6c0.7-1.2,1.1-2,1.3-2.5c0.1-0.1,0.2-0.1,0.4-0.2c0.2-0.1,0.3-0.1,0.4-0.1
			c0.1,0,0.1,0,0.2,0c0,0,0.1,0.1,0.1,0.1c0,0,0,0,0,0c0,0,0,0,0,0c-0.1,0.2-0.2,0.7-0.5,1.3c-0.3,0.6-0.4,0.9-0.4,1
			c1.6-1.2,2.7-2,3.4-2.4c0.7-0.4,1.2-0.6,1.5-0.6c0.2,0,0.3,0.1,0.5,0.3c0.2,0.2,0.4,0.7,0.6,1.4c0,0,0,0.1,0.1,0.2
			c0.3,1,0.6,1.5,0.9,1.5c0.7,0,1.4-0.1,2-0.3c0.6-0.2,1.4-0.5,2.2-0.9c0,0,0,0,0.1,0c0,0,0.1,0,0.1,0c0,0,0.1,0,0.1,0.1
			C227.3,18.1,227.4,18.2,227.4,18.3z"/>
		<path fill="#C8B02E" d="M236.3,18.3C236.3,18.3,236.3,18.3,236.3,18.3c0,0.1,0,0.1-0.1,0.1c-1.2,0.7-2.2,1.1-3.2,1.4
			c-1,0.3-1.9,0.5-2.9,0.5c-1,0-1.8-0.2-2.3-0.6c-0.5-0.4-0.7-1-0.7-1.9c0-1.5,1-3.4,3-5.6c2-2.2,3.6-3.3,4.8-3.3
			c0.2,0,0.4,0.1,0.5,0.2c0.1,0.1,0.2,0.3,0.2,0.6c0,0.6-0.3,1.4-1,2.4c-0.7,1-1.6,1.9-2.7,2.8l-3.4,2.9c0.1,0.3,0.2,0.5,0.3,0.7
			c0.1,0.2,0.2,0.4,0.4,0.5c0.3,0.2,0.6,0.3,0.9,0.4c0.3,0.1,0.6,0.1,1,0.1c0.7,0,1.6-0.1,2.4-0.4c0.9-0.3,1.7-0.6,2.6-1.1
			c0,0,0,0,0.1,0c0,0,0,0,0.1,0c0,0,0.1,0,0.1,0.1C236.3,18.1,236.3,18.2,236.3,18.3z M234.5,10.5c0,0,0-0.1-0.1-0.1
			c0-0.1-0.1-0.2-0.2-0.3c-0.6,0-1.3,0.5-2.2,1.4c-0.9,0.9-1.8,2-2.6,3.3c-0.1,0.2-0.3,0.5-0.5,1c-0.2,0.4-0.4,0.8-0.5,1
			c1.4-0.7,2.8-1.7,4.1-3.1C233.8,12.3,234.5,11.3,234.5,10.5z"/>
		<path fill="#C8B02E" d="M248.3,18.3C248.3,18.3,248.3,18.3,248.3,18.3c0,0.1,0,0.1-0.1,0.1c-0.7,0.5-1.5,0.9-2.4,1.4
			c-0.9,0.4-2,0.9-3.3,1.5c-0.7,1.8-1.6,3.5-2.7,5c-1.1,1.5-2.4,2.8-3.8,3.8c-0.5,0.4-1.2,0.8-2,1.1c-0.8,0.3-1.4,0.5-1.8,0.5
			c-0.5-0.1-0.9-0.3-1.2-0.5c-0.3-0.3-0.4-0.6-0.4-1c0-1,1.1-2.4,3.3-4.2c2.2-1.8,4.8-3.5,7.7-5.2c0.2-0.4,0.4-0.8,0.5-1.3
			c0.1-0.5,0.2-0.9,0.2-1.3v-0.4l-2.1,1c-0.1,0-0.2,0.1-0.5,0.2c-1.5,0.7-2.4,1.1-2.7,1.1c-0.4,0-0.8-0.1-1-0.4
			c-0.2-0.2-0.4-0.6-0.4-1.1c0-0.1,0.1-0.3,0.2-0.6c0.1-0.2,0.4-0.6,0.8-1c0.1-0.1,0.2-0.3,0.4-0.5c0.2-0.2,0.3-0.3,0.4-0.4
			c0,0,0.1,0,0.1-0.1c0.1,0,0.1,0,0.2,0c0.1,0,0.3,0,0.4,0.1c0.1,0,0.2,0.1,0.2,0.1c0,0.1-0.1,0.2-0.2,0.4c-0.1,0.2-0.3,0.5-0.6,0.8
			c0,0.1-0.1,0.1-0.2,0.2c-0.3,0.3-0.4,0.6-0.5,0.7c0,0.2,0,0.4,0.1,0.5c0.1,0.1,0.1,0.2,0.3,0.2c0.9,0,1.8-0.2,2.7-0.7
			c0.9-0.5,2-1.2,3.2-2.3c0,0,0.1-0.1,0.1-0.1c0,0,0.1,0,0.1,0c0.1,0,0.2,0,0.3,0.1c0.1,0,0.1,0.1,0.1,0.1c-0.2,0.6-0.4,1.3-0.6,2.2
			c-0.2,0.8-0.3,1.5-0.4,2c0.9-0.2,1.8-0.6,2.7-1c0.9-0.4,1.8-0.9,2.6-1.4c0,0,0,0,0.1,0c0,0,0,0,0.1,0c0,0,0.1,0,0.1,0.1
			C248.3,18.1,248.3,18.2,248.3,18.3z M241.1,21.9c-2.3,1.1-4.4,2.3-6.1,3.9c-1.7,1.5-2.7,2.8-2.9,3.8c0,0.2,0.1,0.3,0.3,0.5
			c0.1,0.2,0.3,0.3,0.5,0.3c1.1-0.1,2.5-1,4.1-2.5c1.7-1.5,3-3.3,4-5.3c0.1-0.1,0.1-0.2,0.1-0.4C241,22.1,241.1,22,241.1,21.9z"/>
	</g>
	<g>
		<path fill="#020202" d="M96.9,50.1h-2.6l-0.7,1.4h-0.8l2.7-6l2.7,6h-0.8L96.9,50.1z M96.6,49.4l-1-2.3l-1,2.3H96.6z"/>
		<path fill="#020202" d="M101.1,49.1v2.4h-0.7v-5.8h0.8c0.8,0,1.4,0.1,1.8,0.4c0.3,0.3,0.5,0.7,0.5,1.2c0,0.6-0.2,1-0.6,1.3
			c-0.4,0.3-0.9,0.4-1.5,0.4H101.1z M101.1,46.4v2.1h0.2c0.2,0,0.4,0,0.6,0c0.2,0,0.3-0.1,0.5-0.1c0.2-0.1,0.3-0.2,0.4-0.3
			c0.1-0.1,0.1-0.3,0.1-0.6c0-0.2,0-0.4-0.1-0.5c-0.1-0.1-0.2-0.2-0.4-0.3c-0.2-0.1-0.3-0.1-0.5-0.1c-0.2,0-0.3,0-0.6,0L101.1,46.4
			L101.1,46.4z"/>
		<path fill="#020202" d="M106.4,49.1v2.4h-0.7v-5.8h0.8c0.8,0,1.4,0.1,1.8,0.4c0.3,0.3,0.5,0.7,0.5,1.2c0,0.6-0.2,1-0.6,1.3
			c-0.4,0.3-0.9,0.4-1.5,0.4H106.4z M106.4,46.4v2.1h0.2c0.2,0,0.4,0,0.6,0c0.2,0,0.3-0.1,0.5-0.1c0.2-0.1,0.3-0.2,0.4-0.3
			c0.1-0.1,0.1-0.3,0.1-0.6c0-0.2,0-0.4-0.1-0.5c-0.1-0.1-0.2-0.2-0.4-0.3c-0.2-0.1-0.3-0.1-0.5-0.1c-0.2,0-0.3,0-0.6,0L106.4,46.4
			L106.4,46.4z"/>
		<path fill="#020202" d="M114.4,47.7l0.1-0.5h0.5l-0.4,2c0,0.1-0.1,0.3-0.1,0.4c0,0.2,0.1,0.2,0.2,0.2c0.2,0,0.4-0.2,0.5-0.5
			c0.2-0.3,0.3-0.6,0.3-1c0-0.6-0.2-1.1-0.6-1.5c-0.4-0.4-0.9-0.6-1.5-0.6c-0.6,0-1.2,0.2-1.6,0.7c-0.4,0.5-0.7,1-0.7,1.7
			c0,0.7,0.2,1.3,0.7,1.7c0.5,0.5,1,0.7,1.7,0.7c0.7,0,1.1-0.1,1.4-0.4l0.6,0.5c-0.3,0.2-0.6,0.3-0.9,0.4c-0.3,0.1-0.7,0.1-1.1,0.1
			c-0.8,0-1.5-0.3-2.1-0.8c-0.6-0.6-0.9-1.3-0.9-2.1c0-0.8,0.3-1.6,0.8-2.1c0.6-0.6,1.3-0.9,2.1-0.9c0.7,0,1.3,0.2,1.8,0.7
			c0.6,0.5,0.9,1.1,0.9,1.8c0,0.7-0.2,1.2-0.5,1.6c-0.2,0.2-0.4,0.4-0.6,0.5c-0.2,0.1-0.4,0.2-0.6,0.2c-0.2,0-0.4-0.2-0.4-0.5
			c-0.3,0.3-0.7,0.5-1,0.5c-0.3,0-0.6-0.1-0.9-0.4c-0.3-0.3-0.4-0.6-0.4-1c0-0.5,0.1-0.9,0.4-1.3c0.3-0.4,0.7-0.5,1.1-0.5
			C113.8,47.1,114.2,47.3,114.4,47.7z M114.2,48.7c0-0.3,0-0.5-0.2-0.7c-0.1-0.2-0.3-0.3-0.6-0.3c-0.3,0-0.5,0.1-0.7,0.4
			c-0.2,0.2-0.3,0.5-0.3,0.8c0,0.2,0.1,0.4,0.2,0.6c0.1,0.2,0.3,0.3,0.6,0.3c0.3,0,0.6-0.1,0.7-0.3C114.1,49.3,114.2,49,114.2,48.7z
			"/>
		<path fill="#020202" d="M121.3,51.7l-1.7-3.9h0l-0.7,3.8h-0.7l1.2-6l2,4.5l2-4.5l1.2,6h-0.7l-0.7-3.8h0L121.3,51.7z"/>
		<path fill="#020202" d="M126.6,51.5v-5.8h3.1v0.7h-2.4v1.6h2.3v0.7h-2.3v2.2h2.4v0.7L126.6,51.5L126.6,51.5z"/>
		<path fill="#020202" d="M133.9,49l1.8,2.5h-0.9l-1.7-2.4h-0.3v2.4h-0.7v-5.8h0.9c0.2,0,0.4,0,0.5,0c0.1,0,0.3,0,0.5,0.1
			c0.2,0,0.4,0.1,0.5,0.2c0.2,0.1,0.4,0.3,0.6,0.6c0.1,0.2,0.2,0.5,0.2,0.8c0,0.4-0.1,0.8-0.4,1.1C134.6,48.8,134.3,49,133.9,49z
			 M132.8,46.4v2.1h0.2c0.2,0,0.4,0,0.6,0c0.2,0,0.3-0.1,0.5-0.1c0.2-0.1,0.3-0.2,0.4-0.3c0.1-0.2,0.1-0.3,0.1-0.6
			c0-0.7-0.5-1-1.6-1H132.8z"/>
		<path fill="#020202" d="M141.2,50.1h-2.6l-0.7,1.4h-0.8l2.7-6l2.7,6h-0.8L141.2,50.1z M140.9,49.4l-1-2.3l-1,2.3H140.9z"/>
		<path fill="#020202" d="M145.4,48.3l2.4-2.5h0.9l-2.6,2.6l2.6,3.2h-1l-2.2-2.7l-0.3,0.3v2.4h-0.7v-5.8h0.7
			C145.4,45.8,145.4,48.3,145.4,48.3z"/>
		<path fill="#020202" d="M151.5,45.8v5.8h-0.7v-5.8H151.5z"/>
		<path fill="#020202" d="M155.1,45.8h0.7v3.7c0,0.3,0,0.6-0.1,0.8c0,0.2-0.1,0.5-0.2,0.7c-0.1,0.2-0.3,0.4-0.5,0.5
			c-0.2,0.1-0.5,0.2-0.8,0.2c-0.3,0-0.6-0.1-0.9-0.3l0.4-0.6c0.2,0.1,0.4,0.2,0.6,0.2c0.1,0,0.2,0,0.3-0.1c0.1,0,0.2-0.1,0.2-0.1
			c0.1,0,0.1-0.1,0.1-0.2c0-0.1,0.1-0.2,0.1-0.3c0-0.1,0-0.2,0-0.3c0-0.1,0-0.2,0-0.3c0-0.1,0-0.1,0-0.3V45.8z"/>
		<path fill="#020202" d="M158.3,51.5v-5.8h3.1v0.7h-2.4v1.6h2.3v0.7h-2.3v2.2h2.4v0.7L158.3,51.5L158.3,51.5z"/>
		<path fill="#020202" d="M164,45.8l1.6,4.1l1.6-4.2l1.6,4.2l1.6-4.1h0.8l-2.4,6l-1.6-4.2l-1.6,4.2l-2.4-6H164z"/>
		<path fill="#020202" d="M173.2,51.5v-5.8h3.1v0.7h-2.4v1.6h2.3v0.7h-2.3v2.2h2.4v0.7L173.2,51.5L173.2,51.5z"/>
		<path fill="#020202" d="M179.4,45.8v5.1h1.7v0.7h-2.5v-5.8C178.7,45.8,179.4,45.8,179.4,45.8z"/>
		<path fill="#020202" d="M183.4,50.9c0.1-0.1,0.2-0.1,0.3-0.1c0.1,0,0.2,0,0.3,0.1c0.1,0.1,0.1,0.2,0.1,0.3c0,0.1,0,0.2-0.1,0.3
			c-0.1,0.1-0.2,0.1-0.3,0.1c-0.1,0-0.2,0-0.3-0.1c-0.1-0.1-0.1-0.2-0.1-0.3C183.3,51.1,183.3,51,183.4,50.9z"/>
		<path fill="#020202" d="M191.1,46.1v0.8c-0.4-0.4-0.9-0.6-1.5-0.6c-0.6,0-1.2,0.2-1.6,0.7c-0.4,0.5-0.7,1-0.7,1.7
			c0,0.6,0.2,1.2,0.7,1.6c0.4,0.5,1,0.7,1.6,0.7c0.6,0,1.1-0.2,1.5-0.6v0.8c-0.5,0.3-1,0.4-1.5,0.4c-0.8,0-1.5-0.3-2.1-0.9
			c-0.6-0.6-0.9-1.3-0.9-2.1c0-0.8,0.3-1.6,0.9-2.2c0.6-0.6,1.3-0.9,2.2-0.9C190.2,45.7,190.7,45.8,191.1,46.1z"/>
		<path fill="#020202" d="M193.9,46.6c0.6-0.6,1.3-0.9,2.1-0.9c0.8,0,1.5,0.3,2.1,0.9c0.6,0.6,0.9,1.3,0.9,2.1
			c0,0.9-0.3,1.6-0.9,2.1c-0.6,0.6-1.3,0.9-2.1,0.9c-0.8,0-1.6-0.3-2.1-0.9c-0.6-0.6-0.9-1.3-0.9-2.1
			C193.1,47.8,193.3,47.1,193.9,46.6z M194.4,50.3c0.5,0.4,1,0.7,1.6,0.7c0.6,0,1.2-0.2,1.6-0.7c0.5-0.4,0.7-1,0.7-1.7
			c0-0.6-0.2-1.2-0.7-1.6c-0.4-0.4-1-0.7-1.6-0.7c-0.7,0-1.2,0.2-1.6,0.7c-0.4,0.5-0.6,1-0.6,1.6C193.8,49.3,194,49.9,194.4,50.3z"
			/>
		<path fill="#020202" d="M204,51.7l-1.7-3.9h0l-0.7,3.8h-0.7l1.2-6l2,4.5l2-4.5l1.2,6h-0.7l-0.7-3.8h0L204,51.7z"/>
	</g>
</g>
<g>
</g>
<g>
</g>
<g>
</g>
<g>
</g>
<g>
</g>
<g>
</g>
</svg>
