<?xml version="1.0" encoding="utf-8"?>
<!-- Generator: Adobe Illustrator 18.1.1, SVG Export Plug-In . SVG Version: 6.00 Build 0)  -->
<svg version="1.1" id="Layer_1" xmlns="http://www.w3.org/2000/svg" xmlns:xlink="http://www.w3.org/1999/xlink" x="0px" y="0px"
	 viewBox="52.5 0 195 90" enable-background="new 52.5 0 195 90" xml:space="preserve">
<g>
	<g>
		<path fill="#C7AE21" d="M134.5,23.3c0,0,0,0.1,0,0.1c0,0-0.1,0.1-0.1,0.1l0,0c-0.4,0-0.6,0-0.8,0c-1.2,0-2.1-0.2-2.7-0.7
			c-0.6-0.4-0.8-1.2-0.8-2.1c0-0.4,0.1-1.1,0.2-2.1c0.2-1,0.2-1.7,0.2-2c0-0.3-0.1-0.5-0.3-0.7c-0.2-0.2-0.4-0.3-0.5-0.3
			c-0.4,0-1.1,0.4-2.2,1.1c-1.1,0.7-2.4,1.8-3.8,3.1c-0.1,0.1-0.1,0.1-0.2,0.1s-0.1,0.1-0.2,0.1c0,0,0,0-0.1,0c0,0,0,0-0.1,0
			c-0.1,0-0.1,0-0.2-0.1c0-0.1-0.1-0.1-0.1-0.2c0,0,0,0,0-0.1c0,0,0,0,0-0.1c0.7-0.7,1.4-1.7,2.1-2.9s1.3-2.1,1.4-2.8
			c0-0.1-0.1-0.1-0.1-0.2c-0.1-0.1-0.1-0.1-0.2-0.1c-0.5,0-1.4,0.4-2.8,1.2c-1.4,0.8-2.5,1.5-3.2,2c-0.9,1.2-1.9,2.3-3,3.4
			c-1.1,1-2.1,1.7-3,2.1c-0.1,0-0.1-0.1-0.1-0.2c0-0.1-0.1-0.1-0.1-0.2c0-0.4,0.6-1.1,1.7-2.3c1.1-1.1,2.3-2.1,3.6-3
			c0.5-0.6,1.1-1.5,1.7-2.6c0.6-1.1,0.9-2,0.9-2.6c-0.1-0.3-0.3-0.6-0.4-0.8c-0.2-0.2-0.3-0.4-0.5-0.5c-1.5,0-3.1,0.6-4.8,1.7
			s-2.5,2.2-2.5,3.3c0,0.1,0,0.1,0.1,0.2c0.1,0.1,0.2,0.2,0.3,0.3c0.6,0,1.4-0.3,2.4-0.8c1-0.5,2-1.2,2.9-1.9c0.1,0,0.1,0,0.1,0.1
			c0,0,0.1,0.1,0.1,0.1c0,0,0,0.1,0,0.1c0,0,0,0,0,0.1c-1.2,1.1-2.3,2-3.3,2.6c-1,0.6-1.8,0.9-2.5,0.9c-0.3,0-0.6-0.1-0.8-0.3
			c-0.2-0.2-0.3-0.5-0.3-0.9c0-0.6,0.3-1.2,0.8-1.9c0.5-0.7,1.3-1.4,2.2-2c1.4-1,2.6-1.6,3.4-1.9c0.8-0.3,1.7-0.5,2.6-0.5
			c0.4,0,0.8,0.2,1.1,0.5c0.3,0.3,0.4,0.6,0.4,1c0,0.3-0.1,0.7-0.3,1.3c-0.2,0.6-0.6,1.3-1,2.2l-0.5,1.1c0.3-0.1,0.8-0.4,1.5-0.8
			c2.7-1.4,4.3-2.1,4.8-2.1c0.2,0,0.3,0.1,0.4,0.2c0.1,0.2,0.2,0.3,0.2,0.6c-0.2,0.5-0.5,1.1-0.9,1.8c-0.4,0.7-1.1,1.5-1.8,2.5l0,0
			c0.9-0.6,1.6-1,2.2-1.4s1-0.7,1.3-0.9c0.4-0.3,0.7-0.4,1-0.5c0.3-0.1,0.6-0.1,0.9-0.1c0.3,0.2,0.6,0.4,0.7,0.6
			c0.1,0.2,0.1,0.5,0.1,1c0,0.3-0.1,1.1-0.4,2.4c-0.2,1.3-0.4,2.2-0.4,2.6c0,0.6,0.3,1.1,0.8,1.5s1.3,0.5,2.2,0.5c0.1,0,0.2,0,0.3,0
			c0.1,0,0.1,0,0.2,0c0.1,0,0.1,0,0.1,0.1C134.5,23.2,134.5,23.2,134.5,23.3z M118.7,17.6c-0.3,0.1-0.9,0.6-1.9,1.5
			s-1.6,1.5-1.8,1.9l0,0.2c0.5-0.4,1.1-0.9,1.8-1.6c0.7-0.7,1.3-1.3,1.8-1.9L118.7,17.6z"/>
		<path fill="#C7AE21" d="M147,19.7C147,19.8,147,19.8,147,19.7c0,0.1,0,0.1-0.1,0.1c-0.9,0.5-1.8,0.9-2.5,1.2
			c-0.8,0.3-1.4,0.4-2.1,0.4c-0.2,0-0.6-0.1-1-0.2c-0.1,0-0.1,0-0.1,0c-0.3-0.1-0.5-0.4-0.7-0.7s-0.3-0.6-0.4-1
			c-0.3,0.2-0.6,0.4-1,0.7c-0.2,0.1-0.3,0.2-0.4,0.2c-0.9,0.6-1.5,0.9-1.9,1.1c-0.4,0.2-0.7,0.3-1,0.3c-0.5,0-0.9-0.2-1.2-0.5
			c-0.3-0.3-0.4-0.8-0.4-1.3c0-0.3,0.1-0.7,0.2-1c0.1-0.3,0.3-0.6,0.5-0.9c0,0,0,0,0,0c0,0,0.1,0,0.1,0c0.1,0,0.3,0,0.4,0.1
			c0.1,0.1,0.2,0.1,0.2,0.2c-0.1,0.2-0.2,0.4-0.2,0.6s-0.1,0.5-0.1,0.7c0,0.4,0.1,0.7,0.3,0.9s0.4,0.3,0.7,0.3
			c0.7,0,1.4-0.3,2.2-0.8c0.8-0.6,1.7-1.4,2.6-2.5c0.1,0,0.1,0,0.2,0.1c0.1,0,0.1,0.1,0.2,0.1c0,0,0,0,0,0.1c0,0,0,0,0,0
			c0,0,0,0.1,0,0.2c0,0.1,0,0.1-0.1,0.2c-0.1,0.1-0.1,0.3-0.1,0.4c0,0.1,0,0.3,0,0.4c0,0.5,0.1,0.9,0.4,1.2c0.3,0.3,0.6,0.5,1.1,0.5
			c0.6,0,1.3-0.1,2-0.3c0.7-0.2,1.4-0.5,2.1-0.9c0,0,0,0,0.1,0c0,0,0,0,0.1,0c0,0,0.1,0,0.1,0.1S147,19.7,147,19.7z"/>
		<path fill="#C7AE21" d="M163.1,19.7C163.1,19.8,163.1,19.8,163.1,19.7c0,0.1,0,0.1-0.1,0.1c-1.1,0.6-1.9,1.1-2.6,1.3
			s-1.1,0.4-1.5,0.4c-0.3,0-0.6-0.1-0.9-0.4c-0.3-0.3-0.5-0.8-0.8-1.4c0-0.1-0.1-0.2-0.1-0.4c-0.1-0.3-0.2-0.5-0.2-0.5
			c-0.4,0.1-0.9,0.3-1.4,0.6c-0.5,0.3-1,0.6-1.6,1c-0.2,0.1-0.5,0.3-0.8,0.6s-0.6,0.4-0.6,0.4c-0.3,0-0.5-0.1-0.6-0.2
			c-0.1-0.1-0.2-0.3-0.2-0.5c0-0.1,0-0.3,0.1-0.6c0.1-0.3,0.2-0.8,0.4-1.4c0-0.1-0.1-0.2-0.2-0.3c-0.1-0.1-0.3-0.2-0.4-0.2
			c-0.4,0-1.1,0.3-2.1,1c-1.1,0.7-2.2,1.5-3.3,2.5c-0.2,0-0.3,0-0.4-0.1c-0.1-0.1-0.2-0.2-0.2-0.5c0.4-0.6,0.8-1.3,1.1-1.9
			c0.3-0.6,0.6-1.3,0.8-2c0.1,0,0.3,0,0.4,0.1c0.1,0.1,0.2,0.1,0.3,0.3v0.5c0,0.1-0.1,0.3-0.2,0.7c0,0.1-0.1,0.1-0.1,0.2
			c-0.1,0.2-0.1,0.4-0.2,0.6c0,0.2-0.1,0.4-0.1,0.6c0.2-0.1,1-0.6,2.4-1.5c1.4-0.8,2.1-1.3,2.3-1.3c0.3,0.1,0.5,0.2,0.6,0.3
			c0.1,0.1,0.2,0.3,0.2,0.5c0,0.1,0,0.2,0,0.4c0,0.1-0.1,0.3-0.1,0.6c0,0,0,0.1,0,0.1c-0.1,0.4-0.1,0.7-0.1,0.9c0,0.1,0,0.2,0,0.2
			c0,0.1,0,0.2,0,0.2c0.2-0.1,0.5-0.3,0.7-0.5c0.3-0.2,0.6-0.4,1-0.7c0.1-0.1,0.4-0.2,0.6-0.4c1.1-0.7,1.7-1.1,1.8-1.1
			c0.3,0,0.5,0.1,0.7,0.2c0.2,0.1,0.3,0.3,0.4,0.6c0.2,0.9,0.4,1.5,0.6,1.7c0.2,0.2,0.5,0.3,0.9,0.3c0.3,0,0.7-0.1,1.5-0.4
			c0.7-0.3,1.3-0.5,1.7-0.8c0,0,0,0,0,0c0,0,0,0,0.1,0c0,0,0.1,0,0.1,0.1C163.1,19.6,163.1,19.7,163.1,19.7z"/>
		<path fill="#C7AE21" d="M172.4,19.7C172.4,19.8,172.4,19.8,172.4,19.7c0,0.1,0,0.1-0.1,0.1c-0.3,0.1-0.6,0.2-0.9,0.3
			c-0.3,0.1-0.5,0.1-0.8,0.1c-0.5,0-0.9-0.1-1.3-0.3s-0.9-0.5-1.2-0.8c-0.1,0.1-0.2,0.2-0.3,0.3c-0.3,0.2-0.5,0.4-0.7,0.6
			c-0.6,0.5-1.2,0.9-1.7,1.2s-1,0.4-1.4,0.4c-0.5,0-1-0.2-1.2-0.5c-0.3-0.3-0.4-0.6-0.4-1.2c0-0.5,0.1-1.1,0.3-1.7
			c0.2-0.6,0.5-1.2,0.9-1.9c0.8-1.4,1.9-2.6,3.3-3.7c1.4-1.1,2.6-1.7,3.5-1.7c0.3,0,0.5,0.1,0.7,0.3c0.2,0.2,0.2,0.4,0.2,0.7
			c-0.5,1.2-1.4,2.4-2.8,3.5c-1.4,1.2-2.9,2.1-4.7,2.8c-0.1,0.2-0.2,0.5-0.3,0.7c-0.1,0.3-0.1,0.6-0.1,0.9c0.1,0.2,0.2,0.4,0.3,0.5
			c0.1,0.1,0.3,0.2,0.5,0.2c0.8,0,1.5-0.2,2.1-0.6c0.6-0.4,1.1-0.9,1.4-1.5c-0.1,0-0.1-0.1-0.1-0.1c0-0.1-0.1-0.1-0.1-0.2
			c0-0.1,0-0.1,0-0.2c0-0.1,0.1-0.1,0.1-0.2c0,0,0.1-0.1,0.2-0.1c0.1,0,0.2,0,0.3,0c0.1,0,0.2,0,0.2,0c0.1,0,0.1,0,0.1,0.1
			c0.2,0.6,0.5,1,0.9,1.3c0.4,0.3,0.9,0.5,1.5,0.5c0.3,0,0.5,0,0.7,0s0.4-0.1,0.6-0.1c0,0,0,0,0,0c0,0,0,0,0.1,0c0,0,0.1,0,0.1,0.1
			C172.4,19.6,172.4,19.7,172.4,19.7z M170.4,12.1c0-0.1-0.1-0.1-0.1-0.2s-0.1-0.1-0.1-0.2c-0.2,0-0.5,0.1-0.7,0.2
			c-0.3,0.1-0.6,0.3-1,0.6c-0.8,0.5-1.6,1.3-2.4,2.2c-0.9,1-1.5,1.8-1.9,2.5c1.8-0.7,3.4-1.5,4.5-2.5
			C169.9,13.8,170.4,12.9,170.4,12.1z"/>
		<path fill="#C7AE21" d="M181.8,19.7C181.8,19.8,181.8,19.8,181.8,19.7c0,0.1,0,0.1-0.1,0.1c-0.5,0.3-1.1,0.6-1.7,0.8
			c-0.6,0.2-1.2,0.3-1.6,0.3c-0.4,0-0.9-0.1-1.2-0.2c-0.4-0.1-0.7-0.3-1-0.5c-0.8,0.6-1.5,1-2.2,1.3c-0.6,0.3-1.2,0.4-1.7,0.4
			c-0.3,0-0.5-0.1-0.7-0.2c-0.2-0.1-0.3-0.3-0.3-0.6c0-0.8,0.6-1.7,1.9-2.6c1.2-0.9,2.5-1.5,3.6-1.7c0.1,0,0.2,0.1,0.4,0.3
			c0.2,0.2,0.3,0.3,0.4,0.4c0,0.1,0,0.2-0.1,0.4c-0.1,0.1-0.2,0.2-0.3,0.3c-0.1,0-0.1,0-0.2-0.1c-0.1-0.1-0.2-0.2-0.3-0.2
			c0,0,0,0-0.1,0c0,0-0.1,0-0.1,0c-0.7,0-1.5,0.4-2.5,1.2s-1.5,1.4-1.5,1.7c0,0.1,0,0.2,0.1,0.3c0.1,0.1,0.2,0.2,0.3,0.2
			c0.8-0.1,1.6-0.4,2.3-0.9c0.7-0.5,1.3-1.1,1.8-1.8h0c0.1,0,0.3,0,0.5,0.1s0.3,0.2,0.3,0.2l-0.8,0.9c0.2,0.1,0.4,0.2,0.7,0.3
			s0.5,0.1,0.8,0.1c0.5,0,1-0.1,1.5-0.2s1-0.3,1.4-0.5c0,0,0,0,0,0c0,0,0,0,0.1,0c0,0,0.1,0,0.1,0.1
			C181.8,19.6,181.8,19.7,181.8,19.7z"/>
		<path fill="#C7AE21" d="M187.3,19.7C187.3,19.8,187.3,19.8,187.3,19.7c0,0.1,0,0.1-0.1,0.1c-0.6,0.4-1.4,0.8-2.3,1.1
			c-0.9,0.3-1.6,0.4-2.2,0.4c-0.5,0-0.8-0.1-1.1-0.3c-0.3-0.2-0.4-0.5-0.4-0.9c0-0.2,0-0.3,0.1-0.5s0.1-0.4,0.2-0.6l1-1.7
			c0-0.1,0.1-0.2,0.1-0.2c0.1-0.1,0.2-0.1,0.3-0.1c0.1,0.1,0.2,0.1,0.3,0.2c0.1,0.1,0.1,0.2,0.1,0.3c-0.3,0.5-0.6,0.9-0.8,1.3
			c-0.2,0.4-0.3,0.6-0.3,0.7v0c0,0.1,0,0.3,0.1,0.5c0.1,0.2,0.1,0.3,0.2,0.4c0.2,0.1,0.3,0.1,0.4,0.1c0.1,0,0.2,0,0.3,0
			c0.5,0,1.1-0.1,1.9-0.3c0.8-0.2,1.4-0.5,1.8-0.8c0,0,0,0,0.1,0c0,0,0,0,0.1,0c0,0,0.1,0,0.1,0.1C187.3,19.6,187.3,19.7,187.3,19.7
			z M185.6,13.7c-0.1,0.2-0.3,0.5-0.5,0.7c-0.2,0.2-0.5,0.3-0.7,0.3c-0.1,0-0.1-0.1-0.2-0.2c0-0.1-0.1-0.2-0.1-0.3
			c0-0.2,0.1-0.5,0.2-0.7c0.1-0.2,0.3-0.4,0.6-0.6h0.3c0.1,0,0.1,0.1,0.2,0.1c0,0.1,0.1,0.1,0.1,0.2c0,0,0,0,0,0.1
			C185.5,13.6,185.5,13.6,185.6,13.7z"/>
	</g>
	<g>
		<g>
			<path d="M77.3,46.9v-5.4l4,4.2v-4h0.6v5.4l-4-4.2v4L77.3,46.9L77.3,46.9z"/>
			<path d="M84.8,42.5c0.5-0.5,1.2-0.8,1.9-0.8s1.4,0.3,1.9,0.8s0.8,1.1,0.8,1.9s-0.3,1.4-0.8,1.9c-0.5,0.5-1.2,0.8-1.9,0.8
				s-1.4-0.3-1.9-0.8c-0.5-0.5-0.8-1.1-0.8-1.9S84.3,43,84.8,42.5z M88.2,42.8c-0.4-0.4-0.9-0.6-1.5-0.6c-0.6,0-1.1,0.2-1.5,0.6
				s-0.6,0.9-0.6,1.5c0,0.6,0.2,1.1,0.6,1.5c0.4,0.4,0.9,0.6,1.5,0.6c0.6,0,1.1-0.2,1.5-0.6c0.4-0.4,0.6-0.9,0.6-1.5
				C88.8,43.7,88.6,43.2,88.2,42.8z"/>
			<path d="M91.8,46.3c0.1-0.1,0.2-0.1,0.3-0.1c0.1,0,0.2,0,0.3,0.1c0.1,0.1,0.1,0.2,0.1,0.3s0,0.2-0.1,0.3C92.3,47,92.2,47,92.1,47
				c-0.1,0-0.2,0-0.3-0.1c-0.1-0.1-0.1-0.2-0.1-0.3S91.7,46.4,91.8,46.3z"/>
			<path d="M96.4,42.3h-0.9l0.3-0.5H97v5.1h-0.6C96.4,46.9,96.4,42.3,96.4,42.3z"/>
			<path d="M101.1,46.2l0.5,0.2l-0.8,1.7l-0.4-0.1L101.1,46.2z"/>
			<path d="M108.4,46.4h2.2v0.5h-3.3l2.4-2.8c0.2-0.3,0.3-0.6,0.3-0.9c0-0.3-0.1-0.5-0.3-0.7c-0.2-0.2-0.4-0.3-0.7-0.3
				c-0.3,0-0.6,0.1-0.7,0.3S108,43,108,43.3h-0.6c0-0.5,0.2-0.8,0.5-1.1c0.3-0.3,0.7-0.5,1.1-0.5c0.4,0,0.8,0.1,1.1,0.4
				c0.3,0.3,0.5,0.7,0.5,1.1c0,0.4-0.1,0.8-0.4,1.1L108.4,46.4z"/>
			<path d="M113.1,46.9v-5.4l4,4.2v-4h0.6v5.4l-4-4.2v4L113.1,46.9L113.1,46.9z"/>
			<path d="M120.1,46.9v-5.1h1c0.4,0,0.8,0,1.1,0.1c0.3,0.1,0.6,0.2,0.9,0.5c0.6,0.5,0.9,1.1,0.9,2c0,0.8-0.3,1.4-0.8,1.9
				c-0.3,0.3-0.6,0.4-0.9,0.5s-0.7,0.1-1.1,0.1H120.1z M120.7,46.4h0.4c0.4,0,0.7,0,0.9-0.1c0.3-0.1,0.5-0.2,0.7-0.4
				c0.4-0.4,0.6-0.9,0.6-1.5c0-0.6-0.2-1.2-0.7-1.5c-0.2-0.2-0.5-0.3-0.7-0.4c-0.3-0.1-0.5-0.1-0.9-0.1h-0.4V46.4z"/>
			<path d="M131.9,42.3h-1.8v1.5h1.7v0.5h-1.7v2.6h-0.6v-5.1h2.3V42.3z"/>
			<path d="M134.8,41.8v4.6h1.4v0.5h-2v-5.1L134.8,41.8L134.8,41.8z"/>
			<path d="M138.7,42.5c0.5-0.5,1.2-0.8,1.9-0.8s1.4,0.3,1.9,0.8s0.8,1.1,0.8,1.9s-0.3,1.4-0.8,1.9c-0.5,0.5-1.2,0.8-1.9,0.8
				s-1.4-0.3-1.9-0.8c-0.5-0.5-0.8-1.1-0.8-1.9S138.1,43,138.7,42.5z M142.1,42.8c-0.4-0.4-0.9-0.6-1.5-0.6s-1.1,0.2-1.5,0.6
				c-0.4,0.4-0.6,0.9-0.6,1.5c0,0.6,0.2,1.1,0.6,1.5c0.4,0.4,0.9,0.6,1.5,0.6s1.1-0.2,1.5-0.6c0.4-0.4,0.6-0.9,0.6-1.5
				C142.7,43.7,142.5,43.2,142.1,42.8z"/>
			<path d="M145.9,42.5c0.5-0.5,1.2-0.8,1.9-0.8s1.4,0.3,1.9,0.8s0.8,1.1,0.8,1.9s-0.3,1.4-0.8,1.9c-0.5,0.5-1.2,0.8-1.9,0.8
				s-1.4-0.3-1.9-0.8c-0.5-0.5-0.8-1.1-0.8-1.9S145.4,43,145.9,42.5z M149.3,42.8c-0.4-0.4-0.9-0.6-1.5-0.6s-1.1,0.2-1.5,0.6
				c-0.4,0.4-0.6,0.9-0.6,1.5c0,0.6,0.2,1.1,0.6,1.5c0.4,0.4,0.9,0.6,1.5,0.6s1.1-0.2,1.5-0.6c0.4-0.4,0.6-0.9,0.6-1.5
				C149.9,43.7,149.7,43.2,149.3,42.8z"/>
			<path d="M153.2,44.6v2.3h-0.6v-5.1h0.7c0.3,0,0.5,0,0.7,0.1s0.4,0.1,0.6,0.2c0.2,0.1,0.3,0.2,0.4,0.4c0.1,0.2,0.2,0.4,0.2,0.7
				c0,0.4-0.1,0.7-0.3,1c-0.2,0.3-0.5,0.4-0.9,0.4l1.6,2.3h-0.7l-1.6-2.3H153.2z M153.2,42.3v1.8h0.2c0.2,0,0.3,0,0.5,0
				c0.1,0,0.3-0.1,0.4-0.1c0.1-0.1,0.2-0.2,0.3-0.3c0.1-0.1,0.1-0.3,0.1-0.5c0-0.2,0-0.3-0.1-0.4c0-0.1-0.1-0.2-0.2-0.3
				c-0.1-0.1-0.2-0.1-0.3-0.2c-0.1,0-0.2-0.1-0.4-0.1c-0.1,0-0.2,0-0.4,0L153.2,42.3L153.2,42.3z"/>
			<path d="M158.2,46.2l0.5,0.2l-0.8,1.7l-0.4-0.1L158.2,46.2z"/>
			<path d="M164.6,46.9v-5.4l4,4.2v-4h0.6v5.4l-4-4.2v4L164.6,46.9L164.6,46.9z"/>
			<path d="M172.3,41.8v5.1h-0.6v-5.1H172.3z"/>
			<path d="M175.2,44.6v2.3h-0.6v-5.1h0.7c0.3,0,0.5,0,0.7,0.1s0.4,0.1,0.6,0.2c0.2,0.1,0.3,0.2,0.4,0.4c0.1,0.2,0.2,0.4,0.2,0.7
				c0,0.4-0.1,0.7-0.3,1c-0.2,0.3-0.5,0.4-0.9,0.4l1.6,2.3h-0.7l-1.6-2.3H175.2z M175.2,42.3v1.8h0.2c0.2,0,0.3,0,0.5,0
				c0.1,0,0.3-0.1,0.4-0.1c0.1-0.1,0.2-0.2,0.3-0.3c0.1-0.1,0.1-0.3,0.1-0.5c0-0.2,0-0.3-0.1-0.4c0-0.1-0.1-0.2-0.2-0.3
				c-0.1-0.1-0.2-0.1-0.3-0.2c-0.1,0-0.2-0.1-0.4-0.1c-0.1,0-0.2,0-0.4,0L175.2,42.3L175.2,42.3z"/>
			<path d="M179.3,46.9l1-5.4l1.9,4.3l1.9-4.3l1,5.4h-0.6l-0.7-3.5h0l-1.7,3.7l-1.6-3.7h0l-0.7,3.5
				C179.9,46.9,179.3,46.9,179.3,46.9z"/>
			<path d="M190.2,45.4H188l-0.6,1.5h-0.6l2.4-5.4l2.3,5.4h-0.6L190.2,45.4z M189.9,44.9l-0.9-2.1l-0.9,2.1H189.9z"/>
			<path d="M193.9,41.8v4.6h1.4v0.5h-2v-5.1L193.9,41.8L193.9,41.8z"/>
			<path d="M200.7,46.9v-5.1h0.8c0.5,0,0.9,0.1,1.2,0.3c0.3,0.2,0.5,0.6,0.5,1.1c0,0.4-0.2,0.8-0.5,1c0.3,0.1,0.5,0.2,0.7,0.5
				c0.2,0.2,0.3,0.5,0.3,0.8c0,0.5-0.2,0.8-0.5,1.1c-0.3,0.2-0.8,0.4-1.3,0.4H200.7z M201.3,42.3V44h0.2c0.2,0,0.3,0,0.5,0
				c0.1,0,0.2-0.1,0.4-0.1s0.2-0.1,0.3-0.3c0.1-0.1,0.1-0.3,0.1-0.5c0-0.4-0.1-0.6-0.3-0.7c-0.2-0.1-0.5-0.2-0.9-0.2H201.3z
				 M201.3,44.5v1.9h0.6c0.9,0,1.3-0.3,1.3-0.9c0-0.6-0.5-0.9-1.4-0.9C201.8,44.5,201.3,44.5,201.3,44.5z"/>
			<path d="M206.5,41.8v4.6h1.4v0.5h-2v-5.1L206.5,41.8L206.5,41.8z"/>
			<path d="M209.9,46.9v-5.1h1c0.4,0,0.8,0,1.1,0.1c0.3,0.1,0.6,0.2,0.9,0.5c0.6,0.5,0.9,1.1,0.9,2c0,0.8-0.3,1.4-0.8,1.9
				c-0.3,0.3-0.6,0.4-0.9,0.5s-0.7,0.1-1.1,0.1H209.9z M210.4,46.4h0.4c0.4,0,0.7,0,0.9-0.1s0.5-0.2,0.7-0.4
				c0.4-0.4,0.6-0.9,0.6-1.5c0-0.6-0.2-1.2-0.7-1.5c-0.2-0.2-0.5-0.3-0.7-0.4c-0.3-0.1-0.5-0.1-0.9-0.1h-0.4V46.4z"/>
			<path d="M218.5,44.3h2.1c0,0.4,0,0.7-0.1,1c-0.1,0.3-0.2,0.6-0.4,0.8c-0.2,0.3-0.5,0.5-0.9,0.6c-0.3,0.2-0.7,0.2-1,0.2
				c-0.7,0-1.3-0.3-1.9-0.8s-0.8-1.1-0.8-1.9c0-0.7,0.3-1.4,0.8-1.9c0.5-0.5,1.2-0.8,1.9-0.8c0.9,0,1.6,0.4,2.2,1.1l-0.4,0.4
				c-0.5-0.6-1-1-1.8-1c-0.6,0-1.1,0.2-1.5,0.6c-0.4,0.4-0.6,0.9-0.6,1.5c0,0.6,0.2,1,0.6,1.5c0.2,0.2,0.4,0.4,0.7,0.5
				c0.3,0.1,0.5,0.2,0.8,0.2c0.5,0,0.9-0.2,1.3-0.5c0.4-0.3,0.6-0.7,0.6-1.1h-1.5L218.5,44.3L218.5,44.3z"/>
			<path d="M223.3,46.2l0.5,0.2l-0.8,1.7l-0.4-0.1L223.3,46.2z"/>
			<path d="M73.4,63.3v-5.4l4,4.2v-4H78v5.4l-4-4.2v4L73.4,63.3L73.4,63.3z"/>
			<path d="M83.4,61.8h-2.2l-0.6,1.5H80l2.4-5.4l2.3,5.4H84L83.4,61.8z M83.2,61.3l-0.9-2.1l-0.9,2.1H83.2z"/>
			<path d="M87.2,61v2.3h-0.6v-5.1h0.7c0.3,0,0.5,0,0.7,0.1s0.4,0.1,0.6,0.2c0.2,0.1,0.3,0.2,0.4,0.4c0.1,0.2,0.1,0.4,0.1,0.7
				c0,0.4-0.1,0.7-0.3,1c-0.2,0.3-0.5,0.4-0.9,0.4l1.6,2.3h-0.7L87.3,61L87.2,61L87.2,61z M87.2,58.7v1.8h0.2c0.2,0,0.3,0,0.5,0
				c0.1,0,0.3-0.1,0.4-0.1c0.1-0.1,0.2-0.2,0.3-0.3c0.1-0.1,0.1-0.3,0.1-0.5c0-0.2,0-0.3-0.1-0.4s-0.1-0.2-0.2-0.3
				c-0.1-0.1-0.2-0.1-0.3-0.2c-0.1,0-0.2-0.1-0.4-0.1c-0.1,0-0.2,0-0.4,0L87.2,58.7L87.2,58.7z"/>
			<path d="M92.2,58.1v5.1h-0.6v-5.1H92.2z"/>
			<path d="M94.3,63.3l1-5.4l1.9,4.3l1.9-4.3l1,5.4h-0.6l-0.7-3.5h0l-1.7,3.7l-1.7-3.7h0l-0.7,3.5H94.3z"/>
			<path d="M105.1,61.8h-2.2l-0.6,1.5h-0.6l2.4-5.4l2.3,5.4h-0.6L105.1,61.8z M104.9,61.3l-0.9-2.1l-0.9,2.1H104.9z"/>
			<path d="M108.3,63.3v-5.4l4,4.2v-4h0.6v5.4l-4-4.2v4L108.3,63.3L108.3,63.3z"/>
			<path d="M119.4,61v2.3h-0.6v-5.1h0.8c0.3,0,0.5,0,0.7,0c0.2,0,0.4,0.1,0.6,0.2c0.2,0.1,0.3,0.3,0.4,0.5s0.2,0.4,0.2,0.7
				c0,0.5-0.2,0.8-0.5,1.1c-0.3,0.2-0.7,0.3-1.2,0.3L119.4,61L119.4,61z M119.4,58.7v1.8h0.4c0.8,0,1.2-0.3,1.2-0.9
				c0-0.2,0-0.3-0.1-0.4c-0.1-0.1-0.1-0.2-0.2-0.3c-0.1-0.1-0.2-0.1-0.3-0.1c-0.1,0-0.2-0.1-0.4-0.1c-0.1,0-0.2,0-0.4,0L119.4,58.7
				L119.4,58.7z"/>
			<path d="M124.1,58.8c0.5-0.5,1.2-0.8,1.9-0.8s1.4,0.3,1.9,0.8c0.5,0.5,0.8,1.1,0.8,1.9s-0.3,1.4-0.8,1.9
				c-0.5,0.5-1.2,0.8-1.9,0.8c-0.7,0-1.4-0.3-1.9-0.8c-0.5-0.5-0.8-1.1-0.8-1.9S123.6,59.3,124.1,58.8z M127.5,59.2
				c-0.4-0.4-0.9-0.6-1.5-0.6c-0.6,0-1.1,0.2-1.5,0.6s-0.6,0.9-0.6,1.5c0,0.6,0.2,1.1,0.6,1.5c0.4,0.4,0.9,0.6,1.5,0.6
				s1.1-0.2,1.5-0.6c0.4-0.4,0.6-0.9,0.6-1.5C128.1,60.1,127.9,59.6,127.5,59.2z"/>
			<path d="M131.4,58.1v5.1h-0.6v-5.1H131.4z"/>
			<path d="M133.8,63.3v-5.4l4,4.2v-4h0.6v5.4l-4-4.2v4L133.8,63.3L133.8,63.3z"/>
			<path d="M142.2,58.7v4.6h-0.6v-4.6h-1.2v-0.5h3.1v0.5H142.2z"/>
			<path d="M145.3,62.5l0.5,0.2l-0.8,1.7l-0.4-0.1L145.3,62.5z"/>
			<path d="M151.3,63.3l1-5.4l1.9,4.3l1.9-4.3l1,5.4h-0.6l-0.7-3.5h0l-1.7,3.7l-1.7-3.7h0l-0.7,3.5H151.3z"/>
			<path d="M159.7,58.1v3.1c0,0.2,0,0.3,0,0.4s0,0.2,0.1,0.4c0,0.2,0.1,0.3,0.2,0.4c0.1,0.1,0.3,0.3,0.5,0.4
				c0.2,0.1,0.4,0.1,0.6,0.1c0.2,0,0.4,0,0.6-0.1c0.2-0.1,0.3-0.2,0.5-0.3c0.1-0.1,0.1-0.2,0.2-0.4c0-0.1,0.1-0.3,0.1-0.3
				c0-0.1,0-0.2,0-0.4c0,0,0-0.1,0-0.1v-3.1h0.6v3.2c0,0.3,0,0.6-0.1,0.8c-0.1,0.2-0.2,0.4-0.4,0.6c-0.4,0.4-0.8,0.6-1.4,0.6
				c-0.5,0-1-0.2-1.3-0.5c-0.2-0.2-0.3-0.4-0.4-0.6c-0.1-0.2-0.1-0.5-0.1-0.9v-3.2L159.7,58.1L159.7,58.1z"/>
			<path d="M164.8,63.3l1-5.4l1.9,4.3l1.9-4.3l1,5.4h-0.6l-0.7-3.5h0l-1.7,3.7l-1.7-3.7h0l-0.7,3.5H164.8z"/>
			<path d="M172.7,63.3v-5.1h0.8c0.5,0,0.9,0.1,1.2,0.3c0.3,0.2,0.5,0.6,0.5,1.1c0,0.4-0.2,0.8-0.5,1c0.3,0.1,0.5,0.2,0.7,0.5
				c0.2,0.2,0.3,0.5,0.3,0.8c0,0.5-0.2,0.8-0.5,1.1c-0.3,0.2-0.8,0.4-1.3,0.4L172.7,63.3L172.7,63.3z M173.2,58.7v1.7h0.2
				c0.2,0,0.3,0,0.5,0c0.1,0,0.2-0.1,0.4-0.1c0.1-0.1,0.2-0.1,0.3-0.3c0.1-0.1,0.1-0.3,0.1-0.5c0-0.4-0.1-0.6-0.3-0.7
				c-0.2-0.1-0.5-0.2-0.9-0.2L173.2,58.7L173.2,58.7z M173.2,60.9v1.9h0.6c0.9,0,1.3-0.3,1.3-0.9c0-0.6-0.5-0.9-1.4-0.9L173.2,60.9
				L173.2,60.9z"/>
			<path d="M180.9,61.8h-2.2l-0.6,1.5h-0.6l2.4-5.4l2.3,5.4h-0.6L180.9,61.8z M180.6,61.3l-0.9-2.1l-0.9,2.1H180.6z"/>
			<path d="M184.6,58.1v5.1H184v-5.1H184.6z"/>
			<path d="M186.5,61.4h1.4v0.5h-1.4V61.4z"/>
			<path d="M196,61.9h0.6v0.5H196v0.8h-0.6v-0.8h-2.6l3.2-4.6h0V61.9z M195.4,61.9v-2.3h0l-1.6,2.3H195.4z"/>
			<path d="M199.6,58.3c0.2-0.2,0.5-0.3,0.8-0.3s0.6,0.1,0.8,0.3c0.2,0.2,0.4,0.4,0.6,0.7c0.1,0.3,0.2,0.6,0.3,0.9
				c0.1,0.3,0.1,0.6,0.1,0.9c0,0.3,0,0.6-0.1,1c-0.1,0.3-0.2,0.6-0.4,0.9s-0.3,0.5-0.6,0.6c-0.2,0.2-0.5,0.2-0.8,0.2
				s-0.5-0.1-0.8-0.2c-0.2-0.2-0.4-0.4-0.6-0.6c-0.1-0.3-0.3-0.5-0.4-0.9c-0.1-0.3-0.1-0.6-0.1-1c0-0.3,0-0.6,0.1-0.9
				c0.1-0.3,0.2-0.6,0.3-0.9C199.2,58.7,199.3,58.5,199.6,58.3z M201,58.8c-0.2-0.2-0.4-0.2-0.6-0.2s-0.4,0.1-0.6,0.2
				c-0.2,0.2-0.3,0.4-0.4,0.6c-0.1,0.2-0.2,0.5-0.2,0.7c0,0.2-0.1,0.4-0.1,0.6c0,0.2,0,0.4,0.1,0.6c0,0.2,0.1,0.4,0.2,0.7
				s0.2,0.4,0.4,0.6s0.4,0.2,0.6,0.2s0.4-0.1,0.6-0.2s0.3-0.3,0.4-0.6s0.2-0.5,0.2-0.7c0-0.2,0.1-0.4,0.1-0.6c0-0.2,0-0.4-0.1-0.6
				c0-0.2-0.1-0.5-0.2-0.7C201.3,59.2,201.2,59,201,58.8z"/>
			<path d="M205.2,58.3c0.2-0.2,0.5-0.3,0.8-0.3s0.6,0.1,0.8,0.3c0.2,0.2,0.4,0.4,0.6,0.7c0.1,0.3,0.2,0.6,0.3,0.9
				c0.1,0.3,0.1,0.6,0.1,0.9c0,0.3,0,0.6-0.1,1c-0.1,0.3-0.2,0.6-0.4,0.9s-0.3,0.5-0.6,0.6c-0.2,0.2-0.5,0.2-0.8,0.2
				s-0.5-0.1-0.8-0.2c-0.2-0.2-0.4-0.4-0.6-0.6c-0.1-0.3-0.3-0.5-0.4-0.9c-0.1-0.3-0.1-0.6-0.1-1c0-0.3,0-0.6,0.1-0.9
				c0.1-0.3,0.2-0.6,0.3-0.9C204.7,58.7,204.9,58.5,205.2,58.3z M206.6,58.8c-0.2-0.2-0.4-0.2-0.6-0.2s-0.4,0.1-0.6,0.2
				c-0.2,0.2-0.3,0.4-0.4,0.6c-0.1,0.2-0.2,0.5-0.2,0.7c0,0.2-0.1,0.4-0.1,0.6c0,0.2,0,0.4,0.1,0.6c0,0.2,0.1,0.4,0.2,0.7
				s0.2,0.4,0.4,0.6s0.4,0.2,0.6,0.2s0.4-0.1,0.6-0.2s0.3-0.3,0.4-0.6s0.2-0.5,0.2-0.7c0-0.2,0.1-0.4,0.1-0.6c0-0.2,0-0.4-0.1-0.6
				c0-0.2-0.1-0.5-0.2-0.7C206.9,59.2,206.8,59,206.6,58.8z"/>
			<path d="M214.2,58.3c0.2-0.2,0.5-0.3,0.8-0.3s0.6,0.1,0.8,0.3c0.2,0.2,0.4,0.4,0.6,0.7c0.1,0.3,0.2,0.6,0.3,0.9
				c0.1,0.3,0.1,0.6,0.1,0.9c0,0.3,0,0.6-0.1,1c-0.1,0.3-0.2,0.6-0.4,0.9s-0.3,0.5-0.6,0.6c-0.2,0.2-0.5,0.2-0.8,0.2
				s-0.5-0.1-0.8-0.2c-0.2-0.2-0.4-0.4-0.6-0.6c-0.1-0.3-0.3-0.5-0.4-0.9c-0.1-0.3-0.1-0.6-0.1-1c0-0.3,0-0.6,0.1-0.9
				c0.1-0.3,0.2-0.6,0.3-0.9C213.7,58.7,213.9,58.5,214.2,58.3z M215.6,58.8c-0.2-0.2-0.4-0.2-0.6-0.2s-0.4,0.1-0.6,0.2
				c-0.2,0.2-0.3,0.4-0.4,0.6c-0.1,0.2-0.2,0.5-0.2,0.7c0,0.2-0.1,0.4-0.1,0.6c0,0.2,0,0.4,0.1,0.6c0,0.2,0.1,0.4,0.2,0.7
				s0.2,0.4,0.4,0.6s0.4,0.2,0.6,0.2s0.4-0.1,0.6-0.2s0.3-0.3,0.4-0.6s0.2-0.5,0.2-0.7c0-0.2,0.1-0.4,0.1-0.6c0-0.2,0-0.4-0.1-0.6
				c0-0.2-0.1-0.5-0.2-0.7C215.9,59.2,215.8,59,215.6,58.8z"/>
			<path d="M219.9,62.7h2.2v0.5h-3.3l2.4-2.8c0.2-0.3,0.3-0.6,0.3-0.9c0-0.3-0.1-0.5-0.3-0.7c-0.2-0.2-0.4-0.3-0.7-0.3
				c-0.3,0-0.6,0.1-0.7,0.3c-0.2,0.2-0.3,0.5-0.3,0.8h-0.6c0-0.5,0.2-0.8,0.5-1.1c0.3-0.3,0.7-0.5,1.1-0.5c0.4,0,0.8,0.1,1.1,0.4
				c0.3,0.3,0.5,0.7,0.5,1.1c0,0.4-0.1,0.8-0.4,1.1L219.9,62.7z"/>
			<path d="M226,58.7h-0.9l0.3-0.5h1.1v5.1H226V58.7z"/>
			<path d="M98.6,75v4.6H98V75h-1.2v-0.5h3.1V75H98.6z"/>
			<path d="M101.8,79.6v-5.1h2.7V75h-2.1v1.5h2v0.5h-2v2h2.1v0.5L101.8,79.6L101.8,79.6z"/>
			<path d="M107.3,74.5v4.6h1.4v0.5h-2v-5.1L107.3,74.5L107.3,74.5z"/>
			<path d="M115.5,76.2h0.5v1.4h1.4v0.5H116v1.4h-0.5v-1.4h-1.4v-0.5h1.4V76.2z"/>
			<path d="M120.9,79.7l-0.4-0.3l1.2-1.6l0,0c-0.2,0-0.3,0.1-0.4,0.1c-0.5,0-0.9-0.2-1.2-0.5c-0.3-0.3-0.5-0.7-0.5-1.2
				c0-0.5,0.2-0.9,0.5-1.2s0.8-0.5,1.3-0.5s0.9,0.2,1.3,0.5c0.3,0.3,0.5,0.8,0.5,1.2c0,0.4-0.2,0.8-0.5,1.2L120.9,79.7z M122.1,75.3
				c-0.2-0.2-0.5-0.4-0.8-0.4s-0.6,0.1-0.8,0.4c-0.2,0.2-0.4,0.5-0.4,0.8s0.1,0.6,0.3,0.8c0.2,0.2,0.5,0.3,0.9,0.3
				c0.3,0,0.6-0.1,0.8-0.3c0.2-0.2,0.4-0.5,0.4-0.8S122.4,75.5,122.1,75.3z"/>
			<path d="M126.7,75h-0.9l0.3-0.5h1.1v5.1h-0.6C126.7,79.6,126.7,75,126.7,75z"/>
			<path d="M135.2,79.1h2.2v0.5h-3.3l2.4-2.8c0.2-0.3,0.3-0.6,0.3-0.9c0-0.3-0.1-0.5-0.3-0.7c-0.2-0.2-0.4-0.3-0.7-0.3
				c-0.3,0-0.6,0.1-0.7,0.3c-0.2,0.2-0.3,0.5-0.3,0.8h-0.6c0-0.5,0.2-0.8,0.5-1.1c0.3-0.3,0.7-0.5,1.1-0.5c0.4,0,0.8,0.1,1.1,0.4
				c0.3,0.3,0.5,0.7,0.5,1.1c0,0.4-0.1,0.8-0.4,1.1L135.2,79.1z"/>
			<path d="M140.8,79.1h2.2v0.5h-3.3l2.4-2.8c0.2-0.3,0.3-0.6,0.3-0.9c0-0.3-0.1-0.5-0.3-0.7c-0.2-0.2-0.4-0.3-0.7-0.3
				c-0.3,0-0.6,0.1-0.7,0.3c-0.2,0.2-0.3,0.5-0.3,0.8h-0.6c0-0.5,0.2-0.8,0.5-1.1c0.3-0.3,0.7-0.5,1.1-0.5c0.4,0,0.8,0.1,1.1,0.4
				c0.3,0.3,0.5,0.7,0.5,1.1c0,0.4-0.1,0.8-0.4,1.1L140.8,79.1z"/>
			<path d="M147.4,74.4l0.4,0.3l-1.2,1.6l0,0c0.1-0.1,0.3-0.1,0.4-0.1c0.5,0,0.9,0.2,1.2,0.5c0.3,0.3,0.5,0.7,0.5,1.2
				c0,0.5-0.2,0.9-0.5,1.3c-0.3,0.3-0.8,0.5-1.3,0.5c-0.5,0-0.9-0.2-1.3-0.5c-0.3-0.3-0.5-0.8-0.5-1.2c0-0.4,0.2-0.8,0.5-1.2
				L147.4,74.4z M146.2,78.8c0.2,0.2,0.5,0.4,0.8,0.4s0.6-0.1,0.8-0.4c0.2-0.2,0.4-0.5,0.4-0.9c0-0.3-0.1-0.6-0.4-0.8
				c-0.2-0.2-0.5-0.3-0.8-0.3c-0.3,0-0.6,0.1-0.9,0.3s-0.3,0.5-0.3,0.8C145.8,78.3,145.9,78.6,146.2,78.8z"/>
			<path d="M153,74.4l0.4,0.3l-1.2,1.6l0,0c0.1-0.1,0.3-0.1,0.4-0.1c0.5,0,0.9,0.2,1.2,0.5c0.3,0.3,0.5,0.7,0.5,1.2
				c0,0.5-0.2,0.9-0.5,1.3c-0.3,0.3-0.8,0.5-1.3,0.5c-0.5,0-0.9-0.2-1.3-0.5c-0.3-0.3-0.5-0.8-0.5-1.2c0-0.4,0.2-0.8,0.5-1.2
				L153,74.4z M151.7,78.8c0.2,0.2,0.5,0.4,0.8,0.4s0.6-0.1,0.8-0.4c0.2-0.2,0.4-0.5,0.4-0.9c0-0.3-0.1-0.6-0.4-0.8
				c-0.2-0.2-0.5-0.3-0.8-0.3c-0.3,0-0.6,0.1-0.9,0.3c-0.2,0.2-0.3,0.5-0.3,0.8C151.4,78.3,151.5,78.6,151.7,78.8z"/>
			<path d="M157.9,77.2v-0.5c0.3,0,0.6-0.1,0.7-0.2s0.3-0.3,0.3-0.6c0-0.3-0.1-0.5-0.2-0.7c-0.2-0.2-0.4-0.2-0.7-0.2
				c-0.2,0-0.4,0.1-0.6,0.2c-0.1,0.1-0.2,0.4-0.3,0.6h-0.6c0-0.4,0.2-0.7,0.4-1s0.6-0.4,1-0.4c0.4,0,0.8,0.1,1,0.4
				c0.3,0.3,0.4,0.6,0.4,1c0,0.2-0.1,0.5-0.2,0.7c-0.1,0.2-0.3,0.4-0.5,0.5c0.2,0.1,0.4,0.3,0.5,0.5s0.2,0.5,0.2,0.8
				c0,0.4-0.2,0.8-0.5,1.1c-0.3,0.3-0.7,0.4-1.1,0.4c-0.4,0-0.8-0.1-1.1-0.4s-0.4-0.6-0.4-1h0.6c0,0.3,0.1,0.5,0.3,0.6
				c0.2,0.2,0.4,0.3,0.7,0.3c0.3,0,0.5-0.1,0.7-0.3c0.2-0.2,0.3-0.4,0.3-0.7c0-0.3-0.1-0.6-0.3-0.7
				C158.5,77.3,158.2,77.2,157.9,77.2z"/>
			<path d="M164.8,75H162v-0.5h3.8l-3.5,5.2l-0.4-0.3L164.8,75z"/>
			<path d="M170.8,75h-1.6l-0.3,1.1l0.3,0c0.5,0,0.9,0.2,1.2,0.5c0.3,0.3,0.5,0.8,0.5,1.3c0,0.5-0.2,1-0.5,1.3
				c-0.4,0.3-0.8,0.5-1.3,0.5c-0.3,0-0.6-0.1-0.9-0.2s-0.5-0.4-0.7-0.7l0.5-0.3c0.1,0.2,0.3,0.4,0.5,0.5c0.2,0.1,0.4,0.2,0.7,0.2
				c0.4,0,0.7-0.1,0.9-0.4s0.4-0.6,0.4-0.9c0-0.4-0.1-0.7-0.4-0.9c-0.2-0.2-0.6-0.4-0.9-0.4c-0.3,0-0.6,0.1-1,0.3l0.7-2.5h2
				L170.8,75L170.8,75z"/>
			<path d="M175.9,75h-2.8v-0.5h3.8l-3.5,5.2l-0.4-0.3L175.9,75z"/>
			<path d="M180.8,74.4l0.4,0.3l-1.2,1.6l0,0c0.1-0.1,0.3-0.1,0.4-0.1c0.5,0,0.9,0.2,1.2,0.5c0.3,0.3,0.5,0.7,0.5,1.2
				c0,0.5-0.2,0.9-0.5,1.3c-0.3,0.3-0.8,0.5-1.3,0.5c-0.5,0-0.9-0.2-1.3-0.5c-0.3-0.3-0.5-0.8-0.5-1.2c0-0.4,0.2-0.8,0.5-1.2
				L180.8,74.4z M179.5,78.8c0.2,0.2,0.5,0.4,0.8,0.4s0.6-0.1,0.8-0.4c0.2-0.2,0.4-0.5,0.4-0.9c0-0.3-0.1-0.6-0.4-0.8
				c-0.2-0.2-0.5-0.3-0.8-0.3c-0.3,0-0.6,0.1-0.9,0.3c-0.2,0.2-0.3,0.5-0.3,0.8C179.2,78.3,179.3,78.6,179.5,78.8z"/>
			<path d="M185.8,75H185l0.3-0.5h1.1v5.1h-0.6L185.8,75L185.8,75z"/>
			<path d="M192.8,74l0.4,0.2l-3.2,6.5l-0.4-0.2L192.8,74z"/>
			<path d="M197.9,75h-2.8v-0.5h3.8l-3.5,5.2l-0.4-0.3L197.9,75z"/>
			<path d="M202.2,75h-0.9l0.3-0.5h1.1v5.1h-0.6V75z"/>
		</g>
	</g>
</g>
</svg>
