<?xml version="1.0" encoding="utf-8"?>
<!-- Generator: Adobe Illustrator 16.0.0, SVG Export Plug-In . SVG Version: 6.00 Build 0)  -->
<!DOCTYPE svg PUBLIC "-//W3C//DTD SVG 1.1//EN" "http://www.w3.org/Graphics/SVG/1.1/DTD/svg11.dtd">
<svg version="1.1" id="Layer_1" xmlns="http://www.w3.org/2000/svg" xmlns:xlink="http://www.w3.org/1999/xlink" x="0px" y="0px"
	 width="400px" height="275.652px" viewBox="0 -6.067 400 275.652" enable-background="new 0 -6.067 400 275.652"
	 xml:space="preserve">
<g>
	<g>
		<path fill="#C7AE21" d="M179.566,122.921c0,0.051-0.021,0.098-0.061,0.143c-0.042,0.044-0.097,0.079-0.166,0.104l-0.057,0.01
			c-0.479,0.024-0.829,0.037-1.05,0.037c-1.625,0-2.809-0.295-3.549-0.883c-0.74-0.589-1.111-1.523-1.111-2.804
			c0-0.547,0.109-1.465,0.326-2.749c0.218-1.285,0.326-2.175,0.326-2.667c0-0.352-0.118-0.643-0.354-0.873s-0.475-0.346-0.714-0.346
			c-0.535,0-1.504,0.483-2.906,1.451c-1.403,0.968-3.08,2.298-5.034,3.993c-0.075,0.069-0.148,0.127-0.217,0.176
			c-0.07,0.047-0.135,0.082-0.199,0.108c-0.025,0.012-0.049,0.022-0.071,0.027c-0.021,0.008-0.045,0.011-0.07,0.011
			c-0.082,0-0.154-0.033-0.213-0.1c-0.06-0.066-0.09-0.145-0.09-0.231c0-0.031,0.006-0.062,0.019-0.095
			c0.013-0.031,0.032-0.057,0.057-0.076c0.85-0.97,1.787-2.249,2.807-3.838c1.021-1.587,1.651-2.808,1.891-3.656
			c-0.031-0.082-0.082-0.162-0.152-0.237c-0.069-0.075-0.145-0.138-0.227-0.188c-0.611,0-1.826,0.511-3.644,1.536
			c-1.818,1.023-3.212,1.913-4.183,2.67c-1.178,1.601-2.493,3.065-3.946,4.396c-1.453,1.329-2.749,2.224-3.889,2.684
			c-0.07-0.038-0.126-0.104-0.171-0.199c-0.043-0.094-0.065-0.183-0.065-0.265c0-0.484,0.735-1.468,2.207-2.948
			s3.045-2.781,4.721-3.904c0.7-0.806,1.423-1.944,2.17-3.416c0.746-1.472,1.12-2.586,1.12-3.343
			c-0.151-0.402-0.334-0.75-0.548-1.044c-0.214-0.293-0.444-0.511-0.69-0.656c-1.991,0-4.076,0.741-6.253,2.226
			c-2.177,1.483-3.265,2.933-3.265,4.343c0,0.077,0.047,0.164,0.141,0.266c0.095,0.101,0.233,0.211,0.416,0.331
			c0.769,0,1.829-0.331,3.181-0.992c1.352-0.662,2.629-1.507,3.833-2.533c0.075,0,0.139,0.021,0.189,0.066
			c0.05,0.043,0.075,0.101,0.075,0.169c0,0.038-0.006,0.073-0.019,0.104s-0.032,0.06-0.057,0.085
			c-1.594,1.487-3.053,2.637-4.376,3.449c-1.323,0.812-2.414,1.221-3.27,1.221c-0.429,0-0.779-0.142-1.05-0.422
			c-0.271-0.279-0.406-0.655-0.406-1.128c0-0.764,0.345-1.593,1.035-2.486c0.69-0.895,1.669-1.777,2.936-2.647
			c1.877-1.272,3.358-2.12,4.442-2.542c1.084-0.422,2.206-0.633,3.365-0.633c0.561,0,1.037,0.205,1.427,0.619
			c0.391,0.411,0.586,0.838,0.586,1.279c0,0.41-0.14,0.98-0.42,1.711c-0.281,0.732-0.73,1.683-1.347,2.854l-0.71,1.381
			c0.359-0.184,1.031-0.532,2.014-1.05c3.56-1.871,5.643-2.808,6.248-2.808c0.233,0,0.421,0.098,0.562,0.293
			c0.142,0.195,0.213,0.453,0.213,0.776c-0.24,0.642-0.652,1.408-1.238,2.302c-0.586,0.891-1.393,1.977-2.42,3.255l0.039,0.038
			c1.146-0.742,2.1-1.366,2.859-1.87s1.315-0.883,1.668-1.136c0.504-0.353,0.922-0.589,1.252-0.708
			c0.332-0.12,0.733-0.18,1.206-0.18c0.441,0.244,0.726,0.497,0.855,0.755c0.129,0.259,0.194,0.679,0.194,1.258
			c0,0.448-0.154,1.501-0.463,3.161c-0.309,1.662-0.463,2.816-0.463,3.465c0,0.832,0.351,1.487,1.053,1.967
			c0.703,0.478,1.653,0.719,2.85,0.719c0.164,0,0.285-0.002,0.365-0.006c0.078-0.003,0.152-0.009,0.221-0.014
			c0.076,0,0.139,0.021,0.189,0.066C179.541,122.795,179.566,122.852,179.566,122.921z M158.933,115.482
			c-0.347,0.127-1.157,0.786-2.43,1.98c-1.273,1.194-2.045,2.018-2.316,2.471l-0.019,0.199c0.668-0.485,1.456-1.163,2.363-2.037
			c0.908-0.871,1.695-1.689,2.363-2.453L158.933,115.482z"/>
		<path fill="#C7AE21" d="M195.971,118.29c0,0.043-0.007,0.078-0.019,0.104c-0.013,0.024-0.035,0.043-0.066,0.056
			c-1.197,0.699-2.292,1.222-3.285,1.569c-0.992,0.347-1.888,0.52-2.688,0.52c-0.322,0-0.771-0.075-1.352-0.227
			c-0.082-0.024-0.136-0.04-0.161-0.047c-0.359-0.195-0.67-0.485-0.936-0.87c-0.265-0.384-0.457-0.821-0.576-1.313
			c-0.366,0.239-0.82,0.528-1.362,0.87c-0.214,0.133-0.381,0.235-0.5,0.312c-1.16,0.735-1.993,1.224-2.5,1.459
			c-0.507,0.237-0.925,0.354-1.252,0.354c-0.693,0-1.233-0.213-1.622-0.639c-0.387-0.426-0.581-0.999-0.581-1.725
			c0-0.44,0.075-0.882,0.227-1.323c0.151-0.441,0.365-0.837,0.643-1.19c0-0.013,0.018-0.024,0.052-0.039
			c0.034-0.012,0.074-0.018,0.118-0.018c0.17,0,0.339,0.044,0.506,0.133c0.167,0.087,0.251,0.191,0.251,0.311
			c-0.14,0.26-0.248,0.54-0.326,0.848c-0.079,0.305-0.119,0.603-0.119,0.893c0,0.528,0.114,0.937,0.34,1.224
			c0.228,0.286,0.552,0.43,0.974,0.43c0.882,0,1.857-0.37,2.925-1.109c1.069-0.741,2.217-1.836,3.445-3.285
			c0.082,0,0.173,0.024,0.274,0.075c0.101,0.051,0.186,0.113,0.255,0.189c0.013,0.032,0.022,0.058,0.029,0.081
			c0.006,0.021,0.009,0.041,0.009,0.061c0,0.056-0.013,0.126-0.038,0.208c-0.025,0.081-0.06,0.174-0.104,0.273
			c-0.069,0.183-0.121,0.364-0.156,0.544c-0.035,0.18-0.052,0.353-0.052,0.515c0,0.65,0.178,1.177,0.534,1.583
			c0.356,0.408,0.837,0.61,1.442,0.61c0.781,0,1.655-0.151,2.623-0.453c0.967-0.304,1.867-0.712,2.698-1.229
			c0.025-0.02,0.048-0.03,0.066-0.033c0.019-0.004,0.047-0.004,0.085-0.004c0.057,0,0.104,0.026,0.141,0.08
			C195.952,118.139,195.971,118.208,195.971,118.29z"/>
		<path fill="#C7AE21" d="M216.959,118.29c0,0.043-0.006,0.078-0.021,0.104c-0.011,0.024-0.034,0.043-0.066,0.056
			c-1.415,0.808-2.538,1.376-3.363,1.707s-1.491,0.495-1.995,0.495c-0.41,0-0.784-0.187-1.125-0.562
			c-0.34-0.375-0.674-0.994-1-1.857c-0.045-0.113-0.108-0.287-0.19-0.521c-0.138-0.415-0.235-0.623-0.293-0.623
			c-0.562,0.15-1.177,0.397-1.849,0.741c-0.671,0.344-1.372,0.774-2.103,1.29c-0.245,0.177-0.592,0.454-1.04,0.832
			c-0.447,0.378-0.721,0.566-0.822,0.566c-0.359,0-0.619-0.066-0.779-0.202c-0.161-0.136-0.241-0.364-0.241-0.686
			c0-0.132,0.054-0.394,0.161-0.784c0.106-0.391,0.299-1.008,0.576-1.852c0-0.108-0.094-0.229-0.283-0.359
			c-0.189-0.133-0.348-0.206-0.473-0.218c-0.467,0-1.402,0.442-2.807,1.326c-1.406,0.887-2.864,1.973-4.377,3.258
			c-0.227,0-0.403-0.056-0.529-0.166c-0.126-0.109-0.221-0.326-0.284-0.646c0.555-0.844,1.022-1.669,1.404-2.473
			c0.381-0.804,0.719-1.685,1.016-2.642c0.176,0,0.336,0.036,0.478,0.108c0.142,0.073,0.278,0.185,0.411,0.336v0.605
			c0,0.151-0.082,0.438-0.246,0.859c-0.038,0.089-0.066,0.157-0.084,0.207c-0.082,0.215-0.154,0.463-0.218,0.743
			c-0.062,0.281-0.098,0.521-0.104,0.724c0.314-0.19,1.366-0.837,3.152-1.942c1.786-1.107,2.78-1.691,2.981-1.754
			c0.379,0.107,0.646,0.246,0.805,0.417c0.156,0.169,0.236,0.392,0.236,0.669c0,0.14-0.012,0.299-0.033,0.478
			c-0.022,0.18-0.068,0.435-0.137,0.763c-0.008,0.031-0.016,0.083-0.029,0.16c-0.094,0.516-0.141,0.914-0.141,1.19
			c0,0.106,0.004,0.212,0.014,0.312c0.01,0.1,0.023,0.204,0.043,0.312c0.27-0.159,0.596-0.357,0.978-0.597s0.827-0.526,1.337-0.859
			c0.189-0.12,0.465-0.293,0.824-0.52c1.479-0.947,2.276-1.42,2.39-1.42c0.391,0,0.688,0.084,0.895,0.251
			c0.202,0.168,0.359,0.446,0.468,0.837c0.244,1.179,0.495,1.913,0.746,2.203c0.251,0.289,0.662,0.434,1.228,0.434
			c0.335,0,0.979-0.183,1.934-0.548s1.69-0.699,2.208-1.002c0.019-0.013,0.039-0.021,0.061-0.028s0.053-0.009,0.091-0.009
			c0.056,0,0.103,0.026,0.142,0.08C216.938,118.139,216.959,118.208,216.959,118.29z"/>
		<path fill="#C7AE21" d="M229.156,118.29c0,0.043-0.005,0.078-0.02,0.104c-0.012,0.024-0.034,0.043-0.066,0.056
			c-0.39,0.178-0.764,0.307-1.119,0.393c-0.355,0.085-0.704,0.127-1.044,0.127c-0.593,0-1.175-0.122-1.749-0.368
			s-1.119-0.608-1.636-1.086c-0.101,0.094-0.233,0.214-0.397,0.359c-0.346,0.309-0.645,0.569-0.896,0.784
			c-0.807,0.704-1.543,1.221-2.207,1.545c-0.666,0.324-1.297,0.486-1.896,0.486c-0.718-0.056-1.245-0.254-1.578-0.595
			c-0.335-0.342-0.502-0.846-0.502-1.513c0-0.705,0.134-1.464,0.403-2.274c0.266-0.809,0.65-1.627,1.148-2.451
			c1.088-1.777,2.542-3.405,4.355-4.883c1.815-1.477,3.345-2.216,4.586-2.216c0.369,0,0.661,0.115,0.869,0.345
			c0.209,0.23,0.312,0.553,0.312,0.968c-0.649,1.589-1.868,3.136-3.657,4.642c-1.79,1.507-3.859,2.748-6.211,3.725
			c-0.163,0.277-0.285,0.59-0.363,0.94c-0.079,0.351-0.117,0.751-0.117,1.205c0.1,0.289,0.244,0.52,0.429,0.69
			s0.389,0.254,0.61,0.254c1.001,0,1.916-0.245,2.744-0.741c0.83-0.495,1.427-1.137,1.793-1.923
			c-0.07-0.031-0.125-0.087-0.171-0.166c-0.046-0.078-0.066-0.165-0.066-0.26c0-0.101,0.018-0.195,0.052-0.284
			c0.035-0.089,0.084-0.171,0.146-0.245c0.057-0.044,0.146-0.081,0.266-0.108c0.119-0.028,0.242-0.044,0.368-0.044
			c0.12,0,0.212,0.011,0.278,0.03c0.066,0.017,0.104,0.04,0.11,0.065c0.258,0.724,0.669,1.312,1.237,1.764
			c0.567,0.449,1.213,0.675,1.938,0.675c0.348,0,0.664-0.021,0.954-0.062c0.29-0.042,0.542-0.106,0.757-0.193
			c0.012-0.007,0.029-0.013,0.053-0.02c0.021-0.007,0.052-0.009,0.09-0.009c0.057,0,0.104,0.026,0.141,0.08
			C229.137,118.139,229.156,118.208,229.156,118.29z M226.605,108.242c-0.031-0.094-0.071-0.18-0.119-0.256
			c-0.049-0.075-0.105-0.145-0.174-0.208c-0.271,0.039-0.593,0.142-0.961,0.308c-0.367,0.167-0.811,0.408-1.326,0.724
			c-0.991,0.687-2.044,1.656-3.158,2.906s-1.941,2.357-2.477,3.322c2.414-0.919,4.386-2.018,5.916-3.294
			C225.838,110.468,226.605,109.301,226.605,108.242z"/>
		<path fill="#C7AE21" d="M241.524,118.29c0,0.043-0.007,0.078-0.018,0.104c-0.014,0.024-0.034,0.043-0.066,0.056
			c-0.65,0.404-1.392,0.735-2.222,0.997c-0.833,0.262-1.541,0.393-2.127,0.393s-1.127-0.078-1.616-0.235
			c-0.491-0.159-0.946-0.395-1.362-0.71c-1.059,0.757-2.012,1.322-2.859,1.696c-0.848,0.375-1.586,0.563-2.216,0.563
			c-0.372,0-0.675-0.094-0.907-0.278c-0.233-0.188-0.35-0.439-0.35-0.763c0-1.083,0.815-2.233,2.443-3.449
			c1.629-1.217,3.216-1.937,4.76-2.165c0.132,0.026,0.318,0.145,0.556,0.355c0.241,0.211,0.401,0.396,0.483,0.553
			c0,0.157-0.051,0.317-0.156,0.481c-0.104,0.164-0.231,0.28-0.383,0.351c-0.07,0-0.178-0.049-0.326-0.146s-0.271-0.197-0.373-0.299
			c-0.026-0.005-0.055-0.01-0.086-0.014c-0.031-0.003-0.078-0.005-0.141-0.005c-0.895,0-1.993,0.524-3.294,1.574
			s-1.953,1.791-1.953,2.226c0,0.158,0.063,0.307,0.185,0.444c0.123,0.14,0.272,0.207,0.45,0.207
			c1.057-0.169,2.054-0.57,2.985-1.199c0.935-0.63,1.705-1.411,2.315-2.344h0.049c0.157,0,0.366,0.062,0.624,0.184
			c0.258,0.123,0.402,0.223,0.435,0.298l-1.021,1.229c0.271,0.176,0.568,0.311,0.896,0.4c0.328,0.093,0.678,0.138,1.05,0.138
			c0.694,0,1.363-0.074,2.009-0.223c0.645-0.146,1.276-0.373,1.896-0.675c0.012-0.007,0.029-0.013,0.052-0.02
			c0.023-0.007,0.051-0.009,0.09-0.009c0.057,0,0.104,0.026,0.143,0.08C241.507,118.139,241.524,118.208,241.524,118.29z"/>
		<path fill="#C7AE21" d="M248.732,118.29c0,0.043-0.007,0.078-0.021,0.104c-0.011,0.024-0.035,0.043-0.066,0.056
			c-0.851,0.549-1.841,1.011-2.977,1.39c-1.136,0.378-2.101,0.566-2.901,0.566c-0.624,0-1.104-0.131-1.438-0.396
			c-0.332-0.266-0.5-0.637-0.5-1.116c0-0.207,0.035-0.431,0.108-0.666c0.073-0.237,0.178-0.481,0.317-0.732l1.256-2.24
			c0.014-0.113,0.074-0.209,0.185-0.288c0.111-0.078,0.244-0.118,0.401-0.118c0.146,0.075,0.262,0.167,0.35,0.273
			c0.09,0.108,0.152,0.233,0.19,0.379c-0.405,0.655-0.743,1.232-1.017,1.734c-0.273,0.501-0.42,0.808-0.439,0.921v0.038
			c0,0.176,0.042,0.379,0.127,0.605c0.084,0.227,0.186,0.382,0.297,0.464c0.217,0.067,0.397,0.116,0.549,0.146
			c0.152,0.027,0.293,0.042,0.426,0.042c0.644,0,1.463-0.14,2.462-0.421c0.999-0.28,1.776-0.61,2.331-0.988
			c0.018-0.013,0.041-0.021,0.066-0.028s0.057-0.009,0.094-0.009c0.057,0,0.104,0.026,0.143,0.08
			C248.712,118.139,248.732,118.208,248.732,118.29z M246.424,110.379c-0.138,0.315-0.359,0.603-0.658,0.864
			c-0.305,0.262-0.607,0.393-0.909,0.393c-0.106-0.062-0.19-0.143-0.245-0.24c-0.057-0.098-0.086-0.213-0.086-0.346
			c0-0.309,0.087-0.615,0.26-0.917c0.174-0.302,0.418-0.546,0.732-0.728h0.408c0.087,0.037,0.16,0.098,0.216,0.18
			s0.098,0.188,0.122,0.321c0.007,0.024,0.018,0.062,0.029,0.113C246.33,110.202,246.375,110.321,246.424,110.379z"/>
	</g>
	<g>
		<path fill="#C7AE21" d="M126.776,216.093c0,0.575-0.294,1.2-0.884,1.876c-0.589,0.681-1.291,1.249-2.103,1.709
			c-0.668,0.391-1.289,0.732-1.862,1.025s-1.171,0.579-1.796,0.854c0.92,0.133,1.7,0.45,2.339,0.956
			c0.64,0.502,0.978,1.102,1.017,1.796c0.391,0.118,0.869,0.313,1.437,0.586c0.309,0.149,0.57,0.275,0.785,0.376
			c0.024,0.021,0.043,0.042,0.057,0.073c0.012,0.028,0.019,0.077,0.019,0.146c0,0.049-0.022,0.095-0.066,0.133
			c-0.043,0.035-0.098,0.056-0.161,0.056c-0.183-0.069-0.441-0.171-0.775-0.304c-0.674-0.271-1.15-0.439-1.427-0.509
			c-0.599,1.147-1.712,2.176-3.341,3.086c-1.629,0.91-3.143,1.364-4.542,1.364c-0.693,0-1.229-0.098-1.607-0.297
			c-0.378-0.198-0.624-0.513-0.738-0.941c0-1.008,0.775-1.946,2.325-2.814c1.55-0.872,3.182-1.304,4.896-1.304
			c0.044,0,0.095,0,0.151,0.007c0.227,0.031,0.639,0.056,1.238,0.066c0.013-0.032,0.021-0.063,0.029-0.098
			c0.006-0.035,0.009-0.088,0.009-0.157c0-0.475-0.207-0.893-0.62-1.263c-0.413-0.369-0.883-0.551-1.413-0.551
			c-0.171,0-0.501,0.014-0.993,0.045s-0.908,0.066-1.248,0.104c-0.094,0-0.17-0.027-0.227-0.083
			c-0.057-0.06-0.085-0.133-0.085-0.227c0-0.06,0.01-0.105,0.029-0.14c0.019-0.035,0.047-0.056,0.084-0.07
			c2.294-0.68,4.169-1.527,5.625-2.538c1.456-1.012,2.184-1.991,2.184-2.943c-0.107-0.405-0.337-0.729-0.691-0.98
			c-0.353-0.247-0.828-0.415-1.427-0.506c-0.656,0-1.393,0.105-2.212,0.314c-0.82,0.205-1.708,0.516-2.666,0.924
			c-2.414,1.043-4.817,2.581-7.212,4.624c-2.395,2.04-3.592,3.722-3.592,5.036c0,0.262,0.041,0.467,0.123,0.621
			c0.082,0.153,0.211,0.269,0.387,0.345c1.191-0.313,2.592-1.168,4.201-2.556c1.61-1.392,3.008-2.943,4.193-4.656
			c0.018-0.024,0.037-0.042,0.057-0.052c0.018-0.011,0.047-0.015,0.084-0.015c0.076,0,0.132,0.024,0.17,0.07
			c0.039,0.049,0.057,0.122,0.057,0.223c-1.367,2.193-3.01,4.133-4.928,5.824c-1.919,1.688-3.48,2.532-4.684,2.532
			c-0.385-0.088-0.724-0.29-1.017-0.607c-0.293-0.313-0.439-0.624-0.439-0.935c0-1.807,1.234-3.767,3.705-5.869
			c2.47-2.106,5.359-3.809,8.668-5.112c1.02-0.404,2.141-0.771,3.36-1.099c1.219-0.328,2.04-0.492,2.462-0.492
			c0.8,0,1.408,0.077,1.824,0.228c0.417,0.153,0.782,0.439,1.097,0.861c0.044,0.188,0.079,0.391,0.104,0.6
			C126.764,215.65,126.776,215.866,126.776,216.093z M121.332,225.027c0.006-0.014,0.01-0.027,0.014-0.049
			c0.004-0.018,0.005-0.042,0.005-0.073c0-0.076-0.016-0.14-0.048-0.191c-0.031-0.049-0.079-0.091-0.141-0.122
			c-0.164,0-0.352-0.004-0.562-0.011c-0.212-0.003-0.336-0.007-0.374-0.007c-1.184,0-2.339,0.279-3.464,0.841
			s-1.905,1.255-2.339,2.089c0.113,0.195,0.383,0.411,0.812,0.651c0.082,0.046,0.139,0.077,0.17,0.095
			c1.04,0,2.141-0.313,3.303-0.945C119.872,226.674,120.746,225.917,121.332,225.027z"/>
		<path fill="#C7AE21" d="M141.554,225.791c0,0.046-0.004,0.08-0.014,0.104c-0.009,0.024-0.03,0.046-0.062,0.057
			c-0.869,0.568-1.833,1.115-2.892,1.646c-1.059,0.53-2.385,1.116-3.98,1.758c-0.857,2.18-1.955,4.182-3.294,6.002
			c-1.339,1.82-2.846,3.354-4.523,4.603c-0.643,0.485-1.432,0.928-2.367,1.326c-0.936,0.397-1.655,0.593-2.16,0.593
			c-0.605-0.105-1.082-0.325-1.432-0.652c-0.35-0.328-0.525-0.726-0.525-1.2c0-1.188,1.322-2.877,3.965-5.06
			c2.643-2.184,5.742-4.248,9.296-6.187c0.246-0.468,0.445-1.005,0.6-1.611c0.154-0.61,0.232-1.137,0.232-1.583v-0.464l-2.524,1.182
			c-0.094,0.042-0.293,0.137-0.595,0.283c-1.771,0.868-2.842,1.304-3.214,1.304c-0.542,0-0.955-0.146-1.238-0.439
			c-0.284-0.293-0.426-0.718-0.426-1.272c0-0.175,0.086-0.401,0.26-0.674c0.174-0.275,0.487-0.662,0.941-1.157
			c0.113-0.126,0.282-0.307,0.506-0.544c0.223-0.237,0.37-0.397,0.439-0.488c0.025-0.031,0.072-0.056,0.142-0.08
			c0.069-0.021,0.145-0.031,0.227-0.031c0.157,0,0.311,0.024,0.458,0.08c0.147,0.052,0.222,0.111,0.222,0.174
			c0,0.119-0.079,0.3-0.236,0.544c-0.157,0.241-0.403,0.555-0.737,0.938c-0.051,0.062-0.13,0.16-0.236,0.286
			c-0.335,0.401-0.53,0.666-0.587,0.791c0.013,0.255,0.056,0.439,0.128,0.565c0.072,0.122,0.174,0.185,0.307,0.185
			c1.046,0,2.122-0.278,3.229-0.83c1.105-0.551,2.405-1.454,3.899-2.717c0.038-0.038,0.086-0.069,0.146-0.094
			c0.059-0.024,0.115-0.038,0.165-0.038c0.107,0,0.208,0.024,0.303,0.069c0.095,0.049,0.142,0.102,0.142,0.157
			c-0.214,0.739-0.441,1.611-0.681,2.622c-0.239,1.012-0.413,1.824-0.52,2.435c1.033-0.289,2.108-0.688,3.223-1.189
			c1.115-0.506,2.136-1.05,3.063-1.636c0.019-0.014,0.041-0.021,0.066-0.027c0.025-0.007,0.057-0.011,0.094-0.011
			c0.057,0,0.103,0.028,0.137,0.08C141.537,225.641,141.554,225.711,141.554,225.791z M132.868,230.15
			c-2.805,1.266-5.259,2.818-7.364,4.659c-2.104,1.842-3.27,3.379-3.498,4.614c0.038,0.195,0.139,0.383,0.302,0.562
			c0.164,0.181,0.347,0.307,0.548,0.383c1.298-0.153,2.951-1.15,4.958-2.995c2.007-1.849,3.618-3.955,4.834-6.326
			c0.07-0.136,0.123-0.282,0.161-0.439C132.849,230.454,132.868,230.301,132.868,230.15z"/>
		<path fill="#C7AE21" d="M169.722,225.791c0,0.046-0.007,0.08-0.02,0.104c-0.013,0.024-0.031,0.046-0.057,0.057
			c-0.888,0.582-1.89,1.06-3.006,1.443c-1.115,0.38-2.041,0.572-2.779,0.572c-0.333,0-0.585-0.004-0.751-0.011
			c-0.167-0.007-0.31-0.014-0.43-0.028c-0.763-0.114-1.335-0.411-1.716-0.889s-0.572-1.147-0.572-2.006
			c0-0.227,0.016-0.495,0.047-0.812c0.006-0.066,0.01-0.118,0.01-0.149l-2.335,1.353c-2.255,1.309-4.035,2.226-5.335,2.745
			c-1.302,0.52-2.377,0.781-3.228,0.781c-0.845-0.217-1.46-0.513-1.849-0.896c-0.387-0.38-0.622-0.959-0.704-1.733
			c0-1.468,0.859-3.006,2.576-4.613c1.717-1.604,3.886-2.979,6.507-4.119c1.72-0.757,3.416-1.343,5.085-1.758
			c1.669-0.418,3.141-0.624,4.414-0.624c1.254,0,2.257,0.192,3.011,0.579c0.753,0.387,1.13,0.896,1.13,1.527
			c0,0.67-0.402,1.165-1.206,1.489c-0.803,0.324-2.027,0.488-3.672,0.488h-0.019c-0.038,0-0.07-0.021-0.095-0.06
			c-0.025-0.038-0.038-0.08-0.038-0.133c0-0.056,0.01-0.101,0.033-0.139c0.021-0.039,0.058-0.063,0.109-0.077
			c0.875,0,1.668-0.167,2.376-0.506c0.709-0.338,1.133-0.753,1.271-1.252c0-0.446-0.18-0.781-0.543-1.001
			c-0.363-0.223-0.909-0.331-1.64-0.331c-0.763,0-2.091,0.304-3.984,0.917c-1.894,0.61-3.909,1.413-6.044,2.41
			c-2.338,1.084-4.357,2.326-6.059,3.728c-1.702,1.402-2.553,2.525-2.553,3.369c0,0.404,0.173,0.708,0.521,0.914
			c0.346,0.205,0.856,0.307,1.531,0.307c1.09,0,2.689-0.446,4.797-1.343c2.108-0.893,4.154-1.956,6.14-3.184
			c0.27-0.872,0.696-1.615,1.275-2.232c0.58-0.617,1.271-1.06,2.071-1.332c0.188,0,0.35,0.035,0.482,0.104
			c0.132,0.07,0.223,0.168,0.274,0.293c0,0.377-0.266,0.886-0.799,1.521c-0.533,0.639-1.214,1.231-2.046,1.785
			c-0.057,0.164-0.1,0.377-0.128,0.635c-0.028,0.259-0.042,0.537-0.042,0.83c0.032,0.708,0.212,1.27,0.539,1.685
			c0.328,0.415,0.82,0.729,1.475,0.935c0.908,0,1.89-0.149,2.949-0.449c1.059-0.297,1.95-0.677,2.676-1.138
			c0.018-0.014,0.039-0.021,0.061-0.027c0.021-0.007,0.055-0.011,0.099-0.011c0.057,0,0.102,0.028,0.137,0.08
			C169.704,225.641,169.722,225.711,169.722,225.791z M163.898,220.414h-0.038c-0.277,0-0.602,0.195-0.974,0.582
			c-0.372,0.388-0.668,0.819-0.888,1.298c0.302-0.195,0.633-0.472,0.992-0.834C163.35,221.097,163.653,220.749,163.898,220.414z"/>
		<path fill="#C7AE21" d="M182.969,225.791c0,0.046-0.007,0.08-0.02,0.104c-0.013,0.024-0.035,0.046-0.066,0.057
			c-0.699,0.38-1.547,0.666-2.542,0.864c-0.996,0.199-2.089,0.3-3.28,0.3c-0.126,0-0.263-0.003-0.412-0.01
			c-0.148-0.008-0.367-0.015-0.657-0.028c-0.447,0.111-1.023,0.23-1.73,0.349c-0.705,0.122-1.207,0.209-1.502,0.266
			c-0.051,0-0.095-0.015-0.132-0.046c-0.039-0.031-0.057-0.066-0.057-0.104c0-0.069,0.02-0.136,0.061-0.195
			c0.041-0.06,0.096-0.098,0.166-0.118c1.128-0.332,2.022-0.747,2.684-1.238c0.662-0.492,1.213-1.144,1.654-1.956
			c0-0.269-0.074-0.488-0.222-0.656c-0.148-0.167-0.352-0.251-0.61-0.251c-0.466,0-1.078,0.14-1.833,0.422
			c-0.756,0.279-1.333,0.583-1.729,0.91c-0.927,3.585-2.632,7.167-5.119,10.745c-2.486,3.574-4.611,5.363-6.375,5.363
			c-0.164-0.046-0.315-0.185-0.454-0.419c-0.139-0.229-0.227-0.474-0.264-0.725c0-1.859,1.2-4.513,3.601-7.955
			c2.401-3.445,5.06-6.033,7.978-7.767c0.069-0.195,0.151-0.366,0.245-0.513c0.095-0.149,0.212-0.286,0.351-0.411
			c0.081,0,0.188,0.027,0.316,0.087c0.129,0.063,0.231,0.129,0.307,0.206c0.554-0.227,1.226-0.446,2.013-0.659
			c0.789-0.209,1.302-0.313,1.542-0.313c0.555,0,0.988,0.125,1.299,0.38c0.312,0.258,0.468,0.6,0.468,1.035
			c0,0.468-0.176,0.952-0.529,1.462c-0.354,0.506-0.835,0.955-1.447,1.346c0.07,0.007,0.17,0.018,0.303,0.028
			c0.41,0.045,0.715,0.066,0.917,0.066c1.153,0,2.087-0.066,2.802-0.199s1.353-0.355,1.915-0.67
			c0.019-0.014,0.041-0.021,0.066-0.027c0.024-0.007,0.057-0.011,0.094-0.011c0.057,0,0.104,0.028,0.142,0.08
			C182.95,225.641,182.969,225.711,182.969,225.791z M171.191,225.564c-2.294,1.161-4.383,3.143-6.267,5.946
			c-1.884,2.804-2.827,5.067-2.827,6.786c0,0.108,0.029,0.188,0.085,0.248c0.057,0.056,0.132,0.083,0.227,0.083
			c0.895-0.08,2.267-1.377,4.117-3.888c1.849-2.512,3.274-5.067,4.276-7.662c0.132-0.373,0.228-0.673,0.288-0.906
			C171.152,225.937,171.186,225.735,171.191,225.564z"/>
		<path fill="#C7AE21" d="M196.206,225.791c0,0.046-0.007,0.08-0.019,0.104c-0.013,0.024-0.035,0.046-0.066,0.057
			c-0.699,0.38-1.546,0.666-2.542,0.864c-0.996,0.199-2.089,0.3-3.28,0.3c-0.126,0-0.264-0.003-0.412-0.01
			c-0.148-0.008-0.367-0.015-0.657-0.028c-0.447,0.111-1.024,0.23-1.73,0.349c-0.705,0.122-1.207,0.209-1.502,0.266
			c-0.051,0-0.095-0.015-0.133-0.046c-0.038-0.031-0.057-0.066-0.057-0.104c0-0.069,0.02-0.136,0.061-0.195s0.096-0.098,0.166-0.118
			c1.128-0.332,2.023-0.747,2.685-1.238c0.662-0.492,1.213-1.144,1.654-1.956c0-0.269-0.074-0.488-0.221-0.656
			c-0.148-0.167-0.352-0.251-0.61-0.251c-0.467,0-1.078,0.14-1.833,0.422c-0.756,0.279-1.333,0.583-1.73,0.91
			c-0.927,3.585-2.632,7.167-5.118,10.745c-2.486,3.574-4.611,5.363-6.375,5.363c-0.164-0.046-0.316-0.185-0.454-0.419
			c-0.139-0.229-0.227-0.474-0.265-0.725c0-1.859,1.2-4.513,3.601-7.955c2.401-3.445,5.06-6.033,7.978-7.767
			c0.069-0.195,0.151-0.366,0.245-0.513c0.095-0.149,0.212-0.286,0.351-0.411c0.081,0,0.187,0.027,0.316,0.087
			c0.129,0.063,0.231,0.129,0.307,0.206c0.555-0.227,1.226-0.446,2.013-0.659c0.788-0.209,1.302-0.313,1.542-0.313
			c0.554,0,0.988,0.125,1.299,0.38c0.312,0.258,0.468,0.6,0.468,1.035c0,0.468-0.176,0.952-0.529,1.462
			c-0.353,0.506-0.835,0.955-1.446,1.346c0.07,0.007,0.17,0.018,0.303,0.028c0.41,0.045,0.715,0.066,0.917,0.066
			c1.152,0,2.087-0.066,2.802-0.199s1.353-0.355,1.915-0.67c0.018-0.014,0.041-0.021,0.066-0.027
			c0.024-0.007,0.057-0.011,0.094-0.011c0.057,0,0.104,0.028,0.142,0.08C196.187,225.641,196.206,225.711,196.206,225.791z
			 M184.429,225.564c-2.294,1.161-4.383,3.143-6.267,5.946c-1.884,2.804-2.826,5.067-2.826,6.786c0,0.108,0.029,0.188,0.085,0.248
			c0.057,0.056,0.132,0.083,0.227,0.083c0.895-0.08,2.267-1.377,4.117-3.888c1.849-2.512,3.275-5.067,4.276-7.662
			c0.132-0.373,0.229-0.673,0.289-0.906C184.389,225.937,184.422,225.735,184.429,225.564z"/>
		<path fill="#C7AE21" d="M208.377,225.791c0,0.046-0.007,0.08-0.021,0.104c-0.012,0.024-0.034,0.046-0.065,0.057
			c-0.429,0.227-0.903,0.411-1.427,0.551c-0.523,0.136-1.012,0.205-1.465,0.205c-0.498,0-1.061-0.094-1.688-0.285
			c-0.627-0.195-1.117-0.415-1.47-0.67c-0.227,0.359-0.499,0.726-0.817,1.095c-0.318,0.366-0.601,0.642-0.846,0.827
			c-0.303,0.213-0.692,0.408-1.168,0.586c-0.476,0.174-0.868,0.265-1.177,0.265c-0.793,0-1.408-0.185-1.843-0.555
			c-0.434-0.369-0.652-0.875-0.652-1.517c0-0.446,0.115-0.928,0.345-1.437c0.23-0.51,0.534-0.956,0.912-1.333
			c0.322-0.32,0.706-0.603,1.153-0.84c0.447-0.241,0.834-0.359,1.163-0.359c0.025,0,0.104,0.004,0.236,0.007
			c0.133,0.007,0.236,0.011,0.312,0.011h0.132c0.076-0.15,0.159-0.262,0.25-0.335c0.091-0.073,0.197-0.108,0.316-0.108
			c0.063,0,0.154,0.011,0.274,0.039c0.12,0.024,0.246,0.056,0.378,0.094c0.353,0.157,0.629,0.429,0.827,0.816
			c0.198,0.387,0.298,0.857,0.298,1.412c0.164,0.506,0.512,0.91,1.045,1.221c0.531,0.311,1.164,0.464,1.895,0.464
			c0.624,0,1.152-0.046,1.583-0.14c0.431-0.091,0.825-0.233,1.177-0.429c0.014-0.007,0.029-0.011,0.053-0.018
			c0.021-0.007,0.053-0.011,0.09-0.011c0.057,0,0.104,0.028,0.141,0.08C208.355,225.641,208.377,225.711,208.377,225.791z
			 M201.579,225.177c-0.453-0.377-0.788-0.715-1.006-1.012c-0.218-0.296-0.361-0.586-0.431-0.868
			c-0.812,0.031-1.519,0.377-2.117,1.039c-0.599,0.663-0.898,1.245-0.898,1.747c0,0.454,0.119,0.816,0.359,1.088
			c0.24,0.272,0.592,0.439,1.059,0.503c0.788,0,1.466-0.234,2.038-0.701C201.152,226.506,201.485,225.91,201.579,225.177z"/>
		<path fill="#C7AE21" d="M215.582,225.791c0,0.046-0.006,0.08-0.018,0.104c-0.014,0.024-0.035,0.046-0.066,0.057
			c-0.851,0.551-1.845,1.011-2.979,1.391c-1.133,0.377-2.101,0.565-2.9,0.565c-0.625,0-1.103-0.129-1.438-0.395
			c-0.334-0.265-0.502-0.638-0.502-1.115c0-0.21,0.038-0.433,0.109-0.666c0.072-0.237,0.178-0.481,0.316-0.732l1.258-2.243
			c0.012-0.111,0.074-0.209,0.184-0.285c0.109-0.08,0.244-0.119,0.402-0.119c0.144,0.073,0.262,0.168,0.35,0.272
			c0.087,0.108,0.151,0.233,0.188,0.38c-0.4,0.655-0.74,1.231-1.014,1.733c-0.275,0.502-0.422,0.809-0.439,0.921v0.038
			c0,0.178,0.041,0.38,0.127,0.606s0.184,0.381,0.298,0.464c0.213,0.066,0.397,0.115,0.548,0.146
			c0.151,0.028,0.293,0.042,0.426,0.042c0.641,0,1.465-0.14,2.461-0.422c1-0.279,1.775-0.61,2.33-0.987
			c0.021-0.014,0.042-0.021,0.066-0.027c0.025-0.007,0.058-0.011,0.094-0.011c0.059,0,0.105,0.028,0.144,0.08
			C215.564,225.641,215.582,225.711,215.582,225.791z M213.277,217.882c-0.141,0.314-0.359,0.604-0.663,0.865
			c-0.302,0.262-0.604,0.391-0.907,0.391c-0.107-0.062-0.188-0.144-0.246-0.241c-0.057-0.098-0.085-0.212-0.085-0.345
			c0-0.307,0.087-0.614,0.26-0.917c0.173-0.3,0.417-0.544,0.734-0.726h0.404c0.089,0.035,0.161,0.098,0.218,0.178
			c0.059,0.084,0.098,0.188,0.124,0.321c0.005,0.024,0.015,0.062,0.028,0.114C213.183,217.704,213.227,217.822,213.277,217.882z"/>
		<path fill="#C7AE21" d="M229.615,225.791c0,0.046-0.008,0.08-0.02,0.104s-0.035,0.046-0.066,0.057
			c-1.393,0.756-2.549,1.293-3.468,1.614c-0.921,0.317-1.756,0.475-2.506,0.475c-0.429,0-0.794-0.262-1.097-0.785
			c-0.303-0.522-0.564-1.356-0.785-2.504c-0.062-0.062-0.223-0.157-0.48-0.282c-0.053-0.024-0.086-0.042-0.105-0.049
			c-0.68,0.069-1.639,0.506-2.873,1.312c-1.234,0.802-2.58,1.862-4.035,3.18c-0.164,0-0.311-0.056-0.439-0.171
			c-0.129-0.114-0.195-0.244-0.195-0.387c0-0.115,0.084-0.313,0.246-0.606c0.02-0.035,0.035-0.066,0.047-0.084
			c0.077-0.14,0.222-0.391,0.437-0.757c0.819-1.405,1.329-2.399,1.53-2.985c0.113-0.094,0.26-0.174,0.439-0.237
			c0.18-0.062,0.346-0.094,0.496-0.094c0.094,0,0.172,0.018,0.233,0.056c0.06,0.038,0.089,0.087,0.089,0.15
			c0,0.014-0.004,0.031-0.009,0.049c-0.007,0.018-0.011,0.031-0.011,0.038c-0.087,0.289-0.282,0.795-0.586,1.517
			c-0.303,0.723-0.473,1.13-0.511,1.225c1.885-1.43,3.236-2.399,4.054-2.901c0.82-0.506,1.402-0.757,1.751-0.757
			c0.213,0,0.415,0.136,0.604,0.404c0.19,0.272,0.425,0.816,0.71,1.629c0.019,0.049,0.043,0.122,0.074,0.216
			c0.417,1.225,0.773,1.834,1.069,1.834c0.825,0,1.632-0.121,2.419-0.365c0.787-0.241,1.663-0.621,2.629-1.138
			c0.018-0.014,0.04-0.021,0.066-0.027c0.024-0.007,0.056-0.011,0.094-0.011c0.057,0,0.105,0.028,0.142,0.08
			C229.596,225.641,229.615,225.711,229.615,225.791z"/>
		<path fill="#C7AE21" d="M240.053,220.434c0,0.104-0.082,0.227-0.25,0.359c-0.165,0.129-0.336,0.195-0.505,0.195
			c-0.745,0-1.442,0.007-2.095,0.018c-0.652,0.007-1.412,0.024-2.282,0.049c-0.542,0.75-1.208,1.523-2,2.315
			c-0.79,0.795-1.601,1.514-2.433,2.155c-0.007,0.035-0.012,0.069-0.016,0.115c-0.002,0.045-0.004,0.107-0.004,0.188
			c0.077,0.317,0.293,0.631,0.652,0.944c0.359,0.317,0.77,0.523,1.23,0.625c1.234,0,2.438-0.157,3.61-0.468
			c1.172-0.313,2.274-0.774,3.308-1.385c0.02-0.014,0.041-0.021,0.066-0.027c0.024-0.007,0.058-0.011,0.094-0.011
			c0.059,0,0.104,0.028,0.142,0.08c0.038,0.053,0.058,0.122,0.058,0.202c0,0.046-0.007,0.08-0.02,0.104
			c-0.014,0.024-0.035,0.046-0.066,0.057c-1.053,0.707-2.285,1.276-3.699,1.712c-1.416,0.436-2.71,0.652-3.882,0.652
			c-0.875,0-1.54-0.206-1.995-0.621c-0.453-0.411-0.68-1.004-0.68-1.778c0-0.639,0.146-1.363,0.436-2.18
			c0.29-0.816,0.699-1.66,1.229-2.528c-0.648,0.011-1.615,0.073-2.902,0.178c-0.265,0.028-0.457,0.042-0.575,0.049
			c0.087-0.227,0.198-0.429,0.335-0.606c0.136-0.175,0.295-0.321,0.478-0.433c0.868-0.031,1.776-0.056,2.722-0.066
			c0.222-0.007,0.396-0.011,0.529-0.011c0.693-0.99,1.453-1.827,2.283-2.514c0.828-0.688,1.518-1.029,2.064-1.029
			c0.164,0,0.297,0.056,0.398,0.175c0.101,0.115,0.149,0.271,0.149,0.467c0,0.461-0.093,0.945-0.278,1.454
			c-0.186,0.513-0.453,1.012-0.808,1.504c1.026,0.021,1.878,0.034,2.553,0.041C238.574,220.427,239.293,220.434,240.053,220.434z
			 M234.277,221.094l-1.89,0.06c-0.403,0.62-0.765,1.245-1.087,1.869c-0.32,0.624-0.542,1.123-0.66,1.492
			c0.609-0.446,1.252-0.983,1.928-1.614C233.242,222.269,233.812,221.669,234.277,221.094z M235.537,218.44
			c0-0.115-0.015-0.206-0.039-0.272s-0.062-0.098-0.113-0.098c-0.34,0.118-0.672,0.311-0.992,0.575
			c-0.32,0.266-0.655,0.621-1.002,1.071c-0.063,0.08-0.146,0.191-0.246,0.334c-0.102,0.14-0.168,0.237-0.199,0.286
			c0.506,0,0.886,0.004,1.145,0.007c0.258,0.004,0.488,0.007,0.689,0.015c0.239-0.328,0.426-0.666,0.559-1.019
			C235.471,218.991,235.537,218.691,235.537,218.44z"/>
		<path fill="#C7AE21" d="M260.617,225.791c0,0.046-0.007,0.08-0.021,0.104c-0.011,0.024-0.035,0.046-0.066,0.057
			c-1.415,0.809-2.538,1.377-3.363,1.708c-0.825,0.332-1.491,0.495-1.995,0.495c-0.41,0-0.785-0.188-1.125-0.561
			c-0.34-0.377-0.674-0.994-1-1.859c-0.046-0.111-0.108-0.286-0.19-0.52c-0.138-0.415-0.235-0.624-0.293-0.624
			c-0.562,0.149-1.177,0.397-1.849,0.743c-0.671,0.341-1.372,0.773-2.103,1.29c-0.245,0.174-0.591,0.453-1.041,0.83
			c-0.446,0.38-0.72,0.568-0.821,0.568c-0.359,0-0.619-0.066-0.779-0.202c-0.16-0.137-0.24-0.366-0.24-0.688
			c0-0.133,0.052-0.394,0.16-0.784c0.106-0.391,0.3-1.008,0.575-1.853c0-0.107-0.095-0.227-0.282-0.358
			c-0.188-0.133-0.348-0.206-0.473-0.217c-0.466,0-1.404,0.443-2.808,1.325c-1.405,0.886-2.864,1.974-4.376,3.258
			c-0.227,0-0.403-0.057-0.529-0.164c-0.127-0.111-0.221-0.328-0.283-0.648c0.555-0.845,1.021-1.667,1.403-2.473
			c0.38-0.803,0.718-1.685,1.015-2.641c0.178,0,0.336,0.035,0.479,0.108s0.278,0.185,0.41,0.335v0.606
			c0,0.15-0.081,0.437-0.245,0.858c-0.036,0.091-0.066,0.156-0.085,0.209c-0.08,0.213-0.154,0.46-0.217,0.743
			c-0.062,0.278-0.098,0.52-0.104,0.722c0.313-0.188,1.367-0.837,3.152-1.942c1.786-1.105,2.779-1.691,2.981-1.754
			c0.379,0.107,0.646,0.247,0.805,0.418c0.156,0.167,0.234,0.391,0.234,0.67c0,0.14-0.01,0.296-0.031,0.478
			c-0.022,0.178-0.069,0.433-0.137,0.76c-0.008,0.032-0.016,0.084-0.03,0.161c-0.095,0.516-0.14,0.913-0.14,1.192
			c0,0.104,0.004,0.209,0.014,0.311c0.01,0.101,0.023,0.205,0.043,0.313c0.27-0.16,0.596-0.359,0.978-0.596
			c0.382-0.241,0.827-0.527,1.337-0.861c0.189-0.119,0.465-0.293,0.823-0.521c1.48-0.944,2.277-1.419,2.391-1.419
			c0.391,0,0.688,0.084,0.895,0.251c0.202,0.168,0.359,0.446,0.468,0.837c0.244,1.179,0.495,1.915,0.746,2.204
			s0.662,0.433,1.228,0.433c0.335,0,0.979-0.182,1.934-0.548s1.689-0.697,2.208-1.001c0.019-0.014,0.039-0.021,0.061-0.027
			s0.053-0.011,0.091-0.011c0.056,0,0.103,0.028,0.142,0.08C260.597,225.641,260.617,225.711,260.617,225.791z"/>
		<path fill="#C7AE21" d="M270.726,225.791c0,0.046-0.005,0.08-0.019,0.104c-0.013,0.024-0.035,0.046-0.066,0.057
			c-1.322,0.809-2.627,1.408-3.908,1.806s-2.578,0.597-3.891,0.597c-0.906,0-1.633-0.255-2.179-0.768
			c-0.544-0.509-0.816-1.195-0.816-2.061c0-0.899,0.491-1.834,1.476-2.808c0.981-0.97,2.057-1.492,3.223-1.565
			c0.422,0.062,0.729,0.171,0.92,0.324s0.307,0.422,0.346,0.799c0,0.61-0.357,1.221-1.072,1.83
			c-0.715,0.607-1.811,1.229-3.283,1.866l0.263,0.443c0.222,0.258,0.526,0.478,0.917,0.658c0.391,0.179,0.808,0.279,1.247,0.308
			c0.966,0,2.058-0.171,3.281-0.513c1.221-0.339,2.293-0.781,3.212-1.322c0.021-0.014,0.04-0.021,0.062-0.027
			c0.021-0.007,0.053-0.011,0.092-0.011c0.055,0,0.102,0.028,0.139,0.08C270.707,225.641,270.726,225.711,270.726,225.791z
			 M264.705,222.558c-0.057-0.104-0.119-0.191-0.188-0.255c-0.069-0.062-0.136-0.094-0.198-0.094c-0.492,0-1.118,0.338-1.877,1.011
			c-0.76,0.674-1.186,1.301-1.281,1.88c0.855-0.08,1.662-0.387,2.414-0.913C264.328,223.657,264.705,223.113,264.705,222.558z"/>
		<path fill="#C7AE21" d="M284.768,225.791c0,0.046-0.007,0.08-0.02,0.104c-0.012,0.024-0.035,0.046-0.066,0.057
			c-1.393,0.756-2.549,1.293-3.468,1.614c-0.921,0.317-1.756,0.475-2.506,0.475c-0.429,0-0.793-0.262-1.097-0.785
			c-0.303-0.522-0.564-1.356-0.785-2.504c-0.062-0.062-0.223-0.157-0.48-0.282c-0.053-0.024-0.086-0.042-0.105-0.049
			c-0.68,0.069-1.639,0.506-2.873,1.312c-1.234,0.802-2.58,1.862-4.035,3.18c-0.164,0-0.311-0.056-0.439-0.171
			c-0.129-0.114-0.195-0.244-0.195-0.387c0-0.115,0.084-0.313,0.246-0.606c0.02-0.035,0.035-0.066,0.047-0.084
			c0.077-0.14,0.222-0.391,0.437-0.757c0.819-1.405,1.329-2.399,1.53-2.985c0.113-0.094,0.26-0.174,0.439-0.237
			c0.18-0.062,0.346-0.094,0.496-0.094c0.094,0,0.172,0.018,0.233,0.056c0.06,0.038,0.089,0.087,0.089,0.15
			c0,0.014-0.004,0.031-0.009,0.049c-0.007,0.018-0.011,0.031-0.011,0.038c-0.087,0.289-0.282,0.795-0.586,1.517
			c-0.303,0.723-0.473,1.13-0.511,1.225c1.886-1.43,3.236-2.399,4.054-2.901c0.82-0.506,1.402-0.757,1.751-0.757
			c0.213,0,0.415,0.136,0.604,0.404c0.19,0.272,0.425,0.816,0.71,1.629c0.02,0.049,0.043,0.122,0.074,0.216
			c0.417,1.225,0.773,1.834,1.069,1.834c0.825,0,1.632-0.121,2.419-0.365c0.787-0.241,1.663-0.621,2.629-1.138
			c0.018-0.014,0.04-0.021,0.066-0.027c0.024-0.007,0.056-0.011,0.094-0.011c0.057,0,0.105,0.028,0.142,0.08
			C284.748,225.641,284.768,225.711,284.768,225.791z"/>
		<path fill="#C7AE21" d="M295.205,220.434c0,0.104-0.082,0.227-0.249,0.359c-0.166,0.129-0.337,0.195-0.506,0.195
			c-0.745,0-1.442,0.007-2.095,0.018c-0.651,0.007-1.412,0.024-2.282,0.049c-0.542,0.75-1.208,1.523-2,2.315
			c-0.79,0.795-1.601,1.514-2.433,2.155c-0.006,0.035-0.012,0.069-0.016,0.115c-0.002,0.045-0.003,0.107-0.003,0.188
			c0.077,0.317,0.293,0.631,0.651,0.944c0.359,0.317,0.77,0.523,1.23,0.625c1.234,0,2.439-0.157,3.61-0.468
			c1.172-0.313,2.274-0.774,3.308-1.385c0.02-0.014,0.04-0.021,0.066-0.027c0.024-0.007,0.058-0.011,0.095-0.011
			c0.058,0,0.103,0.028,0.141,0.08c0.039,0.053,0.058,0.122,0.058,0.202c0,0.046-0.007,0.08-0.019,0.104
			c-0.015,0.024-0.035,0.046-0.066,0.057c-1.054,0.707-2.286,1.276-3.7,1.712c-1.416,0.436-2.71,0.652-3.882,0.652
			c-0.875,0-1.54-0.206-1.995-0.621c-0.453-0.411-0.68-1.004-0.68-1.778c0-0.639,0.146-1.363,0.436-2.18
			c0.29-0.816,0.699-1.66,1.229-2.528c-0.648,0.011-1.615,0.073-2.902,0.178c-0.265,0.028-0.457,0.042-0.574,0.049
			c0.086-0.227,0.198-0.429,0.334-0.606c0.137-0.175,0.295-0.321,0.479-0.433c0.867-0.031,1.776-0.056,2.721-0.066
			c0.223-0.007,0.396-0.011,0.529-0.011c0.693-0.99,1.453-1.827,2.283-2.514c0.828-0.688,1.518-1.029,2.065-1.029
			c0.163,0,0.296,0.056,0.397,0.175c0.101,0.115,0.149,0.271,0.149,0.467c0,0.461-0.092,0.945-0.278,1.454
			c-0.186,0.513-0.454,1.012-0.808,1.504c1.027,0.021,1.878,0.034,2.553,0.041C293.727,220.427,294.445,220.434,295.205,220.434z
			 M289.43,221.094l-1.89,0.06c-0.403,0.62-0.764,1.245-1.087,1.869c-0.32,0.624-0.542,1.123-0.66,1.492
			c0.609-0.446,1.252-0.983,1.928-1.614C288.395,222.269,288.965,221.669,289.43,221.094z M290.689,218.44
			c0-0.115-0.015-0.206-0.039-0.272s-0.062-0.098-0.113-0.098c-0.34,0.118-0.671,0.311-0.992,0.575
			c-0.32,0.266-0.655,0.621-1.002,1.071c-0.062,0.08-0.145,0.191-0.246,0.334c-0.102,0.14-0.168,0.237-0.199,0.286
			c0.506,0,0.887,0.004,1.145,0.007c0.258,0.004,0.488,0.007,0.689,0.015c0.239-0.328,0.426-0.666,0.559-1.019
			C290.623,218.991,290.689,218.691,290.689,218.44z"/>
	</g>
	<g>
		<path fill="#C7AE21" d="M180.951,9.463c0,0.024-0.005,0.052-0.015,0.076c-0.01,0.024-0.023,0.042-0.042,0.056
			c-0.505,0.241-1.004,0.412-1.499,0.52c-0.495,0.108-1.126,0.161-1.896,0.161c-1.562,0-3.675-0.422-6.337-1.27
			s-4.05-1.283-4.164-1.312c-0.555,0.328-1.18,0.586-1.876,0.771c-0.696,0.186-1.404,0.279-2.122,0.279
			c-0.504,0-0.9-0.084-1.191-0.251c-0.29-0.168-0.466-0.415-0.529-0.739c0.013-0.391,0.312-0.774,0.898-1.151
			c0.586-0.373,1.289-0.596,2.108-0.666c0.51,0,1.009,0.028,1.498,0.088c0.488,0.056,0.95,0.136,1.385,0.244
			c0.895-1.242,2.036-2.923,3.422-5.04l0.624-0.944c1.398-2.135,2.765-3.729,4.098-4.778c1.332-1.05,2.657-1.572,3.974-1.572
			c0.41,0,0.79,0.213,1.139,0.638c0.35,0.426,0.525,0.935,0.525,1.527c0,1.21-0.677,2.41-2.032,3.606
			c-1.355,1.192-2.723,1.96-4.103,2.302c-0.075,0-0.133-0.018-0.174-0.049c-0.041-0.031-0.068-0.08-0.08-0.15V1.797
			c0-0.062,0.026-0.122,0.08-0.174c0.053-0.056,0.112-0.08,0.174-0.08c1.097-0.415,2.209-1.315,3.337-2.696
			c1.128-1.377,1.692-2.469,1.692-3.268c0-0.366-0.088-0.645-0.264-0.837c-0.177-0.191-0.429-0.289-0.756-0.289
			c-0.662,0-1.35,0.324-2.065,0.973c-0.715,0.648-1.627,1.765-2.736,3.348l-0.029,0.035c-2.438,3.48-4.449,6.054-6.031,7.725
			c0.373,0.133,0.983,0.349,1.833,0.652c4.569,1.618,7.53,2.427,8.886,2.427c0.409,0,0.767-0.027,1.073-0.084
			c0.306-0.056,0.613-0.146,0.921-0.265c0.082,0,0.148,0.021,0.199,0.056C180.925,9.357,180.951,9.406,180.951,9.463z
			 M165.913,7.429c-0.479-0.126-0.859-0.21-1.14-0.248c-0.281-0.042-0.559-0.062-0.836-0.062c-0.353,0-0.7,0.069-1.04,0.209
			c-0.34,0.136-0.51,0.272-0.51,0.404v0.021c0.125,0.156,0.285,0.262,0.477,0.311s0.509,0.076,0.95,0.076
			c0.277,0,0.619-0.049,1.025-0.143c0.406-0.095,0.723-0.213,0.95-0.359c0.043-0.018,0.075-0.038,0.094-0.062
			c0.019-0.021,0.029-0.053,0.029-0.088V7.429z"/>
		<path fill="#C7AE21" d="M190.289,5.232c0,0.045-0.007,0.08-0.019,0.104c-0.013,0.024-0.035,0.045-0.066,0.056
			c-0.429,0.227-0.904,0.412-1.427,0.551c-0.523,0.137-1.011,0.206-1.465,0.206c-0.498,0-1.061-0.094-1.687-0.286
			c-0.627-0.195-1.117-0.415-1.47-0.669c-0.227,0.358-0.5,0.725-0.818,1.095c-0.318,0.366-0.6,0.642-0.846,0.826
			c-0.302,0.213-0.691,0.408-1.167,0.586c-0.476,0.175-0.869,0.266-1.177,0.266c-0.793,0-1.408-0.186-1.843-0.555
			c-0.435-0.37-0.652-0.876-0.652-1.518c0-0.446,0.115-0.927,0.345-1.437c0.23-0.509,0.535-0.955,0.912-1.332
			c0.322-0.321,0.706-0.604,1.153-0.841c0.447-0.24,0.834-0.358,1.162-0.358c0.025,0,0.104,0.003,0.236,0.007
			c0.132,0.007,0.236,0.01,0.312,0.01h0.133c0.076-0.149,0.159-0.261,0.25-0.334s0.197-0.108,0.316-0.108
			c0.064,0,0.154,0.011,0.275,0.038c0.119,0.024,0.246,0.056,0.378,0.095c0.352,0.156,0.628,0.429,0.826,0.815
			c0.199,0.388,0.298,0.858,0.298,1.412c0.164,0.506,0.512,0.911,1.044,1.221c0.532,0.311,1.164,0.464,1.895,0.464
			c0.624,0,1.152-0.045,1.583-0.14c0.432-0.09,0.824-0.233,1.177-0.429c0.013-0.007,0.03-0.01,0.052-0.018
			c0.022-0.007,0.051-0.01,0.09-0.01c0.057,0,0.104,0.027,0.141,0.08C190.27,5.082,190.289,5.152,190.289,5.232z M183.492,4.618
			c-0.453-0.376-0.789-0.715-1.006-1.011c-0.218-0.297-0.361-0.586-0.431-0.868c-0.813,0.031-1.519,0.376-2.117,1.039
			c-0.599,0.662-0.898,1.245-0.898,1.747c0,0.453,0.12,0.816,0.359,1.088c0.24,0.272,0.592,0.439,1.058,0.502
			c0.788,0,1.467-0.233,2.038-0.701C183.066,5.947,183.398,5.35,183.492,4.618z"/>
		<path fill="#C7AE21" d="M204.329,5.232c0,0.045-0.006,0.08-0.019,0.104s-0.035,0.045-0.066,0.056
			c-1.393,0.757-2.549,1.294-3.469,1.615c-0.92,0.317-1.755,0.474-2.505,0.474c-0.429,0-0.794-0.262-1.097-0.784
			c-0.302-0.523-0.564-1.356-0.785-2.504c-0.062-0.063-0.223-0.157-0.482-0.283c-0.051-0.024-0.084-0.041-0.104-0.049
			c-0.68,0.07-1.638,0.506-2.874,1.312c-1.234,0.803-2.58,1.862-4.036,3.181c-0.164,0-0.31-0.056-0.439-0.171
			c-0.129-0.115-0.193-0.244-0.193-0.387c0-0.115,0.082-0.314,0.245-0.607c0.019-0.034,0.035-0.066,0.048-0.083
			c0.075-0.14,0.22-0.391,0.434-0.757c0.819-1.405,1.33-2.399,1.532-2.985c0.113-0.095,0.26-0.175,0.439-0.237
			s0.345-0.094,0.496-0.094c0.094,0,0.172,0.017,0.232,0.056c0.059,0.038,0.09,0.087,0.09,0.149c0,0.015-0.003,0.031-0.01,0.049
			c-0.007,0.018-0.009,0.031-0.009,0.039c-0.088,0.289-0.284,0.795-0.586,1.517c-0.303,0.722-0.473,1.13-0.511,1.224
			c1.884-1.43,3.236-2.398,4.055-2.901c0.819-0.506,1.402-0.757,1.749-0.757c0.214,0,0.416,0.137,0.605,0.405
			c0.189,0.271,0.425,0.815,0.708,1.628c0.02,0.049,0.044,0.122,0.076,0.217c0.416,1.224,0.771,1.834,1.068,1.834
			c0.826,0,1.632-0.122,2.419-0.366c0.789-0.24,1.664-0.621,2.628-1.137c0.02-0.014,0.041-0.021,0.066-0.028
			c0.025-0.007,0.057-0.01,0.095-0.01c0.057,0,0.104,0.027,0.142,0.08C204.311,5.082,204.329,5.152,204.329,5.232z"/>
		<path fill="#C7AE21" d="M218.473,5.232c0,0.045-0.005,0.08-0.018,0.104c-0.014,0.024-0.035,0.045-0.066,0.056
			c-0.736,0.481-1.588,0.868-2.553,1.165C214.874,6.853,214.016,7,213.266,7c-0.749,0-1.42-0.08-2.014-0.244
			c-0.591-0.163-1.09-0.407-1.494-0.729c-0.691,0.373-1.647,0.777-2.866,1.221c-1.221,0.439-2.013,0.659-2.378,0.659
			c-0.454,0-0.822-0.153-1.105-0.468c-0.284-0.31-0.426-0.645-0.426-1.004c0-0.945,0.539-1.858,1.616-2.741
			c1.077-0.882,2.237-1.461,3.479-1.729c0.202-1.405,0.907-3.069,2.116-4.994c1.211-1.922,2.428-2.881,3.648-2.881
			c0.58,0,1.081,0.293,1.503,0.883c0.422,0.589,0.635,1.182,0.635,1.782c0,1.304-0.468,2.724-1.405,4.258
			c-0.935,1.534-2.204,2.93-3.805,4.182c0.342,0.293,0.753,0.509,1.24,0.655c0.484,0.143,1.02,0.216,1.605,0.216
			c0.725,0,1.539-0.107,2.444-0.327c0.903-0.217,1.593-0.468,2.064-0.75c0.02-0.014,0.038-0.021,0.063-0.028
			c0.021-0.007,0.05-0.01,0.088-0.01c0.059,0,0.104,0.027,0.142,0.08C218.455,5.082,218.473,5.152,218.473,5.232z M208.928,5.065
			c-0.178-0.293-0.362-0.635-0.558-1.033c-0.195-0.397-0.349-0.742-0.464-1.039l-0.586,0.095c-0.446,0.024-1.029,0.366-1.747,1.025
			s-1.079,1.234-1.079,1.726c0,0.244,0.054,0.503,0.162,0.771c0.105,0.269,0.235,0.454,0.387,0.562l0.983-0.132
			c0.435-0.133,0.907-0.373,1.416-0.719C207.955,5.975,208.449,5.552,208.928,5.065z M214.778-3.263
			c0-0.321-0.117-0.642-0.354-0.959c-0.236-0.321-0.52-0.502-0.848-0.544c-1.145,0.233-2.191,1.091-3.137,2.573
			c-0.945,1.485-1.417,2.992-1.417,4.523c0,0.271,0.101,0.61,0.304,1.019c0.2,0.404,0.398,0.693,0.594,0.864
			c0.743-0.391,1.602-1.157,2.572-2.298c0.969-1.141,1.634-2.208,1.993-3.205c0.069-0.195,0.136-0.516,0.198-0.963
			C214.746-2.701,214.778-3.036,214.778-3.263z"/>
		<path fill="#C7AE21" d="M230.654,5.232c0,0.045-0.007,0.08-0.021,0.104c-0.012,0.024-0.034,0.045-0.066,0.056
			c-0.428,0.227-0.902,0.412-1.426,0.551c-0.523,0.137-1.012,0.206-1.465,0.206c-0.498,0-1.061-0.094-1.688-0.286
			c-0.628-0.195-1.116-0.415-1.471-0.669c-0.227,0.358-0.5,0.725-0.816,1.095c-0.318,0.366-0.601,0.642-0.846,0.826
			c-0.303,0.213-0.693,0.408-1.167,0.586c-0.478,0.175-0.868,0.266-1.179,0.266c-0.792,0-1.407-0.186-1.842-0.555
			c-0.436-0.37-0.652-0.876-0.652-1.518c0-0.446,0.115-0.927,0.346-1.437c0.23-0.509,0.533-0.955,0.91-1.332
			c0.322-0.321,0.708-0.604,1.154-0.841c0.446-0.24,0.834-0.358,1.161-0.358c0.026,0,0.104,0.003,0.237,0.007
			c0.133,0.007,0.237,0.01,0.312,0.01h0.133c0.074-0.149,0.158-0.261,0.248-0.334c0.094-0.073,0.199-0.108,0.318-0.108
			c0.062,0,0.153,0.011,0.275,0.038c0.118,0.024,0.244,0.056,0.377,0.095c0.352,0.156,0.629,0.429,0.826,0.815
			c0.199,0.388,0.3,0.858,0.3,1.412c0.164,0.506,0.511,0.911,1.042,1.221c0.534,0.311,1.166,0.464,1.896,0.464
			c0.623,0,1.152-0.045,1.583-0.14c0.431-0.09,0.825-0.233,1.177-0.429c0.014-0.007,0.029-0.01,0.053-0.018
			c0.021-0.007,0.052-0.01,0.09-0.01c0.057,0,0.104,0.027,0.14,0.08C230.633,5.082,230.654,5.152,230.654,5.232z M223.857,4.618
			c-0.453-0.376-0.79-0.715-1.008-1.011c-0.217-0.297-0.359-0.586-0.43-0.868c-0.812,0.031-1.52,0.376-2.116,1.039
			c-0.6,0.662-0.899,1.245-0.899,1.747c0,0.453,0.12,0.816,0.359,1.088c0.24,0.272,0.592,0.439,1.06,0.502
			c0.788,0,1.465-0.233,2.036-0.701C223.43,5.947,223.764,5.35,223.857,4.618z"/>
		<path fill="#C7AE21" d="M244.694,5.232c0,0.045-0.007,0.08-0.018,0.104c-0.014,0.024-0.034,0.045-0.065,0.056
			c-1.396,0.757-2.55,1.294-3.471,1.615c-0.92,0.317-1.754,0.474-2.504,0.474c-0.429,0-0.795-0.262-1.099-0.784
			c-0.302-0.523-0.563-1.356-0.784-2.504c-0.062-0.063-0.224-0.157-0.481-0.283c-0.051-0.024-0.084-0.041-0.104-0.049
			c-0.68,0.07-1.638,0.506-2.874,1.312c-1.234,0.803-2.579,1.862-4.034,3.181c-0.164,0-0.311-0.056-0.439-0.171
			s-0.193-0.244-0.193-0.387c0-0.115,0.082-0.314,0.245-0.607c0.018-0.034,0.035-0.066,0.048-0.083
			c0.074-0.14,0.221-0.391,0.434-0.757c0.819-1.405,1.328-2.399,1.531-2.985c0.115-0.095,0.262-0.175,0.439-0.237
			c0.182-0.062,0.345-0.094,0.496-0.094c0.095,0,0.173,0.017,0.232,0.056c0.059,0.038,0.091,0.087,0.091,0.149
			c0,0.015-0.004,0.031-0.011,0.049s-0.01,0.031-0.01,0.039c-0.088,0.289-0.283,0.795-0.586,1.517s-0.471,1.13-0.51,1.224
			c1.883-1.43,3.236-2.398,4.055-2.901c0.818-0.506,1.401-0.757,1.748-0.757c0.215,0,0.415,0.137,0.605,0.405
			c0.189,0.271,0.426,0.815,0.709,1.628c0.018,0.049,0.044,0.122,0.076,0.217c0.416,1.224,0.771,1.834,1.068,1.834
			c0.824,0,1.632-0.122,2.418-0.366c0.789-0.24,1.664-0.621,2.628-1.137c0.02-0.014,0.042-0.021,0.066-0.028
			c0.024-0.007,0.056-0.01,0.095-0.01c0.057,0,0.104,0.027,0.143,0.08C244.677,5.082,244.694,5.152,244.694,5.232z"/>
	</g>
	<g>
		<g>
			<path fill="#231F20" d="M66.949,36.565h-1.116l0.392-0.696h1.474V42.6h-0.75V36.565z"/>
			<path fill="#231F20" d="M73.369,36.096c0.321-0.229,0.685-0.344,1.089-0.344c0.405,0,0.768,0.115,1.089,0.344
				c0.322,0.229,0.575,0.524,0.759,0.889c0.184,0.363,0.325,0.737,0.419,1.125c0.095,0.387,0.143,0.764,0.143,1.133
				c0,0.423-0.055,0.837-0.166,1.245c-0.11,0.408-0.263,0.778-0.459,1.112s-0.451,0.602-0.764,0.808
				c-0.312,0.206-0.653,0.309-1.022,0.309s-0.709-0.103-1.022-0.309c-0.312-0.206-0.567-0.474-0.763-0.808
				c-0.196-0.334-0.35-0.704-0.459-1.112c-0.11-0.408-0.166-0.822-0.166-1.245c0-0.369,0.048-0.746,0.143-1.133
				c0.095-0.388,0.235-0.762,0.419-1.125C72.794,36.621,73.047,36.326,73.369,36.096z M75.248,36.752
				c-0.229-0.202-0.493-0.304-0.79-0.304c-0.298,0-0.562,0.102-0.79,0.304c-0.229,0.202-0.405,0.457-0.526,0.764
				c-0.122,0.307-0.212,0.612-0.269,0.915c-0.057,0.304-0.082,0.586-0.076,0.848c0.006,0.269,0.039,0.548,0.098,0.835
				c0.06,0.29,0.148,0.583,0.268,0.879c0.119,0.299,0.292,0.544,0.518,0.738c0.226,0.193,0.485,0.289,0.777,0.289
				c0.291,0,0.55-0.096,0.777-0.289c0.226-0.194,0.398-0.439,0.518-0.738c0.118-0.296,0.208-0.589,0.268-0.879
				c0.059-0.287,0.092-0.566,0.099-0.835c0.005-0.262-0.021-0.544-0.076-0.848c-0.057-0.303-0.146-0.608-0.269-0.915
				S75.477,36.954,75.248,36.752z"/>
			<path fill="#231F20" d="M80.654,36.096c0.321-0.229,0.684-0.344,1.089-0.344c0.404,0,0.768,0.115,1.089,0.344
				c0.322,0.229,0.575,0.524,0.759,0.889c0.184,0.363,0.324,0.737,0.419,1.125c0.095,0.387,0.143,0.764,0.143,1.133
				c0,0.423-0.055,0.837-0.166,1.245c-0.11,0.408-0.264,0.778-0.459,1.112c-0.196,0.334-0.451,0.602-0.764,0.808
				c-0.312,0.206-0.653,0.309-1.022,0.309s-0.709-0.103-1.023-0.309c-0.312-0.206-0.566-0.474-0.763-0.808s-0.35-0.704-0.459-1.112
				c-0.111-0.408-0.166-0.822-0.166-1.245c0-0.369,0.048-0.746,0.143-1.133c0.095-0.388,0.235-0.762,0.419-1.125
				C80.079,36.621,80.332,36.326,80.654,36.096z M82.533,36.752c-0.229-0.202-0.493-0.304-0.79-0.304
				c-0.298,0-0.562,0.102-0.79,0.304c-0.229,0.202-0.405,0.457-0.526,0.764c-0.122,0.307-0.212,0.612-0.269,0.915
				c-0.057,0.304-0.082,0.586-0.076,0.848c0.006,0.269,0.039,0.548,0.098,0.835c0.06,0.29,0.148,0.583,0.268,0.879
				c0.12,0.299,0.292,0.544,0.518,0.738c0.226,0.193,0.485,0.289,0.777,0.289c0.291,0,0.55-0.096,0.777-0.289
				c0.226-0.194,0.398-0.439,0.518-0.738c0.119-0.296,0.208-0.589,0.268-0.879c0.059-0.287,0.092-0.566,0.098-0.835
				c0.005-0.262-0.02-0.544-0.076-0.848c-0.057-0.303-0.146-0.608-0.269-0.915S82.762,36.954,82.533,36.752z"/>
			<path fill="#231F20" d="M92.24,39.653V42.6h-0.75v-6.731h1.107c0.369,0,0.685,0.021,0.946,0.062
				c0.262,0.042,0.503,0.142,0.724,0.295c0.244,0.172,0.432,0.394,0.562,0.666c0.131,0.271,0.196,0.562,0.196,0.87
				c0,0.606-0.213,1.09-0.643,1.445c-0.363,0.298-0.896,0.446-1.598,0.446H92.24z M92.24,36.565v2.393h0.5
				c1.024,0,1.536-0.405,1.536-1.214c0-0.215-0.034-0.396-0.103-0.546c-0.068-0.148-0.154-0.264-0.259-0.344
				c-0.104-0.08-0.239-0.143-0.406-0.187c-0.167-0.045-0.321-0.073-0.464-0.085c-0.143-0.013-0.318-0.018-0.527-0.018H92.24z"/>
			<path fill="#231F20" d="M100.937,40.689h-2.875L97.25,42.6h-0.822l3.107-7.054l3.026,7.054h-0.83L100.937,40.689z
				 M100.643,39.993l-1.126-2.695l-1.15,2.695H100.643z"/>
			<path fill="#231F20" d="M105.829,35.869v6.035h1.857V42.6h-2.607v-6.731H105.829z"/>
			<path fill="#231F20" d="M110.962,35.869v6.035h1.857V42.6h-2.607v-6.731H110.962z"/>
			<path fill="#231F20" d="M119.39,42.6l1.366-7.116l2.446,5.651l2.455-5.651l1.365,7.116h-0.767l-0.867-4.553h-0.018l-2.169,4.829
				l-2.162-4.829h-0.017l-0.866,4.553H119.39z"/>
			<path fill="#231F20" d="M133.549,40.689h-2.875l-0.812,1.911h-0.822l3.107-7.054l3.026,7.054h-0.83L133.549,40.689z
				 M133.254,39.993l-1.125-2.695l-1.151,2.695H133.254z"/>
			<path fill="#231F20" d="M138.441,35.869v6.035h1.857V42.6h-2.607v-6.731H138.441z"/>
			<path fill="#231F20" d="M143.574,35.869v6.035h1.857V42.6h-2.607v-6.731H143.574z"/>
			<path fill="#231F20" d="M148.627,41.618l0.661,0.232l-1.009,2.286l-0.482-0.197L148.627,41.618z"/>
			<path fill="#231F20" d="M160.68,36.797l-0.598,0.384c-0.28-0.488-0.666-0.732-1.16-0.732c-0.304,0-0.566,0.1-0.786,0.295
				c-0.221,0.197-0.331,0.446-0.331,0.75c0,0.138,0.03,0.263,0.09,0.375c0.059,0.113,0.152,0.212,0.276,0.3
				c0.125,0.085,0.23,0.153,0.316,0.2s0.21,0.108,0.371,0.18l0.446,0.195c0.256,0.113,0.467,0.22,0.634,0.317
				c0.167,0.098,0.333,0.22,0.496,0.366c0.163,0.146,0.285,0.319,0.366,0.521c0.08,0.202,0.121,0.433,0.121,0.688
				c0,0.582-0.206,1.076-0.617,1.477c-0.411,0.401-0.91,0.604-1.5,0.604c-0.535,0-0.992-0.16-1.371-0.478
				c-0.377-0.319-0.621-0.739-0.727-1.265l0.731-0.205c0.048,0.352,0.197,0.648,0.446,0.889c0.25,0.241,0.551,0.361,0.902,0.361
				c0.369,0,0.691-0.126,0.969-0.378c0.276-0.253,0.415-0.565,0.415-0.934c0-0.149-0.025-0.287-0.076-0.416
				c-0.051-0.128-0.107-0.23-0.17-0.308c-0.063-0.076-0.163-0.16-0.299-0.251c-0.137-0.089-0.244-0.151-0.322-0.191
				c-0.077-0.039-0.202-0.096-0.375-0.173l-0.41-0.18c-0.476-0.215-0.839-0.446-1.089-0.695c-0.25-0.251-0.375-0.593-0.375-1.027
				c0-0.506,0.184-0.917,0.553-1.236c0.369-0.319,0.813-0.478,1.331-0.478c0.375,0,0.714,0.091,1.018,0.271
				C160.26,36.206,160.502,36.464,160.68,36.797z"/>
			<path fill="#231F20" d="M165.59,36.565V42.6h-0.75v-6.035h-1.625v-0.696h4.018v0.696H165.59z"/>
			<path fill="#231F20" d="M175.75,35.869v5.329c0,0.239-0.004,0.424-0.014,0.558c-0.009,0.135-0.039,0.299-0.089,0.492
				c-0.051,0.193-0.13,0.357-0.236,0.495c-0.28,0.37-0.667,0.553-1.161,0.553c-0.405,0-0.803-0.166-1.196-0.499l0.419-0.58
				c0.273,0.256,0.539,0.384,0.795,0.384c0.119,0,0.222-0.021,0.308-0.063c0.086-0.042,0.155-0.104,0.206-0.191
				c0.05-0.086,0.091-0.168,0.125-0.246c0.032-0.076,0.055-0.18,0.067-0.307c0.011-0.129,0.019-0.229,0.021-0.3
				c0.003-0.071,0.004-0.169,0.004-0.295v-5.329H175.75z"/>
			<path fill="#231F20" d="M182.794,40.689h-2.875l-0.812,1.911h-0.822l3.107-7.054l3.026,7.054h-0.83L182.794,40.689z
				 M182.499,39.993l-1.125-2.695l-1.151,2.695H182.499z"/>
			<path fill="#231F20" d="M186.445,42.6l1.366-7.116l2.446,5.651l2.455-5.651l1.365,7.116h-0.767l-0.867-4.553h-0.018l-2.169,4.829
				l-2.162-4.829h-0.017l-0.866,4.553H186.445z"/>
			<path fill="#231F20" d="M196.721,42.6v-6.731h3.491v0.696h-2.741v2h2.661v0.695h-2.661v2.644h2.741V42.6H196.721z"/>
			<path fill="#231F20" d="M206.925,36.797l-0.599,0.384c-0.279-0.488-0.666-0.732-1.161-0.732c-0.304,0-0.565,0.1-0.784,0.295
				c-0.221,0.197-0.33,0.446-0.33,0.75c0,0.138,0.029,0.263,0.09,0.375c0.059,0.113,0.15,0.212,0.275,0.3
				c0.125,0.085,0.229,0.153,0.316,0.2c0.088,0.047,0.209,0.108,0.37,0.18l0.446,0.195c0.258,0.113,0.467,0.22,0.635,0.317
				s0.331,0.22,0.495,0.366s0.286,0.319,0.366,0.521s0.122,0.433,0.122,0.688c0,0.582-0.206,1.076-0.617,1.477
				c-0.411,0.401-0.91,0.604-1.499,0.604c-0.536,0-0.992-0.16-1.371-0.478c-0.377-0.319-0.621-0.739-0.727-1.265l0.73-0.205
				c0.049,0.352,0.197,0.648,0.447,0.889c0.25,0.241,0.55,0.361,0.902,0.361c0.369,0,0.689-0.126,0.969-0.378
				c0.275-0.253,0.415-0.565,0.415-0.934c0-0.149-0.026-0.287-0.077-0.416c-0.05-0.128-0.107-0.23-0.17-0.308
				c-0.062-0.076-0.16-0.16-0.299-0.251c-0.138-0.089-0.244-0.151-0.322-0.191c-0.076-0.039-0.202-0.096-0.373-0.173l-0.412-0.18
				c-0.476-0.215-0.838-0.446-1.088-0.695c-0.251-0.251-0.375-0.593-0.375-1.027c0-0.506,0.184-0.917,0.553-1.236
				s0.812-0.478,1.331-0.478c0.374,0,0.713,0.091,1.017,0.271C206.504,36.206,206.746,36.464,206.925,36.797z"/>
			<path fill="#231F20" d="M210.719,41.618l0.661,0.232l-1.008,2.286l-0.483-0.197L210.719,41.618z"/>
			<path fill="#231F20" d="M219.869,35.869v6.035h1.857V42.6h-2.607v-6.731H219.869z"/>
			<path fill="#231F20" d="M224.945,36.774c0.688-0.682,1.514-1.021,2.477-1.021c0.966,0,1.792,0.34,2.479,1.021
				c0.688,0.682,1.031,1.505,1.031,2.469c0,0.965-0.344,1.784-1.031,2.459c-0.687,0.677-1.513,1.015-2.479,1.015
				c-0.963,0-1.789-0.338-2.477-1.015c-0.688-0.675-1.032-1.494-1.032-2.459C223.913,38.279,224.258,37.456,224.945,36.774z
				 M229.378,37.266c-0.535-0.546-1.188-0.818-1.956-0.818c-0.768,0-1.42,0.272-1.953,0.818c-0.537,0.544-0.806,1.199-0.806,1.969
				c0,0.762,0.271,1.415,0.81,1.963c0.538,0.548,1.188,0.821,1.949,0.821c0.764,0,1.412-0.273,1.953-0.821
				c0.537-0.548,0.807-1.201,0.807-1.963C230.182,38.466,229.913,37.81,229.378,37.266z"/>
			<path fill="#231F20" d="M233.779,42.6v-7.017l5.248,5.499v-5.214h0.75v7.034l-5.248-5.49V42.6H233.779z"/>
			<path fill="#231F20" d="M242.965,42.6v-6.731h1.27c0.558,0,1.043,0.057,1.454,0.17s0.802,0.327,1.17,0.642
				c0.744,0.644,1.116,1.497,1.116,2.562c0,1.019-0.367,1.854-1.1,2.51c-0.374,0.333-0.765,0.558-1.173,0.673
				c-0.408,0.117-0.903,0.175-1.485,0.175H242.965z M243.715,41.904h0.545c0.459,0,0.856-0.051,1.191-0.148
				c0.338-0.098,0.648-0.28,0.935-0.549c0.558-0.523,0.839-1.181,0.839-1.972c0-0.834-0.291-1.507-0.875-2.018
				c-0.285-0.257-0.596-0.43-0.925-0.519c-0.329-0.09-0.718-0.134-1.165-0.134h-0.545V41.904z"/>
			<path fill="#231F20" d="M251.494,36.774c0.688-0.682,1.514-1.021,2.479-1.021c0.964,0,1.791,0.34,2.478,1.021
				s1.032,1.505,1.032,2.469c0,0.965-0.346,1.784-1.032,2.459c-0.687,0.677-1.514,1.015-2.478,1.015
				c-0.965,0-1.791-0.338-2.479-1.015c-0.687-0.675-1.029-1.494-1.029-2.459C250.465,38.279,250.808,37.456,251.494,36.774z
				 M255.928,37.266c-0.534-0.546-1.187-0.818-1.955-0.818c-0.768,0-1.42,0.272-1.955,0.818c-0.537,0.544-0.804,1.199-0.804,1.969
				c0,0.762,0.271,1.415,0.808,1.963c0.541,0.548,1.189,0.821,1.951,0.821s1.412-0.273,1.951-0.821s0.809-1.201,0.809-1.963
				C256.732,38.466,256.465,37.81,255.928,37.266z"/>
			<path fill="#231F20" d="M260.328,42.6v-7.017l5.252,5.499v-5.214h0.75v7.034l-5.25-5.49V42.6H260.328z"/>
			<path fill="#231F20" d="M270.186,41.618l0.66,0.232l-1.008,2.286l-0.482-0.197L270.186,41.618z"/>
			<path fill="#231F20" d="M282.237,36.797l-0.599,0.384c-0.278-0.488-0.666-0.732-1.16-0.732c-0.304,0-0.565,0.1-0.785,0.295
				c-0.22,0.197-0.331,0.446-0.331,0.75c0,0.138,0.031,0.263,0.091,0.375c0.059,0.113,0.151,0.212,0.275,0.3
				c0.125,0.085,0.23,0.153,0.316,0.2c0.088,0.047,0.21,0.108,0.37,0.18l0.446,0.195c0.258,0.113,0.468,0.22,0.635,0.317
				c0.168,0.098,0.332,0.22,0.496,0.366c0.163,0.146,0.285,0.319,0.365,0.521s0.123,0.433,0.123,0.688
				c0,0.582-0.207,1.076-0.618,1.477c-0.411,0.401-0.91,0.604-1.499,0.604c-0.535,0-0.992-0.16-1.371-0.478
				c-0.377-0.319-0.621-0.739-0.727-1.265l0.73-0.205c0.049,0.352,0.199,0.648,0.446,0.889c0.251,0.241,0.551,0.361,0.903,0.361
				c0.369,0,0.69-0.126,0.969-0.378c0.275-0.253,0.416-0.565,0.416-0.934c0-0.149-0.026-0.287-0.077-0.416
				c-0.051-0.128-0.108-0.23-0.171-0.308c-0.062-0.076-0.16-0.16-0.299-0.251c-0.137-0.089-0.244-0.151-0.322-0.191
				c-0.076-0.039-0.202-0.096-0.373-0.173l-0.411-0.18c-0.476-0.215-0.839-0.446-1.089-0.695c-0.25-0.251-0.376-0.593-0.376-1.027
				c0-0.506,0.185-0.917,0.555-1.236s0.812-0.478,1.33-0.478c0.375,0,0.714,0.091,1.017,0.271
				C281.817,36.206,282.06,36.464,282.237,36.797z"/>
			<path fill="#231F20" d="M285.611,35.869l1.768,5.043l2.18-5.392l2.179,5.392l1.766-5.043h0.812l-2.578,7.08l-2.179-5.42
				l-2.18,5.42l-2.58-7.08H285.611z"/>
			<path fill="#231F20" d="M298.736,36.565h-1.116l0.393-0.696h1.474V42.6h-0.75V36.565z"/>
			<path fill="#231F20" d="M305.771,39.707l-2.205-3.838h0.866l1.712,3l1.716-3h0.865l-2.204,3.838V42.6h-0.75V39.707z"/>
			<path fill="#231F20" d="M319.778,36.565h-2.151l-0.438,1.437l0.401-0.035c0.655,0,1.192,0.226,1.61,0.679
				c0.421,0.451,0.632,1.008,0.632,1.669c0,0.69-0.239,1.264-0.715,1.719c-0.477,0.455-1.063,0.684-1.76,0.684
				c-0.441,0-0.837-0.106-1.19-0.317c-0.356-0.211-0.646-0.507-0.872-0.889l0.6-0.428c0.153,0.279,0.362,0.506,0.628,0.679
				c0.265,0.173,0.553,0.258,0.861,0.258c0.495,0,0.901-0.164,1.221-0.49c0.317-0.327,0.478-0.739,0.478-1.232
				c0-0.471-0.162-0.859-0.483-1.17c-0.322-0.309-0.72-0.464-1.195-0.464c-0.41,0-0.838,0.143-1.278,0.429l0.975-3.223h2.678V36.565
				z"/>
			<path fill="#231F20" d="M323.118,42.6v-7.017l5.248,5.499v-5.214h0.75v7.034l-5.249-5.49V42.6H323.118z"/>
			<path fill="#231F20" d="M338.062,42.663l-0.562-0.607c-0.274,0.208-0.593,0.37-0.959,0.487c-0.366,0.114-0.723,0.174-1.067,0.174
				c-0.964,0-1.791-0.338-2.478-1.015c-0.689-0.675-1.031-1.494-1.031-2.459c0-0.964,0.342-1.787,1.031-2.469
				c0.687-0.682,1.514-1.021,2.478-1.021c0.97,0,1.796,0.344,2.481,1.03c0.685,0.688,1.026,1.514,1.026,2.478
				c0,0.888-0.324,1.68-0.973,2.375l1.008,1.027H338.062z M336.33,39.886l1.161,1.214c0.493-0.518,0.741-1.141,0.741-1.865
				c0-0.77-0.269-1.425-0.805-1.969c-0.535-0.546-1.187-0.818-1.954-0.818s-1.419,0.272-1.956,0.818
				c-0.536,0.544-0.803,1.199-0.803,1.969c0,0.762,0.269,1.415,0.808,1.963s1.189,0.821,1.951,0.821c0.558,0,1.059-0.166,1.499-0.5
				l-1.625-1.633H336.33z"/>
			<path fill="#231F20" d="M144.507,57.991v6.035h-0.75v-6.035h-1.625v-0.695h4.017v0.695H144.507z"/>
			<path fill="#231F20" d="M148.703,64.026v-6.73h3.491v0.695h-2.741v2h2.661v0.696h-2.661v2.644h2.741v0.695H148.703z"/>
			<path fill="#231F20" d="M156.006,57.296v6.035h1.857v0.695h-2.607v-6.73H156.006z"/>
			<path fill="#231F20" d="M166.648,59.58h0.696v1.813h1.812v0.695h-1.812v1.812h-0.696v-1.812h-1.812v-0.695h1.812V59.58z"/>
			<path fill="#231F20" d="M175.78,62.241h0.831v0.695h-0.831v1.09h-0.75v-1.09h-3.446l4.179-6.018h0.017V62.241z M175.03,62.241
				v-3.045h-0.018l-2.116,3.045H175.03z"/>
			<path fill="#231F20" d="M183.065,62.241h0.831v0.695h-0.831v1.09h-0.75v-1.09h-3.447l4.179-6.018h0.018V62.241z M182.315,62.241
				v-3.045h-0.018l-2.116,3.045H182.315z"/>
			<path fill="#231F20" d="M192.52,63.331h2.839v0.695h-4.357l3.152-3.723c0.304-0.362,0.455-0.737,0.455-1.125
				c0-0.369-0.131-0.678-0.393-0.929c-0.262-0.25-0.577-0.375-0.946-0.375c-0.399,0-0.722,0.131-0.969,0.394
				c-0.248,0.262-0.376,0.592-0.389,0.99h-0.75c0.012-0.594,0.214-1.091,0.607-1.487c0.393-0.396,0.884-0.593,1.473-0.593
				c0.577,0,1.074,0.188,1.491,0.567c0.417,0.378,0.625,0.853,0.625,1.424c0,0.553-0.17,1.027-0.509,1.42L192.52,63.331z"/>
			<path fill="#231F20" d="M199.582,57.522c0.321-0.229,0.685-0.344,1.089-0.344s0.769,0.115,1.089,0.344
				c0.322,0.23,0.574,0.525,0.76,0.89c0.184,0.362,0.324,0.737,0.419,1.124c0.095,0.388,0.144,0.764,0.144,1.134
				c0,0.422-0.056,0.837-0.166,1.245c-0.109,0.408-0.264,0.777-0.459,1.112c-0.197,0.333-0.451,0.602-0.764,0.808
				c-0.312,0.205-0.654,0.309-1.022,0.309c-0.369,0-0.709-0.104-1.022-0.309c-0.312-0.206-0.567-0.475-0.763-0.808
				c-0.196-0.335-0.35-0.704-0.459-1.112c-0.11-0.408-0.166-0.823-0.166-1.245c0-0.37,0.048-0.746,0.143-1.134
				c0.095-0.387,0.235-0.762,0.419-1.124C199.007,58.048,199.26,57.753,199.582,57.522z M201.461,58.177
				c-0.229-0.202-0.492-0.303-0.79-0.303c-0.298,0-0.562,0.101-0.79,0.303c-0.229,0.203-0.405,0.457-0.526,0.764
				c-0.122,0.308-0.212,0.612-0.269,0.916s-0.082,0.586-0.076,0.848c0.006,0.269,0.039,0.547,0.098,0.835
				c0.06,0.289,0.148,0.582,0.268,0.879c0.12,0.298,0.292,0.544,0.518,0.737c0.226,0.193,0.485,0.29,0.777,0.29
				c0.291,0,0.55-0.097,0.776-0.29s0.398-0.439,0.519-0.737c0.118-0.297,0.208-0.59,0.268-0.879c0.06-0.288,0.093-0.566,0.099-0.835
				c0.005-0.262-0.021-0.544-0.076-0.848c-0.057-0.304-0.146-0.608-0.269-0.916C201.865,58.635,201.689,58.381,201.461,58.177z"/>
			<path fill="#231F20" d="M209.34,57.991h-3.68v-0.695h4.967l-4.52,6.848l-0.59-0.349L209.34,57.991z"/>
			<path fill="#231F20" d="M215.732,57.178l0.561,0.421l-1.553,2.089l0.019,0.018c0.183-0.066,0.38-0.098,0.589-0.098
				c0.607,0,1.121,0.216,1.544,0.65c0.423,0.436,0.633,0.959,0.633,1.57c0,0.644-0.227,1.189-0.682,1.64
				c-0.455,0.449-1.003,0.675-1.638,0.675c-0.639,0-1.184-0.227-1.639-0.681c-0.455-0.451-0.684-0.993-0.684-1.623
				c0-0.506,0.205-1.044,0.617-1.616L215.732,57.178z M214.093,62.982c0.308,0.309,0.677,0.464,1.112,0.464
				c0.433,0,0.805-0.155,1.111-0.464c0.305-0.309,0.458-0.686,0.458-1.125c0-0.435-0.153-0.802-0.458-1.103
				c-0.307-0.301-0.679-0.451-1.111-0.451c-0.441,0-0.812,0.15-1.115,0.451c-0.304,0.301-0.457,0.668-0.457,1.103
				C213.633,62.297,213.786,62.674,214.093,62.982z"/>
			<path fill="#231F20" d="M223.018,57.178l0.561,0.421l-1.553,2.089l0.019,0.018c0.183-0.066,0.38-0.098,0.589-0.098
				c0.607,0,1.121,0.216,1.544,0.65c0.423,0.436,0.633,0.959,0.633,1.57c0,0.644-0.227,1.189-0.682,1.64
				c-0.456,0.449-1.003,0.675-1.638,0.675c-0.639,0-1.184-0.227-1.639-0.681c-0.455-0.451-0.684-0.993-0.684-1.623
				c0-0.506,0.205-1.044,0.617-1.616L223.018,57.178z M221.378,62.982c0.307,0.309,0.677,0.464,1.112,0.464
				c0.433,0,0.805-0.155,1.111-0.464c0.305-0.309,0.458-0.686,0.458-1.125c0-0.435-0.153-0.802-0.458-1.103
				c-0.307-0.301-0.679-0.451-1.111-0.451c-0.441,0-0.812,0.15-1.115,0.451c-0.305,0.301-0.457,0.668-0.457,1.103
				C220.918,62.297,221.07,62.674,221.378,62.982z"/>
			<path fill="#231F20" d="M231.311,62.241h0.829v0.695h-0.829v1.09h-0.75v-1.09h-3.445l4.178-6.018h0.018V62.241z M230.561,62.241
				v-3.045h-0.018l-2.117,3.045H230.561z"/>
			<path fill="#231F20" d="M235.756,57.714c0.363-0.357,0.81-0.535,1.34-0.535c0.529,0,0.977,0.178,1.339,0.535
				c0.362,0.358,0.544,0.805,0.544,1.34c0,0.298-0.073,0.582-0.218,0.853c-0.146,0.271-0.347,0.478-0.604,0.621
				c0.309,0.143,0.553,0.36,0.728,0.651c0.176,0.292,0.265,0.612,0.265,0.965c0,0.577-0.196,1.055-0.589,1.432
				c-0.395,0.378-0.883,0.568-1.465,0.568s-1.07-0.19-1.465-0.568c-0.393-0.377-0.59-0.854-0.59-1.432
				c0-0.353,0.088-0.673,0.266-0.965c0.174-0.291,0.416-0.509,0.725-0.651c-0.254-0.144-0.457-0.351-0.602-0.621
				s-0.217-0.555-0.217-0.853C235.213,58.518,235.394,58.072,235.756,57.714z M238.02,61.236c-0.253-0.253-0.562-0.38-0.924-0.38
				c-0.363,0-0.672,0.127-0.924,0.38c-0.254,0.253-0.381,0.559-0.381,0.916s0.127,0.662,0.381,0.915
				c0.252,0.253,0.561,0.379,0.924,0.379c0.362,0,0.671-0.126,0.924-0.379s0.38-0.558,0.38-0.915S238.272,61.489,238.02,61.236z
				 M237.922,58.215c-0.23-0.227-0.506-0.34-0.826-0.34c-0.321,0-0.597,0.113-0.826,0.34c-0.229,0.227-0.344,0.5-0.344,0.821
				c0,0.328,0.115,0.604,0.344,0.835c0.229,0.229,0.505,0.344,0.826,0.344c0.32,0,0.596-0.115,0.826-0.344
				c0.229-0.23,0.342-0.507,0.342-0.835C238.264,58.715,238.15,58.441,237.922,58.215z"/>
			<path fill="#231F20" d="M244.872,57.178l0.562,0.421l-1.554,2.089l0.02,0.018c0.183-0.066,0.38-0.098,0.589-0.098
				c0.607,0,1.121,0.216,1.543,0.65c0.424,0.436,0.633,0.959,0.633,1.57c0,0.644-0.227,1.189-0.682,1.64
				c-0.455,0.449-1.002,0.675-1.637,0.675c-0.639,0-1.184-0.227-1.639-0.681c-0.455-0.451-0.684-0.993-0.684-1.623
				c0-0.506,0.205-1.044,0.617-1.616L244.872,57.178z M243.232,62.982c0.308,0.309,0.678,0.464,1.113,0.464
				c0.432,0,0.804-0.155,1.111-0.464c0.305-0.309,0.458-0.686,0.458-1.125c0-0.435-0.153-0.802-0.458-1.103
				c-0.308-0.301-0.68-0.451-1.111-0.451c-0.441,0-0.812,0.15-1.116,0.451s-0.456,0.668-0.456,1.103
				C242.773,62.297,242.926,62.674,243.232,62.982z"/>
			<path fill="#231F20" d="M250.801,63.331h2.838v0.695h-4.357l3.151-3.723c0.304-0.362,0.457-0.737,0.457-1.125
				c0-0.369-0.133-0.678-0.394-0.929c-0.262-0.25-0.578-0.375-0.945-0.375c-0.401,0-0.723,0.131-0.97,0.394
				c-0.247,0.262-0.377,0.592-0.389,0.99h-0.75c0.013-0.594,0.214-1.091,0.606-1.487c0.393-0.396,0.885-0.593,1.474-0.593
				c0.577,0,1.074,0.188,1.491,0.567c0.416,0.378,0.625,0.853,0.625,1.424c0,0.553-0.17,1.027-0.508,1.42L250.801,63.331z"/>
			<path fill="#231F20" d="M258.619,60.839v-0.695c0.412-0.018,0.736-0.106,0.973-0.264c0.238-0.158,0.357-0.434,0.357-0.826
				c0-0.357-0.109-0.642-0.326-0.856c-0.216-0.215-0.502-0.322-0.852-0.322c-0.326,0-0.586,0.1-0.776,0.295
				c-0.192,0.196-0.302,0.458-0.331,0.786h-0.741c0.054-0.548,0.242-0.98,0.566-1.299c0.325-0.319,0.757-0.479,1.301-0.479
				c0.548,0,1.001,0.17,1.364,0.51c0.363,0.338,0.545,0.782,0.545,1.33c0,0.304-0.078,0.59-0.231,0.861
				c-0.155,0.271-0.366,0.475-0.635,0.61c0.315,0.143,0.554,0.364,0.718,0.661c0.164,0.298,0.248,0.629,0.248,0.992
				c0,0.582-0.204,1.062-0.608,1.437c-0.405,0.375-0.897,0.563-1.482,0.563c-0.553,0-1.023-0.173-1.41-0.519
				c-0.388-0.345-0.583-0.795-0.59-1.35h0.732c0.018,0.341,0.151,0.621,0.401,0.841c0.251,0.22,0.547,0.33,0.893,0.33
				c0.369,0,0.68-0.131,0.935-0.393c0.251-0.262,0.378-0.581,0.378-0.956c0-0.416-0.132-0.733-0.396-0.95
				C259.387,60.929,259.041,60.827,258.619,60.839z"/>
		</g>
	</g>
	<g>
		<g>
			<path fill="#231F20" d="M0,151.242v-7.017l5.25,5.5v-5.214H6v7.034l-5.25-5.493v5.189H0z"/>
			<path fill="#231F20" d="M9.879,145.415c0.687-0.681,1.513-1.021,2.477-1.021c0.964,0,1.791,0.341,2.478,1.021
				c0.688,0.684,1.031,1.507,1.031,2.469c0,0.966-0.343,1.786-1.031,2.459c-0.687,0.676-1.514,1.015-2.478,1.015
				c-0.963,0-1.79-0.339-2.477-1.015c-0.688-0.673-1.031-1.493-1.031-2.459C8.848,146.922,9.191,146.098,9.879,145.415z
				 M14.311,145.906c-0.535-0.544-1.187-0.815-1.956-0.815c-0.767,0-1.419,0.271-1.955,0.815c-0.536,0.544-0.804,1.2-0.804,1.971
				c0,0.76,0.27,1.416,0.808,1.963c0.539,0.548,1.189,0.82,1.95,0.82c0.762,0,1.413-0.272,1.951-0.82
				c0.539-0.547,0.809-1.203,0.809-1.963C15.115,147.106,14.847,146.45,14.311,145.906z"/>
			<path fill="#231F20" d="M19.011,150.499c0.099-0.094,0.216-0.143,0.353-0.143c0.137,0,0.255,0.049,0.353,0.143
				c0.098,0.098,0.147,0.213,0.147,0.35c0,0.136-0.049,0.258-0.147,0.358c-0.098,0.102-0.215,0.15-0.353,0.15
				c-0.137,0-0.254-0.049-0.353-0.15c-0.098-0.101-0.146-0.223-0.146-0.358C18.865,150.712,18.914,150.596,19.011,150.499z"/>
			<path fill="#231F20" d="M25.051,145.206h-1.116l0.392-0.694h1.474v6.73h-0.75V145.206z"/>
			<path fill="#231F20" d="M31.158,150.259l0.661,0.233l-1.008,2.284l-0.482-0.195L31.158,150.259z"/>
			<path fill="#231F20" d="M40.765,150.545h2.838v0.697h-4.356l3.152-3.725c0.303-0.362,0.455-0.735,0.455-1.123
				c0-0.369-0.131-0.68-0.393-0.931c-0.262-0.248-0.577-0.373-0.946-0.373c-0.399,0-0.722,0.129-0.968,0.394
				c-0.248,0.262-0.377,0.59-0.389,0.99h-0.75c0.012-0.596,0.214-1.091,0.606-1.488c0.394-0.395,0.884-0.593,1.474-0.593
				c0.577,0,1.074,0.188,1.491,0.568c0.417,0.376,0.625,0.851,0.625,1.423c0,0.554-0.17,1.028-0.509,1.419L40.765,150.545z"/>
			<path fill="#231F20" d="M46.888,151.242v-7.017l5.25,5.5v-5.214h0.75v7.034l-5.249-5.493v5.189H46.888z"/>
			<path fill="#231F20" d="M56.075,151.242v-6.73h1.268c0.56,0,1.044,0.056,1.455,0.167c0.41,0.115,0.801,0.328,1.17,0.642
				c0.744,0.646,1.116,1.5,1.116,2.563c0,1.019-0.366,1.855-1.099,2.511c-0.375,0.332-0.766,0.559-1.173,0.673
				c-0.408,0.115-0.903,0.175-1.486,0.175H56.075z M56.825,150.545h0.545c0.458,0,0.855-0.049,1.192-0.146
				c0.336-0.098,0.646-0.282,0.933-0.551c0.56-0.523,0.84-1.179,0.84-1.971c0-0.833-0.292-1.507-0.875-2.02
				c-0.285-0.254-0.594-0.429-0.924-0.516c-0.33-0.091-0.718-0.136-1.165-0.136h-0.545V150.545z"/>
			<path fill="#231F20" d="M71.511,145.206h-2.313v2.001h2.242v0.694h-2.242v3.341h-0.75v-6.73h3.062V145.206z"/>
			<path fill="#231F20" d="M75.251,144.511v6.033h1.857v0.697h-2.607v-6.73H75.251z"/>
			<path fill="#231F20" d="M80.327,145.415c0.687-0.681,1.514-1.021,2.477-1.021c0.964,0,1.791,0.341,2.478,1.021
				c0.688,0.684,1.032,1.507,1.032,2.469c0,0.966-0.344,1.786-1.032,2.459c-0.687,0.676-1.513,1.015-2.478,1.015
				c-0.963,0-1.79-0.339-2.477-1.015c-0.688-0.673-1.031-1.493-1.031-2.459C79.295,146.922,79.639,146.098,80.327,145.415z
				 M84.759,145.906c-0.535-0.544-1.188-0.815-1.956-0.815c-0.767,0-1.419,0.271-1.955,0.815c-0.536,0.544-0.804,1.2-0.804,1.971
				c0,0.76,0.269,1.416,0.808,1.963c0.539,0.548,1.189,0.82,1.95,0.82c0.762,0,1.412-0.272,1.951-0.82
				c0.539-0.547,0.808-1.203,0.808-1.963C85.563,147.106,85.294,146.45,84.759,145.906z"/>
			<path fill="#231F20" d="M89.808,145.415c0.687-0.681,1.513-1.021,2.477-1.021c0.964,0,1.791,0.341,2.478,1.021
				c0.688,0.684,1.031,1.507,1.031,2.469c0,0.966-0.343,1.786-1.031,2.459c-0.687,0.676-1.514,1.015-2.478,1.015
				c-0.963,0-1.79-0.339-2.477-1.015c-0.688-0.673-1.031-1.493-1.031-2.459C88.777,146.922,89.12,146.098,89.808,145.415z
				 M94.24,145.906c-0.535-0.544-1.187-0.815-1.956-0.815c-0.767,0-1.419,0.271-1.955,0.815c-0.536,0.544-0.804,1.2-0.804,1.971
				c0,0.76,0.27,1.416,0.808,1.963c0.539,0.548,1.189,0.82,1.95,0.82c0.762,0,1.413-0.272,1.952-0.82
				c0.539-0.547,0.808-1.203,0.808-1.963C95.044,147.106,94.776,146.45,94.24,145.906z"/>
			<path fill="#231F20" d="M99.347,148.285v2.957h-0.75v-6.73h0.973c0.345,0,0.655,0.024,0.929,0.08
				c0.274,0.053,0.533,0.143,0.777,0.275c0.244,0.129,0.432,0.324,0.562,0.575c0.131,0.255,0.197,0.562,0.197,0.925
				c0,0.516-0.152,0.944-0.456,1.286c-0.303,0.339-0.714,0.53-1.232,0.569l2.143,3.02h-0.92l-2.036-2.957H99.347z M99.347,145.206
				v2.42h0.233c0.238,0,0.447-0.014,0.629-0.046c0.182-0.027,0.36-0.083,0.535-0.163c0.175-0.081,0.31-0.206,0.402-0.37
				c0.092-0.167,0.138-0.377,0.138-0.628c0-0.213-0.032-0.397-0.098-0.547c-0.065-0.153-0.146-0.272-0.242-0.356
				c-0.095-0.087-0.223-0.153-0.384-0.202c-0.16-0.049-0.313-0.076-0.459-0.091c-0.146-0.01-0.323-0.017-0.532-0.017H99.347z"/>
			<path fill="#231F20" d="M105.891,150.259l0.661,0.233l-1.009,2.284l-0.482-0.195L105.891,150.259z"/>
			<path fill="#231F20" d="M114.335,151.242v-7.017l5.25,5.5v-5.214h0.75v7.034l-5.25-5.493v5.189H114.335z"/>
			<path fill="#231F20" d="M124.29,144.511v6.73h-0.75v-6.73H124.29z"/>
			<path fill="#231F20" d="M128.191,148.285v2.957h-0.75v-6.73h0.973c0.345,0,0.655,0.024,0.929,0.08
				c0.274,0.053,0.533,0.143,0.777,0.275c0.244,0.129,0.432,0.324,0.562,0.575c0.13,0.255,0.197,0.562,0.197,0.925
				c0,0.516-0.152,0.944-0.456,1.286c-0.303,0.339-0.714,0.53-1.232,0.569l2.143,3.02h-0.92l-2.036-2.957H128.191z M128.191,145.206
				v2.42h0.233c0.238,0,0.447-0.014,0.629-0.046c0.182-0.027,0.36-0.083,0.535-0.163c0.175-0.081,0.31-0.206,0.402-0.37
				c0.092-0.167,0.138-0.377,0.138-0.628c0-0.213-0.032-0.397-0.098-0.547c-0.065-0.153-0.146-0.272-0.242-0.356
				c-0.095-0.087-0.223-0.153-0.383-0.202c-0.161-0.049-0.314-0.076-0.459-0.091c-0.146-0.01-0.324-0.017-0.532-0.017H128.191z"/>
			<path fill="#231F20" d="M133.575,151.242l1.366-7.117l2.446,5.652l2.455-5.652l1.365,7.117h-0.767l-0.867-4.555h-0.018
				l-2.169,4.83l-2.161-4.83h-0.018l-0.866,4.555H133.575z"/>
			<path fill="#231F20" d="M147.735,149.331h-2.875l-0.812,1.911h-0.822l3.107-7.055l3.026,7.055h-0.83L147.735,149.331z
				 M147.44,148.634l-1.125-2.696l-1.151,2.696H147.44z"/>
			<path fill="#231F20" d="M152.625,144.511v6.033h1.857v0.697h-2.606v-6.73H152.625z"/>
			<path fill="#231F20" d="M161.544,151.242v-6.73h1.107c0.672,0,1.215,0.14,1.629,0.426c0.413,0.285,0.62,0.749,0.62,1.395
				c0,0.582-0.22,1.019-0.66,1.312c0.392,0.094,0.704,0.303,0.933,0.624c0.229,0.32,0.344,0.687,0.344,1.099
				c0,0.638-0.223,1.108-0.669,1.416c-0.447,0.307-1.027,0.46-1.741,0.46H161.544z M162.294,145.206v2.267h0.286
				c0.25,0,0.455-0.011,0.617-0.035c0.16-0.024,0.321-0.069,0.482-0.143c0.161-0.07,0.279-0.188,0.356-0.349
				c0.078-0.161,0.116-0.366,0.116-0.614c0-0.464-0.126-0.768-0.379-0.91c-0.252-0.143-0.647-0.216-1.183-0.216H162.294z
				 M162.294,148.117v2.428h0.75c1.148,0,1.723-0.412,1.723-1.231c0-0.799-0.606-1.196-1.821-1.196H162.294z"/>
			<path fill="#231F20" d="M169.151,144.511v6.033h1.857v0.697h-2.607v-6.73H169.151z"/>
			<path fill="#231F20" d="M173.535,151.242v-6.73h1.268c0.56,0,1.044,0.056,1.455,0.167c0.411,0.115,0.801,0.328,1.17,0.642
				c0.744,0.646,1.116,1.5,1.116,2.563c0,1.019-0.366,1.855-1.098,2.511c-0.375,0.332-0.767,0.559-1.174,0.673
				c-0.408,0.115-0.903,0.175-1.486,0.175H173.535z M174.285,150.545h0.545c0.458,0,0.855-0.049,1.192-0.146
				s0.647-0.282,0.933-0.551c0.56-0.523,0.84-1.179,0.84-1.971c0-0.833-0.292-1.507-0.875-2.02
				c-0.285-0.254-0.594-0.429-0.924-0.516c-0.33-0.091-0.718-0.136-1.165-0.136h-0.545V150.545z"/>
			<path fill="#231F20" d="M184.828,147.859h2.803c0.012,0.509-0.03,0.952-0.125,1.318c-0.095,0.37-0.286,0.722-0.571,1.053
				c-0.303,0.359-0.677,0.635-1.12,0.834c-0.444,0.195-0.901,0.293-1.371,0.293c-0.947,0-1.76-0.342-2.442-1.021
				c-0.682-0.681-1.022-1.496-1.022-2.441c0-0.966,0.342-1.789,1.026-2.473c0.684-0.688,1.512-1.028,2.482-1.028
				c1.154,0,2.104,0.484,2.848,1.457l-0.545,0.506c-0.602-0.844-1.372-1.266-2.312-1.266c-0.762,0-1.411,0.275-1.947,0.83
				c-0.535,0.554-0.803,1.213-0.803,1.98c0,0.732,0.261,1.367,0.785,1.904c0.255,0.254,0.554,0.46,0.893,0.62
				c0.339,0.157,0.678,0.234,1.017,0.234c0.613,0,1.167-0.199,1.661-0.601c0.494-0.404,0.741-0.902,0.741-1.506h-2V147.859z"/>
			<path fill="#231F20" d="M191.148,150.259l0.661,0.233l-1.009,2.284l-0.482-0.195L191.148,150.259z"/>
			<path fill="#231F20" d="M199.594,151.242v-7.017l5.25,5.5v-5.214h0.75v7.034l-5.249-5.493v5.189H199.594z"/>
			<path fill="#231F20" d="M212.664,149.331h-2.875l-0.812,1.911h-0.82l3.106-7.055l3.025,7.055h-0.83L212.664,149.331z
				 M212.37,148.634l-1.126-2.696l-1.151,2.696H212.37z"/>
			<path fill="#231F20" d="M217.556,148.285v2.957h-0.749v-6.73h0.973c0.345,0,0.655,0.024,0.93,0.08
				c0.273,0.053,0.531,0.143,0.775,0.275c0.244,0.129,0.432,0.324,0.562,0.575c0.131,0.255,0.197,0.562,0.197,0.925
				c0,0.516-0.151,0.944-0.457,1.286c-0.303,0.339-0.713,0.53-1.23,0.569l2.143,3.02h-0.918l-2.037-2.957H217.556z M217.556,145.206
				v2.42h0.233c0.237,0,0.447-0.014,0.63-0.046c0.181-0.027,0.36-0.083,0.535-0.163c0.175-0.081,0.311-0.206,0.401-0.37
				c0.094-0.167,0.139-0.377,0.139-0.628c0-0.213-0.033-0.397-0.098-0.547c-0.065-0.153-0.146-0.272-0.242-0.356
				c-0.096-0.087-0.223-0.153-0.383-0.202s-0.314-0.076-0.459-0.091c-0.146-0.01-0.324-0.017-0.533-0.017H217.556z"/>
			<path fill="#231F20" d="M224.199,144.511v6.73h-0.75v-6.73H224.199z"/>
			<path fill="#231F20" d="M226.859,151.242l1.365-7.117l2.447,5.652l2.455-5.652l1.365,7.117h-0.768l-0.866-4.555h-0.018
				l-2.169,4.83l-2.162-4.83h-0.018l-0.865,4.555H226.859z"/>
			<path fill="#231F20" d="M241.019,149.331h-2.875l-0.812,1.911h-0.822l3.107-7.055l3.026,7.055h-0.829L241.019,149.331z
				 M240.725,148.634l-1.125-2.696l-1.151,2.696H240.725z"/>
			<path fill="#231F20" d="M245.205,151.242v-7.017l5.25,5.5v-5.214h0.75v7.034l-5.248-5.493v5.189H245.205z"/>
			<path fill="#231F20" d="M259.676,148.296v2.946h-0.75v-6.73h1.109c0.368,0,0.684,0.021,0.945,0.06
				c0.262,0.041,0.502,0.143,0.724,0.296c0.244,0.171,0.431,0.395,0.563,0.666c0.129,0.269,0.195,0.562,0.195,0.868
				c0,0.607-0.213,1.092-0.643,1.447c-0.362,0.297-0.896,0.447-1.599,0.447H259.676z M259.676,145.206v2.392h0.502
				c1.022,0,1.535-0.404,1.535-1.213c0-0.213-0.035-0.395-0.104-0.544c-0.068-0.15-0.154-0.266-0.26-0.346
				c-0.103-0.08-0.236-0.143-0.404-0.185c-0.168-0.046-0.32-0.073-0.464-0.088c-0.144-0.01-0.319-0.017-0.526-0.017H259.676z"/>
			<path fill="#231F20" d="M265.895,145.415c0.687-0.681,1.513-1.021,2.477-1.021c0.965,0,1.791,0.341,2.479,1.021
				c0.688,0.684,1.032,1.507,1.032,2.469c0,0.966-0.345,1.786-1.032,2.459c-0.688,0.676-1.514,1.015-2.479,1.015
				c-0.964,0-1.79-0.339-2.477-1.015c-0.688-0.673-1.031-1.493-1.031-2.459C264.863,146.922,265.207,146.098,265.895,145.415z
				 M270.326,145.906c-0.533-0.544-1.186-0.815-1.955-0.815c-0.767,0-1.419,0.271-1.954,0.815c-0.537,0.544-0.804,1.2-0.804,1.971
				c0,0.76,0.27,1.416,0.807,1.963c0.541,0.548,1.189,0.82,1.951,0.82c0.763,0,1.413-0.272,1.951-0.82
				c0.539-0.547,0.81-1.203,0.81-1.963C271.132,147.106,270.863,146.45,270.326,145.906z"/>
			<path fill="#231F20" d="M275.453,144.511v6.73h-0.75v-6.73H275.453z"/>
			<path fill="#231F20" d="M278.646,151.242v-7.017l5.252,5.5v-5.214h0.75v7.034l-5.25-5.493v5.189H278.646z"/>
			<path fill="#231F20" d="M289.62,145.206v6.036h-0.75v-6.036h-1.625v-0.694h4.018v0.694H289.62z"/>
			<path fill="#231F20" d="M293.592,150.259l0.661,0.233l-1.008,2.284l-0.482-0.195L293.592,150.259z"/>
			<path fill="#231F20" d="M301.503,151.242l1.365-7.117l2.446,5.652l2.456-5.652l1.365,7.117h-0.768l-0.866-4.555h-0.018
				l-2.17,4.83l-2.162-4.83h-0.017l-0.865,4.555H301.503z"/>
			<path fill="#231F20" d="M312.51,144.511v4.007c0,0.255,0.003,0.436,0.005,0.544s0.028,0.262,0.075,0.461
				c0.049,0.198,0.12,0.365,0.216,0.495c0.144,0.195,0.34,0.352,0.593,0.467c0.253,0.119,0.508,0.175,0.764,0.175
				c0.244,0,0.485-0.053,0.728-0.161c0.24-0.104,0.438-0.251,0.595-0.436c0.101-0.126,0.178-0.279,0.229-0.46
				c0.056-0.182,0.084-0.335,0.091-0.457c0.006-0.122,0.009-0.293,0.009-0.52c0-0.049,0-0.084,0-0.108v-4.007h0.75v4.213
				c0,0.429-0.037,0.781-0.111,1.06c-0.075,0.283-0.234,0.552-0.479,0.806c-0.476,0.513-1.079,0.768-1.812,0.768
				c-0.69,0-1.271-0.23-1.74-0.688c-0.269-0.254-0.446-0.533-0.533-0.83c-0.086-0.296-0.129-0.669-0.129-1.115v-4.213H312.51z"/>
			<path fill="#231F20" d="M319.188,151.242l1.367-7.117l2.446,5.652l2.455-5.652l1.365,7.117h-0.767l-0.867-4.555h-0.018
				l-2.169,4.83l-2.16-4.83h-0.018l-0.866,4.555H319.188z"/>
			<path fill="#231F20" d="M329.465,151.242v-6.73h1.105c0.673,0,1.217,0.14,1.631,0.426c0.413,0.285,0.618,0.749,0.618,1.395
				c0,0.582-0.22,1.019-0.659,1.312c0.393,0.094,0.705,0.303,0.934,0.624c0.229,0.32,0.343,0.687,0.343,1.099
				c0,0.638-0.223,1.108-0.669,1.416c-0.446,0.307-1.027,0.46-1.74,0.46H329.465z M330.215,145.206v2.267h0.286
				c0.249,0,0.453-0.011,0.615-0.035c0.16-0.024,0.32-0.069,0.483-0.143c0.16-0.07,0.278-0.188,0.355-0.349
				c0.076-0.161,0.115-0.366,0.115-0.614c0-0.464-0.126-0.768-0.379-0.91s-0.646-0.216-1.184-0.216H330.215z M330.215,148.117v2.428
				h0.75c1.146,0,1.723-0.412,1.723-1.231c0-0.799-0.607-1.196-1.82-1.196H330.215z"/>
			<path fill="#231F20" d="M340.204,149.331h-2.875l-0.812,1.911h-0.821l3.107-7.055l3.024,7.055h-0.83L340.204,149.331z
				 M339.909,148.634l-1.126-2.696l-1.151,2.696H339.909z"/>
			<path fill="#231F20" d="M345.114,144.511v6.73h-0.75v-6.73H345.114z"/>
			<path fill="#231F20" d="M347.604,148.759h1.831v0.663h-1.831V148.759z"/>
			<path fill="#231F20" d="M360.014,149.457h0.83v0.693h-0.83v1.092h-0.749v-1.092h-3.446l4.178-6.016h0.018V149.457z
				 M359.265,149.457v-3.045h-0.018l-2.117,3.045H359.265z"/>
			<path fill="#231F20" d="M364.71,144.738c0.32-0.23,0.685-0.345,1.09-0.345c0.404,0,0.767,0.114,1.088,0.345
				c0.32,0.23,0.575,0.523,0.76,0.89c0.184,0.362,0.325,0.735,0.419,1.123c0.094,0.387,0.143,0.764,0.143,1.133
				c0,0.422-0.056,0.837-0.165,1.245c-0.11,0.408-0.264,0.777-0.459,1.112c-0.197,0.335-0.451,0.604-0.764,0.81
				c-0.313,0.205-0.653,0.307-1.021,0.307c-0.37,0-0.712-0.102-1.023-0.307c-0.312-0.206-0.567-0.475-0.763-0.81
				c-0.196-0.335-0.35-0.704-0.46-1.112c-0.111-0.408-0.166-0.823-0.166-1.245c0-0.369,0.048-0.746,0.144-1.133
				c0.096-0.388,0.235-0.761,0.42-1.123C364.136,145.261,364.387,144.969,364.71,144.738z M366.588,145.393
				c-0.229-0.202-0.492-0.303-0.788-0.303c-0.3,0-0.562,0.101-0.792,0.303c-0.229,0.203-0.404,0.457-0.526,0.764
				c-0.122,0.308-0.211,0.61-0.269,0.914c-0.056,0.304-0.08,0.586-0.075,0.848c0.005,0.269,0.04,0.547,0.1,0.837
				c0.06,0.289,0.146,0.582,0.267,0.879c0.12,0.296,0.291,0.544,0.518,0.735c0.227,0.195,0.485,0.29,0.778,0.29
				c0.289,0,0.549-0.095,0.775-0.29c0.226-0.191,0.399-0.439,0.519-0.735c0.118-0.297,0.209-0.59,0.269-0.879
				c0.059-0.29,0.09-0.568,0.098-0.837c0.005-0.262-0.021-0.544-0.077-0.848s-0.146-0.606-0.269-0.914
				C366.992,145.85,366.818,145.596,366.588,145.393z"/>
			<path fill="#231F20" d="M371.995,144.738c0.32-0.23,0.685-0.345,1.09-0.345c0.404,0,0.767,0.114,1.088,0.345
				c0.32,0.23,0.575,0.523,0.76,0.89c0.184,0.362,0.324,0.735,0.419,1.123c0.094,0.387,0.143,0.764,0.143,1.133
				c0,0.422-0.056,0.837-0.165,1.245c-0.11,0.408-0.264,0.777-0.459,1.112c-0.197,0.335-0.451,0.604-0.764,0.81
				c-0.313,0.205-0.654,0.307-1.021,0.307c-0.37,0-0.712-0.102-1.023-0.307c-0.312-0.206-0.567-0.475-0.763-0.81
				c-0.197-0.335-0.351-0.704-0.46-1.112c-0.111-0.408-0.166-0.823-0.166-1.245c0-0.369,0.048-0.746,0.144-1.133
				c0.096-0.388,0.235-0.761,0.42-1.123C371.421,145.261,371.672,144.969,371.995,144.738z M373.873,145.393
				c-0.229-0.202-0.492-0.303-0.788-0.303c-0.3,0-0.562,0.101-0.792,0.303c-0.229,0.203-0.404,0.457-0.526,0.764
				c-0.122,0.308-0.211,0.61-0.269,0.914c-0.056,0.304-0.08,0.586-0.075,0.848c0.005,0.269,0.04,0.547,0.1,0.837
				c0.06,0.289,0.146,0.582,0.267,0.879c0.12,0.296,0.291,0.544,0.518,0.735c0.227,0.195,0.485,0.29,0.778,0.29
				c0.289,0,0.549-0.095,0.775-0.29c0.226-0.191,0.399-0.439,0.519-0.735c0.118-0.297,0.209-0.59,0.268-0.879
				c0.06-0.29,0.091-0.568,0.098-0.837c0.006-0.262-0.021-0.544-0.076-0.848s-0.146-0.606-0.269-0.914
				C374.277,145.85,374.103,145.596,373.873,145.393z"/>
			<path fill="#231F20" d="M383.815,144.738c0.32-0.23,0.684-0.345,1.088-0.345s0.769,0.114,1.09,0.345
				c0.322,0.23,0.573,0.523,0.759,0.89c0.185,0.362,0.324,0.735,0.42,1.123c0.096,0.387,0.143,0.764,0.143,1.133
				c0,0.422-0.054,0.837-0.165,1.245c-0.11,0.408-0.264,0.777-0.461,1.112c-0.195,0.335-0.449,0.604-0.764,0.81
				c-0.311,0.205-0.651,0.307-1.021,0.307c-0.368,0-0.708-0.102-1.021-0.307c-0.312-0.206-0.567-0.475-0.764-0.81
				c-0.195-0.335-0.35-0.704-0.459-1.112c-0.11-0.408-0.166-0.823-0.166-1.245c0-0.369,0.049-0.746,0.144-1.133
				c0.094-0.388,0.235-0.761,0.418-1.123C383.24,145.261,383.494,144.969,383.815,144.738z M385.695,145.393
				c-0.23-0.202-0.494-0.303-0.792-0.303c-0.297,0-0.562,0.101-0.788,0.303c-0.23,0.203-0.406,0.457-0.526,0.764
				c-0.122,0.308-0.213,0.61-0.269,0.914c-0.058,0.304-0.084,0.586-0.077,0.848c0.007,0.269,0.038,0.547,0.098,0.837
				c0.06,0.289,0.15,0.582,0.269,0.879c0.119,0.296,0.293,0.544,0.518,0.735c0.226,0.195,0.485,0.29,0.776,0.29
				c0.293,0,0.551-0.095,0.777-0.29c0.227-0.191,0.397-0.439,0.519-0.735c0.118-0.297,0.207-0.59,0.267-0.879
				c0.06-0.29,0.094-0.568,0.1-0.837c0.005-0.262-0.02-0.544-0.075-0.848c-0.058-0.304-0.146-0.606-0.269-0.914
				C386.1,145.85,385.924,145.596,385.695,145.393z"/>
			<path fill="#231F20" d="M391.323,150.545h2.839v0.697h-4.355l3.15-3.725c0.304-0.362,0.455-0.735,0.455-1.123
				c0-0.369-0.131-0.68-0.394-0.931c-0.262-0.248-0.575-0.373-0.945-0.373c-0.399,0-0.722,0.129-0.97,0.394
				c-0.247,0.262-0.376,0.59-0.387,0.99h-0.75c0.011-0.596,0.213-1.091,0.606-1.488c0.393-0.395,0.883-0.593,1.472-0.593
				c0.579,0,1.074,0.188,1.493,0.568c0.415,0.376,0.624,0.851,0.624,1.423c0,0.554-0.171,1.028-0.509,1.419L391.323,150.545z"/>
			<path fill="#231F20" d="M399.25,145.206h-1.115l0.394-0.694H400v6.73h-0.75V145.206z"/>
			<path fill="#231F20" d="M132.664,166.632v6.037h-0.75v-6.037h-1.625v-0.694h4.018v0.694H132.664z"/>
			<path fill="#231F20" d="M136.86,172.669v-6.731h3.491v0.694h-2.741v2.002h2.661v0.693h-2.661v2.644h2.741v0.698H136.86z"/>
			<path fill="#231F20" d="M144.163,165.937v6.033h1.857v0.698h-2.606v-6.731H144.163z"/>
			<path fill="#231F20" d="M154.805,168.221h0.696v1.813h1.812v0.694h-1.812v1.813h-0.696v-1.813h-1.812v-0.694h1.812V168.221z"/>
			<path fill="#231F20" d="M161.875,172.783l-0.562-0.383l1.553-2.135l-0.017-0.018c-0.196,0.06-0.39,0.091-0.581,0.091
				c-0.613,0-1.129-0.22-1.548-0.652c-0.42-0.436-0.629-0.959-0.629-1.572c0-0.635,0.228-1.179,0.683-1.625s1.002-0.67,1.638-0.67
				c0.638,0,1.183,0.224,1.638,0.67s0.684,0.99,0.684,1.625c0,0.502-0.208,1.039-0.625,1.618L161.875,172.783z M163.522,166.977
				c-0.307-0.308-0.677-0.461-1.112-0.461c-0.434,0-0.805,0.153-1.111,0.461c-0.306,0.307-0.459,0.676-0.459,1.108
				c0,0.437,0.151,0.803,0.455,1.105c0.303,0.3,0.676,0.45,1.116,0.45c0.435,0,0.805-0.15,1.112-0.45
				c0.307-0.303,0.459-0.669,0.459-1.105C163.981,167.653,163.829,167.284,163.522,166.977z"/>
			<path fill="#231F20" d="M169.499,166.632h-1.116l0.392-0.694h1.474v6.731h-0.75V166.632z"/>
			<path fill="#231F20" d="M180.677,171.97h2.838v0.698h-4.356l3.152-3.725c0.303-0.363,0.455-0.736,0.455-1.123
				c0-0.37-0.131-0.681-0.394-0.932c-0.261-0.247-0.577-0.373-0.946-0.373c-0.399,0-0.722,0.129-0.969,0.395
				c-0.248,0.262-0.376,0.589-0.389,0.99h-0.75c0.013-0.597,0.215-1.092,0.607-1.489c0.393-0.394,0.884-0.593,1.474-0.593
				c0.577,0,1.074,0.188,1.491,0.568c0.417,0.377,0.625,0.851,0.625,1.423c0,0.555-0.17,1.029-0.509,1.419L180.677,171.97z"/>
			<path fill="#231F20" d="M187.962,171.97h2.839v0.698h-4.356l3.151-3.725c0.304-0.363,0.455-0.736,0.455-1.123
				c0-0.37-0.13-0.681-0.393-0.932c-0.261-0.247-0.577-0.373-0.946-0.373c-0.399,0-0.722,0.129-0.969,0.395
				c-0.248,0.262-0.376,0.589-0.389,0.99h-0.75c0.012-0.597,0.215-1.092,0.607-1.489c0.393-0.394,0.884-0.593,1.474-0.593
				c0.577,0,1.074,0.188,1.491,0.568c0.417,0.377,0.625,0.851,0.625,1.423c0,0.555-0.17,1.029-0.509,1.419L187.962,171.97z"/>
			<path fill="#231F20" d="M196.604,165.819l0.562,0.422l-1.554,2.089l0.019,0.018c0.184-0.066,0.381-0.098,0.589-0.098
				c0.607,0,1.122,0.216,1.544,0.648c0.423,0.437,0.634,0.959,0.634,1.573c0,0.642-0.228,1.189-0.683,1.639
				c-0.455,0.45-1.001,0.673-1.638,0.673c-0.637,0-1.183-0.227-1.638-0.68c-0.455-0.45-0.683-0.994-0.683-1.621
				c0-0.506,0.205-1.047,0.616-1.618L196.604,165.819z M194.966,171.622c0.307,0.311,0.677,0.464,1.111,0.464
				s0.805-0.153,1.112-0.464c0.306-0.307,0.459-0.684,0.459-1.123c0-0.436-0.154-0.802-0.459-1.102
				c-0.307-0.304-0.678-0.453-1.112-0.453c-0.44,0-0.812,0.149-1.116,0.453c-0.304,0.3-0.455,0.666-0.455,1.102
				C194.506,170.938,194.659,171.315,194.966,171.622z"/>
			<path fill="#231F20" d="M203.889,165.819l0.562,0.422l-1.554,2.089l0.019,0.018c0.185-0.066,0.381-0.098,0.589-0.098
				c0.607,0,1.123,0.216,1.545,0.648c0.424,0.437,0.633,0.959,0.633,1.573c0,0.642-0.227,1.189-0.682,1.639
				c-0.455,0.45-1.002,0.673-1.639,0.673s-1.184-0.227-1.639-0.68c-0.455-0.45-0.682-0.994-0.682-1.621
				c0-0.506,0.205-1.047,0.615-1.618L203.889,165.819z M202.25,171.622c0.307,0.311,0.678,0.464,1.111,0.464
				s0.805-0.153,1.111-0.464c0.306-0.307,0.459-0.684,0.459-1.123c0-0.436-0.153-0.802-0.459-1.102
				c-0.307-0.304-0.678-0.453-1.111-0.453c-0.44,0-0.812,0.149-1.115,0.453c-0.305,0.3-0.455,0.666-0.455,1.102
				C201.791,170.938,201.943,171.315,202.25,171.622z"/>
			<path fill="#231F20" d="M210.352,169.481v-0.698c0.41-0.017,0.735-0.104,0.973-0.261c0.238-0.161,0.359-0.437,0.359-0.827
				c0-0.359-0.11-0.642-0.328-0.857c-0.217-0.213-0.5-0.321-0.852-0.321c-0.327,0-0.586,0.098-0.777,0.293
				c-0.189,0.199-0.3,0.461-0.331,0.788h-0.739c0.053-0.547,0.242-0.979,0.566-1.301c0.324-0.317,0.757-0.478,1.299-0.478
				c0.548,0,1.003,0.171,1.365,0.509c0.365,0.339,0.546,0.785,0.546,1.333c0,0.303-0.078,0.589-0.233,0.861
				c-0.153,0.269-0.366,0.474-0.633,0.61c0.315,0.143,0.555,0.362,0.719,0.658c0.164,0.301,0.245,0.632,0.245,0.994
				c0,0.583-0.202,1.061-0.606,1.437c-0.404,0.374-0.9,0.562-1.482,0.562c-0.555,0-1.025-0.171-1.41-0.516
				c-0.387-0.346-0.584-0.795-0.59-1.35h0.73c0.02,0.338,0.154,0.621,0.403,0.841c0.249,0.219,0.548,0.327,0.893,0.327
				c0.368,0,0.681-0.129,0.933-0.391c0.253-0.262,0.381-0.582,0.381-0.955c0-0.419-0.133-0.736-0.398-0.952
				C211.118,169.571,210.774,169.467,210.352,169.481z"/>
			<path fill="#231F20" d="M219.352,166.632h-3.679v-0.694h4.964l-4.518,6.846l-0.59-0.349L219.352,166.632z"/>
			<path fill="#231F20" d="M227.172,166.632h-2.151l-0.438,1.437l0.401-0.034c0.655,0,1.192,0.227,1.61,0.68
				c0.421,0.45,0.632,1.008,0.632,1.667c0,0.69-0.239,1.266-0.715,1.719c-0.477,0.457-1.064,0.684-1.76,0.684
				c-0.441,0-0.837-0.104-1.191-0.317c-0.355-0.209-0.645-0.505-0.871-0.889l0.6-0.426c0.153,0.279,0.363,0.506,0.627,0.677
				c0.266,0.175,0.553,0.258,0.862,0.258c0.495,0,0.901-0.164,1.22-0.488c0.318-0.327,0.479-0.739,0.479-1.234
				c0-0.471-0.162-0.857-0.483-1.168c-0.322-0.311-0.72-0.464-1.196-0.464c-0.409,0-0.836,0.143-1.277,0.429l0.975-3.223h2.678
				V166.632z"/>
			<path fill="#231F20" d="M233.922,166.632h-3.68v-0.694h4.965l-4.518,6.846l-0.59-0.349L233.922,166.632z"/>
			<path fill="#231F20" d="M240.314,165.819l0.561,0.422l-1.553,2.089l0.02,0.018c0.183-0.066,0.379-0.098,0.589-0.098
				c0.606,0,1.121,0.216,1.543,0.648c0.424,0.437,0.634,0.959,0.634,1.573c0,0.642-0.228,1.189-0.683,1.639
				c-0.455,0.45-1.003,0.673-1.638,0.673c-0.638,0-1.184-0.227-1.639-0.68c-0.455-0.45-0.684-0.994-0.684-1.621
				c0-0.506,0.206-1.047,0.617-1.618L240.314,165.819z M238.676,171.622c0.307,0.311,0.676,0.464,1.111,0.464
				c0.434,0,0.805-0.153,1.111-0.464c0.305-0.307,0.459-0.684,0.459-1.123c0-0.436-0.154-0.802-0.459-1.102
				c-0.307-0.304-0.678-0.453-1.111-0.453c-0.44,0-0.812,0.149-1.115,0.453c-0.304,0.3-0.457,0.666-0.457,1.102
				C238.215,170.938,238.368,171.315,238.676,171.622z"/>
			<path fill="#231F20" d="M246.885,166.632h-1.116l0.391-0.694h1.476v6.731h-0.75V166.632z"/>
			<path fill="#231F20" d="M255.98,165.303l0.588,0.268l-4.185,8.499l-0.582-0.269L255.98,165.303z"/>
			<path fill="#231F20" d="M262.65,166.632h-3.679v-0.694h4.964l-4.518,6.846l-0.59-0.349L262.65,166.632z"/>
			<path fill="#231F20" d="M268.328,166.632h-1.116l0.393-0.694h1.474v6.731h-0.75V166.632z"/>
		</g>
	</g>
	<g>
		<g>
			<path fill="#231F20" d="M137.207,266.98h-2.875l-0.812,1.911h-0.822l3.107-7.055l3.026,7.055h-0.83L137.207,266.98z
				 M136.913,266.283l-1.125-2.696l-1.151,2.696H136.913z"/>
			<path fill="#231F20" d="M142.099,265.944v2.947h-0.75v-6.73h1.107c0.369,0,0.685,0.021,0.946,0.059
				c0.263,0.042,0.503,0.144,0.724,0.297c0.244,0.171,0.432,0.395,0.562,0.666c0.131,0.269,0.196,0.562,0.196,0.868
				c0,0.607-0.214,1.092-0.643,1.447c-0.363,0.297-0.896,0.446-1.598,0.446H142.099z M142.099,262.854v2.393h0.5
				c1.023,0,1.535-0.404,1.535-1.214c0-0.212-0.034-0.394-0.103-0.544c-0.068-0.149-0.154-0.265-0.259-0.345
				c-0.104-0.08-0.239-0.144-0.406-0.185c-0.167-0.046-0.321-0.073-0.464-0.088c-0.143-0.01-0.318-0.018-0.526-0.018H142.099z"/>
			<path fill="#231F20" d="M148.375,265.944v2.947h-0.75v-6.73h1.107c0.369,0,0.685,0.021,0.946,0.059
				c0.263,0.042,0.503,0.144,0.724,0.297c0.244,0.171,0.432,0.395,0.562,0.666c0.131,0.269,0.196,0.562,0.196,0.868
				c0,0.607-0.214,1.092-0.643,1.447c-0.363,0.297-0.896,0.446-1.598,0.446H148.375z M148.375,262.854v2.393h0.5
				c1.023,0,1.535-0.404,1.535-1.214c0-0.212-0.034-0.394-0.103-0.544c-0.068-0.149-0.154-0.265-0.259-0.345
				c-0.104-0.08-0.239-0.144-0.406-0.185c-0.167-0.046-0.321-0.073-0.464-0.088c-0.143-0.01-0.318-0.018-0.526-0.018H148.375z"/>
			<path fill="#231F20" d="M157.937,264.383l0.125-0.545h0.634l-0.446,2.277c-0.053,0.146-0.079,0.311-0.076,0.488
				c0.002,0.182,0.07,0.269,0.2,0.269c0.215,0,0.435-0.181,0.661-0.544c0.227-0.362,0.351-0.75,0.375-1.161
				c0.042-0.76-0.173-1.363-0.646-1.81c-0.474-0.446-1.085-0.67-1.834-0.67c-0.792,0-1.446,0.269-1.964,0.806
				c-0.518,0.54-0.777,1.217-0.777,2.033c0,0.844,0.276,1.527,0.83,2.051c0.554,0.526,1.242,0.788,2.063,0.788
				c0.756,0,1.324-0.14,1.705-0.412l0.624,0.457c-0.773,0.397-1.573,0.597-2.401,0.597c-0.97,0-1.79-0.332-2.459-0.994
				c-0.669-0.666-1.004-1.492-1.004-2.486c0-0.99,0.329-1.817,0.986-2.483c0.657-0.666,1.465-1.001,2.423-1.001
				c0.828,0,1.527,0.259,2.099,0.768c0.666,0.579,1,1.259,1,2.047c0,0.768-0.185,1.392-0.554,1.873
				c-0.202,0.269-0.425,0.467-0.669,0.593c-0.244,0.129-0.479,0.188-0.705,0.174c-0.268-0.01-0.429-0.191-0.482-0.544
				c-0.363,0.363-0.768,0.544-1.214,0.544c-0.398,0-0.748-0.16-1.049-0.48c-0.301-0.321-0.451-0.705-0.451-1.151
				c0-0.558,0.169-1.05,0.509-1.472c0.339-0.425,0.776-0.635,1.312-0.635C157.219,263.758,157.615,263.968,157.937,264.383z
				 M155.553,265.802c0,0.313,0.084,0.572,0.254,0.771c0.17,0.202,0.406,0.3,0.71,0.3c0.363,0,0.641-0.125,0.834-0.373
				c0.193-0.251,0.313-0.562,0.362-0.931c0.041-0.356-0.023-0.646-0.192-0.868c-0.17-0.224-0.41-0.335-0.719-0.335
				c-0.345,0-0.64,0.149-0.884,0.446C155.674,265.107,155.553,265.439,155.553,265.802z"/>
			<path fill="#231F20" d="M162.338,268.891l1.366-7.118l2.446,5.653l2.455-5.653l1.365,7.118h-0.767l-0.867-4.555h-0.017
				l-2.169,4.83l-2.161-4.83h-0.018l-0.866,4.555H162.338z"/>
			<path fill="#231F20" d="M172.613,268.891v-6.73h3.491v0.693h-2.741v2.002h2.661v0.694h-2.661v2.644h2.741v0.697H172.613z"/>
			<path fill="#231F20" d="M179.916,265.934v2.957h-0.75v-6.73h0.973c0.345,0,0.655,0.024,0.928,0.08
				c0.274,0.052,0.533,0.143,0.777,0.275c0.244,0.129,0.432,0.324,0.562,0.575c0.131,0.255,0.197,0.562,0.197,0.925
				c0,0.516-0.152,0.944-0.456,1.286c-0.304,0.339-0.714,0.53-1.232,0.568l2.143,3.021h-0.92l-2.036-2.957H179.916z
				 M179.916,262.854v2.421h0.233c0.238,0,0.447-0.015,0.629-0.046c0.181-0.027,0.36-0.083,0.535-0.164
				c0.175-0.08,0.31-0.205,0.402-0.369c0.092-0.168,0.138-0.377,0.138-0.628c0-0.213-0.032-0.397-0.098-0.548
				c-0.065-0.153-0.146-0.271-0.241-0.355c-0.095-0.087-0.223-0.153-0.384-0.202s-0.314-0.076-0.459-0.091
				c-0.146-0.01-0.323-0.018-0.532-0.018H179.916z"/>
			<path fill="#231F20" d="M189.674,266.98h-2.875l-0.812,1.911h-0.822l3.107-7.055l3.026,7.055h-0.83L189.674,266.98z
				 M189.38,266.283l-1.125-2.696l-1.151,2.696H189.38z"/>
			<path fill="#231F20" d="M194.566,265.041l2.866-2.88h1.009l-3.16,3.132l3.267,3.599h-1.035l-2.759-3.09l-0.188,0.188v2.901h-0.75
				v-6.73h0.75V265.041z"/>
			<path fill="#231F20" d="M201.824,262.161v6.73h-0.75v-6.73H201.824z"/>
			<path fill="#231F20" d="M206.403,262.161v5.328c0,0.237-0.003,0.422-0.015,0.559c-0.006,0.132-0.037,0.296-0.086,0.491
				c-0.053,0.192-0.131,0.355-0.238,0.495c-0.278,0.37-0.666,0.552-1.16,0.552c-0.405,0-0.804-0.164-1.197-0.499l0.42-0.579
				c0.273,0.255,0.539,0.384,0.794,0.384c0.118,0,0.224-0.021,0.309-0.062c0.085-0.042,0.155-0.105,0.206-0.192
				s0.092-0.167,0.123-0.247c0.033-0.077,0.057-0.178,0.068-0.308c0.013-0.129,0.02-0.227,0.023-0.3
				c0.003-0.069,0.003-0.167,0.003-0.293v-5.328H206.403z"/>
			<path fill="#231F20" d="M209.564,268.891v-6.73h3.49v0.693h-2.74v2.002h2.66v0.694h-2.66v2.644h2.74v0.697H209.564z"/>
			<path fill="#231F20" d="M216.367,262.161l1.768,5.043l2.18-5.392l2.178,5.392l1.766-5.043h0.812l-2.578,7.079l-2.178-5.419
				l-2.18,5.419l-2.58-7.079H216.367z"/>
			<path fill="#231F20" d="M227.643,268.891v-6.73h3.491v0.693h-2.741v2.002h2.661v0.694h-2.661v2.644h2.741v0.697H227.643z"/>
			<path fill="#231F20" d="M234.945,262.161v6.033h1.857v0.697h-2.607v-6.73H234.945z"/>
			<path fill="#231F20" d="M239.672,268.148c0.098-0.094,0.217-0.143,0.354-0.143s0.254,0.049,0.352,0.143
				c0.1,0.098,0.148,0.213,0.148,0.349c0,0.137-0.049,0.259-0.148,0.359c-0.098,0.102-0.215,0.15-0.352,0.15
				s-0.256-0.049-0.354-0.15c-0.098-0.101-0.146-0.223-0.146-0.359C239.525,268.361,239.574,268.246,239.672,268.148z"/>
			<path fill="#231F20" d="M248.998,262.705v0.928c-0.578-0.597-1.263-0.893-2.055-0.893c-0.742,0-1.381,0.275-1.914,0.829
				c-0.532,0.555-0.799,1.207-0.799,1.957s0.269,1.401,0.804,1.953c0.536,0.554,1.177,0.83,1.929,0.83
				c0.762,0,1.44-0.297,2.035-0.894v0.932c-0.607,0.439-1.277,0.659-2.009,0.659c-0.952,0-1.775-0.339-2.47-1.015
				c-0.691-0.674-1.039-1.489-1.039-2.441c0-0.963,0.344-1.789,1.033-2.477c0.687-0.687,1.512-1.032,2.476-1.032
				C247.738,262.042,248.408,262.261,248.998,262.705z"/>
			<path fill="#231F20" d="M252.743,263.064c0.687-0.681,1.514-1.022,2.476-1.022c0.967,0,1.793,0.342,2.48,1.022
				c0.687,0.684,1.029,1.506,1.029,2.469c0,0.966-0.343,1.785-1.029,2.459c-0.688,0.676-1.514,1.015-2.48,1.015
				c-0.962,0-1.789-0.339-2.476-1.015c-0.687-0.674-1.032-1.493-1.032-2.459C251.711,264.57,252.057,263.748,252.743,263.064z
				 M257.176,263.555c-0.535-0.544-1.188-0.815-1.957-0.815c-0.767,0-1.419,0.271-1.953,0.815c-0.537,0.544-0.805,1.2-0.805,1.971
				c0,0.76,0.27,1.416,0.809,1.963c0.539,0.548,1.189,0.82,1.949,0.82c0.764,0,1.412-0.272,1.953-0.82
				c0.537-0.547,0.808-1.203,0.808-1.963C257.979,264.756,257.711,264.099,257.176,263.555z"/>
			<path fill="#231F20" d="M261.041,268.891l1.365-7.118l2.448,5.653l2.455-5.653l1.364,7.118h-0.768l-0.865-4.555h-0.018
				l-2.169,4.83l-2.162-4.83h-0.017l-0.865,4.555H261.041z"/>
		</g>
	</g>
</g>
</svg>
