<?xml version="1.0" encoding="utf-8"?>
<!-- Generator: Adobe Illustrator 16.0.0, SVG Export Plug-In . SVG Version: 6.00 Build 0)  -->
<!DOCTYPE svg PUBLIC "-//W3C//DTD SVG 1.1//EN" "http://www.w3.org/Graphics/SVG/1.1/DTD/svg11.dtd">
<svg version="1.1" id="Layer_1" xmlns="http://www.w3.org/2000/svg" xmlns:xlink="http://www.w3.org/1999/xlink" x="0px" y="0px"
	 width="195.823px" height="249.113px" viewBox="0 0 195.823 249.113" enable-background="new 0 0 195.823 249.113"
	 xml:space="preserve">
<g>
	<path fill="#C7AE21" d="M79.021,113.311c0,0.045-0.018,0.087-0.055,0.126c-0.037,0.04-0.086,0.07-0.147,0.093l-0.051,0.009
		c-0.427,0.022-0.739,0.034-0.936,0.034c-1.45,0-2.505-0.263-3.165-0.789c-0.661-0.525-0.991-1.358-0.991-2.499
		c0-0.489,0.097-1.307,0.291-2.453s0.291-1.939,0.291-2.377c0-0.315-0.105-0.575-0.316-0.78s-0.423-0.308-0.636-0.308
		c-0.478,0-1.342,0.431-2.592,1.294c-1.25,0.862-2.747,2.05-4.489,3.562c-0.067,0.062-0.132,0.114-0.194,0.156
		c-0.062,0.042-0.121,0.075-0.177,0.097c-0.022,0.012-0.043,0.02-0.063,0.025c-0.02,0.006-0.041,0.008-0.063,0.008
		c-0.073,0-0.136-0.029-0.189-0.088c-0.054-0.059-0.08-0.127-0.08-0.207c0-0.028,0.005-0.056,0.017-0.084
		c0.011-0.028,0.028-0.051,0.05-0.068c0.759-0.865,1.593-2.006,2.503-3.422c0.911-1.416,1.473-2.503,1.686-3.262
		c-0.028-0.073-0.073-0.143-0.135-0.21c-0.062-0.067-0.129-0.124-0.202-0.168c-0.545,0-1.628,0.457-3.25,1.37
		c-1.621,0.913-2.864,1.707-3.73,2.381c-1.051,1.427-2.224,2.734-3.519,3.919c-1.295,1.186-2.452,1.984-3.469,2.394
		c-0.062-0.034-0.113-0.093-0.152-0.177c-0.04-0.084-0.059-0.163-0.059-0.236c0-0.433,0.656-1.309,1.968-2.63
		c1.312-1.32,2.716-2.481,4.21-3.481c0.624-0.719,1.269-1.735,1.935-3.047c0.666-1.312,0.999-2.305,0.999-2.979
		c-0.135-0.36-0.298-0.67-0.489-0.932c-0.191-0.261-0.396-0.457-0.615-0.586c-1.776,0-3.635,0.662-5.576,1.985
		c-1.942,1.323-2.913,2.615-2.913,3.874c0,0.067,0.042,0.146,0.126,0.236s0.208,0.188,0.371,0.295c0.686,0,1.631-0.295,2.836-0.885
		c1.206-0.59,2.345-1.343,3.418-2.259c0.067,0,0.124,0.02,0.169,0.059c0.045,0.039,0.067,0.09,0.067,0.151
		c0,0.034-0.006,0.065-0.017,0.093c-0.011,0.028-0.028,0.054-0.05,0.076c-1.422,1.326-2.723,2.352-3.903,3.077
		c-1.18,0.725-2.152,1.087-2.917,1.087c-0.382,0-0.694-0.125-0.936-0.375s-0.362-0.586-0.362-1.007c0-0.68,0.308-1.419,0.923-2.217
		c0.615-0.798,1.488-1.584,2.617-2.36c1.675-1.135,2.996-1.891,3.962-2.267c0.967-0.376,1.967-0.565,3.001-0.565
		c0.5,0,0.924,0.184,1.273,0.552c0.348,0.368,0.522,0.749,0.522,1.142c0,0.365-0.125,0.874-0.375,1.526s-0.65,1.5-1.201,2.545
		l-0.632,1.231c0.32-0.163,0.919-0.475,1.795-0.936c3.175-1.669,5.033-2.503,5.572-2.503c0.208,0,0.375,0.087,0.501,0.261
		c0.126,0.174,0.189,0.405,0.189,0.691c-0.213,0.573-0.582,1.257-1.104,2.053c-0.523,0.795-1.242,1.763-2.158,2.904l0.034,0.034
		c1.023-0.663,1.873-1.219,2.55-1.669c0.677-0.45,1.173-0.787,1.488-1.012c0.449-0.314,0.822-0.525,1.117-0.632
		c0.295-0.106,0.653-0.16,1.075-0.16c0.394,0.219,0.648,0.444,0.763,0.675c0.115,0.23,0.173,0.604,0.173,1.121
		c0,0.399-0.138,1.339-0.413,2.819c-0.275,1.481-0.413,2.511-0.413,3.089c0,0.742,0.313,1.327,0.94,1.753
		c0.626,0.427,1.474,0.641,2.542,0.641c0.146,0,0.254-0.001,0.324-0.004c0.07-0.003,0.136-0.007,0.198-0.013
		c0.067,0,0.124,0.02,0.168,0.059C78.998,113.198,79.021,113.249,79.021,113.311z M60.619,106.677
		c-0.309,0.112-1.031,0.701-2.167,1.766s-1.824,1.799-2.065,2.204l-0.017,0.177c0.596-0.433,1.298-1.039,2.107-1.817
		c0.809-0.778,1.512-1.507,2.107-2.188L60.619,106.677z"/>
	<path fill="#C7AE21" d="M93.65,109.18c0,0.04-0.006,0.07-0.017,0.093c-0.012,0.022-0.031,0.04-0.059,0.051
		c-1.068,0.624-2.044,1.09-2.929,1.399c-0.885,0.31-1.685,0.464-2.398,0.464c-0.287,0-0.688-0.067-1.206-0.202
		c-0.073-0.022-0.121-0.037-0.143-0.042c-0.32-0.174-0.599-0.433-0.834-0.775c-0.236-0.343-0.408-0.733-0.514-1.172
		c-0.326,0.214-0.731,0.472-1.214,0.776c-0.191,0.118-0.34,0.21-0.447,0.278c-1.034,0.658-1.777,1.092-2.23,1.303
		c-0.452,0.21-0.825,0.316-1.117,0.316c-0.618,0-1.1-0.189-1.446-0.569s-0.518-0.892-0.518-1.539c0-0.393,0.067-0.787,0.202-1.18
		c0.135-0.393,0.326-0.747,0.573-1.062c0-0.011,0.015-0.022,0.046-0.034c0.031-0.011,0.066-0.017,0.105-0.017
		c0.151,0,0.302,0.04,0.451,0.118s0.224,0.171,0.224,0.278c-0.124,0.23-0.221,0.482-0.291,0.754s-0.105,0.538-0.105,0.796
		c0,0.472,0.101,0.836,0.304,1.092c0.202,0.256,0.492,0.383,0.868,0.383c0.787,0,1.656-0.33,2.609-0.99s1.977-1.637,3.073-2.929
		c0.073,0,0.154,0.022,0.244,0.067s0.166,0.101,0.228,0.168c0.011,0.028,0.02,0.052,0.025,0.072c0.006,0.02,0.008,0.038,0.008,0.055
		c0,0.051-0.011,0.112-0.034,0.186s-0.053,0.155-0.092,0.245c-0.062,0.163-0.108,0.324-0.139,0.484
		c-0.031,0.16-0.046,0.313-0.046,0.459c0,0.579,0.159,1.049,0.476,1.412c0.317,0.362,0.746,0.543,1.286,0.543
		c0.697,0,1.477-0.135,2.339-0.404c0.862-0.27,1.665-0.635,2.406-1.096c0.022-0.017,0.042-0.026,0.059-0.029
		c0.017-0.003,0.042-0.004,0.076-0.004c0.05,0,0.092,0.024,0.126,0.072C93.633,109.047,93.65,109.107,93.65,109.18z"/>
	<path fill="#C7AE21" d="M112.368,109.18c0,0.04-0.006,0.07-0.018,0.093c-0.011,0.022-0.03,0.04-0.059,0.051
		c-1.265,0.719-2.265,1.227-3.001,1.521s-1.329,0.442-1.778,0.442c-0.365,0-0.7-0.167-1.004-0.501
		c-0.303-0.334-0.601-0.886-0.893-1.656c-0.04-0.102-0.096-0.256-0.169-0.464c-0.124-0.371-0.211-0.556-0.262-0.556
		c-0.5,0.135-1.049,0.355-1.647,0.662s-1.224,0.69-1.876,1.15c-0.219,0.158-0.528,0.405-0.927,0.742
		c-0.399,0.337-0.645,0.505-0.734,0.505c-0.32,0-0.551-0.06-0.695-0.181c-0.143-0.121-0.215-0.324-0.215-0.611
		c0-0.118,0.048-0.352,0.143-0.7c0.096-0.349,0.267-0.899,0.515-1.652c0-0.096-0.084-0.202-0.253-0.32
		c-0.169-0.118-0.309-0.183-0.422-0.194c-0.416,0-1.25,0.395-2.503,1.185c-1.253,0.79-2.554,1.757-3.903,2.904
		c-0.202,0-0.359-0.049-0.472-0.147c-0.112-0.099-0.196-0.291-0.253-0.578c0.495-0.753,0.912-1.488,1.252-2.204
		c0.34-0.717,0.642-1.502,0.906-2.356c0.157,0,0.299,0.032,0.426,0.097c0.126,0.065,0.249,0.165,0.367,0.299v0.54
		c0,0.135-0.073,0.391-0.219,0.767c-0.034,0.079-0.059,0.141-0.076,0.186c-0.073,0.191-0.138,0.412-0.194,0.662
		s-0.087,0.465-0.093,0.645c0.281-0.168,1.218-0.746,2.812-1.732s2.479-1.507,2.66-1.564c0.337,0.096,0.576,0.219,0.716,0.371
		s0.211,0.351,0.211,0.599c0,0.124-0.01,0.265-0.029,0.426c-0.02,0.16-0.061,0.386-0.123,0.678
		c-0.006,0.028-0.014,0.076-0.025,0.144c-0.084,0.461-0.126,0.815-0.126,1.062c0,0.096,0.005,0.188,0.013,0.278
		s0.021,0.183,0.038,0.278c0.241-0.14,0.532-0.317,0.872-0.531c0.34-0.214,0.738-0.469,1.193-0.767
		c0.168-0.107,0.413-0.261,0.733-0.464c1.32-0.843,2.031-1.264,2.132-1.264c0.349,0,0.614,0.074,0.797,0.223
		s0.322,0.398,0.417,0.746c0.22,1.051,0.441,1.706,0.666,1.964c0.225,0.259,0.591,0.388,1.097,0.388
		c0.297,0,0.872-0.163,1.724-0.489c0.852-0.326,1.507-0.624,1.968-0.894c0.018-0.011,0.035-0.02,0.055-0.025
		c0.02-0.006,0.047-0.009,0.08-0.009c0.051,0,0.093,0.024,0.127,0.072C112.351,109.047,112.368,109.107,112.368,109.18z"/>
	<path fill="#C7AE21" d="M123.246,109.18c0,0.04-0.006,0.07-0.017,0.093c-0.012,0.022-0.031,0.04-0.06,0.051
		c-0.349,0.157-0.682,0.274-0.999,0.35s-0.628,0.114-0.931,0.114c-0.528,0-1.049-0.109-1.56-0.329
		c-0.512-0.219-0.998-0.542-1.459-0.969c-0.09,0.084-0.208,0.191-0.354,0.32c-0.31,0.275-0.576,0.508-0.801,0.699
		c-0.72,0.63-1.376,1.089-1.969,1.378s-1.156,0.434-1.689,0.434c-0.641-0.05-1.11-0.228-1.408-0.531
		c-0.298-0.304-0.446-0.753-0.446-1.349c0-0.629,0.119-1.305,0.357-2.027c0.239-0.722,0.581-1.451,1.024-2.187
		c0.973-1.585,2.268-3.036,3.887-4.354c1.618-1.318,2.98-1.977,4.088-1.977c0.331,0,0.59,0.103,0.775,0.308s0.278,0.493,0.278,0.864
		c-0.579,1.416-1.666,2.796-3.263,4.139c-1.596,1.343-3.441,2.45-5.538,3.321c-0.146,0.248-0.254,0.527-0.324,0.839
		s-0.105,0.67-0.105,1.075c0.09,0.259,0.218,0.464,0.384,0.616c0.166,0.151,0.347,0.228,0.544,0.228
		c0.894,0,1.709-0.221,2.448-0.662c0.739-0.441,1.271-1.013,1.598-1.716c-0.062-0.028-0.112-0.077-0.151-0.147
		c-0.04-0.07-0.06-0.147-0.06-0.232c0-0.089,0.016-0.174,0.047-0.252c0.03-0.079,0.074-0.152,0.13-0.219
		c0.051-0.04,0.13-0.072,0.236-0.097s0.217-0.038,0.329-0.038c0.106,0,0.189,0.008,0.248,0.025c0.06,0.017,0.092,0.037,0.098,0.059
		c0.229,0.646,0.598,1.17,1.104,1.572s1.082,0.603,1.729,0.603c0.309,0,0.593-0.018,0.852-0.055
		c0.258-0.037,0.483-0.094,0.674-0.173c0.012-0.005,0.027-0.011,0.047-0.017c0.02-0.006,0.046-0.009,0.08-0.009
		c0.051,0,0.093,0.024,0.126,0.072C123.229,109.047,123.246,109.107,123.246,109.18z M120.97,100.22
		c-0.027-0.084-0.062-0.16-0.104-0.228c-0.043-0.067-0.095-0.129-0.156-0.186c-0.242,0.034-0.527,0.125-0.855,0.274
		c-0.329,0.149-0.724,0.364-1.185,0.645c-0.883,0.612-1.821,1.477-2.815,2.592c-0.995,1.116-1.731,2.104-2.209,2.963
		c2.152-0.82,3.912-1.799,5.277-2.938S120.97,101.164,120.97,100.22z"/>
	<path fill="#C7AE21" d="M134.275,109.18c0,0.04-0.006,0.07-0.017,0.093c-0.012,0.022-0.031,0.04-0.06,0.051
		c-0.578,0.359-1.239,0.656-1.98,0.889c-0.742,0.233-1.374,0.35-1.896,0.35s-1.004-0.07-1.441-0.21
		c-0.438-0.141-0.844-0.351-1.214-0.632c-0.944,0.674-1.795,1.179-2.55,1.513c-0.757,0.334-1.415,0.501-1.978,0.501
		c-0.331,0-0.601-0.083-0.809-0.249c-0.208-0.166-0.312-0.392-0.312-0.679c0-0.966,0.727-1.992,2.18-3.077
		c1.452-1.084,2.867-1.728,4.244-1.931c0.118,0.023,0.283,0.128,0.497,0.316s0.356,0.353,0.43,0.493c0,0.141-0.046,0.284-0.139,0.43
		c-0.093,0.146-0.207,0.25-0.342,0.312c-0.062,0-0.158-0.043-0.291-0.131c-0.132-0.087-0.243-0.175-0.332-0.265
		c-0.023-0.006-0.048-0.01-0.076-0.013s-0.07-0.004-0.127-0.004c-0.798,0-1.777,0.468-2.938,1.403
		c-1.16,0.936-1.74,1.598-1.74,1.985c0,0.141,0.055,0.272,0.164,0.396c0.109,0.124,0.243,0.186,0.4,0.186
		c0.944-0.152,1.832-0.508,2.664-1.07c0.831-0.562,1.52-1.259,2.064-2.091h0.043c0.14,0,0.325,0.055,0.556,0.165
		s0.36,0.198,0.388,0.266l-0.91,1.096c0.242,0.157,0.509,0.277,0.801,0.358s0.604,0.122,0.936,0.122
		c0.618,0,1.216-0.066,1.792-0.198c0.575-0.132,1.139-0.333,1.689-0.603c0.012-0.005,0.027-0.011,0.047-0.017
		c0.02-0.006,0.046-0.009,0.08-0.009c0.051,0,0.093,0.024,0.126,0.072C134.259,109.047,134.275,109.107,134.275,109.18z"/>
	<path fill="#C7AE21" d="M140.702,109.18c0,0.04-0.005,0.07-0.017,0.093c-0.011,0.022-0.031,0.04-0.059,0.051
		c-0.759,0.489-1.645,0.902-2.655,1.239c-1.012,0.337-1.875,0.506-2.588,0.506c-0.557,0-0.983-0.118-1.281-0.354
		c-0.298-0.236-0.447-0.567-0.447-0.995c0-0.186,0.032-0.383,0.097-0.594c0.065-0.211,0.159-0.429,0.283-0.653l1.121-1.998
		c0.011-0.102,0.065-0.187,0.164-0.257s0.218-0.105,0.358-0.105c0.129,0.067,0.233,0.149,0.312,0.245
		c0.079,0.096,0.135,0.208,0.169,0.337c-0.36,0.585-0.662,1.1-0.906,1.547s-0.375,0.721-0.392,0.822v0.034
		c0,0.157,0.037,0.337,0.113,0.539c0.076,0.203,0.164,0.34,0.266,0.413c0.191,0.062,0.354,0.105,0.489,0.131
		c0.135,0.025,0.261,0.038,0.379,0.038c0.573,0,1.305-0.125,2.196-0.375c0.891-0.25,1.583-0.543,2.077-0.881
		c0.018-0.011,0.037-0.02,0.06-0.025c0.022-0.006,0.051-0.009,0.084-0.009c0.051,0,0.093,0.024,0.127,0.072
		C140.686,109.047,140.702,109.107,140.702,109.18z M138.646,102.125c-0.123,0.281-0.32,0.539-0.59,0.771
		c-0.27,0.233-0.539,0.35-0.81,0.35c-0.096-0.056-0.168-0.128-0.219-0.215c-0.051-0.087-0.076-0.189-0.076-0.308
		c0-0.275,0.077-0.548,0.232-0.817c0.154-0.27,0.372-0.486,0.653-0.649h0.362c0.078,0.034,0.143,0.087,0.193,0.16
		c0.051,0.073,0.087,0.169,0.109,0.287c0.006,0.022,0.015,0.056,0.025,0.101C138.562,101.967,138.601,102.074,138.646,102.125z"/>
</g>
<g>
	<path fill="#C7AE21" d="M30.942,202.44c0,0.512-0.263,1.069-0.789,1.673c-0.525,0.604-1.15,1.111-1.875,1.521
		c-0.596,0.349-1.149,0.653-1.661,0.915c-0.511,0.261-1.045,0.516-1.602,0.763c0.82,0.118,1.516,0.402,2.086,0.852
		s0.873,0.983,0.906,1.602c0.348,0.106,0.775,0.281,1.281,0.522c0.275,0.135,0.508,0.247,0.7,0.337
		c0.022,0.018,0.039,0.038,0.05,0.063s0.017,0.069,0.017,0.131c0,0.045-0.02,0.084-0.059,0.118c-0.04,0.033-0.087,0.051-0.143,0.051
		c-0.163-0.062-0.394-0.152-0.691-0.271c-0.602-0.241-1.026-0.393-1.273-0.455c-0.534,1.023-1.527,1.94-2.98,2.752
		c-1.453,0.812-2.803,1.219-4.05,1.219c-0.618,0-1.096-0.089-1.433-0.266c-0.337-0.177-0.556-0.457-0.657-0.839
		c0-0.899,0.691-1.736,2.074-2.512c1.382-0.775,2.838-1.163,4.366-1.163c0.04,0,0.084,0.002,0.135,0.008
		c0.203,0.028,0.57,0.048,1.104,0.06c0.011-0.028,0.02-0.058,0.025-0.089c0.005-0.031,0.008-0.077,0.008-0.139
		c0-0.422-0.184-0.797-0.552-1.126c-0.368-0.328-0.788-0.493-1.26-0.493c-0.151,0-0.447,0.015-0.885,0.042
		c-0.438,0.028-0.81,0.06-1.113,0.093c-0.084,0-0.152-0.025-0.202-0.075c-0.051-0.051-0.076-0.118-0.076-0.203
		c0-0.05,0.008-0.091,0.025-0.122c0.017-0.03,0.042-0.052,0.076-0.062c2.045-0.607,3.718-1.361,5.016-2.264
		c1.298-0.902,1.947-1.777,1.947-2.626c-0.096-0.359-0.301-0.65-0.615-0.872c-0.315-0.223-0.739-0.372-1.273-0.451
		c-0.584,0-1.242,0.093-1.973,0.278s-1.523,0.461-2.377,0.826c-2.152,0.927-4.296,2.301-6.432,4.122
		c-2.136,1.82-3.203,3.318-3.203,4.492c0,0.23,0.036,0.415,0.109,0.553c0.073,0.138,0.188,0.24,0.346,0.308
		c1.062-0.281,2.311-1.041,3.747-2.28c1.436-1.239,2.682-2.623,3.738-4.151c0.017-0.022,0.034-0.038,0.051-0.047
		c0.017-0.008,0.042-0.013,0.076-0.013c0.067,0,0.118,0.021,0.152,0.063s0.05,0.108,0.05,0.198
		c-1.219,1.956-2.685,3.687-4.396,5.192c-1.711,1.506-3.104,2.259-4.177,2.259c-0.343-0.078-0.645-0.258-0.906-0.539
		s-0.392-0.56-0.392-0.835c0-1.612,1.102-3.357,3.305-5.234c2.203-1.877,4.779-3.397,7.73-4.561c0.91-0.359,1.909-0.686,2.997-0.978
		s1.819-0.438,2.196-0.438c0.714,0,1.256,0.067,1.627,0.202s0.697,0.391,0.978,0.768c0.039,0.168,0.07,0.347,0.092,0.535
		S30.942,202.238,30.942,202.44z M26.086,210.406c0.005-0.012,0.01-0.025,0.013-0.042c0.002-0.018,0.004-0.039,0.004-0.067
		c0-0.067-0.014-0.124-0.042-0.169c-0.028-0.045-0.07-0.081-0.126-0.109c-0.146,0-0.313-0.003-0.501-0.009
		c-0.188-0.005-0.299-0.008-0.333-0.008c-1.057,0-2.086,0.25-3.089,0.75c-1.003,0.5-1.699,1.121-2.086,1.862
		c0.101,0.175,0.343,0.368,0.725,0.582c0.073,0.039,0.124,0.067,0.151,0.084c0.927,0,1.91-0.28,2.946-0.843
		C24.784,211.875,25.563,211.198,26.086,210.406z"/>
	<path fill="#C7AE21" d="M44.121,211.088c0,0.039-0.004,0.07-0.013,0.093s-0.027,0.039-0.055,0.051
		c-0.775,0.506-1.635,0.994-2.58,1.467c-0.944,0.472-2.127,0.994-3.549,1.567c-0.764,1.944-1.744,3.729-2.938,5.354
		c-1.194,1.624-2.539,2.992-4.034,4.104c-0.573,0.433-1.277,0.826-2.111,1.181c-0.835,0.354-1.477,0.53-1.926,0.53
		c-0.54-0.095-0.965-0.289-1.277-0.581c-0.312-0.292-0.468-0.649-0.468-1.07c0-1.062,1.179-2.567,3.536-4.515
		s5.121-3.786,8.291-5.517c0.219-0.416,0.397-0.896,0.535-1.438s0.207-1.013,0.207-1.412v-0.413l-2.25,1.054
		c-0.084,0.04-0.261,0.124-0.531,0.253c-1.579,0.775-2.534,1.163-2.866,1.163c-0.483,0-0.852-0.13-1.104-0.392
		s-0.379-0.64-0.379-1.134c0-0.157,0.077-0.358,0.232-0.603c0.154-0.245,0.434-0.589,0.839-1.033
		c0.101-0.112,0.251-0.273,0.451-0.484c0.2-0.211,0.33-0.355,0.392-0.434c0.022-0.028,0.064-0.053,0.126-0.072
		s0.129-0.029,0.202-0.029c0.141,0,0.277,0.024,0.409,0.071c0.132,0.048,0.198,0.101,0.198,0.156c0,0.106-0.07,0.269-0.21,0.484
		c-0.141,0.217-0.36,0.496-0.658,0.839c-0.045,0.057-0.115,0.141-0.21,0.253c-0.298,0.36-0.472,0.596-0.523,0.708
		c0.011,0.225,0.049,0.393,0.114,0.502c0.065,0.109,0.156,0.164,0.274,0.164c0.933,0,1.893-0.245,2.879-0.737s2.146-1.3,3.477-2.424
		c0.034-0.033,0.077-0.062,0.131-0.084c0.053-0.022,0.103-0.034,0.147-0.034c0.096,0,0.186,0.021,0.27,0.063
		c0.084,0.042,0.126,0.089,0.126,0.14c-0.191,0.657-0.393,1.437-0.607,2.339c-0.213,0.901-0.368,1.625-0.463,2.171
		c0.921-0.259,1.88-0.613,2.875-1.062s1.905-0.936,2.731-1.458c0.017-0.012,0.037-0.02,0.059-0.025s0.051-0.009,0.084-0.009
		c0.05,0,0.091,0.024,0.122,0.072C44.105,210.955,44.121,211.015,44.121,211.088z M36.375,214.974
		c-2.501,1.13-4.69,2.515-6.567,4.156c-1.877,1.641-2.917,3.012-3.119,4.113c0.034,0.175,0.124,0.342,0.27,0.502
		c0.146,0.16,0.309,0.273,0.489,0.341c1.158-0.135,2.632-1.025,4.421-2.672c1.79-1.646,3.227-3.526,4.312-5.64
		c0.062-0.123,0.109-0.254,0.143-0.392S36.375,215.109,36.375,214.974z"/>
	<path fill="#C7AE21" d="M69.241,211.088c0,0.039-0.006,0.07-0.017,0.093s-0.028,0.039-0.051,0.051
		c-0.792,0.517-1.686,0.945-2.68,1.285s-1.821,0.51-2.479,0.51c-0.298,0-0.521-0.002-0.67-0.008
		c-0.149-0.006-0.277-0.015-0.384-0.025c-0.68-0.102-1.19-0.365-1.53-0.793c-0.34-0.427-0.51-1.022-0.51-1.786
		c0-0.203,0.014-0.444,0.042-0.726c0.005-0.062,0.008-0.106,0.008-0.135l-2.082,1.205c-2.012,1.169-3.598,1.985-4.759,2.449
		c-1.16,0.464-2.12,0.695-2.878,0.695c-0.753-0.191-1.302-0.456-1.648-0.797c-0.346-0.34-0.555-0.855-0.628-1.547
		c0-1.309,0.766-2.68,2.297-4.113c1.531-1.433,3.466-2.658,5.804-3.675c1.534-0.675,3.046-1.197,4.535-1.568
		s2.801-0.557,3.937-0.557c1.118,0,2.013,0.173,2.685,0.519c0.671,0.346,1.007,0.8,1.007,1.361c0,0.596-0.358,1.039-1.075,1.328
		c-0.716,0.289-1.808,0.434-3.274,0.434h-0.017c-0.034,0-0.062-0.017-0.084-0.05c-0.022-0.034-0.034-0.073-0.034-0.118
		c0-0.051,0.01-0.093,0.03-0.127c0.02-0.033,0.052-0.056,0.097-0.067c0.781,0,1.488-0.15,2.12-0.451
		c0.632-0.3,1.01-0.673,1.134-1.116c0-0.399-0.162-0.697-0.485-0.894c-0.323-0.197-0.811-0.295-1.462-0.295
		c-0.68,0-1.864,0.272-3.553,0.817c-1.689,0.545-3.486,1.262-5.391,2.149c-2.085,0.967-3.886,2.075-5.403,3.325
		c-1.517,1.251-2.276,2.252-2.276,3.006c0,0.359,0.155,0.631,0.464,0.812c0.309,0.184,0.764,0.274,1.365,0.274
		c0.972,0,2.398-0.398,4.278-1.197c1.879-0.798,3.705-1.744,5.475-2.841c0.242-0.775,0.621-1.438,1.138-1.989
		s1.132-0.946,1.846-1.188c0.168,0,0.312,0.031,0.43,0.093c0.118,0.062,0.2,0.149,0.245,0.262c0,0.337-0.237,0.789-0.712,1.356
		c-0.475,0.568-1.083,1.1-1.825,1.594c-0.051,0.146-0.089,0.334-0.114,0.564c-0.025,0.23-0.038,0.478-0.038,0.742
		c0.028,0.629,0.188,1.129,0.48,1.5c0.292,0.371,0.73,0.649,1.315,0.835c0.809,0,1.686-0.134,2.63-0.4
		c0.944-0.267,1.739-0.605,2.386-1.016c0.017-0.012,0.035-0.02,0.055-0.025s0.049-0.009,0.088-0.009
		c0.051,0,0.091,0.024,0.123,0.072C69.225,210.955,69.241,211.015,69.241,211.088z M64.048,206.292h-0.034
		c-0.247,0-0.537,0.173-0.868,0.518c-0.332,0.346-0.596,0.732-0.792,1.159c0.27-0.174,0.565-0.423,0.885-0.746
		C63.559,206.901,63.829,206.59,64.048,206.292z"/>
	<path fill="#C7AE21" d="M81.055,211.088c0,0.039-0.005,0.07-0.017,0.093s-0.031,0.039-0.059,0.051
		c-0.624,0.337-1.38,0.594-2.268,0.771c-0.888,0.177-1.863,0.266-2.925,0.266c-0.112,0-0.234-0.003-0.366-0.009
		c-0.132-0.006-0.328-0.014-0.586-0.025c-0.399,0.102-0.914,0.205-1.543,0.312c-0.629,0.107-1.076,0.186-1.34,0.236
		c-0.045,0-0.084-0.014-0.118-0.042s-0.051-0.059-0.051-0.093c0-0.062,0.018-0.119,0.055-0.173s0.086-0.089,0.148-0.105
		c1.006-0.298,1.804-0.666,2.394-1.104c0.59-0.438,1.082-1.02,1.476-1.744c0-0.242-0.066-0.438-0.198-0.586
		c-0.132-0.149-0.313-0.224-0.544-0.224c-0.416,0-0.961,0.125-1.635,0.375s-1.188,0.521-1.542,0.813
		c-0.826,3.197-2.348,6.391-4.564,9.58c-2.217,3.189-4.112,4.784-5.686,4.784c-0.146-0.04-0.281-0.163-0.404-0.371
		s-0.203-0.425-0.236-0.649c0-1.657,1.071-4.022,3.212-7.093c2.141-3.071,4.512-5.38,7.114-6.926
		c0.062-0.174,0.135-0.327,0.219-0.459c0.084-0.132,0.188-0.254,0.312-0.366c0.073,0,0.167,0.026,0.282,0.08
		c0.115,0.053,0.207,0.113,0.274,0.181c0.495-0.202,1.093-0.397,1.795-0.586c0.703-0.188,1.161-0.282,1.374-0.282
		c0.495,0,0.881,0.114,1.159,0.342c0.278,0.228,0.417,0.535,0.417,0.923c0,0.416-0.158,0.85-0.472,1.302
		c-0.315,0.453-0.745,0.854-1.29,1.201c0.062,0.006,0.151,0.015,0.27,0.025c0.365,0.04,0.638,0.06,0.818,0.06
		c1.028,0,1.861-0.06,2.499-0.177c0.638-0.118,1.207-0.318,1.707-0.599c0.017-0.012,0.037-0.02,0.059-0.025s0.051-0.009,0.084-0.009
		c0.05,0,0.093,0.024,0.126,0.072C81.038,210.955,81.055,211.015,81.055,211.088z M70.552,210.886
		c-2.046,1.034-3.909,2.802-5.589,5.302c-1.68,2.501-2.521,4.519-2.521,6.053c0,0.096,0.025,0.169,0.076,0.219
		c0.051,0.051,0.118,0.076,0.203,0.076c0.798-0.073,2.021-1.229,3.671-3.469s2.921-4.517,3.814-6.832
		c0.118-0.331,0.204-0.602,0.257-0.81C70.517,211.218,70.546,211.038,70.552,210.886z"/>
	<path fill="#C7AE21" d="M92.86,211.088c0,0.039-0.005,0.07-0.017,0.093s-0.031,0.039-0.059,0.051
		c-0.624,0.337-1.38,0.594-2.268,0.771c-0.888,0.177-1.863,0.266-2.925,0.266c-0.112,0-0.234-0.003-0.366-0.009
		c-0.132-0.006-0.328-0.014-0.586-0.025c-0.399,0.102-0.914,0.205-1.543,0.312c-0.629,0.107-1.076,0.186-1.34,0.236
		c-0.045,0-0.084-0.014-0.118-0.042s-0.051-0.059-0.051-0.093c0-0.062,0.018-0.119,0.055-0.173s0.086-0.089,0.148-0.105
		c1.006-0.298,1.804-0.666,2.394-1.104c0.59-0.438,1.082-1.02,1.476-1.744c0-0.242-0.066-0.438-0.198-0.586
		c-0.132-0.149-0.313-0.224-0.544-0.224c-0.416,0-0.961,0.125-1.635,0.375s-1.188,0.521-1.542,0.813
		c-0.826,3.197-2.348,6.391-4.564,9.58c-2.217,3.189-4.112,4.784-5.686,4.784c-0.146-0.04-0.281-0.163-0.404-0.371
		s-0.203-0.425-0.236-0.649c0-1.657,1.071-4.022,3.212-7.093c2.141-3.071,4.512-5.38,7.114-6.926
		c0.062-0.174,0.135-0.327,0.219-0.459c0.084-0.132,0.188-0.254,0.312-0.366c0.073,0,0.167,0.026,0.282,0.08
		c0.115,0.053,0.207,0.113,0.274,0.181c0.495-0.202,1.093-0.397,1.795-0.586c0.703-0.188,1.161-0.282,1.374-0.282
		c0.495,0,0.881,0.114,1.159,0.342c0.278,0.228,0.417,0.535,0.417,0.923c0,0.416-0.158,0.85-0.472,1.302
		c-0.315,0.453-0.745,0.854-1.29,1.201c0.062,0.006,0.151,0.015,0.27,0.025c0.365,0.04,0.638,0.06,0.818,0.06
		c1.028,0,1.861-0.06,2.499-0.177c0.638-0.118,1.207-0.318,1.707-0.599c0.017-0.012,0.037-0.02,0.059-0.025s0.051-0.009,0.084-0.009
		c0.05,0,0.093,0.024,0.126,0.072C92.843,210.955,92.86,211.015,92.86,211.088z M82.357,210.886
		c-2.046,1.034-3.909,2.802-5.589,5.302c-1.68,2.501-2.521,4.519-2.521,6.053c0,0.096,0.025,0.169,0.076,0.219
		c0.051,0.051,0.118,0.076,0.203,0.076c0.798-0.073,2.021-1.229,3.671-3.469s2.921-4.517,3.814-6.832
		c0.118-0.331,0.204-0.602,0.257-0.81C82.322,211.218,82.351,211.038,82.357,210.886z"/>
	<path fill="#C7AE21" d="M103.713,211.088c0,0.039-0.006,0.07-0.018,0.093c-0.011,0.022-0.03,0.039-0.059,0.051
		c-0.382,0.202-0.807,0.365-1.272,0.488c-0.467,0.124-0.902,0.186-1.307,0.186c-0.444,0-0.945-0.085-1.505-0.257
		c-0.559-0.171-0.996-0.369-1.311-0.594c-0.202,0.32-0.445,0.645-0.729,0.974c-0.284,0.328-0.535,0.574-0.754,0.737
		c-0.27,0.191-0.617,0.365-1.041,0.522s-0.774,0.236-1.049,0.236c-0.708,0-1.256-0.165-1.644-0.493
		c-0.388-0.329-0.582-0.78-0.582-1.354c0-0.398,0.103-0.826,0.308-1.281s0.476-0.852,0.813-1.188
		c0.287-0.286,0.629-0.536,1.028-0.75s0.745-0.32,1.037-0.32c0.022,0,0.093,0.003,0.21,0.009c0.118,0.005,0.211,0.008,0.278,0.008
		h0.118c0.067-0.135,0.142-0.234,0.223-0.299s0.176-0.097,0.282-0.097c0.056,0,0.138,0.011,0.245,0.033s0.219,0.051,0.337,0.084
		c0.314,0.141,0.561,0.384,0.737,0.729c0.177,0.346,0.266,0.766,0.266,1.26c0.146,0.45,0.457,0.812,0.932,1.088
		c0.475,0.275,1.038,0.413,1.69,0.413c0.556,0,1.026-0.041,1.411-0.122c0.385-0.082,0.735-0.21,1.05-0.384
		c0.011-0.006,0.026-0.011,0.046-0.017c0.021-0.006,0.047-0.009,0.08-0.009c0.051,0,0.093,0.024,0.127,0.072
		C103.695,210.955,103.713,211.015,103.713,211.088z M97.652,210.541c-0.405-0.337-0.704-0.638-0.898-0.902
		c-0.194-0.264-0.322-0.522-0.383-0.775c-0.725,0.028-1.354,0.338-1.888,0.928c-0.534,0.59-0.801,1.109-0.801,1.56
		c0,0.404,0.106,0.728,0.32,0.969c0.213,0.242,0.528,0.391,0.944,0.447c0.703,0,1.308-0.208,1.817-0.624
		C97.271,211.726,97.567,211.193,97.652,210.541z"/>
	<path fill="#C7AE21" d="M110.14,211.088c0,0.039-0.005,0.07-0.017,0.093c-0.011,0.022-0.031,0.039-0.059,0.051
		c-0.759,0.488-1.645,0.901-2.655,1.239c-1.012,0.337-1.875,0.506-2.588,0.506c-0.557,0-0.983-0.118-1.281-0.354
		s-0.447-0.567-0.447-0.994c0-0.186,0.032-0.384,0.097-0.595c0.065-0.211,0.159-0.429,0.283-0.653l1.121-1.998
		c0.011-0.101,0.065-0.187,0.164-0.257s0.218-0.105,0.358-0.105c0.129,0.067,0.233,0.149,0.312,0.244
		c0.079,0.096,0.135,0.208,0.169,0.338c-0.36,0.584-0.662,1.1-0.906,1.547c-0.244,0.446-0.375,0.721-0.392,0.821v0.034
		c0,0.157,0.037,0.337,0.113,0.539s0.164,0.34,0.266,0.413c0.191,0.062,0.354,0.105,0.489,0.131
		c0.135,0.025,0.261,0.038,0.379,0.038c0.573,0,1.305-0.125,2.196-0.375c0.891-0.25,1.583-0.544,2.077-0.881
		c0.018-0.012,0.037-0.02,0.06-0.025s0.051-0.009,0.084-0.009c0.051,0,0.093,0.024,0.127,0.072
		C110.123,210.955,110.14,211.015,110.14,211.088z M108.083,204.033c-0.123,0.281-0.32,0.538-0.59,0.771s-0.539,0.35-0.81,0.35
		c-0.096-0.056-0.168-0.128-0.219-0.215s-0.076-0.189-0.076-0.308c0-0.275,0.077-0.548,0.232-0.817
		c0.154-0.27,0.372-0.486,0.653-0.649h0.362c0.078,0.034,0.143,0.087,0.193,0.16s0.087,0.169,0.109,0.287
		c0.006,0.022,0.015,0.056,0.025,0.101C107.999,203.875,108.038,203.982,108.083,204.033z"/>
	<path fill="#C7AE21" d="M122.653,211.088c0,0.039-0.006,0.07-0.017,0.093c-0.012,0.022-0.031,0.039-0.059,0.051
		c-1.242,0.674-2.273,1.153-3.094,1.438c-0.821,0.283-1.565,0.425-2.234,0.425c-0.382,0-0.708-0.232-0.978-0.699
		s-0.503-1.211-0.7-2.233c-0.056-0.057-0.199-0.141-0.43-0.253c-0.045-0.022-0.075-0.037-0.093-0.043
		c-0.606,0.062-1.461,0.451-2.562,1.168s-2.301,1.662-3.6,2.837c-0.146,0-0.276-0.051-0.392-0.152
		c-0.115-0.101-0.173-0.216-0.173-0.346c0-0.101,0.073-0.28,0.22-0.539c0.017-0.034,0.03-0.06,0.042-0.076
		c0.067-0.123,0.196-0.349,0.388-0.674c0.73-1.254,1.186-2.142,1.365-2.664c0.102-0.084,0.231-0.154,0.392-0.211
		c0.16-0.056,0.309-0.084,0.443-0.084c0.084,0,0.152,0.017,0.206,0.051c0.054,0.033,0.08,0.078,0.08,0.135
		c0,0.011-0.003,0.025-0.009,0.042c-0.005,0.017-0.008,0.028-0.008,0.033c-0.079,0.259-0.253,0.71-0.522,1.354
		c-0.271,0.644-0.422,1.007-0.455,1.092c1.68-1.276,2.885-2.139,3.616-2.588c0.73-0.45,1.25-0.675,1.56-0.675
		c0.19,0,0.37,0.121,0.539,0.362c0.169,0.242,0.379,0.726,0.632,1.45c0.018,0.045,0.04,0.109,0.067,0.194
		c0.371,1.09,0.688,1.635,0.953,1.635c0.736,0,1.455-0.108,2.158-0.324c0.702-0.217,1.483-0.555,2.343-1.016
		c0.017-0.012,0.037-0.02,0.06-0.025s0.05-0.009,0.084-0.009c0.051,0,0.093,0.024,0.126,0.072
		C122.637,210.955,122.653,211.015,122.653,211.088z"/>
	<path fill="#C7AE21" d="M131.964,206.309c0,0.096-0.074,0.202-0.224,0.32c-0.148,0.118-0.299,0.177-0.45,0.177
		c-0.664,0-1.286,0.004-1.867,0.013c-0.582,0.009-1.261,0.024-2.036,0.047c-0.483,0.668-1.078,1.356-1.783,2.064
		s-1.429,1.349-2.17,1.922c-0.006,0.028-0.01,0.062-0.013,0.102s-0.005,0.096-0.005,0.169c0.067,0.28,0.262,0.562,0.582,0.843
		s0.686,0.467,1.096,0.557c1.102,0,2.175-0.14,3.221-0.418c1.045-0.278,2.028-0.689,2.95-1.234c0.017-0.012,0.036-0.02,0.059-0.025
		s0.051-0.009,0.084-0.009c0.051,0,0.093,0.024,0.127,0.072c0.033,0.047,0.051,0.107,0.051,0.181c0,0.039-0.006,0.07-0.018,0.093
		c-0.011,0.022-0.03,0.039-0.059,0.051c-0.938,0.629-2.039,1.138-3.3,1.525c-1.262,0.388-2.415,0.582-3.461,0.582
		c-0.781,0-1.374-0.185-1.778-0.553c-0.404-0.367-0.607-0.897-0.607-1.589c0-0.567,0.13-1.215,0.389-1.942
		c0.258-0.729,0.623-1.479,1.096-2.255c-0.579,0.011-1.441,0.064-2.588,0.16c-0.236,0.022-0.407,0.036-0.515,0.042
		c0.079-0.202,0.179-0.382,0.3-0.54c0.12-0.157,0.263-0.286,0.425-0.388c0.776-0.027,1.585-0.048,2.428-0.059
		c0.197-0.006,0.354-0.009,0.473-0.009c0.618-0.882,1.297-1.63,2.035-2.242c0.739-0.612,1.354-0.919,1.842-0.919
		c0.146,0,0.265,0.053,0.354,0.156c0.09,0.104,0.135,0.243,0.135,0.417c0,0.41-0.083,0.843-0.249,1.299
		c-0.165,0.455-0.405,0.901-0.721,1.34c0.916,0.017,1.675,0.029,2.276,0.038S131.284,206.309,131.964,206.309z M126.813,206.899
		l-1.686,0.051c-0.36,0.557-0.683,1.112-0.97,1.669c-0.286,0.557-0.483,1-0.59,1.332c0.545-0.399,1.118-0.88,1.72-1.441
		C125.889,207.947,126.397,207.411,126.813,206.899z M127.935,204.531c0-0.102-0.012-0.182-0.033-0.24
		c-0.022-0.06-0.057-0.089-0.102-0.089c-0.304,0.106-0.599,0.278-0.885,0.514c-0.287,0.236-0.585,0.554-0.894,0.953
		c-0.057,0.073-0.13,0.173-0.22,0.299c-0.09,0.127-0.148,0.213-0.177,0.258c0.449,0,0.789,0.001,1.02,0.004s0.436,0.007,0.616,0.013
		c0.213-0.292,0.379-0.595,0.497-0.906C127.876,205.023,127.935,204.755,127.935,204.531z"/>
	<path fill="#C7AE21" d="M150.303,211.088c0,0.039-0.006,0.07-0.018,0.093c-0.011,0.022-0.03,0.039-0.059,0.051
		c-1.265,0.72-2.265,1.227-3.001,1.521s-1.329,0.442-1.778,0.442c-0.365,0-0.7-0.167-1.004-0.502
		c-0.303-0.334-0.601-0.886-0.893-1.656c-0.04-0.101-0.096-0.255-0.169-0.463c-0.124-0.371-0.211-0.557-0.262-0.557
		c-0.5,0.135-1.049,0.355-1.647,0.661c-0.599,0.307-1.224,0.69-1.876,1.151c-0.219,0.157-0.528,0.404-0.927,0.741
		c-0.399,0.338-0.644,0.506-0.733,0.506c-0.32,0-0.553-0.061-0.695-0.181c-0.144-0.121-0.216-0.325-0.216-0.611
		c0-0.118,0.048-0.352,0.144-0.7c0.096-0.348,0.267-0.898,0.515-1.651c0-0.096-0.085-0.203-0.253-0.32
		c-0.169-0.118-0.31-0.183-0.422-0.194c-0.416,0-1.25,0.395-2.503,1.185c-1.254,0.789-2.555,1.758-3.903,2.903
		c-0.202,0-0.359-0.049-0.472-0.147c-0.112-0.098-0.197-0.29-0.253-0.577c0.494-0.753,0.911-1.487,1.251-2.204
		c0.341-0.717,0.643-1.502,0.906-2.356c0.157,0,0.3,0.032,0.426,0.098c0.127,0.064,0.249,0.164,0.367,0.299v0.539
		c0,0.136-0.073,0.391-0.22,0.768c-0.033,0.079-0.059,0.141-0.075,0.186c-0.073,0.19-0.138,0.411-0.194,0.661
		c-0.056,0.251-0.087,0.466-0.093,0.646c0.281-0.169,1.219-0.746,2.812-1.732s2.479-1.508,2.659-1.563
		c0.338,0.096,0.576,0.219,0.717,0.37c0.141,0.152,0.211,0.352,0.211,0.599c0,0.124-0.01,0.266-0.029,0.426
		c-0.021,0.16-0.061,0.387-0.123,0.679c-0.005,0.028-0.014,0.076-0.024,0.144c-0.085,0.461-0.127,0.814-0.127,1.062
		c0,0.096,0.004,0.188,0.013,0.278s0.021,0.183,0.038,0.278c0.241-0.141,0.532-0.317,0.872-0.531
		c0.34-0.213,0.738-0.469,1.193-0.767c0.168-0.106,0.413-0.262,0.733-0.464c1.32-0.843,2.031-1.265,2.132-1.265
		c0.349,0,0.614,0.075,0.797,0.224c0.183,0.149,0.322,0.397,0.417,0.746c0.22,1.051,0.441,1.706,0.666,1.964
		c0.225,0.259,0.591,0.388,1.097,0.388c0.297,0,0.872-0.163,1.724-0.488c0.852-0.326,1.507-0.624,1.968-0.894
		c0.018-0.012,0.035-0.02,0.055-0.025s0.047-0.009,0.08-0.009c0.051,0,0.093,0.024,0.127,0.072
		C150.285,210.955,150.303,211.015,150.303,211.088z"/>
	<path fill="#C7AE21" d="M159.317,211.088c0,0.039-0.005,0.07-0.017,0.093c-0.011,0.022-0.031,0.039-0.059,0.051
		c-1.181,0.72-2.343,1.256-3.486,1.61c-1.144,0.354-2.3,0.53-3.469,0.53c-0.809,0-1.457-0.228-1.942-0.683
		c-0.486-0.455-0.729-1.067-0.729-1.838c0-0.803,0.438-1.638,1.315-2.503c0.876-0.865,1.834-1.332,2.874-1.399
		c0.377,0.056,0.65,0.153,0.822,0.291c0.171,0.138,0.273,0.375,0.308,0.712c0,0.545-0.319,1.089-0.957,1.631
		c-0.638,0.543-1.614,1.098-2.929,1.665l0.235,0.396c0.197,0.23,0.47,0.426,0.818,0.586c0.348,0.16,0.719,0.251,1.112,0.273
		c0.859,0,1.835-0.151,2.925-0.455c1.091-0.304,2.046-0.696,2.866-1.18c0.017-0.012,0.035-0.02,0.055-0.025s0.047-0.009,0.08-0.009
		c0.051,0,0.093,0.024,0.127,0.072C159.301,210.955,159.317,211.015,159.317,211.088z M153.948,208.206
		c-0.051-0.096-0.106-0.171-0.169-0.228c-0.062-0.057-0.121-0.084-0.177-0.084c-0.438,0-0.996,0.301-1.673,0.901
		c-0.678,0.602-1.059,1.161-1.143,1.678c0.764-0.073,1.482-0.346,2.153-0.817C153.612,209.183,153.948,208.7,153.948,208.206z"/>
	<path fill="#C7AE21" d="M171.839,211.088c0,0.039-0.006,0.07-0.017,0.093c-0.012,0.022-0.031,0.039-0.059,0.051
		c-1.242,0.674-2.273,1.153-3.094,1.438c-0.821,0.283-1.565,0.425-2.234,0.425c-0.382,0-0.708-0.232-0.978-0.699
		s-0.503-1.211-0.7-2.233c-0.056-0.057-0.199-0.141-0.43-0.253c-0.045-0.022-0.075-0.037-0.093-0.043
		c-0.606,0.062-1.461,0.451-2.562,1.168s-2.301,1.662-3.6,2.837c-0.146,0-0.276-0.051-0.392-0.152
		c-0.115-0.101-0.173-0.216-0.173-0.346c0-0.101,0.073-0.28,0.22-0.539c0.017-0.034,0.03-0.06,0.042-0.076
		c0.067-0.123,0.196-0.349,0.388-0.674c0.73-1.254,1.186-2.142,1.365-2.664c0.102-0.084,0.231-0.154,0.392-0.211
		c0.16-0.056,0.309-0.084,0.443-0.084c0.084,0,0.152,0.017,0.206,0.051c0.054,0.033,0.08,0.078,0.08,0.135
		c0,0.011-0.003,0.025-0.009,0.042c-0.005,0.017-0.008,0.028-0.008,0.033c-0.079,0.259-0.253,0.71-0.522,1.354
		c-0.271,0.644-0.422,1.007-0.455,1.092c1.68-1.276,2.885-2.139,3.616-2.588c0.73-0.45,1.25-0.675,1.56-0.675
		c0.19,0,0.37,0.121,0.539,0.362c0.169,0.242,0.379,0.726,0.632,1.45c0.018,0.045,0.04,0.109,0.067,0.194
		c0.371,1.09,0.688,1.635,0.953,1.635c0.736,0,1.455-0.108,2.158-0.324c0.702-0.217,1.483-0.555,2.343-1.016
		c0.017-0.012,0.037-0.02,0.06-0.025s0.05-0.009,0.084-0.009c0.051,0,0.093,0.024,0.126,0.072
		C171.822,210.955,171.839,211.015,171.839,211.088z"/>
	<path fill="#C7AE21" d="M181.149,206.309c0,0.096-0.074,0.202-0.224,0.32c-0.148,0.118-0.299,0.177-0.45,0.177
		c-0.664,0-1.286,0.004-1.867,0.013c-0.582,0.009-1.261,0.024-2.036,0.047c-0.483,0.668-1.078,1.356-1.783,2.064
		s-1.429,1.349-2.17,1.922c-0.006,0.028-0.01,0.062-0.013,0.102s-0.005,0.096-0.005,0.169c0.067,0.28,0.262,0.562,0.582,0.843
		s0.686,0.467,1.096,0.557c1.102,0,2.175-0.14,3.221-0.418c1.045-0.278,2.028-0.689,2.95-1.234c0.017-0.012,0.036-0.02,0.059-0.025
		s0.051-0.009,0.084-0.009c0.051,0,0.093,0.024,0.127,0.072c0.033,0.047,0.051,0.107,0.051,0.181c0,0.039-0.006,0.07-0.018,0.093
		c-0.011,0.022-0.03,0.039-0.059,0.051c-0.938,0.629-2.039,1.138-3.3,1.525c-1.262,0.388-2.415,0.582-3.461,0.582
		c-0.781,0-1.374-0.185-1.778-0.553c-0.404-0.367-0.607-0.897-0.607-1.589c0-0.567,0.13-1.215,0.389-1.942
		c0.258-0.729,0.623-1.479,1.096-2.255c-0.579,0.011-1.441,0.064-2.588,0.16c-0.236,0.022-0.407,0.036-0.515,0.042
		c0.079-0.202,0.179-0.382,0.3-0.54c0.12-0.157,0.263-0.286,0.425-0.388c0.776-0.027,1.585-0.048,2.428-0.059
		c0.197-0.006,0.354-0.009,0.473-0.009c0.618-0.882,1.297-1.63,2.035-2.242c0.739-0.612,1.354-0.919,1.842-0.919
		c0.146,0,0.265,0.053,0.354,0.156c0.09,0.104,0.135,0.243,0.135,0.417c0,0.41-0.083,0.843-0.249,1.299
		c-0.165,0.455-0.405,0.901-0.721,1.34c0.916,0.017,1.675,0.029,2.276,0.038S180.47,206.309,181.149,206.309z M175.999,206.899
		l-1.686,0.051c-0.36,0.557-0.683,1.112-0.97,1.669c-0.286,0.557-0.483,1-0.59,1.332c0.545-0.399,1.118-0.88,1.72-1.441
		C175.074,207.947,175.583,207.411,175.999,206.899z M177.12,204.531c0-0.102-0.012-0.182-0.033-0.24
		c-0.022-0.06-0.057-0.089-0.102-0.089c-0.304,0.106-0.599,0.278-0.885,0.514c-0.287,0.236-0.585,0.554-0.894,0.953
		c-0.057,0.073-0.13,0.173-0.22,0.299c-0.09,0.127-0.148,0.213-0.177,0.258c0.449,0,0.789,0.001,1.02,0.004s0.436,0.007,0.616,0.013
		c0.213-0.292,0.379-0.595,0.497-0.906C177.062,205.023,177.12,204.755,177.12,204.531z"/>
</g>
<g>
	<path fill="#C7AE21" d="M79.255,13.849c0,0.021-0.005,0.046-0.013,0.068c-0.009,0.022-0.021,0.037-0.038,0.05
		c-0.45,0.214-0.896,0.367-1.336,0.463s-1.004,0.143-1.69,0.143c-1.393,0-3.277-0.376-5.652-1.132
		c-2.375-0.756-3.612-1.145-3.713-1.169c-0.494,0.292-1.052,0.522-1.673,0.687c-0.621,0.165-1.252,0.249-1.893,0.249
		c-0.45,0-0.803-0.075-1.062-0.224c-0.258-0.149-0.416-0.37-0.472-0.659c0.012-0.348,0.278-0.69,0.801-1.026
		c0.522-0.333,1.149-0.532,1.88-0.594c0.455,0,0.9,0.025,1.335,0.078c0.436,0.05,0.848,0.121,1.235,0.218
		c0.798-1.107,1.815-2.606,3.052-4.494l0.557-0.843c1.247-1.903,2.465-3.325,3.654-4.261C75.415,0.466,76.597,0,77.771,0
		c0.365,0,0.705,0.19,1.016,0.569c0.312,0.379,0.468,0.833,0.468,1.362c0,1.08-0.604,2.149-1.812,3.216
		c-1.208,1.064-2.428,1.748-3.659,2.053c-0.067,0-0.119-0.016-0.155-0.043s-0.061-0.072-0.072-0.134V7.013
		c0-0.056,0.023-0.109,0.072-0.155c0.047-0.05,0.1-0.072,0.155-0.072c0.979-0.37,1.97-1.172,2.976-2.404
		c1.006-1.228,1.509-2.202,1.509-2.914c0-0.327-0.079-0.575-0.235-0.746c-0.158-0.171-0.383-0.258-0.675-0.258
		c-0.59,0-1.203,0.289-1.842,0.868c-0.638,0.579-1.451,1.574-2.44,2.986L73.05,4.348c-2.175,3.104-3.968,5.399-5.378,6.889
		c0.332,0.118,0.877,0.311,1.635,0.582c4.075,1.443,6.715,2.165,7.924,2.165c0.365,0,0.684-0.025,0.957-0.075
		s0.546-0.131,0.822-0.236c0.073,0,0.132,0.019,0.177,0.05C79.232,13.756,79.255,13.799,79.255,13.849z M65.843,12.036
		c-0.427-0.112-0.766-0.187-1.016-0.221c-0.25-0.037-0.499-0.056-0.746-0.056c-0.315,0-0.625,0.062-0.928,0.187
		c-0.303,0.121-0.455,0.243-0.455,0.361v0.019c0.112,0.14,0.254,0.233,0.425,0.277c0.171,0.043,0.454,0.068,0.847,0.068
		c0.248,0,0.552-0.043,0.915-0.127s0.645-0.19,0.848-0.32c0.039-0.016,0.067-0.034,0.084-0.056c0.017-0.019,0.025-0.047,0.025-0.078
		V12.036z"/>
	<path fill="#C7AE21" d="M87.583,10.077c0,0.041-0.006,0.071-0.017,0.093c-0.012,0.022-0.031,0.041-0.059,0.05
		c-0.382,0.202-0.806,0.367-1.272,0.491c-0.467,0.122-0.902,0.184-1.307,0.184c-0.444,0-0.945-0.084-1.504-0.255
		c-0.559-0.174-0.996-0.37-1.311-0.597c-0.202,0.32-0.445,0.647-0.729,0.977c-0.284,0.327-0.535,0.572-0.754,0.737
		c-0.27,0.19-0.617,0.364-1.041,0.522c-0.425,0.156-0.774,0.236-1.05,0.236c-0.708,0-1.256-0.165-1.644-0.494
		c-0.387-0.33-0.582-0.781-0.582-1.353c0-0.398,0.103-0.827,0.308-1.281c0.206-0.454,0.477-0.852,0.813-1.188
		c0.287-0.286,0.63-0.538,1.029-0.75c0.398-0.215,0.744-0.32,1.036-0.32c0.022,0,0.093,0.003,0.211,0.006
		c0.118,0.006,0.21,0.01,0.278,0.01h0.118c0.067-0.134,0.142-0.233,0.223-0.299s0.176-0.096,0.282-0.096
		c0.057,0,0.138,0.009,0.245,0.034c0.107,0.021,0.219,0.05,0.338,0.084c0.314,0.14,0.561,0.382,0.737,0.728
		c0.177,0.345,0.266,0.765,0.266,1.26c0.146,0.451,0.456,0.812,0.931,1.088c0.475,0.277,1.038,0.414,1.689,0.414
		c0.557,0,1.027-0.041,1.412-0.125c0.385-0.081,0.735-0.208,1.05-0.382c0.012-0.006,0.026-0.009,0.046-0.016
		c0.02-0.006,0.046-0.009,0.08-0.009c0.051,0,0.093,0.025,0.126,0.071C87.565,9.943,87.583,10.005,87.583,10.077z M81.521,9.529
		c-0.405-0.336-0.704-0.638-0.897-0.902c-0.194-0.265-0.322-0.522-0.384-0.774c-0.725,0.028-1.354,0.336-1.888,0.927
		c-0.534,0.591-0.801,1.11-0.801,1.558c0,0.404,0.106,0.728,0.32,0.97s0.528,0.392,0.944,0.448c0.703,0,1.308-0.208,1.817-0.625
		C81.141,10.714,81.438,10.182,81.521,9.529z"/>
	<path fill="#C7AE21" d="M100.104,10.077c0,0.041-0.005,0.071-0.016,0.093c-0.012,0.022-0.031,0.041-0.06,0.05
		c-1.242,0.675-2.273,1.154-3.094,1.44c-0.821,0.283-1.565,0.423-2.234,0.423c-0.382,0-0.708-0.233-0.978-0.7
		c-0.27-0.466-0.503-1.21-0.7-2.233c-0.056-0.056-0.199-0.14-0.43-0.252C92.548,8.876,92.518,8.86,92.5,8.854
		c-0.606,0.062-1.461,0.451-2.562,1.169c-1.101,0.715-2.301,1.661-3.599,2.836c-0.146,0-0.277-0.049-0.392-0.152
		c-0.115-0.103-0.172-0.218-0.172-0.345c0-0.103,0.073-0.28,0.218-0.541c0.017-0.031,0.031-0.059,0.043-0.075
		c0.067-0.125,0.197-0.348,0.387-0.675c0.73-1.253,1.186-2.14,1.366-2.662c0.101-0.084,0.232-0.156,0.392-0.211
		c0.16-0.056,0.308-0.084,0.442-0.084c0.084,0,0.153,0.016,0.207,0.05c0.053,0.034,0.08,0.078,0.08,0.133
		c0,0.013-0.003,0.028-0.009,0.044c-0.006,0.016-0.008,0.028-0.008,0.034c-0.079,0.258-0.253,0.709-0.523,1.353
		c-0.27,0.644-0.421,1.008-0.456,1.092c1.68-1.275,2.886-2.14,3.616-2.587c0.731-0.451,1.25-0.675,1.56-0.675
		c0.191,0,0.371,0.121,0.54,0.36c0.168,0.243,0.379,0.728,0.632,1.453c0.017,0.043,0.04,0.109,0.068,0.193
		c0.371,1.092,0.688,1.636,0.952,1.636c0.736,0,1.456-0.109,2.158-0.327c0.703-0.214,1.484-0.553,2.344-1.014
		c0.017-0.013,0.036-0.019,0.059-0.025c0.022-0.006,0.05-0.009,0.085-0.009c0.05,0,0.092,0.025,0.126,0.071
		C100.088,9.943,100.104,10.005,100.104,10.077z"/>
	<path fill="#C7AE21" d="M112.718,10.077c0,0.041-0.005,0.071-0.016,0.093c-0.013,0.022-0.031,0.041-0.06,0.05
		c-0.657,0.429-1.416,0.774-2.276,1.039c-0.858,0.265-1.623,0.395-2.292,0.395s-1.268-0.071-1.796-0.218
		c-0.527-0.146-0.972-0.364-1.333-0.65c-0.617,0.333-1.47,0.693-2.557,1.088c-1.088,0.392-1.795,0.588-2.121,0.588
		c-0.404,0-0.733-0.137-0.985-0.417c-0.253-0.277-0.38-0.576-0.38-0.896c0-0.843,0.481-1.658,1.441-2.444
		c0.961-0.787,1.995-1.303,3.103-1.542c0.181-1.253,0.809-2.737,1.888-4.454c1.079-1.714,2.165-2.569,3.253-2.569
		c0.519,0,0.965,0.261,1.341,0.787s0.566,1.054,0.566,1.589c0,1.163-0.417,2.429-1.254,3.797c-0.833,1.368-1.966,2.612-3.393,3.729
		c0.305,0.261,0.672,0.454,1.105,0.584c0.433,0.127,0.909,0.193,1.432,0.193c0.647,0,1.373-0.096,2.181-0.292
		c0.806-0.193,1.42-0.417,1.841-0.668c0.018-0.013,0.034-0.019,0.057-0.025c0.019-0.006,0.045-0.009,0.079-0.009
		c0.051,0,0.092,0.025,0.126,0.071C112.702,9.943,112.718,10.005,112.718,10.077z M104.205,9.927
		c-0.158-0.261-0.323-0.566-0.497-0.92c-0.175-0.354-0.312-0.663-0.414-0.927l-0.522,0.084c-0.398,0.021-0.917,0.326-1.559,0.914
		c-0.641,0.588-0.961,1.101-0.961,1.54c0,0.218,0.047,0.448,0.143,0.688c0.096,0.239,0.211,0.404,0.346,0.5l0.878-0.118
		c0.387-0.118,0.809-0.333,1.262-0.641C103.338,10.739,103.777,10.363,104.205,9.927z M109.423,2.5c0-0.286-0.104-0.572-0.316-0.855
		c-0.211-0.286-0.463-0.448-0.756-0.485c-1.021,0.208-1.954,0.973-2.797,2.295c-0.843,1.325-1.265,2.668-1.265,4.034
		c0,0.243,0.091,0.544,0.271,0.908c0.179,0.361,0.356,0.619,0.53,0.771c0.663-0.348,1.428-1.033,2.294-2.05
		c0.864-1.017,1.457-1.968,1.777-2.858c0.062-0.174,0.121-0.46,0.178-0.858C109.395,3.001,109.423,2.703,109.423,2.5z"/>
	<path fill="#C7AE21" d="M123.581,10.077c0,0.041-0.006,0.071-0.019,0.093c-0.011,0.022-0.031,0.041-0.06,0.05
		c-0.383,0.202-0.806,0.367-1.271,0.491c-0.467,0.122-0.902,0.184-1.307,0.184c-0.444,0-0.945-0.084-1.505-0.255
		c-0.56-0.174-0.995-0.37-1.312-0.597c-0.202,0.32-0.446,0.647-0.729,0.977c-0.283,0.327-0.535,0.572-0.755,0.737
		c-0.269,0.19-0.617,0.364-1.04,0.522c-0.426,0.156-0.774,0.236-1.051,0.236c-0.706,0-1.256-0.165-1.643-0.494
		c-0.389-0.33-0.582-0.781-0.582-1.353c0-0.398,0.104-0.827,0.309-1.281s0.476-0.852,0.812-1.188
		c0.288-0.286,0.632-0.538,1.029-0.75c0.398-0.215,0.743-0.32,1.036-0.32c0.023,0,0.093,0.003,0.211,0.006
		c0.118,0.006,0.212,0.01,0.278,0.01h0.118c0.067-0.134,0.142-0.233,0.223-0.299c0.082-0.065,0.178-0.096,0.283-0.096
		c0.056,0,0.137,0.009,0.245,0.034c0.106,0.021,0.218,0.05,0.336,0.084c0.314,0.14,0.562,0.382,0.737,0.728
		c0.178,0.345,0.268,0.765,0.268,1.26c0.146,0.451,0.455,0.812,0.93,1.088c0.476,0.277,1.039,0.414,1.69,0.414
		c0.557,0,1.028-0.041,1.412-0.125c0.384-0.081,0.735-0.208,1.05-0.382c0.012-0.006,0.026-0.009,0.047-0.016
		c0.019-0.006,0.046-0.009,0.08-0.009c0.05,0,0.092,0.025,0.125,0.071C123.562,9.943,123.581,10.005,123.581,10.077z M117.52,9.529
		c-0.404-0.336-0.704-0.638-0.899-0.902c-0.192-0.265-0.32-0.522-0.382-0.774c-0.725,0.028-1.356,0.336-1.888,0.927
		c-0.535,0.591-0.803,1.11-0.803,1.558c0,0.404,0.107,0.728,0.32,0.97c0.215,0.243,0.528,0.392,0.945,0.448
		c0.703,0,1.307-0.208,1.816-0.625C117.139,10.714,117.436,10.182,117.52,9.529z"/>
	<path fill="#C7AE21" d="M136.102,10.077c0,0.041-0.006,0.071-0.015,0.093c-0.013,0.022-0.031,0.041-0.06,0.05
		c-1.244,0.675-2.273,1.154-3.095,1.44c-0.82,0.283-1.564,0.423-2.232,0.423c-0.383,0-0.709-0.233-0.98-0.7
		c-0.269-0.466-0.502-1.21-0.699-2.233c-0.056-0.056-0.199-0.14-0.43-0.252c-0.045-0.022-0.074-0.038-0.093-0.043
		c-0.606,0.062-1.46,0.451-2.562,1.169c-1.102,0.715-2.3,1.661-3.599,2.836c-0.146,0-0.276-0.049-0.392-0.152
		c-0.115-0.103-0.173-0.218-0.173-0.345c0-0.103,0.073-0.28,0.219-0.541c0.016-0.031,0.031-0.059,0.042-0.075
		c0.067-0.125,0.198-0.348,0.388-0.675c0.73-1.253,1.185-2.14,1.365-2.662c0.103-0.084,0.233-0.156,0.392-0.211
		c0.162-0.056,0.309-0.084,0.443-0.084c0.084,0,0.154,0.016,0.207,0.05s0.081,0.078,0.081,0.133c0,0.013-0.003,0.028-0.01,0.044
		c-0.006,0.016-0.009,0.028-0.009,0.034c-0.078,0.258-0.252,0.709-0.522,1.353c-0.27,0.644-0.42,1.008-0.454,1.092
		c1.679-1.275,2.886-2.14,3.615-2.587c0.73-0.451,1.25-0.675,1.56-0.675c0.191,0,0.37,0.121,0.539,0.36
		c0.17,0.243,0.38,0.728,0.634,1.453c0.015,0.043,0.038,0.109,0.066,0.193c0.372,1.092,0.688,1.636,0.953,1.636
		c0.735,0,1.456-0.109,2.157-0.327c0.703-0.214,1.483-0.553,2.343-1.014c0.018-0.013,0.038-0.019,0.06-0.025s0.05-0.009,0.084-0.009
		c0.051,0,0.094,0.025,0.127,0.071C136.087,9.943,136.102,10.005,136.102,10.077z"/>
</g>
<g>
	<text transform="matrix(1 0 0 1 26.8159 39.4126)"><tspan x="0" y="0" fill="#231F20" font-family="'FuturaLT-Book'" font-size="8" letter-spacing="2">100 PALL MALL, ST JAMES,</tspan><tspan x="13.936" y="19.108" fill="#231F20" font-family="'FuturaLT-Book'" font-size="8" letter-spacing="2">LONDON, SW1Y 5NQ</tspan><tspan x="14.084" y="38.216" fill="#231F20" font-family="'FuturaLT-Book'" font-size="8" letter-spacing="2">TEL +44 2076648623</tspan></text>
</g>
<g>
	<text transform="matrix(1 0 0 1 4.7158 138.0073)"><tspan x="0" y="0" fill="#231F20" font-family="'FuturaLT-Book'" font-size="8" letter-spacing="2">NO.1, 2ND FLOOR, NIRMAL BLDG,</tspan><tspan x="-5.116" y="19.108" fill="#231F20" font-family="'FuturaLT-Book'" font-size="8" letter-spacing="2">NARIMAN POINT, MUMBAI- 400 021</tspan><tspan x="24.976" y="38.217" fill="#231F20" font-family="'FuturaLT-Book'" font-size="8" letter-spacing="2">TEL +91 2266375761/71</tspan></text>
</g>
<g>
	
		<text transform="matrix(1 0 0 1 32.2827 246.769)" fill="#231F20" font-family="'FuturaLT-Book'" font-size="8" letter-spacing="2">APP@MERAKIJEWEL.COM</text>
</g>
</svg>
