<?xml version="1.0" encoding="utf-8"?>
<!-- Generator: Adobe Illustrator 16.0.0, SVG Export Plug-In . SVG Version: 6.00 Build 0)  -->
<!DOCTYPE svg PUBLIC "-//W3C//DTD SVG 1.1//EN" "http://www.w3.org/Graphics/SVG/1.1/DTD/svg11.dtd">
<svg version="1.1" id="Layer_1" xmlns="http://www.w3.org/2000/svg" xmlns:xlink="http://www.w3.org/1999/xlink" x="0px" y="0px"
	 width="64px" height="64px" viewBox="0 0 64 64" enable-background="new 0 0 64 64" xml:space="preserve">
<g>
	<path d="M37.197,27.757h3.982c0.521,0,0.955-0.412,0.955-0.982v-3.978c0-0.522-0.434-0.938-0.955-0.938h-3.982
		c-0.521,0-0.955,0.416-0.955,0.938v3.978C36.242,27.346,36.676,27.757,37.197,27.757z"/>
	<path d="M32.003,37.632c2.946,0,5.305-2.385,5.305-5.282c0-2.947-2.359-5.34-5.305-5.34c-2.947,0-5.327,2.394-5.327,5.34
		C26.677,35.247,29.057,37.632,32.003,37.632z"/>
	<path d="M31.999,5.025C17.098,5.025,5,17.099,5,32c0,14.9,12.098,26.975,26.999,26.975C46.922,58.975,59,46.9,59,32
		C59,17.099,46.922,5.025,31.999,5.025z M45.082,40.857c0,2.331-1.877,4.221-4.226,4.221H23.142c-2.33,0-4.221-1.89-4.221-4.221
		V23.143c0-2.332,1.891-4.221,4.221-4.221h17.715c2.349,0,4.226,1.889,4.226,4.221V40.857z"/>
	<path d="M39.556,32.35c0,4.141-3.39,7.508-7.552,7.508c-4.161,0-7.565-3.367-7.565-7.508c0-0.739,0.113-1.416,0.305-2.115h-3.646
		v10.25c0,1.558,1.265,2.832,2.823,2.832h16.144c1.557,0,2.832-1.274,2.832-2.832v-10.25h-3.655
		C39.436,30.934,39.556,31.611,39.556,32.35z"/>
</g>
</svg>
