<?xml version="1.0" encoding="utf-8"?>
<!-- Generator: Adobe Illustrator 16.0.0, SVG Export Plug-In . SVG Version: 6.00 Build 0)  -->
<!DOCTYPE svg PUBLIC "-//W3C//DTD SVG 1.1//EN" "http://www.w3.org/Graphics/SVG/1.1/DTD/svg11.dtd">
<svg version="1.1" id="Layer_1" xmlns="http://www.w3.org/2000/svg" xmlns:xlink="http://www.w3.org/1999/xlink" x="0px" y="0px"
	 width="60px" height="60px" viewBox="0 0 60 60" enable-background="new 0 0 60 60" xml:space="preserve">
<g>
	<g>
		<path fill="#D4AF3C" d="M41.447,19.129c-2.095-1.092-4.374-1.298-6.539-0.829c-0.857-0.528-1.757-0.989-2.504-1.676
			c-1.287-1.179-1.955-2.792-2.016-4.521c0-0.016,0.003-0.032,0.003-0.047c0.005-0.173-0.241-0.208-0.361-0.208h-0.002
			c-0.127,0-0.343,0.079-0.338,0.239c0,0.019,0.003,0.035,0.003,0.051c-0.063,1.789-0.785,3.377-2.107,4.59
			c-0.689,0.629-1.528,1.074-2.331,1.554c-2.164-0.452-4.438-0.231-6.482,0.833c-0.316,0.162-0.082,0.427,0.193,0.412
			c1.286-0.086,2.255,0.479,2.95,1.377c-0.59,0.684-0.996,1.461-0.971,2.288c0.059,1.261,1.402,2.062,2.635,2.507
			c0.462,1.059,1.23,2.011,2.121,2.726c0.929,0.743,2.08,1.209,2.68,2.32c0.112,0.208,0.706,0.208,0.678-0.094
			c-0.176-1.942-1.076-4.055-2.982-4.806c-0.52-0.205-1.216-0.344-1.907-0.525c-0.267-0.682-0.435-1.404-0.496-2.143
			c-0.073-0.847-0.398-1.63-0.901-2.274c0.737-0.817,1.635-1.497,2.572-2.101c0.987,0.238,1.942,0.631,2.856,1.148
			c0.524,0.299,1.011,0.643,1.446,1.044c-0.729,0.729-1.257,1.685-1.342,2.709c-0.105,1.183,0.378,2.272,1.642,2.391
			c0.005,0.001,0.014,0.001,0.02,0.001c0.007,0.003,0.024,0.006,0.036,0.006v-0.003c0.026,0.003,0.055,0.007,0.087,0.006
			c0,0,0,0,0.007,0l0.009-0.001c1.295-0.103,1.784-1.094,1.759-2.305c-0.017-1.067-0.597-2.062-1.35-2.812
			c0.262-0.229,0.531-0.439,0.804-0.637c1.021-0.73,2.17-1.258,3.372-1.553c0.961,0.619,1.868,1.321,2.651,2.148
			c-0.435,0.637-0.731,1.404-0.847,2.26c-0.109,0.764-0.296,1.496-0.572,2.184c-0.639,0.164-1.271,0.248-1.851,0.473
			c-1.908,0.75-2.796,2.895-2.966,4.822c-0.029,0.314,0.58,0.219,0.683,0.025c0.601-1.115,1.79-1.572,2.716-2.338
			c0.865-0.719,1.541-1.639,2.02-2.652c1.245-0.447,2.604-1.264,2.678-2.561c0.046-0.842-0.408-1.636-1.043-2.334
			c0.688-0.883,1.704-1.389,2.968-1.303C41.309,19.533,41.791,19.311,41.447,19.129z M24.702,26.028
			c1.382,0.298,2.288,0.82,2.956,2.133c0.216,0.422,0.383,0.884,0.502,1.356c-0.574-0.5-1.252-0.877-1.873-1.351
			c-0.771-0.592-1.378-1.349-1.822-2.196C24.552,25.992,24.631,26.01,24.702,26.028z M23.342,25.053
			c-0.885-0.34-1.607-0.867-1.695-1.895c-0.053-0.607,0.293-1.191,0.656-1.684c0.108,0.193,0.217,0.399,0.305,0.612
			C23.034,23.041,23.047,24.065,23.342,25.053z M24.591,18.691c-0.648,0.432-1.507,1.026-2.233,1.735
			c-0.659-0.667-1.526-1.131-2.443-1.29c1.541-0.617,3.152-0.748,4.729-0.48C24.631,18.672,24.613,18.68,24.591,18.691z
			 M30.939,22.717c0.408,0.879,0.438,2.804-0.838,2.931c-1.041-0.116-1.185-1.23-1.091-2.104c0.094-0.834,0.507-1.531,1.062-2.121
			C30.414,21.807,30.71,22.231,30.939,22.717z M30.15,20.547c-0.018,0.018-0.04,0.033-0.064,0.053
			c-0.006-0.012-0.02-0.023-0.037-0.033c-1.221-0.986-2.637-1.716-4.125-2.123c0.41-0.249,0.823-0.488,1.232-0.719
			c1.398-0.803,2.394-2.141,2.881-3.649c0.495,1.522,1.498,2.876,2.915,3.674c0.418,0.233,0.826,0.478,1.239,0.729
			C32.752,18.891,31.378,19.604,30.15,20.547z M33.909,28.146c-0.621,0.518-1.319,0.896-1.913,1.409
			c0.132-0.493,0.306-0.973,0.516-1.427c0.616-1.327,1.627-1.822,2.969-2.115c0.056-0.012,0.116-0.021,0.17-0.037
			C35.231,26.795,34.659,27.523,33.909,28.146z M38.506,23.192c-0.017,0.739-0.785,1.325-1.327,1.671
			c-0.128,0.084-0.258,0.154-0.387,0.219c0.352-0.97,0.338-2.011,0.681-2.984c0.082-0.235,0.182-0.463,0.293-0.67
			C38.17,21.93,38.516,22.549,38.506,23.192z M37.759,20.412c-0.756-0.713-1.649-1.312-2.278-1.746
			c-0.015-0.01-0.027-0.018-0.044-0.024c1.593-0.267,3.249-0.122,4.769,0.485C39.224,19.279,38.387,19.734,37.759,20.412z"/>
	</g>
	<path fill="#D4AF3C" d="M41.442,19.129c-2.092-1.09-4.371-1.295-6.54-0.826c-0.858-0.528-1.752-0.99-2.499-1.676
		c-1.29-1.186-1.958-2.806-2.013-4.54c0-0.01,0.002-0.02,0.003-0.03c0.004-0.168-0.242-0.208-0.36-0.208h-0.005
		c-0.13,0-0.341,0.082-0.337,0.241c0,0.01,0.002,0.02,0.002,0.03c-0.057,1.797-0.781,3.393-2.106,4.613
		c-0.688,0.628-1.529,1.074-2.333,1.552c-2.162-0.45-4.438-0.233-6.482,0.831c-0.315,0.164-0.081,0.427,0.196,0.41
		c1.289-0.079,2.25,0.486,2.945,1.382c-0.586,0.687-0.997,1.46-0.963,2.288c0.051,1.267,1.414,2.07,2.65,2.514
		c0.464,1.053,1.216,2.008,2.1,2.716c0.931,0.745,2.08,1.21,2.678,2.319c0.114,0.212,0.707,0.207,0.682-0.094
		c-0.176-1.939-1.074-4.054-2.984-4.805c-0.52-0.204-1.216-0.339-1.903-0.525c-0.27-0.68-0.438-1.403-0.499-2.14
		c-0.069-0.84-0.4-1.61-0.89-2.256c0.731-0.817,1.621-1.501,2.562-2.106c0.983,0.241,1.945,0.616,2.852,1.133
		c0.528,0.3,1.013,0.652,1.448,1.052c-0.726,0.729-1.252,1.681-1.342,2.701c-0.105,1.204,0.395,2.309,1.699,2.399
		c0.001-0.006,0.002-0.011,0.002-0.017c0.032,0.004,0.049,0.021,0.087,0.019h0.003c0.001,0,0.002-0.001,0.003-0.001
		c1.302-0.099,1.788-1.089,1.767-2.31c-0.02-1.061-0.601-2.054-1.351-2.806c0.257-0.229,0.53-0.44,0.803-0.636
		c1.017-0.729,2.166-1.25,3.364-1.549c0.964,0.625,1.873,1.329,2.657,2.163c-0.429,0.635-0.729,1.389-0.849,2.238
		c-0.107,0.766-0.297,1.498-0.576,2.183c-0.632,0.164-1.269,0.248-1.844,0.473c-1.909,0.75-2.795,2.895-2.967,4.822
		c-0.027,0.317,0.584,0.219,0.688,0.026c0.601-1.114,1.785-1.573,2.711-2.339c0.866-0.715,1.525-1.639,2.003-2.648
		c1.253-0.441,2.624-1.258,2.696-2.561c0.047-0.842-0.405-1.632-1.04-2.331c0.69-0.881,1.7-1.394,2.962-1.31
		C41.309,19.533,41.791,19.311,41.442,19.129z M24.705,26.028c1.379,0.299,2.287,0.821,2.955,2.134
		c0.214,0.423,0.377,0.884,0.498,1.354c-0.573-0.497-1.251-0.874-1.866-1.348c-0.775-0.597-1.386-1.354-1.824-2.201
		C24.546,25.988,24.632,26.012,24.705,26.028z M23.348,25.058c-0.888-0.34-1.615-0.868-1.701-1.896
		c-0.052-0.608,0.292-1.191,0.657-1.68c0.111,0.193,0.215,0.394,0.309,0.604C23.035,23.042,23.05,24.069,23.348,25.058z
		 M24.596,18.693c-0.652,0.435-1.518,1.034-2.244,1.747c-0.663-0.662-1.508-1.13-2.423-1.296c1.533-0.612,3.139-0.744,4.71-0.478
		C24.625,18.676,24.609,18.684,24.596,18.693z M30.936,22.717c0.412,0.876,0.443,2.795-0.83,2.931
		c-1.042-0.115-1.192-1.229-1.095-2.103c0.092-0.831,0.506-1.521,1.05-2.108C30.402,21.819,30.709,22.234,30.936,22.717z
		 M30.151,20.55c-0.021,0.016-0.04,0.035-0.061,0.051c-0.013-0.011-0.026-0.023-0.039-0.034c-1.225-0.987-2.643-1.71-4.133-2.12
		c0.412-0.25,0.826-0.488,1.232-0.72c1.411-0.806,2.396-2.162,2.887-3.681c0.49,1.532,1.487,2.902,2.91,3.706
		c0.417,0.234,0.834,0.476,1.245,0.729C32.751,18.896,31.373,19.605,30.151,20.55z M33.909,28.148
		c-0.622,0.514-1.319,0.895-1.909,1.405c0.128-0.49,0.3-0.97,0.51-1.422c0.617-1.329,1.629-1.82,2.97-2.113
		c0.053-0.011,0.113-0.029,0.168-0.042C35.23,26.791,34.663,27.526,33.909,28.148z M38.504,23.195
		c-0.01,0.736-0.786,1.324-1.328,1.673c-0.129,0.083-0.261,0.154-0.394,0.217c0.358-0.968,0.349-2.011,0.689-2.987
		c0.082-0.234,0.183-0.452,0.293-0.66C38.164,21.94,38.512,22.55,38.504,23.195z M37.768,20.432
		c-0.759-0.723-1.658-1.328-2.291-1.764c-0.005-0.003-0.011-0.007-0.016-0.01c1.583-0.259,3.212-0.119,4.724,0.481
		C39.211,19.295,38.394,19.756,37.768,20.432z"/>
	<path fill="#D4AF3C" d="M1.998,42.104l1.87,4.084c0.084,0.177,0.146,0.268,0.205,0.264c0.053-0.003,0.112-0.063,0.17-0.184
		l1.713-3.662c0.164-0.346,0.281-0.563,0.344-0.654c0.072-0.088,0.167-0.131,0.278-0.131c0.042,0,0.11,0.005,0.198,0.014
		c0.092,0.01,0.182,0.016,0.281,0.016c0.121,0,0.275-0.012,0.461-0.032c0.091-0.01,0.162-0.016,0.208-0.016
		c0.105,0,0.154,0.047,0.154,0.13c0,0.073-0.039,0.111-0.117,0.119c-0.289,0.019-0.488,0.114-0.597,0.287
		c-0.117,0.167-0.174,0.454-0.174,0.858l0.006,0.309l0.109,2.831l0.003,0.186c0,0.422,0.072,0.73,0.221,0.932
		c0.146,0.2,0.386,0.319,0.724,0.358c0.086,0.011,0.133,0.056,0.133,0.132c0,0.085-0.107,0.126-0.309,0.126
		c-0.064,0-0.166-0.007-0.29-0.024c-0.377-0.038-0.643-0.058-0.795-0.058c-0.318,0-0.587,0.017-0.795,0.044
		c-0.204,0.034-0.344,0.049-0.416,0.049c-0.078,0-0.11-0.041-0.11-0.119c0-0.056,0.041-0.1,0.127-0.124
		c0.174-0.05,0.295-0.128,0.367-0.233c0.075-0.105,0.105-0.261,0.105-0.473c0-0.097-0.001-0.17-0.004-0.213l-0.127-3.021
		c-0.004-0.084-0.027-0.125-0.061-0.125c-0.05,0-0.107,0.082-0.188,0.248l-1.719,3.64l-0.068,0.138
		c-0.081,0.189-0.158,0.284-0.213,0.289c-0.069,0.001-0.178-0.166-0.332-0.503l-0.233-0.476l-1.459-3.254l-0.034-0.067
		c-0.016-0.023-0.028-0.033-0.055-0.033c-0.047,0-0.074,0.06-0.074,0.186l-0.004,0.147L1.439,46.39l-0.004,0.179l0.047,0.429
		c0.082,0.448,0.323,0.724,0.716,0.825C2.33,47.854,2.4,47.907,2.4,47.977c0,0.082-0.051,0.119-0.159,0.119
		c-0.082,0-0.179-0.007-0.291-0.021l-0.324-0.046c-0.084-0.012-0.199-0.018-0.363-0.018c-0.273,0-0.485,0.015-0.649,0.041
		c-0.099,0.022-0.175,0.034-0.226,0.034c-0.094,0-0.136-0.043-0.136-0.125c0-0.054,0.034-0.094,0.109-0.121
		c0.232-0.076,0.402-0.217,0.51-0.421c0.107-0.2,0.16-0.479,0.16-0.841l0.123-2.986l0.019-0.305c0-0.363-0.089-0.65-0.265-0.857
		c-0.181-0.207-0.425-0.314-0.734-0.314C0.057,42.115,0,42.072,0,41.986c0-0.09,0.067-0.132,0.194-0.132
		c0.028,0,0.066,0,0.109,0.001l0.26,0.021c0.052,0.003,0.112,0.003,0.188,0.003c0.146,0,0.281-0.006,0.422-0.024
		c0.203-0.028,0.337-0.037,0.397-0.037C1.771,41.817,1.914,41.908,1.998,42.104z M15.025,42.875v0.992
		c0,0.279,0.02,0.461,0.061,0.537c0.045,0.078,0.145,0.113,0.299,0.113l0.141-0.002l0.199-0.004h0.387c0.299,0,0.534-0.17,0.698-0.5
		l0.101-0.224c0.035-0.053,0.077-0.082,0.143-0.087c0.063-0.001,0.094,0.04,0.094,0.125c0,0.023,0,0.092-0.009,0.199
		c-0.006,0.08-0.007,0.149-0.007,0.203c0,0.097,0.01,0.328,0.039,0.688c0.018,0.229,0.028,0.436,0.028,0.61v0.233
		c0,0.044,0,0.07-0.011,0.086c-0.012,0.02-0.041,0.028-0.073,0.031c-0.077,0.006-0.122-0.052-0.144-0.174
		c-0.041-0.257-0.127-0.455-0.27-0.586c-0.082-0.074-0.179-0.119-0.291-0.142c-0.111-0.021-0.328-0.033-0.642-0.033h-0.31
		c-0.141,0-0.246,0.021-0.3,0.067c-0.053,0.042-0.087,0.131-0.107,0.267c-0.019,0.147-0.026,0.39-0.026,0.718v0.41
		c0,0.428,0.032,0.735,0.1,0.921c0.056,0.14,0.119,0.229,0.184,0.278c0.07,0.049,0.177,0.073,0.324,0.073
		c1.232,0,2.037-0.376,2.421-1.125c0.023-0.036,0.038-0.056,0.054-0.057c0.025-0.011,0.059,0.003,0.087,0.026
		c0.021,0.027,0.038,0.057,0.038,0.101c0,0.298-0.082,0.589-0.242,0.866c-0.139,0.24-0.303,0.41-0.501,0.511
		c-0.202,0.1-0.469,0.152-0.8,0.152c-0.197,0-0.413-0.013-0.648-0.034l-0.527-0.052c-0.192-0.021-0.459-0.028-0.785-0.028
		c-0.228,0-0.564,0.014-1.017,0.043c-0.122,0.009-0.21,0.012-0.266,0.012c-0.073,0-0.114-0.031-0.115-0.102
		c-0.005-0.056,0.026-0.101,0.097-0.127c0.171-0.066,0.29-0.135,0.354-0.211c0.062-0.075,0.113-0.207,0.146-0.397
		c0.032-0.161,0.052-0.378,0.052-0.657v-3.605c0-0.343-0.061-0.568-0.169-0.692c-0.11-0.123-0.338-0.21-0.688-0.253
		c-0.083-0.016-0.126-0.061-0.126-0.139c0-0.067,0.052-0.106,0.155-0.106c0.02,0,0.062,0.004,0.135,0.01
		c0.055,0.003,0.129,0.006,0.219,0.006l0.47,0.017l1.72,0.021c0.996,0,1.613-0.014,1.842-0.043c0.021-0.004,0.045-0.004,0.062-0.004
		c0.086,0,0.129,0.048,0.129,0.15c0,0.069,0.009,0.195,0.029,0.372c0.025,0.266,0.035,0.457,0.035,0.572
		c0,0.229-0.059,0.35-0.18,0.355c-0.055,0.001-0.082-0.064-0.082-0.205c0-0.302-0.108-0.518-0.331-0.655
		c-0.22-0.135-0.576-0.205-1.065-0.205h-0.561l-0.31,0.037c-0.155,0.052-0.232,0.202-0.232,0.463L15.025,42.875z M25.19,46.287
		c0,0.574,0.054,0.968,0.159,1.172c0.111,0.203,0.316,0.319,0.631,0.353c0.124,0.011,0.189,0.06,0.189,0.146
		c0,0.088-0.053,0.132-0.153,0.132c-0.029,0-0.094-0.003-0.19-0.015c-0.255-0.022-0.512-0.031-0.753-0.031
		c-0.201,0-0.386,0.005-0.544,0.02l-0.379,0.03l-0.311,0.028c-0.084,0.006-0.141,0.015-0.176,0.015
		c-0.111,0-0.166-0.044-0.166-0.126c0-0.069,0.026-0.111,0.092-0.129c0.21-0.066,0.35-0.151,0.429-0.258
		c0.079-0.11,0.118-0.274,0.118-0.497v-0.429l0.006-0.178v-3.293c0-0.363-0.045-0.609-0.139-0.732
		c-0.148-0.205-0.39-0.325-0.729-0.369c-0.123-0.018-0.186-0.066-0.186-0.158c0-0.086,0.041-0.126,0.132-0.126
		c0.024,0,0.083,0.003,0.159,0.014c0.234,0.021,0.492,0.033,0.771,0.033c0.31,0,0.678-0.015,1.113-0.047
		c0.518-0.039,0.871-0.06,1.065-0.06c0.577,0,1.057,0.153,1.435,0.47c0.382,0.316,0.568,0.712,0.568,1.19
		c0,0.3-0.079,0.574-0.248,0.818c-0.171,0.25-0.402,0.436-0.697,0.563c-0.061,0.022-0.089,0.052-0.086,0.093
		c0.001,0.027,0.015,0.065,0.039,0.105c0.034,0.044,0.072,0.111,0.125,0.217l0.407,0.718l0.467,0.832
		c0.164,0.285,0.31,0.481,0.437,0.59c0.126,0.108,0.271,0.163,0.441,0.163c0.073,0,0.136-0.006,0.197-0.018
		c0.031-0.011,0.068-0.016,0.097-0.016c0.056,0,0.09,0.037,0.09,0.107c0,0.088-0.128,0.186-0.378,0.298
		c-0.248,0.115-0.469,0.173-0.662,0.173c-0.308,0-0.598-0.157-0.866-0.463c-0.258-0.308-0.599-0.889-1.022-1.742
		c-0.165-0.338-0.299-0.551-0.405-0.637c-0.107-0.09-0.281-0.141-0.521-0.141h-0.285l-0.205,0.039
		c-0.041,0.023-0.067,0.099-0.067,0.222V46.287z M25.19,42.73v1.578c0,0.189,0.029,0.316,0.075,0.365
		c0.052,0.052,0.172,0.073,0.359,0.073c0.536,0,0.881-0.004,1.005-0.024c0.134-0.022,0.252-0.082,0.365-0.184
		c0.223-0.199,0.333-0.479,0.333-0.833c0-0.459-0.152-0.834-0.45-1.136c-0.302-0.3-0.68-0.449-1.143-0.449
		c-0.21,0-0.348,0.044-0.433,0.13C25.227,42.338,25.19,42.497,25.19,42.73z M37.636,42.338l2.072,4.762
		c0.107,0.239,0.225,0.418,0.363,0.541c0.144,0.115,0.325,0.193,0.542,0.234c0.056,0.01,0.084,0.053,0.084,0.129
		c0,0.083-0.037,0.123-0.104,0.12c-0.042-0.003-0.096-0.011-0.174-0.028c-0.235-0.051-0.613-0.077-1.134-0.077
		c-0.525,0-0.877,0.024-1.064,0.073c-0.046,0.012-0.091,0.021-0.12,0.021c-0.09,0-0.129-0.047-0.129-0.134
		c0-0.041,0.029-0.073,0.1-0.094c0.147-0.047,0.268-0.12,0.363-0.231c0.092-0.106,0.145-0.224,0.145-0.346
		c0-0.171-0.133-0.54-0.398-1.12c-0.08-0.176-0.173-0.277-0.27-0.302c-0.098-0.028-0.445-0.04-1.047-0.04h-0.621l-0.412,0.072
		c-0.109,0.051-0.235,0.252-0.373,0.602l-0.144,0.351c-0.044,0.101-0.067,0.197-0.067,0.306c0,0.378,0.27,0.6,0.806,0.661
		c0.115,0.018,0.17,0.062,0.165,0.138c-0.001,0.076-0.057,0.117-0.158,0.117c-0.057,0-0.133-0.006-0.234-0.026
		c-0.206-0.04-0.384-0.062-0.543-0.062c-0.143,0-0.375,0.019-0.694,0.047c-0.231,0.023-0.386,0.038-0.442,0.038
		c-0.082,0-0.131-0.038-0.131-0.112c0-0.063,0.049-0.109,0.131-0.14c0.162-0.052,0.296-0.146,0.396-0.284
		c0.102-0.138,0.24-0.428,0.437-0.869l1.244-2.871c0.103-0.227,0.171-0.379,0.21-0.467l0.426-0.869l0.218-0.426v0.009
		c0.102-0.229,0.161-0.343,0.198-0.343c0.047,0,0.133,0.127,0.25,0.379L37.636,42.338z M37.807,45.189l-0.598-1.392
		c-0.146-0.335-0.246-0.499-0.303-0.499c-0.034,0-0.1,0.107-0.199,0.32l-0.086,0.193l-0.532,1.213l-0.052,0.113
		c-0.019,0.047-0.032,0.086-0.032,0.118c0,0.107,0.111,0.157,0.325,0.157h1.35c0.114,0,0.17-0.034,0.17-0.1
		c0-0.012-0.003-0.038-0.022-0.075L37.807,45.189z M47.404,43.165v1.654c0,0.112,0.025,0.171,0.076,0.176
		c0.025,0,0.1-0.047,0.217-0.138l0.447-0.403l0.636-0.562c0.839-0.751,1.257-1.263,1.257-1.539c0-0.09-0.04-0.161-0.117-0.216
		c-0.087-0.057-0.188-0.082-0.316-0.082c-0.099,0-0.143-0.042-0.143-0.124c0-0.079,0.055-0.119,0.166-0.119
		c0.123,0,0.255,0.009,0.384,0.022c0.325,0.039,0.555,0.054,0.687,0.054c0.096,0,0.219-0.009,0.36-0.023
		c0.304-0.035,0.528-0.053,0.647-0.053c0.11,0,0.161,0.044,0.161,0.134c0,0.068-0.065,0.113-0.205,0.135
		c-0.211,0.032-0.452,0.149-0.719,0.337c-0.275,0.19-0.655,0.521-1.162,0.989c-0.231,0.221-0.388,0.368-0.473,0.438
		c-0.255,0.217-0.38,0.376-0.38,0.479c0,0.075,0.07,0.207,0.202,0.398l0.331,0.442c0.761,1.046,1.312,1.74,1.651,2.087
		c0.241,0.245,0.581,0.426,1.015,0.547l0.1,0.026c0.073,0.023,0.113,0.069,0.11,0.151c-0.005,0.07-0.052,0.111-0.144,0.111
		c-0.032,0-0.073-0.005-0.135-0.012c-0.29-0.029-0.545-0.046-0.754-0.046c-0.096,0-0.197,0.003-0.3,0.017
		c-0.2,0.024-0.32,0.041-0.366,0.041c-0.159,0-0.303-0.082-0.432-0.237c-0.009-0.02-0.07-0.088-0.17-0.216
		c-0.261-0.311-0.6-0.744-1.017-1.295c-0.409-0.545-0.665-0.904-0.765-1.07c-0.081-0.144-0.152-0.211-0.205-0.211
		c-0.035,0-0.084,0.026-0.14,0.082l-0.132,0.131l-0.199,0.191c-0.082,0.082-0.129,0.162-0.147,0.247
		c-0.018,0.082-0.028,0.254-0.028,0.516v0.198c0,0.492,0.049,0.842,0.148,1.053c0.106,0.202,0.281,0.316,0.533,0.337
		c0.165,0.011,0.249,0.056,0.249,0.134c0,0.097-0.049,0.144-0.146,0.144c-0.061,0-0.157-0.015-0.284-0.038
		c-0.169-0.027-0.378-0.04-0.635-0.04c-0.343,0-0.66,0.015-0.967,0.048c-0.194,0.016-0.349,0.027-0.467,0.027
		c-0.12,0-0.18-0.049-0.18-0.137c0-0.062,0.037-0.095,0.119-0.112c0.216-0.034,0.365-0.128,0.456-0.286
		c0.083-0.165,0.123-0.432,0.123-0.818V43.08l0.004-0.178l-0.042-0.262c-0.046-0.164-0.129-0.288-0.258-0.375
		c-0.126-0.083-0.31-0.139-0.548-0.162c-0.072-0.009-0.114-0.023-0.131-0.044c-0.016-0.017-0.023-0.062-0.023-0.132
		c0-0.072,0.04-0.107,0.129-0.107c0.075,0,0.149,0.005,0.226,0.014c0.313,0.033,0.677,0.048,1.098,0.048
		c0.355,0,0.681-0.011,0.962-0.041c0.076-0.012,0.146-0.019,0.201-0.021c0.091,0,0.132,0.035,0.132,0.121
		c0,0.055-0.035,0.094-0.111,0.113c-0.267,0.066-0.428,0.156-0.494,0.263c-0.061,0.106-0.089,0.331-0.089,0.683L47.404,43.165z
		 M58.92,46.643l0.039,0.457c0.037,0.232,0.125,0.413,0.263,0.541c0.144,0.12,0.326,0.183,0.558,0.183
		c0.146,0,0.221,0.046,0.221,0.138c0,0.09-0.096,0.135-0.295,0.135c-0.082,0-0.205-0.007-0.368-0.023
		c-0.396-0.044-0.713-0.068-0.958-0.068c-0.303,0-0.546,0.02-0.723,0.048c-0.148,0.034-0.262,0.044-0.323,0.044
		c-0.067,0-0.114-0.03-0.129-0.097l-0.01-0.038l0.13-0.105c0.217-0.08,0.36-0.179,0.434-0.29c0.075-0.112,0.108-0.302,0.108-0.565
		l0.003-0.402v-3.632c0-0.276-0.047-0.474-0.143-0.595c-0.101-0.117-0.274-0.197-0.532-0.234c-0.157-0.024-0.255-0.05-0.302-0.074
		c-0.043-0.021-0.064-0.061-0.064-0.117c0-0.086,0.038-0.125,0.111-0.125c0.051,0.002,0.135,0.014,0.246,0.035
		c0.105,0.023,0.291,0.037,0.551,0.037c0.171,0,0.381-0.012,0.635-0.029l0.33-0.025c0.313-0.023,0.554-0.036,0.723-0.036
		c0.095,0,0.145,0.039,0.145,0.111c0,0.054-0.009,0.094-0.021,0.114c-0.015,0.016-0.048,0.031-0.109,0.041
		c-0.222,0.035-0.36,0.097-0.424,0.179c-0.064,0.089-0.095,0.259-0.095,0.52V46.643z"/>
</g>
</svg>
