<?xml version="1.0" encoding="utf-8"?>
<!-- Generator: Adobe Illustrator 18.1.1, SVG Export Plug-In . SVG Version: 6.00 Build 0)  -->
<svg version="1.1" id="Layer_1" xmlns="http://www.w3.org/2000/svg" xmlns:xlink="http://www.w3.org/1999/xlink" x="0px" y="0px"
	 viewBox="-42 44 64 64" enable-background="new -42 44 64 64" xml:space="preserve">
<g>
	<path d="M-10,49c-14.9,0-27,12.1-27,27s12.1,27,27,27c14.9,0,27-12.1,27-27S4.9,49-10,49z M-20.7,66.6H0.8c0.2,0,0.4,0,0.6,0.1
		L-9.3,77.3c-0.2,0.2-0.4,0.3-0.7,0.3s-0.5-0.1-0.7-0.3l-10.6-10.6C-21.1,66.6-20.9,66.6-20.7,66.6z M2.8,83.4c0,0.6-0.2,1-0.6,1.4
		c-0.4,0.4-0.9,0.6-1.4,0.6h-21.5c-0.6,0-1-0.2-1.4-0.6c-0.4-0.4-0.6-0.9-0.6-1.4V68.6c0-0.1,0-0.3,0.1-0.4l10.5,10.6
		c0.6,0.6,1.3,0.9,2.2,0.9c0.8,0,1.6-0.3,2.1-0.9L2.7,68.2c0,0.1,0,0.3,0,0.4V83.4z"/>
</g>
</svg>
