<?xml version="1.0" encoding="utf-8"?>
<!-- Generator: Adobe Illustrator 16.0.0, SVG Export Plug-In . SVG Version: 6.00 Build 0)  -->
<!DOCTYPE svg PUBLIC "-//W3C//DTD SVG 1.1//EN" "http://www.w3.org/Graphics/SVG/1.1/DTD/svg11.dtd">
<svg version="1.1" id="Layer_1" xmlns="http://www.w3.org/2000/svg" xmlns:xlink="http://www.w3.org/1999/xlink" x="0px" y="0px"
	 width="32.152px" height="6.624px" viewBox="0 0 32.152 6.624" enable-background="new 0 0 32.152 6.624" xml:space="preserve">
<g>
	<g>
		<path fill="#C7AE21" d="M0,6.376L1.224,0l2.192,5.064L5.616,0L6.84,6.376H6.152l-0.776-4.08H5.36L3.416,6.624L1.48,2.296H1.464
			l-0.776,4.08H0z"/>
		<path fill="#C7AE21" d="M9.608,6.376V0.344h3.128v0.624H10.28V2.76h2.384v0.624H10.28v2.368h2.456v0.624H9.608z"/>
		<path fill="#C7AE21" d="M15.88,6.376V0.344h1.136c0.501,0,0.936,0.051,1.304,0.152c0.368,0.102,0.717,0.293,1.048,0.576
			c0.667,0.576,1,1.341,1,2.296c0,0.912-0.328,1.661-0.984,2.248c-0.336,0.299-0.687,0.5-1.052,0.604
			C17.967,6.324,17.522,6.376,17,6.376H15.88z M16.552,5.752h0.488c0.411,0,0.767-0.044,1.068-0.132s0.58-0.252,0.836-0.492
			c0.501-0.469,0.751-1.059,0.751-1.768c0-0.747-0.261-1.35-0.783-1.809c-0.256-0.229-0.532-0.384-0.828-0.464
			s-0.644-0.12-1.044-0.12h-0.488V5.752z"/>
		<path fill="#C7AE21" d="M23.992,0.344v6.032H23.32V0.344H23.992z"/>
		<path fill="#C7AE21" d="M30.695,4.664H28.12l-0.728,1.712h-0.736l2.783-6.32l2.713,6.32h-0.744L30.695,4.664z M30.432,4.04
			l-1.008-2.416L28.393,4.04H30.432z"/>
	</g>
</g>
</svg>
