<?xml version="1.0" encoding="utf-8"?>
<!-- Generator: Adobe Illustrator 16.0.0, SVG Export Plug-In . SVG Version: 6.00 Build 0)  -->
<!DOCTYPE svg PUBLIC "-//W3C//DTD SVG 1.1//EN" "http://www.w3.org/Graphics/SVG/1.1/DTD/svg11.dtd">
<svg version="1.1" id="Layer_1" xmlns="http://www.w3.org/2000/svg" xmlns:xlink="http://www.w3.org/1999/xlink" x="0px" y="0px"
	 width="133.333px" height="25px" viewBox="0 0 133.333 25" enable-background="new 0 0 133.333 25" xml:space="preserve">
<g>
	<rect width="133.333" height="25"/>
	<g>
		<path fill="#FFFFFF" d="M15.324,9.312l1.667,3.646c0.073,0.161,0.135,0.239,0.184,0.236c0.049-0.002,0.099-0.059,0.149-0.166
			l1.533-3.269c0.145-0.309,0.248-0.503,0.311-0.581c0.062-0.079,0.144-0.118,0.245-0.118c0.037,0,0.098,0.005,0.179,0.013
			c0.079,0.008,0.161,0.012,0.245,0.012c0.111,0,0.248-0.01,0.412-0.028c0.084-0.008,0.146-0.013,0.188-0.013
			c0.096,0,0.143,0.039,0.143,0.117c0,0.063-0.037,0.098-0.11,0.103c-0.255,0.02-0.433,0.104-0.535,0.257
			c-0.102,0.151-0.152,0.407-0.152,0.767l0.004,0.277l0.098,2.527l0.005,0.166c0,0.374,0.065,0.651,0.197,0.83
			c0.131,0.181,0.348,0.286,0.648,0.319c0.077,0.011,0.114,0.052,0.114,0.12c0,0.075-0.092,0.112-0.276,0.112
			c-0.055,0-0.142-0.007-0.262-0.021c-0.332-0.034-0.566-0.052-0.705-0.052c-0.285,0-0.523,0.013-0.713,0.041
			c-0.18,0.025-0.302,0.04-0.367,0.04c-0.068,0-0.102-0.034-0.102-0.104c0-0.053,0.039-0.09,0.117-0.112
			c0.155-0.043,0.264-0.112,0.328-0.207c0.063-0.095,0.096-0.236,0.096-0.423c0-0.09-0.002-0.153-0.004-0.19l-0.118-2.699
			c-0.003-0.073-0.021-0.11-0.053-0.11c-0.042,0-0.098,0.075-0.168,0.225l-1.533,3.247l-0.057,0.122
			c-0.078,0.168-0.143,0.254-0.193,0.256c-0.06,0.003-0.159-0.146-0.3-0.448l-0.207-0.423l-1.303-2.905L15,10.813
			c-0.011-0.02-0.027-0.029-0.049-0.029c-0.043,0-0.064,0.056-0.064,0.168l-0.004,0.13l-0.054,2.055l-0.004,0.162l0.037,0.383
			c0.076,0.398,0.289,0.643,0.639,0.732c0.122,0.031,0.183,0.078,0.183,0.142c0,0.071-0.047,0.107-0.143,0.107
			c-0.073,0-0.16-0.007-0.261-0.021l-0.29-0.04c-0.073-0.01-0.179-0.017-0.317-0.017c-0.247,0-0.44,0.013-0.579,0.039
			c-0.09,0.018-0.158,0.026-0.204,0.026c-0.084,0-0.126-0.036-0.126-0.107c0-0.051,0.032-0.087,0.098-0.107
			c0.208-0.07,0.361-0.195,0.457-0.376c0.097-0.181,0.145-0.43,0.145-0.751l0.11-2.669l0.012-0.271c0-0.324-0.079-0.58-0.237-0.766
			c-0.159-0.186-0.377-0.278-0.653-0.278c-0.104,0-0.154-0.039-0.154-0.115c0-0.081,0.058-0.12,0.175-0.12
			c0.024,0,0.055,0.001,0.094,0.003l0.235,0.017c0.043,0.003,0.099,0.005,0.167,0.005c0.127,0,0.252-0.009,0.374-0.024
			c0.184-0.023,0.303-0.033,0.357-0.033C15.121,9.056,15.249,9.141,15.324,9.312z"/>
		<path fill="#FFFFFF" d="M26.955,10.003v0.884c0,0.253,0.019,0.412,0.055,0.48c0.037,0.066,0.126,0.101,0.267,0.101l0.122-0.003
			l0.179-0.005h0.346c0.269,0,0.477-0.148,0.623-0.442l0.094-0.2c0.024-0.049,0.064-0.075,0.122-0.077
			c0.06-0.003,0.089,0.034,0.089,0.109c0,0.022-0.004,0.083-0.012,0.181c-0.005,0.07-0.009,0.13-0.009,0.179
			c0,0.087,0.013,0.292,0.037,0.612c0.017,0.208,0.024,0.391,0.024,0.545l0.004,0.209c0,0.037-0.004,0.063-0.012,0.078
			c-0.011,0.016-0.033,0.025-0.065,0.027c-0.067,0.007-0.11-0.046-0.126-0.154c-0.035-0.229-0.116-0.405-0.244-0.524
			c-0.07-0.065-0.156-0.107-0.258-0.127c-0.103-0.018-0.293-0.027-0.572-0.027h-0.277c-0.13,0-0.219,0.02-0.266,0.059
			c-0.048,0.039-0.08,0.118-0.096,0.237c-0.017,0.135-0.024,0.35-0.024,0.642v0.366c0,0.382,0.029,0.655,0.089,0.825
			c0.047,0.12,0.102,0.203,0.163,0.247c0.062,0.042,0.158,0.065,0.289,0.065c1.102,0,1.822-0.336,2.16-1.006
			c0.02-0.033,0.036-0.051,0.049-0.053c0.028-0.006,0.053,0.004,0.076,0.026c0.022,0.022,0.034,0.052,0.034,0.088
			c0,0.267-0.072,0.524-0.216,0.774c-0.119,0.214-0.269,0.365-0.447,0.456c-0.18,0.091-0.416,0.137-0.713,0.137
			c-0.173,0-0.366-0.012-0.577-0.032l-0.473-0.046c-0.173-0.017-0.407-0.024-0.703-0.024c-0.198,0-0.499,0.013-0.903,0.037
			c-0.111,0.009-0.191,0.012-0.24,0.012c-0.065,0-0.101-0.029-0.106-0.091c-0.002-0.049,0.028-0.087,0.09-0.112
			c0.154-0.059,0.26-0.122,0.315-0.189c0.056-0.066,0.1-0.184,0.132-0.354c0.03-0.144,0.045-0.339,0.045-0.586v-3.221
			c0-0.303-0.05-0.51-0.147-0.617c-0.1-0.109-0.305-0.186-0.617-0.228c-0.073-0.012-0.11-0.053-0.11-0.121
			c0-0.063,0.045-0.096,0.135-0.096c0.02,0,0.061,0.003,0.122,0.008c0.049,0.004,0.115,0.005,0.199,0.005l0.411,0.017l1.542,0.017
			c0.887,0,1.434-0.014,1.64-0.038c0.022-0.001,0.041-0.003,0.058-0.003c0.078,0,0.117,0.044,0.117,0.134
			c0,0.063,0.009,0.174,0.024,0.333c0.022,0.236,0.033,0.405,0.033,0.51c0,0.205-0.053,0.311-0.159,0.317
			c-0.051,0.002-0.077-0.057-0.077-0.181c0-0.269-0.099-0.464-0.295-0.586c-0.196-0.12-0.515-0.183-0.954-0.183h-0.496l-0.277,0.033
			c-0.138,0.044-0.207,0.181-0.207,0.411L26.955,10.003z"/>
		<path fill="#FFFFFF" d="M36.028,13.045c0,0.515,0.048,0.864,0.143,1.047c0.096,0.183,0.282,0.288,0.562,0.314
			c0.114,0.011,0.171,0.055,0.171,0.133c0,0.077-0.046,0.116-0.139,0.116c-0.029,0-0.085-0.005-0.166-0.014
			c-0.233-0.018-0.459-0.027-0.676-0.027c-0.182,0-0.343,0.005-0.484,0.015l-0.342,0.031l-0.272,0.024
			c-0.076,0.006-0.129,0.011-0.159,0.011c-0.098,0-0.146-0.037-0.146-0.112c0-0.06,0.028-0.099,0.082-0.115
			c0.185-0.057,0.312-0.134,0.382-0.229c0.071-0.096,0.106-0.242,0.106-0.441v-0.386l0.004-0.157v-2.939
			c0-0.324-0.041-0.542-0.122-0.653c-0.133-0.182-0.35-0.291-0.651-0.328c-0.11-0.017-0.167-0.063-0.167-0.142
			c0-0.077,0.039-0.116,0.114-0.116c0.03,0,0.079,0.005,0.146,0.014c0.209,0.021,0.438,0.032,0.688,0.032
			c0.274,0,0.606-0.015,0.997-0.046c0.459-0.034,0.774-0.052,0.948-0.052c0.516,0,0.943,0.14,1.281,0.422
			c0.34,0.279,0.509,0.635,0.509,1.06c0,0.27-0.074,0.514-0.226,0.733c-0.15,0.22-0.356,0.388-0.62,0.502
			c-0.054,0.021-0.08,0.049-0.078,0.081c0.004,0.026,0.017,0.059,0.041,0.098c0.024,0.037,0.062,0.101,0.11,0.19l0.361,0.643
			l0.42,0.744c0.144,0.252,0.271,0.427,0.385,0.524c0.112,0.098,0.245,0.146,0.396,0.146c0.062,0,0.121-0.005,0.175-0.017
			c0.032-0.008,0.062-0.013,0.089-0.013c0.049,0,0.073,0.032,0.073,0.094c0,0.078-0.11,0.168-0.332,0.269
			c-0.223,0.1-0.42,0.15-0.591,0.15c-0.278,0-0.536-0.137-0.771-0.41c-0.235-0.275-0.542-0.793-0.918-1.555
			c-0.146-0.301-0.267-0.491-0.361-0.571c-0.095-0.081-0.249-0.12-0.464-0.12h-0.253l-0.183,0.032
			c-0.041,0.021-0.062,0.086-0.062,0.195V13.045z M36.028,9.87v1.407c0,0.173,0.023,0.283,0.067,0.329
			c0.045,0.047,0.151,0.07,0.32,0.07c0.484,0,0.783-0.01,0.899-0.026c0.115-0.018,0.224-0.073,0.323-0.166
			c0.199-0.179,0.298-0.425,0.298-0.74c0-0.409-0.133-0.747-0.4-1.015c-0.269-0.269-0.609-0.401-1.022-0.401
			c-0.185,0-0.312,0.039-0.381,0.117C36.063,9.521,36.028,9.663,36.028,9.87z"/>
		<path fill="#FFFFFF" d="M47.137,9.523l1.852,4.249c0.093,0.214,0.201,0.373,0.325,0.479c0.126,0.106,0.287,0.178,0.484,0.212
			c0.049,0.008,0.073,0.047,0.073,0.117c0,0.073-0.03,0.109-0.094,0.107c-0.034-0.003-0.087-0.012-0.154-0.024
			c-0.209-0.047-0.546-0.07-1.011-0.07c-0.468,0-0.785,0.021-0.954,0.065c-0.04,0.012-0.076,0.017-0.106,0.017
			c-0.075,0-0.113-0.039-0.113-0.116c0-0.039,0.029-0.068,0.089-0.088c0.131-0.037,0.238-0.105,0.324-0.203
			c0.085-0.098,0.128-0.2,0.128-0.31c0-0.151-0.117-0.484-0.353-1.001c-0.073-0.156-0.154-0.247-0.242-0.27
			c-0.088-0.023-0.399-0.034-0.936-0.034h-0.552l-0.364,0.064c-0.101,0.046-0.214,0.225-0.341,0.536l-0.127,0.312
			c-0.037,0.089-0.057,0.181-0.057,0.271c0,0.342,0.239,0.539,0.716,0.593c0.104,0.015,0.154,0.054,0.151,0.12
			c-0.005,0.071-0.055,0.107-0.146,0.107c-0.049,0-0.118-0.008-0.209-0.024c-0.179-0.034-0.339-0.052-0.48-0.052
			c-0.128,0-0.335,0.013-0.619,0.04c-0.213,0.021-0.345,0.033-0.396,0.033c-0.077,0-0.115-0.034-0.115-0.1
			c0-0.056,0.038-0.098,0.114-0.125c0.146-0.046,0.264-0.131,0.353-0.254c0.088-0.122,0.219-0.383,0.392-0.778l1.111-2.559
			c0.089-0.203,0.152-0.344,0.187-0.418l0.379-0.776l0.195-0.383v0.013c0.087-0.206,0.146-0.309,0.175-0.309
			c0.044,0,0.118,0.113,0.224,0.342L47.137,9.523z M47.29,12.067l-0.531-1.242c-0.127-0.298-0.219-0.446-0.272-0.446
			c-0.032,0-0.092,0.097-0.179,0.288l-0.077,0.171l-0.475,1.083l-0.045,0.103c-0.019,0.04-0.028,0.074-0.028,0.104
			c0,0.093,0.098,0.139,0.292,0.139h1.201c0.103,0,0.155-0.027,0.155-0.085c0-0.013-0.008-0.037-0.021-0.068L47.29,12.067z"/>
		<path fill="#FFFFFF" d="M55.856,10.261v1.476c0,0.102,0.024,0.153,0.07,0.155c0.023,0,0.089-0.041,0.195-0.122l0.397-0.358
			l0.569-0.505c0.746-0.669,1.12-1.126,1.12-1.37c0-0.081-0.035-0.146-0.106-0.195c-0.069-0.049-0.163-0.073-0.28-0.073
			c-0.086,0-0.13-0.037-0.13-0.112c0-0.068,0.051-0.104,0.151-0.104c0.11,0,0.226,0.007,0.342,0.021
			c0.291,0.032,0.495,0.049,0.612,0.049c0.086,0,0.193-0.007,0.322-0.021c0.276-0.032,0.469-0.049,0.578-0.049
			c0.096,0,0.143,0.041,0.143,0.121c0,0.06-0.06,0.101-0.18,0.12c-0.189,0.029-0.404,0.13-0.646,0.3
			c-0.24,0.171-0.585,0.467-1.031,0.887c-0.207,0.193-0.348,0.324-0.425,0.389c-0.228,0.192-0.343,0.336-0.343,0.427
			c0,0.065,0.062,0.184,0.184,0.354l0.293,0.398c0.68,0.931,1.172,1.553,1.477,1.86c0.215,0.217,0.518,0.379,0.908,0.488
			l0.085,0.024c0.068,0.02,0.101,0.063,0.098,0.132c-0.003,0.066-0.045,0.1-0.126,0.1c-0.029,0-0.068-0.002-0.117-0.009
			c-0.266-0.025-0.49-0.04-0.674-0.04c-0.088,0-0.178,0.006-0.273,0.016c-0.176,0.023-0.283,0.033-0.324,0.033
			c-0.141,0-0.268-0.07-0.381-0.212c-0.012-0.013-0.063-0.076-0.155-0.19c-0.233-0.28-0.534-0.664-0.903-1.154
			c-0.369-0.489-0.597-0.809-0.684-0.958c-0.076-0.124-0.139-0.188-0.188-0.188c-0.032,0-0.072,0.024-0.121,0.073l-0.123,0.119
			l-0.175,0.171c-0.069,0.069-0.114,0.143-0.132,0.216c-0.018,0.075-0.027,0.229-0.027,0.466v0.174c0,0.439,0.047,0.751,0.137,0.937
			c0.091,0.186,0.25,0.286,0.475,0.303c0.149,0.011,0.224,0.052,0.224,0.125c0,0.081-0.045,0.124-0.134,0.124
			c-0.052,0-0.137-0.012-0.257-0.033c-0.146-0.024-0.334-0.037-0.562-0.037c-0.304,0-0.591,0.015-0.863,0.041
			c-0.173,0.016-0.312,0.024-0.418,0.024c-0.106,0-0.159-0.039-0.159-0.119c0-0.054,0.036-0.086,0.105-0.101
			c0.195-0.029,0.331-0.116,0.405-0.258c0.074-0.143,0.111-0.386,0.111-0.729v-3.264l0.004-0.158l-0.036-0.23
			c-0.04-0.146-0.117-0.258-0.229-0.334c-0.113-0.075-0.275-0.124-0.486-0.146c-0.065-0.008-0.105-0.02-0.12-0.037
			c-0.015-0.017-0.022-0.056-0.022-0.119s0.038-0.096,0.113-0.096c0.068,0,0.137,0.005,0.204,0.013
			c0.282,0.029,0.609,0.044,0.98,0.044c0.317,0,0.604-0.013,0.858-0.041c0.07-0.008,0.131-0.013,0.18-0.016
			c0.078-0.002,0.117,0.034,0.117,0.108c0,0.049-0.033,0.083-0.102,0.1c-0.232,0.062-0.379,0.14-0.436,0.234
			c-0.057,0.093-0.085,0.296-0.085,0.612L55.856,10.261z"/>
		<path fill="#FFFFFF" d="M66.14,13.366l0.032,0.406c0.032,0.209,0.112,0.368,0.239,0.479c0.125,0.112,0.29,0.168,0.493,0.168
			c0.134,0,0.2,0.041,0.2,0.124c0,0.079-0.088,0.12-0.266,0.12c-0.075,0-0.184-0.008-0.325-0.021c-0.353-0.04-0.639-0.06-0.858-0.06
			c-0.271,0-0.484,0.015-0.643,0.042c-0.135,0.026-0.232,0.039-0.293,0.039c-0.06,0-0.098-0.029-0.114-0.088l-0.009-0.032
			l0.119-0.097c0.195-0.069,0.324-0.156,0.389-0.257c0.063-0.103,0.096-0.271,0.096-0.506l0.004-0.361v-3.237
			c0-0.251-0.043-0.429-0.131-0.532c-0.086-0.106-0.244-0.178-0.477-0.212c-0.138-0.022-0.227-0.044-0.266-0.065
			c-0.039-0.02-0.059-0.055-0.059-0.104c0-0.078,0.031-0.114,0.098-0.112c0.049,0.003,0.121,0.015,0.219,0.032
			c0.098,0.022,0.262,0.032,0.492,0.032c0.152,0,0.342-0.008,0.566-0.025l0.297-0.024c0.279-0.02,0.494-0.031,0.643-0.031
			c0.09,0,0.135,0.034,0.135,0.1c0,0.05-0.007,0.083-0.021,0.099c-0.013,0.019-0.048,0.029-0.103,0.038
			c-0.195,0.032-0.32,0.088-0.375,0.162c-0.057,0.077-0.084,0.231-0.084,0.464V13.366z"/>
		<path fill="#FFFFFF" d="M79.498,10.109v3.294l-0.004,0.366c0,0.356-0.04,0.654-0.12,0.892c-0.08,0.238-0.221,0.473-0.422,0.705
			c-0.382,0.446-0.707,0.667-0.977,0.667c-0.059,0-0.111-0.008-0.158-0.024l-0.228-0.073l-0.2-0.052
			c-0.053-0.031-0.08-0.088-0.08-0.171c0-0.049,0.007-0.105,0.02-0.171l0.098-0.518c0.014-0.078,0.041-0.117,0.082-0.117
			c0.074,0,0.168,0.062,0.28,0.184l0.157,0.176c0.121,0.136,0.225,0.202,0.311,0.202c0.209,0,0.313-0.259,0.313-0.778l-0.009-0.301
			v-3.063c0-0.63-0.007-1.048-0.021-1.255c-0.016-0.208-0.048-0.362-0.1-0.467c-0.049-0.095-0.12-0.161-0.213-0.198
			c-0.094-0.039-0.262-0.068-0.504-0.09c-0.081-0.008-0.121-0.049-0.121-0.12c0-0.093,0.062-0.141,0.187-0.141
			c0.062,0,0.155,0.005,0.276,0.017c0.383,0.034,0.599,0.052,0.647,0.052c0.095,0,0.237-0.011,0.427-0.035
			c0.391-0.048,0.619-0.07,0.684-0.07c0.123,0,0.184,0.037,0.184,0.112c0,0.047-0.041,0.083-0.122,0.107
			c-0.149,0.047-0.251,0.132-0.306,0.254C79.526,9.616,79.498,9.821,79.498,10.109z"/>
		<path fill="#FFFFFF" d="M86.428,10.003v0.884c0,0.253,0.019,0.412,0.056,0.48c0.036,0.066,0.125,0.101,0.266,0.101l0.122-0.003
			l0.179-0.005h0.346c0.27,0,0.477-0.148,0.623-0.442l0.094-0.2c0.024-0.049,0.064-0.075,0.122-0.077
			c0.06-0.003,0.089,0.034,0.089,0.109c0,0.022-0.004,0.083-0.012,0.181c-0.005,0.07-0.008,0.13-0.008,0.179
			c0,0.087,0.012,0.292,0.036,0.612c0.017,0.208,0.024,0.391,0.024,0.545l0.004,0.209c0,0.037-0.004,0.063-0.012,0.078
			c-0.011,0.016-0.033,0.025-0.065,0.027c-0.067,0.007-0.11-0.046-0.126-0.154c-0.035-0.229-0.116-0.405-0.244-0.524
			c-0.07-0.065-0.156-0.107-0.258-0.127c-0.102-0.018-0.293-0.027-0.572-0.027h-0.277c-0.129,0-0.219,0.02-0.266,0.059
			c-0.048,0.039-0.08,0.118-0.096,0.237c-0.017,0.135-0.024,0.35-0.024,0.642v0.366c0,0.382,0.03,0.655,0.089,0.825
			c0.047,0.12,0.102,0.203,0.163,0.247c0.063,0.042,0.159,0.065,0.289,0.065c1.103,0,1.822-0.336,2.161-1.006
			c0.02-0.033,0.035-0.051,0.049-0.053c0.027-0.006,0.052,0.004,0.075,0.026c0.022,0.022,0.034,0.052,0.034,0.088
			c0,0.267-0.072,0.524-0.216,0.774c-0.118,0.214-0.269,0.365-0.447,0.456s-0.416,0.137-0.712,0.137
			c-0.174,0-0.367-0.012-0.578-0.032l-0.473-0.046c-0.173-0.017-0.407-0.024-0.703-0.024c-0.197,0-0.499,0.013-0.903,0.037
			c-0.11,0.009-0.191,0.012-0.24,0.012c-0.065,0-0.101-0.029-0.106-0.091c-0.002-0.049,0.028-0.087,0.09-0.112
			c0.154-0.059,0.26-0.122,0.316-0.189c0.055-0.066,0.1-0.184,0.131-0.354c0.031-0.144,0.045-0.339,0.045-0.586v-3.221
			c0-0.303-0.049-0.51-0.147-0.617c-0.1-0.109-0.305-0.186-0.617-0.228c-0.073-0.012-0.11-0.053-0.11-0.121
			c0-0.063,0.045-0.096,0.135-0.096c0.02,0,0.061,0.003,0.122,0.008c0.049,0.004,0.116,0.005,0.2,0.005l0.41,0.017l1.543,0.017
			c0.887,0,1.434-0.014,1.639-0.038c0.022-0.001,0.041-0.003,0.058-0.003c0.079,0,0.118,0.044,0.118,0.134
			c0,0.063,0.008,0.174,0.023,0.333c0.022,0.236,0.033,0.405,0.033,0.51c0,0.205-0.053,0.311-0.158,0.317
			c-0.052,0.002-0.078-0.057-0.078-0.181c0-0.269-0.098-0.464-0.295-0.586c-0.196-0.12-0.515-0.183-0.954-0.183h-0.496L86.64,9.426
			c-0.139,0.044-0.208,0.181-0.208,0.411L86.428,10.003z"/>
		<path fill="#FFFFFF" d="M100.022,9.011c0.061-0.002,0.15,0.001,0.273,0.013c0.312,0.029,0.592,0.044,0.836,0.044
			c0.25,0,0.47-0.018,0.66-0.057l0.033-0.004c0.059,0,0.089,0.033,0.089,0.1c0,0.061-0.043,0.105-0.13,0.137
			c-0.157,0.054-0.283,0.135-0.376,0.246c-0.094,0.108-0.185,0.276-0.271,0.501l-0.24,0.591l-0.371,0.918
			c-0.281,0.7-0.453,1.13-0.517,1.289c-0.249,0.64-0.407,1.037-0.476,1.191c-0.154,0.342-0.244,0.549-0.27,0.618
			c-0.035,0.095-0.09,0.142-0.164,0.142c-0.09,0-0.158-0.059-0.205-0.174c-0.017-0.044-0.082-0.203-0.195-0.48
			c-0.422-1.017-0.717-1.788-0.885-2.315c-0.035-0.116-0.075-0.173-0.121-0.171c-0.055,0.003-0.119,0.104-0.195,0.306
			c-0.084,0.22-0.258,0.613-0.521,1.184c-0.263,0.569-0.456,0.967-0.577,1.192c-0.052,0.1-0.086,0.17-0.103,0.207
			c-0.073,0.169-0.157,0.252-0.249,0.252c-0.091,0-0.164-0.091-0.219-0.271c-0.021-0.07-0.062-0.174-0.122-0.31
			c-0.368-0.846-0.723-1.756-1.062-2.732c-0.229-0.649-0.348-0.991-0.358-1.023l-0.22-0.554c-0.146-0.371-0.317-0.564-0.513-0.581
			c-0.067-0.007-0.103-0.044-0.103-0.112c0-0.075,0.043-0.112,0.127-0.112c0.02,0,0.12,0.005,0.302,0.013l0.407,0.02
			c0.169,0.009,0.309,0.014,0.416,0.014c0.188,0,0.406-0.012,0.657-0.033l0.069-0.005c0.092,0,0.139,0.038,0.139,0.112
			c0,0.072-0.049,0.107-0.146,0.107c-0.242,0-0.363,0.116-0.363,0.347c0,0.127,0.124,0.536,0.37,1.228l0.397,1.11l0.248,0.723
			l0.139,0.382c0.068,0.195,0.131,0.293,0.19,0.293c0.071,0,0.163-0.135,0.278-0.403c0.008-0.021,0.111-0.236,0.31-0.646
			c0.067-0.138,0.173-0.367,0.313-0.689c0.076-0.176,0.141-0.324,0.195-0.443c0.022-0.047,0.033-0.081,0.033-0.103
			c0-0.024-0.01-0.06-0.029-0.108c-0.047-0.109-0.113-0.288-0.199-0.537c-0.138-0.407-0.27-0.698-0.392-0.874
			c-0.124-0.176-0.27-0.278-0.438-0.305c-0.072-0.015-0.109-0.052-0.109-0.117c0-0.071,0.053-0.107,0.155-0.107
			c0.06,0,0.124,0.003,0.195,0.008c0.381,0.033,0.604,0.049,0.673,0.049c0.465,0,0.735-0.005,0.811-0.016
			c0.12-0.014,0.203-0.021,0.25-0.024c0.07-0.002,0.105,0.042,0.105,0.133c0,0.044-0.029,0.075-0.09,0.095l-0.126,0.041
			c-0.165,0.055-0.249,0.169-0.249,0.347c0,0.169,0.143,0.641,0.424,1.414l0.424,1.162l0.174,0.48
			c0.049,0.132,0.082,0.221,0.098,0.267c0.062,0.202,0.13,0.3,0.199,0.298c0.068-0.003,0.139-0.105,0.208-0.31
			c0.017-0.049,0.1-0.25,0.249-0.605c0.064-0.157,0.174-0.45,0.329-0.879c0.079-0.213,0.183-0.489,0.31-0.828
			c0.133-0.354,0.199-0.605,0.199-0.76c0-0.195-0.047-0.337-0.143-0.427c-0.095-0.09-0.277-0.163-0.545-0.22
			c-0.078-0.017-0.115-0.052-0.11-0.104C99.914,9.056,99.952,9.014,100.022,9.011z"/>
		<path fill="#FFFFFF" d="M107.884,10.003v0.884c0,0.253,0.019,0.412,0.055,0.48c0.037,0.066,0.125,0.101,0.267,0.101l0.122-0.003
			l0.179-0.005h0.347c0.268,0,0.476-0.148,0.622-0.442l0.093-0.2c0.025-0.049,0.066-0.075,0.123-0.077
			c0.061-0.003,0.09,0.034,0.09,0.109c0,0.022-0.005,0.083-0.013,0.181c-0.005,0.07-0.009,0.13-0.009,0.179
			c0,0.087,0.013,0.292,0.037,0.612c0.016,0.208,0.024,0.391,0.024,0.545l0.004,0.209c0,0.037-0.004,0.063-0.013,0.078
			c-0.01,0.016-0.031,0.025-0.064,0.027c-0.067,0.007-0.109-0.046-0.126-0.154c-0.035-0.229-0.116-0.405-0.244-0.524
			c-0.07-0.065-0.156-0.107-0.259-0.127c-0.102-0.018-0.291-0.027-0.571-0.027h-0.276c-0.131,0-0.219,0.02-0.267,0.059
			s-0.079,0.118-0.097,0.237c-0.016,0.135-0.023,0.35-0.023,0.642v0.366c0,0.382,0.029,0.655,0.09,0.825
			c0.046,0.12,0.1,0.203,0.162,0.247c0.062,0.042,0.158,0.065,0.289,0.065c1.102,0,1.822-0.336,2.16-1.006
			c0.02-0.033,0.036-0.051,0.049-0.053c0.027-0.006,0.053,0.004,0.076,0.026c0.022,0.022,0.034,0.052,0.034,0.088
			c0,0.267-0.071,0.524-0.216,0.774c-0.119,0.214-0.269,0.365-0.447,0.456c-0.18,0.091-0.416,0.137-0.713,0.137
			c-0.173,0-0.365-0.012-0.577-0.032l-0.472-0.046c-0.174-0.017-0.408-0.024-0.705-0.024c-0.197,0-0.498,0.013-0.902,0.037
			c-0.111,0.009-0.191,0.012-0.24,0.012c-0.065,0-0.1-0.029-0.105-0.091c-0.003-0.049,0.027-0.087,0.089-0.112
			c0.155-0.059,0.26-0.122,0.315-0.189c0.056-0.066,0.1-0.184,0.133-0.354c0.029-0.144,0.045-0.339,0.045-0.586v-3.221
			c0-0.303-0.051-0.51-0.148-0.617c-0.1-0.109-0.305-0.186-0.617-0.228c-0.073-0.012-0.109-0.053-0.109-0.121
			c0-0.063,0.045-0.096,0.134-0.096c0.02,0,0.06,0.003,0.122,0.008c0.049,0.004,0.115,0.005,0.199,0.005l0.411,0.017l1.542,0.017
			c0.887,0,1.434-0.014,1.641-0.038c0.021-0.001,0.04-0.003,0.057-0.003c0.078,0,0.117,0.044,0.117,0.134
			c0,0.063,0.009,0.174,0.025,0.333c0.021,0.236,0.032,0.405,0.032,0.51c0,0.205-0.054,0.311-0.159,0.317
			c-0.051,0.002-0.077-0.057-0.077-0.181c0-0.269-0.099-0.464-0.294-0.586c-0.197-0.12-0.516-0.183-0.955-0.183h-0.496l-0.277,0.033
			c-0.139,0.044-0.207,0.181-0.207,0.411L107.884,10.003z"/>
		<path fill="#FFFFFF" d="M116.962,13.357c0,0.507,0.061,0.791,0.183,0.854c0.067,0.035,0.199,0.054,0.397,0.054
			c0.92,0,1.57-0.271,1.955-0.811c0.118-0.166,0.192-0.248,0.223-0.248c0.049,0,0.074,0.056,0.074,0.166
			c0,0.346-0.113,0.653-0.338,0.925c-0.198,0.237-0.469,0.358-0.811,0.358c-0.069,0-0.199-0.007-0.387-0.021
			c-0.049-0.002-0.211-0.012-0.488-0.027l-0.443-0.021c-0.148-0.008-0.318-0.012-0.508-0.012c-0.314,0-0.654,0.02-1.018,0.062
			c-0.111,0.013-0.186,0.02-0.224,0.02c-0.078,0-0.118-0.036-0.118-0.109c0-0.049,0.035-0.083,0.105-0.103
			c0.174-0.049,0.294-0.144,0.361-0.283c0.065-0.139,0.099-0.366,0.099-0.684v-3.394c0-0.433-0.18-0.677-0.541-0.734l-0.244-0.04
			c-0.103-0.017-0.155-0.059-0.155-0.124c0-0.083,0.041-0.125,0.123-0.125c0.027,0,0.066,0.005,0.119,0.013
			c0.037,0.002,0.09,0.008,0.158,0.017L115.66,9.1c0.166,0.017,0.29,0.024,0.371,0.024c0.13,0,0.339-0.016,0.624-0.049
			c0.212-0.021,0.428-0.032,0.648-0.032c0.162,0,0.244,0.039,0.244,0.117c0,0.065-0.059,0.101-0.176,0.107
			c-0.273,0.018-0.41,0.207-0.41,0.564V13.357z"/>
	</g>
</g>
</svg>
