<?xml version="1.0" encoding="utf-8"?>
<!-- Generator: Adobe Illustrator 16.0.0, SVG Export Plug-In . SVG Version: 6.00 Build 0)  -->
<!DOCTYPE svg PUBLIC "-//W3C//DTD SVG 1.1//EN" "http://www.w3.org/Graphics/SVG/1.1/DTD/svg11.dtd">
<svg version="1.1" id="Layer_1" xmlns="http://www.w3.org/2000/svg" xmlns:xlink="http://www.w3.org/1999/xlink" x="0px" y="0px"
	 width="133.333px" height="25px" viewBox="0 0 133.333 25" enable-background="new 0 0 133.333 25" xml:space="preserve">
<g>
	<g>
		<path d="M132.333,1v23H1V1H132.333 M133.333,0H0v25h133.333V0L133.333,0z"/>
	</g>
	<g>
		<path d="M15.324,9.311l1.667,3.645c0.074,0.162,0.135,0.243,0.182,0.241c0.05,0,0.1-0.062,0.151-0.17l1.532-3.269
			c0.145-0.309,0.248-0.5,0.311-0.576c0.062-0.086,0.144-0.125,0.246-0.125c0.036,0,0.096,0.006,0.179,0.013
			c0.079,0.008,0.16,0.012,0.244,0.012c0.112,0,0.25-0.012,0.413-0.028c0.084-0.007,0.148-0.009,0.188-0.009
			c0.096,0,0.143,0.035,0.143,0.12c0,0.058-0.037,0.096-0.111,0.099c-0.254,0.023-0.434,0.103-0.533,0.258
			c-0.104,0.154-0.155,0.407-0.155,0.767l0.004,0.276l0.098,2.528l0.005,0.163c0,0.374,0.065,0.65,0.197,0.834
			c0.131,0.177,0.348,0.286,0.649,0.313c0.076,0.013,0.116,0.057,0.116,0.121c0,0.079-0.094,0.117-0.278,0.117
			c-0.054,0-0.143-0.007-0.262-0.021c-0.332-0.035-0.566-0.056-0.704-0.056c-0.287,0-0.523,0.015-0.713,0.045
			c-0.181,0.025-0.302,0.042-0.368,0.042c-0.068,0-0.102-0.037-0.102-0.111c0-0.047,0.039-0.086,0.117-0.11
			c0.156-0.039,0.264-0.109,0.328-0.204c0.064-0.094,0.098-0.237,0.098-0.424c0-0.088-0.001-0.155-0.004-0.192l-0.12-2.699
			c-0.002-0.068-0.019-0.107-0.053-0.107c-0.041,0-0.096,0.071-0.167,0.221l-1.534,3.248l-0.057,0.123
			c-0.078,0.168-0.144,0.259-0.194,0.259c-0.06,0.002-0.158-0.146-0.298-0.45l-0.208-0.424l-1.303-2.905L15,10.814
			c-0.009-0.021-0.027-0.032-0.049-0.032c-0.043,0-0.066,0.061-0.066,0.17l-0.003,0.131l-0.053,2.053L14.824,13.3l0.039,0.383
			c0.075,0.398,0.287,0.642,0.638,0.729c0.122,0.031,0.182,0.082,0.182,0.142c0,0.077-0.046,0.107-0.143,0.107
			c-0.073,0-0.158-0.005-0.261-0.017l-0.287-0.042c-0.074-0.012-0.181-0.018-0.318-0.018c-0.249,0-0.441,0.014-0.58,0.042
			c-0.089,0.018-0.157,0.025-0.203,0.025c-0.084,0-0.128-0.037-0.128-0.113c0-0.045,0.033-0.082,0.098-0.104
			c0.21-0.066,0.362-0.191,0.458-0.376c0.096-0.181,0.146-0.432,0.146-0.747l0.108-2.676l0.013-0.271c0-0.32-0.08-0.574-0.238-0.763
			c-0.159-0.182-0.377-0.28-0.653-0.28c-0.104,0-0.155-0.031-0.155-0.114c0-0.079,0.058-0.12,0.174-0.12
			c0.026,0,0.057,0.002,0.095,0.004l0.234,0.017c0.045,0.004,0.101,0.006,0.169,0.006c0.127,0,0.251-0.01,0.373-0.026
			c0.184-0.022,0.302-0.034,0.357-0.034C15.122,9.053,15.25,9.144,15.324,9.311z"/>
		<path d="M26.954,10.001v0.883c0,0.253,0.02,0.412,0.056,0.485c0.037,0.063,0.125,0.099,0.266,0.099l0.122-0.004l0.18-0.004h0.345
			c0.27,0,0.478-0.148,0.623-0.445l0.093-0.196c0.026-0.053,0.065-0.072,0.122-0.074c0.061-0.004,0.091,0.029,0.091,0.108
			c0,0.019-0.004,0.079-0.013,0.174c-0.004,0.075-0.008,0.132-0.008,0.185c0,0.081,0.013,0.293,0.037,0.608
			c0.016,0.212,0.023,0.391,0.023,0.547l0.005,0.208c0,0.036-0.005,0.063-0.013,0.081c-0.009,0.017-0.031,0.025-0.065,0.027
			c-0.066,0.004-0.109-0.049-0.127-0.154c-0.032-0.229-0.114-0.406-0.243-0.525c-0.07-0.069-0.155-0.104-0.257-0.125
			c-0.102-0.021-0.292-0.03-0.571-0.03h-0.278c-0.129,0-0.219,0.021-0.266,0.058c-0.048,0.038-0.081,0.121-0.097,0.24
			c-0.015,0.136-0.024,0.347-0.024,0.641v0.364c0,0.384,0.031,0.655,0.089,0.827c0.048,0.121,0.102,0.2,0.164,0.247
			c0.062,0.039,0.159,0.062,0.289,0.062c1.103,0,1.823-0.333,2.16-1.004c0.02-0.036,0.037-0.054,0.051-0.056
			c0.026-0.008,0.052,0.004,0.074,0.027c0.022,0.024,0.035,0.057,0.035,0.093c0,0.263-0.072,0.523-0.216,0.776
			c-0.118,0.21-0.267,0.363-0.447,0.45c-0.178,0.088-0.415,0.137-0.712,0.137c-0.172,0-0.364-0.011-0.578-0.033l-0.473-0.042
			c-0.172-0.017-0.407-0.023-0.704-0.023c-0.197,0-0.497,0.013-0.903,0.038c-0.109,0.006-0.19,0.008-0.239,0.008
			c-0.064,0-0.102-0.025-0.107-0.094c-0.003-0.049,0.029-0.081,0.091-0.109c0.154-0.062,0.259-0.121,0.315-0.191
			c0.054-0.065,0.099-0.181,0.132-0.354c0.03-0.145,0.043-0.334,0.043-0.581v-3.228c0-0.298-0.049-0.509-0.146-0.615
			c-0.1-0.106-0.306-0.184-0.617-0.224c-0.074-0.014-0.108-0.057-0.108-0.12c0-0.07,0.042-0.098,0.134-0.098
			c0.018,0,0.06,0.002,0.122,0.005c0.048,0.002,0.114,0.004,0.2,0.004l0.41,0.017l1.543,0.018c0.885,0,1.434-0.016,1.637-0.038
			c0.022-0.002,0.042-0.003,0.059-0.003c0.078,0,0.118,0.045,0.118,0.138c0,0.061,0.008,0.171,0.023,0.331
			c0.021,0.236,0.032,0.408,0.032,0.509c0,0.205-0.052,0.313-0.158,0.317c-0.052,0.002-0.077-0.056-0.077-0.179
			c0-0.27-0.1-0.461-0.296-0.59c-0.197-0.12-0.515-0.179-0.953-0.179h-0.498l-0.275,0.035c-0.139,0.037-0.208,0.176-0.208,0.405
			L26.954,10.001z"/>
		<path d="M36.027,13.048c0,0.512,0.05,0.859,0.143,1.047c0.097,0.176,0.283,0.288,0.564,0.308c0.112,0.013,0.169,0.061,0.169,0.134
			c0,0.081-0.045,0.12-0.139,0.12c-0.027,0-0.085-0.004-0.166-0.012c-0.232-0.018-0.458-0.029-0.677-0.029
			c-0.18,0-0.339,0.006-0.481,0.018l-0.343,0.026l-0.273,0.023c-0.077,0.006-0.129,0.012-0.157,0.012c-0.1,0-0.147-0.036-0.147-0.11
			c0-0.064,0.026-0.097,0.078-0.116c0.188-0.06,0.315-0.132,0.385-0.226c0.071-0.103,0.104-0.248,0.104-0.445v-0.385l0.005-0.161
			v-2.936c0-0.327-0.04-0.542-0.122-0.652C34.839,9.478,34.62,9.369,34.32,9.33c-0.113-0.019-0.167-0.06-0.167-0.14
			c0-0.075,0.039-0.119,0.115-0.119c0.027,0,0.076,0.006,0.146,0.016c0.207,0.022,0.438,0.033,0.688,0.033
			c0.274,0,0.608-0.015,0.999-0.049c0.455-0.028,0.774-0.046,0.946-0.046c0.516,0,0.941,0.14,1.28,0.42
			c0.34,0.277,0.512,0.634,0.512,1.057c0,0.271-0.077,0.515-0.227,0.741c-0.153,0.216-0.359,0.387-0.623,0.498
			c-0.053,0.022-0.078,0.048-0.075,0.078c0.003,0.028,0.016,0.062,0.04,0.097c0.024,0.038,0.06,0.108,0.108,0.193l0.364,0.644
			l0.417,0.739c0.145,0.254,0.271,0.431,0.387,0.525c0.112,0.104,0.245,0.147,0.394,0.147c0.062,0,0.123-0.006,0.176-0.018
			c0.032-0.008,0.063-0.011,0.088-0.011c0.048,0,0.074,0.032,0.074,0.098c0,0.075-0.109,0.163-0.334,0.27
			c-0.219,0.097-0.416,0.148-0.59,0.148c-0.278,0-0.537-0.138-0.771-0.409c-0.233-0.275-0.542-0.794-0.917-1.559
			c-0.147-0.298-0.267-0.492-0.361-0.569c-0.096-0.08-0.248-0.119-0.465-0.119h-0.251l-0.183,0.032
			c-0.042,0.018-0.063,0.085-0.063,0.191V13.048z M36.027,9.868v1.405c0,0.176,0.023,0.284,0.071,0.333
			c0.043,0.046,0.148,0.067,0.318,0.067c0.482,0,0.782-0.011,0.899-0.025c0.114-0.015,0.224-0.071,0.323-0.161
			c0.199-0.184,0.296-0.429,0.296-0.741c0-0.409-0.133-0.751-0.398-1.019c-0.267-0.27-0.609-0.402-1.024-0.402
			c-0.185,0-0.311,0.04-0.38,0.12C36.063,9.522,36.027,9.665,36.027,9.868z"/>
		<path d="M47.137,9.524l1.854,4.246c0.09,0.215,0.197,0.373,0.321,0.479c0.127,0.11,0.289,0.177,0.485,0.214
			c0.048,0.008,0.074,0.048,0.074,0.116c0,0.074-0.032,0.106-0.093,0.104c-0.035-0.002-0.087-0.011-0.154-0.023
			c-0.21-0.044-0.549-0.068-1.014-0.068c-0.468,0-0.784,0.022-0.953,0.065c-0.041,0.008-0.076,0.014-0.105,0.014
			c-0.076,0-0.116-0.035-0.116-0.114c0-0.04,0.031-0.065,0.09-0.086c0.129-0.039,0.238-0.104,0.324-0.206
			c0.086-0.097,0.127-0.197,0.127-0.306c0-0.154-0.116-0.489-0.354-1.005c-0.07-0.149-0.151-0.247-0.241-0.269
			c-0.085-0.021-0.399-0.031-0.937-0.031h-0.55l-0.365,0.06c-0.101,0.049-0.214,0.229-0.341,0.536l-0.125,0.316
			c-0.04,0.088-0.058,0.177-0.058,0.272c0,0.338,0.239,0.539,0.717,0.589c0.102,0.015,0.151,0.059,0.148,0.119
			c-0.003,0.077-0.055,0.11-0.145,0.11c-0.051,0-0.119-0.006-0.208-0.022c-0.179-0.035-0.34-0.054-0.483-0.054
			c-0.127,0-0.335,0.013-0.617,0.043c-0.213,0.021-0.345,0.031-0.396,0.031c-0.078,0-0.114-0.033-0.114-0.103
			c0-0.05,0.036-0.095,0.113-0.125c0.147-0.04,0.264-0.131,0.351-0.255c0.088-0.121,0.22-0.381,0.392-0.777l1.11-2.554
			c0.092-0.211,0.155-0.351,0.188-0.421l0.379-0.775l0.198-0.384v0.016c0.084-0.211,0.144-0.312,0.174-0.312
			c0.042,0,0.117,0.111,0.225,0.341L47.137,9.524z M47.291,12.064l-0.531-1.239c-0.127-0.299-0.22-0.448-0.273-0.448
			c-0.034,0-0.092,0.102-0.177,0.289l-0.078,0.175l-0.477,1.077l-0.043,0.106c-0.02,0.036-0.03,0.072-0.03,0.104
			c0,0.092,0.1,0.141,0.294,0.141h1.2c0.104,0,0.155-0.03,0.155-0.091c0-0.009-0.008-0.032-0.021-0.064L47.291,12.064z"/>
		<path d="M55.856,10.259v1.479c0,0.099,0.025,0.155,0.069,0.157c0.023,0,0.091-0.044,0.195-0.122l0.398-0.362l0.568-0.507
			c0.749-0.668,1.121-1.123,1.121-1.366c0-0.085-0.037-0.147-0.104-0.198c-0.072-0.045-0.166-0.07-0.282-0.07
			c-0.088,0-0.131-0.039-0.131-0.11c0-0.073,0.05-0.109,0.153-0.109c0.11,0,0.224,0.006,0.338,0.021
			c0.294,0.034,0.497,0.051,0.614,0.051c0.088,0,0.194-0.005,0.322-0.022c0.277-0.031,0.47-0.049,0.578-0.049
			c0.097,0,0.143,0.042,0.143,0.125c0,0.058-0.059,0.101-0.178,0.12c-0.192,0.023-0.406,0.132-0.646,0.294
			c-0.244,0.174-0.589,0.474-1.032,0.895c-0.208,0.189-0.348,0.321-0.424,0.385c-0.229,0.191-0.344,0.336-0.344,0.425
			c0,0.07,0.061,0.188,0.183,0.354l0.295,0.399c0.68,0.928,1.172,1.556,1.476,1.857c0.216,0.222,0.516,0.38,0.906,0.49l0.087,0.023
			c0.068,0.021,0.1,0.068,0.096,0.131c-0.003,0.071-0.043,0.104-0.125,0.104c-0.027,0-0.067,0-0.117-0.008
			c-0.266-0.027-0.488-0.042-0.674-0.042c-0.086,0-0.178,0.008-0.271,0.017c-0.177,0.023-0.286,0.033-0.325,0.033
			c-0.141,0-0.268-0.072-0.38-0.214c-0.012-0.016-0.066-0.072-0.157-0.191c-0.232-0.275-0.535-0.66-0.902-1.153
			c-0.369-0.491-0.597-0.805-0.687-0.956c-0.073-0.123-0.137-0.19-0.186-0.19c-0.031,0-0.074,0.026-0.121,0.077l-0.122,0.119
			l-0.174,0.169c-0.071,0.07-0.117,0.139-0.133,0.218c-0.019,0.07-0.028,0.227-0.028,0.461v0.178c0,0.439,0.044,0.748,0.138,0.937
			c0.087,0.182,0.248,0.284,0.474,0.297c0.148,0.013,0.222,0.057,0.222,0.127c0,0.084-0.044,0.127-0.134,0.127
			c-0.05,0-0.135-0.01-0.256-0.031c-0.145-0.026-0.334-0.04-0.561-0.04c-0.305,0-0.59,0.016-0.864,0.044
			c-0.171,0.016-0.312,0.023-0.416,0.023c-0.109,0-0.162-0.04-0.162-0.123c0-0.05,0.037-0.086,0.105-0.101
			c0.195-0.031,0.331-0.113,0.406-0.256c0.074-0.146,0.111-0.388,0.111-0.728v-3.263l0.003-0.16l-0.035-0.229
			c-0.039-0.147-0.116-0.259-0.231-0.338c-0.113-0.071-0.273-0.124-0.484-0.146c-0.066-0.008-0.104-0.017-0.12-0.034
			c-0.016-0.017-0.024-0.061-0.024-0.118c0-0.067,0.041-0.102,0.113-0.102c0.069,0,0.136,0.006,0.204,0.013
			c0.284,0.03,0.61,0.047,0.98,0.047c0.316,0,0.606-0.015,0.86-0.045c0.071-0.005,0.13-0.011,0.177-0.015
			c0.081-0.002,0.119,0.036,0.119,0.113c0,0.044-0.033,0.082-0.101,0.099c-0.231,0.058-0.377,0.141-0.435,0.233
			c-0.056,0.09-0.087,0.298-0.087,0.609L55.856,10.259z"/>
		<path d="M66.138,13.364l0.035,0.406c0.03,0.212,0.111,0.368,0.236,0.479c0.126,0.118,0.292,0.167,0.493,0.167
			c0.134,0,0.199,0.044,0.199,0.122c0,0.086-0.086,0.122-0.265,0.122c-0.075,0-0.184-0.005-0.325-0.017
			c-0.35-0.042-0.639-0.062-0.856-0.062c-0.272,0-0.486,0.015-0.644,0.045c-0.134,0.025-0.233,0.034-0.293,0.034
			c-0.059,0-0.098-0.025-0.114-0.087l-0.008-0.035l0.117-0.094c0.195-0.066,0.325-0.156,0.389-0.256
			c0.063-0.101,0.094-0.271,0.094-0.505l0.004-0.36v-3.24c0-0.254-0.042-0.427-0.13-0.528c-0.083-0.108-0.245-0.181-0.473-0.217
			c-0.14-0.025-0.229-0.042-0.267-0.061c-0.042-0.021-0.059-0.061-0.059-0.104c0-0.081,0.03-0.119,0.095-0.117
			c0.048,0.004,0.124,0.013,0.221,0.034c0.096,0.024,0.262,0.033,0.49,0.033c0.154,0,0.342-0.008,0.568-0.028l0.295-0.026
			c0.282-0.019,0.497-0.025,0.643-0.025c0.091,0,0.135,0.029,0.135,0.1c0,0.047-0.007,0.08-0.019,0.098
			c-0.013,0.021-0.05,0.031-0.104,0.041c-0.195,0.028-0.32,0.083-0.374,0.161c-0.057,0.075-0.086,0.233-0.086,0.462V13.364z"/>
		<path d="M79.497,10.106v3.296l-0.004,0.364c0,0.362-0.037,0.654-0.119,0.893c-0.08,0.244-0.223,0.477-0.422,0.707
			c-0.383,0.445-0.709,0.668-0.977,0.668c-0.061,0-0.111-0.008-0.156-0.026l-0.23-0.07l-0.199-0.055
			c-0.055-0.031-0.082-0.084-0.082-0.173c0-0.044,0.008-0.104,0.02-0.166l0.102-0.518c0.01-0.082,0.039-0.116,0.082-0.116
			c0.07,0,0.166,0.059,0.277,0.181l0.16,0.178c0.119,0.136,0.221,0.197,0.309,0.197c0.211,0,0.312-0.258,0.312-0.777l-0.008-0.299
			v-3.063c0-0.628-0.006-1.049-0.021-1.253c-0.016-0.213-0.049-0.367-0.102-0.47c-0.047-0.095-0.117-0.16-0.215-0.194
			c-0.09-0.044-0.26-0.073-0.5-0.098c-0.082-0.005-0.121-0.043-0.121-0.119c0-0.091,0.061-0.14,0.186-0.14
			c0.062,0,0.156,0.006,0.277,0.017c0.383,0.036,0.6,0.055,0.646,0.055c0.098,0,0.236-0.011,0.428-0.037
			c0.391-0.044,0.619-0.066,0.684-0.066c0.123,0,0.182,0.032,0.182,0.111c0,0.05-0.037,0.081-0.121,0.107
			c-0.148,0.051-0.25,0.13-0.303,0.251C79.524,9.614,79.497,9.822,79.497,10.106z"/>
		<path d="M86.427,10.001v0.883c0,0.253,0.018,0.412,0.057,0.485c0.035,0.063,0.125,0.099,0.268,0.099l0.121-0.004l0.178-0.004
			h0.348c0.27,0,0.473-0.148,0.621-0.445l0.092-0.196c0.025-0.053,0.068-0.072,0.125-0.074c0.061-0.004,0.086,0.029,0.086,0.108
			c0,0.019-0.002,0.079-0.008,0.174c-0.006,0.075-0.01,0.132-0.01,0.185c0,0.081,0.014,0.293,0.035,0.608
			c0.018,0.212,0.027,0.391,0.027,0.547l0.002,0.208c0,0.036-0.002,0.063-0.012,0.081c-0.01,0.017-0.035,0.025-0.064,0.027
			c-0.068,0.004-0.109-0.049-0.127-0.154c-0.037-0.229-0.115-0.406-0.242-0.525c-0.072-0.069-0.158-0.104-0.258-0.125
			c-0.104-0.021-0.295-0.03-0.576-0.03h-0.277c-0.129,0-0.215,0.021-0.264,0.058c-0.049,0.038-0.08,0.121-0.098,0.24
			c-0.016,0.136-0.023,0.347-0.023,0.641v0.364c0,0.384,0.031,0.655,0.09,0.827c0.045,0.121,0.104,0.2,0.162,0.247
			c0.064,0.039,0.158,0.062,0.289,0.062c1.102,0,1.822-0.333,2.162-1.004c0.02-0.036,0.033-0.054,0.047-0.056
			c0.029-0.008,0.055,0.004,0.076,0.027c0.025,0.024,0.033,0.057,0.033,0.093c0,0.263-0.068,0.523-0.213,0.776
			c-0.119,0.21-0.27,0.363-0.447,0.45c-0.178,0.088-0.418,0.137-0.713,0.137c-0.176,0-0.367-0.011-0.58-0.033l-0.469-0.042
			c-0.176-0.017-0.41-0.023-0.707-0.023c-0.195,0-0.498,0.013-0.902,0.038c-0.111,0.006-0.191,0.008-0.24,0.008
			c-0.064,0-0.1-0.025-0.104-0.094c-0.004-0.049,0.025-0.081,0.088-0.109c0.154-0.062,0.258-0.121,0.318-0.191
			c0.055-0.065,0.098-0.181,0.131-0.354c0.027-0.145,0.043-0.334,0.043-0.581v-3.228c0-0.298-0.049-0.509-0.148-0.615
			c-0.098-0.106-0.303-0.184-0.617-0.224c-0.07-0.014-0.109-0.057-0.109-0.12c0-0.07,0.047-0.098,0.133-0.098
			c0.021,0,0.061,0.002,0.123,0.005c0.051,0.002,0.113,0.004,0.199,0.004l0.412,0.017l1.541,0.018c0.889,0,1.434-0.016,1.641-0.038
			c0.023-0.002,0.043-0.003,0.057-0.003c0.08,0,0.119,0.045,0.119,0.138c0,0.061,0.006,0.171,0.023,0.331
			c0.023,0.236,0.031,0.408,0.031,0.509c0,0.205-0.053,0.313-0.156,0.317c-0.051,0.002-0.078-0.056-0.078-0.179
			c0-0.27-0.098-0.461-0.293-0.59c-0.197-0.12-0.518-0.179-0.957-0.179h-0.496l-0.277,0.035c-0.139,0.037-0.209,0.176-0.209,0.405
			L86.427,10.001z"/>
		<path d="M100.024,9.013c0.059-0.002,0.146,0.002,0.271,0.013c0.312,0.023,0.59,0.041,0.836,0.041c0.252,0,0.471-0.02,0.658-0.054
			l0.035-0.004c0.059,0,0.088,0.032,0.088,0.097c0,0.062-0.043,0.105-0.131,0.137c-0.154,0.055-0.279,0.137-0.375,0.244
			c-0.092,0.109-0.186,0.279-0.271,0.502l-0.24,0.595l-0.369,0.919c-0.281,0.692-0.453,1.127-0.516,1.288
			c-0.25,0.639-0.41,1.037-0.479,1.191c-0.15,0.339-0.242,0.544-0.268,0.617c-0.035,0.092-0.09,0.143-0.164,0.143
			c-0.092,0-0.16-0.062-0.205-0.178c-0.018-0.046-0.084-0.197-0.195-0.477c-0.422-1.016-0.717-1.788-0.883-2.314
			c-0.037-0.12-0.076-0.175-0.123-0.173c-0.057,0.004-0.121,0.103-0.195,0.304c-0.084,0.221-0.258,0.615-0.523,1.187
			c-0.262,0.567-0.453,0.963-0.576,1.188c-0.051,0.105-0.086,0.172-0.1,0.212c-0.074,0.167-0.158,0.252-0.25,0.252
			s-0.166-0.089-0.219-0.273c-0.023-0.072-0.062-0.176-0.123-0.312c-0.367-0.84-0.721-1.75-1.062-2.732
			c-0.225-0.647-0.344-0.988-0.355-1.021l-0.223-0.554c-0.146-0.372-0.316-0.56-0.512-0.579c-0.066-0.006-0.104-0.047-0.104-0.11
			c0-0.081,0.045-0.114,0.127-0.114c0.02,0,0.123,0.002,0.305,0.009l0.406,0.019c0.168,0.01,0.309,0.016,0.414,0.016
			c0.189,0,0.408-0.014,0.658-0.034l0.068-0.004c0.094,0,0.141,0.038,0.141,0.116c0,0.07-0.049,0.107-0.148,0.107
			c-0.24,0-0.361,0.115-0.361,0.344c0,0.127,0.125,0.536,0.369,1.232l0.398,1.104l0.246,0.729l0.139,0.382
			c0.068,0.19,0.133,0.291,0.191,0.291c0.07,0,0.166-0.137,0.277-0.403c0.01-0.021,0.111-0.24,0.311-0.644
			c0.068-0.141,0.176-0.375,0.312-0.692c0.076-0.178,0.143-0.327,0.195-0.447c0.025-0.045,0.035-0.076,0.035-0.099
			c0-0.026-0.01-0.061-0.029-0.108c-0.047-0.107-0.113-0.29-0.201-0.538c-0.135-0.407-0.266-0.701-0.391-0.871
			c-0.125-0.18-0.268-0.28-0.438-0.309c-0.074-0.015-0.109-0.052-0.109-0.116c0-0.075,0.053-0.105,0.156-0.105
			c0.057,0,0.125,0.003,0.193,0.009c0.379,0.027,0.605,0.042,0.674,0.042c0.465,0,0.736-0.004,0.812-0.015
			c0.119-0.011,0.199-0.018,0.248-0.019c0.072-0.002,0.104,0.035,0.104,0.132c0,0.041-0.029,0.072-0.086,0.093l-0.127,0.04
			c-0.166,0.056-0.25,0.167-0.25,0.35c0,0.168,0.141,0.638,0.424,1.412l0.422,1.16l0.178,0.48c0.047,0.13,0.078,0.225,0.096,0.268
			c0.062,0.204,0.129,0.299,0.199,0.297c0.068-0.003,0.139-0.102,0.209-0.311c0.016-0.044,0.098-0.251,0.248-0.603
			c0.064-0.162,0.172-0.451,0.328-0.877c0.08-0.215,0.182-0.488,0.309-0.832c0.133-0.352,0.199-0.604,0.199-0.759
			c0-0.191-0.045-0.333-0.143-0.429c-0.092-0.087-0.273-0.16-0.543-0.218c-0.078-0.017-0.115-0.052-0.111-0.101
			C99.913,9.053,99.952,9.017,100.024,9.013z"/>
		<path d="M107.884,10.001v0.883c0,0.253,0.018,0.412,0.055,0.485c0.039,0.063,0.125,0.099,0.266,0.099l0.121-0.004l0.18-0.004
			h0.348c0.268,0,0.477-0.148,0.621-0.445l0.094-0.196c0.025-0.053,0.066-0.072,0.121-0.074c0.061-0.004,0.092,0.029,0.092,0.108
			c0,0.019-0.004,0.079-0.014,0.174c-0.004,0.075-0.008,0.132-0.008,0.185c0,0.081,0.012,0.293,0.039,0.608
			c0.014,0.212,0.021,0.391,0.021,0.547l0.004,0.208c0,0.036-0.004,0.063-0.012,0.081c-0.008,0.017-0.031,0.025-0.066,0.027
			c-0.066,0.004-0.107-0.049-0.125-0.154c-0.033-0.229-0.115-0.406-0.244-0.525c-0.07-0.069-0.156-0.104-0.256-0.125
			c-0.102-0.021-0.295-0.03-0.572-0.03h-0.277c-0.131,0-0.221,0.021-0.268,0.058c-0.047,0.038-0.08,0.121-0.098,0.24
			c-0.014,0.136-0.021,0.347-0.021,0.641v0.364c0,0.384,0.027,0.655,0.092,0.827c0.045,0.121,0.098,0.2,0.16,0.247
			c0.062,0.039,0.156,0.062,0.287,0.062c1.104,0,1.822-0.333,2.162-1.004c0.02-0.036,0.035-0.054,0.049-0.056
			c0.027-0.008,0.053,0.004,0.078,0.027c0.02,0.024,0.031,0.057,0.031,0.093c0,0.263-0.072,0.523-0.217,0.776
			c-0.117,0.21-0.27,0.363-0.447,0.45c-0.178,0.088-0.412,0.137-0.711,0.137c-0.172,0-0.365-0.011-0.578-0.033l-0.473-0.042
			c-0.172-0.017-0.408-0.023-0.703-0.023c-0.197,0-0.496,0.013-0.902,0.038c-0.111,0.006-0.191,0.008-0.242,0.008
			c-0.062,0-0.1-0.025-0.105-0.094c-0.002-0.049,0.029-0.081,0.092-0.109c0.152-0.062,0.258-0.121,0.314-0.191
			c0.055-0.065,0.098-0.181,0.133-0.354c0.031-0.145,0.043-0.334,0.043-0.581v-3.228c0-0.298-0.049-0.509-0.145-0.615
			c-0.102-0.106-0.307-0.184-0.619-0.224c-0.074-0.014-0.109-0.057-0.109-0.12c0-0.07,0.045-0.098,0.135-0.098
			c0.018,0,0.061,0.002,0.121,0.005c0.049,0.002,0.115,0.004,0.201,0.004l0.408,0.017l1.545,0.018c0.885,0,1.432-0.016,1.637-0.038
			c0.021-0.002,0.041-0.003,0.059-0.003c0.076,0,0.117,0.045,0.117,0.138c0,0.061,0.01,0.171,0.027,0.331
			c0.02,0.236,0.029,0.408,0.029,0.509c0,0.205-0.051,0.313-0.158,0.317c-0.053,0.002-0.078-0.056-0.078-0.179
			c0-0.27-0.098-0.461-0.295-0.59c-0.197-0.12-0.514-0.179-0.953-0.179h-0.496l-0.275,0.035c-0.139,0.037-0.209,0.176-0.209,0.405
			L107.884,10.001z"/>
		<path d="M116.964,13.357c0,0.51,0.057,0.788,0.182,0.854c0.066,0.033,0.199,0.05,0.395,0.05c0.918,0,1.57-0.27,1.955-0.805
			c0.121-0.168,0.195-0.251,0.223-0.251c0.049,0,0.076,0.055,0.076,0.162c0,0.353-0.113,0.655-0.34,0.926
			c-0.197,0.239-0.469,0.362-0.807,0.362c-0.07,0-0.201-0.004-0.387-0.021c-0.051-0.002-0.213-0.011-0.49-0.027l-0.443-0.023
			c-0.148-0.009-0.316-0.013-0.508-0.013c-0.316,0-0.654,0.021-1.02,0.064c-0.109,0.016-0.184,0.02-0.221,0.02
			c-0.078,0-0.121-0.035-0.121-0.114c0-0.042,0.037-0.078,0.107-0.101c0.174-0.048,0.293-0.144,0.361-0.284
			c0.064-0.138,0.1-0.364,0.1-0.683v-3.392c0-0.431-0.182-0.674-0.543-0.736l-0.244-0.04c-0.102-0.013-0.154-0.057-0.154-0.121
			c0-0.086,0.043-0.129,0.121-0.129c0.029,0,0.068,0.006,0.119,0.013c0.039,0,0.092,0.008,0.158,0.018l0.18,0.011
			c0.162,0.019,0.287,0.026,0.369,0.026c0.131,0,0.336-0.017,0.621-0.053c0.215-0.021,0.43-0.027,0.648-0.027
			c0.166,0,0.244,0.035,0.244,0.12c0,0.06-0.057,0.099-0.174,0.104c-0.273,0.021-0.408,0.203-0.408,0.562V13.357z"/>
	</g>
</g>
</svg>
