<?xml version="1.0" encoding="utf-8"?>
<!-- Generator: Adobe Illustrator 18.1.1, SVG Export Plug-In . SVG Version: 6.00 Build 0)  -->
<svg version="1.1" id="Layer_1" xmlns="http://www.w3.org/2000/svg" xmlns:xlink="http://www.w3.org/1999/xlink" x="0px" y="0px"
	 viewBox="0 69 150 12.1" enable-background="new 0 69 150 12.1" xml:space="preserve">
<path fill="#C7AE21" d="M1.8,70.8C3,69.7,4.3,69.1,6,69.1s3.1,0.6,4.2,1.8C11.4,72,12,73.4,12,75s-0.6,3-1.8,4.2S7.7,81,6,81
	s-3-0.6-4.2-1.8C0.6,78.1,0,76.7,0,75C0,73.4,0.6,72,1.8,70.8z M9.3,71.7c-0.9-0.9-2-1.4-3.3-1.4s-2.5,0.4-3.3,1.4
	c-0.9,0.9-1.4,2.1-1.4,3.4s0.5,2.4,1.4,3.3s2.1,1.4,3.3,1.4s2.4-0.4,3.3-1.4c0.9-1,1.4-2.1,1.4-3.3C10.7,73.7,10.2,72.6,9.3,71.7z"
	/>
<path fill="#C7AE21" d="M18.8,69.3v6.8c0,0.4,0,0.8,0,0.9c0,0.2,0,0.5,0.1,0.8s0.2,0.6,0.4,0.8c0.2,0.3,0.6,0.6,1,0.8
	c0.5,0.2,0.9,0.3,1.3,0.3s0.9-0.1,1.2-0.2c0.4-0.2,0.8-0.4,1-0.8c0.1-0.2,0.3-0.5,0.4-0.8s0.1-0.6,0.1-0.8c0-0.2,0-0.5,0-0.9
	c0-0.1,0-0.1,0-0.2v-6.8h1.3v7.2c0,0.8,0,1.3-0.2,1.8c-0.1,0.5-0.4,0.9-0.8,1.3c-0.8,0.9-1.9,1.3-3.1,1.3s-2.1-0.4-3-1.2
	c-0.5-0.4-0.8-0.9-0.9-1.4s-0.2-1.1-0.2-1.9v-7.2h1.4V69.3z"/>
<path fill="#C7AE21" d="M33,75.7v5.1h-1.3V69.3h1.7c0.6,0,1.1,0,1.6,0.1s0.9,0.2,1.3,0.5c0.4,0.2,0.8,0.5,1,1
	c0.2,0.4,0.3,0.9,0.3,1.5c0,0.9-0.2,1.6-0.8,2.2c-0.5,0.6-1.2,0.9-2.1,0.9l3.7,5.2h-1.5l-3.5-5.1L33,75.7L33,75.7z M33,70.5v4.2h0.4
	c0.4,0,0.8,0,1-0.1c0.3-0.1,0.6-0.2,0.9-0.3c0.3-0.2,0.5-0.3,0.7-0.7c0.2-0.3,0.2-0.7,0.2-1c0-0.4,0-0.7-0.2-1
	c-0.1-0.2-0.2-0.4-0.4-0.6s-0.4-0.2-0.7-0.3s-0.5-0.2-0.8-0.2s-0.5-0.1-0.9-0.1L33,70.5L33,70.5z"/>
<path fill="#C7AE21" d="M61.1,70.2v1.6c-1-1-2.2-1.5-3.5-1.5c-1.2,0-2.3,0.5-3.2,1.4S53,73.8,53,75.1c0,1.3,0.5,2.4,1.3,3.3
	c0.9,1,2,1.4,3.3,1.4s2.5-0.5,3.5-1.5v1.6c-1,0.8-2.2,1.2-3.5,1.2c-1.7,0-3-0.6-4.2-1.8s-1.8-2.6-1.8-4.2c0-1.7,0.6-3,1.8-4.2
	c1.2-1.1,2.6-1.8,4.2-1.8C59,69.1,60.1,69.5,61.1,70.2z"/>
<path fill="#C7AE21" d="M68.3,75.7v5.1H67V69.3h1.7c0.6,0,1.1,0,1.6,0.1c0.4,0.1,0.9,0.2,1.3,0.5c0.4,0.2,0.8,0.5,0.9,1
	c0.2,0.4,0.3,0.9,0.3,1.5c0,0.9-0.2,1.6-0.8,2.2c-0.5,0.6-1.2,0.9-2.1,0.9l3.7,5.2H72l-3.5-5H68.3L68.3,75.7z M68.3,70.5v4.2h0.4
	c0.4,0,0.8,0,1.1-0.1c0.3-0.1,0.6-0.2,0.9-0.3s0.6-0.3,0.7-0.7c0.2-0.3,0.2-0.7,0.2-1c0-0.4-0.1-0.7-0.2-1S71.2,71.2,71,71
	s-0.4-0.2-0.7-0.3s-0.6-0.2-0.8-0.2s-0.6-0.1-0.9-0.1L68.3,70.5L68.3,70.5z"/>
<path fill="#C7AE21" d="M79.2,80.8V69.3h5.9v1.2h-4.7v3.4H85v1.2h-4.6v4.5h4.7v1.2C85.1,80.8,79.2,80.8,79.2,80.8z"/>
<path fill="#C7AE21" d="M97.7,77.5h-4.9l-1.4,3.2H90l5.3-12.1l5.2,12.1h-1.4L97.7,77.5z M97.2,76.3l-1.9-4.6l-1.9,4.6H97.2z"/>
<path fill="#C7AE21" d="M107.3,70.5v10.3H106V70.5h-2.8v-1.2h6.8v1.2H107.3z"/>
<path fill="#C7AE21" d="M116.6,69.3v11.5h-1.3V69.3C115.3,69.3,116.6,69.3,116.6,69.3z"/>
<path fill="#C7AE21" d="M123.9,70.8c1.2-1.2,2.6-1.8,4.2-1.8s3.1,0.6,4.2,1.8c1.1,1.2,1.8,2.6,1.8,4.2s-0.6,3-1.8,4.2
	s-2.6,1.8-4.2,1.8c-1.7,0-3.1-0.6-4.2-1.8c-1.2-1.2-1.8-2.6-1.8-4.2C122.2,73.4,122.8,72,123.9,70.8z M131.5,71.7
	c-0.9-0.9-2.1-1.4-3.4-1.4s-2.4,0.4-3.3,1.4s-1.3,2.1-1.3,3.4s0.4,2.4,1.4,3.3c0.9,0.9,2.1,1.4,3.3,1.4c1.3,0,2.4-0.4,3.4-1.4
	c0.9-1,1.4-2.1,1.4-3.3C132.9,73.7,132.4,72.6,131.5,71.7z"/>
<path fill="#C7AE21" d="M139.8,80.8v-12l8.9,9.4v-8.9h1.3v12l-8.9-9.4v8.9H139.8L139.8,80.8z"/>
</svg>
