<?xml version="1.0" encoding="utf-8"?>
<!-- Generator: Adobe Illustrator 18.1.1, SVG Export Plug-In . SVG Version: 6.00 Build 0)  -->
<svg version="1.1" id="Layer_1" xmlns="http://www.w3.org/2000/svg" xmlns:xlink="http://www.w3.org/1999/xlink" x="0px" y="0px"
	 viewBox="0 68.1 150 13.8" enable-background="new 0 68.1 150 13.8" xml:space="preserve">
<g>
	<path fill="#C7AE21" d="M1.9,70.4c1.3-1.3,2.9-1.9,4.7-1.9s3.4,0.7,4.7,1.9c1.3,1.3,1.9,2.8,1.9,4.6s-0.7,3.4-1.9,4.6
		s-2.9,1.9-4.7,1.9s-3.4-0.7-4.7-1.9C0.7,78.4,0,76.8,0,75S0.7,71.7,1.9,70.4z M10.2,71.3c-1-1-2.2-1.5-3.6-1.5s-2.7,0.5-3.7,1.5
		S1.4,73.6,1.4,75s0.5,2.6,1.5,3.7c1,1,2.3,1.5,3.7,1.5s2.6-0.5,3.7-1.5c1-1,1.5-2.3,1.5-3.7C11.8,73.6,11.3,72.3,10.2,71.3z"/>
	<path fill="#C7AE21" d="M20.6,68.7v7.5c0,0.5,0,0.8,0,1s0.1,0.5,0.2,0.9s0.2,0.7,0.4,0.9c0.3,0.4,0.7,0.7,1.1,0.9
		c0.5,0.2,0.9,0.3,1.4,0.3c0.4,0,0.9-0.1,1.4-0.3c0.4-0.2,0.8-0.5,1.1-0.8c0.2-0.2,0.3-0.5,0.4-0.9c0.1-0.3,0.2-0.6,0.2-0.9
		c0-0.2,0-0.5,0-1c0-0.1,0-0.2,0-0.2v-7.5h1.4v7.9c0,0.8-0.1,1.5-0.2,2c-0.2,0.5-0.4,1-0.9,1.5c-0.9,1-2,1.4-3.4,1.4
		c-1.3,0-2.4-0.4-3.2-1.3c-0.5-0.5-0.8-1-1-1.5s-0.2-1.3-0.2-2.1v-7.9L20.6,68.7L20.6,68.7z"/>
	<path fill="#C7AE21" d="M36.3,75.8v5.6h-1.4V68.7h1.8c0.7,0,1.2,0.1,1.8,0.2c0.5,0.1,1,0.3,1.5,0.5s0.8,0.6,1,1.1s0.4,1,0.4,1.7
		c0,1-0.3,1.8-0.9,2.4c-0.5,0.7-1.3,1-2.3,1l4,5.7h-1.7l-3.8-5.5L36.3,75.8L36.3,75.8z M36.3,70v4.6h0.4c0.4,0,0.8,0,1.2-0.1
		c0.3-0.1,0.7-0.2,1-0.3c0.3-0.2,0.6-0.4,0.8-0.7c0.2-0.3,0.3-0.7,0.3-1.2c0-0.4-0.1-0.8-0.2-1c-0.1-0.3-0.3-0.5-0.4-0.7
		c-0.2-0.2-0.4-0.3-0.7-0.4C38.4,70.1,38,70,37.8,70c-0.3,0-0.6-0.1-1-0.1L36.3,70L36.3,70z"/>
	<path fill="#C7AE21" d="M58.9,75.8v5.6h-1.4V68.7h2.1c0.7,0,1.3,0.1,1.8,0.1c0.5,0.1,0.9,0.3,1.4,0.5c0.4,0.3,0.8,0.7,1,1.3
		c0.2,0.5,0.4,1,0.4,1.6c0,1.2-0.4,2-1.2,2.7c-0.7,0.5-1.7,0.8-3,0.8h-1.1V75.8z M58.9,70v4.5h0.9c1.9,0,2.9-0.8,2.9-2.3
		c0-0.4-0.1-0.7-0.2-1c-0.1-0.3-0.3-0.5-0.5-0.7s-0.4-0.3-0.8-0.3c-0.3-0.1-0.6-0.2-0.9-0.2c-0.3,0-0.6-0.1-1-0.1L58.9,70L58.9,70z"
		/>
	<path fill="#C7AE21" d="M76.1,77.8h-5.4l-1.5,3.6h-1.5l5.8-13.3l5.7,13.3h-1.5L76.1,77.8z M75.5,76.5l-2.1-5.1l-2.1,5.1H75.5z"/>
	<path fill="#C7AE21" d="M91.6,70.5l-1.1,0.7c-0.5-0.9-1.3-1.4-2.2-1.4c-0.5,0-1,0.2-1.5,0.5c-0.4,0.4-0.6,0.8-0.6,1.4
		c0,0.3,0.1,0.5,0.2,0.7s0.3,0.4,0.5,0.5c0.2,0.2,0.4,0.3,0.6,0.4s0.4,0.2,0.7,0.3L89,74c0.5,0.2,0.9,0.4,1.2,0.6
		c0.3,0.2,0.6,0.4,0.9,0.7s0.5,0.6,0.7,1s0.2,0.8,0.2,1.3c0,1.1-0.4,2-1.2,2.7c-0.8,0.8-1.7,1.2-2.8,1.2c-1,0-1.9-0.3-2.6-0.9
		s-1.2-1.4-1.4-2.4l1.4-0.4c0.1,0.7,0.4,1.2,0.8,1.6c0.5,0.4,1,0.7,1.7,0.7s1.3-0.2,1.8-0.7s0.8-1,0.8-1.8c0-0.3-0.1-0.5-0.2-0.8
		s-0.2-0.4-0.3-0.5c-0.1-0.2-0.3-0.3-0.5-0.5c-0.3-0.2-0.4-0.3-0.6-0.4s-0.4-0.2-0.7-0.3L87.5,75c-0.9-0.4-1.6-0.8-2-1.3
		c-0.5-0.5-0.7-1.1-0.7-1.9c0-0.9,0.3-1.7,1-2.3s1.5-0.9,2.5-0.9c0.7,0,1.3,0.2,1.9,0.5C90.8,69.4,91.3,69.8,91.6,70.5z"/>
	<path fill="#C7AE21" d="M105.1,70.5l-1.1,0.7c-0.5-0.9-1.3-1.4-2.2-1.4c-0.5,0-1,0.2-1.5,0.5c-0.4,0.4-0.6,0.8-0.6,1.4
		c0,0.3,0.1,0.5,0.2,0.7s0.3,0.4,0.5,0.5c0.2,0.2,0.4,0.3,0.6,0.4s0.4,0.2,0.7,0.3l0.8,0.4c0.5,0.2,0.9,0.4,1.2,0.6
		c0.3,0.2,0.6,0.4,0.9,0.7c0.3,0.3,0.5,0.6,0.7,1s0.2,0.8,0.2,1.3c0,1.1-0.4,2-1.2,2.7c-0.8,0.7-1.7,1.2-2.8,1.2
		c-1,0-1.9-0.3-2.6-0.9s-1.2-1.4-1.4-2.4L99,78c0.1,0.7,0.4,1.2,0.8,1.6c0.5,0.4,1,0.7,1.7,0.7s1.3-0.2,1.8-0.7s0.8-1,0.8-1.8
		c0-0.3-0.1-0.5-0.2-0.8c-0.1-0.2-0.2-0.4-0.3-0.5c-0.1-0.2-0.3-0.3-0.5-0.5c-0.3-0.2-0.4-0.3-0.6-0.4s-0.4-0.2-0.7-0.3L101,75
		c-0.9-0.4-1.6-0.8-2-1.3c-0.5-0.5-0.7-1.1-0.7-1.9c0-0.9,0.3-1.7,1-2.3c0.7-0.6,1.5-0.9,2.5-0.9c0.7,0,1.3,0.2,1.9,0.5
		C104.4,69.3,104.8,69.8,105.1,70.5z"/>
	<path fill="#C7AE21" d="M113.3,68.7v12.6h-1.4V68.7C111.8,68.7,113.3,68.7,113.3,68.7z"/>
	<path fill="#C7AE21" d="M121.4,70.4c1.3-1.3,2.9-1.9,4.7-1.9c1.8,0,3.4,0.7,4.7,1.9c1.3,1.3,1.9,2.8,1.9,4.6s-0.7,3.4-1.9,4.6
		s-2.9,1.9-4.7,1.9c-1.8,0-3.4-0.7-4.7-1.9c-1.3-1.3-1.9-2.8-1.9-4.6S120,71.7,121.4,70.4z M129.7,71.3c-1-1-2.3-1.5-3.7-1.5
		s-2.6,0.5-3.7,1.5c-1,1-1.5,2.3-1.5,3.7s0.5,2.6,1.5,3.7c1,1,2.3,1.5,3.7,1.5s2.6-0.5,3.7-1.5c1-1,1.5-2.3,1.5-3.7
		C131.1,73.6,130.6,72.3,129.7,71.3z"/>
	<path fill="#C7AE21" d="M138.7,81.4V68.2l9.8,10.3v-9.8h1.4v13.2l-9.8-10.3v9.7h-1.4V81.4z"/>
</g>
</svg>
