<?xml version="1.0" encoding="utf-8"?>
<!-- Generator: Adobe Illustrator 18.1.1, SVG Export Plug-In . SVG Version: 6.00 Build 0)  -->
<svg version="1.1" id="Layer_1" xmlns="http://www.w3.org/2000/svg" xmlns:xlink="http://www.w3.org/1999/xlink" x="0px" y="0px"
	 viewBox="0 0 300 25.1" enable-background="new 0 0 300 25.1" xml:space="preserve">
<path fill="#010101" d="M3.5,4.2C5.9,1.9,8.7,0.7,12,0.7c3.3,0,6.1,1.2,8.5,3.5c2.3,2.3,3.5,5.1,3.5,8.4s-1.2,6.1-3.5,8.4
	c-2.3,2.3-5.2,3.5-8.5,3.5c-3.3,0-6.1-1.2-8.5-3.5C1.2,18.7,0,15.9,0,12.6C0,9.3,1.2,6.5,3.5,4.2z M18.6,5.9C16.8,4,14.6,3.1,12,3.1
	S7.1,4,5.3,5.9C3.5,7.7,2.6,10,2.6,12.6c0,2.6,0.9,4.8,2.8,6.7c1.8,1.9,4.1,2.8,6.7,2.8c2.6,0,4.8-0.9,6.7-2.8
	c1.8-1.9,2.8-4.1,2.8-6.7C21.4,10,20.5,7.7,18.6,5.9z"/>
<path fill="#010101" d="M37.5,1.1v13.7c0,0.9,0,1.5,0,1.9c0,0.4,0.1,0.9,0.3,1.6c0.2,0.7,0.4,1.2,0.7,1.7c0.5,0.7,1.2,1.2,2,1.6
	c0.9,0.4,1.7,0.6,2.6,0.6c0.8,0,1.7-0.2,2.5-0.5c0.8-0.4,1.5-0.9,2-1.5c0.3-0.4,0.6-1,0.8-1.6c0.2-0.6,0.3-1.1,0.3-1.6
	c0-0.4,0-1,0-1.8c0-0.2,0-0.3,0-0.4V1.1h2.6v14.4c0,1.5-0.1,2.7-0.4,3.6c-0.3,1-0.8,1.9-1.6,2.7c-1.6,1.8-3.7,2.6-6.2,2.6
	c-2.4,0-4.3-0.8-5.9-2.4c-0.9-0.9-1.5-1.8-1.8-2.8c-0.3-1-0.4-2.3-0.4-3.8V1.1L37.5,1.1L37.5,1.1z"/>
<path fill="#010101" d="M66.1,14v10.1h-2.6v-23h3.3c1.2,0,2.2,0.1,3.2,0.3c0.9,0.2,1.8,0.5,2.7,0.9s1.5,1.1,1.9,2
	c0.4,0.9,0.7,1.9,0.7,3.1c0,1.8-0.5,3.2-1.6,4.4c-1,1.2-2.4,1.8-4.2,1.9l7.3,10.3h-3.1l-7-10.1L66.1,14L66.1,14z M66.1,3.5v8.3h0.8
	c0.8,0,1.5,0,2.1-0.2c0.6-0.1,1.2-0.3,1.8-0.6c0.6-0.3,1.1-0.7,1.4-1.3c0.3-0.6,0.5-1.3,0.5-2.1c0-0.7-0.1-1.4-0.3-1.9
	c-0.2-0.5-0.5-0.9-0.8-1.2c-0.3-0.3-0.8-0.5-1.3-0.7c-0.5-0.2-1.1-0.3-1.6-0.3c-0.5,0-1.1-0.1-1.8-0.1H66.1z"/>
<path fill="#010101" d="M122.2,3v3.2c-2-2-4.3-3-7-3c-2.5,0-4.7,0.9-6.5,2.8c-1.8,1.9-2.7,4.1-2.7,6.7s0.9,4.8,2.7,6.7
	c1.8,1.9,4,2.8,6.6,2.8c2.6,0,4.9-1,6.9-3v3.2c-2.1,1.5-4.4,2.3-6.9,2.3c-3.3,0-6.1-1.2-8.4-3.5s-3.6-5.1-3.6-8.3
	c0-3.3,1.2-6.1,3.5-8.5c2.3-2.3,5.2-3.5,8.5-3.5C117.9,0.7,120.2,1.5,122.2,3z"/>
<path fill="#010101" d="M136.7,14v10.1h-2.6v-23h3.3c1.2,0,2.2,0.1,3.2,0.3c0.9,0.2,1.8,0.5,2.7,0.9s1.5,1.1,1.9,2
	c0.4,0.9,0.7,1.9,0.7,3.1c0,1.8-0.5,3.2-1.6,4.4c-1,1.2-2.4,1.8-4.2,1.9l7.3,10.3h-3.1L137.3,14L136.7,14L136.7,14z M136.7,3.5v8.3
	h0.8c0.8,0,1.5,0,2.1-0.2c0.6-0.1,1.2-0.3,1.8-0.6c0.6-0.3,1.1-0.7,1.4-1.3c0.3-0.6,0.5-1.3,0.5-2.1c0-0.7-0.1-1.4-0.3-1.9
	s-0.5-0.9-0.8-1.2c-0.3-0.3-0.8-0.5-1.3-0.7c-0.5-0.2-1.1-0.3-1.6-0.3c-0.5,0-1.1-0.1-1.8-0.1H136.7z"/>
<path fill="#010101" d="M158.3,24.1v-23h11.9v2.4h-9.4v6.8h9.1v2.4h-9.1v9h9.4v2.4H158.3z"/>
<path fill="#010101" d="M195.4,17.6h-9.8l-2.8,6.5H180L190.6,0L201,24.1h-2.8L195.4,17.6z M194.4,15.2L190.6,6l-3.9,9.2H194.4z"/>
<path fill="#010101" d="M214.7,3.5v20.6h-2.6V3.5h-5.5V1.1h13.7v2.4H214.7z"/>
<path fill="#010101" d="M233.2,1.1v23h-2.6v-23H233.2z"/>
<path fill="#010101" d="M247.8,4.2c2.3-2.3,5.2-3.5,8.5-3.5c3.3,0,6.1,1.2,8.5,3.5c2.3,2.3,3.5,5.1,3.5,8.4s-1.2,6.1-3.5,8.4
	c-2.3,2.3-5.2,3.5-8.5,3.5c-3.3,0-6.1-1.2-8.5-3.5c-2.3-2.3-3.5-5.1-3.5-8.4C244.3,9.3,245.5,6.5,247.8,4.2z M263,5.9
	c-1.8-1.9-4.1-2.8-6.7-2.8c-2.6,0-4.8,0.9-6.7,2.8c-1.8,1.9-2.7,4.1-2.7,6.7c0,2.6,0.9,4.8,2.8,6.7c1.8,1.9,4.1,2.8,6.7,2.8
	c2.6,0,4.8-0.9,6.7-2.8c1.8-1.9,2.8-4.1,2.8-6.7C265.7,10,264.8,7.7,263,5.9z"/>
<path fill="#010101" d="M279.5,24.1V0.1l17.9,18.8V1.1h2.6v24L282.1,6.4v17.7L279.5,24.1L279.5,24.1z"/>
</svg>
