<?xml version="1.0" encoding="utf-8"?>
<!-- Generator: Adobe Illustrator 18.1.1, SVG Export Plug-In . SVG Version: 6.00 Build 0)  -->
<svg version="1.1" id="Layer_1" xmlns="http://www.w3.org/2000/svg" xmlns:xlink="http://www.w3.org/1999/xlink" x="0px" y="0px"
	 viewBox="0 0 389.5 25.1" enable-background="new 0 0 389.5 25.1" xml:space="preserve">
<g>
	<path fill="#010101" d="M2.8,1.2l6,17.1L16.2,0l7.4,18.3l6-17.1h2.8l-8.8,24.1L16.2,6.8L8.8,25.2L0,1.2H2.8z"/>
	<path fill="#010101" d="M45.3,10.5H57V1.2h2.6v22.9H57V12.8H45.3v11.2h-2.5V1.2h2.5V10.5z"/>
	<path fill="#010101" d="M71.9,24.1V1.2h11.9v2.4h-9.3v6.8h9v2.4h-9v9h9.3v2.4H71.9z"/>
	<path fill="#010101" d="M98.2,14v10h-2.6V1.2H99c1.2,0,2.2,0.1,3.2,0.3c0.9,0.2,1.8,0.5,2.6,0.9c0.8,0.4,1.5,1.1,1.9,2
		c0.5,0.9,0.7,1.9,0.7,3.1c0,1.8-0.5,3.2-1.6,4.4c-1,1.2-2.4,1.8-4.2,1.9l7.3,10.3h-3.1l-6.9-10L98.2,14L98.2,14z M98.2,3.5v8.2H99
		c0.8,0,1.5,0,2.1-0.1c0.6-0.1,1.2-0.3,1.8-0.6c0.6-0.3,1-0.7,1.4-1.3c0.3-0.6,0.5-1.3,0.5-2.1c0-0.7-0.1-1.4-0.3-1.9
		s-0.5-0.9-0.8-1.2c-0.3-0.3-0.8-0.5-1.3-0.7c-0.5-0.2-1.1-0.3-1.6-0.3c-0.5,0-1.1-0.1-1.8-0.1H98.2z"/>
	<path fill="#010101" d="M119.7,24.1V1.2h11.9v2.4h-9.3v6.8h9v2.4h-9v9h9.3v2.4H119.7z"/>
	<path fill="#010101" d="M166.5,3.5v20.5h-2.5V3.5h-5.5V1.2h13.7v2.4H166.5z"/>
	<path fill="#010101" d="M184.6,4.3c2.3-2.3,5.1-3.5,8.4-3.5c3.3,0,6.1,1.2,8.4,3.5c2.3,2.3,3.5,5.1,3.5,8.4s-1.2,6.1-3.5,8.4
		c-2.3,2.3-5.1,3.5-8.4,3.5c-3.3,0-6.1-1.2-8.4-3.5c-2.3-2.3-3.5-5.1-3.5-8.4C181.1,9.4,182.3,6.6,184.6,4.3z M199.7,5.9
		c-1.8-1.9-4-2.8-6.7-2.8c-2.6,0-4.8,0.9-6.6,2.8c-1.8,1.8-2.7,4.1-2.7,6.7c0,2.6,0.9,4.8,2.7,6.7c1.8,1.9,4,2.8,6.6,2.8
		c2.6,0,4.8-0.9,6.6-2.8c1.8-1.9,2.7-4.1,2.7-6.7C202.4,10,201.5,7.8,199.7,5.9z"/>
	<path fill="#010101" d="M243.4,3.5h-7.9v6.8h7.6v2.4h-7.6v11.4h-2.6V1.2h10.4V3.5z"/>
	<path fill="#010101" d="M257.7,1.2v22.9h-2.6V1.2H257.7z"/>
	<path fill="#010101" d="M270,24.1V0.2l17.8,18.7V1.2h2.6v23.9L272.6,6.4v17.6L270,24.1L270,24.1z"/>
	<path fill="#010101" d="M302.8,24.1V1.2h4.3c1.9,0,3.6,0.2,5,0.6c1.4,0.4,2.7,1.1,4,2.2c2.5,2.2,3.8,5.1,3.8,8.7
		c0,3.5-1.2,6.3-3.7,8.5c-1.3,1.1-2.6,1.9-4,2.3c-1.4,0.4-3.1,0.6-5.1,0.6L302.8,24.1L302.8,24.1z M305.3,21.7h1.8
		c1.6,0,2.9-0.2,4.1-0.5c1.1-0.3,2.2-1,3.2-1.9c1.9-1.8,2.9-4,2.9-6.7c0-2.8-1-5.1-3-6.9c-1-0.9-2-1.5-3.1-1.8
		c-1.1-0.3-2.4-0.5-4-0.5h-1.8V21.7z"/>
	<path fill="#010101" d="M350.4,1.2v13.6c0,0.9,0,1.5,0,1.9c0,0.4,0.1,0.9,0.3,1.6c0.2,0.7,0.4,1.2,0.7,1.7c0.5,0.7,1.2,1.2,2,1.6
		c0.9,0.4,1.7,0.6,2.6,0.6c0.8,0,1.6-0.2,2.5-0.5c0.8-0.4,1.5-0.9,2-1.5c0.3-0.4,0.6-0.9,0.8-1.6c0.2-0.6,0.3-1.1,0.3-1.5
		c0-0.4,0-1,0-1.8c0-0.2,0-0.3,0-0.4V1.2h2.6v14.3c0,1.5-0.1,2.7-0.4,3.6c-0.3,1-0.8,1.9-1.6,2.7c-1.6,1.7-3.7,2.6-6.2,2.6
		c-2.3,0-4.3-0.8-5.9-2.3c-0.9-0.9-1.5-1.8-1.8-2.8c-0.3-1-0.4-2.3-0.4-3.8V1.2L350.4,1.2L350.4,1.2z"/>
	<path fill="#010101" d="M388.7,4.3l-2,1.3c-0.9-1.7-2.3-2.5-3.9-2.5c-1,0-1.9,0.3-2.7,1c-0.7,0.7-1.1,1.5-1.1,2.6
		c0,0.5,0.1,0.9,0.3,1.3c0.2,0.4,0.5,0.7,0.9,1c0.4,0.3,0.8,0.5,1.1,0.7c0.3,0.2,0.7,0.4,1.3,0.6L384,11c0.9,0.4,1.6,0.7,2.2,1.1
		c0.6,0.3,1.1,0.7,1.7,1.2c0.5,0.5,1,1.1,1.2,1.8c0.3,0.7,0.4,1.5,0.4,2.3c0,2-0.7,3.7-2.1,5c-1.4,1.4-3.1,2.1-5.1,2.1
		c-1.8,0-3.4-0.5-4.7-1.6c-1.3-1.1-2.1-2.5-2.5-4.3l2.5-0.7c0.2,1.2,0.7,2.2,1.5,3c0.8,0.8,1.9,1.2,3.1,1.2c1.3,0,2.4-0.4,3.3-1.3
		c0.9-0.9,1.4-1.9,1.4-3.2c0-0.5-0.1-1-0.3-1.4c-0.2-0.4-0.4-0.8-0.6-1c-0.2-0.3-0.5-0.5-1-0.9c-0.5-0.3-0.8-0.5-1.1-0.7
		c-0.3-0.1-0.7-0.3-1.3-0.6l-1.4-0.6c-1.6-0.7-2.8-1.5-3.7-2.4c-0.9-0.9-1.3-2-1.3-3.5c0-1.7,0.6-3.1,1.9-4.2
		c1.3-1.1,2.8-1.6,4.5-1.6c1.3,0,2.4,0.3,3.5,0.9S388.1,3.2,388.7,4.3z"/>
</g>
</svg>
