<?xml version="1.0" encoding="utf-8"?>
<!-- Generator: Adobe Illustrator 18.1.1, SVG Export Plug-In . SVG Version: 6.00 Build 0)  -->
<svg version="1.1" id="Layer_1" xmlns="http://www.w3.org/2000/svg" xmlns:xlink="http://www.w3.org/1999/xlink" x="0px" y="0px"
	 viewBox="0 70.2 150 9.7" enable-background="new 0 70.2 150 9.7" xml:space="preserve">
<g>
	<path fill="#C7AE21" d="M1.1,70.6l2.3,6.6l2.8-7l2.8,7l2.3-6.6h1.1L9,79.9l-2.8-7.1l-2.8,7.1L0,70.6H1.1z"/>
	<path fill="#C7AE21" d="M17.4,74.2H22v-3.6h1v8.8h-1V75h-4.5v4.3h-1v-8.8h1v3.7H17.4z"/>
	<path fill="#C7AE21" d="M27.7,79.4v-8.8h4.6v0.9h-3.6v2.6h3.5V75h-3.5v3.5h3.6v0.9H27.7L27.7,79.4z"/>
	<path fill="#C7AE21" d="M37.8,75.6v3.9h-1v-8.8h1.3c0.5,0,0.8,0,1.2,0.1c0.3,0.1,0.7,0.2,1,0.3s0.6,0.4,0.7,0.8
		c0.2,0.3,0.3,0.7,0.3,1.2c0,0.7-0.2,1.2-0.6,1.7c-0.4,0.5-0.9,0.7-1.6,0.7l2.8,4h-1.2L38,75.6L37.8,75.6L37.8,75.6z M37.8,71.5v3.2
		h0.3c0.3,0,0.6,0,0.8,0s0.5-0.1,0.7-0.2s0.4-0.3,0.5-0.5s0.2-0.5,0.2-0.8s0-0.5-0.1-0.7S40,72.2,39.9,72c-0.1-0.1-0.3-0.2-0.5-0.3
		c-0.2-0.1-0.4-0.1-0.6-0.1s-0.4,0-0.7,0L37.8,71.5L37.8,71.5z"/>
	<path fill="#C7AE21" d="M46.1,79.4v-8.8h4.6v0.9h-3.6v2.6h3.5V75h-3.5v3.5h3.6v0.9H46.1L46.1,79.4z"/>
	<path fill="#C7AE21" d="M64.1,71.5v7.9h-1v-7.9H61v-0.9h5.3v0.9H64.1L64.1,71.5z"/>
	<path fill="#C7AE21" d="M71.1,71.8c0.9-0.9,2-1.3,3.2-1.3s2.3,0.5,3.2,1.3c0.9,0.9,1.3,2,1.3,3.2s-0.5,2.3-1.3,3.2
		c-0.9,0.9-2,1.3-3.2,1.3c-1.3,0-2.3-0.5-3.2-1.3c-0.9-0.9-1.3-2-1.3-3.2S70.2,72.7,71.1,71.8z M76.9,72.4c-0.7-0.7-1.5-1.1-2.6-1.1
		c-1,0-1.8,0.3-2.5,1.1c-0.7,0.7-1,1.6-1,2.6s0.3,1.8,1,2.6c0.7,0.7,1.5,1.1,2.5,1.1s1.8-0.3,2.5-1.1c0.7-0.7,1-1.6,1-2.6
		C77.9,74,77.6,73.2,76.9,72.4z"/>
	<path fill="#C7AE21" d="M93.7,71.5h-3v2.6h2.9V75h-2.9v4.4h-1v-8.8h4V71.5L93.7,71.5z"/>
	<path fill="#C7AE21" d="M99.2,70.6v8.8h-1v-8.8H99.2z"/>
	<path fill="#C7AE21" d="M104,79.4v-9.2l6.9,7.2v-6.8h1v9.2l-6.9-7.2v6.8H104L104,79.4z"/>
	<path fill="#C7AE21" d="M116.6,79.4v-8.8h1.7c0.7,0,1.4,0.1,1.9,0.2c0.5,0.2,1,0.4,1.5,0.8c1,0.8,1.5,2,1.5,3.4
		c0,1.3-0.5,2.4-1.4,3.3c-0.5,0.4-1,0.7-1.5,0.9c-0.5,0.2-1.2,0.2-2,0.2H116.6L116.6,79.4z M117.6,78.5h0.7c0.6,0,1.1-0.1,1.6-0.2
		c0.4-0.1,0.8-0.4,1.2-0.7c0.7-0.7,1.1-1.5,1.1-2.6s-0.4-2-1.2-2.7c-0.4-0.3-0.8-0.6-1.2-0.7c-0.4-0.1-0.9-0.2-1.5-0.2h-0.7V78.5
		L117.6,78.5z"/>
	<path fill="#C7AE21" d="M134.9,70.6v5.2c0,0.3,0,0.6,0,0.7s0,0.3,0.1,0.6s0.2,0.5,0.3,0.7c0.2,0.3,0.5,0.5,0.8,0.6
		c0.3,0.2,0.7,0.2,1,0.2s0.6-0.1,1-0.2c0.3-0.2,0.6-0.3,0.8-0.6c0.1-0.2,0.2-0.3,0.3-0.6c0.1-0.2,0.1-0.4,0.1-0.6s0-0.4,0-0.7
		c0-0.1,0-0.1,0-0.2v-5.3h1v5.5c0,0.6,0,1-0.2,1.4c-0.1,0.4-0.3,0.7-0.6,1c-0.6,0.7-1.4,1-2.4,1c-0.9,0-1.7-0.3-2.3-0.9
		c-0.3-0.3-0.6-0.7-0.7-1.1c-0.1-0.4-0.2-0.9-0.2-1.5v-5.5h1V70.6z"/>
	<path fill="#C7AE21" d="M149.7,71.8l-0.8,0.5c-0.3-0.7-0.9-1-1.5-1c-0.4,0-0.7,0.1-1,0.4s-0.4,0.6-0.4,1c0,0.2,0,0.3,0.1,0.5
		s0.2,0.3,0.3,0.4c0.2,0.1,0.3,0.2,0.4,0.3c0.1,0.1,0.3,0.2,0.5,0.2l0.5,0.3c0.3,0.2,0.6,0.3,0.8,0.4s0.4,0.3,0.7,0.5
		c0.2,0.2,0.4,0.4,0.5,0.7c0.1,0.3,0.2,0.6,0.2,0.9c0,0.8-0.3,1.4-0.8,1.9s-1.2,0.8-2,0.8c-0.7,0-1.3-0.2-1.8-0.6s-0.8-1-1-1.7
		l1-0.3c0.1,0.5,0.3,0.8,0.6,1.2c0.3,0.3,0.7,0.5,1.2,0.5s0.9-0.2,1.3-0.5c0.3-0.3,0.5-0.7,0.5-1.2c0-0.2,0-0.4-0.1-0.5
		c-0.1-0.2-0.2-0.3-0.2-0.4c-0.1-0.1-0.2-0.2-0.4-0.3c-0.2-0.1-0.3-0.2-0.4-0.3c-0.1,0-0.3-0.1-0.5-0.2l-0.5-0.2
		c-0.6-0.3-1.1-0.6-1.4-0.9c-0.3-0.3-0.5-0.8-0.5-1.3c0-0.7,0.2-1.2,0.7-1.6s1.1-0.6,1.7-0.6c0.5,0,0.9,0.1,1.3,0.3
		C149.1,71,149.5,71.4,149.7,71.8z"/>
</g>
</svg>
